<?xml version="1.0" encoding="utf-8" standalone="no"?>
<!DOCTYPE svg PUBLIC "-//W3C//DTD SVG 1.1//EN"
  "http://www.w3.org/Graphics/SVG/1.1/DTD/svg11.dtd">
<svg height="389.477594pt" version="1.1" viewBox="0 0 510.950563 389.477594" width="510.950563pt" xmlns="http://www.w3.org/2000/svg" xmlns:xlink="http://www.w3.org/1999/xlink">
 <metadata>
  <rdf:RDF xmlns:cc="http://creativecommons.org/ns#" xmlns:dc="http://purl.org/dc/elements/1.1/" xmlns:rdf="http://www.w3.org/1999/02/22-rdf-syntax-ns#">
   <cc:Work>
    <dc:type rdf:resource="http://purl.org/dc/dcmitype/StillImage"/>
    <dc:date>2023-05-03T16:31:10.239635</dc:date>
    <dc:format>image/svg+xml</dc:format>
    <dc:creator>
     <cc:Agent>
      <dc:title>Matplotlib v3.4.3, https://matplotlib.org/</dc:title>
     </cc:Agent>
    </dc:creator>
   </cc:Work>
  </rdf:RDF>
 </metadata>
 <defs>
  <style type="text/css">*{stroke-linecap:butt;stroke-linejoin:round;}</style>
 </defs>
 <g id="figure_1">
  <g id="patch_1">
   <path d="M 0 389.477594 
L 510.950563 389.477594 
L 510.950563 0 
L 0 0 
z
" style="fill:#ffffff;"/>
  </g>
  <g id="axes_1">
   <g id="patch_2">
    <path d="M 63.093 339.84 
L 397.893 339.84 
L 397.893 7.2 
L 63.093 7.2 
z
" style="fill:#ffffff;"/>
   </g>
   <g id="matplotlib.axis_1">
    <g id="xtick_1">
     <g id="text_1">
      <!-- 0 -->
      <g style="fill:#262626;" transform="translate(73.761994 360.205766)scale(0.143 -0.143)">
       <defs>
        <path d="M 2034 4250 
Q 1547 4250 1301 3770 
Q 1056 3291 1056 2328 
Q 1056 1369 1301 889 
Q 1547 409 2034 409 
Q 2525 409 2770 889 
Q 3016 1369 3016 2328 
Q 3016 3291 2770 3770 
Q 2525 4250 2034 4250 
z
M 2034 4750 
Q 2819 4750 3233 4129 
Q 3647 3509 3647 2328 
Q 3647 1150 3233 529 
Q 2819 -91 2034 -91 
Q 1250 -91 836 529 
Q 422 1150 422 2328 
Q 422 3509 836 4129 
Q 1250 4750 2034 4750 
z
" id="DejaVuSans-30" transform="scale(0.015625)"/>
       </defs>
       <use xlink:href="#DejaVuSans-30"/>
      </g>
     </g>
    </g>
    <g id="xtick_2">
     <g id="text_2">
      <!-- 2 -->
      <g style="fill:#262626;" transform="translate(117.242514 360.205766)scale(0.143 -0.143)">
       <defs>
        <path d="M 1228 531 
L 3431 531 
L 3431 0 
L 469 0 
L 469 531 
Q 828 903 1448 1529 
Q 2069 2156 2228 2338 
Q 2531 2678 2651 2914 
Q 2772 3150 2772 3378 
Q 2772 3750 2511 3984 
Q 2250 4219 1831 4219 
Q 1534 4219 1204 4116 
Q 875 4013 500 3803 
L 500 4441 
Q 881 4594 1212 4672 
Q 1544 4750 1819 4750 
Q 2544 4750 2975 4387 
Q 3406 4025 3406 3419 
Q 3406 3131 3298 2873 
Q 3191 2616 2906 2266 
Q 2828 2175 2409 1742 
Q 1991 1309 1228 531 
z
" id="DejaVuSans-32" transform="scale(0.015625)"/>
       </defs>
       <use xlink:href="#DejaVuSans-32"/>
      </g>
     </g>
    </g>
    <g id="xtick_3">
     <g id="text_3">
      <!-- 4 -->
      <g style="fill:#262626;" transform="translate(160.723033 360.205766)scale(0.143 -0.143)">
       <defs>
        <path d="M 2419 4116 
L 825 1625 
L 2419 1625 
L 2419 4116 
z
M 2253 4666 
L 3047 4666 
L 3047 1625 
L 3713 1625 
L 3713 1100 
L 3047 1100 
L 3047 0 
L 2419 0 
L 2419 1100 
L 313 1100 
L 313 1709 
L 2253 4666 
z
" id="DejaVuSans-34" transform="scale(0.015625)"/>
       </defs>
       <use xlink:href="#DejaVuSans-34"/>
      </g>
     </g>
    </g>
    <g id="xtick_4">
     <g id="text_4">
      <!-- 6 -->
      <g style="fill:#262626;" transform="translate(204.203553 360.205766)scale(0.143 -0.143)">
       <defs>
        <path d="M 2113 2584 
Q 1688 2584 1439 2293 
Q 1191 2003 1191 1497 
Q 1191 994 1439 701 
Q 1688 409 2113 409 
Q 2538 409 2786 701 
Q 3034 994 3034 1497 
Q 3034 2003 2786 2293 
Q 2538 2584 2113 2584 
z
M 3366 4563 
L 3366 3988 
Q 3128 4100 2886 4159 
Q 2644 4219 2406 4219 
Q 1781 4219 1451 3797 
Q 1122 3375 1075 2522 
Q 1259 2794 1537 2939 
Q 1816 3084 2150 3084 
Q 2853 3084 3261 2657 
Q 3669 2231 3669 1497 
Q 3669 778 3244 343 
Q 2819 -91 2113 -91 
Q 1303 -91 875 529 
Q 447 1150 447 2328 
Q 447 3434 972 4092 
Q 1497 4750 2381 4750 
Q 2619 4750 2861 4703 
Q 3103 4656 3366 4563 
z
" id="DejaVuSans-36" transform="scale(0.015625)"/>
       </defs>
       <use xlink:href="#DejaVuSans-36"/>
      </g>
     </g>
    </g>
    <g id="xtick_5">
     <g id="text_5">
      <!-- 8 -->
      <g style="fill:#262626;" transform="translate(247.684072 360.205766)scale(0.143 -0.143)">
       <defs>
        <path d="M 2034 2216 
Q 1584 2216 1326 1975 
Q 1069 1734 1069 1313 
Q 1069 891 1326 650 
Q 1584 409 2034 409 
Q 2484 409 2743 651 
Q 3003 894 3003 1313 
Q 3003 1734 2745 1975 
Q 2488 2216 2034 2216 
z
M 1403 2484 
Q 997 2584 770 2862 
Q 544 3141 544 3541 
Q 544 4100 942 4425 
Q 1341 4750 2034 4750 
Q 2731 4750 3128 4425 
Q 3525 4100 3525 3541 
Q 3525 3141 3298 2862 
Q 3072 2584 2669 2484 
Q 3125 2378 3379 2068 
Q 3634 1759 3634 1313 
Q 3634 634 3220 271 
Q 2806 -91 2034 -91 
Q 1263 -91 848 271 
Q 434 634 434 1313 
Q 434 1759 690 2068 
Q 947 2378 1403 2484 
z
M 1172 3481 
Q 1172 3119 1398 2916 
Q 1625 2713 2034 2713 
Q 2441 2713 2670 2916 
Q 2900 3119 2900 3481 
Q 2900 3844 2670 4047 
Q 2441 4250 2034 4250 
Q 1625 4250 1398 4047 
Q 1172 3844 1172 3481 
z
" id="DejaVuSans-38" transform="scale(0.015625)"/>
       </defs>
       <use xlink:href="#DejaVuSans-38"/>
      </g>
     </g>
    </g>
    <g id="xtick_6">
     <g id="text_6">
      <!-- 10 -->
      <g style="fill:#262626;" transform="translate(286.615404 360.205766)scale(0.143 -0.143)">
       <defs>
        <path d="M 794 531 
L 1825 531 
L 1825 4091 
L 703 3866 
L 703 4441 
L 1819 4666 
L 2450 4666 
L 2450 531 
L 3481 531 
L 3481 0 
L 794 0 
L 794 531 
z
" id="DejaVuSans-31" transform="scale(0.015625)"/>
       </defs>
       <use xlink:href="#DejaVuSans-31"/>
       <use x="63.623047" xlink:href="#DejaVuSans-30"/>
      </g>
     </g>
    </g>
    <g id="xtick_7">
     <g id="text_7">
      <!-- 12 -->
      <g style="fill:#262626;" transform="translate(330.095924 360.205766)scale(0.143 -0.143)">
       <use xlink:href="#DejaVuSans-31"/>
       <use x="63.623047" xlink:href="#DejaVuSans-32"/>
      </g>
     </g>
    </g>
    <g id="xtick_8">
     <g id="text_8">
      <!-- 14 -->
      <g style="fill:#262626;" transform="translate(373.576443 360.205766)scale(0.143 -0.143)">
       <use xlink:href="#DejaVuSans-31"/>
       <use x="63.623047" xlink:href="#DejaVuSans-34"/>
      </g>
     </g>
    </g>
    <g id="text_9">
     <!-- Fiber -->
     <g style="fill:#262626;" transform="translate(211.447594 379.033281)scale(0.156 -0.156)">
      <defs>
       <path d="M 628 4666 
L 3309 4666 
L 3309 4134 
L 1259 4134 
L 1259 2759 
L 3109 2759 
L 3109 2228 
L 1259 2228 
L 1259 0 
L 628 0 
L 628 4666 
z
" id="DejaVuSans-46" transform="scale(0.015625)"/>
       <path d="M 603 3500 
L 1178 3500 
L 1178 0 
L 603 0 
L 603 3500 
z
M 603 4863 
L 1178 4863 
L 1178 4134 
L 603 4134 
L 603 4863 
z
" id="DejaVuSans-69" transform="scale(0.015625)"/>
       <path d="M 3116 1747 
Q 3116 2381 2855 2742 
Q 2594 3103 2138 3103 
Q 1681 3103 1420 2742 
Q 1159 2381 1159 1747 
Q 1159 1113 1420 752 
Q 1681 391 2138 391 
Q 2594 391 2855 752 
Q 3116 1113 3116 1747 
z
M 1159 2969 
Q 1341 3281 1617 3432 
Q 1894 3584 2278 3584 
Q 2916 3584 3314 3078 
Q 3713 2572 3713 1747 
Q 3713 922 3314 415 
Q 2916 -91 2278 -91 
Q 1894 -91 1617 61 
Q 1341 213 1159 525 
L 1159 0 
L 581 0 
L 581 4863 
L 1159 4863 
L 1159 2969 
z
" id="DejaVuSans-62" transform="scale(0.015625)"/>
       <path d="M 3597 1894 
L 3597 1613 
L 953 1613 
Q 991 1019 1311 708 
Q 1631 397 2203 397 
Q 2534 397 2845 478 
Q 3156 559 3463 722 
L 3463 178 
Q 3153 47 2828 -22 
Q 2503 -91 2169 -91 
Q 1331 -91 842 396 
Q 353 884 353 1716 
Q 353 2575 817 3079 
Q 1281 3584 2069 3584 
Q 2775 3584 3186 3129 
Q 3597 2675 3597 1894 
z
M 3022 2063 
Q 3016 2534 2758 2815 
Q 2500 3097 2075 3097 
Q 1594 3097 1305 2825 
Q 1016 2553 972 2059 
L 3022 2063 
z
" id="DejaVuSans-65" transform="scale(0.015625)"/>
       <path d="M 2631 2963 
Q 2534 3019 2420 3045 
Q 2306 3072 2169 3072 
Q 1681 3072 1420 2755 
Q 1159 2438 1159 1844 
L 1159 0 
L 581 0 
L 581 3500 
L 1159 3500 
L 1159 2956 
Q 1341 3275 1631 3429 
Q 1922 3584 2338 3584 
Q 2397 3584 2469 3576 
Q 2541 3569 2628 3553 
L 2631 2963 
z
" id="DejaVuSans-72" transform="scale(0.015625)"/>
      </defs>
      <use xlink:href="#DejaVuSans-46"/>
      <use x="50.269531" xlink:href="#DejaVuSans-69"/>
      <use x="78.052734" xlink:href="#DejaVuSans-62"/>
      <use x="141.529297" xlink:href="#DejaVuSans-65"/>
      <use x="203.052734" xlink:href="#DejaVuSans-72"/>
     </g>
    </g>
   </g>
   <g id="matplotlib.axis_2">
    <g id="ytick_1">
     <g id="text_10">
      <!-- 0 -->
      <g style="fill:#262626;" transform="translate(44.494625 329.239288)scale(0.143 -0.143)">
       <use xlink:href="#DejaVuSans-30"/>
      </g>
     </g>
    </g>
    <g id="ytick_2">
     <g id="text_11">
      <!-- 50 -->
      <g style="fill:#262626;" transform="translate(35.39625 283.559529)scale(0.143 -0.143)">
       <defs>
        <path d="M 691 4666 
L 3169 4666 
L 3169 4134 
L 1269 4134 
L 1269 2991 
Q 1406 3038 1543 3061 
Q 1681 3084 1819 3084 
Q 2600 3084 3056 2656 
Q 3513 2228 3513 1497 
Q 3513 744 3044 326 
Q 2575 -91 1722 -91 
Q 1428 -91 1123 -41 
Q 819 9 494 109 
L 494 744 
Q 775 591 1075 516 
Q 1375 441 1709 441 
Q 2250 441 2565 725 
Q 2881 1009 2881 1497 
Q 2881 1984 2565 2268 
Q 2250 2553 1709 2553 
Q 1456 2553 1204 2497 
Q 953 2441 691 2322 
L 691 4666 
z
" id="DejaVuSans-35" transform="scale(0.015625)"/>
       </defs>
       <use xlink:href="#DejaVuSans-35"/>
       <use x="63.623047" xlink:href="#DejaVuSans-30"/>
      </g>
     </g>
    </g>
    <g id="ytick_3">
     <g id="text_12">
      <!-- 100 -->
      <g style="fill:#262626;" transform="translate(26.297875 237.879771)scale(0.143 -0.143)">
       <use xlink:href="#DejaVuSans-31"/>
       <use x="63.623047" xlink:href="#DejaVuSans-30"/>
       <use x="127.246094" xlink:href="#DejaVuSans-30"/>
      </g>
     </g>
    </g>
    <g id="ytick_4">
     <g id="text_13">
      <!-- 150 -->
      <g style="fill:#262626;" transform="translate(26.297875 192.200013)scale(0.143 -0.143)">
       <use xlink:href="#DejaVuSans-31"/>
       <use x="63.623047" xlink:href="#DejaVuSans-35"/>
       <use x="127.246094" xlink:href="#DejaVuSans-30"/>
      </g>
     </g>
    </g>
    <g id="ytick_5">
     <g id="text_14">
      <!-- 200 -->
      <g style="fill:#262626;" transform="translate(26.297875 146.520254)scale(0.143 -0.143)">
       <use xlink:href="#DejaVuSans-32"/>
       <use x="63.623047" xlink:href="#DejaVuSans-30"/>
       <use x="127.246094" xlink:href="#DejaVuSans-30"/>
      </g>
     </g>
    </g>
    <g id="ytick_6">
     <g id="text_15">
      <!-- 250 -->
      <g style="fill:#262626;" transform="translate(26.297875 100.840496)scale(0.143 -0.143)">
       <use xlink:href="#DejaVuSans-32"/>
       <use x="63.623047" xlink:href="#DejaVuSans-35"/>
       <use x="127.246094" xlink:href="#DejaVuSans-30"/>
      </g>
     </g>
    </g>
    <g id="ytick_7">
     <g id="text_16">
      <!-- 300 -->
      <g style="fill:#262626;" transform="translate(26.297875 55.160738)scale(0.143 -0.143)">
       <defs>
        <path d="M 2597 2516 
Q 3050 2419 3304 2112 
Q 3559 1806 3559 1356 
Q 3559 666 3084 287 
Q 2609 -91 1734 -91 
Q 1441 -91 1130 -33 
Q 819 25 488 141 
L 488 750 
Q 750 597 1062 519 
Q 1375 441 1716 441 
Q 2309 441 2620 675 
Q 2931 909 2931 1356 
Q 2931 1769 2642 2001 
Q 2353 2234 1838 2234 
L 1294 2234 
L 1294 2753 
L 1863 2753 
Q 2328 2753 2575 2939 
Q 2822 3125 2822 3475 
Q 2822 3834 2567 4026 
Q 2313 4219 1838 4219 
Q 1578 4219 1281 4162 
Q 984 4106 628 3988 
L 628 4550 
Q 988 4650 1302 4700 
Q 1616 4750 1894 4750 
Q 2613 4750 3031 4423 
Q 3450 4097 3450 3541 
Q 3450 3153 3228 2886 
Q 3006 2619 2597 2516 
z
" id="DejaVuSans-33" transform="scale(0.015625)"/>
       </defs>
       <use xlink:href="#DejaVuSans-33"/>
       <use x="63.623047" xlink:href="#DejaVuSans-30"/>
       <use x="127.246094" xlink:href="#DejaVuSans-30"/>
      </g>
     </g>
    </g>
    <g id="text_17">
     <!-- Potassium -->
     <g style="fill:#262626;" transform="translate(19.053562 213.385312)rotate(-90)scale(0.156 -0.156)">
      <defs>
       <path d="M 1259 4147 
L 1259 2394 
L 2053 2394 
Q 2494 2394 2734 2622 
Q 2975 2850 2975 3272 
Q 2975 3691 2734 3919 
Q 2494 4147 2053 4147 
L 1259 4147 
z
M 628 4666 
L 2053 4666 
Q 2838 4666 3239 4311 
Q 3641 3956 3641 3272 
Q 3641 2581 3239 2228 
Q 2838 1875 2053 1875 
L 1259 1875 
L 1259 0 
L 628 0 
L 628 4666 
z
" id="DejaVuSans-50" transform="scale(0.015625)"/>
       <path d="M 1959 3097 
Q 1497 3097 1228 2736 
Q 959 2375 959 1747 
Q 959 1119 1226 758 
Q 1494 397 1959 397 
Q 2419 397 2687 759 
Q 2956 1122 2956 1747 
Q 2956 2369 2687 2733 
Q 2419 3097 1959 3097 
z
M 1959 3584 
Q 2709 3584 3137 3096 
Q 3566 2609 3566 1747 
Q 3566 888 3137 398 
Q 2709 -91 1959 -91 
Q 1206 -91 779 398 
Q 353 888 353 1747 
Q 353 2609 779 3096 
Q 1206 3584 1959 3584 
z
" id="DejaVuSans-6f" transform="scale(0.015625)"/>
       <path d="M 1172 4494 
L 1172 3500 
L 2356 3500 
L 2356 3053 
L 1172 3053 
L 1172 1153 
Q 1172 725 1289 603 
Q 1406 481 1766 481 
L 2356 481 
L 2356 0 
L 1766 0 
Q 1100 0 847 248 
Q 594 497 594 1153 
L 594 3053 
L 172 3053 
L 172 3500 
L 594 3500 
L 594 4494 
L 1172 4494 
z
" id="DejaVuSans-74" transform="scale(0.015625)"/>
       <path d="M 2194 1759 
Q 1497 1759 1228 1600 
Q 959 1441 959 1056 
Q 959 750 1161 570 
Q 1363 391 1709 391 
Q 2188 391 2477 730 
Q 2766 1069 2766 1631 
L 2766 1759 
L 2194 1759 
z
M 3341 1997 
L 3341 0 
L 2766 0 
L 2766 531 
Q 2569 213 2275 61 
Q 1981 -91 1556 -91 
Q 1019 -91 701 211 
Q 384 513 384 1019 
Q 384 1609 779 1909 
Q 1175 2209 1959 2209 
L 2766 2209 
L 2766 2266 
Q 2766 2663 2505 2880 
Q 2244 3097 1772 3097 
Q 1472 3097 1187 3025 
Q 903 2953 641 2809 
L 641 3341 
Q 956 3463 1253 3523 
Q 1550 3584 1831 3584 
Q 2591 3584 2966 3190 
Q 3341 2797 3341 1997 
z
" id="DejaVuSans-61" transform="scale(0.015625)"/>
       <path d="M 2834 3397 
L 2834 2853 
Q 2591 2978 2328 3040 
Q 2066 3103 1784 3103 
Q 1356 3103 1142 2972 
Q 928 2841 928 2578 
Q 928 2378 1081 2264 
Q 1234 2150 1697 2047 
L 1894 2003 
Q 2506 1872 2764 1633 
Q 3022 1394 3022 966 
Q 3022 478 2636 193 
Q 2250 -91 1575 -91 
Q 1294 -91 989 -36 
Q 684 19 347 128 
L 347 722 
Q 666 556 975 473 
Q 1284 391 1588 391 
Q 1994 391 2212 530 
Q 2431 669 2431 922 
Q 2431 1156 2273 1281 
Q 2116 1406 1581 1522 
L 1381 1569 
Q 847 1681 609 1914 
Q 372 2147 372 2553 
Q 372 3047 722 3315 
Q 1072 3584 1716 3584 
Q 2034 3584 2315 3537 
Q 2597 3491 2834 3397 
z
" id="DejaVuSans-73" transform="scale(0.015625)"/>
       <path d="M 544 1381 
L 544 3500 
L 1119 3500 
L 1119 1403 
Q 1119 906 1312 657 
Q 1506 409 1894 409 
Q 2359 409 2629 706 
Q 2900 1003 2900 1516 
L 2900 3500 
L 3475 3500 
L 3475 0 
L 2900 0 
L 2900 538 
Q 2691 219 2414 64 
Q 2138 -91 1772 -91 
Q 1169 -91 856 284 
Q 544 659 544 1381 
z
M 1991 3584 
L 1991 3584 
z
" id="DejaVuSans-75" transform="scale(0.015625)"/>
       <path d="M 3328 2828 
Q 3544 3216 3844 3400 
Q 4144 3584 4550 3584 
Q 5097 3584 5394 3201 
Q 5691 2819 5691 2113 
L 5691 0 
L 5113 0 
L 5113 2094 
Q 5113 2597 4934 2840 
Q 4756 3084 4391 3084 
Q 3944 3084 3684 2787 
Q 3425 2491 3425 1978 
L 3425 0 
L 2847 0 
L 2847 2094 
Q 2847 2600 2669 2842 
Q 2491 3084 2119 3084 
Q 1678 3084 1418 2786 
Q 1159 2488 1159 1978 
L 1159 0 
L 581 0 
L 581 3500 
L 1159 3500 
L 1159 2956 
Q 1356 3278 1631 3431 
Q 1906 3584 2284 3584 
Q 2666 3584 2933 3390 
Q 3200 3197 3328 2828 
z
" id="DejaVuSans-6d" transform="scale(0.015625)"/>
      </defs>
      <use xlink:href="#DejaVuSans-50"/>
      <use x="56.677734" xlink:href="#DejaVuSans-6f"/>
      <use x="117.859375" xlink:href="#DejaVuSans-74"/>
      <use x="157.068359" xlink:href="#DejaVuSans-61"/>
      <use x="218.347656" xlink:href="#DejaVuSans-73"/>
      <use x="270.447266" xlink:href="#DejaVuSans-73"/>
      <use x="322.546875" xlink:href="#DejaVuSans-69"/>
      <use x="350.330078" xlink:href="#DejaVuSans-75"/>
      <use x="413.708984" xlink:href="#DejaVuSans-6d"/>
     </g>
    </g>
   </g>
   <g id="PathCollection_1">
    <path clip-path="url(#p5ff4c64c1d)" d="M 295.713779 72.96841 
C 297.031481 72.96841 298.295391 72.444882 299.227147 71.513126 
C 300.158902 70.58137 300.682431 69.31746 300.682431 67.999758 
C 300.682431 66.682056 300.158902 65.418147 299.227147 64.486391 
C 298.295391 63.554635 297.031481 63.031107 295.713779 63.031107 
C 294.396077 63.031107 293.132168 63.554635 292.200412 64.486391 
C 291.268656 65.418147 290.745127 66.682056 290.745127 67.999758 
C 290.745127 69.31746 291.268656 70.58137 292.200412 71.513126 
C 293.132168 72.444882 294.396077 72.96841 295.713779 72.96841 
z
" style="fill:#834c7d;stroke:#ffffff;stroke-width:0.493153;"/>
    <path clip-path="url(#p5ff4c64c1d)" d="M 100.051442 327.515085 
C 100.792707 327.515085 101.503711 327.220577 102.027865 326.696424 
C 102.552019 326.17227 102.846527 325.461265 102.846527 324.72 
C 102.846527 323.978735 102.552019 323.26773 102.027865 322.743576 
C 101.503711 322.219423 100.792707 321.924915 100.051442 321.924915 
C 99.310176 321.924915 98.599172 322.219423 98.075018 322.743576 
C 97.550864 323.26773 97.256357 323.978735 97.256357 324.72 
C 97.256357 325.461265 97.550864 326.17227 98.075018 326.696424 
C 98.599172 327.220577 99.310176 327.515085 100.051442 327.515085 
z
" style="fill:#905483;stroke:#ffffff;stroke-width:0.493153;"/>
    <path clip-path="url(#p5ff4c64c1d)" d="M 143.531961 239.809949 
C 144.273226 239.809949 144.984231 239.515441 145.508385 238.991288 
C 146.032538 238.467134 146.327046 237.756129 146.327046 237.014864 
C 146.327046 236.273599 146.032538 235.562594 145.508385 235.038441 
C 144.984231 234.514287 144.273226 234.219779 143.531961 234.219779 
C 142.790696 234.219779 142.079691 234.514287 141.555538 235.038441 
C 141.031384 235.562594 140.736876 236.273599 140.736876 237.014864 
C 140.736876 237.756129 141.031384 238.467134 141.555538 238.991288 
C 142.079691 239.515441 142.790696 239.809949 143.531961 239.809949 
z
" style="fill:#834c7d;stroke:#ffffff;stroke-width:0.493153;"/>
    <path clip-path="url(#p5ff4c64c1d)" d="M 165.272221 198.698167 
C 166.013486 198.698167 166.724491 198.403659 167.248644 197.879505 
C 167.772798 197.355351 168.067306 196.644347 168.067306 195.903082 
C 168.067306 195.161816 167.772798 194.450812 167.248644 193.926658 
C 166.724491 193.402504 166.013486 193.107997 165.272221 193.107997 
C 164.530956 193.107997 163.819951 193.402504 163.295797 193.926658 
C 162.771644 194.450812 162.477136 195.161816 162.477136 195.903082 
C 162.477136 196.644347 162.771644 197.355351 163.295797 197.879505 
C 163.819951 198.403659 164.530956 198.698167 165.272221 198.698167 
z
" style="fill:#6f4172;stroke:#ffffff;stroke-width:0.493153;"/>
    <path clip-path="url(#p5ff4c64c1d)" d="M 143.531961 216.97007 
C 144.273226 216.97007 144.984231 216.675562 145.508385 216.151408 
C 146.032538 215.627255 146.327046 214.91625 146.327046 214.174985 
C 146.327046 213.43372 146.032538 212.722715 145.508385 212.198561 
C 144.984231 211.674408 144.273226 211.3799 143.531961 211.3799 
C 142.790696 211.3799 142.079691 211.674408 141.555538 212.198561 
C 141.031384 212.722715 140.736876 213.43372 140.736876 214.174985 
C 140.736876 214.91625 141.031384 215.627255 141.555538 216.151408 
C 142.079691 216.675562 142.790696 216.97007 143.531961 216.97007 
z
" style="fill:#744375;stroke:#ffffff;stroke-width:0.493153;"/>
    <path clip-path="url(#p5ff4c64c1d)" d="M 143.531961 246.259912 
C 144.772335 246.259912 145.962073 245.767106 146.83915 244.890029 
C 147.716227 244.012952 148.209033 242.823214 148.209033 241.58284 
C 148.209033 240.342466 147.716227 239.152728 146.83915 238.275651 
C 145.962073 237.398574 144.772335 236.905768 143.531961 236.905768 
C 142.291587 236.905768 141.101849 237.398574 140.224772 238.275651 
C 139.347695 239.152728 138.854889 240.342466 138.854889 241.58284 
C 138.854889 242.823214 139.347695 244.012952 140.224772 244.890029 
C 141.101849 245.767106 142.291587 246.259912 143.531961 246.259912 
z
" style="fill:#9f5f8a;stroke:#ffffff;stroke-width:0.493153;"/>
    <path clip-path="url(#p5ff4c64c1d)" d="M 121.791701 205.976736 
C 123.251824 205.976736 124.652341 205.396623 125.684804 204.36416 
C 126.717267 203.331697 127.29738 201.931181 127.29738 200.471057 
C 127.29738 199.010934 126.717267 197.610417 125.684804 196.577955 
C 124.652341 195.545492 123.251824 194.965379 121.791701 194.965379 
C 120.331578 194.965379 118.931061 195.545492 117.898598 196.577955 
C 116.866135 197.610417 116.286022 199.010934 116.286022 200.471057 
C 116.286022 201.931181 116.866135 203.331697 117.898598 204.36416 
C 118.931061 205.396623 120.331578 205.976736 121.791701 205.976736 
z
" style="fill:#daa2ac;stroke:#ffffff;stroke-width:0.493153;"/>
    <path clip-path="url(#p5ff4c64c1d)" d="M 78.311182 298.277472 
C 80.020919 298.277472 81.66086 297.598187 82.869827 296.38922 
C 84.078794 295.180253 84.75808 293.540311 84.75808 291.830574 
C 84.75808 290.120837 84.078794 288.480895 82.869827 287.271928 
C 81.66086 286.062961 80.020919 285.383676 78.311182 285.383676 
C 76.601444 285.383676 74.961503 286.062961 73.752536 287.271928 
C 72.543569 288.480895 71.864283 290.120837 71.864283 291.830574 
C 71.864283 293.540311 72.543569 295.180253 73.752536 296.38922 
C 74.961503 297.598187 76.601444 298.277472 78.311182 298.277472 
z
" style="fill:#edd1cb;stroke:#ffffff;stroke-width:0.493153;"/>
    <path clip-path="url(#p5ff4c64c1d)" d="M 100.051442 288.919572 
C 101.702318 288.919572 103.2858 288.263672 104.453146 287.096327 
C 105.620491 285.928981 106.276391 284.345498 106.276391 282.694622 
C 106.276391 281.043746 105.620491 279.460264 104.453146 278.292918 
C 103.2858 277.125573 101.702318 276.469673 100.051442 276.469673 
C 98.400566 276.469673 96.817083 277.125573 95.649737 278.292918 
C 94.482392 279.460264 93.826492 281.043746 93.826492 282.694622 
C 93.826492 284.345498 94.482392 285.928981 95.649737 287.096327 
C 96.817083 288.263672 98.400566 288.919572 100.051442 288.919572 
z
" style="fill:#eac7c3;stroke:#ffffff;stroke-width:0.493153;"/>
    <path clip-path="url(#p5ff4c64c1d)" d="M 121.791701 241.983516 
C 123.109403 241.983516 124.373313 241.459987 125.305069 240.528231 
C 126.236825 239.596475 126.760353 238.332566 126.760353 237.014864 
C 126.760353 235.697162 126.236825 234.433253 125.305069 233.501497 
C 124.373313 232.569741 123.109403 232.046212 121.791701 232.046212 
C 120.473999 232.046212 119.21009 232.569741 118.278334 233.501497 
C 117.346578 234.433253 116.82305 235.697162 116.82305 237.014864 
C 116.82305 238.332566 117.346578 239.596475 118.278334 240.528231 
C 119.21009 241.459987 120.473999 241.983516 121.791701 241.983516 
z
" style="fill:#c3819c;stroke:#ffffff;stroke-width:0.493153;"/>
    <path clip-path="url(#p5ff4c64c1d)" d="M 78.311182 312.897562 
C 79.052447 312.897562 79.763452 312.603055 80.287605 312.078901 
C 80.811759 311.554747 81.106267 310.843743 81.106267 310.102477 
C 81.106267 309.361212 80.811759 308.650207 80.287605 308.126054 
C 79.763452 307.6019 79.052447 307.307392 78.311182 307.307392 
C 77.569917 307.307392 76.858912 307.6019 76.334758 308.126054 
C 75.810605 308.650207 75.516097 309.361212 75.516097 310.102477 
C 75.516097 310.843743 75.810605 311.554747 76.334758 312.078901 
C 76.858912 312.603055 77.569917 312.897562 78.311182 312.897562 
z
" style="fill:#9b5c89;stroke:#ffffff;stroke-width:0.493153;"/>
    <path clip-path="url(#p5ff4c64c1d)" d="M 100.051442 280.921731 
C 100.792707 280.921731 101.503711 280.627224 102.027865 280.10307 
C 102.552019 279.578916 102.846527 278.867912 102.846527 278.126647 
C 102.846527 277.385381 102.552019 276.674377 102.027865 276.150223 
C 101.503711 275.626069 100.792707 275.331562 100.051442 275.331562 
C 99.310176 275.331562 98.599172 275.626069 98.075018 276.150223 
C 97.550864 276.674377 97.256357 277.385381 97.256357 278.126647 
C 97.256357 278.867912 97.550864 279.578916 98.075018 280.10307 
C 98.599172 280.627224 99.310176 280.921731 100.051442 280.921731 
z
" style="fill:#945785;stroke:#ffffff;stroke-width:0.493153;"/>
    <path clip-path="url(#p5ff4c64c1d)" d="M 121.791701 228.279588 
C 123.109403 228.279588 124.373313 227.75606 125.305069 226.824304 
C 126.236825 225.892548 126.760353 224.628638 126.760353 223.310937 
C 126.760353 221.993235 126.236825 220.729325 125.305069 219.797569 
C 124.373313 218.865813 123.109403 218.342285 121.791701 218.342285 
C 120.473999 218.342285 119.21009 218.865813 118.278334 219.797569 
C 117.346578 220.729325 116.82305 221.993235 116.82305 223.310937 
C 116.82305 224.628638 117.346578 225.892548 118.278334 226.824304 
C 119.21009 227.75606 120.473999 228.279588 121.791701 228.279588 
z
" style="fill:#bb7797;stroke:#ffffff;stroke-width:0.493153;"/>
    <path clip-path="url(#p5ff4c64c1d)" d="M 137.009883 225.547005 
C 137.602895 225.547005 138.171699 225.311398 138.591022 224.892075 
C 139.010345 224.472752 139.245951 223.903949 139.245951 223.310937 
C 139.245951 222.717924 139.010345 222.149121 138.591022 221.729798 
C 138.171699 221.310475 137.602895 221.074869 137.009883 221.074869 
C 136.416871 221.074869 135.848067 221.310475 135.428744 221.729798 
C 135.009421 222.149121 134.773815 222.717924 134.773815 223.310937 
C 134.773815 223.903949 135.009421 224.472752 135.428744 224.892075 
C 135.848067 225.311398 136.416871 225.547005 137.009883 225.547005 
z
" style="fill:#b77495;stroke:#ffffff;stroke-width:0.493153;"/>
    <path clip-path="url(#p5ff4c64c1d)" d="M 273.973519 36.133023 
C 275.213893 36.133023 276.403632 35.640218 277.280709 34.763141 
C 278.157785 33.886064 278.650591 32.696326 278.650591 31.455952 
C 278.650591 30.215578 278.157785 29.025839 277.280709 28.148763 
C 276.403632 27.271686 275.213893 26.77888 273.973519 26.77888 
C 272.733146 26.77888 271.543407 27.271686 270.66633 28.148763 
C 269.789254 29.025839 269.296448 30.215578 269.296448 31.455952 
C 269.296448 32.696326 269.789254 33.886064 270.66633 34.763141 
C 271.543407 35.640218 272.733146 36.133023 273.973519 36.133023 
z
" style="fill:#9f5f8a;stroke:#ffffff;stroke-width:0.493153;"/>
    <path clip-path="url(#p5ff4c64c1d)" d="M 382.674818 25.115085 
C 383.416083 25.115085 384.127088 24.820577 384.651242 24.296424 
C 385.175395 23.77227 385.469903 23.061265 385.469903 22.32 
C 385.469903 21.578735 385.175395 20.86773 384.651242 20.343576 
C 384.127088 19.819423 383.416083 19.524915 382.674818 19.524915 
C 381.933553 19.524915 381.222548 19.819423 380.698395 20.343576 
C 380.174241 20.86773 379.879733 21.578735 379.879733 22.32 
C 379.879733 23.061265 380.174241 23.77227 380.698395 24.296424 
C 381.222548 24.820577 381.933553 25.115085 382.674818 25.115085 
z
" style="fill:#2d1e3e;stroke:#ffffff;stroke-width:0.493153;"/>
    <path clip-path="url(#p5ff4c64c1d)" d="M 100.051442 303.267866 
C 101.873205 303.267866 103.6206 302.544071 104.908781 301.25589 
C 106.196963 299.967708 106.920757 298.220314 106.920757 296.39855 
C 106.920757 294.576786 106.196963 292.829392 104.908781 291.54121 
C 103.6206 290.253028 101.873205 289.529234 100.051442 289.529234 
C 98.229678 289.529234 96.482283 290.253028 95.194102 291.54121 
C 93.90592 292.829392 93.182126 294.576786 93.182126 296.39855 
C 93.182126 298.220314 93.90592 299.967708 95.194102 301.25589 
C 96.482283 302.544071 98.229678 303.267866 100.051442 303.267866 
z
" style="fill:#daa4ac;stroke:#ffffff;stroke-width:0.493153;"/>
    <path clip-path="url(#p5ff4c64c1d)" d="M 100.051442 295.496294 
C 101.023602 295.496294 101.956076 295.11005 102.643497 294.422629 
C 103.330918 293.735208 103.717161 292.802734 103.717161 291.830574 
C 103.717161 290.858414 103.330918 289.92594 102.643497 289.238519 
C 101.956076 288.551098 101.023602 288.164854 100.051442 288.164854 
C 99.079281 288.164854 98.146807 288.551098 97.459386 289.238519 
C 96.771965 289.92594 96.385722 290.858414 96.385722 291.830574 
C 96.385722 292.802734 96.771965 293.735208 97.459386 294.422629 
C 98.146807 295.11005 99.079281 295.496294 100.051442 295.496294 
z
" style="fill:#c2809b;stroke:#ffffff;stroke-width:0.493153;"/>
    <path clip-path="url(#p5ff4c64c1d)" d="M 100.051442 311.9814 
C 101.761179 311.9814 103.40112 311.302114 104.610087 310.093147 
C 105.819054 308.88418 106.49834 307.244239 106.49834 305.534502 
C 106.49834 303.824764 105.819054 302.184823 104.610087 300.975856 
C 103.40112 299.766889 101.761179 299.087603 100.051442 299.087603 
C 98.341704 299.087603 96.701763 299.766889 95.492796 300.975856 
C 94.283829 302.184823 93.604543 303.824764 93.604543 305.534502 
C 93.604543 307.244239 94.283829 308.88418 95.492796 310.093147 
C 96.701763 311.302114 98.341704 311.9814 100.051442 311.9814 
z
" style="fill:#d69ca8;stroke:#ffffff;stroke-width:0.493153;"/>
    <path clip-path="url(#p5ff4c64c1d)" d="M 165.272221 182.875222 
C 166.662958 182.875222 167.996921 182.322677 168.98032 181.339277 
C 169.963719 180.355878 170.516265 179.021915 170.516265 177.631178 
C 170.516265 176.240441 169.963719 174.906478 168.98032 173.923079 
C 167.996921 172.93968 166.662958 172.387134 165.272221 172.387134 
C 163.881484 172.387134 162.547521 172.93968 161.564122 173.923079 
C 160.580722 174.906478 160.028177 176.240441 160.028177 177.631178 
C 160.028177 179.021915 160.580722 180.355878 161.564122 181.339277 
C 162.547521 182.322677 163.881484 182.875222 165.272221 182.875222 
z
" style="fill:#ce8fa2;stroke:#ffffff;stroke-width:0.493153;"/>
    <path clip-path="url(#p5ff4c64c1d)" d="M 100.051442 300.429679 
C 101.120509 300.429679 102.145935 300.004934 102.90188 299.248988 
C 103.657825 298.493043 104.08257 297.467618 104.08257 296.39855 
C 104.08257 295.329482 103.657825 294.304056 102.90188 293.548111 
C 102.145935 292.792166 101.120509 292.367421 100.051442 292.367421 
C 98.982374 292.367421 97.956948 292.792166 97.201003 293.548111 
C 96.445058 294.304056 96.020313 295.329482 96.020313 296.39855 
C 96.020313 297.467618 96.445058 298.493043 97.201003 299.248988 
C 97.956948 300.004934 98.982374 300.429679 100.051442 300.429679 
z
" style="fill:#c17e9a;stroke:#ffffff;stroke-width:0.493153;"/>
    <path clip-path="url(#p5ff4c64c1d)" d="M 100.051442 303.060006 
C 101.81808 303.060006 103.5126 302.358113 104.761802 301.108911 
C 106.011005 299.859708 106.712898 298.165189 106.712898 296.39855 
C 106.712898 294.631911 106.011005 292.937391 104.761802 291.688189 
C 103.5126 290.438987 101.81808 289.737094 100.051442 289.737094 
C 98.284803 289.737094 96.590283 290.438987 95.341081 291.688189 
C 94.091878 292.937391 93.389985 294.631911 93.389985 296.39855 
C 93.389985 298.165189 94.091878 299.859708 95.341081 301.108911 
C 96.590283 302.358113 98.284803 303.060006 100.051442 303.060006 
z
" style="fill:#dca7ae;stroke:#ffffff;stroke-width:0.493153;"/>
    <path clip-path="url(#p5ff4c64c1d)" d="M 100.051442 307.191475 
C 101.702318 307.191475 103.2858 306.535575 104.453146 305.36823 
C 105.620491 304.200884 106.276391 302.617402 106.276391 300.966526 
C 106.276391 299.31565 105.620491 297.732167 104.453146 296.564821 
C 103.2858 295.397476 101.702318 294.741576 100.051442 294.741576 
C 98.400566 294.741576 96.817083 295.397476 95.649737 296.564821 
C 94.482392 297.732167 93.826492 299.31565 93.826492 300.966526 
C 93.826492 302.617402 94.482392 304.200884 95.649737 305.36823 
C 96.817083 306.535575 98.400566 307.191475 100.051442 307.191475 
z
" style="fill:#dda9af;stroke:#ffffff;stroke-width:0.493153;"/>
    <path clip-path="url(#p5ff4c64c1d)" d="M 143.531961 237.690932 
C 144.922698 237.690932 146.256661 237.138387 147.24006 236.154987 
C 148.22346 235.171588 148.776005 233.837625 148.776005 232.446888 
C 148.776005 231.056151 148.22346 229.722188 147.24006 228.738789 
C 146.256661 227.75539 144.922698 227.202844 143.531961 227.202844 
C 142.141224 227.202844 140.807261 227.75539 139.823862 228.738789 
C 138.840462 229.722188 138.287917 231.056151 138.287917 232.446888 
C 138.287917 233.837625 138.840462 235.171588 139.823862 236.154987 
C 140.807261 237.138387 142.141224 237.690932 143.531961 237.690932 
z
" style="fill:#a3628c;stroke:#ffffff;stroke-width:0.493153;"/>
    <path clip-path="url(#p5ff4c64c1d)" d="M 187.012481 156.670222 
C 188.722218 156.670222 190.362159 155.990936 191.571126 154.781969 
C 192.780093 153.573002 193.459379 151.933061 193.459379 150.223323 
C 193.459379 148.513586 192.780093 146.873645 191.571126 145.664678 
C 190.362159 144.455711 188.722218 143.776425 187.012481 143.776425 
C 185.302743 143.776425 183.662802 144.455711 182.453835 145.664678 
C 181.244868 146.873645 180.565582 148.513586 180.565582 150.223323 
C 180.565582 151.933061 181.244868 153.573002 182.453835 154.781969 
C 183.662802 155.990936 185.302743 156.670222 187.012481 156.670222 
z
" style="fill:#cd8ea1;stroke:#ffffff;stroke-width:0.493153;"/>
    <path clip-path="url(#p5ff4c64c1d)" d="M 100.051442 273.959347 
C 101.369143 273.959347 102.633053 273.435818 103.564809 272.504062 
C 104.496565 271.572306 105.020093 270.308397 105.020093 268.990695 
C 105.020093 267.672993 104.496565 266.409083 103.564809 265.477328 
C 102.633053 264.545572 101.369143 264.022043 100.051442 264.022043 
C 98.73374 264.022043 97.46983 264.545572 96.538074 265.477328 
C 95.606318 266.409083 95.08279 267.672993 95.08279 268.990695 
C 95.08279 270.308397 95.606318 271.572306 96.538074 272.504062 
C 97.46983 273.435818 98.73374 273.959347 100.051442 273.959347 
z
" style="fill:#d59ba8;stroke:#ffffff;stroke-width:0.493153;"/>
    <path clip-path="url(#p5ff4c64c1d)" d="M 121.791701 242.770296 
C 123.31806 242.770296 124.782108 242.163868 125.861406 241.084569 
C 126.940705 240.005271 127.547134 238.541223 127.547134 237.014864 
C 127.547134 235.488506 126.940705 234.024457 125.861406 232.945159 
C 124.782108 231.86586 123.31806 231.259432 121.791701 231.259432 
C 120.265343 231.259432 118.801295 231.86586 117.721996 232.945159 
C 116.642698 234.024457 116.036269 235.488506 116.036269 237.014864 
C 116.036269 238.541223 116.642698 240.005271 117.721996 241.084569 
C 118.801295 242.163868 120.265343 242.770296 121.791701 242.770296 
z
" style="fill:#d59ba8;stroke:#ffffff;stroke-width:0.493153;"/>
    <path clip-path="url(#p5ff4c64c1d)" d="M 143.531961 184.292635 
C 145.2986 184.292635 146.99312 183.590741 148.242322 182.341539 
C 149.491524 181.092337 150.193417 179.397817 150.193417 177.631178 
C 150.193417 175.864539 149.491524 174.17002 148.242322 172.920817 
C 146.99312 171.671615 145.2986 170.969722 143.531961 170.969722 
C 141.765322 170.969722 140.070802 171.671615 138.8216 172.920817 
C 137.572398 174.17002 136.870505 175.864539 136.870505 177.631178 
C 136.870505 179.397817 137.572398 181.092337 138.8216 182.341539 
C 140.070802 183.590741 141.765322 184.292635 143.531961 184.292635 
z
" style="fill:#dfacb1;stroke:#ffffff;stroke-width:0.493153;"/>
    <path clip-path="url(#p5ff4c64c1d)" d="M 78.311182 293.01803 
C 79.83754 293.01803 81.301589 292.411602 82.380887 291.332303 
C 83.460185 290.253005 84.066614 288.788957 84.066614 287.262598 
C 84.066614 285.73624 83.460185 284.272191 82.380887 283.192893 
C 81.301589 282.113595 79.83754 281.507166 78.311182 281.507166 
C 76.784823 281.507166 75.320775 282.113595 74.241477 283.192893 
C 73.162178 284.272191 72.55575 285.73624 72.55575 287.262598 
C 72.55575 288.788957 73.162178 290.253005 74.241477 291.332303 
C 75.320775 292.411602 76.784823 293.01803 78.311182 293.01803 
z
" style="fill:#dfaeb2;stroke:#ffffff;stroke-width:0.493153;"/>
    <path clip-path="url(#p5ff4c64c1d)" d="M 143.531961 210.283077 
C 144.922698 210.283077 146.256661 209.730532 147.24006 208.747132 
C 148.22346 207.763733 148.776005 206.42977 148.776005 205.039033 
C 148.776005 203.648296 148.22346 202.314333 147.24006 201.330934 
C 146.256661 200.347535 144.922698 199.794989 143.531961 199.794989 
C 142.141224 199.794989 140.807261 200.347535 139.823862 201.330934 
C 138.840462 202.314333 138.287917 203.648296 138.287917 205.039033 
C 138.287917 206.42977 138.840462 207.763733 139.823862 208.747132 
C 140.807261 209.730532 142.141224 210.283077 143.531961 210.283077 
z
" style="fill:#ce8fa2;stroke:#ffffff;stroke-width:0.493153;"/>
    <path clip-path="url(#p5ff4c64c1d)" d="M 143.531961 245.248559 
C 144.504121 245.248559 145.436595 244.862316 146.124016 244.174895 
C 146.811437 243.487474 147.197681 242.555 147.197681 241.58284 
C 147.197681 240.61068 146.811437 239.678206 146.124016 238.990785 
C 145.436595 238.303364 144.504121 237.91712 143.531961 237.91712 
C 142.559801 237.91712 141.627327 238.303364 140.939906 238.990785 
C 140.252485 239.678206 139.866241 240.61068 139.866241 241.58284 
C 139.866241 242.555 140.252485 243.487474 140.939906 244.174895 
C 141.627327 244.862316 142.559801 245.248559 143.531961 245.248559 
z
" style="fill:#9f5f8a;stroke:#ffffff;stroke-width:0.493153;"/>
    <path clip-path="url(#p5ff4c64c1d)" d="M 100.051442 286.725751 
C 101.120509 286.725751 102.145935 286.301006 102.90188 285.545061 
C 103.657825 284.789116 104.08257 283.76369 104.08257 282.694622 
C 104.08257 281.625554 103.657825 280.600129 102.90188 279.844184 
C 102.145935 279.088239 101.120509 278.663493 100.051442 278.663493 
C 98.982374 278.663493 97.956948 279.088239 97.201003 279.844184 
C 96.445058 280.600129 96.020313 281.625554 96.020313 282.694622 
C 96.020313 283.76369 96.445058 284.789116 97.201003 285.545061 
C 97.956948 286.301006 98.982374 286.725751 100.051442 286.725751 
z
" style="fill:#cc8da1;stroke:#ffffff;stroke-width:0.493153;"/>
    <path clip-path="url(#p5ff4c64c1d)" d="M 187.012481 110.990463 
C 188.722218 110.990463 190.362159 110.311178 191.571126 109.102211 
C 192.780093 107.893244 193.459379 106.253302 193.459379 104.543565 
C 193.459379 102.833827 192.780093 101.193886 191.571126 99.984919 
C 190.362159 98.775952 188.722218 98.096666 187.012481 98.096666 
C 185.302743 98.096666 183.662802 98.775952 182.453835 99.984919 
C 181.244868 101.193886 180.565582 102.833827 180.565582 104.543565 
C 180.565582 106.253302 181.244868 107.893244 182.453835 109.102211 
C 183.662802 110.311178 185.302743 110.990463 187.012481 110.990463 
z
" style="fill:#d093a4;stroke:#ffffff;stroke-width:0.493153;"/>
    <path clip-path="url(#p5ff4c64c1d)" d="M 121.791701 228.279588 
C 123.109403 228.279588 124.373313 227.75606 125.305069 226.824304 
C 126.236825 225.892548 126.760353 224.628638 126.760353 223.310937 
C 126.760353 221.993235 126.236825 220.729325 125.305069 219.797569 
C 124.373313 218.865813 123.109403 218.342285 121.791701 218.342285 
C 120.473999 218.342285 119.21009 218.865813 118.278334 219.797569 
C 117.346578 220.729325 116.82305 221.993235 116.82305 223.310937 
C 116.82305 224.628638 117.346578 225.892548 118.278334 226.824304 
C 119.21009 227.75606 120.473999 228.279588 121.791701 228.279588 
z
" style="fill:#ab6990;stroke:#ffffff;stroke-width:0.493153;"/>
    <path clip-path="url(#p5ff4c64c1d)" d="M 78.311182 295.861703 
C 79.38025 295.861703 80.405675 295.436958 81.16162 294.681013 
C 81.917566 293.925067 82.342311 292.899642 82.342311 291.830574 
C 82.342311 290.761506 81.917566 289.736081 81.16162 288.980135 
C 80.405675 288.22419 79.38025 287.799445 78.311182 287.799445 
C 77.242114 287.799445 76.216688 288.22419 75.460743 288.980135 
C 74.704798 289.736081 74.280053 290.761506 74.280053 291.830574 
C 74.280053 292.899642 74.704798 293.925067 75.460743 294.681013 
C 76.216688 295.436958 77.242114 295.861703 78.311182 295.861703 
z
" style="fill:#ce8fa2;stroke:#ffffff;stroke-width:0.493153;"/>
    <path clip-path="url(#p5ff4c64c1d)" d="M 100.051442 294.333666 
C 101.926711 294.333666 103.725426 293.588614 105.051442 292.262598 
C 106.377457 290.936583 107.122509 289.137867 107.122509 287.262598 
C 107.122509 285.387329 106.377457 283.588614 105.051442 282.262598 
C 103.725426 280.936583 101.926711 280.19153 100.051442 280.19153 
C 98.176172 280.19153 96.377457 280.936583 95.051442 282.262598 
C 93.725426 283.588614 92.980374 285.387329 92.980374 287.262598 
C 92.980374 289.137867 93.725426 290.936583 95.051442 292.262598 
C 96.377457 293.588614 98.176172 294.333666 100.051442 294.333666 
z
" style="fill:#ddaab0;stroke:#ffffff;stroke-width:0.493153;"/>
    <path clip-path="url(#p5ff4c64c1d)" d="M 100.051442 277.5898 
C 101.120509 277.5898 102.145935 277.165054 102.90188 276.409109 
C 103.657825 275.653164 104.08257 274.627739 104.08257 273.558671 
C 104.08257 272.489603 103.657825 271.464177 102.90188 270.708232 
C 102.145935 269.952287 101.120509 269.527542 100.051442 269.527542 
C 98.982374 269.527542 97.956948 269.952287 97.201003 270.708232 
C 96.445058 271.464177 96.020313 272.489603 96.020313 273.558671 
C 96.020313 274.627739 96.445058 275.653164 97.201003 276.409109 
C 97.956948 277.165054 98.982374 277.5898 100.051442 277.5898 
z
" style="fill:#b16e92;stroke:#ffffff;stroke-width:0.493153;"/>
    <path clip-path="url(#p5ff4c64c1d)" d="M 100.051442 330.225679 
C 101.511565 330.225679 102.912081 329.645566 103.944544 328.613103 
C 104.977007 327.58064 105.55712 326.180123 105.55712 324.72 
C 105.55712 323.259877 104.977007 321.85936 103.944544 320.826897 
C 102.912081 319.794434 101.511565 319.214321 100.051442 319.214321 
C 98.591318 319.214321 97.190802 319.794434 96.158339 320.826897 
C 95.125876 321.85936 94.545763 323.259877 94.545763 324.72 
C 94.545763 326.180123 95.125876 327.58064 96.158339 328.613103 
C 97.190802 329.645566 98.591318 330.225679 100.051442 330.225679 
z
" style="fill:#d8a0aa;stroke:#ffffff;stroke-width:0.493153;"/>
    <path clip-path="url(#p5ff4c64c1d)" d="M 165.272221 214.575661 
C 166.589923 214.575661 167.853832 214.052132 168.785588 213.120376 
C 169.717344 212.18862 170.240873 210.924711 170.240873 209.607009 
C 170.240873 208.289307 169.717344 207.025398 168.785588 206.093642 
C 167.853832 205.161886 166.589923 204.638357 165.272221 204.638357 
C 163.954519 204.638357 162.690609 205.161886 161.758853 206.093642 
C 160.827098 207.025398 160.303569 208.289307 160.303569 209.607009 
C 160.303569 210.924711 160.827098 212.18862 161.758853 213.120376 
C 162.690609 214.052132 163.954519 214.575661 165.272221 214.575661 
z
" style="fill:#bb7797;stroke:#ffffff;stroke-width:0.493153;"/>
    <path clip-path="url(#p5ff4c64c1d)" d="M 78.311182 304.997655 
C 79.38025 304.997655 80.405675 304.572909 81.16162 303.816964 
C 81.917566 303.061019 82.342311 302.035594 82.342311 300.966526 
C 82.342311 299.897458 81.917566 298.872032 81.16162 298.116087 
C 80.405675 297.360142 79.38025 296.935397 78.311182 296.935397 
C 77.242114 296.935397 76.216688 297.360142 75.460743 298.116087 
C 74.704798 298.872032 74.280053 299.897458 74.280053 300.966526 
C 74.280053 302.035594 74.704798 303.061019 75.460743 303.816964 
C 76.216688 304.572909 77.242114 304.997655 78.311182 304.997655 
z
" style="fill:#cc8da1;stroke:#ffffff;stroke-width:0.493153;"/>
    <path clip-path="url(#p5ff4c64c1d)" d="M 100.051442 255.395863 
C 101.291815 255.395863 102.481554 254.903057 103.358631 254.025981 
C 104.235708 253.148904 104.728513 251.959165 104.728513 250.718792 
C 104.728513 249.478418 104.235708 248.288679 103.358631 247.411602 
C 102.481554 246.534526 101.291815 246.04172 100.051442 246.04172 
C 98.811068 246.04172 97.621329 246.534526 96.744252 247.411602 
C 95.867176 248.288679 95.37437 249.478418 95.37437 250.718792 
C 95.37437 251.959165 95.867176 253.148904 96.744252 254.025981 
C 97.621329 254.903057 98.811068 255.395863 100.051442 255.395863 
z
" style="fill:#c6859d;stroke:#ffffff;stroke-width:0.493153;"/>
    <path clip-path="url(#p5ff4c64c1d)" d="M 143.531961 174.720176 
C 145.182837 174.720176 146.76632 174.064276 147.933665 172.896931 
C 149.101011 171.729585 149.756911 170.146103 149.756911 168.495227 
C 149.756911 166.844351 149.101011 165.260868 147.933665 164.093522 
C 146.76632 162.926177 145.182837 162.270277 143.531961 162.270277 
C 141.881085 162.270277 140.297602 162.926177 139.130257 164.093522 
C 137.962911 165.260868 137.307011 166.844351 137.307011 168.495227 
C 137.307011 170.146103 137.962911 171.729585 139.130257 172.896931 
C 140.297602 174.064276 141.881085 174.720176 143.531961 174.720176 
z
" style="fill:#d499a7;stroke:#ffffff;stroke-width:0.493153;"/>
    <path clip-path="url(#p5ff4c64c1d)" d="M 143.531961 174.720176 
C 145.182837 174.720176 146.76632 174.064276 147.933665 172.896931 
C 149.101011 171.729585 149.756911 170.146103 149.756911 168.495227 
C 149.756911 166.844351 149.101011 165.260868 147.933665 164.093522 
C 146.76632 162.926177 145.182837 162.270277 143.531961 162.270277 
C 141.881085 162.270277 140.297602 162.926177 139.130257 164.093522 
C 137.962911 165.260868 137.307011 166.844351 137.307011 168.495227 
C 137.307011 170.146103 137.962911 171.729585 139.130257 172.896931 
C 140.297602 174.064276 141.881085 174.720176 143.531961 174.720176 
z
" style="fill:#d9a1ab;stroke:#ffffff;stroke-width:0.493153;"/>
    <path clip-path="url(#p5ff4c64c1d)" d="M 78.311182 300.064269 
C 79.283342 300.064269 80.215816 299.678026 80.903237 298.990605 
C 81.590658 298.303184 81.976901 297.37071 81.976901 296.39855 
C 81.976901 295.42639 81.590658 294.493916 80.903237 293.806495 
C 80.215816 293.119074 79.283342 292.73283 78.311182 292.73283 
C 77.339022 292.73283 76.406548 293.119074 75.719127 293.806495 
C 75.031706 294.493916 74.645462 295.42639 74.645462 296.39855 
C 74.645462 297.37071 75.031706 298.303184 75.719127 298.990605 
C 76.406548 299.678026 77.339022 300.064269 78.311182 300.064269 
z
" style="fill:#cb8aa0;stroke:#ffffff;stroke-width:0.493153;"/>
    <path clip-path="url(#p5ff4c64c1d)" d="M 143.531961 222.77409 
C 144.601029 222.77409 145.626454 222.349344 146.3824 221.593399 
C 147.138345 220.837454 147.56309 219.812029 147.56309 218.742961 
C 147.56309 217.673893 147.138345 216.648467 146.3824 215.892522 
C 145.626454 215.136577 144.601029 214.711832 143.531961 214.711832 
C 142.462893 214.711832 141.437468 215.136577 140.681522 215.892522 
C 139.925577 216.648467 139.500832 217.673893 139.500832 218.742961 
C 139.500832 219.812029 139.925577 220.837454 140.681522 221.593399 
C 141.437468 222.349344 142.462893 222.77409 143.531961 222.77409 
z
" style="fill:#ba7696;stroke:#ffffff;stroke-width:0.493153;"/>
    <path clip-path="url(#p5ff4c64c1d)" d="M 110.921571 265.849533 
C 112.511408 265.849533 114.036343 265.217884 115.160528 264.093699 
C 116.284712 262.969515 116.916361 261.44458 116.916361 259.854743 
C 116.916361 258.264906 116.284712 256.739971 115.160528 255.615787 
C 114.036343 254.491603 112.511408 253.859954 110.921571 253.859954 
C 109.331735 253.859954 107.8068 254.491603 106.682615 255.615787 
C 105.558431 256.739971 104.926782 258.264906 104.926782 259.854743 
C 104.926782 261.44458 105.558431 262.969515 106.682615 264.093699 
C 107.8068 265.217884 109.331735 265.849533 110.921571 265.849533 
z
" style="fill:#e0afb3;stroke:#ffffff;stroke-width:0.493153;"/>
    <path clip-path="url(#p5ff4c64c1d)" d="M 121.791701 237.952567 
C 123.251824 237.952567 124.652341 237.372454 125.684804 236.339991 
C 126.717267 235.307528 127.29738 233.907011 127.29738 232.446888 
C 127.29738 230.986765 126.717267 229.586248 125.684804 228.553785 
C 124.652341 227.521322 123.251824 226.941209 121.791701 226.941209 
C 120.331578 226.941209 118.931061 227.521322 117.898598 228.553785 
C 116.866135 229.586248 116.286022 230.986765 116.286022 232.446888 
C 116.286022 233.907011 116.866135 235.307528 117.898598 236.339991 
C 118.931061 237.372454 120.331578 237.952567 121.791701 237.952567 
z
" style="fill:#d499a7;stroke:#ffffff;stroke-width:0.493153;"/>
    <path clip-path="url(#p5ff4c64c1d)" d="M 121.791701 231.138514 
C 122.656158 231.138514 123.485324 230.795061 124.096587 230.183799 
C 124.70785 229.572536 125.051303 228.743369 125.051303 227.878912 
C 125.051303 227.014456 124.70785 226.185289 124.096587 225.574026 
C 123.485324 224.962763 122.656158 224.619311 121.791701 224.619311 
C 120.927245 224.619311 120.098078 224.962763 119.486815 225.574026 
C 118.875552 226.185289 118.5321 227.014456 118.5321 227.878912 
C 118.5321 228.743369 118.875552 229.572536 119.486815 230.183799 
C 120.098078 230.795061 120.927245 231.138514 121.791701 231.138514 
z
" style="fill:#b77495;stroke:#ffffff;stroke-width:0.493153;"/>
    <path clip-path="url(#p5ff4c64c1d)" d="M 78.311182 288.450055 
C 79.83754 288.450055 81.301589 287.843626 82.380887 286.764328 
C 83.460185 285.685029 84.066614 284.220981 84.066614 282.694622 
C 84.066614 281.168264 83.460185 279.704216 82.380887 278.624917 
C 81.301589 277.545619 79.83754 276.93919 78.311182 276.93919 
C 76.784823 276.93919 75.320775 277.545619 74.241477 278.624917 
C 73.162178 279.704216 72.55575 281.168264 72.55575 282.694622 
C 72.55575 284.220981 73.162178 285.685029 74.241477 286.764328 
C 75.320775 287.843626 76.784823 288.450055 78.311182 288.450055 
z
" style="fill:#ecccc7;stroke:#ffffff;stroke-width:0.493153;"/>
    <path clip-path="url(#p5ff4c64c1d)" d="M 121.791701 233.122957 
C 123.182438 233.122957 124.516401 232.570411 125.499801 231.587012 
C 126.4832 230.603612 127.035746 229.269649 127.035746 227.878912 
C 127.035746 226.488176 126.4832 225.154213 125.499801 224.170813 
C 124.516401 223.187414 123.182438 222.634868 121.791701 222.634868 
C 120.400965 222.634868 119.067001 223.187414 118.083602 224.170813 
C 117.100203 225.154213 116.547657 226.488176 116.547657 227.878912 
C 116.547657 229.269649 117.100203 230.603612 118.083602 231.587012 
C 119.067001 232.570411 120.400965 233.122957 121.791701 233.122957 
z
" style="fill:#ce8fa2;stroke:#ffffff;stroke-width:0.493153;"/>
    <path clip-path="url(#p5ff4c64c1d)" d="M 78.311182 280.220127 
C 80.077821 280.220127 81.77234 279.518234 83.021543 278.269032 
C 84.270745 277.019829 84.972638 275.32531 84.972638 273.558671 
C 84.972638 271.792032 84.270745 270.097512 83.021543 268.84831 
C 81.77234 267.599107 80.077821 266.897214 78.311182 266.897214 
C 76.544543 266.897214 74.850023 267.599107 73.600821 268.84831 
C 72.351619 270.097512 71.649726 271.792032 71.649726 273.558671 
C 71.649726 275.32531 72.351619 277.019829 73.600821 278.269032 
C 74.850023 279.518234 76.544543 280.220127 78.311182 280.220127 
z
" style="fill:#e9c4c1;stroke:#ffffff;stroke-width:0.493153;"/>
    <path clip-path="url(#p5ff4c64c1d)" d="M 78.311182 271.084175 
C 80.077821 271.084175 81.77234 270.382282 83.021543 269.13308 
C 84.270745 267.883878 84.972638 266.189358 84.972638 264.422719 
C 84.972638 262.65608 84.270745 260.96156 83.021543 259.712358 
C 81.77234 258.463156 80.077821 257.761263 78.311182 257.761263 
C 76.544543 257.761263 74.850023 258.463156 73.600821 259.712358 
C 72.351619 260.96156 71.649726 262.65608 71.649726 264.422719 
C 71.649726 266.189358 72.351619 267.883878 73.600821 269.13308 
C 74.850023 270.382282 76.544543 271.084175 78.311182 271.084175 
z
" style="fill:#e9c4c1;stroke:#ffffff;stroke-width:0.493153;"/>
    <path clip-path="url(#p5ff4c64c1d)" d="M 121.791701 220.169774 
C 123.381538 220.169774 124.906473 219.538125 126.030658 218.413941 
C 127.154842 217.289757 127.786491 215.764822 127.786491 214.174985 
C 127.786491 212.585148 127.154842 211.060213 126.030658 209.936029 
C 124.906473 208.811844 123.381538 208.180195 121.791701 208.180195 
C 120.201865 208.180195 118.676929 208.811844 117.552745 209.936029 
C 116.428561 211.060213 115.796912 212.585148 115.796912 214.174985 
C 115.796912 215.764822 116.428561 217.289757 117.552745 218.413941 
C 118.676929 219.538125 120.201865 220.169774 121.791701 220.169774 
z
" style="fill:#d59ba8;stroke:#ffffff;stroke-width:0.493153;"/>
    <path clip-path="url(#p5ff4c64c1d)" d="M 78.311182 288.450055 
C 79.83754 288.450055 81.301589 287.843626 82.380887 286.764328 
C 83.460185 285.685029 84.066614 284.220981 84.066614 282.694622 
C 84.066614 281.168264 83.460185 279.704216 82.380887 278.624917 
C 81.301589 277.545619 79.83754 276.93919 78.311182 276.93919 
C 76.784823 276.93919 75.320775 277.545619 74.241477 278.624917 
C 73.162178 279.704216 72.55575 281.168264 72.55575 282.694622 
C 72.55575 284.220981 73.162178 285.685029 74.241477 286.764328 
C 75.320775 287.843626 76.784823 288.450055 78.311182 288.450055 
z
" style="fill:#e7c1be;stroke:#ffffff;stroke-width:0.493153;"/>
    <path clip-path="url(#p5ff4c64c1d)" d="M 110.921571 247.577629 
C 112.511408 247.577629 114.036343 246.94598 115.160528 245.821796 
C 116.284712 244.697612 116.916361 243.172677 116.916361 241.58284 
C 116.916361 239.993003 116.284712 238.468068 115.160528 237.343884 
C 114.036343 236.219699 112.511408 235.58805 110.921571 235.58805 
C 109.331735 235.58805 107.8068 236.219699 106.682615 237.343884 
C 105.558431 238.468068 104.926782 239.993003 104.926782 241.58284 
C 104.926782 243.172677 105.558431 244.697612 106.682615 245.821796 
C 107.8068 246.94598 109.331735 247.577629 110.921571 247.577629 
z
" style="fill:#ddaab0;stroke:#ffffff;stroke-width:0.493153;"/>
    <path clip-path="url(#p5ff4c64c1d)" d="M 78.311182 291.293727 
C 79.38025 291.293727 80.405675 290.868982 81.16162 290.113037 
C 81.917566 289.357092 82.342311 288.331666 82.342311 287.262598 
C 82.342311 286.19353 81.917566 285.168105 81.16162 284.41216 
C 80.405675 283.656214 79.38025 283.231469 78.311182 283.231469 
C 77.242114 283.231469 76.216688 283.656214 75.460743 284.41216 
C 74.704798 285.168105 74.280053 286.19353 74.280053 287.262598 
C 74.280053 288.331666 74.704798 289.357092 75.460743 290.113037 
C 76.216688 290.868982 77.242114 291.293727 78.311182 291.293727 
z
" style="fill:#d093a4;stroke:#ffffff;stroke-width:0.493153;"/>
    <path clip-path="url(#p5ff4c64c1d)" d="M 78.311182 280.005569 
C 80.020919 280.005569 81.66086 279.326283 82.869827 278.117316 
C 84.078794 276.908349 84.75808 275.268408 84.75808 273.558671 
C 84.75808 271.848933 84.078794 270.208992 82.869827 269.000025 
C 81.66086 267.791058 80.020919 267.111772 78.311182 267.111772 
C 76.601444 267.111772 74.961503 267.791058 73.752536 269.000025 
C 72.543569 270.208992 71.864283 271.848933 71.864283 273.558671 
C 71.864283 275.268408 72.543569 276.908349 73.752536 278.117316 
C 74.961503 279.326283 76.601444 280.005569 78.311182 280.005569 
z
" style="fill:#e4b8b8;stroke:#ffffff;stroke-width:0.493153;"/>
    <path clip-path="url(#p5ff4c64c1d)" d="M 121.791701 246.551492 
C 123.109403 246.551492 124.373313 246.027963 125.305069 245.096207 
C 126.236825 244.164451 126.760353 242.900542 126.760353 241.58284 
C 126.760353 240.265138 126.236825 239.001228 125.305069 238.069473 
C 124.373313 237.137717 123.109403 236.614188 121.791701 236.614188 
C 120.473999 236.614188 119.21009 237.137717 118.278334 238.069473 
C 117.346578 239.001228 116.82305 240.265138 116.82305 241.58284 
C 116.82305 242.900542 117.346578 244.164451 118.278334 245.096207 
C 119.21009 246.027963 120.473999 246.551492 121.791701 246.551492 
z
" style="fill:#cf90a2;stroke:#ffffff;stroke-width:0.493153;"/>
    <path clip-path="url(#p5ff4c64c1d)" d="M 110.921571 220.169774 
C 112.511408 220.169774 114.036343 219.538125 115.160528 218.413941 
C 116.284712 217.289757 116.916361 215.764822 116.916361 214.174985 
C 116.916361 212.585148 116.284712 211.060213 115.160528 209.936029 
C 114.036343 208.811844 112.511408 208.180195 110.921571 208.180195 
C 109.331735 208.180195 107.8068 208.811844 106.682615 209.936029 
C 105.558431 211.060213 104.926782 212.585148 104.926782 214.174985 
C 104.926782 215.764822 105.558431 217.289757 106.682615 218.413941 
C 107.8068 219.538125 109.331735 220.169774 110.921571 220.169774 
z
" style="fill:#dfacb1;stroke:#ffffff;stroke-width:0.493153;"/>
    <path clip-path="url(#p5ff4c64c1d)" d="M 132.661831 201.40876 
C 134.121954 201.40876 135.522471 200.828647 136.554934 199.796184 
C 137.587397 198.763721 138.16751 197.363205 138.16751 195.903082 
C 138.16751 194.442958 137.587397 193.042442 136.554934 192.009979 
C 135.522471 190.977516 134.121954 190.397403 132.661831 190.397403 
C 131.201708 190.397403 129.801191 190.977516 128.768728 192.009979 
C 127.736265 193.042442 127.156152 194.442958 127.156152 195.903082 
C 127.156152 197.363205 127.736265 198.763721 128.768728 199.796184 
C 129.801191 200.828647 131.201708 201.40876 132.661831 201.40876 
z
" style="fill:#cf91a3;stroke:#ffffff;stroke-width:0.493153;"/>
    <path clip-path="url(#p5ff4c64c1d)" d="M 78.311182 295.861703 
C 79.38025 295.861703 80.405675 295.436958 81.16162 294.681013 
C 81.917566 293.925067 82.342311 292.899642 82.342311 291.830574 
C 82.342311 290.761506 81.917566 289.736081 81.16162 288.980135 
C 80.405675 288.22419 79.38025 287.799445 78.311182 287.799445 
C 77.242114 287.799445 76.216688 288.22419 75.460743 288.980135 
C 74.704798 289.736081 74.280053 290.761506 74.280053 291.830574 
C 74.280053 292.899642 74.704798 293.925067 75.460743 294.681013 
C 76.216688 295.436958 77.242114 295.861703 78.311182 295.861703 
z
" style="fill:#d194a4;stroke:#ffffff;stroke-width:0.493153;"/>
    <path clip-path="url(#p5ff4c64c1d)" d="M 165.272221 120.548832 
C 167.093985 120.548832 168.841379 119.825038 170.129561 118.536856 
C 171.417742 117.248675 172.141537 115.50128 172.141537 113.679517 
C 172.141537 111.857753 171.417742 110.110358 170.129561 108.822177 
C 168.841379 107.533995 167.093985 106.810201 165.272221 106.810201 
C 163.450457 106.810201 161.703063 107.533995 160.414881 108.822177 
C 159.126699 110.110358 158.402905 111.857753 158.402905 113.679517 
C 158.402905 115.50128 159.126699 117.248675 160.414881 118.536856 
C 161.703063 119.825038 163.450457 120.548832 165.272221 120.548832 
z
" style="fill:#e2b3b5;stroke:#ffffff;stroke-width:0.493153;"/>
    <path clip-path="url(#p5ff4c64c1d)" d="M 143.531961 227.342065 
C 144.601029 227.342065 145.626454 226.91732 146.3824 226.161375 
C 147.138345 225.40543 147.56309 224.380004 147.56309 223.310937 
C 147.56309 222.241869 147.138345 221.216443 146.3824 220.460498 
C 145.626454 219.704553 144.601029 219.279808 143.531961 219.279808 
C 142.462893 219.279808 141.437468 219.704553 140.681522 220.460498 
C 139.925577 221.216443 139.500832 222.241869 139.500832 223.310937 
C 139.500832 224.380004 139.925577 225.40543 140.681522 226.161375 
C 141.437468 226.91732 142.462893 227.342065 143.531961 227.342065 
z
" style="fill:#c27f9a;stroke:#ffffff;stroke-width:0.493153;"/>
    <path clip-path="url(#p5ff4c64c1d)" d="M 78.311182 273.021824 
C 79.38025 273.021824 80.405675 272.597079 81.16162 271.841133 
C 81.917566 271.085188 82.342311 270.059763 82.342311 268.990695 
C 82.342311 267.921627 81.917566 266.896201 81.16162 266.140256 
C 80.405675 265.384311 79.38025 264.959566 78.311182 264.959566 
C 77.242114 264.959566 76.216688 265.384311 75.460743 266.140256 
C 74.704798 266.896201 74.280053 267.921627 74.280053 268.990695 
C 74.280053 270.059763 74.704798 271.085188 75.460743 271.841133 
C 76.216688 272.597079 77.242114 273.021824 78.311182 273.021824 
z
" style="fill:#d093a4;stroke:#ffffff;stroke-width:0.493153;"/>
    <path clip-path="url(#p5ff4c64c1d)" d="M 78.311182 307.413424 
C 80.020919 307.413424 81.66086 306.734138 82.869827 305.525171 
C 84.078794 304.316204 84.75808 302.676263 84.75808 300.966526 
C 84.75808 299.256788 84.078794 297.616847 82.869827 296.40788 
C 81.66086 295.198913 80.020919 294.519627 78.311182 294.519627 
C 76.601444 294.519627 74.961503 295.198913 73.752536 296.40788 
C 72.543569 297.616847 71.864283 299.256788 71.864283 300.966526 
C 71.864283 302.676263 72.543569 304.316204 73.752536 305.525171 
C 74.961503 306.734138 76.601444 307.413424 78.311182 307.413424 
z
" style="fill:#e3b5b7;stroke:#ffffff;stroke-width:0.493153;"/>
    <path clip-path="url(#p5ff4c64c1d)" d="M 143.531961 227.342065 
C 144.601029 227.342065 145.626454 226.91732 146.3824 226.161375 
C 147.138345 225.40543 147.56309 224.380004 147.56309 223.310937 
C 147.56309 222.241869 147.138345 221.216443 146.3824 220.460498 
C 145.626454 219.704553 144.601029 219.279808 143.531961 219.279808 
C 142.462893 219.279808 141.437468 219.704553 140.681522 220.460498 
C 139.925577 221.216443 139.500832 222.241869 139.500832 223.310937 
C 139.500832 224.380004 139.925577 225.40543 140.681522 226.161375 
C 141.437468 226.91732 142.462893 227.342065 143.531961 227.342065 
z
" style="fill:#b57294;stroke:#ffffff;stroke-width:0.493153;"/>
    <path clip-path="url(#p5ff4c64c1d)" d="M 100.051442 274.496374 
C 101.511565 274.496374 102.912081 273.916261 103.944544 272.883798 
C 104.977007 271.851335 105.55712 270.450818 105.55712 268.990695 
C 105.55712 267.530572 104.977007 266.130055 103.944544 265.097592 
C 102.912081 264.065129 101.511565 263.485016 100.051442 263.485016 
C 98.591318 263.485016 97.190802 264.065129 96.158339 265.097592 
C 95.125876 266.130055 94.545763 267.530572 94.545763 268.990695 
C 94.545763 270.450818 95.125876 271.851335 96.158339 272.883798 
C 97.190802 273.916261 98.591318 274.496374 100.051442 274.496374 
z
" style="fill:#d59ba8;stroke:#ffffff;stroke-width:0.493153;"/>
    <path clip-path="url(#p5ff4c64c1d)" d="M 187.012481 154.900395 
C 188.252854 154.900395 189.442593 154.407589 190.31967 153.530512 
C 191.196746 152.653436 191.689552 151.463697 191.689552 150.223323 
C 191.689552 148.982949 191.196746 147.793211 190.31967 146.916134 
C 189.442593 146.039057 188.252854 145.546252 187.012481 145.546252 
C 185.772107 145.546252 184.582368 146.039057 183.705291 146.916134 
C 182.828215 147.793211 182.335409 148.982949 182.335409 150.223323 
C 182.335409 151.463697 182.828215 152.653436 183.705291 153.530512 
C 184.582368 154.407589 185.772107 154.900395 187.012481 154.900395 
z
" style="fill:#b06d92;stroke:#ffffff;stroke-width:0.493153;"/>
    <path clip-path="url(#p5ff4c64c1d)" d="M 187.012481 147.082161 
C 188.602317 147.082161 190.127252 146.450512 191.251437 145.326328 
C 192.375621 144.202144 193.00727 142.677208 193.00727 141.087372 
C 193.00727 139.497535 192.375621 137.9726 191.251437 136.848415 
C 190.127252 135.724231 188.602317 135.092582 187.012481 135.092582 
C 185.422644 135.092582 183.897709 135.724231 182.773524 136.848415 
C 181.64934 137.9726 181.017691 139.497535 181.017691 141.087372 
C 181.017691 142.677208 181.64934 144.202144 182.773524 145.326328 
C 183.897709 146.450512 185.422644 147.082161 187.012481 147.082161 
z
" style="fill:#cd8ea1;stroke:#ffffff;stroke-width:0.493153;"/>
    <path clip-path="url(#p5ff4c64c1d)" d="M 78.311182 307.413424 
C 80.020919 307.413424 81.66086 306.734138 82.869827 305.525171 
C 84.078794 304.316204 84.75808 302.676263 84.75808 300.966526 
C 84.75808 299.256788 84.078794 297.616847 82.869827 296.40788 
C 81.66086 295.198913 80.020919 294.519627 78.311182 294.519627 
C 76.601444 294.519627 74.961503 295.198913 73.752536 296.40788 
C 72.543569 297.616847 71.864283 299.256788 71.864283 300.966526 
C 71.864283 302.676263 72.543569 304.316204 73.752536 305.525171 
C 74.961503 306.734138 76.601444 307.413424 78.311182 307.413424 
z
" style="fill:#e2b4b6;stroke:#ffffff;stroke-width:0.493153;"/>
    <path clip-path="url(#p5ff4c64c1d)" d="M 78.311182 294.333666 
C 80.186451 294.333666 81.985166 293.588614 83.311182 292.262598 
C 84.637197 290.936583 85.38225 289.137867 85.38225 287.262598 
C 85.38225 285.387329 84.637197 283.588614 83.311182 282.262598 
C 81.985166 280.936583 80.186451 280.19153 78.311182 280.19153 
C 76.435913 280.19153 74.637197 280.936583 73.311182 282.262598 
C 71.985166 283.588614 71.240114 285.387329 71.240114 287.262598 
C 71.240114 289.137867 71.985166 290.936583 73.311182 292.262598 
C 74.637197 293.588614 76.435913 294.333666 78.311182 294.333666 
z
" style="fill:#d79ea9;stroke:#ffffff;stroke-width:0.493153;"/>
    <path clip-path="url(#p5ff4c64c1d)" d="M 143.531961 250.827887 
C 144.772335 250.827887 145.962073 250.335082 146.83915 249.458005 
C 147.716227 248.580928 148.209033 247.39119 148.209033 246.150816 
C 148.209033 244.910442 147.716227 243.720703 146.83915 242.843627 
C 145.962073 241.96655 144.772335 241.473744 143.531961 241.473744 
C 142.291587 241.473744 141.101849 241.96655 140.224772 242.843627 
C 139.347695 243.720703 138.854889 244.910442 138.854889 246.150816 
C 138.854889 247.39119 139.347695 248.580928 140.224772 249.458005 
C 141.101849 250.335082 142.291587 250.827887 143.531961 250.827887 
z
" style="fill:#b37093;stroke:#ffffff;stroke-width:0.493153;"/>
    <path clip-path="url(#p5ff4c64c1d)" d="M 143.531961 245.613969 
C 144.601029 245.613969 145.626454 245.189224 146.3824 244.433278 
C 147.138345 243.677333 147.56309 242.651908 147.56309 241.58284 
C 147.56309 240.513772 147.138345 239.488346 146.3824 238.732401 
C 145.626454 237.976456 144.601029 237.551711 143.531961 237.551711 
C 142.462893 237.551711 141.437468 237.976456 140.681522 238.732401 
C 139.925577 239.488346 139.500832 240.513772 139.500832 241.58284 
C 139.500832 242.651908 139.925577 243.677333 140.681522 244.433278 
C 141.437468 245.189224 142.462893 245.613969 143.531961 245.613969 
z
" style="fill:#b06d92;stroke:#ffffff;stroke-width:0.493153;"/>
    <path clip-path="url(#p5ff4c64c1d)" d="M 143.531961 236.812951 
C 144.689854 236.812951 145.800479 236.352915 146.619233 235.53416 
C 147.437987 234.715406 147.898023 233.604781 147.898023 232.446888 
C 147.898023 231.288995 147.437987 230.17837 146.619233 229.359616 
C 145.800479 228.540862 144.689854 228.080826 143.531961 228.080826 
C 142.374068 228.080826 141.263443 228.540862 140.444689 229.359616 
C 139.625935 230.17837 139.165899 231.288995 139.165899 232.446888 
C 139.165899 233.604781 139.625935 234.715406 140.444689 235.53416 
C 141.263443 236.352915 142.374068 236.812951 143.531961 236.812951 
z
" style="fill:#c3819c;stroke:#ffffff;stroke-width:0.493153;"/>
    <path clip-path="url(#p5ff4c64c1d)" d="M 78.311182 298.055524 
C 79.962058 298.055524 81.54554 297.399624 82.712886 296.232278 
C 83.880232 295.064933 84.536132 293.48145 84.536132 291.830574 
C 84.536132 290.179698 83.880232 288.596215 82.712886 287.42887 
C 81.54554 286.261524 79.962058 285.605624 78.311182 285.605624 
C 76.660306 285.605624 75.076823 286.261524 73.909478 287.42887 
C 72.742132 288.596215 72.086232 290.179698 72.086232 291.830574 
C 72.086232 293.48145 72.742132 295.064933 73.909478 296.232278 
C 75.076823 297.399624 76.660306 298.055524 78.311182 298.055524 
z
" style="fill:#e1b1b4;stroke:#ffffff;stroke-width:0.493153;"/>
    <path clip-path="url(#p5ff4c64c1d)" d="M 208.75274 93.140977 
C 210.574504 93.140977 212.321898 92.417183 213.61008 91.129001 
C 214.898262 89.84082 215.622056 88.093425 215.622056 86.271662 
C 215.622056 84.449898 214.898262 82.702503 213.61008 81.414322 
C 212.321898 80.12614 210.574504 79.402346 208.75274 79.402346 
C 206.930976 79.402346 205.183582 80.12614 203.8954 81.414322 
C 202.607219 82.702503 201.883424 84.449898 201.883424 86.271662 
C 201.883424 88.093425 202.607219 89.84082 203.8954 91.129001 
C 205.183582 92.417183 206.930976 93.140977 208.75274 93.140977 
z
" style="fill:#d397a6;stroke:#ffffff;stroke-width:0.493153;"/>
    <path clip-path="url(#p5ff4c64c1d)" d="M 78.311182 241.045993 
C 79.38025 241.045993 80.405675 240.621248 81.16162 239.865303 
C 81.917566 239.109357 82.342311 238.083932 82.342311 237.014864 
C 82.342311 235.945796 81.917566 234.920371 81.16162 234.164425 
C 80.405675 233.40848 79.38025 232.983735 78.311182 232.983735 
C 77.242114 232.983735 76.216688 233.40848 75.460743 234.164425 
C 74.704798 234.920371 74.280053 235.945796 74.280053 237.014864 
C 74.280053 238.083932 74.704798 239.109357 75.460743 239.865303 
C 76.216688 240.621248 77.242114 241.045993 78.311182 241.045993 
z
" style="fill:#ac6a90;stroke:#ffffff;stroke-width:0.493153;"/>
   </g>
   <g id="PathCollection_2"/>
   <g id="PathCollection_3"/>
   <g id="PathCollection_4"/>
   <g id="PathCollection_5"/>
   <g id="PathCollection_6"/>
   <g id="PathCollection_7"/>
   <g id="PathCollection_8"/>
   <g id="PathCollection_9"/>
   <g id="PathCollection_10"/>
   <g id="PathCollection_11"/>
   <g id="PathCollection_12"/>
   <g id="patch_3">
    <path d="M 63.093 339.84 
L 63.093 7.2 
" style="fill:none;stroke:#262626;stroke-linecap:square;stroke-linejoin:miter;stroke-width:1.25;"/>
   </g>
   <g id="patch_4">
    <path d="M 397.893 339.84 
L 397.893 7.2 
" style="fill:none;stroke:#262626;stroke-linecap:square;stroke-linejoin:miter;stroke-width:1.25;"/>
   </g>
   <g id="patch_5">
    <path d="M 63.093 339.84 
L 397.893 339.84 
" style="fill:none;stroke:#262626;stroke-linecap:square;stroke-linejoin:miter;stroke-width:1.25;"/>
   </g>
   <g id="patch_6">
    <path d="M 63.093 7.2 
L 397.893 7.2 
" style="fill:none;stroke:#262626;stroke-linecap:square;stroke-linejoin:miter;stroke-width:1.25;"/>
   </g>
   <g id="legend_1">
    <g id="patch_7">
     <path d="M 407.449 309.304344 
L 500.890563 309.304344 
Q 503.750563 309.304344 503.750563 306.444344 
L 503.750563 35.008 
Q 503.750563 32.148 500.890563 32.148 
L 407.449 32.148 
Q 404.589 32.148 404.589 35.008 
L 404.589 306.444344 
Q 404.589 309.304344 407.449 309.304344 
z
" style="fill:#ffffff;opacity:0.8;stroke:#cccccc;stroke-linejoin:miter;"/>
    </g>
    <g id="text_18">
     <!-- rating -->
     <g style="fill:#262626;" transform="translate(450.349 48.733766)scale(0.143 -0.143)">
      <defs>
       <path d="M 3513 2113 
L 3513 0 
L 2938 0 
L 2938 2094 
Q 2938 2591 2744 2837 
Q 2550 3084 2163 3084 
Q 1697 3084 1428 2787 
Q 1159 2491 1159 1978 
L 1159 0 
L 581 0 
L 581 3500 
L 1159 3500 
L 1159 2956 
Q 1366 3272 1645 3428 
Q 1925 3584 2291 3584 
Q 2894 3584 3203 3211 
Q 3513 2838 3513 2113 
z
" id="DejaVuSans-6e" transform="scale(0.015625)"/>
       <path d="M 2906 1791 
Q 2906 2416 2648 2759 
Q 2391 3103 1925 3103 
Q 1463 3103 1205 2759 
Q 947 2416 947 1791 
Q 947 1169 1205 825 
Q 1463 481 1925 481 
Q 2391 481 2648 825 
Q 2906 1169 2906 1791 
z
M 3481 434 
Q 3481 -459 3084 -895 
Q 2688 -1331 1869 -1331 
Q 1566 -1331 1297 -1286 
Q 1028 -1241 775 -1147 
L 775 -588 
Q 1028 -725 1275 -790 
Q 1522 -856 1778 -856 
Q 2344 -856 2625 -561 
Q 2906 -266 2906 331 
L 2906 616 
Q 2728 306 2450 153 
Q 2172 0 1784 0 
Q 1141 0 747 490 
Q 353 981 353 1791 
Q 353 2603 747 3093 
Q 1141 3584 1784 3584 
Q 2172 3584 2450 3431 
Q 2728 3278 2906 2969 
L 2906 3500 
L 3481 3500 
L 3481 434 
z
" id="DejaVuSans-67" transform="scale(0.015625)"/>
      </defs>
      <use xlink:href="#DejaVuSans-72"/>
      <use x="41.113281" xlink:href="#DejaVuSans-61"/>
      <use x="102.392578" xlink:href="#DejaVuSans-74"/>
      <use x="141.601562" xlink:href="#DejaVuSans-69"/>
      <use x="169.384766" xlink:href="#DejaVuSans-6e"/>
      <use x="232.763672" xlink:href="#DejaVuSans-67"/>
     </g>
    </g>
    <g id="PathCollection_13">
     <defs>
      <path d="M 0 3 
C 0.795609 3 1.55874 2.683901 2.12132 2.12132 
C 2.683901 1.55874 3 0.795609 3 0 
C 3 -0.795609 2.683901 -1.55874 2.12132 -2.12132 
C 1.55874 -2.683901 0.795609 -3 0 -3 
C -0.795609 -3 -1.55874 -2.683901 -2.12132 -2.12132 
C -2.683901 -1.55874 -3 -0.795609 -3 0 
C -3 0.795609 -2.683901 1.55874 -2.12132 2.12132 
C -1.55874 2.683901 -0.795609 3 0 3 
z
" id="m16bf2ef027" style="stroke:#dfaeb2;"/>
     </defs>
     <g>
      <use style="fill:#dfaeb2;stroke:#dfaeb2;" x="424.609" xlink:href="#m16bf2ef027" y="65.969734"/>
     </g>
    </g>
    <g id="text_19">
     <!-- 30 -->
     <g style="fill:#262626;" transform="translate(450.349 69.723484)scale(0.143 -0.143)">
      <use xlink:href="#DejaVuSans-33"/>
      <use x="63.623047" xlink:href="#DejaVuSans-30"/>
     </g>
    </g>
    <g id="PathCollection_14">
     <defs>
      <path d="M 0 3 
C 0.795609 3 1.55874 2.683901 2.12132 2.12132 
C 2.683901 1.55874 3 0.795609 3 0 
C 3 -0.795609 2.683901 -1.55874 2.12132 -2.12132 
C 1.55874 -2.683901 0.795609 -3 0 -3 
C -0.795609 -3 -1.55874 -2.683901 -2.12132 -2.12132 
C -2.683901 -1.55874 -3 -0.795609 -3 0 
C -3 0.795609 -2.683901 1.55874 -2.12132 2.12132 
C -1.55874 2.683901 -0.795609 3 0 3 
z
" id="mb4f74a759b" style="stroke:#c4829c;"/>
     </defs>
     <g>
      <use style="fill:#c4829c;stroke:#c4829c;" x="424.609" xlink:href="#mb4f74a759b" y="86.959453"/>
     </g>
    </g>
    <g id="text_20">
     <!-- 45 -->
     <g style="fill:#262626;" transform="translate(450.349 90.713203)scale(0.143 -0.143)">
      <use xlink:href="#DejaVuSans-34"/>
      <use x="63.623047" xlink:href="#DejaVuSans-35"/>
     </g>
    </g>
    <g id="PathCollection_15">
     <defs>
      <path d="M 0 3 
C 0.795609 3 1.55874 2.683901 2.12132 2.12132 
C 2.683901 1.55874 3 0.795609 3 0 
C 3 -0.795609 2.683901 -1.55874 2.12132 -2.12132 
C 1.55874 -2.683901 0.795609 -3 0 -3 
C -0.795609 -3 -1.55874 -2.683901 -2.12132 -2.12132 
C -2.683901 -1.55874 -3 -0.795609 -3 0 
C -3 0.795609 -2.683901 1.55874 -2.12132 2.12132 
C -1.55874 2.683901 -0.795609 3 0 3 
z
" id="m0fefc5848e" style="stroke:#9e5e8a;"/>
     </defs>
     <g>
      <use style="fill:#9e5e8a;stroke:#9e5e8a;" x="424.609" xlink:href="#m0fefc5848e" y="107.949172"/>
     </g>
    </g>
    <g id="text_21">
     <!-- 60 -->
     <g style="fill:#262626;" transform="translate(450.349 111.702922)scale(0.143 -0.143)">
      <use xlink:href="#DejaVuSans-36"/>
      <use x="63.623047" xlink:href="#DejaVuSans-30"/>
     </g>
    </g>
    <g id="PathCollection_16">
     <defs>
      <path d="M 0 3 
C 0.795609 3 1.55874 2.683901 2.12132 2.12132 
C 2.683901 1.55874 3 0.795609 3 0 
C 3 -0.795609 2.683901 -1.55874 2.12132 -2.12132 
C 1.55874 -2.683901 0.795609 -3 0 -3 
C -0.795609 -3 -1.55874 -2.683901 -2.12132 -2.12132 
C -2.683901 -1.55874 -3 -0.795609 -3 0 
C -3 0.795609 -2.683901 1.55874 -2.12132 2.12132 
C -1.55874 2.683901 -0.795609 3 0 3 
z
" id="m12003954ae" style="stroke:#6c3f70;"/>
     </defs>
     <g>
      <use style="fill:#6c3f70;stroke:#6c3f70;" x="424.609" xlink:href="#m12003954ae" y="128.938891"/>
     </g>
    </g>
    <g id="text_22">
     <!-- 75 -->
     <g style="fill:#262626;" transform="translate(450.349 132.692641)scale(0.143 -0.143)">
      <defs>
       <path d="M 525 4666 
L 3525 4666 
L 3525 4397 
L 1831 0 
L 1172 0 
L 2766 4134 
L 525 4134 
L 525 4666 
z
" id="DejaVuSans-37" transform="scale(0.015625)"/>
      </defs>
      <use xlink:href="#DejaVuSans-37"/>
      <use x="63.623047" xlink:href="#DejaVuSans-35"/>
     </g>
    </g>
    <g id="PathCollection_17">
     <defs>
      <path d="M 0 3 
C 0.795609 3 1.55874 2.683901 2.12132 2.12132 
C 2.683901 1.55874 3 0.795609 3 0 
C 3 -0.795609 2.683901 -1.55874 2.12132 -2.12132 
C 1.55874 -2.683901 0.795609 -3 0 -3 
C -0.795609 -3 -1.55874 -2.683901 -2.12132 -2.12132 
C -2.683901 -1.55874 -3 -0.795609 -3 0 
C -3 0.795609 -2.683901 1.55874 -2.12132 2.12132 
C -1.55874 2.683901 -0.795609 3 0 3 
z
" id="m6b5f54d136" style="stroke:#382449;"/>
     </defs>
     <g>
      <use style="fill:#382449;stroke:#382449;" x="424.609" xlink:href="#m6b5f54d136" y="149.928609"/>
     </g>
    </g>
    <g id="text_23">
     <!-- 90 -->
     <g style="fill:#262626;" transform="translate(450.349 153.682359)scale(0.143 -0.143)">
      <defs>
       <path d="M 703 97 
L 703 672 
Q 941 559 1184 500 
Q 1428 441 1663 441 
Q 2288 441 2617 861 
Q 2947 1281 2994 2138 
Q 2813 1869 2534 1725 
Q 2256 1581 1919 1581 
Q 1219 1581 811 2004 
Q 403 2428 403 3163 
Q 403 3881 828 4315 
Q 1253 4750 1959 4750 
Q 2769 4750 3195 4129 
Q 3622 3509 3622 2328 
Q 3622 1225 3098 567 
Q 2575 -91 1691 -91 
Q 1453 -91 1209 -44 
Q 966 3 703 97 
z
M 1959 2075 
Q 2384 2075 2632 2365 
Q 2881 2656 2881 3163 
Q 2881 3666 2632 3958 
Q 2384 4250 1959 4250 
Q 1534 4250 1286 3958 
Q 1038 3666 1038 3163 
Q 1038 2656 1286 2365 
Q 1534 2075 1959 2075 
z
" id="DejaVuSans-39" transform="scale(0.015625)"/>
      </defs>
      <use xlink:href="#DejaVuSans-39"/>
      <use x="63.623047" xlink:href="#DejaVuSans-30"/>
     </g>
    </g>
    <g id="text_24">
     <!-- sugars -->
     <g style="fill:#262626;" transform="translate(450.349 174.672078)scale(0.143 -0.143)">
      <use xlink:href="#DejaVuSans-73"/>
      <use x="52.099609" xlink:href="#DejaVuSans-75"/>
      <use x="115.478516" xlink:href="#DejaVuSans-67"/>
      <use x="178.955078" xlink:href="#DejaVuSans-61"/>
      <use x="240.234375" xlink:href="#DejaVuSans-72"/>
      <use x="281.347656" xlink:href="#DejaVuSans-73"/>
     </g>
    </g>
    <g id="PathCollection_18">
     <defs>
      <path d="M 0 2.795085 
C 0.741265 2.795085 1.45227 2.500577 1.976424 1.976424 
C 2.500577 1.45227 2.795085 0.741265 2.795085 0 
C 2.795085 -0.741265 2.500577 -1.45227 1.976424 -1.976424 
C 1.45227 -2.500577 0.741265 -2.795085 0 -2.795085 
C -0.741265 -2.795085 -1.45227 -2.500577 -1.976424 -1.976424 
C -2.500577 -1.45227 -2.795085 -0.741265 -2.795085 0 
C -2.795085 0.741265 -2.500577 1.45227 -1.976424 1.976424 
C -1.45227 2.500577 -0.741265 2.795085 0 2.795085 
z
" id="m2d4bb61300" style="stroke:#333333;"/>
     </defs>
     <g>
      <use style="fill:#333333;stroke:#333333;" x="424.609" xlink:href="#m2d4bb61300" y="191.908047"/>
     </g>
    </g>
    <g id="text_25">
     <!-- 0 -->
     <g style="fill:#262626;" transform="translate(450.349 195.661797)scale(0.143 -0.143)">
      <use xlink:href="#DejaVuSans-30"/>
     </g>
    </g>
    <g id="PathCollection_19">
     <defs>
      <path d="M 0 4.031129 
C 1.069068 4.031129 2.094493 3.606384 2.850439 2.850439 
C 3.606384 2.094493 4.031129 1.069068 4.031129 0 
C 4.031129 -1.069068 3.606384 -2.094493 2.850439 -2.850439 
C 2.094493 -3.606384 1.069068 -4.031129 0 -4.031129 
C -1.069068 -4.031129 -2.094493 -3.606384 -2.850439 -2.850439 
C -3.606384 -2.094493 -4.031129 -1.069068 -4.031129 0 
C -4.031129 1.069068 -3.606384 2.094493 -2.850439 2.850439 
C -2.094493 3.606384 -1.069068 4.031129 0 4.031129 
z
" id="m3b049e7c02" style="stroke:#333333;"/>
     </defs>
     <g>
      <use style="fill:#333333;stroke:#333333;" x="424.609" xlink:href="#m3b049e7c02" y="212.897766"/>
     </g>
    </g>
    <g id="text_26">
     <!-- 3 -->
     <g style="fill:#262626;" transform="translate(450.349 216.651516)scale(0.143 -0.143)">
      <use xlink:href="#DejaVuSans-33"/>
     </g>
    </g>
    <g id="PathCollection_20">
     <defs>
      <path d="M 0 4.968652 
C 1.317702 4.968652 2.581611 4.445123 3.513367 3.513367 
C 4.445123 2.581611 4.968652 1.317702 4.968652 0 
C 4.968652 -1.317702 4.445123 -2.581611 3.513367 -3.513367 
C 2.581611 -4.445123 1.317702 -4.968652 0 -4.968652 
C -1.317702 -4.968652 -2.581611 -4.445123 -3.513367 -3.513367 
C -4.445123 -2.581611 -4.968652 -1.317702 -4.968652 0 
C -4.968652 1.317702 -4.445123 2.581611 -3.513367 3.513367 
C -2.581611 4.445123 -1.317702 4.968652 0 4.968652 
z
" id="m3ad930c9c6" style="stroke:#333333;"/>
     </defs>
     <g>
      <use style="fill:#333333;stroke:#333333;" x="424.609" xlink:href="#m3ad930c9c6" y="233.887484"/>
     </g>
    </g>
    <g id="text_27">
     <!-- 6 -->
     <g style="fill:#262626;" transform="translate(450.349 237.641234)scale(0.143 -0.143)">
      <use xlink:href="#DejaVuSans-36"/>
     </g>
    </g>
    <g id="PathCollection_21">
     <defs>
      <path d="M 0 5.755432 
C 1.526358 5.755432 2.990407 5.149004 4.069705 4.069705 
C 5.149004 2.990407 5.755432 1.526358 5.755432 0 
C 5.755432 -1.526358 5.149004 -2.990407 4.069705 -4.069705 
C 2.990407 -5.149004 1.526358 -5.755432 0 -5.755432 
C -1.526358 -5.755432 -2.990407 -5.149004 -4.069705 -4.069705 
C -5.149004 -2.990407 -5.755432 -1.526358 -5.755432 0 
C -5.755432 1.526358 -5.149004 2.990407 -4.069705 4.069705 
C -2.990407 5.149004 -1.526358 5.755432 0 5.755432 
z
" id="m8fd6ed3c4c" style="stroke:#333333;"/>
     </defs>
     <g>
      <use style="fill:#333333;stroke:#333333;" x="424.609" xlink:href="#m8fd6ed3c4c" y="254.877203"/>
     </g>
    </g>
    <g id="text_28">
     <!-- 9 -->
     <g style="fill:#262626;" transform="translate(450.349 258.630953)scale(0.143 -0.143)">
      <use xlink:href="#DejaVuSans-39"/>
     </g>
    </g>
    <g id="PathCollection_22">
     <defs>
      <path d="M 0 6.446898 
C 1.709737 6.446898 3.349679 5.767613 4.558646 4.558646 
C 5.767613 3.349679 6.446898 1.709737 6.446898 0 
C 6.446898 -1.709737 5.767613 -3.349679 4.558646 -4.558646 
C 3.349679 -5.767613 1.709737 -6.446898 0 -6.446898 
C -1.709737 -6.446898 -3.349679 -5.767613 -4.558646 -4.558646 
C -5.767613 -3.349679 -6.446898 -1.709737 -6.446898 0 
C -6.446898 1.709737 -5.767613 3.349679 -4.558646 4.558646 
C -3.349679 5.767613 -1.709737 6.446898 0 6.446898 
z
" id="mccde24524d" style="stroke:#333333;"/>
     </defs>
     <g>
      <use style="fill:#333333;stroke:#333333;" x="424.609" xlink:href="#mccde24524d" y="275.866922"/>
     </g>
    </g>
    <g id="text_29">
     <!-- 12 -->
     <g style="fill:#262626;" transform="translate(450.349 279.620672)scale(0.143 -0.143)">
      <use xlink:href="#DejaVuSans-31"/>
      <use x="63.623047" xlink:href="#DejaVuSans-32"/>
     </g>
    </g>
    <g id="PathCollection_23">
     <defs>
      <path d="M 0 7.071068 
C 1.875269 7.071068 3.673985 6.326016 5 5 
C 6.326016 3.673985 7.071068 1.875269 7.071068 0 
C 7.071068 -1.875269 6.326016 -3.673985 5 -5 
C 3.673985 -6.326016 1.875269 -7.071068 0 -7.071068 
C -1.875269 -7.071068 -3.673985 -6.326016 -5 -5 
C -6.326016 -3.673985 -7.071068 -1.875269 -7.071068 0 
C -7.071068 1.875269 -6.326016 3.673985 -5 5 
C -3.673985 6.326016 -1.875269 7.071068 0 7.071068 
z
" id="m6b53683ef0" style="stroke:#333333;"/>
     </defs>
     <g>
      <use style="fill:#333333;stroke:#333333;" x="424.609" xlink:href="#m6b53683ef0" y="296.856641"/>
     </g>
    </g>
    <g id="text_30">
     <!-- 15 -->
     <g style="fill:#262626;" transform="translate(450.349 300.610391)scale(0.143 -0.143)">
      <use xlink:href="#DejaVuSans-31"/>
      <use x="63.623047" xlink:href="#DejaVuSans-35"/>
     </g>
    </g>
   </g>
  </g>
 </g>
 <defs>
  <clipPath id="p5ff4c64c1d">
   <rect height="332.64" width="334.8" x="63.093" y="7.2"/>
  </clipPath>
 </defs>
</svg>
