<?xml version="1.0" encoding="utf-8" standalone="no"?>
<!DOCTYPE svg PUBLIC "-//W3C//DTD SVG 1.1//EN"
  "http://www.w3.org/Graphics/SVG/1.1/DTD/svg11.dtd">
<svg height="703.509375pt" version="1.1" viewBox="0 0 705.5895 703.509375" width="705.5895pt" xmlns="http://www.w3.org/2000/svg" xmlns:xlink="http://www.w3.org/1999/xlink">
 <metadata>
  <rdf:RDF xmlns:cc="http://creativecommons.org/ns#" xmlns:dc="http://purl.org/dc/elements/1.1/" xmlns:rdf="http://www.w3.org/1999/02/22-rdf-syntax-ns#">
   <cc:Work>
    <dc:type rdf:resource="http://purl.org/dc/dcmitype/StillImage"/>
    <dc:date>2023-05-03T17:09:10.193195</dc:date>
    <dc:format>image/svg+xml</dc:format>
    <dc:creator>
     <cc:Agent>
      <dc:title>Matplotlib v3.4.3, https://matplotlib.org/</dc:title>
     </cc:Agent>
    </dc:creator>
   </cc:Work>
  </rdf:RDF>
 </metadata>
 <defs>
  <style type="text/css">*{stroke-linecap:butt;stroke-linejoin:round;}</style>
 </defs>
 <g id="figure_1">
  <g id="patch_1">
   <path d="M -0 703.509375 
L 705.5895 703.509375 
L 705.5895 0 
L -0 0 
z
" style="fill:#ffffff;"/>
  </g>
  <g id="axes_1">
   <g id="patch_2">
    <path d="M 51.4335 323.94375 
L 367.1355 323.94375 
L 367.1355 24.14175 
L 51.4335 24.14175 
z
" style="fill:#ffffff;"/>
   </g>
   <g id="matplotlib.axis_1">
    <g id="xtick_1"/>
    <g id="xtick_2"/>
    <g id="xtick_3"/>
    <g id="xtick_4"/>
    <g id="xtick_5"/>
    <g id="xtick_6"/>
    <g id="xtick_7"/>
    <g id="xtick_8"/>
   </g>
   <g id="matplotlib.axis_2">
    <g id="ytick_1">
     <g id="text_1">
      <!-- 4 -->
      <g style="fill:#262626;" transform="translate(33.535 289.88607)scale(0.132 -0.132)">
       <defs>
        <path d="M 2419 4116 
L 825 1625 
L 2419 1625 
L 2419 4116 
z
M 2253 4666 
L 3047 4666 
L 3047 1625 
L 3713 1625 
L 3713 1100 
L 3047 1100 
L 3047 0 
L 2419 0 
L 2419 1100 
L 313 1100 
L 313 1709 
L 2253 4666 
z
" id="DejaVuSans-34" transform="scale(0.015625)"/>
       </defs>
       <use xlink:href="#DejaVuSans-34"/>
      </g>
     </g>
    </g>
    <g id="ytick_2">
     <g id="text_2">
      <!-- 6 -->
      <g style="fill:#262626;" transform="translate(33.535 233.340993)scale(0.132 -0.132)">
       <defs>
        <path d="M 2113 2584 
Q 1688 2584 1439 2293 
Q 1191 2003 1191 1497 
Q 1191 994 1439 701 
Q 1688 409 2113 409 
Q 2538 409 2786 701 
Q 3034 994 3034 1497 
Q 3034 2003 2786 2293 
Q 2538 2584 2113 2584 
z
M 3366 4563 
L 3366 3988 
Q 3128 4100 2886 4159 
Q 2644 4219 2406 4219 
Q 1781 4219 1451 3797 
Q 1122 3375 1075 2522 
Q 1259 2794 1537 2939 
Q 1816 3084 2150 3084 
Q 2853 3084 3261 2657 
Q 3669 2231 3669 1497 
Q 3669 778 3244 343 
Q 2819 -91 2113 -91 
Q 1303 -91 875 529 
Q 447 1150 447 2328 
Q 447 3434 972 4092 
Q 1497 4750 2381 4750 
Q 2619 4750 2861 4703 
Q 3103 4656 3366 4563 
z
" id="DejaVuSans-36" transform="scale(0.015625)"/>
       </defs>
       <use xlink:href="#DejaVuSans-36"/>
      </g>
     </g>
    </g>
    <g id="ytick_3">
     <g id="text_3">
      <!-- 8 -->
      <g style="fill:#262626;" transform="translate(33.535 176.795916)scale(0.132 -0.132)">
       <defs>
        <path d="M 2034 2216 
Q 1584 2216 1326 1975 
Q 1069 1734 1069 1313 
Q 1069 891 1326 650 
Q 1584 409 2034 409 
Q 2484 409 2743 651 
Q 3003 894 3003 1313 
Q 3003 1734 2745 1975 
Q 2488 2216 2034 2216 
z
M 1403 2484 
Q 997 2584 770 2862 
Q 544 3141 544 3541 
Q 544 4100 942 4425 
Q 1341 4750 2034 4750 
Q 2731 4750 3128 4425 
Q 3525 4100 3525 3541 
Q 3525 3141 3298 2862 
Q 3072 2584 2669 2484 
Q 3125 2378 3379 2068 
Q 3634 1759 3634 1313 
Q 3634 634 3220 271 
Q 2806 -91 2034 -91 
Q 1263 -91 848 271 
Q 434 634 434 1313 
Q 434 1759 690 2068 
Q 947 2378 1403 2484 
z
M 1172 3481 
Q 1172 3119 1398 2916 
Q 1625 2713 2034 2713 
Q 2441 2713 2670 2916 
Q 2900 3119 2900 3481 
Q 2900 3844 2670 4047 
Q 2441 4250 2034 4250 
Q 1625 4250 1398 4047 
Q 1172 3844 1172 3481 
z
" id="DejaVuSans-38" transform="scale(0.015625)"/>
       </defs>
       <use xlink:href="#DejaVuSans-38"/>
      </g>
     </g>
    </g>
    <g id="ytick_4">
     <g id="text_4">
      <!-- 10 -->
      <g style="fill:#262626;" transform="translate(25.1365 120.250838)scale(0.132 -0.132)">
       <defs>
        <path d="M 794 531 
L 1825 531 
L 1825 4091 
L 703 3866 
L 703 4441 
L 1819 4666 
L 2450 4666 
L 2450 531 
L 3481 531 
L 3481 0 
L 794 0 
L 794 531 
z
" id="DejaVuSans-31" transform="scale(0.015625)"/>
        <path d="M 2034 4250 
Q 1547 4250 1301 3770 
Q 1056 3291 1056 2328 
Q 1056 1369 1301 889 
Q 1547 409 2034 409 
Q 2525 409 2770 889 
Q 3016 1369 3016 2328 
Q 3016 3291 2770 3770 
Q 2525 4250 2034 4250 
z
M 2034 4750 
Q 2819 4750 3233 4129 
Q 3647 3509 3647 2328 
Q 3647 1150 3233 529 
Q 2819 -91 2034 -91 
Q 1250 -91 836 529 
Q 422 1150 422 2328 
Q 422 3509 836 4129 
Q 1250 4750 2034 4750 
z
" id="DejaVuSans-30" transform="scale(0.015625)"/>
       </defs>
       <use xlink:href="#DejaVuSans-31"/>
       <use x="63.623047" xlink:href="#DejaVuSans-30"/>
      </g>
     </g>
    </g>
    <g id="ytick_5">
     <g id="text_5">
      <!-- 12 -->
      <g style="fill:#262626;" transform="translate(25.1365 63.705761)scale(0.132 -0.132)">
       <defs>
        <path d="M 1228 531 
L 3431 531 
L 3431 0 
L 469 0 
L 469 531 
Q 828 903 1448 1529 
Q 2069 2156 2228 2338 
Q 2531 2678 2651 2914 
Q 2772 3150 2772 3378 
Q 2772 3750 2511 3984 
Q 2250 4219 1831 4219 
Q 1534 4219 1204 4116 
Q 875 4013 500 3803 
L 500 4441 
Q 881 4594 1212 4672 
Q 1544 4750 1819 4750 
Q 2544 4750 2975 4387 
Q 3406 4025 3406 3419 
Q 3406 3131 3298 2873 
Q 3191 2616 2906 2266 
Q 2828 2175 2409 1742 
Q 1991 1309 1228 531 
z
" id="DejaVuSans-32" transform="scale(0.015625)"/>
       </defs>
       <use xlink:href="#DejaVuSans-31"/>
       <use x="63.623047" xlink:href="#DejaVuSans-32"/>
      </g>
     </g>
    </g>
    <g id="text_6">
     <!-- y -->
     <g style="fill:#262626;" transform="translate(18.14175 178.30425)rotate(-90)scale(0.144 -0.144)">
      <defs>
       <path d="M 2059 -325 
Q 1816 -950 1584 -1140 
Q 1353 -1331 966 -1331 
L 506 -1331 
L 506 -850 
L 844 -850 
Q 1081 -850 1212 -737 
Q 1344 -625 1503 -206 
L 1606 56 
L 191 3500 
L 800 3500 
L 1894 763 
L 2988 3500 
L 3597 3500 
L 2059 -325 
z
" id="DejaVuSans-79" transform="scale(0.015625)"/>
      </defs>
      <use xlink:href="#DejaVuSans-79"/>
     </g>
    </g>
   </g>
   <g id="PathCollection_1">
    <defs>
     <path d="M 0 5 
C 1.326016 5 2.597899 4.473168 3.535534 3.535534 
C 4.473168 2.597899 5 1.326016 5 0 
C 5 -1.326016 4.473168 -2.597899 3.535534 -3.535534 
C 2.597899 -4.473168 1.326016 -5 0 -5 
C -1.326016 -5 -2.597899 -4.473168 -3.535534 -3.535534 
C -4.473168 -2.597899 -5 -1.326016 -5 0 
C -5 1.326016 -4.473168 2.597899 -3.535534 3.535534 
C -2.597899 4.473168 -1.326016 5 0 5 
z
" id="mb4e41068b3" style="stroke:#0d62a3;stroke-opacity:0.8;"/>
    </defs>
    <g clip-path="url(#p99d71e84c9)">
     <use style="fill:#0d62a3;fill-opacity:0.8;stroke:#0d62a3;stroke-opacity:0.8;" x="177.7143" xlink:href="#mb4e41068b3" y="170.650045"/>
     <use style="fill:#0d62a3;fill-opacity:0.8;stroke:#0d62a3;stroke-opacity:0.8;" x="146.1441" xlink:href="#mb4e41068b3" y="201.467113"/>
     <use style="fill:#0d62a3;fill-opacity:0.8;stroke:#0d62a3;stroke-opacity:0.8;" x="225.0696" xlink:href="#mb4e41068b3" y="183.655413"/>
     <use style="fill:#0d62a3;fill-opacity:0.8;stroke:#0d62a3;stroke-opacity:0.8;" x="161.9292" xlink:href="#mb4e41068b3" y="148.880191"/>
     <use style="fill:#0d62a3;fill-opacity:0.8;stroke:#0d62a3;stroke-opacity:0.8;" x="193.4994" xlink:href="#mb4e41068b3" y="162.451009"/>
     <use style="fill:#0d62a3;fill-opacity:0.8;stroke:#0d62a3;stroke-opacity:0.8;" x="240.8547" xlink:href="#mb4e41068b3" y="116.366771"/>
     <use style="fill:#0d62a3;fill-opacity:0.8;stroke:#0d62a3;stroke-opacity:0.8;" x="114.5739" xlink:href="#mb4e41068b3" y="193.268076"/>
     <use style="fill:#0d62a3;fill-opacity:0.8;stroke:#0d62a3;stroke-opacity:0.8;" x="83.0037" xlink:href="#mb4e41068b3" y="277.520242"/>
     <use style="fill:#0d62a3;fill-opacity:0.8;stroke:#0d62a3;stroke-opacity:0.8;" x="209.2845" xlink:href="#mb4e41068b3" y="91.486937"/>
     <use style="fill:#0d62a3;fill-opacity:0.8;stroke:#0d62a3;stroke-opacity:0.8;" x="130.359" xlink:href="#mb4e41068b3" y="261.68762"/>
     <use style="fill:#0d62a3;fill-opacity:0.8;stroke:#0d62a3;stroke-opacity:0.8;" x="98.7888" xlink:href="#mb4e41068b3" y="237.373237"/>
    </g>
   </g>
   <g id="line2d_1">
    <path clip-path="url(#p99d71e84c9)" d="M 83.0037 256.585712 
L 84.598155 255.157546 
L 86.192609 253.729381 
L 87.787064 252.301215 
L 89.381518 250.873049 
L 90.975973 249.444884 
L 92.570427 248.016718 
L 94.164882 246.588552 
L 95.759336 245.160387 
L 97.353791 243.732221 
L 98.948245 242.304056 
L 100.5427 240.87589 
L 102.137155 239.447724 
L 103.731609 238.019559 
L 105.326064 236.591393 
L 106.920518 235.163228 
L 108.514973 233.735062 
L 110.109427 232.306896 
L 111.703882 230.878731 
L 113.298336 229.450565 
L 114.892791 228.022399 
L 116.487245 226.594234 
L 118.0817 225.166068 
L 119.676155 223.737903 
L 121.270609 222.309737 
L 122.865064 220.881571 
L 124.459518 219.453406 
L 126.053973 218.02524 
L 127.648427 216.597075 
L 129.242882 215.168909 
L 130.837336 213.740743 
L 132.431791 212.312578 
L 134.026245 210.884412 
L 135.6207 209.456247 
L 137.215155 208.028081 
L 138.809609 206.599915 
L 140.404064 205.17175 
L 141.998518 203.743584 
L 143.592973 202.315418 
L 145.187427 200.887253 
L 146.781882 199.459087 
L 148.376336 198.030922 
L 149.970791 196.602756 
L 151.565245 195.17459 
L 153.1597 193.746425 
L 154.754155 192.318259 
L 156.348609 190.890094 
L 157.943064 189.461928 
L 159.537518 188.033762 
L 161.131973 186.605597 
L 162.726427 185.177431 
L 164.320882 183.749266 
L 165.915336 182.3211 
L 167.509791 180.892934 
L 169.104245 179.464769 
L 170.6987 178.036603 
L 172.293155 176.608437 
L 173.887609 175.180272 
L 175.482064 173.752106 
L 177.076518 172.323941 
L 178.670973 170.895775 
L 180.265427 169.467609 
L 181.859882 168.039444 
L 183.454336 166.611278 
L 185.048791 165.183113 
L 186.643245 163.754947 
L 188.2377 162.326781 
L 189.832155 160.898616 
L 191.426609 159.47045 
L 193.021064 158.042284 
L 194.615518 156.614119 
L 196.209973 155.185953 
L 197.804427 153.757788 
L 199.398882 152.329622 
L 200.993336 150.901456 
L 202.587791 149.473291 
L 204.182245 148.045125 
L 205.7767 146.61696 
L 207.371155 145.188794 
L 208.965609 143.760628 
L 210.560064 142.332463 
L 212.154518 140.904297 
L 213.748973 139.476132 
L 215.343427 138.047966 
L 216.937882 136.6198 
L 218.532336 135.191635 
L 220.126791 133.763469 
L 221.721245 132.335303 
L 223.3157 130.907138 
L 224.910155 129.478972 
L 226.504609 128.050807 
L 228.099064 126.622641 
L 229.693518 125.194475 
L 231.287973 123.76631 
L 232.882427 122.338144 
L 234.476882 120.909979 
L 236.071336 119.481813 
L 237.665791 118.053647 
L 239.260245 116.625482 
L 240.8547 115.197316 
" style="fill:none;stroke:#a30905;stroke-linecap:round;stroke-opacity:0.5;stroke-width:5;"/>
   </g>
   <g id="patch_3">
    <path d="M 51.4335 323.94375 
L 51.4335 24.14175 
" style="fill:none;stroke:#262626;stroke-linecap:square;stroke-linejoin:miter;stroke-width:1.25;"/>
   </g>
   <g id="patch_4">
    <path d="M 51.4335 323.94375 
L 367.1355 323.94375 
" style="fill:none;stroke:#262626;stroke-linecap:square;stroke-linejoin:miter;stroke-width:1.25;"/>
   </g>
   <g id="text_7">
    <!-- dataset = I -->
    <g style="fill:#262626;" transform="translate(169.329 18.14175)scale(0.144 -0.144)">
     <defs>
      <path d="M 2906 2969 
L 2906 4863 
L 3481 4863 
L 3481 0 
L 2906 0 
L 2906 525 
Q 2725 213 2448 61 
Q 2172 -91 1784 -91 
Q 1150 -91 751 415 
Q 353 922 353 1747 
Q 353 2572 751 3078 
Q 1150 3584 1784 3584 
Q 2172 3584 2448 3432 
Q 2725 3281 2906 2969 
z
M 947 1747 
Q 947 1113 1208 752 
Q 1469 391 1925 391 
Q 2381 391 2643 752 
Q 2906 1113 2906 1747 
Q 2906 2381 2643 2742 
Q 2381 3103 1925 3103 
Q 1469 3103 1208 2742 
Q 947 2381 947 1747 
z
" id="DejaVuSans-64" transform="scale(0.015625)"/>
      <path d="M 2194 1759 
Q 1497 1759 1228 1600 
Q 959 1441 959 1056 
Q 959 750 1161 570 
Q 1363 391 1709 391 
Q 2188 391 2477 730 
Q 2766 1069 2766 1631 
L 2766 1759 
L 2194 1759 
z
M 3341 1997 
L 3341 0 
L 2766 0 
L 2766 531 
Q 2569 213 2275 61 
Q 1981 -91 1556 -91 
Q 1019 -91 701 211 
Q 384 513 384 1019 
Q 384 1609 779 1909 
Q 1175 2209 1959 2209 
L 2766 2209 
L 2766 2266 
Q 2766 2663 2505 2880 
Q 2244 3097 1772 3097 
Q 1472 3097 1187 3025 
Q 903 2953 641 2809 
L 641 3341 
Q 956 3463 1253 3523 
Q 1550 3584 1831 3584 
Q 2591 3584 2966 3190 
Q 3341 2797 3341 1997 
z
" id="DejaVuSans-61" transform="scale(0.015625)"/>
      <path d="M 1172 4494 
L 1172 3500 
L 2356 3500 
L 2356 3053 
L 1172 3053 
L 1172 1153 
Q 1172 725 1289 603 
Q 1406 481 1766 481 
L 2356 481 
L 2356 0 
L 1766 0 
Q 1100 0 847 248 
Q 594 497 594 1153 
L 594 3053 
L 172 3053 
L 172 3500 
L 594 3500 
L 594 4494 
L 1172 4494 
z
" id="DejaVuSans-74" transform="scale(0.015625)"/>
      <path d="M 2834 3397 
L 2834 2853 
Q 2591 2978 2328 3040 
Q 2066 3103 1784 3103 
Q 1356 3103 1142 2972 
Q 928 2841 928 2578 
Q 928 2378 1081 2264 
Q 1234 2150 1697 2047 
L 1894 2003 
Q 2506 1872 2764 1633 
Q 3022 1394 3022 966 
Q 3022 478 2636 193 
Q 2250 -91 1575 -91 
Q 1294 -91 989 -36 
Q 684 19 347 128 
L 347 722 
Q 666 556 975 473 
Q 1284 391 1588 391 
Q 1994 391 2212 530 
Q 2431 669 2431 922 
Q 2431 1156 2273 1281 
Q 2116 1406 1581 1522 
L 1381 1569 
Q 847 1681 609 1914 
Q 372 2147 372 2553 
Q 372 3047 722 3315 
Q 1072 3584 1716 3584 
Q 2034 3584 2315 3537 
Q 2597 3491 2834 3397 
z
" id="DejaVuSans-73" transform="scale(0.015625)"/>
      <path d="M 3597 1894 
L 3597 1613 
L 953 1613 
Q 991 1019 1311 708 
Q 1631 397 2203 397 
Q 2534 397 2845 478 
Q 3156 559 3463 722 
L 3463 178 
Q 3153 47 2828 -22 
Q 2503 -91 2169 -91 
Q 1331 -91 842 396 
Q 353 884 353 1716 
Q 353 2575 817 3079 
Q 1281 3584 2069 3584 
Q 2775 3584 3186 3129 
Q 3597 2675 3597 1894 
z
M 3022 2063 
Q 3016 2534 2758 2815 
Q 2500 3097 2075 3097 
Q 1594 3097 1305 2825 
Q 1016 2553 972 2059 
L 3022 2063 
z
" id="DejaVuSans-65" transform="scale(0.015625)"/>
      <path id="DejaVuSans-20" transform="scale(0.015625)"/>
      <path d="M 678 2906 
L 4684 2906 
L 4684 2381 
L 678 2381 
L 678 2906 
z
M 678 1631 
L 4684 1631 
L 4684 1100 
L 678 1100 
L 678 1631 
z
" id="DejaVuSans-3d" transform="scale(0.015625)"/>
      <path d="M 628 4666 
L 1259 4666 
L 1259 0 
L 628 0 
L 628 4666 
z
" id="DejaVuSans-49" transform="scale(0.015625)"/>
     </defs>
     <use xlink:href="#DejaVuSans-64"/>
     <use x="63.476562" xlink:href="#DejaVuSans-61"/>
     <use x="124.755859" xlink:href="#DejaVuSans-74"/>
     <use x="163.964844" xlink:href="#DejaVuSans-61"/>
     <use x="225.244141" xlink:href="#DejaVuSans-73"/>
     <use x="277.34375" xlink:href="#DejaVuSans-65"/>
     <use x="338.867188" xlink:href="#DejaVuSans-74"/>
     <use x="378.076172" xlink:href="#DejaVuSans-20"/>
     <use x="409.863281" xlink:href="#DejaVuSans-3d"/>
     <use x="493.652344" xlink:href="#DejaVuSans-20"/>
     <use x="525.439453" xlink:href="#DejaVuSans-49"/>
    </g>
   </g>
  </g>
  <g id="axes_2">
   <g id="patch_5">
    <path d="M 382.6875 323.94375 
L 698.3895 323.94375 
L 698.3895 24.14175 
L 382.6875 24.14175 
z
" style="fill:#ffffff;"/>
   </g>
   <g id="matplotlib.axis_3">
    <g id="xtick_9"/>
    <g id="xtick_10"/>
    <g id="xtick_11"/>
    <g id="xtick_12"/>
    <g id="xtick_13"/>
    <g id="xtick_14"/>
    <g id="xtick_15"/>
    <g id="xtick_16"/>
   </g>
   <g id="matplotlib.axis_4">
    <g id="ytick_6"/>
    <g id="ytick_7"/>
    <g id="ytick_8"/>
    <g id="ytick_9"/>
    <g id="ytick_10"/>
   </g>
   <g id="PathCollection_2">
    <g clip-path="url(#p3a05421ae7)">
     <use style="fill:#0d62a3;fill-opacity:0.8;stroke:#0d62a3;stroke-opacity:0.8;" x="508.9683" xlink:href="#mb4e41068b3" y="139.550253"/>
     <use style="fill:#0d62a3;fill-opacity:0.8;stroke:#0d62a3;stroke-opacity:0.8;" x="477.3981" xlink:href="#mb4e41068b3" y="167.822791"/>
     <use style="fill:#0d62a3;fill-opacity:0.8;stroke:#0d62a3;stroke-opacity:0.8;" x="556.3236" xlink:href="#mb4e41068b3" y="150.859268"/>
     <use style="fill:#0d62a3;fill-opacity:0.8;stroke:#0d62a3;stroke-opacity:0.8;" x="493.1832" xlink:href="#mb4e41068b3" y="150.011092"/>
     <use style="fill:#0d62a3;fill-opacity:0.8;stroke:#0d62a3;stroke-opacity:0.8;" x="524.7534" xlink:href="#mb4e41068b3" y="136.157548"/>
     <use style="fill:#0d62a3;fill-opacity:0.8;stroke:#0d62a3;stroke-opacity:0.8;" x="572.1087" xlink:href="#mb4e41068b3" y="168.953693"/>
     <use style="fill:#0d62a3;fill-opacity:0.8;stroke:#0d62a3;stroke-opacity:0.8;" x="445.8279" xlink:href="#mb4e41068b3" y="224.650594"/>
     <use style="fill:#0d62a3;fill-opacity:0.8;stroke:#0d62a3;stroke-opacity:0.8;" x="414.2577" xlink:href="#mb4e41068b3" y="310.316386"/>
     <use style="fill:#0d62a3;fill-opacity:0.8;stroke:#0d62a3;stroke-opacity:0.8;" x="540.5385" xlink:href="#mb4e41068b3" y="139.832978"/>
     <use style="fill:#0d62a3;fill-opacity:0.8;stroke:#0d62a3;stroke-opacity:0.8;" x="461.613" xlink:href="#mb4e41068b3" y="192.702626"/>
     <use style="fill:#0d62a3;fill-opacity:0.8;stroke:#0d62a3;stroke-opacity:0.8;" x="430.0428" xlink:href="#mb4e41068b3" y="263.949423"/>
    </g>
   </g>
   <g id="line2d_2">
    <path clip-path="url(#p3a05421ae7)" d="M 414.2577 256.572861 
L 415.852155 255.144955 
L 417.446609 253.717049 
L 419.041064 252.289143 
L 420.635518 250.861237 
L 422.229973 249.433331 
L 423.824427 248.005425 
L 425.418882 246.577519 
L 427.013336 245.149613 
L 428.607791 243.721707 
L 430.202245 242.293801 
L 431.7967 240.865895 
L 433.391155 239.437989 
L 434.985609 238.010083 
L 436.580064 236.582177 
L 438.174518 235.154271 
L 439.768973 233.726365 
L 441.363427 232.298459 
L 442.957882 230.870553 
L 444.552336 229.442647 
L 446.146791 228.014741 
L 447.741245 226.586835 
L 449.3357 225.158929 
L 450.930155 223.731023 
L 452.524609 222.303117 
L 454.119064 220.875211 
L 455.713518 219.447305 
L 457.307973 218.019399 
L 458.902427 216.591493 
L 460.496882 215.163587 
L 462.091336 213.735681 
L 463.685791 212.307775 
L 465.280245 210.879869 
L 466.8747 209.451963 
L 468.469155 208.024057 
L 470.063609 206.596151 
L 471.658064 205.168245 
L 473.252518 203.740339 
L 474.846973 202.312433 
L 476.441427 200.884527 
L 478.035882 199.456621 
L 479.630336 198.028715 
L 481.224791 196.600809 
L 482.819245 195.172903 
L 484.4137 193.744997 
L 486.008155 192.317091 
L 487.602609 190.889185 
L 489.197064 189.461279 
L 490.791518 188.033373 
L 492.385973 186.605467 
L 493.980427 185.177561 
L 495.574882 183.749655 
L 497.169336 182.321749 
L 498.763791 180.893843 
L 500.358245 179.465937 
L 501.9527 178.038031 
L 503.547155 176.610125 
L 505.141609 175.182219 
L 506.736064 173.754313 
L 508.330518 172.326407 
L 509.924973 170.898501 
L 511.519427 169.470595 
L 513.113882 168.042689 
L 514.708336 166.614783 
L 516.302791 165.186877 
L 517.897245 163.758971 
L 519.4917 162.331065 
L 521.086155 160.903159 
L 522.680609 159.475253 
L 524.275064 158.047347 
L 525.869518 156.619441 
L 527.463973 155.191535 
L 529.058427 153.763629 
L 530.652882 152.335723 
L 532.247336 150.907817 
L 533.841791 149.479911 
L 535.436245 148.052005 
L 537.0307 146.624099 
L 538.625155 145.196193 
L 540.219609 143.768287 
L 541.814064 142.340381 
L 543.408518 140.912475 
L 545.002973 139.484569 
L 546.597427 138.056663 
L 548.191882 136.628757 
L 549.786336 135.200851 
L 551.380791 133.772945 
L 552.975245 132.345039 
L 554.5697 130.917133 
L 556.164155 129.489227 
L 557.758609 128.061321 
L 559.353064 126.633415 
L 560.947518 125.205509 
L 562.541973 123.777603 
L 564.136427 122.349697 
L 565.730882 120.921791 
L 567.325336 119.493885 
L 568.919791 118.065979 
L 570.514245 116.638073 
L 572.1087 115.210167 
" style="fill:none;stroke:#a30905;stroke-linecap:round;stroke-opacity:0.5;stroke-width:5;"/>
   </g>
   <g id="patch_6">
    <path d="M 382.6875 323.94375 
L 382.6875 24.14175 
" style="fill:none;stroke:#262626;stroke-linecap:square;stroke-linejoin:miter;stroke-width:1.25;"/>
   </g>
   <g id="patch_7">
    <path d="M 382.6875 323.94375 
L 698.3895 323.94375 
" style="fill:none;stroke:#262626;stroke-linecap:square;stroke-linejoin:miter;stroke-width:1.25;"/>
   </g>
   <g id="text_8">
    <!-- dataset = II -->
    <g style="fill:#262626;" transform="translate(498.459 18.14175)scale(0.144 -0.144)">
     <use xlink:href="#DejaVuSans-64"/>
     <use x="63.476562" xlink:href="#DejaVuSans-61"/>
     <use x="124.755859" xlink:href="#DejaVuSans-74"/>
     <use x="163.964844" xlink:href="#DejaVuSans-61"/>
     <use x="225.244141" xlink:href="#DejaVuSans-73"/>
     <use x="277.34375" xlink:href="#DejaVuSans-65"/>
     <use x="338.867188" xlink:href="#DejaVuSans-74"/>
     <use x="378.076172" xlink:href="#DejaVuSans-20"/>
     <use x="409.863281" xlink:href="#DejaVuSans-3d"/>
     <use x="493.652344" xlink:href="#DejaVuSans-20"/>
     <use x="525.439453" xlink:href="#DejaVuSans-49"/>
     <use x="554.931641" xlink:href="#DejaVuSans-49"/>
    </g>
   </g>
  </g>
  <g id="axes_3">
   <g id="patch_8">
    <path d="M 51.4335 656.09775 
L 367.1355 656.09775 
L 367.1355 356.29575 
L 51.4335 356.29575 
z
" style="fill:#ffffff;"/>
   </g>
   <g id="matplotlib.axis_5">
    <g id="xtick_17">
     <g id="text_9">
      <!-- 2.5 -->
      <g style="fill:#262626;" transform="translate(48.829988 675.627687)scale(0.132 -0.132)">
       <defs>
        <path d="M 684 794 
L 1344 794 
L 1344 0 
L 684 0 
L 684 794 
z
" id="DejaVuSans-2e" transform="scale(0.015625)"/>
        <path d="M 691 4666 
L 3169 4666 
L 3169 4134 
L 1269 4134 
L 1269 2991 
Q 1406 3038 1543 3061 
Q 1681 3084 1819 3084 
Q 2600 3084 3056 2656 
Q 3513 2228 3513 1497 
Q 3513 744 3044 326 
Q 2575 -91 1722 -91 
Q 1428 -91 1123 -41 
Q 819 9 494 109 
L 494 744 
Q 775 591 1075 516 
Q 1375 441 1709 441 
Q 2250 441 2565 725 
Q 2881 1009 2881 1497 
Q 2881 1984 2565 2268 
Q 2250 2553 1709 2553 
Q 1456 2553 1204 2497 
Q 953 2441 691 2322 
L 691 4666 
z
" id="DejaVuSans-35" transform="scale(0.015625)"/>
       </defs>
       <use xlink:href="#DejaVuSans-32"/>
       <use x="63.623047" xlink:href="#DejaVuSans-2e"/>
       <use x="95.410156" xlink:href="#DejaVuSans-35"/>
      </g>
     </g>
    </g>
    <g id="xtick_18">
     <g id="text_10">
      <!-- 5.0 -->
      <g style="fill:#262626;" transform="translate(88.292738 675.627687)scale(0.132 -0.132)">
       <use xlink:href="#DejaVuSans-35"/>
       <use x="63.623047" xlink:href="#DejaVuSans-2e"/>
       <use x="95.410156" xlink:href="#DejaVuSans-30"/>
      </g>
     </g>
    </g>
    <g id="xtick_19">
     <g id="text_11">
      <!-- 7.5 -->
      <g style="fill:#262626;" transform="translate(127.755488 675.627687)scale(0.132 -0.132)">
       <defs>
        <path d="M 525 4666 
L 3525 4666 
L 3525 4397 
L 1831 0 
L 1172 0 
L 2766 4134 
L 525 4134 
L 525 4666 
z
" id="DejaVuSans-37" transform="scale(0.015625)"/>
       </defs>
       <use xlink:href="#DejaVuSans-37"/>
       <use x="63.623047" xlink:href="#DejaVuSans-2e"/>
       <use x="95.410156" xlink:href="#DejaVuSans-35"/>
      </g>
     </g>
    </g>
    <g id="xtick_20">
     <g id="text_12">
      <!-- 10.0 -->
      <g style="fill:#262626;" transform="translate(163.018988 675.627687)scale(0.132 -0.132)">
       <use xlink:href="#DejaVuSans-31"/>
       <use x="63.623047" xlink:href="#DejaVuSans-30"/>
       <use x="127.246094" xlink:href="#DejaVuSans-2e"/>
       <use x="159.033203" xlink:href="#DejaVuSans-30"/>
      </g>
     </g>
    </g>
    <g id="xtick_21">
     <g id="text_13">
      <!-- 12.5 -->
      <g style="fill:#262626;" transform="translate(202.481738 675.627687)scale(0.132 -0.132)">
       <use xlink:href="#DejaVuSans-31"/>
       <use x="63.623047" xlink:href="#DejaVuSans-32"/>
       <use x="127.246094" xlink:href="#DejaVuSans-2e"/>
       <use x="159.033203" xlink:href="#DejaVuSans-35"/>
      </g>
     </g>
    </g>
    <g id="xtick_22">
     <g id="text_14">
      <!-- 15.0 -->
      <g style="fill:#262626;" transform="translate(241.944488 675.627687)scale(0.132 -0.132)">
       <use xlink:href="#DejaVuSans-31"/>
       <use x="63.623047" xlink:href="#DejaVuSans-35"/>
       <use x="127.246094" xlink:href="#DejaVuSans-2e"/>
       <use x="159.033203" xlink:href="#DejaVuSans-30"/>
      </g>
     </g>
    </g>
    <g id="xtick_23">
     <g id="text_15">
      <!-- 17.5 -->
      <g style="fill:#262626;" transform="translate(281.407238 675.627687)scale(0.132 -0.132)">
       <use xlink:href="#DejaVuSans-31"/>
       <use x="63.623047" xlink:href="#DejaVuSans-37"/>
       <use x="127.246094" xlink:href="#DejaVuSans-2e"/>
       <use x="159.033203" xlink:href="#DejaVuSans-35"/>
      </g>
     </g>
    </g>
    <g id="xtick_24">
     <g id="text_16">
      <!-- 20.0 -->
      <g style="fill:#262626;" transform="translate(320.869988 675.627687)scale(0.132 -0.132)">
       <use xlink:href="#DejaVuSans-32"/>
       <use x="63.623047" xlink:href="#DejaVuSans-30"/>
       <use x="127.246094" xlink:href="#DejaVuSans-2e"/>
       <use x="159.033203" xlink:href="#DejaVuSans-30"/>
      </g>
     </g>
    </g>
    <g id="text_17">
     <!-- x -->
     <g style="fill:#262626;" transform="translate(205.023 693.314625)scale(0.144 -0.144)">
      <defs>
       <path d="M 3513 3500 
L 2247 1797 
L 3578 0 
L 2900 0 
L 1881 1375 
L 863 0 
L 184 0 
L 1544 1831 
L 300 3500 
L 978 3500 
L 1906 2253 
L 2834 3500 
L 3513 3500 
z
" id="DejaVuSans-78" transform="scale(0.015625)"/>
      </defs>
      <use xlink:href="#DejaVuSans-78"/>
     </g>
    </g>
   </g>
   <g id="matplotlib.axis_6">
    <g id="ytick_11">
     <g id="text_18">
      <!-- 4 -->
      <g style="fill:#262626;" transform="translate(33.535 622.04007)scale(0.132 -0.132)">
       <use xlink:href="#DejaVuSans-34"/>
      </g>
     </g>
    </g>
    <g id="ytick_12">
     <g id="text_19">
      <!-- 6 -->
      <g style="fill:#262626;" transform="translate(33.535 565.494993)scale(0.132 -0.132)">
       <use xlink:href="#DejaVuSans-36"/>
      </g>
     </g>
    </g>
    <g id="ytick_13">
     <g id="text_20">
      <!-- 8 -->
      <g style="fill:#262626;" transform="translate(33.535 508.949916)scale(0.132 -0.132)">
       <use xlink:href="#DejaVuSans-38"/>
      </g>
     </g>
    </g>
    <g id="ytick_14">
     <g id="text_21">
      <!-- 10 -->
      <g style="fill:#262626;" transform="translate(25.1365 452.404838)scale(0.132 -0.132)">
       <use xlink:href="#DejaVuSans-31"/>
       <use x="63.623047" xlink:href="#DejaVuSans-30"/>
      </g>
     </g>
    </g>
    <g id="ytick_15">
     <g id="text_22">
      <!-- 12 -->
      <g style="fill:#262626;" transform="translate(25.1365 395.859761)scale(0.132 -0.132)">
       <use xlink:href="#DejaVuSans-31"/>
       <use x="63.623047" xlink:href="#DejaVuSans-32"/>
      </g>
     </g>
    </g>
    <g id="text_23">
     <!-- y -->
     <g style="fill:#262626;" transform="translate(18.14175 510.45825)rotate(-90)scale(0.144 -0.144)">
      <use xlink:href="#DejaVuSans-79"/>
     </g>
    </g>
   </g>
   <g id="PathCollection_3">
    <g clip-path="url(#pf8dbcdbf83)">
     <use style="fill:#0d62a3;fill-opacity:0.8;stroke:#0d62a3;stroke-opacity:0.8;" x="177.7143" xlink:href="#mb4e41068b3" y="519.202118"/>
     <use style="fill:#0d62a3;fill-opacity:0.8;stroke:#0d62a3;stroke-opacity:0.8;" x="146.1441" xlink:href="#mb4e41068b3" y="538.710169"/>
     <use style="fill:#0d62a3;fill-opacity:0.8;stroke:#0d62a3;stroke-opacity:0.8;" x="225.0696" xlink:href="#mb4e41068b3" y="369.923114"/>
     <use style="fill:#0d62a3;fill-opacity:0.8;stroke:#0d62a3;stroke-opacity:0.8;" x="161.9292" xlink:href="#mb4e41068b3" y="529.097506"/>
     <use style="fill:#0d62a3;fill-opacity:0.8;stroke:#0d62a3;stroke-opacity:0.8;" x="193.4994" xlink:href="#mb4e41068b3" y="509.306729"/>
     <use style="fill:#0d62a3;fill-opacity:0.8;stroke:#0d62a3;stroke-opacity:0.8;" x="240.8547" xlink:href="#mb4e41068b3" y="480.186014"/>
     <use style="fill:#0d62a3;fill-opacity:0.8;stroke:#0d62a3;stroke-opacity:0.8;" x="114.5739" xlink:href="#mb4e41068b3" y="558.218221"/>
     <use style="fill:#0d62a3;fill-opacity:0.8;stroke:#0d62a3;stroke-opacity:0.8;" x="83.0037" xlink:href="#mb4e41068b3" y="577.726273"/>
     <use style="fill:#0d62a3;fill-opacity:0.8;stroke:#0d62a3;stroke-opacity:0.8;" x="209.2845" xlink:href="#mb4e41068b3" y="499.694066"/>
     <use style="fill:#0d62a3;fill-opacity:0.8;stroke:#0d62a3;stroke-opacity:0.8;" x="130.359" xlink:href="#mb4e41068b3" y="548.605558"/>
     <use style="fill:#0d62a3;fill-opacity:0.8;stroke:#0d62a3;stroke-opacity:0.8;" x="98.7888" xlink:href="#mb4e41068b3" y="568.11361"/>
    </g>
   </g>
   <g id="line2d_3">
    <path clip-path="url(#pf8dbcdbf83)" d="M 83.0037 588.714009 
L 84.598155 587.286882 
L 86.192609 585.859755 
L 87.787064 584.432628 
L 89.381518 583.005501 
L 90.975973 581.578374 
L 92.570427 580.151247 
L 94.164882 578.724119 
L 95.759336 577.296992 
L 97.353791 575.869865 
L 98.948245 574.442738 
L 100.5427 573.015611 
L 102.137155 571.588484 
L 103.731609 570.161357 
L 105.326064 568.73423 
L 106.920518 567.307102 
L 108.514973 565.879975 
L 110.109427 564.452848 
L 111.703882 563.025721 
L 113.298336 561.598594 
L 114.892791 560.171467 
L 116.487245 558.74434 
L 118.0817 557.317212 
L 119.676155 555.890085 
L 121.270609 554.462958 
L 122.865064 553.035831 
L 124.459518 551.608704 
L 126.053973 550.181577 
L 127.648427 548.75445 
L 129.242882 547.327323 
L 130.837336 545.900195 
L 132.431791 544.473068 
L 134.026245 543.045941 
L 135.6207 541.618814 
L 137.215155 540.191687 
L 138.809609 538.76456 
L 140.404064 537.337433 
L 141.998518 535.910305 
L 143.592973 534.483178 
L 145.187427 533.056051 
L 146.781882 531.628924 
L 148.376336 530.201797 
L 149.970791 528.77467 
L 151.565245 527.347543 
L 153.1597 525.920415 
L 154.754155 524.493288 
L 156.348609 523.066161 
L 157.943064 521.639034 
L 159.537518 520.211907 
L 161.131973 518.78478 
L 162.726427 517.357653 
L 164.320882 515.930526 
L 165.915336 514.503398 
L 167.509791 513.076271 
L 169.104245 511.649144 
L 170.6987 510.222017 
L 172.293155 508.79489 
L 173.887609 507.367763 
L 175.482064 505.940636 
L 177.076518 504.513508 
L 178.670973 503.086381 
L 180.265427 501.659254 
L 181.859882 500.232127 
L 183.454336 498.805 
L 185.048791 497.377873 
L 186.643245 495.950746 
L 188.2377 494.523619 
L 189.832155 493.096491 
L 191.426609 491.669364 
L 193.021064 490.242237 
L 194.615518 488.81511 
L 196.209973 487.387983 
L 197.804427 485.960856 
L 199.398882 484.533729 
L 200.993336 483.106601 
L 202.587791 481.679474 
L 204.182245 480.252347 
L 205.7767 478.82522 
L 207.371155 477.398093 
L 208.965609 475.970966 
L 210.560064 474.543839 
L 212.154518 473.116711 
L 213.748973 471.689584 
L 215.343427 470.262457 
L 216.937882 468.83533 
L 218.532336 467.408203 
L 220.126791 465.981076 
L 221.721245 464.553949 
L 223.3157 463.126822 
L 224.910155 461.699694 
L 226.504609 460.272567 
L 228.099064 458.84544 
L 229.693518 457.418313 
L 231.287973 455.991186 
L 232.882427 454.564059 
L 234.476882 453.136932 
L 236.071336 451.709804 
L 237.665791 450.282677 
L 239.260245 448.85555 
L 240.8547 447.428423 
" style="fill:none;stroke:#a30905;stroke-linecap:round;stroke-opacity:0.5;stroke-width:5;"/>
   </g>
   <g id="patch_9">
    <path d="M 51.4335 656.09775 
L 51.4335 356.29575 
" style="fill:none;stroke:#262626;stroke-linecap:square;stroke-linejoin:miter;stroke-width:1.25;"/>
   </g>
   <g id="patch_10">
    <path d="M 51.4335 656.09775 
L 367.1355 656.09775 
" style="fill:none;stroke:#262626;stroke-linecap:square;stroke-linejoin:miter;stroke-width:1.25;"/>
   </g>
   <g id="text_24">
    <!-- dataset = III -->
    <g style="fill:#262626;" transform="translate(165.081 350.29575)scale(0.144 -0.144)">
     <use xlink:href="#DejaVuSans-64"/>
     <use x="63.476562" xlink:href="#DejaVuSans-61"/>
     <use x="124.755859" xlink:href="#DejaVuSans-74"/>
     <use x="163.964844" xlink:href="#DejaVuSans-61"/>
     <use x="225.244141" xlink:href="#DejaVuSans-73"/>
     <use x="277.34375" xlink:href="#DejaVuSans-65"/>
     <use x="338.867188" xlink:href="#DejaVuSans-74"/>
     <use x="378.076172" xlink:href="#DejaVuSans-20"/>
     <use x="409.863281" xlink:href="#DejaVuSans-3d"/>
     <use x="493.652344" xlink:href="#DejaVuSans-20"/>
     <use x="525.439453" xlink:href="#DejaVuSans-49"/>
     <use x="554.931641" xlink:href="#DejaVuSans-49"/>
     <use x="584.423828" xlink:href="#DejaVuSans-49"/>
    </g>
   </g>
  </g>
  <g id="axes_4">
   <g id="patch_11">
    <path d="M 382.6875 656.09775 
L 698.3895 656.09775 
L 698.3895 356.29575 
L 382.6875 356.29575 
z
" style="fill:#ffffff;"/>
   </g>
   <g id="matplotlib.axis_7">
    <g id="xtick_25">
     <g id="text_25">
      <!-- 2.5 -->
      <g style="fill:#262626;" transform="translate(380.083988 675.627687)scale(0.132 -0.132)">
       <use xlink:href="#DejaVuSans-32"/>
       <use x="63.623047" xlink:href="#DejaVuSans-2e"/>
       <use x="95.410156" xlink:href="#DejaVuSans-35"/>
      </g>
     </g>
    </g>
    <g id="xtick_26">
     <g id="text_26">
      <!-- 5.0 -->
      <g style="fill:#262626;" transform="translate(419.546738 675.627687)scale(0.132 -0.132)">
       <use xlink:href="#DejaVuSans-35"/>
       <use x="63.623047" xlink:href="#DejaVuSans-2e"/>
       <use x="95.410156" xlink:href="#DejaVuSans-30"/>
      </g>
     </g>
    </g>
    <g id="xtick_27">
     <g id="text_27">
      <!-- 7.5 -->
      <g style="fill:#262626;" transform="translate(459.009487 675.627687)scale(0.132 -0.132)">
       <use xlink:href="#DejaVuSans-37"/>
       <use x="63.623047" xlink:href="#DejaVuSans-2e"/>
       <use x="95.410156" xlink:href="#DejaVuSans-35"/>
      </g>
     </g>
    </g>
    <g id="xtick_28">
     <g id="text_28">
      <!-- 10.0 -->
      <g style="fill:#262626;" transform="translate(494.272987 675.627687)scale(0.132 -0.132)">
       <use xlink:href="#DejaVuSans-31"/>
       <use x="63.623047" xlink:href="#DejaVuSans-30"/>
       <use x="127.246094" xlink:href="#DejaVuSans-2e"/>
       <use x="159.033203" xlink:href="#DejaVuSans-30"/>
      </g>
     </g>
    </g>
    <g id="xtick_29">
     <g id="text_29">
      <!-- 12.5 -->
      <g style="fill:#262626;" transform="translate(533.735738 675.627687)scale(0.132 -0.132)">
       <use xlink:href="#DejaVuSans-31"/>
       <use x="63.623047" xlink:href="#DejaVuSans-32"/>
       <use x="127.246094" xlink:href="#DejaVuSans-2e"/>
       <use x="159.033203" xlink:href="#DejaVuSans-35"/>
      </g>
     </g>
    </g>
    <g id="xtick_30">
     <g id="text_30">
      <!-- 15.0 -->
      <g style="fill:#262626;" transform="translate(573.198488 675.627687)scale(0.132 -0.132)">
       <use xlink:href="#DejaVuSans-31"/>
       <use x="63.623047" xlink:href="#DejaVuSans-35"/>
       <use x="127.246094" xlink:href="#DejaVuSans-2e"/>
       <use x="159.033203" xlink:href="#DejaVuSans-30"/>
      </g>
     </g>
    </g>
    <g id="xtick_31">
     <g id="text_31">
      <!-- 17.5 -->
      <g style="fill:#262626;" transform="translate(612.661237 675.627687)scale(0.132 -0.132)">
       <use xlink:href="#DejaVuSans-31"/>
       <use x="63.623047" xlink:href="#DejaVuSans-37"/>
       <use x="127.246094" xlink:href="#DejaVuSans-2e"/>
       <use x="159.033203" xlink:href="#DejaVuSans-35"/>
      </g>
     </g>
    </g>
    <g id="xtick_32">
     <g id="text_32">
      <!-- 20.0 -->
      <g style="fill:#262626;" transform="translate(652.123987 675.627687)scale(0.132 -0.132)">
       <use xlink:href="#DejaVuSans-32"/>
       <use x="63.623047" xlink:href="#DejaVuSans-30"/>
       <use x="127.246094" xlink:href="#DejaVuSans-2e"/>
       <use x="159.033203" xlink:href="#DejaVuSans-30"/>
      </g>
     </g>
    </g>
    <g id="text_33">
     <!-- x -->
     <g style="fill:#262626;" transform="translate(536.277 693.314625)scale(0.144 -0.144)">
      <use xlink:href="#DejaVuSans-78"/>
     </g>
    </g>
   </g>
   <g id="matplotlib.axis_8">
    <g id="ytick_16"/>
    <g id="ytick_17"/>
    <g id="ytick_18"/>
    <g id="ytick_19"/>
    <g id="ytick_20"/>
   </g>
   <g id="PathCollection_4">
    <g clip-path="url(#p25d9a79b53)">
     <use style="fill:#0d62a3;fill-opacity:0.8;stroke:#0d62a3;stroke-opacity:0.8;" x="477.3981" xlink:href="#mb4e41068b3" y="544.081952"/>
     <use style="fill:#0d62a3;fill-opacity:0.8;stroke:#0d62a3;stroke-opacity:0.8;" x="477.3981" xlink:href="#mb4e41068b3" y="567.265434"/>
     <use style="fill:#0d62a3;fill-opacity:0.8;stroke:#0d62a3;stroke-opacity:0.8;" x="477.3981" xlink:href="#mb4e41068b3" y="512.133983"/>
     <use style="fill:#0d62a3;fill-opacity:0.8;stroke:#0d62a3;stroke-opacity:0.8;" x="477.3981" xlink:href="#mb4e41068b3" y="480.186014"/>
     <use style="fill:#0d62a3;fill-opacity:0.8;stroke:#0d62a3;stroke-opacity:0.8;" x="477.3981" xlink:href="#mb4e41068b3" y="490.646854"/>
     <use style="fill:#0d62a3;fill-opacity:0.8;stroke:#0d62a3;stroke-opacity:0.8;" x="477.3981" xlink:href="#mb4e41068b3" y="531.076584"/>
     <use style="fill:#0d62a3;fill-opacity:0.8;stroke:#0d62a3;stroke-opacity:0.8;" x="477.3981" xlink:href="#mb4e41068b3" y="581.684428"/>
     <use style="fill:#0d62a3;fill-opacity:0.8;stroke:#0d62a3;stroke-opacity:0.8;" x="651.0342" xlink:href="#mb4e41068b3" y="376.708523"/>
     <use style="fill:#0d62a3;fill-opacity:0.8;stroke:#0d62a3;stroke-opacity:0.8;" x="477.3981" xlink:href="#mb4e41068b3" y="572.919941"/>
     <use style="fill:#0d62a3;fill-opacity:0.8;stroke:#0d62a3;stroke-opacity:0.8;" x="477.3981" xlink:href="#mb4e41068b3" y="506.479475"/>
     <use style="fill:#0d62a3;fill-opacity:0.8;stroke:#0d62a3;stroke-opacity:0.8;" x="477.3981" xlink:href="#mb4e41068b3" y="535.317465"/>
    </g>
   </g>
   <g id="line2d_4">
    <path clip-path="url(#p25d9a79b53)" d="M 477.3981 532.179213 
L 479.152 530.608802 
L 480.9059 529.038391 
L 482.6598 527.46798 
L 484.4137 525.897569 
L 486.1676 524.327158 
L 487.9215 522.756747 
L 489.6754 521.186336 
L 491.4293 519.615925 
L 493.1832 518.045514 
L 494.9371 516.475103 
L 496.691 514.904692 
L 498.4449 513.334281 
L 500.1988 511.76387 
L 501.9527 510.193459 
L 503.7066 508.623048 
L 505.4605 507.052637 
L 507.2144 505.482226 
L 508.9683 503.911815 
L 510.7222 502.341404 
L 512.4761 500.770993 
L 514.23 499.200582 
L 515.9839 497.630171 
L 517.7378 496.05976 
L 519.4917 494.489349 
L 521.2456 492.918938 
L 522.9995 491.348527 
L 524.7534 489.778116 
L 526.5073 488.207705 
L 528.2612 486.637294 
L 530.0151 485.066883 
L 531.769 483.496472 
L 533.5229 481.926061 
L 535.2768 480.35565 
L 537.0307 478.785239 
L 538.7846 477.214828 
L 540.5385 475.644417 
L 542.2924 474.074006 
L 544.0463 472.503595 
L 545.8002 470.933184 
L 547.5541 469.362773 
L 549.308 467.792362 
L 551.0619 466.221951 
L 552.8158 464.65154 
L 554.5697 463.081129 
L 556.3236 461.510718 
L 558.0775 459.940307 
L 559.8314 458.369896 
L 561.5853 456.799484 
L 563.3392 455.229073 
L 565.0931 453.658662 
L 566.847 452.088251 
L 568.6009 450.51784 
L 570.3548 448.947429 
L 572.1087 447.377018 
L 573.8626 445.806607 
L 575.6165 444.236196 
L 577.3704 442.665785 
L 579.1243 441.095374 
L 580.8782 439.524963 
L 582.6321 437.954552 
L 584.386 436.384141 
L 586.1399 434.81373 
L 587.8938 433.243319 
L 589.6477 431.672908 
L 591.4016 430.102497 
L 593.1555 428.532086 
L 594.9094 426.961675 
L 596.6633 425.391264 
L 598.4172 423.820853 
L 600.1711 422.250442 
L 601.925 420.680031 
L 603.6789 419.10962 
L 605.4328 417.539209 
L 607.1867 415.968798 
L 608.9406 414.398387 
L 610.6945 412.827976 
L 612.4484 411.257565 
L 614.2023 409.687154 
L 615.9562 408.116743 
L 617.7101 406.546332 
L 619.464 404.975921 
L 621.2179 403.40551 
L 622.9718 401.835099 
L 624.7257 400.264688 
L 626.4796 398.694277 
L 628.2335 397.123866 
L 629.9874 395.553455 
L 631.7413 393.983044 
L 633.4952 392.412633 
L 635.2491 390.842222 
L 637.003 389.271811 
L 638.7569 387.7014 
L 640.5108 386.130989 
L 642.2647 384.560578 
L 644.0186 382.990167 
L 645.7725 381.419756 
L 647.5264 379.849345 
L 649.2803 378.278934 
L 651.0342 376.708523 
" style="fill:none;stroke:#a30905;stroke-linecap:round;stroke-opacity:0.5;stroke-width:5;"/>
   </g>
   <g id="patch_12">
    <path d="M 382.6875 656.09775 
L 382.6875 356.29575 
" style="fill:none;stroke:#262626;stroke-linecap:square;stroke-linejoin:miter;stroke-width:1.25;"/>
   </g>
   <g id="patch_13">
    <path d="M 382.6875 656.09775 
L 698.3895 656.09775 
" style="fill:none;stroke:#262626;stroke-linecap:square;stroke-linejoin:miter;stroke-width:1.25;"/>
   </g>
   <g id="text_34">
    <!-- dataset = IV -->
    <g style="fill:#262626;" transform="translate(495.65775 350.29575)scale(0.144 -0.144)">
     <defs>
      <path d="M 1831 0 
L 50 4666 
L 709 4666 
L 2188 738 
L 3669 4666 
L 4325 4666 
L 2547 0 
L 1831 0 
z
" id="DejaVuSans-56" transform="scale(0.015625)"/>
     </defs>
     <use xlink:href="#DejaVuSans-64"/>
     <use x="63.476562" xlink:href="#DejaVuSans-61"/>
     <use x="124.755859" xlink:href="#DejaVuSans-74"/>
     <use x="163.964844" xlink:href="#DejaVuSans-61"/>
     <use x="225.244141" xlink:href="#DejaVuSans-73"/>
     <use x="277.34375" xlink:href="#DejaVuSans-65"/>
     <use x="338.867188" xlink:href="#DejaVuSans-74"/>
     <use x="378.076172" xlink:href="#DejaVuSans-20"/>
     <use x="409.863281" xlink:href="#DejaVuSans-3d"/>
     <use x="493.652344" xlink:href="#DejaVuSans-20"/>
     <use x="525.439453" xlink:href="#DejaVuSans-49"/>
     <use x="554.931641" xlink:href="#DejaVuSans-56"/>
    </g>
   </g>
  </g>
 </g>
 <defs>
  <clipPath id="p99d71e84c9">
   <rect height="299.802" width="315.702" x="51.4335" y="24.14175"/>
  </clipPath>
  <clipPath id="p3a05421ae7">
   <rect height="299.802" width="315.702" x="382.6875" y="24.14175"/>
  </clipPath>
  <clipPath id="pf8dbcdbf83">
   <rect height="299.802" width="315.702" x="51.4335" y="356.29575"/>
  </clipPath>
  <clipPath id="p25d9a79b53">
   <rect height="299.802" width="315.702" x="382.6875" y="356.29575"/>
  </clipPath>
 </defs>
</svg>
