<?xml version="1.0" encoding="utf-8" standalone="no"?>
<!DOCTYPE svg PUBLIC "-//W3C//DTD SVG 1.1//EN"
  "http://www.w3.org/Graphics/SVG/1.1/DTD/svg11.dtd">
<svg xmlns:xlink="http://www.w3.org/1999/xlink" width="703.4295pt" height="703.509375pt" viewBox="0 0 703.4295 703.509375" xmlns="http://www.w3.org/2000/svg" version="1.1">
 <metadata>
  <rdf:RDF xmlns:dc="http://purl.org/dc/elements/1.1/" xmlns:cc="http://creativecommons.org/ns#" xmlns:rdf="http://www.w3.org/1999/02/22-rdf-syntax-ns#">
   <cc:Work>
    <dc:type rdf:resource="http://purl.org/dc/dcmitype/StillImage"/>
    <dc:date>2023-05-31T15:19:34.773303</dc:date>
    <dc:format>image/svg+xml</dc:format>
    <dc:creator>
     <cc:Agent>
      <dc:title>Matplotlib v3.7.1, https://matplotlib.org/</dc:title>
     </cc:Agent>
    </dc:creator>
   </cc:Work>
  </rdf:RDF>
 </metadata>
 <defs>
  <style type="text/css">*{stroke-linejoin: round; stroke-linecap: butt}</style>
 </defs>
 <g id="figure_1">
  <g id="patch_1">
   <path d="M 0 703.509375 
L 703.4295 703.509375 
L 703.4295 0 
L 0 0 
z
" style="fill: #ffffff"/>
  </g>
  <g id="axes_1">
   <g id="patch_2">
    <path d="M 51.4335 323.94375 
L 366.0555 323.94375 
L 366.0555 24.14175 
L 51.4335 24.14175 
z
" style="fill: #ffffff"/>
   </g>
   <g id="matplotlib.axis_1">
    <g id="xtick_1"/>
    <g id="xtick_2"/>
    <g id="xtick_3"/>
    <g id="xtick_4"/>
    <g id="xtick_5"/>
    <g id="xtick_6"/>
    <g id="xtick_7"/>
    <g id="xtick_8"/>
   </g>
   <g id="matplotlib.axis_2">
    <g id="ytick_1">
     <g id="text_1">
      <!-- 4 -->
      <g style="fill: #262626" transform="translate(33.535 289.88607) scale(0.132 -0.132)">
       <defs>
        <path id="DejaVuSans-34" d="M 2419 4116 
L 825 1625 
L 2419 1625 
L 2419 4116 
z
M 2253 4666 
L 3047 4666 
L 3047 1625 
L 3713 1625 
L 3713 1100 
L 3047 1100 
L 3047 0 
L 2419 0 
L 2419 1100 
L 313 1100 
L 313 1709 
L 2253 4666 
z
" transform="scale(0.015625)"/>
       </defs>
       <use xlink:href="#DejaVuSans-34"/>
      </g>
     </g>
    </g>
    <g id="ytick_2">
     <g id="text_2">
      <!-- 6 -->
      <g style="fill: #262626" transform="translate(33.535 233.340993) scale(0.132 -0.132)">
       <defs>
        <path id="DejaVuSans-36" d="M 2113 2584 
Q 1688 2584 1439 2293 
Q 1191 2003 1191 1497 
Q 1191 994 1439 701 
Q 1688 409 2113 409 
Q 2538 409 2786 701 
Q 3034 994 3034 1497 
Q 3034 2003 2786 2293 
Q 2538 2584 2113 2584 
z
M 3366 4563 
L 3366 3988 
Q 3128 4100 2886 4159 
Q 2644 4219 2406 4219 
Q 1781 4219 1451 3797 
Q 1122 3375 1075 2522 
Q 1259 2794 1537 2939 
Q 1816 3084 2150 3084 
Q 2853 3084 3261 2657 
Q 3669 2231 3669 1497 
Q 3669 778 3244 343 
Q 2819 -91 2113 -91 
Q 1303 -91 875 529 
Q 447 1150 447 2328 
Q 447 3434 972 4092 
Q 1497 4750 2381 4750 
Q 2619 4750 2861 4703 
Q 3103 4656 3366 4563 
z
" transform="scale(0.015625)"/>
       </defs>
       <use xlink:href="#DejaVuSans-36"/>
      </g>
     </g>
    </g>
    <g id="ytick_3">
     <g id="text_3">
      <!-- 8 -->
      <g style="fill: #262626" transform="translate(33.535 176.795916) scale(0.132 -0.132)">
       <defs>
        <path id="DejaVuSans-38" d="M 2034 2216 
Q 1584 2216 1326 1975 
Q 1069 1734 1069 1313 
Q 1069 891 1326 650 
Q 1584 409 2034 409 
Q 2484 409 2743 651 
Q 3003 894 3003 1313 
Q 3003 1734 2745 1975 
Q 2488 2216 2034 2216 
z
M 1403 2484 
Q 997 2584 770 2862 
Q 544 3141 544 3541 
Q 544 4100 942 4425 
Q 1341 4750 2034 4750 
Q 2731 4750 3128 4425 
Q 3525 4100 3525 3541 
Q 3525 3141 3298 2862 
Q 3072 2584 2669 2484 
Q 3125 2378 3379 2068 
Q 3634 1759 3634 1313 
Q 3634 634 3220 271 
Q 2806 -91 2034 -91 
Q 1263 -91 848 271 
Q 434 634 434 1313 
Q 434 1759 690 2068 
Q 947 2378 1403 2484 
z
M 1172 3481 
Q 1172 3119 1398 2916 
Q 1625 2713 2034 2713 
Q 2441 2713 2670 2916 
Q 2900 3119 2900 3481 
Q 2900 3844 2670 4047 
Q 2441 4250 2034 4250 
Q 1625 4250 1398 4047 
Q 1172 3844 1172 3481 
z
" transform="scale(0.015625)"/>
       </defs>
       <use xlink:href="#DejaVuSans-38"/>
      </g>
     </g>
    </g>
    <g id="ytick_4">
     <g id="text_4">
      <!-- 10 -->
      <g style="fill: #262626" transform="translate(25.1365 120.250838) scale(0.132 -0.132)">
       <defs>
        <path id="DejaVuSans-31" d="M 794 531 
L 1825 531 
L 1825 4091 
L 703 3866 
L 703 4441 
L 1819 4666 
L 2450 4666 
L 2450 531 
L 3481 531 
L 3481 0 
L 794 0 
L 794 531 
z
" transform="scale(0.015625)"/>
        <path id="DejaVuSans-30" d="M 2034 4250 
Q 1547 4250 1301 3770 
Q 1056 3291 1056 2328 
Q 1056 1369 1301 889 
Q 1547 409 2034 409 
Q 2525 409 2770 889 
Q 3016 1369 3016 2328 
Q 3016 3291 2770 3770 
Q 2525 4250 2034 4250 
z
M 2034 4750 
Q 2819 4750 3233 4129 
Q 3647 3509 3647 2328 
Q 3647 1150 3233 529 
Q 2819 -91 2034 -91 
Q 1250 -91 836 529 
Q 422 1150 422 2328 
Q 422 3509 836 4129 
Q 1250 4750 2034 4750 
z
" transform="scale(0.015625)"/>
       </defs>
       <use xlink:href="#DejaVuSans-31"/>
       <use xlink:href="#DejaVuSans-30" x="63.623047"/>
      </g>
     </g>
    </g>
    <g id="ytick_5">
     <g id="text_5">
      <!-- 12 -->
      <g style="fill: #262626" transform="translate(25.1365 63.705761) scale(0.132 -0.132)">
       <defs>
        <path id="DejaVuSans-32" d="M 1228 531 
L 3431 531 
L 3431 0 
L 469 0 
L 469 531 
Q 828 903 1448 1529 
Q 2069 2156 2228 2338 
Q 2531 2678 2651 2914 
Q 2772 3150 2772 3378 
Q 2772 3750 2511 3984 
Q 2250 4219 1831 4219 
Q 1534 4219 1204 4116 
Q 875 4013 500 3803 
L 500 4441 
Q 881 4594 1212 4672 
Q 1544 4750 1819 4750 
Q 2544 4750 2975 4387 
Q 3406 4025 3406 3419 
Q 3406 3131 3298 2873 
Q 3191 2616 2906 2266 
Q 2828 2175 2409 1742 
Q 1991 1309 1228 531 
z
" transform="scale(0.015625)"/>
       </defs>
       <use xlink:href="#DejaVuSans-31"/>
       <use xlink:href="#DejaVuSans-32" x="63.623047"/>
      </g>
     </g>
    </g>
    <g id="text_6">
     <!-- y -->
     <g style="fill: #262626" transform="translate(18.14175 178.30425) rotate(-90) scale(0.144 -0.144)">
      <defs>
       <path id="DejaVuSans-79" d="M 2059 -325 
Q 1816 -950 1584 -1140 
Q 1353 -1331 966 -1331 
L 506 -1331 
L 506 -850 
L 844 -850 
Q 1081 -850 1212 -737 
Q 1344 -625 1503 -206 
L 1606 56 
L 191 3500 
L 800 3500 
L 1894 763 
L 2988 3500 
L 3597 3500 
L 2059 -325 
z
" transform="scale(0.015625)"/>
      </defs>
      <use xlink:href="#DejaVuSans-79"/>
     </g>
    </g>
   </g>
   <g id="PathCollection_1">
    <defs>
     <path id="m6abdcd7ac2" d="M 0 5 
C 1.326016 5 2.597899 4.473168 3.535534 3.535534 
C 4.473168 2.597899 5 1.326016 5 0 
C 5 -1.326016 4.473168 -2.597899 3.535534 -3.535534 
C 2.597899 -4.473168 1.326016 -5 0 -5 
C -1.326016 -5 -2.597899 -4.473168 -3.535534 -3.535534 
C -4.473168 -2.597899 -5 -1.326016 -5 0 
C -5 1.326016 -4.473168 2.597899 -3.535534 3.535534 
C -2.597899 4.473168 -1.326016 5 0 5 
z
" style="stroke: #0d62a3; stroke-opacity: 0.8"/>
    </defs>
    <g clip-path="url(#p2630631c62)">
     <use xlink:href="#m6abdcd7ac2" x="177.2823" y="170.650045" style="fill: #0d62a3; fill-opacity: 0.8; stroke: #0d62a3; stroke-opacity: 0.8"/>
     <use xlink:href="#m6abdcd7ac2" x="145.8201" y="201.467113" style="fill: #0d62a3; fill-opacity: 0.8; stroke: #0d62a3; stroke-opacity: 0.8"/>
     <use xlink:href="#m6abdcd7ac2" x="224.4756" y="183.655413" style="fill: #0d62a3; fill-opacity: 0.8; stroke: #0d62a3; stroke-opacity: 0.8"/>
     <use xlink:href="#m6abdcd7ac2" x="161.5512" y="148.880191" style="fill: #0d62a3; fill-opacity: 0.8; stroke: #0d62a3; stroke-opacity: 0.8"/>
     <use xlink:href="#m6abdcd7ac2" x="193.0134" y="162.451009" style="fill: #0d62a3; fill-opacity: 0.8; stroke: #0d62a3; stroke-opacity: 0.8"/>
     <use xlink:href="#m6abdcd7ac2" x="240.2067" y="116.366771" style="fill: #0d62a3; fill-opacity: 0.8; stroke: #0d62a3; stroke-opacity: 0.8"/>
     <use xlink:href="#m6abdcd7ac2" x="114.3579" y="193.268076" style="fill: #0d62a3; fill-opacity: 0.8; stroke: #0d62a3; stroke-opacity: 0.8"/>
     <use xlink:href="#m6abdcd7ac2" x="82.8957" y="277.520242" style="fill: #0d62a3; fill-opacity: 0.8; stroke: #0d62a3; stroke-opacity: 0.8"/>
     <use xlink:href="#m6abdcd7ac2" x="208.7445" y="91.486937" style="fill: #0d62a3; fill-opacity: 0.8; stroke: #0d62a3; stroke-opacity: 0.8"/>
     <use xlink:href="#m6abdcd7ac2" x="130.089" y="261.68762" style="fill: #0d62a3; fill-opacity: 0.8; stroke: #0d62a3; stroke-opacity: 0.8"/>
     <use xlink:href="#m6abdcd7ac2" x="98.6268" y="237.373237" style="fill: #0d62a3; fill-opacity: 0.8; stroke: #0d62a3; stroke-opacity: 0.8"/>
    </g>
   </g>
   <g id="line2d_1">
    <path d="M 82.8957 256.585712 
L 84.4847 255.157546 
L 86.0737 253.729381 
L 87.6627 252.301215 
L 89.2517 250.873049 
L 90.8407 249.444884 
L 92.4297 248.016718 
L 94.0187 246.588552 
L 95.6077 245.160387 
L 97.1967 243.732221 
L 98.7857 242.304056 
L 100.3747 240.87589 
L 101.9637 239.447724 
L 103.5527 238.019559 
L 105.1417 236.591393 
L 106.7307 235.163228 
L 108.3197 233.735062 
L 109.9087 232.306896 
L 111.4977 230.878731 
L 113.0867 229.450565 
L 114.6757 228.022399 
L 116.2647 226.594234 
L 117.8537 225.166068 
L 119.4427 223.737903 
L 121.0317 222.309737 
L 122.6207 220.881571 
L 124.2097 219.453406 
L 125.7987 218.02524 
L 127.3877 216.597075 
L 128.9767 215.168909 
L 130.5657 213.740743 
L 132.1547 212.312578 
L 133.7437 210.884412 
L 135.3327 209.456247 
L 136.9217 208.028081 
L 138.5107 206.599915 
L 140.0997 205.17175 
L 141.6887 203.743584 
L 143.2777 202.315418 
L 144.8667 200.887253 
L 146.4557 199.459087 
L 148.0447 198.030922 
L 149.6337 196.602756 
L 151.2227 195.17459 
L 152.8117 193.746425 
L 154.4007 192.318259 
L 155.9897 190.890094 
L 157.5787 189.461928 
L 159.1677 188.033762 
L 160.7567 186.605597 
L 162.3457 185.177431 
L 163.9347 183.749266 
L 165.5237 182.3211 
L 167.1127 180.892934 
L 168.7017 179.464769 
L 170.2907 178.036603 
L 171.8797 176.608437 
L 173.4687 175.180272 
L 175.0577 173.752106 
L 176.6467 172.323941 
L 178.2357 170.895775 
L 179.8247 169.467609 
L 181.4137 168.039444 
L 183.0027 166.611278 
L 184.5917 165.183113 
L 186.1807 163.754947 
L 187.7697 162.326781 
L 189.3587 160.898616 
L 190.9477 159.47045 
L 192.5367 158.042284 
L 194.1257 156.614119 
L 195.7147 155.185953 
L 197.3037 153.757788 
L 198.8927 152.329622 
L 200.4817 150.901456 
L 202.0707 149.473291 
L 203.6597 148.045125 
L 205.2487 146.61696 
L 206.8377 145.188794 
L 208.4267 143.760628 
L 210.0157 142.332463 
L 211.6047 140.904297 
L 213.1937 139.476132 
L 214.7827 138.047966 
L 216.3717 136.6198 
L 217.9607 135.191635 
L 219.5497 133.763469 
L 221.1387 132.335303 
L 222.7277 130.907138 
L 224.3167 129.478972 
L 225.9057 128.050807 
L 227.4947 126.622641 
L 229.0837 125.194475 
L 230.6727 123.76631 
L 232.2617 122.338144 
L 233.8507 120.909979 
L 235.4397 119.481813 
L 237.0287 118.053647 
L 238.6177 116.625482 
L 240.2067 115.197316 
" clip-path="url(#p2630631c62)" style="fill: none; stroke: #a30905; stroke-opacity: 0.5; stroke-width: 5; stroke-linecap: round"/>
   </g>
   <g id="patch_3">
    <path d="M 51.4335 323.94375 
L 51.4335 24.14175 
" style="fill: none; stroke: #262626; stroke-width: 1.25; stroke-linejoin: miter; stroke-linecap: square"/>
   </g>
   <g id="patch_4">
    <path d="M 51.4335 323.94375 
L 366.0555 323.94375 
" style="fill: none; stroke: #262626; stroke-width: 1.25; stroke-linejoin: miter; stroke-linecap: square"/>
   </g>
   <g id="text_7">
    <!-- dataset = I -->
    <g style="fill: #262626" transform="translate(168.789 18.14175) scale(0.144 -0.144)">
     <defs>
      <path id="DejaVuSans-64" d="M 2906 2969 
L 2906 4863 
L 3481 4863 
L 3481 0 
L 2906 0 
L 2906 525 
Q 2725 213 2448 61 
Q 2172 -91 1784 -91 
Q 1150 -91 751 415 
Q 353 922 353 1747 
Q 353 2572 751 3078 
Q 1150 3584 1784 3584 
Q 2172 3584 2448 3432 
Q 2725 3281 2906 2969 
z
M 947 1747 
Q 947 1113 1208 752 
Q 1469 391 1925 391 
Q 2381 391 2643 752 
Q 2906 1113 2906 1747 
Q 2906 2381 2643 2742 
Q 2381 3103 1925 3103 
Q 1469 3103 1208 2742 
Q 947 2381 947 1747 
z
" transform="scale(0.015625)"/>
      <path id="DejaVuSans-61" d="M 2194 1759 
Q 1497 1759 1228 1600 
Q 959 1441 959 1056 
Q 959 750 1161 570 
Q 1363 391 1709 391 
Q 2188 391 2477 730 
Q 2766 1069 2766 1631 
L 2766 1759 
L 2194 1759 
z
M 3341 1997 
L 3341 0 
L 2766 0 
L 2766 531 
Q 2569 213 2275 61 
Q 1981 -91 1556 -91 
Q 1019 -91 701 211 
Q 384 513 384 1019 
Q 384 1609 779 1909 
Q 1175 2209 1959 2209 
L 2766 2209 
L 2766 2266 
Q 2766 2663 2505 2880 
Q 2244 3097 1772 3097 
Q 1472 3097 1187 3025 
Q 903 2953 641 2809 
L 641 3341 
Q 956 3463 1253 3523 
Q 1550 3584 1831 3584 
Q 2591 3584 2966 3190 
Q 3341 2797 3341 1997 
z
" transform="scale(0.015625)"/>
      <path id="DejaVuSans-74" d="M 1172 4494 
L 1172 3500 
L 2356 3500 
L 2356 3053 
L 1172 3053 
L 1172 1153 
Q 1172 725 1289 603 
Q 1406 481 1766 481 
L 2356 481 
L 2356 0 
L 1766 0 
Q 1100 0 847 248 
Q 594 497 594 1153 
L 594 3053 
L 172 3053 
L 172 3500 
L 594 3500 
L 594 4494 
L 1172 4494 
z
" transform="scale(0.015625)"/>
      <path id="DejaVuSans-73" d="M 2834 3397 
L 2834 2853 
Q 2591 2978 2328 3040 
Q 2066 3103 1784 3103 
Q 1356 3103 1142 2972 
Q 928 2841 928 2578 
Q 928 2378 1081 2264 
Q 1234 2150 1697 2047 
L 1894 2003 
Q 2506 1872 2764 1633 
Q 3022 1394 3022 966 
Q 3022 478 2636 193 
Q 2250 -91 1575 -91 
Q 1294 -91 989 -36 
Q 684 19 347 128 
L 347 722 
Q 666 556 975 473 
Q 1284 391 1588 391 
Q 1994 391 2212 530 
Q 2431 669 2431 922 
Q 2431 1156 2273 1281 
Q 2116 1406 1581 1522 
L 1381 1569 
Q 847 1681 609 1914 
Q 372 2147 372 2553 
Q 372 3047 722 3315 
Q 1072 3584 1716 3584 
Q 2034 3584 2315 3537 
Q 2597 3491 2834 3397 
z
" transform="scale(0.015625)"/>
      <path id="DejaVuSans-65" d="M 3597 1894 
L 3597 1613 
L 953 1613 
Q 991 1019 1311 708 
Q 1631 397 2203 397 
Q 2534 397 2845 478 
Q 3156 559 3463 722 
L 3463 178 
Q 3153 47 2828 -22 
Q 2503 -91 2169 -91 
Q 1331 -91 842 396 
Q 353 884 353 1716 
Q 353 2575 817 3079 
Q 1281 3584 2069 3584 
Q 2775 3584 3186 3129 
Q 3597 2675 3597 1894 
z
M 3022 2063 
Q 3016 2534 2758 2815 
Q 2500 3097 2075 3097 
Q 1594 3097 1305 2825 
Q 1016 2553 972 2059 
L 3022 2063 
z
" transform="scale(0.015625)"/>
      <path id="DejaVuSans-20" transform="scale(0.015625)"/>
      <path id="DejaVuSans-3d" d="M 678 2906 
L 4684 2906 
L 4684 2381 
L 678 2381 
L 678 2906 
z
M 678 1631 
L 4684 1631 
L 4684 1100 
L 678 1100 
L 678 1631 
z
" transform="scale(0.015625)"/>
      <path id="DejaVuSans-49" d="M 628 4666 
L 1259 4666 
L 1259 0 
L 628 0 
L 628 4666 
z
" transform="scale(0.015625)"/>
     </defs>
     <use xlink:href="#DejaVuSans-64"/>
     <use xlink:href="#DejaVuSans-61" x="63.476562"/>
     <use xlink:href="#DejaVuSans-74" x="124.755859"/>
     <use xlink:href="#DejaVuSans-61" x="163.964844"/>
     <use xlink:href="#DejaVuSans-73" x="225.244141"/>
     <use xlink:href="#DejaVuSans-65" x="277.34375"/>
     <use xlink:href="#DejaVuSans-74" x="338.867188"/>
     <use xlink:href="#DejaVuSans-20" x="378.076172"/>
     <use xlink:href="#DejaVuSans-3d" x="409.863281"/>
     <use xlink:href="#DejaVuSans-20" x="493.652344"/>
     <use xlink:href="#DejaVuSans-49" x="525.439453"/>
    </g>
   </g>
  </g>
  <g id="axes_2">
   <g id="patch_5">
    <path d="M 381.6075 323.94375 
L 696.2295 323.94375 
L 696.2295 24.14175 
L 381.6075 24.14175 
z
" style="fill: #ffffff"/>
   </g>
   <g id="matplotlib.axis_3">
    <g id="xtick_9"/>
    <g id="xtick_10"/>
    <g id="xtick_11"/>
    <g id="xtick_12"/>
    <g id="xtick_13"/>
    <g id="xtick_14"/>
    <g id="xtick_15"/>
    <g id="xtick_16"/>
   </g>
   <g id="matplotlib.axis_4">
    <g id="ytick_6"/>
    <g id="ytick_7"/>
    <g id="ytick_8"/>
    <g id="ytick_9"/>
    <g id="ytick_10"/>
   </g>
   <g id="PathCollection_2">
    <g clip-path="url(#pb1b47b3b5c)">
     <use xlink:href="#m6abdcd7ac2" x="507.4563" y="139.550253" style="fill: #0d62a3; fill-opacity: 0.8; stroke: #0d62a3; stroke-opacity: 0.8"/>
     <use xlink:href="#m6abdcd7ac2" x="475.9941" y="167.822791" style="fill: #0d62a3; fill-opacity: 0.8; stroke: #0d62a3; stroke-opacity: 0.8"/>
     <use xlink:href="#m6abdcd7ac2" x="554.6496" y="150.859268" style="fill: #0d62a3; fill-opacity: 0.8; stroke: #0d62a3; stroke-opacity: 0.8"/>
     <use xlink:href="#m6abdcd7ac2" x="491.7252" y="150.011092" style="fill: #0d62a3; fill-opacity: 0.8; stroke: #0d62a3; stroke-opacity: 0.8"/>
     <use xlink:href="#m6abdcd7ac2" x="523.1874" y="136.157548" style="fill: #0d62a3; fill-opacity: 0.8; stroke: #0d62a3; stroke-opacity: 0.8"/>
     <use xlink:href="#m6abdcd7ac2" x="570.3807" y="168.953693" style="fill: #0d62a3; fill-opacity: 0.8; stroke: #0d62a3; stroke-opacity: 0.8"/>
     <use xlink:href="#m6abdcd7ac2" x="444.5319" y="224.650594" style="fill: #0d62a3; fill-opacity: 0.8; stroke: #0d62a3; stroke-opacity: 0.8"/>
     <use xlink:href="#m6abdcd7ac2" x="413.0697" y="310.316386" style="fill: #0d62a3; fill-opacity: 0.8; stroke: #0d62a3; stroke-opacity: 0.8"/>
     <use xlink:href="#m6abdcd7ac2" x="538.9185" y="139.832978" style="fill: #0d62a3; fill-opacity: 0.8; stroke: #0d62a3; stroke-opacity: 0.8"/>
     <use xlink:href="#m6abdcd7ac2" x="460.263" y="192.702626" style="fill: #0d62a3; fill-opacity: 0.8; stroke: #0d62a3; stroke-opacity: 0.8"/>
     <use xlink:href="#m6abdcd7ac2" x="428.8008" y="263.949423" style="fill: #0d62a3; fill-opacity: 0.8; stroke: #0d62a3; stroke-opacity: 0.8"/>
    </g>
   </g>
   <g id="line2d_2">
    <path d="M 413.0697 256.572861 
L 414.6587 255.144955 
L 416.2477 253.717049 
L 417.8367 252.289143 
L 419.4257 250.861237 
L 421.0147 249.433331 
L 422.6037 248.005425 
L 424.1927 246.577519 
L 425.7817 245.149613 
L 427.3707 243.721707 
L 428.9597 242.293801 
L 430.5487 240.865895 
L 432.1377 239.437989 
L 433.7267 238.010083 
L 435.3157 236.582177 
L 436.9047 235.154271 
L 438.4937 233.726365 
L 440.0827 232.298459 
L 441.6717 230.870553 
L 443.2607 229.442647 
L 444.8497 228.014741 
L 446.4387 226.586835 
L 448.0277 225.158929 
L 449.6167 223.731023 
L 451.2057 222.303117 
L 452.7947 220.875211 
L 454.3837 219.447305 
L 455.9727 218.019399 
L 457.5617 216.591493 
L 459.1507 215.163587 
L 460.7397 213.735681 
L 462.3287 212.307775 
L 463.9177 210.879869 
L 465.5067 209.451963 
L 467.0957 208.024057 
L 468.6847 206.596151 
L 470.2737 205.168245 
L 471.8627 203.740339 
L 473.4517 202.312433 
L 475.0407 200.884527 
L 476.6297 199.456621 
L 478.2187 198.028715 
L 479.8077 196.600809 
L 481.3967 195.172903 
L 482.9857 193.744997 
L 484.5747 192.317091 
L 486.1637 190.889185 
L 487.7527 189.461279 
L 489.3417 188.033373 
L 490.9307 186.605467 
L 492.5197 185.177561 
L 494.1087 183.749655 
L 495.6977 182.321749 
L 497.2867 180.893843 
L 498.8757 179.465937 
L 500.4647 178.038031 
L 502.0537 176.610125 
L 503.6427 175.182219 
L 505.2317 173.754313 
L 506.8207 172.326407 
L 508.4097 170.898501 
L 509.9987 169.470595 
L 511.5877 168.042689 
L 513.1767 166.614783 
L 514.7657 165.186877 
L 516.3547 163.758971 
L 517.9437 162.331065 
L 519.5327 160.903159 
L 521.1217 159.475253 
L 522.7107 158.047347 
L 524.2997 156.619441 
L 525.8887 155.191535 
L 527.4777 153.763629 
L 529.0667 152.335723 
L 530.6557 150.907817 
L 532.2447 149.479911 
L 533.8337 148.052005 
L 535.4227 146.624099 
L 537.0117 145.196193 
L 538.6007 143.768287 
L 540.1897 142.340381 
L 541.7787 140.912475 
L 543.3677 139.484569 
L 544.9567 138.056663 
L 546.5457 136.628757 
L 548.1347 135.200851 
L 549.7237 133.772945 
L 551.3127 132.345039 
L 552.9017 130.917133 
L 554.4907 129.489227 
L 556.0797 128.061321 
L 557.6687 126.633415 
L 559.2577 125.205509 
L 560.8467 123.777603 
L 562.4357 122.349697 
L 564.0247 120.921791 
L 565.6137 119.493885 
L 567.2027 118.065979 
L 568.7917 116.638073 
L 570.3807 115.210167 
" clip-path="url(#pb1b47b3b5c)" style="fill: none; stroke: #a30905; stroke-opacity: 0.5; stroke-width: 5; stroke-linecap: round"/>
   </g>
   <g id="patch_6">
    <path d="M 381.6075 323.94375 
L 381.6075 24.14175 
" style="fill: none; stroke: #262626; stroke-width: 1.25; stroke-linejoin: miter; stroke-linecap: square"/>
   </g>
   <g id="patch_7">
    <path d="M 381.6075 323.94375 
L 696.2295 323.94375 
" style="fill: none; stroke: #262626; stroke-width: 1.25; stroke-linejoin: miter; stroke-linecap: square"/>
   </g>
   <g id="text_8">
    <!-- dataset = II -->
    <g style="fill: #262626" transform="translate(496.839 18.14175) scale(0.144 -0.144)">
     <use xlink:href="#DejaVuSans-64"/>
     <use xlink:href="#DejaVuSans-61" x="63.476562"/>
     <use xlink:href="#DejaVuSans-74" x="124.755859"/>
     <use xlink:href="#DejaVuSans-61" x="163.964844"/>
     <use xlink:href="#DejaVuSans-73" x="225.244141"/>
     <use xlink:href="#DejaVuSans-65" x="277.34375"/>
     <use xlink:href="#DejaVuSans-74" x="338.867188"/>
     <use xlink:href="#DejaVuSans-20" x="378.076172"/>
     <use xlink:href="#DejaVuSans-3d" x="409.863281"/>
     <use xlink:href="#DejaVuSans-20" x="493.652344"/>
     <use xlink:href="#DejaVuSans-49" x="525.439453"/>
     <use xlink:href="#DejaVuSans-49" x="554.931641"/>
    </g>
   </g>
  </g>
  <g id="axes_3">
   <g id="patch_8">
    <path d="M 51.4335 656.09775 
L 366.0555 656.09775 
L 366.0555 356.29575 
L 51.4335 356.29575 
z
" style="fill: #ffffff"/>
   </g>
   <g id="matplotlib.axis_5">
    <g id="xtick_17">
     <g id="text_9">
      <!-- 2.5 -->
      <g style="fill: #262626" transform="translate(48.802988 675.627687) scale(0.132 -0.132)">
       <defs>
        <path id="DejaVuSans-2e" d="M 684 794 
L 1344 794 
L 1344 0 
L 684 0 
L 684 794 
z
" transform="scale(0.015625)"/>
        <path id="DejaVuSans-35" d="M 691 4666 
L 3169 4666 
L 3169 4134 
L 1269 4134 
L 1269 2991 
Q 1406 3038 1543 3061 
Q 1681 3084 1819 3084 
Q 2600 3084 3056 2656 
Q 3513 2228 3513 1497 
Q 3513 744 3044 326 
Q 2575 -91 1722 -91 
Q 1428 -91 1123 -41 
Q 819 9 494 109 
L 494 744 
Q 775 591 1075 516 
Q 1375 441 1709 441 
Q 2250 441 2565 725 
Q 2881 1009 2881 1497 
Q 2881 1984 2565 2268 
Q 2250 2553 1709 2553 
Q 1456 2553 1204 2497 
Q 953 2441 691 2322 
L 691 4666 
z
" transform="scale(0.015625)"/>
       </defs>
       <use xlink:href="#DejaVuSans-32"/>
       <use xlink:href="#DejaVuSans-2e" x="63.623047"/>
       <use xlink:href="#DejaVuSans-35" x="95.410156"/>
      </g>
     </g>
    </g>
    <g id="xtick_18">
     <g id="text_10">
      <!-- 5.0 -->
      <g style="fill: #262626" transform="translate(88.130738 675.627687) scale(0.132 -0.132)">
       <use xlink:href="#DejaVuSans-35"/>
       <use xlink:href="#DejaVuSans-2e" x="63.623047"/>
       <use xlink:href="#DejaVuSans-30" x="95.410156"/>
      </g>
     </g>
    </g>
    <g id="xtick_19">
     <g id="text_11">
      <!-- 7.5 -->
      <g style="fill: #262626" transform="translate(127.458488 675.627687) scale(0.132 -0.132)">
       <defs>
        <path id="DejaVuSans-37" d="M 525 4666 
L 3525 4666 
L 3525 4397 
L 1831 0 
L 1172 0 
L 2766 4134 
L 525 4134 
L 525 4666 
z
" transform="scale(0.015625)"/>
       </defs>
       <use xlink:href="#DejaVuSans-37"/>
       <use xlink:href="#DejaVuSans-2e" x="63.623047"/>
       <use xlink:href="#DejaVuSans-35" x="95.410156"/>
      </g>
     </g>
    </g>
    <g id="xtick_20">
     <g id="text_12">
      <!-- 10.0 -->
      <g style="fill: #262626" transform="translate(162.586988 675.627687) scale(0.132 -0.132)">
       <use xlink:href="#DejaVuSans-31"/>
       <use xlink:href="#DejaVuSans-30" x="63.623047"/>
       <use xlink:href="#DejaVuSans-2e" x="127.246094"/>
       <use xlink:href="#DejaVuSans-30" x="159.033203"/>
      </g>
     </g>
    </g>
    <g id="xtick_21">
     <g id="text_13">
      <!-- 12.5 -->
      <g style="fill: #262626" transform="translate(201.914738 675.627687) scale(0.132 -0.132)">
       <use xlink:href="#DejaVuSans-31"/>
       <use xlink:href="#DejaVuSans-32" x="63.623047"/>
       <use xlink:href="#DejaVuSans-2e" x="127.246094"/>
       <use xlink:href="#DejaVuSans-35" x="159.033203"/>
      </g>
     </g>
    </g>
    <g id="xtick_22">
     <g id="text_14">
      <!-- 15.0 -->
      <g style="fill: #262626" transform="translate(241.242488 675.627687) scale(0.132 -0.132)">
       <use xlink:href="#DejaVuSans-31"/>
       <use xlink:href="#DejaVuSans-35" x="63.623047"/>
       <use xlink:href="#DejaVuSans-2e" x="127.246094"/>
       <use xlink:href="#DejaVuSans-30" x="159.033203"/>
      </g>
     </g>
    </g>
    <g id="xtick_23">
     <g id="text_15">
      <!-- 17.5 -->
      <g style="fill: #262626" transform="translate(280.570238 675.627687) scale(0.132 -0.132)">
       <use xlink:href="#DejaVuSans-31"/>
       <use xlink:href="#DejaVuSans-37" x="63.623047"/>
       <use xlink:href="#DejaVuSans-2e" x="127.246094"/>
       <use xlink:href="#DejaVuSans-35" x="159.033203"/>
      </g>
     </g>
    </g>
    <g id="xtick_24">
     <g id="text_16">
      <!-- 20.0 -->
      <g style="fill: #262626" transform="translate(319.897987 675.627687) scale(0.132 -0.132)">
       <use xlink:href="#DejaVuSans-32"/>
       <use xlink:href="#DejaVuSans-30" x="63.623047"/>
       <use xlink:href="#DejaVuSans-2e" x="127.246094"/>
       <use xlink:href="#DejaVuSans-30" x="159.033203"/>
      </g>
     </g>
    </g>
    <g id="text_17">
     <!-- x -->
     <g style="fill: #262626" transform="translate(204.483 693.314625) scale(0.144 -0.144)">
      <defs>
       <path id="DejaVuSans-78" d="M 3513 3500 
L 2247 1797 
L 3578 0 
L 2900 0 
L 1881 1375 
L 863 0 
L 184 0 
L 1544 1831 
L 300 3500 
L 978 3500 
L 1906 2253 
L 2834 3500 
L 3513 3500 
z
" transform="scale(0.015625)"/>
      </defs>
      <use xlink:href="#DejaVuSans-78"/>
     </g>
    </g>
   </g>
   <g id="matplotlib.axis_6">
    <g id="ytick_11">
     <g id="text_18">
      <!-- 4 -->
      <g style="fill: #262626" transform="translate(33.535 622.04007) scale(0.132 -0.132)">
       <use xlink:href="#DejaVuSans-34"/>
      </g>
     </g>
    </g>
    <g id="ytick_12">
     <g id="text_19">
      <!-- 6 -->
      <g style="fill: #262626" transform="translate(33.535 565.494993) scale(0.132 -0.132)">
       <use xlink:href="#DejaVuSans-36"/>
      </g>
     </g>
    </g>
    <g id="ytick_13">
     <g id="text_20">
      <!-- 8 -->
      <g style="fill: #262626" transform="translate(33.535 508.949916) scale(0.132 -0.132)">
       <use xlink:href="#DejaVuSans-38"/>
      </g>
     </g>
    </g>
    <g id="ytick_14">
     <g id="text_21">
      <!-- 10 -->
      <g style="fill: #262626" transform="translate(25.1365 452.404838) scale(0.132 -0.132)">
       <use xlink:href="#DejaVuSans-31"/>
       <use xlink:href="#DejaVuSans-30" x="63.623047"/>
      </g>
     </g>
    </g>
    <g id="ytick_15">
     <g id="text_22">
      <!-- 12 -->
      <g style="fill: #262626" transform="translate(25.1365 395.859761) scale(0.132 -0.132)">
       <use xlink:href="#DejaVuSans-31"/>
       <use xlink:href="#DejaVuSans-32" x="63.623047"/>
      </g>
     </g>
    </g>
    <g id="text_23">
     <!-- y -->
     <g style="fill: #262626" transform="translate(18.14175 510.45825) rotate(-90) scale(0.144 -0.144)">
      <use xlink:href="#DejaVuSans-79"/>
     </g>
    </g>
   </g>
   <g id="PathCollection_3">
    <g clip-path="url(#pbf93766fcd)">
     <use xlink:href="#m6abdcd7ac2" x="177.2823" y="519.202118" style="fill: #0d62a3; fill-opacity: 0.8; stroke: #0d62a3; stroke-opacity: 0.8"/>
     <use xlink:href="#m6abdcd7ac2" x="145.8201" y="538.710169" style="fill: #0d62a3; fill-opacity: 0.8; stroke: #0d62a3; stroke-opacity: 0.8"/>
     <use xlink:href="#m6abdcd7ac2" x="224.4756" y="369.923114" style="fill: #0d62a3; fill-opacity: 0.8; stroke: #0d62a3; stroke-opacity: 0.8"/>
     <use xlink:href="#m6abdcd7ac2" x="161.5512" y="529.097506" style="fill: #0d62a3; fill-opacity: 0.8; stroke: #0d62a3; stroke-opacity: 0.8"/>
     <use xlink:href="#m6abdcd7ac2" x="193.0134" y="509.306729" style="fill: #0d62a3; fill-opacity: 0.8; stroke: #0d62a3; stroke-opacity: 0.8"/>
     <use xlink:href="#m6abdcd7ac2" x="240.2067" y="480.186014" style="fill: #0d62a3; fill-opacity: 0.8; stroke: #0d62a3; stroke-opacity: 0.8"/>
     <use xlink:href="#m6abdcd7ac2" x="114.3579" y="558.218221" style="fill: #0d62a3; fill-opacity: 0.8; stroke: #0d62a3; stroke-opacity: 0.8"/>
     <use xlink:href="#m6abdcd7ac2" x="82.8957" y="577.726273" style="fill: #0d62a3; fill-opacity: 0.8; stroke: #0d62a3; stroke-opacity: 0.8"/>
     <use xlink:href="#m6abdcd7ac2" x="208.7445" y="499.694066" style="fill: #0d62a3; fill-opacity: 0.8; stroke: #0d62a3; stroke-opacity: 0.8"/>
     <use xlink:href="#m6abdcd7ac2" x="130.089" y="548.605558" style="fill: #0d62a3; fill-opacity: 0.8; stroke: #0d62a3; stroke-opacity: 0.8"/>
     <use xlink:href="#m6abdcd7ac2" x="98.6268" y="568.11361" style="fill: #0d62a3; fill-opacity: 0.8; stroke: #0d62a3; stroke-opacity: 0.8"/>
    </g>
   </g>
   <g id="line2d_3">
    <path d="M 82.8957 588.714009 
L 84.4847 587.286882 
L 86.0737 585.859755 
L 87.6627 584.432628 
L 89.2517 583.005501 
L 90.8407 581.578374 
L 92.4297 580.151247 
L 94.0187 578.724119 
L 95.6077 577.296992 
L 97.1967 575.869865 
L 98.7857 574.442738 
L 100.3747 573.015611 
L 101.9637 571.588484 
L 103.5527 570.161357 
L 105.1417 568.73423 
L 106.7307 567.307102 
L 108.3197 565.879975 
L 109.9087 564.452848 
L 111.4977 563.025721 
L 113.0867 561.598594 
L 114.6757 560.171467 
L 116.2647 558.74434 
L 117.8537 557.317212 
L 119.4427 555.890085 
L 121.0317 554.462958 
L 122.6207 553.035831 
L 124.2097 551.608704 
L 125.7987 550.181577 
L 127.3877 548.75445 
L 128.9767 547.327323 
L 130.5657 545.900195 
L 132.1547 544.473068 
L 133.7437 543.045941 
L 135.3327 541.618814 
L 136.9217 540.191687 
L 138.5107 538.76456 
L 140.0997 537.337433 
L 141.6887 535.910305 
L 143.2777 534.483178 
L 144.8667 533.056051 
L 146.4557 531.628924 
L 148.0447 530.201797 
L 149.6337 528.77467 
L 151.2227 527.347543 
L 152.8117 525.920415 
L 154.4007 524.493288 
L 155.9897 523.066161 
L 157.5787 521.639034 
L 159.1677 520.211907 
L 160.7567 518.78478 
L 162.3457 517.357653 
L 163.9347 515.930526 
L 165.5237 514.503398 
L 167.1127 513.076271 
L 168.7017 511.649144 
L 170.2907 510.222017 
L 171.8797 508.79489 
L 173.4687 507.367763 
L 175.0577 505.940636 
L 176.6467 504.513508 
L 178.2357 503.086381 
L 179.8247 501.659254 
L 181.4137 500.232127 
L 183.0027 498.805 
L 184.5917 497.377873 
L 186.1807 495.950746 
L 187.7697 494.523619 
L 189.3587 493.096491 
L 190.9477 491.669364 
L 192.5367 490.242237 
L 194.1257 488.81511 
L 195.7147 487.387983 
L 197.3037 485.960856 
L 198.8927 484.533729 
L 200.4817 483.106601 
L 202.0707 481.679474 
L 203.6597 480.252347 
L 205.2487 478.82522 
L 206.8377 477.398093 
L 208.4267 475.970966 
L 210.0157 474.543839 
L 211.6047 473.116711 
L 213.1937 471.689584 
L 214.7827 470.262457 
L 216.3717 468.83533 
L 217.9607 467.408203 
L 219.5497 465.981076 
L 221.1387 464.553949 
L 222.7277 463.126822 
L 224.3167 461.699694 
L 225.9057 460.272567 
L 227.4947 458.84544 
L 229.0837 457.418313 
L 230.6727 455.991186 
L 232.2617 454.564059 
L 233.8507 453.136932 
L 235.4397 451.709804 
L 237.0287 450.282677 
L 238.6177 448.85555 
L 240.2067 447.428423 
" clip-path="url(#pbf93766fcd)" style="fill: none; stroke: #a30905; stroke-opacity: 0.5; stroke-width: 5; stroke-linecap: round"/>
   </g>
   <g id="patch_9">
    <path d="M 51.4335 656.09775 
L 51.4335 356.29575 
" style="fill: none; stroke: #262626; stroke-width: 1.25; stroke-linejoin: miter; stroke-linecap: square"/>
   </g>
   <g id="patch_10">
    <path d="M 51.4335 656.09775 
L 366.0555 656.09775 
" style="fill: none; stroke: #262626; stroke-width: 1.25; stroke-linejoin: miter; stroke-linecap: square"/>
   </g>
   <g id="text_24">
    <!-- dataset = III -->
    <g style="fill: #262626" transform="translate(164.541 350.29575) scale(0.144 -0.144)">
     <use xlink:href="#DejaVuSans-64"/>
     <use xlink:href="#DejaVuSans-61" x="63.476562"/>
     <use xlink:href="#DejaVuSans-74" x="124.755859"/>
     <use xlink:href="#DejaVuSans-61" x="163.964844"/>
     <use xlink:href="#DejaVuSans-73" x="225.244141"/>
     <use xlink:href="#DejaVuSans-65" x="277.34375"/>
     <use xlink:href="#DejaVuSans-74" x="338.867188"/>
     <use xlink:href="#DejaVuSans-20" x="378.076172"/>
     <use xlink:href="#DejaVuSans-3d" x="409.863281"/>
     <use xlink:href="#DejaVuSans-20" x="493.652344"/>
     <use xlink:href="#DejaVuSans-49" x="525.439453"/>
     <use xlink:href="#DejaVuSans-49" x="554.931641"/>
     <use xlink:href="#DejaVuSans-49" x="584.423828"/>
    </g>
   </g>
  </g>
  <g id="axes_4">
   <g id="patch_11">
    <path d="M 381.6075 656.09775 
L 696.2295 656.09775 
L 696.2295 356.29575 
L 381.6075 356.29575 
z
" style="fill: #ffffff"/>
   </g>
   <g id="matplotlib.axis_7">
    <g id="xtick_25">
     <g id="text_25">
      <!-- 2.5 -->
      <g style="fill: #262626" transform="translate(378.976988 675.627687) scale(0.132 -0.132)">
       <use xlink:href="#DejaVuSans-32"/>
       <use xlink:href="#DejaVuSans-2e" x="63.623047"/>
       <use xlink:href="#DejaVuSans-35" x="95.410156"/>
      </g>
     </g>
    </g>
    <g id="xtick_26">
     <g id="text_26">
      <!-- 5.0 -->
      <g style="fill: #262626" transform="translate(418.304738 675.627687) scale(0.132 -0.132)">
       <use xlink:href="#DejaVuSans-35"/>
       <use xlink:href="#DejaVuSans-2e" x="63.623047"/>
       <use xlink:href="#DejaVuSans-30" x="95.410156"/>
      </g>
     </g>
    </g>
    <g id="xtick_27">
     <g id="text_27">
      <!-- 7.5 -->
      <g style="fill: #262626" transform="translate(457.632488 675.627687) scale(0.132 -0.132)">
       <use xlink:href="#DejaVuSans-37"/>
       <use xlink:href="#DejaVuSans-2e" x="63.623047"/>
       <use xlink:href="#DejaVuSans-35" x="95.410156"/>
      </g>
     </g>
    </g>
    <g id="xtick_28">
     <g id="text_28">
      <!-- 10.0 -->
      <g style="fill: #262626" transform="translate(492.760988 675.627687) scale(0.132 -0.132)">
       <use xlink:href="#DejaVuSans-31"/>
       <use xlink:href="#DejaVuSans-30" x="63.623047"/>
       <use xlink:href="#DejaVuSans-2e" x="127.246094"/>
       <use xlink:href="#DejaVuSans-30" x="159.033203"/>
      </g>
     </g>
    </g>
    <g id="xtick_29">
     <g id="text_29">
      <!-- 12.5 -->
      <g style="fill: #262626" transform="translate(532.088737 675.627687) scale(0.132 -0.132)">
       <use xlink:href="#DejaVuSans-31"/>
       <use xlink:href="#DejaVuSans-32" x="63.623047"/>
       <use xlink:href="#DejaVuSans-2e" x="127.246094"/>
       <use xlink:href="#DejaVuSans-35" x="159.033203"/>
      </g>
     </g>
    </g>
    <g id="xtick_30">
     <g id="text_30">
      <!-- 15.0 -->
      <g style="fill: #262626" transform="translate(571.416488 675.627687) scale(0.132 -0.132)">
       <use xlink:href="#DejaVuSans-31"/>
       <use xlink:href="#DejaVuSans-35" x="63.623047"/>
       <use xlink:href="#DejaVuSans-2e" x="127.246094"/>
       <use xlink:href="#DejaVuSans-30" x="159.033203"/>
      </g>
     </g>
    </g>
    <g id="xtick_31">
     <g id="text_31">
      <!-- 17.5 -->
      <g style="fill: #262626" transform="translate(610.744238 675.627687) scale(0.132 -0.132)">
       <use xlink:href="#DejaVuSans-31"/>
       <use xlink:href="#DejaVuSans-37" x="63.623047"/>
       <use xlink:href="#DejaVuSans-2e" x="127.246094"/>
       <use xlink:href="#DejaVuSans-35" x="159.033203"/>
      </g>
     </g>
    </g>
    <g id="xtick_32">
     <g id="text_32">
      <!-- 20.0 -->
      <g style="fill: #262626" transform="translate(650.071987 675.627687) scale(0.132 -0.132)">
       <use xlink:href="#DejaVuSans-32"/>
       <use xlink:href="#DejaVuSans-30" x="63.623047"/>
       <use xlink:href="#DejaVuSans-2e" x="127.246094"/>
       <use xlink:href="#DejaVuSans-30" x="159.033203"/>
      </g>
     </g>
    </g>
    <g id="text_33">
     <!-- x -->
     <g style="fill: #262626" transform="translate(534.657 693.314625) scale(0.144 -0.144)">
      <use xlink:href="#DejaVuSans-78"/>
     </g>
    </g>
   </g>
   <g id="matplotlib.axis_8">
    <g id="ytick_16"/>
    <g id="ytick_17"/>
    <g id="ytick_18"/>
    <g id="ytick_19"/>
    <g id="ytick_20"/>
   </g>
   <g id="PathCollection_4">
    <g clip-path="url(#p0b8c896a7f)">
     <use xlink:href="#m6abdcd7ac2" x="475.9941" y="544.081952" style="fill: #0d62a3; fill-opacity: 0.8; stroke: #0d62a3; stroke-opacity: 0.8"/>
     <use xlink:href="#m6abdcd7ac2" x="475.9941" y="567.265434" style="fill: #0d62a3; fill-opacity: 0.8; stroke: #0d62a3; stroke-opacity: 0.8"/>
     <use xlink:href="#m6abdcd7ac2" x="475.9941" y="512.133983" style="fill: #0d62a3; fill-opacity: 0.8; stroke: #0d62a3; stroke-opacity: 0.8"/>
     <use xlink:href="#m6abdcd7ac2" x="475.9941" y="480.186014" style="fill: #0d62a3; fill-opacity: 0.8; stroke: #0d62a3; stroke-opacity: 0.8"/>
     <use xlink:href="#m6abdcd7ac2" x="475.9941" y="490.646854" style="fill: #0d62a3; fill-opacity: 0.8; stroke: #0d62a3; stroke-opacity: 0.8"/>
     <use xlink:href="#m6abdcd7ac2" x="475.9941" y="531.076584" style="fill: #0d62a3; fill-opacity: 0.8; stroke: #0d62a3; stroke-opacity: 0.8"/>
     <use xlink:href="#m6abdcd7ac2" x="475.9941" y="581.684428" style="fill: #0d62a3; fill-opacity: 0.8; stroke: #0d62a3; stroke-opacity: 0.8"/>
     <use xlink:href="#m6abdcd7ac2" x="649.0362" y="376.708523" style="fill: #0d62a3; fill-opacity: 0.8; stroke: #0d62a3; stroke-opacity: 0.8"/>
     <use xlink:href="#m6abdcd7ac2" x="475.9941" y="572.919941" style="fill: #0d62a3; fill-opacity: 0.8; stroke: #0d62a3; stroke-opacity: 0.8"/>
     <use xlink:href="#m6abdcd7ac2" x="475.9941" y="506.479475" style="fill: #0d62a3; fill-opacity: 0.8; stroke: #0d62a3; stroke-opacity: 0.8"/>
     <use xlink:href="#m6abdcd7ac2" x="475.9941" y="535.317465" style="fill: #0d62a3; fill-opacity: 0.8; stroke: #0d62a3; stroke-opacity: 0.8"/>
    </g>
   </g>
   <g id="line2d_4">
    <path d="M 475.9941 532.179213 
L 477.742 530.608802 
L 479.4899 529.038391 
L 481.2378 527.46798 
L 482.9857 525.897569 
L 484.7336 524.327158 
L 486.4815 522.756747 
L 488.2294 521.186336 
L 489.9773 519.615925 
L 491.7252 518.045514 
L 493.4731 516.475103 
L 495.221 514.904692 
L 496.9689 513.334281 
L 498.7168 511.76387 
L 500.4647 510.193459 
L 502.2126 508.623048 
L 503.9605 507.052637 
L 505.7084 505.482226 
L 507.4563 503.911815 
L 509.2042 502.341404 
L 510.9521 500.770993 
L 512.7 499.200582 
L 514.4479 497.630171 
L 516.1958 496.05976 
L 517.9437 494.489349 
L 519.6916 492.918938 
L 521.4395 491.348527 
L 523.1874 489.778116 
L 524.9353 488.207705 
L 526.6832 486.637294 
L 528.4311 485.066883 
L 530.179 483.496472 
L 531.9269 481.926061 
L 533.6748 480.35565 
L 535.4227 478.785239 
L 537.1706 477.214828 
L 538.9185 475.644417 
L 540.6664 474.074006 
L 542.4143 472.503595 
L 544.1622 470.933184 
L 545.9101 469.362773 
L 547.658 467.792362 
L 549.4059 466.221951 
L 551.1538 464.65154 
L 552.9017 463.081129 
L 554.6496 461.510718 
L 556.3975 459.940307 
L 558.1454 458.369896 
L 559.8933 456.799484 
L 561.6412 455.229073 
L 563.3891 453.658662 
L 565.137 452.088251 
L 566.8849 450.51784 
L 568.6328 448.947429 
L 570.3807 447.377018 
L 572.1286 445.806607 
L 573.8765 444.236196 
L 575.6244 442.665785 
L 577.3723 441.095374 
L 579.1202 439.524963 
L 580.8681 437.954552 
L 582.616 436.384141 
L 584.3639 434.81373 
L 586.1118 433.243319 
L 587.8597 431.672908 
L 589.6076 430.102497 
L 591.3555 428.532086 
L 593.1034 426.961675 
L 594.8513 425.391264 
L 596.5992 423.820853 
L 598.3471 422.250442 
L 600.095 420.680031 
L 601.8429 419.10962 
L 603.5908 417.539209 
L 605.3387 415.968798 
L 607.0866 414.398387 
L 608.8345 412.827976 
L 610.5824 411.257565 
L 612.3303 409.687154 
L 614.0782 408.116743 
L 615.8261 406.546332 
L 617.574 404.975921 
L 619.3219 403.40551 
L 621.0698 401.835099 
L 622.8177 400.264688 
L 624.5656 398.694277 
L 626.3135 397.123866 
L 628.0614 395.553455 
L 629.8093 393.983044 
L 631.5572 392.412633 
L 633.3051 390.842222 
L 635.053 389.271811 
L 636.8009 387.7014 
L 638.5488 386.130989 
L 640.2967 384.560578 
L 642.0446 382.990167 
L 643.7925 381.419756 
L 645.5404 379.849345 
L 647.2883 378.278934 
L 649.0362 376.708523 
" clip-path="url(#p0b8c896a7f)" style="fill: none; stroke: #a30905; stroke-opacity: 0.5; stroke-width: 5; stroke-linecap: round"/>
   </g>
   <g id="patch_12">
    <path d="M 381.6075 656.09775 
L 381.6075 356.29575 
" style="fill: none; stroke: #262626; stroke-width: 1.25; stroke-linejoin: miter; stroke-linecap: square"/>
   </g>
   <g id="patch_13">
    <path d="M 381.6075 656.09775 
L 696.2295 656.09775 
" style="fill: none; stroke: #262626; stroke-width: 1.25; stroke-linejoin: miter; stroke-linecap: square"/>
   </g>
   <g id="text_34">
    <!-- dataset = IV -->
    <g style="fill: #262626" transform="translate(494.03775 350.29575) scale(0.144 -0.144)">
     <defs>
      <path id="DejaVuSans-56" d="M 1831 0 
L 50 4666 
L 709 4666 
L 2188 738 
L 3669 4666 
L 4325 4666 
L 2547 0 
L 1831 0 
z
" transform="scale(0.015625)"/>
     </defs>
     <use xlink:href="#DejaVuSans-64"/>
     <use xlink:href="#DejaVuSans-61" x="63.476562"/>
     <use xlink:href="#DejaVuSans-74" x="124.755859"/>
     <use xlink:href="#DejaVuSans-61" x="163.964844"/>
     <use xlink:href="#DejaVuSans-73" x="225.244141"/>
     <use xlink:href="#DejaVuSans-65" x="277.34375"/>
     <use xlink:href="#DejaVuSans-74" x="338.867188"/>
     <use xlink:href="#DejaVuSans-20" x="378.076172"/>
     <use xlink:href="#DejaVuSans-3d" x="409.863281"/>
     <use xlink:href="#DejaVuSans-20" x="493.652344"/>
     <use xlink:href="#DejaVuSans-49" x="525.439453"/>
     <use xlink:href="#DejaVuSans-56" x="554.931641"/>
    </g>
   </g>
  </g>
 </g>
 <defs>
  <clipPath id="p2630631c62">
   <rect x="51.4335" y="24.14175" width="314.622" height="299.802"/>
  </clipPath>
  <clipPath id="pb1b47b3b5c">
   <rect x="381.6075" y="24.14175" width="314.622" height="299.802"/>
  </clipPath>
  <clipPath id="pbf93766fcd">
   <rect x="51.4335" y="356.29575" width="314.622" height="299.802"/>
  </clipPath>
  <clipPath id="p0b8c896a7f">
   <rect x="381.6075" y="356.29575" width="314.622" height="299.802"/>
  </clipPath>
 </defs>
</svg>
