<?xml version="1.0" encoding="utf-8" standalone="no"?>
<!DOCTYPE svg PUBLIC "-//W3C//DTD SVG 1.1//EN"
  "http://www.w3.org/Graphics/SVG/1.1/DTD/svg11.dtd">
<svg xmlns:xlink="http://www.w3.org/1999/xlink" width="454.679203pt" height="334.037594pt" viewBox="0 0 454.679203 334.037594" xmlns="http://www.w3.org/2000/svg" version="1.1">
 <metadata>
  <rdf:RDF xmlns:dc="http://purl.org/dc/elements/1.1/" xmlns:cc="http://creativecommons.org/ns#" xmlns:rdf="http://www.w3.org/1999/02/22-rdf-syntax-ns#">
   <cc:Work>
    <dc:type rdf:resource="http://purl.org/dc/dcmitype/StillImage"/>
    <dc:date>2023-05-31T15:20:53.180719</dc:date>
    <dc:format>image/svg+xml</dc:format>
    <dc:creator>
     <cc:Agent>
      <dc:title>Matplotlib v3.7.1, https://matplotlib.org/</dc:title>
     </cc:Agent>
    </dc:creator>
   </cc:Work>
  </rdf:RDF>
 </metadata>
 <defs>
  <style type="text/css">*{stroke-linejoin: round; stroke-linecap: butt}</style>
 </defs>
 <g id="figure_1">
  <g id="patch_1">
   <path d="M 0 334.037594 
L 454.679203 334.037594 
L 454.679203 0 
L 0 0 
z
" style="fill: #ffffff"/>
  </g>
  <g id="axes_1">
   <g id="patch_2">
    <path d="M 56.879203 284.4 
L 447.479203 284.4 
L 447.479203 7.2 
L 56.879203 7.2 
z
" style="fill: #ffffff"/>
   </g>
   <g id="matplotlib.axis_1">
    <g id="xtick_1">
     <g id="text_1">
      <!-- urban -->
      <g style="fill: #262626" transform="translate(75.016516 304.765766) scale(0.143 -0.143)">
       <defs>
        <path id="DejaVuSans-75" d="M 544 1381 
L 544 3500 
L 1119 3500 
L 1119 1403 
Q 1119 906 1312 657 
Q 1506 409 1894 409 
Q 2359 409 2629 706 
Q 2900 1003 2900 1516 
L 2900 3500 
L 3475 3500 
L 3475 0 
L 2900 0 
L 2900 538 
Q 2691 219 2414 64 
Q 2138 -91 1772 -91 
Q 1169 -91 856 284 
Q 544 659 544 1381 
z
M 1991 3584 
L 1991 3584 
z
" transform="scale(0.015625)"/>
        <path id="DejaVuSans-72" d="M 2631 2963 
Q 2534 3019 2420 3045 
Q 2306 3072 2169 3072 
Q 1681 3072 1420 2755 
Q 1159 2438 1159 1844 
L 1159 0 
L 581 0 
L 581 3500 
L 1159 3500 
L 1159 2956 
Q 1341 3275 1631 3429 
Q 1922 3584 2338 3584 
Q 2397 3584 2469 3576 
Q 2541 3569 2628 3553 
L 2631 2963 
z
" transform="scale(0.015625)"/>
        <path id="DejaVuSans-62" d="M 3116 1747 
Q 3116 2381 2855 2742 
Q 2594 3103 2138 3103 
Q 1681 3103 1420 2742 
Q 1159 2381 1159 1747 
Q 1159 1113 1420 752 
Q 1681 391 2138 391 
Q 2594 391 2855 752 
Q 3116 1113 3116 1747 
z
M 1159 2969 
Q 1341 3281 1617 3432 
Q 1894 3584 2278 3584 
Q 2916 3584 3314 3078 
Q 3713 2572 3713 1747 
Q 3713 922 3314 415 
Q 2916 -91 2278 -91 
Q 1894 -91 1617 61 
Q 1341 213 1159 525 
L 1159 0 
L 581 0 
L 581 4863 
L 1159 4863 
L 1159 2969 
z
" transform="scale(0.015625)"/>
        <path id="DejaVuSans-61" d="M 2194 1759 
Q 1497 1759 1228 1600 
Q 959 1441 959 1056 
Q 959 750 1161 570 
Q 1363 391 1709 391 
Q 2188 391 2477 730 
Q 2766 1069 2766 1631 
L 2766 1759 
L 2194 1759 
z
M 3341 1997 
L 3341 0 
L 2766 0 
L 2766 531 
Q 2569 213 2275 61 
Q 1981 -91 1556 -91 
Q 1019 -91 701 211 
Q 384 513 384 1019 
Q 384 1609 779 1909 
Q 1175 2209 1959 2209 
L 2766 2209 
L 2766 2266 
Q 2766 2663 2505 2880 
Q 2244 3097 1772 3097 
Q 1472 3097 1187 3025 
Q 903 2953 641 2809 
L 641 3341 
Q 956 3463 1253 3523 
Q 1550 3584 1831 3584 
Q 2591 3584 2966 3190 
Q 3341 2797 3341 1997 
z
" transform="scale(0.015625)"/>
        <path id="DejaVuSans-6e" d="M 3513 2113 
L 3513 0 
L 2938 0 
L 2938 2094 
Q 2938 2591 2744 2837 
Q 2550 3084 2163 3084 
Q 1697 3084 1428 2787 
Q 1159 2491 1159 1978 
L 1159 0 
L 581 0 
L 581 3500 
L 1159 3500 
L 1159 2956 
Q 1366 3272 1645 3428 
Q 1925 3584 2291 3584 
Q 2894 3584 3203 3211 
Q 3513 2838 3513 2113 
z
" transform="scale(0.015625)"/>
       </defs>
       <use xlink:href="#DejaVuSans-75"/>
       <use xlink:href="#DejaVuSans-72" x="63.378906"/>
       <use xlink:href="#DejaVuSans-62" x="104.492188"/>
       <use xlink:href="#DejaVuSans-61" x="167.96875"/>
       <use xlink:href="#DejaVuSans-6e" x="229.248047"/>
      </g>
     </g>
    </g>
    <g id="xtick_2">
     <g id="text_2">
      <!-- marine -->
      <g style="fill: #262626" transform="translate(148.85657 304.765766) scale(0.143 -0.143)">
       <defs>
        <path id="DejaVuSans-6d" d="M 3328 2828 
Q 3544 3216 3844 3400 
Q 4144 3584 4550 3584 
Q 5097 3584 5394 3201 
Q 5691 2819 5691 2113 
L 5691 0 
L 5113 0 
L 5113 2094 
Q 5113 2597 4934 2840 
Q 4756 3084 4391 3084 
Q 3944 3084 3684 2787 
Q 3425 2491 3425 1978 
L 3425 0 
L 2847 0 
L 2847 2094 
Q 2847 2600 2669 2842 
Q 2491 3084 2119 3084 
Q 1678 3084 1418 2786 
Q 1159 2488 1159 1978 
L 1159 0 
L 581 0 
L 581 3500 
L 1159 3500 
L 1159 2956 
Q 1356 3278 1631 3431 
Q 1906 3584 2284 3584 
Q 2666 3584 2933 3390 
Q 3200 3197 3328 2828 
z
" transform="scale(0.015625)"/>
        <path id="DejaVuSans-69" d="M 603 3500 
L 1178 3500 
L 1178 0 
L 603 0 
L 603 3500 
z
M 603 4863 
L 1178 4863 
L 1178 4134 
L 603 4134 
L 603 4863 
z
" transform="scale(0.015625)"/>
        <path id="DejaVuSans-65" d="M 3597 1894 
L 3597 1613 
L 953 1613 
Q 991 1019 1311 708 
Q 1631 397 2203 397 
Q 2534 397 2845 478 
Q 3156 559 3463 722 
L 3463 178 
Q 3153 47 2828 -22 
Q 2503 -91 2169 -91 
Q 1331 -91 842 396 
Q 353 884 353 1716 
Q 353 2575 817 3079 
Q 1281 3584 2069 3584 
Q 2775 3584 3186 3129 
Q 3597 2675 3597 1894 
z
M 3022 2063 
Q 3016 2534 2758 2815 
Q 2500 3097 2075 3097 
Q 1594 3097 1305 2825 
Q 1016 2553 972 2059 
L 3022 2063 
z
" transform="scale(0.015625)"/>
       </defs>
       <use xlink:href="#DejaVuSans-6d"/>
       <use xlink:href="#DejaVuSans-61" x="97.412109"/>
       <use xlink:href="#DejaVuSans-72" x="158.691406"/>
       <use xlink:href="#DejaVuSans-69" x="199.804688"/>
       <use xlink:href="#DejaVuSans-6e" x="227.587891"/>
       <use xlink:href="#DejaVuSans-65" x="290.966797"/>
      </g>
     </g>
    </g>
    <g id="xtick_3">
     <g id="text_3">
      <!-- forest -->
      <g style="fill: #262626" transform="translate(231.581617 304.765766) scale(0.143 -0.143)">
       <defs>
        <path id="DejaVuSans-66" d="M 2375 4863 
L 2375 4384 
L 1825 4384 
Q 1516 4384 1395 4259 
Q 1275 4134 1275 3809 
L 1275 3500 
L 2222 3500 
L 2222 3053 
L 1275 3053 
L 1275 0 
L 697 0 
L 697 3053 
L 147 3053 
L 147 3500 
L 697 3500 
L 697 3744 
Q 697 4328 969 4595 
Q 1241 4863 1831 4863 
L 2375 4863 
z
" transform="scale(0.015625)"/>
        <path id="DejaVuSans-6f" d="M 1959 3097 
Q 1497 3097 1228 2736 
Q 959 2375 959 1747 
Q 959 1119 1226 758 
Q 1494 397 1959 397 
Q 2419 397 2687 759 
Q 2956 1122 2956 1747 
Q 2956 2369 2687 2733 
Q 2419 3097 1959 3097 
z
M 1959 3584 
Q 2709 3584 3137 3096 
Q 3566 2609 3566 1747 
Q 3566 888 3137 398 
Q 2709 -91 1959 -91 
Q 1206 -91 779 398 
Q 353 888 353 1747 
Q 353 2609 779 3096 
Q 1206 3584 1959 3584 
z
" transform="scale(0.015625)"/>
        <path id="DejaVuSans-73" d="M 2834 3397 
L 2834 2853 
Q 2591 2978 2328 3040 
Q 2066 3103 1784 3103 
Q 1356 3103 1142 2972 
Q 928 2841 928 2578 
Q 928 2378 1081 2264 
Q 1234 2150 1697 2047 
L 1894 2003 
Q 2506 1872 2764 1633 
Q 3022 1394 3022 966 
Q 3022 478 2636 193 
Q 2250 -91 1575 -91 
Q 1294 -91 989 -36 
Q 684 19 347 128 
L 347 722 
Q 666 556 975 473 
Q 1284 391 1588 391 
Q 1994 391 2212 530 
Q 2431 669 2431 922 
Q 2431 1156 2273 1281 
Q 2116 1406 1581 1522 
L 1381 1569 
Q 847 1681 609 1914 
Q 372 2147 372 2553 
Q 372 3047 722 3315 
Q 1072 3584 1716 3584 
Q 2034 3584 2315 3537 
Q 2597 3491 2834 3397 
z
" transform="scale(0.015625)"/>
        <path id="DejaVuSans-74" d="M 1172 4494 
L 1172 3500 
L 2356 3500 
L 2356 3053 
L 1172 3053 
L 1172 1153 
Q 1172 725 1289 603 
Q 1406 481 1766 481 
L 2356 481 
L 2356 0 
L 1766 0 
Q 1100 0 847 248 
Q 594 497 594 1153 
L 594 3053 
L 172 3053 
L 172 3500 
L 594 3500 
L 594 4494 
L 1172 4494 
z
" transform="scale(0.015625)"/>
       </defs>
       <use xlink:href="#DejaVuSans-66"/>
       <use xlink:href="#DejaVuSans-6f" x="35.205078"/>
       <use xlink:href="#DejaVuSans-72" x="96.386719"/>
       <use xlink:href="#DejaVuSans-65" x="135.25"/>
       <use xlink:href="#DejaVuSans-73" x="196.773438"/>
       <use xlink:href="#DejaVuSans-74" x="248.873047"/>
      </g>
     </g>
    </g>
    <g id="xtick_4">
     <g id="text_4">
      <!-- tundra -->
      <g style="fill: #262626" transform="translate(306.573492 304.765766) scale(0.143 -0.143)">
       <defs>
        <path id="DejaVuSans-64" d="M 2906 2969 
L 2906 4863 
L 3481 4863 
L 3481 0 
L 2906 0 
L 2906 525 
Q 2725 213 2448 61 
Q 2172 -91 1784 -91 
Q 1150 -91 751 415 
Q 353 922 353 1747 
Q 353 2572 751 3078 
Q 1150 3584 1784 3584 
Q 2172 3584 2448 3432 
Q 2725 3281 2906 2969 
z
M 947 1747 
Q 947 1113 1208 752 
Q 1469 391 1925 391 
Q 2381 391 2643 752 
Q 2906 1113 2906 1747 
Q 2906 2381 2643 2742 
Q 2381 3103 1925 3103 
Q 1469 3103 1208 2742 
Q 947 2381 947 1747 
z
" transform="scale(0.015625)"/>
       </defs>
       <use xlink:href="#DejaVuSans-74"/>
       <use xlink:href="#DejaVuSans-75" x="39.208984"/>
       <use xlink:href="#DejaVuSans-6e" x="102.587891"/>
       <use xlink:href="#DejaVuSans-64" x="165.966797"/>
       <use xlink:href="#DejaVuSans-72" x="229.443359"/>
       <use xlink:href="#DejaVuSans-61" x="270.556641"/>
      </g>
     </g>
    </g>
    <g id="xtick_5">
     <g id="text_5">
      <!-- desert -->
      <g style="fill: #262626" transform="translate(385.614055 304.765766) scale(0.143 -0.143)">
       <use xlink:href="#DejaVuSans-64"/>
       <use xlink:href="#DejaVuSans-65" x="63.476562"/>
       <use xlink:href="#DejaVuSans-73" x="125"/>
       <use xlink:href="#DejaVuSans-65" x="177.099609"/>
       <use xlink:href="#DejaVuSans-72" x="238.623047"/>
       <use xlink:href="#DejaVuSans-74" x="279.736328"/>
      </g>
     </g>
    </g>
    <g id="text_6">
     <!-- Biome -->
     <g style="fill: #262626" transform="translate(227.490984 323.593281) scale(0.156 -0.156)">
      <defs>
       <path id="DejaVuSans-42" d="M 1259 2228 
L 1259 519 
L 2272 519 
Q 2781 519 3026 730 
Q 3272 941 3272 1375 
Q 3272 1813 3026 2020 
Q 2781 2228 2272 2228 
L 1259 2228 
z
M 1259 4147 
L 1259 2741 
L 2194 2741 
Q 2656 2741 2882 2914 
Q 3109 3088 3109 3444 
Q 3109 3797 2882 3972 
Q 2656 4147 2194 4147 
L 1259 4147 
z
M 628 4666 
L 2241 4666 
Q 2963 4666 3353 4366 
Q 3744 4066 3744 3513 
Q 3744 3084 3544 2831 
Q 3344 2578 2956 2516 
Q 3422 2416 3680 2098 
Q 3938 1781 3938 1306 
Q 3938 681 3513 340 
Q 3088 0 2303 0 
L 628 0 
L 628 4666 
z
" transform="scale(0.015625)"/>
      </defs>
      <use xlink:href="#DejaVuSans-42"/>
      <use xlink:href="#DejaVuSans-69" x="68.603516"/>
      <use xlink:href="#DejaVuSans-6f" x="96.386719"/>
      <use xlink:href="#DejaVuSans-6d" x="157.568359"/>
      <use xlink:href="#DejaVuSans-65" x="254.980469"/>
     </g>
    </g>
   </g>
   <g id="matplotlib.axis_2">
    <g id="ytick_1">
     <g id="text_7">
      <!-- −2 -->
      <g style="fill: #262626" transform="translate(26.297875 289.149891) scale(0.143 -0.143)">
       <defs>
        <path id="DejaVuSans-2212" d="M 678 2272 
L 4684 2272 
L 4684 1741 
L 678 1741 
L 678 2272 
z
" transform="scale(0.015625)"/>
        <path id="DejaVuSans-32" d="M 1228 531 
L 3431 531 
L 3431 0 
L 469 0 
L 469 531 
Q 828 903 1448 1529 
Q 2069 2156 2228 2338 
Q 2531 2678 2651 2914 
Q 2772 3150 2772 3378 
Q 2772 3750 2511 3984 
Q 2250 4219 1831 4219 
Q 1534 4219 1204 4116 
Q 875 4013 500 3803 
L 500 4441 
Q 881 4594 1212 4672 
Q 1544 4750 1819 4750 
Q 2544 4750 2975 4387 
Q 3406 4025 3406 3419 
Q 3406 3131 3298 2873 
Q 3191 2616 2906 2266 
Q 2828 2175 2409 1742 
Q 1991 1309 1228 531 
z
" transform="scale(0.015625)"/>
       </defs>
       <use xlink:href="#DejaVuSans-2212"/>
       <use xlink:href="#DejaVuSans-32" x="83.789062"/>
      </g>
     </g>
    </g>
    <g id="ytick_2">
     <g id="text_8">
      <!-- 0 -->
      <g style="fill: #262626" transform="translate(38.280828 248.70127) scale(0.143 -0.143)">
       <defs>
        <path id="DejaVuSans-30" d="M 2034 4250 
Q 1547 4250 1301 3770 
Q 1056 3291 1056 2328 
Q 1056 1369 1301 889 
Q 1547 409 2034 409 
Q 2525 409 2770 889 
Q 3016 1369 3016 2328 
Q 3016 3291 2770 3770 
Q 2525 4250 2034 4250 
z
M 2034 4750 
Q 2819 4750 3233 4129 
Q 3647 3509 3647 2328 
Q 3647 1150 3233 529 
Q 2819 -91 2034 -91 
Q 1250 -91 836 529 
Q 422 1150 422 2328 
Q 422 3509 836 4129 
Q 1250 4750 2034 4750 
z
" transform="scale(0.015625)"/>
       </defs>
       <use xlink:href="#DejaVuSans-30"/>
      </g>
     </g>
    </g>
    <g id="ytick_3">
     <g id="text_9">
      <!-- 2 -->
      <g style="fill: #262626" transform="translate(38.280828 208.252649) scale(0.143 -0.143)">
       <use xlink:href="#DejaVuSans-32"/>
      </g>
     </g>
    </g>
    <g id="ytick_4">
     <g id="text_10">
      <!-- 4 -->
      <g style="fill: #262626" transform="translate(38.280828 167.804028) scale(0.143 -0.143)">
       <defs>
        <path id="DejaVuSans-34" d="M 2419 4116 
L 825 1625 
L 2419 1625 
L 2419 4116 
z
M 2253 4666 
L 3047 4666 
L 3047 1625 
L 3713 1625 
L 3713 1100 
L 3047 1100 
L 3047 0 
L 2419 0 
L 2419 1100 
L 313 1100 
L 313 1709 
L 2253 4666 
z
" transform="scale(0.015625)"/>
       </defs>
       <use xlink:href="#DejaVuSans-34"/>
      </g>
     </g>
    </g>
    <g id="ytick_5">
     <g id="text_11">
      <!-- 6 -->
      <g style="fill: #262626" transform="translate(38.280828 127.355407) scale(0.143 -0.143)">
       <defs>
        <path id="DejaVuSans-36" d="M 2113 2584 
Q 1688 2584 1439 2293 
Q 1191 2003 1191 1497 
Q 1191 994 1439 701 
Q 1688 409 2113 409 
Q 2538 409 2786 701 
Q 3034 994 3034 1497 
Q 3034 2003 2786 2293 
Q 2538 2584 2113 2584 
z
M 3366 4563 
L 3366 3988 
Q 3128 4100 2886 4159 
Q 2644 4219 2406 4219 
Q 1781 4219 1451 3797 
Q 1122 3375 1075 2522 
Q 1259 2794 1537 2939 
Q 1816 3084 2150 3084 
Q 2853 3084 3261 2657 
Q 3669 2231 3669 1497 
Q 3669 778 3244 343 
Q 2819 -91 2113 -91 
Q 1303 -91 875 529 
Q 447 1150 447 2328 
Q 447 3434 972 4092 
Q 1497 4750 2381 4750 
Q 2619 4750 2861 4703 
Q 3103 4656 3366 4563 
z
" transform="scale(0.015625)"/>
       </defs>
       <use xlink:href="#DejaVuSans-36"/>
      </g>
     </g>
    </g>
    <g id="ytick_6">
     <g id="text_12">
      <!-- 8 -->
      <g style="fill: #262626" transform="translate(38.280828 86.906786) scale(0.143 -0.143)">
       <defs>
        <path id="DejaVuSans-38" d="M 2034 2216 
Q 1584 2216 1326 1975 
Q 1069 1734 1069 1313 
Q 1069 891 1326 650 
Q 1584 409 2034 409 
Q 2484 409 2743 651 
Q 3003 894 3003 1313 
Q 3003 1734 2745 1975 
Q 2488 2216 2034 2216 
z
M 1403 2484 
Q 997 2584 770 2862 
Q 544 3141 544 3541 
Q 544 4100 942 4425 
Q 1341 4750 2034 4750 
Q 2731 4750 3128 4425 
Q 3525 4100 3525 3541 
Q 3525 3141 3298 2862 
Q 3072 2584 2669 2484 
Q 3125 2378 3379 2068 
Q 3634 1759 3634 1313 
Q 3634 634 3220 271 
Q 2806 -91 2034 -91 
Q 1263 -91 848 271 
Q 434 634 434 1313 
Q 434 1759 690 2068 
Q 947 2378 1403 2484 
z
M 1172 3481 
Q 1172 3119 1398 2916 
Q 1625 2713 2034 2713 
Q 2441 2713 2670 2916 
Q 2900 3119 2900 3481 
Q 2900 3844 2670 4047 
Q 2441 4250 2034 4250 
Q 1625 4250 1398 4047 
Q 1172 3844 1172 3481 
z
" transform="scale(0.015625)"/>
       </defs>
       <use xlink:href="#DejaVuSans-38"/>
      </g>
     </g>
    </g>
    <g id="ytick_7">
     <g id="text_13">
      <!-- 10 -->
      <g style="fill: #262626" transform="translate(29.182453 46.458164) scale(0.143 -0.143)">
       <defs>
        <path id="DejaVuSans-31" d="M 794 531 
L 1825 531 
L 1825 4091 
L 703 3866 
L 703 4441 
L 1819 4666 
L 2450 4666 
L 2450 531 
L 3481 531 
L 3481 0 
L 794 0 
L 794 531 
z
" transform="scale(0.015625)"/>
       </defs>
       <use xlink:href="#DejaVuSans-31"/>
       <use xlink:href="#DejaVuSans-30" x="63.623047"/>
      </g>
     </g>
    </g>
    <g id="text_14">
     <!-- Shannon diversity -->
     <g style="fill: #262626" transform="translate(19.053562 216.202313) rotate(-90) scale(0.156 -0.156)">
      <defs>
       <path id="DejaVuSans-53" d="M 3425 4513 
L 3425 3897 
Q 3066 4069 2747 4153 
Q 2428 4238 2131 4238 
Q 1616 4238 1336 4038 
Q 1056 3838 1056 3469 
Q 1056 3159 1242 3001 
Q 1428 2844 1947 2747 
L 2328 2669 
Q 3034 2534 3370 2195 
Q 3706 1856 3706 1288 
Q 3706 609 3251 259 
Q 2797 -91 1919 -91 
Q 1588 -91 1214 -16 
Q 841 59 441 206 
L 441 856 
Q 825 641 1194 531 
Q 1563 422 1919 422 
Q 2459 422 2753 634 
Q 3047 847 3047 1241 
Q 3047 1584 2836 1778 
Q 2625 1972 2144 2069 
L 1759 2144 
Q 1053 2284 737 2584 
Q 422 2884 422 3419 
Q 422 4038 858 4394 
Q 1294 4750 2059 4750 
Q 2388 4750 2728 4690 
Q 3069 4631 3425 4513 
z
" transform="scale(0.015625)"/>
       <path id="DejaVuSans-68" d="M 3513 2113 
L 3513 0 
L 2938 0 
L 2938 2094 
Q 2938 2591 2744 2837 
Q 2550 3084 2163 3084 
Q 1697 3084 1428 2787 
Q 1159 2491 1159 1978 
L 1159 0 
L 581 0 
L 581 4863 
L 1159 4863 
L 1159 2956 
Q 1366 3272 1645 3428 
Q 1925 3584 2291 3584 
Q 2894 3584 3203 3211 
Q 3513 2838 3513 2113 
z
" transform="scale(0.015625)"/>
       <path id="DejaVuSans-20" transform="scale(0.015625)"/>
       <path id="DejaVuSans-76" d="M 191 3500 
L 800 3500 
L 1894 563 
L 2988 3500 
L 3597 3500 
L 2284 0 
L 1503 0 
L 191 3500 
z
" transform="scale(0.015625)"/>
       <path id="DejaVuSans-79" d="M 2059 -325 
Q 1816 -950 1584 -1140 
Q 1353 -1331 966 -1331 
L 506 -1331 
L 506 -850 
L 844 -850 
Q 1081 -850 1212 -737 
Q 1344 -625 1503 -206 
L 1606 56 
L 191 3500 
L 800 3500 
L 1894 763 
L 2988 3500 
L 3597 3500 
L 2059 -325 
z
" transform="scale(0.015625)"/>
      </defs>
      <use xlink:href="#DejaVuSans-53"/>
      <use xlink:href="#DejaVuSans-68" x="63.476562"/>
      <use xlink:href="#DejaVuSans-61" x="126.855469"/>
      <use xlink:href="#DejaVuSans-6e" x="188.134766"/>
      <use xlink:href="#DejaVuSans-6e" x="251.513672"/>
      <use xlink:href="#DejaVuSans-6f" x="314.892578"/>
      <use xlink:href="#DejaVuSans-6e" x="376.074219"/>
      <use xlink:href="#DejaVuSans-20" x="439.453125"/>
      <use xlink:href="#DejaVuSans-64" x="471.240234"/>
      <use xlink:href="#DejaVuSans-69" x="534.716797"/>
      <use xlink:href="#DejaVuSans-76" x="562.5"/>
      <use xlink:href="#DejaVuSans-65" x="621.679688"/>
      <use xlink:href="#DejaVuSans-72" x="683.203125"/>
      <use xlink:href="#DejaVuSans-73" x="724.316406"/>
      <use xlink:href="#DejaVuSans-69" x="776.416016"/>
      <use xlink:href="#DejaVuSans-74" x="804.199219"/>
      <use xlink:href="#DejaVuSans-79" x="843.408203"/>
     </g>
    </g>
   </g>
   <g id="PolyCollection_1">
    <defs>
     <path id="md28e7f1904" d="M 96.098847 -62.237594 
L 95.779559 -62.237594 
L 95.714364 -64.783048 
L 95.632268 -67.328503 
L 95.533017 -69.873957 
L 95.418034 -72.419412 
L 95.290689 -74.964866 
L 95.156267 -77.510321 
L 95.021559 -80.055776 
L 94.894013 -82.60123 
L 94.780545 -85.146685 
L 94.686149 -87.692139 
L 94.612547 -90.237594 
L 94.557169 -92.783048 
L 94.512709 -95.328503 
L 94.467443 -97.873957 
L 94.406347 -100.419412 
L 94.312936 -102.964866 
L 94.171569 -105.510321 
L 93.969883 -108.055776 
L 93.700952 -110.60123 
L 93.364782 -113.146685 
L 92.968847 -115.692139 
L 92.527498 -118.237594 
L 92.060282 -120.783048 
L 91.589393 -123.328503 
L 91.136636 -125.873957 
L 90.72042 -128.419412 
L 90.353242 -130.964866 
L 90.040102 -133.510321 
L 89.778046 -136.055776 
L 89.556856 -138.60123 
L 89.360679 -141.146685 
L 89.170231 -143.692139 
L 88.965181 -146.237594 
L 88.726314 -148.783048 
L 88.437232 -151.328503 
L 88.085484 -153.873957 
L 87.663177 -156.419412 
L 87.167242 -158.964866 
L 86.599564 -161.510321 
L 85.967178 -164.055776 
L 85.282576 -166.60123 
L 84.564094 -169.146685 
L 83.836124 -171.692139 
L 83.128853 -174.237594 
L 82.47719 -176.783048 
L 81.918666 -179.328503 
L 81.490328 -181.873957 
L 81.224904 -184.419412 
L 81.146815 -186.964866 
L 81.268731 -189.510321 
L 81.589406 -192.055776 
L 82.093313 -194.60123 
L 82.752264 -197.146685 
L 83.528811 -199.692139 
L 84.380847 -202.237594 
L 85.266584 -204.783048 
L 86.149051 -207.328503 
L 86.999388 -209.873957 
L 87.798508 -212.419412 
L 88.537062 -214.964866 
L 89.213951 -217.510321 
L 89.833894 -220.055776 
L 90.40463 -222.60123 
L 90.934314 -225.146685 
L 91.429514 -227.692139 
L 91.894035 -230.237594 
L 92.328613 -232.783048 
L 92.731339 -235.328503 
L 93.098624 -237.873957 
L 93.426422 -240.419412 
L 93.711467 -242.964866 
L 93.952298 -245.510321 
L 94.149898 -248.055776 
L 94.307864 -250.60123 
L 94.432103 -253.146685 
L 94.530114 -255.692139 
L 94.610027 -258.237594 
L 94.679574 -260.783048 
L 94.745213 -263.328503 
L 94.811544 -265.873957 
L 94.881119 -268.419412 
L 94.954621 -270.964866 
L 95.031331 -273.510321 
L 95.109733 -276.055776 
L 95.188088 -278.60123 
L 95.264878 -281.146685 
L 95.339022 -283.692139 
L 95.409897 -286.237594 
L 95.47721 -288.783048 
L 95.540807 -291.328503 
L 95.600502 -293.873957 
L 95.655984 -296.419412 
L 95.706816 -298.964866 
L 95.752512 -301.510321 
L 95.792648 -304.055776 
L 95.826974 -306.60123 
L 95.855482 -309.146685 
L 95.878434 -311.692139 
L 95.896324 -314.237594 
L 95.982083 -314.237594 
L 95.982083 -314.237594 
L 95.999972 -311.692139 
L 96.022924 -309.146685 
L 96.051433 -306.60123 
L 96.085758 -304.055776 
L 96.125894 -301.510321 
L 96.17159 -298.964866 
L 96.222422 -296.419412 
L 96.277904 -293.873957 
L 96.337599 -291.328503 
L 96.401196 -288.783048 
L 96.468509 -286.237594 
L 96.539384 -283.692139 
L 96.613528 -281.146685 
L 96.690318 -278.60123 
L 96.768674 -276.055776 
L 96.847075 -273.510321 
L 96.923785 -270.964866 
L 96.997287 -268.419412 
L 97.066862 -265.873957 
L 97.133194 -263.328503 
L 97.198832 -260.783048 
L 97.268379 -258.237594 
L 97.348292 -255.692139 
L 97.446304 -253.146685 
L 97.570543 -250.60123 
L 97.728509 -248.055776 
L 97.926108 -245.510321 
L 98.166939 -242.964866 
L 98.451985 -240.419412 
L 98.779782 -237.873957 
L 99.147067 -235.328503 
L 99.549793 -232.783048 
L 99.984371 -230.237594 
L 100.448892 -227.692139 
L 100.944092 -225.146685 
L 101.473776 -222.60123 
L 102.044512 -220.055776 
L 102.664455 -217.510321 
L 103.341344 -214.964866 
L 104.079898 -212.419412 
L 104.879018 -209.873957 
L 105.729355 -207.328503 
L 106.611822 -204.783048 
L 107.497559 -202.237594 
L 108.349595 -199.692139 
L 109.126142 -197.146685 
L 109.785093 -194.60123 
L 110.289 -192.055776 
L 110.609676 -189.510321 
L 110.731591 -186.964866 
L 110.653502 -184.419412 
L 110.388079 -181.873957 
L 109.95974 -179.328503 
L 109.401216 -176.783048 
L 108.749553 -174.237594 
L 108.042283 -171.692139 
L 107.314312 -169.146685 
L 106.59583 -166.60123 
L 105.911228 -164.055776 
L 105.278842 -161.510321 
L 104.711165 -158.964866 
L 104.215229 -156.419412 
L 103.792922 -153.873957 
L 103.441174 -151.328503 
L 103.152092 -148.783048 
L 102.913225 -146.237594 
L 102.708175 -143.692139 
L 102.517728 -141.146685 
L 102.32155 -138.60123 
L 102.10036 -136.055776 
L 101.838304 -133.510321 
L 101.525164 -130.964866 
L 101.157986 -128.419412 
L 100.74177 -125.873957 
L 100.289014 -123.328503 
L 99.818124 -120.783048 
L 99.350908 -118.237594 
L 98.909559 -115.692139 
L 98.513624 -113.146685 
L 98.177455 -110.60123 
L 97.908524 -108.055776 
L 97.706838 -105.510321 
L 97.56547 -102.964866 
L 97.472059 -100.419412 
L 97.410963 -97.873957 
L 97.365697 -95.328503 
L 97.321237 -92.783048 
L 97.265859 -90.237594 
L 97.192257 -87.692139 
L 97.097861 -85.146685 
L 96.984394 -82.60123 
L 96.856847 -80.055776 
L 96.722139 -77.510321 
L 96.587718 -74.964866 
L 96.460372 -72.419412 
L 96.345389 -69.873957 
L 96.246138 -67.328503 
L 96.164042 -64.783048 
L 96.098847 -62.237594 
z
" style="stroke: #4c4c4c; stroke-width: 1.5"/>
    </defs>
    <g clip-path="url(#pf10e15bf31)">
     <use xlink:href="#md28e7f1904" x="0" y="334.037594" style="fill: #5875a4; stroke: #4c4c4c; stroke-width: 1.5"/>
    </g>
   </g>
   <g id="PolyCollection_2">
    <defs>
     <path id="mcb41d80af5" d="M 174.279569 -69.377724 
L 173.838838 -69.377724 
L 173.782196 -71.418004 
L 173.715123 -73.458285 
L 173.636848 -75.498565 
L 173.546836 -77.538845 
L 173.444855 -79.579125 
L 173.33104 -81.619405 
L 173.205933 -83.659686 
L 173.070501 -85.699966 
L 172.926135 -87.740246 
L 172.774599 -89.780526 
L 172.617957 -91.820806 
L 172.458462 -93.861087 
L 172.298417 -95.901367 
L 172.14002 -97.941647 
L 171.985194 -99.981927 
L 171.835441 -102.022208 
L 171.691704 -104.062488 
L 171.554276 -106.102768 
L 171.422761 -108.143048 
L 171.296089 -110.183328 
L 171.172594 -112.223609 
L 171.050156 -114.263889 
L 170.926386 -116.304169 
L 170.798843 -118.344449 
L 170.665266 -120.384729 
L 170.523793 -122.42501 
L 170.373144 -124.46529 
L 170.212754 -126.50557 
L 170.042828 -128.54585 
L 169.864318 -130.58613 
L 169.678822 -132.626411 
L 169.488405 -134.666691 
L 169.295365 -136.706971 
L 169.10197 -138.747251 
L 168.910179 -140.787531 
L 168.721399 -142.827812 
L 168.536283 -144.868092 
L 168.354609 -146.908372 
L 168.175244 -148.948652 
L 167.996213 -150.988933 
L 167.814849 -153.029213 
L 167.628038 -155.069493 
L 167.432512 -157.109773 
L 167.225176 -159.150053 
L 167.003436 -161.190334 
L 166.765491 -163.230614 
L 166.510571 -165.270894 
L 166.239087 -167.311174 
L 165.952685 -169.351454 
L 165.654202 -171.391735 
L 165.347524 -173.432015 
L 165.037358 -175.472295 
L 164.728948 -177.512575 
L 164.427749 -179.552855 
L 164.139096 -181.593136 
L 163.867894 -183.633416 
L 163.618354 -185.673696 
L 163.39379 -187.713976 
L 163.196505 -189.754256 
L 163.027756 -191.794537 
L 162.887816 -193.834817 
L 162.776111 -195.875097 
L 162.691423 -197.915377 
L 162.632149 -199.955657 
L 162.59658 -201.995938 
L 162.583183 -204.036218 
L 162.590861 -206.076498 
L 162.619172 -208.116778 
L 162.668469 -210.157059 
L 162.739974 -212.197339 
L 162.835751 -214.237619 
L 162.958589 -216.277899 
L 163.111802 -218.318179 
L 163.298951 -220.35846 
L 163.523518 -222.39874 
L 163.788551 -224.43902 
L 164.096311 -226.4793 
L 164.44796 -228.51958 
L 164.843299 -230.559861 
L 165.2806 -232.600141 
L 165.756541 -234.640421 
L 166.266248 -236.680701 
L 166.803444 -238.720981 
L 167.360705 -240.761262 
L 167.929783 -242.801542 
L 168.501988 -244.841822 
L 169.068593 -246.882102 
L 169.621225 -248.922382 
L 170.15223 -250.962663 
L 170.654964 -253.002943 
L 171.124024 -255.043223 
L 171.555374 -257.083503 
L 171.946401 -259.123784 
L 172.295873 -261.164064 
L 172.603837 -263.204344 
L 172.871456 -265.244624 
L 173.100811 -267.284904 
L 173.294682 -269.325185 
L 173.456329 -271.365465 
L 174.662077 -271.365465 
L 174.662077 -271.365465 
L 174.823724 -269.325185 
L 175.017595 -267.284904 
L 175.24695 -265.244624 
L 175.514569 -263.204344 
L 175.822533 -261.164064 
L 176.172005 -259.123784 
L 176.563032 -257.083503 
L 176.994382 -255.043223 
L 177.463442 -253.002943 
L 177.966176 -250.962663 
L 178.497181 -248.922382 
L 179.049813 -246.882102 
L 179.616418 -244.841822 
L 180.188623 -242.801542 
L 180.757701 -240.761262 
L 181.314962 -238.720981 
L 181.852159 -236.680701 
L 182.361865 -234.640421 
L 182.837807 -232.600141 
L 183.275108 -230.559861 
L 183.670446 -228.51958 
L 184.022095 -226.4793 
L 184.329856 -224.43902 
L 184.594888 -222.39874 
L 184.819455 -220.35846 
L 185.006604 -218.318179 
L 185.159817 -216.277899 
L 185.282655 -214.237619 
L 185.378432 -212.197339 
L 185.449937 -210.157059 
L 185.499235 -208.116778 
L 185.527545 -206.076498 
L 185.535224 -204.036218 
L 185.521826 -201.995938 
L 185.486257 -199.955657 
L 185.426983 -197.915377 
L 185.342295 -195.875097 
L 185.23059 -193.834817 
L 185.09065 -191.794537 
L 184.921901 -189.754256 
L 184.724616 -187.713976 
L 184.500052 -185.673696 
L 184.250512 -183.633416 
L 183.979311 -181.593136 
L 183.690658 -179.552855 
L 183.389458 -177.512575 
L 183.081048 -175.472295 
L 182.770882 -173.432015 
L 182.464204 -171.391735 
L 182.165722 -169.351454 
L 181.879319 -167.311174 
L 181.607835 -165.270894 
L 181.352915 -163.230614 
L 181.11497 -161.190334 
L 180.89323 -159.150053 
L 180.685894 -157.109773 
L 180.490368 -155.069493 
L 180.303558 -153.029213 
L 180.122194 -150.988933 
L 179.943162 -148.948652 
L 179.763797 -146.908372 
L 179.582123 -144.868092 
L 179.397007 -142.827812 
L 179.208227 -140.787531 
L 179.016436 -138.747251 
L 178.823041 -136.706971 
L 178.630001 -134.666691 
L 178.439584 -132.626411 
L 178.254088 -130.58613 
L 178.075578 -128.54585 
L 177.905652 -126.50557 
L 177.745262 -124.46529 
L 177.594613 -122.42501 
L 177.45314 -120.384729 
L 177.319563 -118.344449 
L 177.19202 -116.304169 
L 177.06825 -114.263889 
L 176.945813 -112.223609 
L 176.822318 -110.183328 
L 176.695645 -108.143048 
L 176.56413 -106.102768 
L 176.426703 -104.062488 
L 176.282965 -102.022208 
L 176.133212 -99.981927 
L 175.978387 -97.941647 
L 175.819989 -95.901367 
L 175.659944 -93.861087 
L 175.50045 -91.820806 
L 175.343808 -89.780526 
L 175.192271 -87.740246 
L 175.047905 -85.699966 
L 174.912474 -83.659686 
L 174.787366 -81.619405 
L 174.673551 -79.579125 
L 174.571571 -77.538845 
L 174.481558 -75.498565 
L 174.403283 -73.458285 
L 174.336211 -71.418004 
L 174.279569 -69.377724 
z
" style="stroke: #4c4c4c; stroke-width: 1.5"/>
    </defs>
    <g clip-path="url(#pf10e15bf31)">
     <use xlink:href="#mcb41d80af5" x="0" y="334.037594" style="fill: #cc8963; stroke: #4c4c4c; stroke-width: 1.5"/>
    </g>
   </g>
   <g id="PolyCollection_3">
    <defs>
     <path id="md7d05bf1a0" d="M 252.52084 -149.569655 
L 251.837566 -149.569655 
L 251.752673 -150.69888 
L 251.652046 -151.828105 
L 251.534147 -152.95733 
L 251.397593 -154.086555 
L 251.241229 -155.21578 
L 251.064194 -156.345005 
L 250.865979 -157.47423 
L 250.646484 -158.603455 
L 250.406044 -159.73268 
L 250.14545 -160.861905 
L 249.865944 -161.99113 
L 249.56919 -163.120355 
L 249.257232 -164.24958 
L 248.932422 -165.378805 
L 248.597346 -166.50803 
L 248.25473 -167.637255 
L 247.907342 -168.76648 
L 247.557892 -169.895705 
L 247.208943 -171.02493 
L 246.862822 -172.154155 
L 246.521548 -173.28338 
L 246.186775 -174.412605 
L 245.859755 -175.54183 
L 245.541312 -176.671055 
L 245.231843 -177.80028 
L 244.931327 -178.929505 
L 244.639354 -180.05873 
L 244.355154 -181.187955 
L 244.077638 -182.31718 
L 243.805432 -183.446405 
L 243.536902 -184.57563 
L 243.270164 -185.704855 
L 243.003088 -186.83408 
L 242.733268 -187.963305 
L 242.457989 -189.09253 
L 242.174185 -190.221755 
L 241.878394 -191.35098 
L 241.566733 -192.480205 
L 241.234908 -193.60943 
L 240.878265 -194.738655 
L 240.491911 -195.86788 
L 240.070897 -196.997105 
L 239.610488 -198.12633 
L 239.10649 -199.255555 
L 238.555635 -200.38478 
L 237.955993 -201.514005 
L 237.307384 -202.64323 
L 236.611748 -203.772455 
L 235.873436 -204.90168 
L 235.099388 -206.030905 
L 234.299163 -207.16013 
L 233.484812 -208.289355 
L 232.670575 -209.41858 
L 231.872416 -210.547805 
L 231.107424 -211.67703 
L 230.393105 -212.806255 
L 229.74662 -213.93548 
L 229.184021 -215.064705 
L 228.719531 -216.19393 
L 228.364934 -217.323155 
L 228.129094 -218.45238 
L 228.017664 -219.581605 
L 228.032976 -220.71083 
L 228.174119 -221.840055 
L 228.437198 -222.96928 
L 228.815732 -224.098505 
L 229.301166 -225.22773 
L 229.883432 -226.356955 
L 230.551526 -227.48618 
L 231.294055 -228.615405 
L 232.099702 -229.74463 
L 232.957596 -230.873855 
L 233.857567 -232.00308 
L 234.790274 -233.132305 
L 235.747229 -234.26153 
L 236.720726 -235.390755 
L 237.703714 -236.51998 
L 238.689626 -237.649205 
L 239.672217 -238.77843 
L 240.645417 -239.907655 
L 241.603241 -241.03688 
L 242.539746 -242.166105 
L 243.449063 -243.29533 
L 244.325472 -244.424555 
L 245.163542 -245.55378 
L 245.95828 -246.683005 
L 246.70531 -247.81223 
L 247.40103 -248.941455 
L 248.042744 -250.07068 
L 248.628758 -251.199905 
L 249.158425 -252.32913 
L 249.632136 -253.458355 
L 250.05126 -254.58758 
L 250.418046 -255.716805 
L 250.735484 -256.84603 
L 251.007145 -257.975255 
L 251.237012 -259.10448 
L 251.429308 -260.233705 
L 251.58834 -261.36293 
L 252.770066 -261.36293 
L 252.770066 -261.36293 
L 252.929099 -260.233705 
L 253.121395 -259.10448 
L 253.351261 -257.975255 
L 253.622922 -256.84603 
L 253.94036 -255.716805 
L 254.307146 -254.58758 
L 254.726271 -253.458355 
L 255.199981 -252.32913 
L 255.729648 -251.199905 
L 256.315663 -250.07068 
L 256.957377 -248.941455 
L 257.653096 -247.81223 
L 258.400127 -246.683005 
L 259.194865 -245.55378 
L 260.032934 -244.424555 
L 260.909343 -243.29533 
L 261.81866 -242.166105 
L 262.755166 -241.03688 
L 263.712989 -239.907655 
L 264.686189 -238.77843 
L 265.66878 -237.649205 
L 266.654692 -236.51998 
L 267.63768 -235.390755 
L 268.611178 -234.26153 
L 269.568132 -233.132305 
L 270.500839 -232.00308 
L 271.40081 -230.873855 
L 272.258705 -229.74463 
L 273.064351 -228.615405 
L 273.80688 -227.48618 
L 274.474974 -226.356955 
L 275.05724 -225.22773 
L 275.542674 -224.098505 
L 275.921209 -222.96928 
L 276.184287 -221.840055 
L 276.32543 -220.71083 
L 276.340742 -219.581605 
L 276.229313 -218.45238 
L 275.993473 -217.323155 
L 275.638875 -216.19393 
L 275.174386 -215.064705 
L 274.611787 -213.93548 
L 273.965302 -212.806255 
L 273.250982 -211.67703 
L 272.48599 -210.547805 
L 271.687831 -209.41858 
L 270.873594 -208.289355 
L 270.059243 -207.16013 
L 269.259018 -206.030905 
L 268.48497 -204.90168 
L 267.746658 -203.772455 
L 267.051022 -202.64323 
L 266.402413 -201.514005 
L 265.802771 -200.38478 
L 265.251916 -199.255555 
L 264.747918 -198.12633 
L 264.287509 -196.997105 
L 263.866496 -195.86788 
L 263.480141 -194.738655 
L 263.123498 -193.60943 
L 262.791673 -192.480205 
L 262.480013 -191.35098 
L 262.184221 -190.221755 
L 261.900417 -189.09253 
L 261.625139 -187.963305 
L 261.355318 -186.83408 
L 261.088242 -185.704855 
L 260.821505 -184.57563 
L 260.552974 -183.446405 
L 260.280768 -182.31718 
L 260.003252 -181.187955 
L 259.719053 -180.05873 
L 259.427079 -178.929505 
L 259.126563 -177.80028 
L 258.817094 -176.671055 
L 258.498651 -175.54183 
L 258.171631 -174.412605 
L 257.836859 -173.28338 
L 257.495584 -172.154155 
L 257.149463 -171.02493 
L 256.800515 -169.895705 
L 256.451065 -168.76648 
L 256.103676 -167.637255 
L 255.76106 -166.50803 
L 255.425984 -165.378805 
L 255.101175 -164.24958 
L 254.789216 -163.120355 
L 254.492462 -161.99113 
L 254.212956 -160.861905 
L 253.952362 -159.73268 
L 253.711922 -158.603455 
L 253.492427 -157.47423 
L 253.294213 -156.345005 
L 253.117177 -155.21578 
L 252.960813 -154.086555 
L 252.824259 -152.95733 
L 252.70636 -151.828105 
L 252.605733 -150.69888 
L 252.52084 -149.569655 
z
" style="stroke: #4c4c4c; stroke-width: 1.5"/>
    </defs>
    <g clip-path="url(#pf10e15bf31)">
     <use xlink:href="#md7d05bf1a0" x="0" y="334.037594" style="fill: #5f9e6e; stroke: #4c4c4c; stroke-width: 1.5"/>
    </g>
   </g>
   <g id="PolyCollection_4">
    <defs>
     <path id="mc30a1dbf0a" d="M 332.081253 -214.214173 
L 328.517153 -214.214173 
L 328.204533 -214.993306 
L 327.850185 -215.772438 
L 327.451136 -216.55157 
L 327.004684 -217.330703 
L 326.508503 -218.109835 
L 325.960754 -218.888968 
L 325.360199 -219.6681 
L 324.706309 -220.447232 
L 323.999368 -221.226365 
L 323.240576 -222.005497 
L 322.432122 -222.78463 
L 321.577252 -223.563762 
L 320.680305 -224.342894 
L 319.746723 -225.122027 
L 318.783028 -225.901159 
L 317.796772 -226.680292 
L 316.796437 -227.459424 
L 315.791314 -228.238557 
L 314.791336 -229.017689 
L 313.806881 -229.796821 
L 312.848551 -230.575954 
L 311.926922 -231.355086 
L 311.052281 -232.134219 
L 310.234356 -232.913351 
L 309.482043 -233.692483 
L 308.80315 -234.471616 
L 308.204158 -235.250748 
L 307.690011 -236.029881 
L 307.26395 -236.809013 
L 306.927385 -237.588145 
L 306.679832 -238.367278 
L 306.518897 -239.14641 
L 306.440323 -239.925543 
L 306.438101 -240.704675 
L 306.504635 -241.483807 
L 306.630957 -242.26294 
L 306.806996 -243.042072 
L 307.021883 -243.821205 
L 307.264275 -244.600337 
L 307.522709 -245.379469 
L 307.785953 -246.158602 
L 308.043344 -246.937734 
L 308.28512 -247.716867 
L 308.502703 -248.495999 
L 308.688956 -249.275131 
L 308.838382 -250.054264 
L 308.947266 -250.833396 
L 309.013762 -251.612529 
L 309.037914 -252.391661 
L 309.021612 -253.170793 
L 308.968501 -253.949926 
L 308.883818 -254.729058 
L 308.774201 -255.508191 
L 308.647439 -256.287323 
L 308.512212 -257.066455 
L 308.377798 -257.845588 
L 308.253772 -258.62472 
L 308.149716 -259.403853 
L 308.074927 -260.182985 
L 308.038153 -260.962118 
L 308.047355 -261.74125 
L 308.109501 -262.520382 
L 308.230399 -263.299515 
L 308.41457 -264.078647 
L 308.66517 -264.85778 
L 308.983944 -265.636912 
L 309.371231 -266.416044 
L 309.826003 -267.195177 
L 310.34594 -267.974309 
L 310.92753 -268.753442 
L 311.566204 -269.532574 
L 312.256476 -270.311706 
L 312.992112 -271.090839 
L 313.766293 -271.869971 
L 314.571792 -272.649104 
L 315.401137 -273.428236 
L 316.246783 -274.207368 
L 317.101255 -274.986501 
L 317.957297 -275.765633 
L 318.807989 -276.544766 
L 319.646858 -277.323898 
L 320.467964 -278.10303 
L 321.26597 -278.882163 
L 322.036194 -279.661295 
L 322.77464 -280.440428 
L 323.47801 -281.21956 
L 324.143709 -281.998692 
L 324.769824 -282.777825 
L 325.355096 -283.556957 
L 325.898883 -284.33609 
L 326.40111 -285.115222 
L 326.862214 -285.894354 
L 327.283084 -286.673487 
L 327.664998 -287.452619 
L 328.009562 -288.231752 
L 328.318642 -289.010884 
L 328.594305 -289.790017 
L 328.838761 -290.569149 
L 329.05431 -291.348281 
L 331.544097 -291.348281 
L 331.544097 -291.348281 
L 331.759645 -290.569149 
L 332.004101 -289.790017 
L 332.279764 -289.010884 
L 332.588844 -288.231752 
L 332.933408 -287.452619 
L 333.315323 -286.673487 
L 333.736192 -285.894354 
L 334.197296 -285.115222 
L 334.699523 -284.33609 
L 335.24331 -283.556957 
L 335.828582 -282.777825 
L 336.454697 -281.998692 
L 337.120396 -281.21956 
L 337.823767 -280.440428 
L 338.562212 -279.661295 
L 339.332436 -278.882163 
L 340.130443 -278.10303 
L 340.951548 -277.323898 
L 341.790417 -276.544766 
L 342.641109 -275.765633 
L 343.497151 -274.986501 
L 344.351623 -274.207368 
L 345.197269 -273.428236 
L 346.026615 -272.649104 
L 346.832113 -271.869971 
L 347.606294 -271.090839 
L 348.34193 -270.311706 
L 349.032203 -269.532574 
L 349.670876 -268.753442 
L 350.252466 -267.974309 
L 350.772403 -267.195177 
L 351.227176 -266.416044 
L 351.614463 -265.636912 
L 351.933236 -264.85778 
L 352.183836 -264.078647 
L 352.368008 -263.299515 
L 352.488905 -262.520382 
L 352.551051 -261.74125 
L 352.560254 -260.962118 
L 352.52348 -260.182985 
L 352.44869 -259.403853 
L 352.344634 -258.62472 
L 352.220608 -257.845588 
L 352.086194 -257.066455 
L 351.950967 -256.287323 
L 351.824206 -255.508191 
L 351.714588 -254.729058 
L 351.629906 -253.949926 
L 351.576794 -253.170793 
L 351.560493 -252.391661 
L 351.584644 -251.612529 
L 351.65114 -250.833396 
L 351.760024 -250.054264 
L 351.90945 -249.275131 
L 352.095703 -248.495999 
L 352.313286 -247.716867 
L 352.555062 -246.937734 
L 352.812454 -246.158602 
L 353.075697 -245.379469 
L 353.334132 -244.600337 
L 353.576524 -243.821205 
L 353.79141 -243.042072 
L 353.96745 -242.26294 
L 354.093771 -241.483807 
L 354.160305 -240.704675 
L 354.158083 -239.925543 
L 354.07951 -239.14641 
L 353.918574 -238.367278 
L 353.671021 -237.588145 
L 353.334456 -236.809013 
L 352.908395 -236.029881 
L 352.394248 -235.250748 
L 351.795256 -234.471616 
L 351.116363 -233.692483 
L 350.36405 -232.913351 
L 349.546125 -232.134219 
L 348.671484 -231.355086 
L 347.749855 -230.575954 
L 346.791526 -229.796821 
L 345.807071 -229.017689 
L 344.807092 -228.238557 
L 343.801969 -227.459424 
L 342.801634 -226.680292 
L 341.815378 -225.901159 
L 340.851683 -225.122027 
L 339.918101 -224.342894 
L 339.021154 -223.563762 
L 338.166284 -222.78463 
L 337.357831 -222.005497 
L 336.599038 -221.226365 
L 335.892098 -220.447232 
L 335.238207 -219.6681 
L 334.637652 -218.888968 
L 334.089903 -218.109835 
L 333.593722 -217.330703 
L 333.14727 -216.55157 
L 332.748221 -215.772438 
L 332.393874 -214.993306 
L 332.081253 -214.214173 
z
" style="stroke: #4c4c4c; stroke-width: 1.5"/>
    </defs>
    <g clip-path="url(#pf10e15bf31)">
     <use xlink:href="#mc30a1dbf0a" x="0" y="334.037594" style="fill: #b55d60; stroke: #4c4c4c; stroke-width: 1.5"/>
    </g>
   </g>
   <g id="PolyCollection_5">
    <defs>
     <path id="m885f25cb21" d="M 409.772076 -222.630039 
L 407.06633 -222.630039 
L 406.755602 -223.37095 
L 406.389847 -224.111862 
L 405.963328 -224.852773 
L 405.470591 -225.593684 
L 404.906688 -226.334596 
L 404.267409 -227.075507 
L 403.549519 -227.816419 
L 402.750994 -228.55733 
L 401.871234 -229.298241 
L 400.911253 -230.039153 
L 399.873818 -230.780064 
L 398.763534 -231.520975 
L 397.586868 -232.261887 
L 396.352095 -233.002798 
L 395.069176 -233.743709 
L 393.749557 -234.484621 
L 392.405909 -235.225532 
L 391.051802 -235.966443 
L 389.701349 -236.707355 
L 388.368813 -237.448266 
L 387.068216 -238.189177 
L 385.812963 -238.930089 
L 384.615492 -239.671 
L 383.48698 -240.411911 
L 382.437102 -241.152823 
L 381.473869 -241.893734 
L 380.60353 -242.634645 
L 379.830551 -243.375557 
L 379.157651 -244.116468 
L 378.585903 -244.857379 
L 378.114869 -245.598291 
L 377.742766 -246.339202 
L 377.466648 -247.080113 
L 377.282596 -247.821025 
L 377.185894 -248.561936 
L 377.171203 -249.302847 
L 377.232713 -250.043759 
L 377.364286 -250.78467 
L 377.559587 -251.525581 
L 377.812201 -252.266493 
L 378.115754 -253.007404 
L 378.464028 -253.748315 
L 378.851078 -254.489227 
L 379.271348 -255.230138 
L 379.719785 -255.97105 
L 380.191943 -256.711961 
L 380.684069 -257.452872 
L 381.193164 -258.193784 
L 381.717018 -258.934695 
L 382.25419 -259.675606 
L 382.803964 -260.416518 
L 383.366246 -261.157429 
L 383.941429 -261.89834 
L 384.530224 -262.639252 
L 385.133466 -263.380163 
L 385.751921 -264.121074 
L 386.386092 -264.861986 
L 387.03605 -265.602897 
L 387.701309 -266.343808 
L 388.380737 -267.08472 
L 389.072532 -267.825631 
L 389.774255 -268.566542 
L 390.48291 -269.307454 
L 391.195085 -270.048365 
L 391.907117 -270.789276 
L 392.615289 -271.530188 
L 393.316025 -272.271099 
L 394.006082 -273.01201 
L 394.682708 -273.752922 
L 395.343762 -274.493833 
L 395.987795 -275.234744 
L 396.614059 -275.975656 
L 397.222483 -276.716567 
L 397.813581 -277.457478 
L 398.388336 -278.19839 
L 398.948039 -278.939301 
L 399.494125 -279.680212 
L 400.027997 -280.421124 
L 400.550873 -281.162035 
L 401.06365 -281.902946 
L 401.5668 -282.643858 
L 402.060315 -283.384769 
L 402.543688 -284.125681 
L 403.015932 -284.866592 
L 403.475648 -285.607503 
L 403.92111 -286.348415 
L 404.35038 -287.089326 
L 404.76143 -287.830237 
L 405.152271 -288.571149 
L 405.521069 -289.31206 
L 405.866248 -290.052971 
L 406.186575 -290.793883 
L 406.481218 -291.534794 
L 406.749775 -292.275705 
L 406.992285 -293.016617 
L 407.209208 -293.757528 
L 407.401392 -294.498439 
L 407.570018 -295.239351 
L 407.716538 -295.980262 
L 409.121868 -295.980262 
L 409.121868 -295.980262 
L 409.268388 -295.239351 
L 409.437014 -294.498439 
L 409.629198 -293.757528 
L 409.846121 -293.016617 
L 410.088631 -292.275705 
L 410.357188 -291.534794 
L 410.651831 -290.793883 
L 410.972158 -290.052971 
L 411.317338 -289.31206 
L 411.686135 -288.571149 
L 412.076976 -287.830237 
L 412.488027 -287.089326 
L 412.917296 -286.348415 
L 413.362758 -285.607503 
L 413.822474 -284.866592 
L 414.294718 -284.125681 
L 414.778091 -283.384769 
L 415.271607 -282.643858 
L 415.774757 -281.902946 
L 416.287533 -281.162035 
L 416.81041 -280.421124 
L 417.344282 -279.680212 
L 417.890367 -278.939301 
L 418.45007 -278.19839 
L 419.024825 -277.457478 
L 419.615924 -276.716567 
L 420.224347 -275.975656 
L 420.850612 -275.234744 
L 421.494644 -274.493833 
L 422.155699 -273.752922 
L 422.832324 -273.01201 
L 423.522381 -272.271099 
L 424.223118 -271.530188 
L 424.931289 -270.789276 
L 425.643321 -270.048365 
L 426.355496 -269.307454 
L 427.064152 -268.566542 
L 427.765874 -267.825631 
L 428.45767 -267.08472 
L 429.137097 -266.343808 
L 429.802356 -265.602897 
L 430.452314 -264.861986 
L 431.086485 -264.121074 
L 431.70494 -263.380163 
L 432.308183 -262.639252 
L 432.896977 -261.89834 
L 433.47216 -261.157429 
L 434.034442 -260.416518 
L 434.584216 -259.675606 
L 435.121389 -258.934695 
L 435.645242 -258.193784 
L 436.154338 -257.452872 
L 436.646463 -256.711961 
L 437.118621 -255.97105 
L 437.567058 -255.230138 
L 437.987329 -254.489227 
L 438.374379 -253.748315 
L 438.722653 -253.007404 
L 439.026206 -252.266493 
L 439.27882 -251.525581 
L 439.47412 -250.78467 
L 439.605693 -250.043759 
L 439.667203 -249.302847 
L 439.652512 -248.561936 
L 439.55581 -247.821025 
L 439.371758 -247.080113 
L 439.09564 -246.339202 
L 438.723537 -245.598291 
L 438.252503 -244.857379 
L 437.680755 -244.116468 
L 437.007856 -243.375557 
L 436.234876 -242.634645 
L 435.364537 -241.893734 
L 434.401304 -241.152823 
L 433.351426 -240.411911 
L 432.222914 -239.671 
L 431.025443 -238.930089 
L 429.77019 -238.189177 
L 428.469593 -237.448266 
L 427.137057 -236.707355 
L 425.786604 -235.966443 
L 424.432498 -235.225532 
L 423.088849 -234.484621 
L 421.76923 -233.743709 
L 420.486311 -233.002798 
L 419.251538 -232.261887 
L 418.074872 -231.520975 
L 416.964588 -230.780064 
L 415.927153 -230.039153 
L 414.967173 -229.298241 
L 414.087413 -228.55733 
L 413.288887 -227.816419 
L 412.570997 -227.075507 
L 411.931718 -226.334596 
L 411.367816 -225.593684 
L 410.875079 -224.852773 
L 410.448559 -224.111862 
L 410.082804 -223.37095 
L 409.772076 -222.630039 
z
" style="stroke: #4c4c4c; stroke-width: 1.5"/>
    </defs>
    <g clip-path="url(#pf10e15bf31)">
     <use xlink:href="#m885f25cb21" x="0" y="334.037594" style="fill: #857aab; stroke: #4c4c4c; stroke-width: 1.5"/>
    </g>
   </g>
   <g id="line2d_1">
    <path d="M 95.939203 209.229394 
L 95.939203 95.578589 
" clip-path="url(#pf10e15bf31)" style="fill: none; stroke: #4c4c4c; stroke-width: 1.5; stroke-linecap: round"/>
   </g>
   <g id="line2d_2">
    <path d="M 95.939203 176.558513 
L 95.939203 136.749541 
" clip-path="url(#pf10e15bf31)" style="fill: none; stroke: #4c4c4c; stroke-width: 4.5; stroke-linecap: round"/>
   </g>
   <g id="line2d_3">
    <path d="M 174.059203 228.112447 
L 174.059203 99.219551 
" clip-path="url(#pf10e15bf31)" style="fill: none; stroke: #4c4c4c; stroke-width: 1.5; stroke-linecap: round"/>
   </g>
   <g id="line2d_4">
    <path d="M 174.059203 168.066854 
L 174.059203 116.012567 
" clip-path="url(#pf10e15bf31)" style="fill: none; stroke: #4c4c4c; stroke-width: 4.5; stroke-linecap: round"/>
   </g>
   <g id="line2d_5">
    <path d="M 252.179203 163.429667 
L 252.179203 93.712936 
" clip-path="url(#pf10e15bf31)" style="fill: none; stroke: #4c4c4c; stroke-width: 1.5; stroke-linecap: round"/>
   </g>
   <g id="line2d_6">
    <path d="M 252.179203 134.05581 
L 252.179203 110.800599 
" clip-path="url(#pf10e15bf31)" style="fill: none; stroke: #4c4c4c; stroke-width: 4.5; stroke-linecap: round"/>
   </g>
   <g id="line2d_7">
    <path d="M 330.299203 99.061204 
L 330.299203 63.451529 
" clip-path="url(#pf10e15bf31)" style="fill: none; stroke: #4c4c4c; stroke-width: 1.5; stroke-linecap: round"/>
   </g>
   <g id="line2d_8">
    <path d="M 330.299203 94.665849 
L 330.299203 72.807589 
" clip-path="url(#pf10e15bf31)" style="fill: none; stroke: #4c4c4c; stroke-width: 4.5; stroke-linecap: round"/>
   </g>
   <g id="line2d_9">
    <path d="M 408.419203 95.735416 
L 408.419203 53.72947 
" clip-path="url(#pf10e15bf31)" style="fill: none; stroke: #4c4c4c; stroke-width: 1.5; stroke-linecap: round"/>
   </g>
   <g id="line2d_10">
    <path d="M 408.419203 90.098863 
L 408.419203 69.898274 
" clip-path="url(#pf10e15bf31)" style="fill: none; stroke: #4c4c4c; stroke-width: 4.5; stroke-linecap: round"/>
   </g>
   <g id="patch_3">
    <path d="M 56.879203 284.4 
L 56.879203 7.2 
" style="fill: none; stroke: #262626; stroke-width: 1.25; stroke-linejoin: miter; stroke-linecap: square"/>
   </g>
   <g id="patch_4">
    <path d="M 447.479203 284.4 
L 447.479203 7.2 
" style="fill: none; stroke: #262626; stroke-width: 1.25; stroke-linejoin: miter; stroke-linecap: square"/>
   </g>
   <g id="patch_5">
    <path d="M 56.879203 284.4 
L 447.479203 284.4 
" style="fill: none; stroke: #262626; stroke-width: 1.25; stroke-linejoin: miter; stroke-linecap: square"/>
   </g>
   <g id="patch_6">
    <path d="M 56.879203 7.2 
L 447.479203 7.2 
" style="fill: none; stroke: #262626; stroke-width: 1.25; stroke-linejoin: miter; stroke-linecap: square"/>
   </g>
   <g id="PathCollection_1">
    <defs>
     <path id="me5f2a290d3" d="M 0 1.5 
C 0.397805 1.5 0.77937 1.341951 1.06066 1.06066 
C 1.341951 0.77937 1.5 0.397805 1.5 0 
C 1.5 -0.397805 1.341951 -0.77937 1.06066 -1.06066 
C 0.77937 -1.341951 0.397805 -1.5 0 -1.5 
C -0.397805 -1.5 -0.77937 -1.341951 -1.06066 -1.06066 
C -1.341951 -0.77937 -1.5 -0.397805 -1.5 0 
C -1.5 0.397805 -1.341951 0.77937 -1.06066 1.06066 
C -0.77937 1.341951 -0.397805 1.5 0 1.5 
z
" style="stroke: #4c4c4c"/>
    </defs>
    <g clip-path="url(#pf10e15bf31)">
     <use xlink:href="#me5f2a290d3" x="95.939203" y="149.954076" style="fill: #ffffff; stroke: #4c4c4c"/>
    </g>
   </g>
   <g id="PathCollection_2">
    <g clip-path="url(#pf10e15bf31)">
     <use xlink:href="#me5f2a290d3" x="174.059203" y="141.329387" style="fill: #ffffff; stroke: #4c4c4c"/>
    </g>
   </g>
   <g id="PathCollection_3">
    <g clip-path="url(#pf10e15bf31)">
     <use xlink:href="#me5f2a290d3" x="252.179203" y="118.439173" style="fill: #ffffff; stroke: #4c4c4c"/>
    </g>
   </g>
   <g id="PathCollection_4">
    <g clip-path="url(#pf10e15bf31)">
     <use xlink:href="#me5f2a290d3" x="330.299203" y="83.437792" style="fill: #ffffff; stroke: #4c4c4c"/>
    </g>
   </g>
   <g id="PathCollection_5">
    <g clip-path="url(#pf10e15bf31)">
     <use xlink:href="#me5f2a290d3" x="408.419203" y="81.324859" style="fill: #ffffff; stroke: #4c4c4c"/>
    </g>
   </g>
  </g>
 </g>
 <defs>
  <clipPath id="pf10e15bf31">
   <rect x="56.879203" y="7.2" width="390.6" height="277.2"/>
  </clipPath>
 </defs>
</svg>
