<?xml version="1.0" encoding="utf-8" standalone="no"?>
<!DOCTYPE svg PUBLIC "-//W3C//DTD SVG 1.1//EN"
  "http://www.w3.org/Graphics/SVG/1.1/DTD/svg11.dtd">
<svg xmlns:xlink="http://www.w3.org/1999/xlink" width="580.636029pt" height="611.237594pt" viewBox="0 0 580.636029 611.237594" xmlns="http://www.w3.org/2000/svg" version="1.1">
 <metadata>
  <rdf:RDF xmlns:dc="http://purl.org/dc/elements/1.1/" xmlns:cc="http://creativecommons.org/ns#" xmlns:rdf="http://www.w3.org/1999/02/22-rdf-syntax-ns#">
   <cc:Work>
    <dc:type rdf:resource="http://purl.org/dc/dcmitype/StillImage"/>
    <dc:date>2023-05-31T15:20:58.725329</dc:date>
    <dc:format>image/svg+xml</dc:format>
    <dc:creator>
     <cc:Agent>
      <dc:title>Matplotlib v3.7.1, https://matplotlib.org/</dc:title>
     </cc:Agent>
    </dc:creator>
   </cc:Work>
  </rdf:RDF>
 </metadata>
 <defs>
  <style type="text/css">*{stroke-linejoin: round; stroke-linecap: butt}</style>
 </defs>
 <g id="figure_1">
  <g id="patch_1">
   <path d="M 0 611.237594 
L 580.636029 611.237594 
L 580.636029 0 
L 0 0 
z
" style="fill: #ffffff"/>
  </g>
  <g id="axes_1">
   <g id="patch_2">
    <path d="M 288.662094 561.6 
L 567.662094 561.6 
L 567.662094 7.2 
L 288.662094 7.2 
z
" style="fill: #ffffff"/>
   </g>
   <g id="matplotlib.axis_1">
    <g id="xtick_1">
     <g id="text_1">
      <!-- 0 -->
      <g style="fill: #262626" transform="translate(284.112906 581.965766) scale(0.143 -0.143)">
       <defs>
        <path id="DejaVuSans-30" d="M 2034 4250 
Q 1547 4250 1301 3770 
Q 1056 3291 1056 2328 
Q 1056 1369 1301 889 
Q 1547 409 2034 409 
Q 2525 409 2770 889 
Q 3016 1369 3016 2328 
Q 3016 3291 2770 3770 
Q 2525 4250 2034 4250 
z
M 2034 4750 
Q 2819 4750 3233 4129 
Q 3647 3509 3647 2328 
Q 3647 1150 3233 529 
Q 2819 -91 2034 -91 
Q 1250 -91 836 529 
Q 422 1150 422 2328 
Q 422 3509 836 4129 
Q 1250 4750 2034 4750 
z
" transform="scale(0.015625)"/>
       </defs>
       <use xlink:href="#DejaVuSans-30"/>
      </g>
     </g>
    </g>
    <g id="xtick_2">
     <g id="text_2">
      <!-- 2 -->
      <g style="fill: #262626" transform="translate(339.248018 581.965766) scale(0.143 -0.143)">
       <defs>
        <path id="DejaVuSans-32" d="M 1228 531 
L 3431 531 
L 3431 0 
L 469 0 
L 469 531 
Q 828 903 1448 1529 
Q 2069 2156 2228 2338 
Q 2531 2678 2651 2914 
Q 2772 3150 2772 3378 
Q 2772 3750 2511 3984 
Q 2250 4219 1831 4219 
Q 1534 4219 1204 4116 
Q 875 4013 500 3803 
L 500 4441 
Q 881 4594 1212 4672 
Q 1544 4750 1819 4750 
Q 2544 4750 2975 4387 
Q 3406 4025 3406 3419 
Q 3406 3131 3298 2873 
Q 3191 2616 2906 2266 
Q 2828 2175 2409 1742 
Q 1991 1309 1228 531 
z
" transform="scale(0.015625)"/>
       </defs>
       <use xlink:href="#DejaVuSans-32"/>
      </g>
     </g>
    </g>
    <g id="xtick_3">
     <g id="text_3">
      <!-- 4 -->
      <g style="fill: #262626" transform="translate(394.38313 581.965766) scale(0.143 -0.143)">
       <defs>
        <path id="DejaVuSans-34" d="M 2419 4116 
L 825 1625 
L 2419 1625 
L 2419 4116 
z
M 2253 4666 
L 3047 4666 
L 3047 1625 
L 3713 1625 
L 3713 1100 
L 3047 1100 
L 3047 0 
L 2419 0 
L 2419 1100 
L 313 1100 
L 313 1709 
L 2253 4666 
z
" transform="scale(0.015625)"/>
       </defs>
       <use xlink:href="#DejaVuSans-34"/>
      </g>
     </g>
    </g>
    <g id="xtick_4">
     <g id="text_4">
      <!-- 6 -->
      <g style="fill: #262626" transform="translate(449.518243 581.965766) scale(0.143 -0.143)">
       <defs>
        <path id="DejaVuSans-36" d="M 2113 2584 
Q 1688 2584 1439 2293 
Q 1191 2003 1191 1497 
Q 1191 994 1439 701 
Q 1688 409 2113 409 
Q 2538 409 2786 701 
Q 3034 994 3034 1497 
Q 3034 2003 2786 2293 
Q 2538 2584 2113 2584 
z
M 3366 4563 
L 3366 3988 
Q 3128 4100 2886 4159 
Q 2644 4219 2406 4219 
Q 1781 4219 1451 3797 
Q 1122 3375 1075 2522 
Q 1259 2794 1537 2939 
Q 1816 3084 2150 3084 
Q 2853 3084 3261 2657 
Q 3669 2231 3669 1497 
Q 3669 778 3244 343 
Q 2819 -91 2113 -91 
Q 1303 -91 875 529 
Q 447 1150 447 2328 
Q 447 3434 972 4092 
Q 1497 4750 2381 4750 
Q 2619 4750 2861 4703 
Q 3103 4656 3366 4563 
z
" transform="scale(0.015625)"/>
       </defs>
       <use xlink:href="#DejaVuSans-36"/>
      </g>
     </g>
    </g>
    <g id="xtick_5">
     <g id="text_5">
      <!-- 8 -->
      <g style="fill: #262626" transform="translate(504.653355 581.965766) scale(0.143 -0.143)">
       <defs>
        <path id="DejaVuSans-38" d="M 2034 2216 
Q 1584 2216 1326 1975 
Q 1069 1734 1069 1313 
Q 1069 891 1326 650 
Q 1584 409 2034 409 
Q 2484 409 2743 651 
Q 3003 894 3003 1313 
Q 3003 1734 2745 1975 
Q 2488 2216 2034 2216 
z
M 1403 2484 
Q 997 2584 770 2862 
Q 544 3141 544 3541 
Q 544 4100 942 4425 
Q 1341 4750 2034 4750 
Q 2731 4750 3128 4425 
Q 3525 4100 3525 3541 
Q 3525 3141 3298 2862 
Q 3072 2584 2669 2484 
Q 3125 2378 3379 2068 
Q 3634 1759 3634 1313 
Q 3634 634 3220 271 
Q 2806 -91 2034 -91 
Q 1263 -91 848 271 
Q 434 634 434 1313 
Q 434 1759 690 2068 
Q 947 2378 1403 2484 
z
M 1172 3481 
Q 1172 3119 1398 2916 
Q 1625 2713 2034 2713 
Q 2441 2713 2670 2916 
Q 2900 3119 2900 3481 
Q 2900 3844 2670 4047 
Q 2441 4250 2034 4250 
Q 1625 4250 1398 4047 
Q 1172 3844 1172 3481 
z
" transform="scale(0.015625)"/>
       </defs>
       <use xlink:href="#DejaVuSans-38"/>
      </g>
     </g>
    </g>
    <g id="xtick_6">
     <g id="text_6">
      <!-- 10 -->
      <g style="fill: #262626" transform="translate(555.239279 581.965766) scale(0.143 -0.143)">
       <defs>
        <path id="DejaVuSans-31" d="M 794 531 
L 1825 531 
L 1825 4091 
L 703 3866 
L 703 4441 
L 1819 4666 
L 2450 4666 
L 2450 531 
L 3481 531 
L 3481 0 
L 794 0 
L 794 531 
z
" transform="scale(0.015625)"/>
       </defs>
       <use xlink:href="#DejaVuSans-31"/>
       <use xlink:href="#DejaVuSans-30" x="63.623047"/>
      </g>
     </g>
    </g>
    <g id="text_7">
     <!-- Average Shannon diversity -->
     <g style="fill: #262626" transform="translate(323.249656 600.793281) scale(0.156 -0.156)">
      <defs>
       <path id="DejaVuSans-41" d="M 2188 4044 
L 1331 1722 
L 3047 1722 
L 2188 4044 
z
M 1831 4666 
L 2547 4666 
L 4325 0 
L 3669 0 
L 3244 1197 
L 1141 1197 
L 716 0 
L 50 0 
L 1831 4666 
z
" transform="scale(0.015625)"/>
       <path id="DejaVuSans-76" d="M 191 3500 
L 800 3500 
L 1894 563 
L 2988 3500 
L 3597 3500 
L 2284 0 
L 1503 0 
L 191 3500 
z
" transform="scale(0.015625)"/>
       <path id="DejaVuSans-65" d="M 3597 1894 
L 3597 1613 
L 953 1613 
Q 991 1019 1311 708 
Q 1631 397 2203 397 
Q 2534 397 2845 478 
Q 3156 559 3463 722 
L 3463 178 
Q 3153 47 2828 -22 
Q 2503 -91 2169 -91 
Q 1331 -91 842 396 
Q 353 884 353 1716 
Q 353 2575 817 3079 
Q 1281 3584 2069 3584 
Q 2775 3584 3186 3129 
Q 3597 2675 3597 1894 
z
M 3022 2063 
Q 3016 2534 2758 2815 
Q 2500 3097 2075 3097 
Q 1594 3097 1305 2825 
Q 1016 2553 972 2059 
L 3022 2063 
z
" transform="scale(0.015625)"/>
       <path id="DejaVuSans-72" d="M 2631 2963 
Q 2534 3019 2420 3045 
Q 2306 3072 2169 3072 
Q 1681 3072 1420 2755 
Q 1159 2438 1159 1844 
L 1159 0 
L 581 0 
L 581 3500 
L 1159 3500 
L 1159 2956 
Q 1341 3275 1631 3429 
Q 1922 3584 2338 3584 
Q 2397 3584 2469 3576 
Q 2541 3569 2628 3553 
L 2631 2963 
z
" transform="scale(0.015625)"/>
       <path id="DejaVuSans-61" d="M 2194 1759 
Q 1497 1759 1228 1600 
Q 959 1441 959 1056 
Q 959 750 1161 570 
Q 1363 391 1709 391 
Q 2188 391 2477 730 
Q 2766 1069 2766 1631 
L 2766 1759 
L 2194 1759 
z
M 3341 1997 
L 3341 0 
L 2766 0 
L 2766 531 
Q 2569 213 2275 61 
Q 1981 -91 1556 -91 
Q 1019 -91 701 211 
Q 384 513 384 1019 
Q 384 1609 779 1909 
Q 1175 2209 1959 2209 
L 2766 2209 
L 2766 2266 
Q 2766 2663 2505 2880 
Q 2244 3097 1772 3097 
Q 1472 3097 1187 3025 
Q 903 2953 641 2809 
L 641 3341 
Q 956 3463 1253 3523 
Q 1550 3584 1831 3584 
Q 2591 3584 2966 3190 
Q 3341 2797 3341 1997 
z
" transform="scale(0.015625)"/>
       <path id="DejaVuSans-67" d="M 2906 1791 
Q 2906 2416 2648 2759 
Q 2391 3103 1925 3103 
Q 1463 3103 1205 2759 
Q 947 2416 947 1791 
Q 947 1169 1205 825 
Q 1463 481 1925 481 
Q 2391 481 2648 825 
Q 2906 1169 2906 1791 
z
M 3481 434 
Q 3481 -459 3084 -895 
Q 2688 -1331 1869 -1331 
Q 1566 -1331 1297 -1286 
Q 1028 -1241 775 -1147 
L 775 -588 
Q 1028 -725 1275 -790 
Q 1522 -856 1778 -856 
Q 2344 -856 2625 -561 
Q 2906 -266 2906 331 
L 2906 616 
Q 2728 306 2450 153 
Q 2172 0 1784 0 
Q 1141 0 747 490 
Q 353 981 353 1791 
Q 353 2603 747 3093 
Q 1141 3584 1784 3584 
Q 2172 3584 2450 3431 
Q 2728 3278 2906 2969 
L 2906 3500 
L 3481 3500 
L 3481 434 
z
" transform="scale(0.015625)"/>
       <path id="DejaVuSans-20" transform="scale(0.015625)"/>
       <path id="DejaVuSans-53" d="M 3425 4513 
L 3425 3897 
Q 3066 4069 2747 4153 
Q 2428 4238 2131 4238 
Q 1616 4238 1336 4038 
Q 1056 3838 1056 3469 
Q 1056 3159 1242 3001 
Q 1428 2844 1947 2747 
L 2328 2669 
Q 3034 2534 3370 2195 
Q 3706 1856 3706 1288 
Q 3706 609 3251 259 
Q 2797 -91 1919 -91 
Q 1588 -91 1214 -16 
Q 841 59 441 206 
L 441 856 
Q 825 641 1194 531 
Q 1563 422 1919 422 
Q 2459 422 2753 634 
Q 3047 847 3047 1241 
Q 3047 1584 2836 1778 
Q 2625 1972 2144 2069 
L 1759 2144 
Q 1053 2284 737 2584 
Q 422 2884 422 3419 
Q 422 4038 858 4394 
Q 1294 4750 2059 4750 
Q 2388 4750 2728 4690 
Q 3069 4631 3425 4513 
z
" transform="scale(0.015625)"/>
       <path id="DejaVuSans-68" d="M 3513 2113 
L 3513 0 
L 2938 0 
L 2938 2094 
Q 2938 2591 2744 2837 
Q 2550 3084 2163 3084 
Q 1697 3084 1428 2787 
Q 1159 2491 1159 1978 
L 1159 0 
L 581 0 
L 581 4863 
L 1159 4863 
L 1159 2956 
Q 1366 3272 1645 3428 
Q 1925 3584 2291 3584 
Q 2894 3584 3203 3211 
Q 3513 2838 3513 2113 
z
" transform="scale(0.015625)"/>
       <path id="DejaVuSans-6e" d="M 3513 2113 
L 3513 0 
L 2938 0 
L 2938 2094 
Q 2938 2591 2744 2837 
Q 2550 3084 2163 3084 
Q 1697 3084 1428 2787 
Q 1159 2491 1159 1978 
L 1159 0 
L 581 0 
L 581 3500 
L 1159 3500 
L 1159 2956 
Q 1366 3272 1645 3428 
Q 1925 3584 2291 3584 
Q 2894 3584 3203 3211 
Q 3513 2838 3513 2113 
z
" transform="scale(0.015625)"/>
       <path id="DejaVuSans-6f" d="M 1959 3097 
Q 1497 3097 1228 2736 
Q 959 2375 959 1747 
Q 959 1119 1226 758 
Q 1494 397 1959 397 
Q 2419 397 2687 759 
Q 2956 1122 2956 1747 
Q 2956 2369 2687 2733 
Q 2419 3097 1959 3097 
z
M 1959 3584 
Q 2709 3584 3137 3096 
Q 3566 2609 3566 1747 
Q 3566 888 3137 398 
Q 2709 -91 1959 -91 
Q 1206 -91 779 398 
Q 353 888 353 1747 
Q 353 2609 779 3096 
Q 1206 3584 1959 3584 
z
" transform="scale(0.015625)"/>
       <path id="DejaVuSans-64" d="M 2906 2969 
L 2906 4863 
L 3481 4863 
L 3481 0 
L 2906 0 
L 2906 525 
Q 2725 213 2448 61 
Q 2172 -91 1784 -91 
Q 1150 -91 751 415 
Q 353 922 353 1747 
Q 353 2572 751 3078 
Q 1150 3584 1784 3584 
Q 2172 3584 2448 3432 
Q 2725 3281 2906 2969 
z
M 947 1747 
Q 947 1113 1208 752 
Q 1469 391 1925 391 
Q 2381 391 2643 752 
Q 2906 1113 2906 1747 
Q 2906 2381 2643 2742 
Q 2381 3103 1925 3103 
Q 1469 3103 1208 2742 
Q 947 2381 947 1747 
z
" transform="scale(0.015625)"/>
       <path id="DejaVuSans-69" d="M 603 3500 
L 1178 3500 
L 1178 0 
L 603 0 
L 603 3500 
z
M 603 4863 
L 1178 4863 
L 1178 4134 
L 603 4134 
L 603 4863 
z
" transform="scale(0.015625)"/>
       <path id="DejaVuSans-73" d="M 2834 3397 
L 2834 2853 
Q 2591 2978 2328 3040 
Q 2066 3103 1784 3103 
Q 1356 3103 1142 2972 
Q 928 2841 928 2578 
Q 928 2378 1081 2264 
Q 1234 2150 1697 2047 
L 1894 2003 
Q 2506 1872 2764 1633 
Q 3022 1394 3022 966 
Q 3022 478 2636 193 
Q 2250 -91 1575 -91 
Q 1294 -91 989 -36 
Q 684 19 347 128 
L 347 722 
Q 666 556 975 473 
Q 1284 391 1588 391 
Q 1994 391 2212 530 
Q 2431 669 2431 922 
Q 2431 1156 2273 1281 
Q 2116 1406 1581 1522 
L 1381 1569 
Q 847 1681 609 1914 
Q 372 2147 372 2553 
Q 372 3047 722 3315 
Q 1072 3584 1716 3584 
Q 2034 3584 2315 3537 
Q 2597 3491 2834 3397 
z
" transform="scale(0.015625)"/>
       <path id="DejaVuSans-74" d="M 1172 4494 
L 1172 3500 
L 2356 3500 
L 2356 3053 
L 1172 3053 
L 1172 1153 
Q 1172 725 1289 603 
Q 1406 481 1766 481 
L 2356 481 
L 2356 0 
L 1766 0 
Q 1100 0 847 248 
Q 594 497 594 1153 
L 594 3053 
L 172 3053 
L 172 3500 
L 594 3500 
L 594 4494 
L 1172 4494 
z
" transform="scale(0.015625)"/>
       <path id="DejaVuSans-79" d="M 2059 -325 
Q 1816 -950 1584 -1140 
Q 1353 -1331 966 -1331 
L 506 -1331 
L 506 -850 
L 844 -850 
Q 1081 -850 1212 -737 
Q 1344 -625 1503 -206 
L 1606 56 
L 191 3500 
L 800 3500 
L 1894 763 
L 2988 3500 
L 3597 3500 
L 2059 -325 
z
" transform="scale(0.015625)"/>
      </defs>
      <use xlink:href="#DejaVuSans-41"/>
      <use xlink:href="#DejaVuSans-76" x="62.533203"/>
      <use xlink:href="#DejaVuSans-65" x="121.712891"/>
      <use xlink:href="#DejaVuSans-72" x="183.236328"/>
      <use xlink:href="#DejaVuSans-61" x="224.349609"/>
      <use xlink:href="#DejaVuSans-67" x="285.628906"/>
      <use xlink:href="#DejaVuSans-65" x="349.105469"/>
      <use xlink:href="#DejaVuSans-20" x="410.628906"/>
      <use xlink:href="#DejaVuSans-53" x="442.416016"/>
      <use xlink:href="#DejaVuSans-68" x="505.892578"/>
      <use xlink:href="#DejaVuSans-61" x="569.271484"/>
      <use xlink:href="#DejaVuSans-6e" x="630.550781"/>
      <use xlink:href="#DejaVuSans-6e" x="693.929688"/>
      <use xlink:href="#DejaVuSans-6f" x="757.308594"/>
      <use xlink:href="#DejaVuSans-6e" x="818.490234"/>
      <use xlink:href="#DejaVuSans-20" x="881.869141"/>
      <use xlink:href="#DejaVuSans-64" x="913.65625"/>
      <use xlink:href="#DejaVuSans-69" x="977.132812"/>
      <use xlink:href="#DejaVuSans-76" x="1004.916016"/>
      <use xlink:href="#DejaVuSans-65" x="1064.095703"/>
      <use xlink:href="#DejaVuSans-72" x="1125.619141"/>
      <use xlink:href="#DejaVuSans-73" x="1166.732422"/>
      <use xlink:href="#DejaVuSans-69" x="1218.832031"/>
      <use xlink:href="#DejaVuSans-74" x="1246.615234"/>
      <use xlink:href="#DejaVuSans-79" x="1285.824219"/>
     </g>
    </g>
   </g>
   <g id="matplotlib.axis_2">
    <g id="ytick_1">
     <g id="text_8">
      <!-- urban -->
      <g style="fill: #262626" transform="translate(237.316719 29.957883) scale(0.143 -0.143)">
       <defs>
        <path id="DejaVuSans-75" d="M 544 1381 
L 544 3500 
L 1119 3500 
L 1119 1403 
Q 1119 906 1312 657 
Q 1506 409 1894 409 
Q 2359 409 2629 706 
Q 2900 1003 2900 1516 
L 2900 3500 
L 3475 3500 
L 3475 0 
L 2900 0 
L 2900 538 
Q 2691 219 2414 64 
Q 2138 -91 1772 -91 
Q 1169 -91 856 284 
Q 544 659 544 1381 
z
M 1991 3584 
L 1991 3584 
z
" transform="scale(0.015625)"/>
        <path id="DejaVuSans-62" d="M 3116 1747 
Q 3116 2381 2855 2742 
Q 2594 3103 2138 3103 
Q 1681 3103 1420 2742 
Q 1159 2381 1159 1747 
Q 1159 1113 1420 752 
Q 1681 391 2138 391 
Q 2594 391 2855 752 
Q 3116 1113 3116 1747 
z
M 1159 2969 
Q 1341 3281 1617 3432 
Q 1894 3584 2278 3584 
Q 2916 3584 3314 3078 
Q 3713 2572 3713 1747 
Q 3713 922 3314 415 
Q 2916 -91 2278 -91 
Q 1894 -91 1617 61 
Q 1341 213 1159 525 
L 1159 0 
L 581 0 
L 581 4863 
L 1159 4863 
L 1159 2969 
z
" transform="scale(0.015625)"/>
       </defs>
       <use xlink:href="#DejaVuSans-75"/>
       <use xlink:href="#DejaVuSans-72" x="63.378906"/>
       <use xlink:href="#DejaVuSans-62" x="104.492188"/>
       <use xlink:href="#DejaVuSans-61" x="167.96875"/>
       <use xlink:href="#DejaVuSans-6e" x="229.248047"/>
      </g>
     </g>
    </g>
    <g id="ytick_2">
     <g id="text_9">
      <!-- forest -->
      <g style="fill: #262626" transform="translate(237.966922 64.607883) scale(0.143 -0.143)">
       <defs>
        <path id="DejaVuSans-66" d="M 2375 4863 
L 2375 4384 
L 1825 4384 
Q 1516 4384 1395 4259 
Q 1275 4134 1275 3809 
L 1275 3500 
L 2222 3500 
L 2222 3053 
L 1275 3053 
L 1275 0 
L 697 0 
L 697 3053 
L 147 3053 
L 147 3500 
L 697 3500 
L 697 3744 
Q 697 4328 969 4595 
Q 1241 4863 1831 4863 
L 2375 4863 
z
" transform="scale(0.015625)"/>
       </defs>
       <use xlink:href="#DejaVuSans-66"/>
       <use xlink:href="#DejaVuSans-6f" x="35.205078"/>
       <use xlink:href="#DejaVuSans-72" x="96.386719"/>
       <use xlink:href="#DejaVuSans-65" x="135.25"/>
       <use xlink:href="#DejaVuSans-73" x="196.773438"/>
       <use xlink:href="#DejaVuSans-74" x="248.873047"/>
      </g>
     </g>
    </g>
    <g id="ytick_3">
     <g id="text_10">
      <!-- montane grasslands and shrubland -->
      <g style="fill: #262626" transform="translate(26.297875 99.257883) scale(0.143 -0.143)">
       <defs>
        <path id="DejaVuSans-6d" d="M 3328 2828 
Q 3544 3216 3844 3400 
Q 4144 3584 4550 3584 
Q 5097 3584 5394 3201 
Q 5691 2819 5691 2113 
L 5691 0 
L 5113 0 
L 5113 2094 
Q 5113 2597 4934 2840 
Q 4756 3084 4391 3084 
Q 3944 3084 3684 2787 
Q 3425 2491 3425 1978 
L 3425 0 
L 2847 0 
L 2847 2094 
Q 2847 2600 2669 2842 
Q 2491 3084 2119 3084 
Q 1678 3084 1418 2786 
Q 1159 2488 1159 1978 
L 1159 0 
L 581 0 
L 581 3500 
L 1159 3500 
L 1159 2956 
Q 1356 3278 1631 3431 
Q 1906 3584 2284 3584 
Q 2666 3584 2933 3390 
Q 3200 3197 3328 2828 
z
" transform="scale(0.015625)"/>
        <path id="DejaVuSans-6c" d="M 603 4863 
L 1178 4863 
L 1178 0 
L 603 0 
L 603 4863 
z
" transform="scale(0.015625)"/>
       </defs>
       <use xlink:href="#DejaVuSans-6d"/>
       <use xlink:href="#DejaVuSans-6f" x="97.412109"/>
       <use xlink:href="#DejaVuSans-6e" x="158.59375"/>
       <use xlink:href="#DejaVuSans-74" x="221.972656"/>
       <use xlink:href="#DejaVuSans-61" x="261.181641"/>
       <use xlink:href="#DejaVuSans-6e" x="322.460938"/>
       <use xlink:href="#DejaVuSans-65" x="385.839844"/>
       <use xlink:href="#DejaVuSans-20" x="447.363281"/>
       <use xlink:href="#DejaVuSans-67" x="479.150391"/>
       <use xlink:href="#DejaVuSans-72" x="542.626953"/>
       <use xlink:href="#DejaVuSans-61" x="583.740234"/>
       <use xlink:href="#DejaVuSans-73" x="645.019531"/>
       <use xlink:href="#DejaVuSans-73" x="697.119141"/>
       <use xlink:href="#DejaVuSans-6c" x="749.21875"/>
       <use xlink:href="#DejaVuSans-61" x="777.001953"/>
       <use xlink:href="#DejaVuSans-6e" x="838.28125"/>
       <use xlink:href="#DejaVuSans-64" x="901.660156"/>
       <use xlink:href="#DejaVuSans-73" x="965.136719"/>
       <use xlink:href="#DejaVuSans-20" x="1017.236328"/>
       <use xlink:href="#DejaVuSans-61" x="1049.023438"/>
       <use xlink:href="#DejaVuSans-6e" x="1110.302734"/>
       <use xlink:href="#DejaVuSans-64" x="1173.681641"/>
       <use xlink:href="#DejaVuSans-20" x="1237.158203"/>
       <use xlink:href="#DejaVuSans-73" x="1268.945312"/>
       <use xlink:href="#DejaVuSans-68" x="1321.044922"/>
       <use xlink:href="#DejaVuSans-72" x="1384.423828"/>
       <use xlink:href="#DejaVuSans-75" x="1425.537109"/>
       <use xlink:href="#DejaVuSans-62" x="1488.916016"/>
       <use xlink:href="#DejaVuSans-6c" x="1552.392578"/>
       <use xlink:href="#DejaVuSans-61" x="1580.175781"/>
       <use xlink:href="#DejaVuSans-6e" x="1641.455078"/>
       <use xlink:href="#DejaVuSans-64" x="1704.833984"/>
      </g>
     </g>
    </g>
    <g id="ytick_4">
     <g id="text_11">
      <!-- tropical desert -->
      <g style="fill: #262626" transform="translate(175.444641 133.907883) scale(0.143 -0.143)">
       <defs>
        <path id="DejaVuSans-70" d="M 1159 525 
L 1159 -1331 
L 581 -1331 
L 581 3500 
L 1159 3500 
L 1159 2969 
Q 1341 3281 1617 3432 
Q 1894 3584 2278 3584 
Q 2916 3584 3314 3078 
Q 3713 2572 3713 1747 
Q 3713 922 3314 415 
Q 2916 -91 2278 -91 
Q 1894 -91 1617 61 
Q 1341 213 1159 525 
z
M 3116 1747 
Q 3116 2381 2855 2742 
Q 2594 3103 2138 3103 
Q 1681 3103 1420 2742 
Q 1159 2381 1159 1747 
Q 1159 1113 1420 752 
Q 1681 391 2138 391 
Q 2594 391 2855 752 
Q 3116 1113 3116 1747 
z
" transform="scale(0.015625)"/>
        <path id="DejaVuSans-63" d="M 3122 3366 
L 3122 2828 
Q 2878 2963 2633 3030 
Q 2388 3097 2138 3097 
Q 1578 3097 1268 2742 
Q 959 2388 959 1747 
Q 959 1106 1268 751 
Q 1578 397 2138 397 
Q 2388 397 2633 464 
Q 2878 531 3122 666 
L 3122 134 
Q 2881 22 2623 -34 
Q 2366 -91 2075 -91 
Q 1284 -91 818 406 
Q 353 903 353 1747 
Q 353 2603 823 3093 
Q 1294 3584 2113 3584 
Q 2378 3584 2631 3529 
Q 2884 3475 3122 3366 
z
" transform="scale(0.015625)"/>
       </defs>
       <use xlink:href="#DejaVuSans-74"/>
       <use xlink:href="#DejaVuSans-72" x="39.208984"/>
       <use xlink:href="#DejaVuSans-6f" x="78.072266"/>
       <use xlink:href="#DejaVuSans-70" x="139.253906"/>
       <use xlink:href="#DejaVuSans-69" x="202.730469"/>
       <use xlink:href="#DejaVuSans-63" x="230.513672"/>
       <use xlink:href="#DejaVuSans-61" x="285.494141"/>
       <use xlink:href="#DejaVuSans-6c" x="346.773438"/>
       <use xlink:href="#DejaVuSans-20" x="374.556641"/>
       <use xlink:href="#DejaVuSans-64" x="406.34375"/>
       <use xlink:href="#DejaVuSans-65" x="469.820312"/>
       <use xlink:href="#DejaVuSans-73" x="531.34375"/>
       <use xlink:href="#DejaVuSans-65" x="583.443359"/>
       <use xlink:href="#DejaVuSans-72" x="644.966797"/>
       <use xlink:href="#DejaVuSans-74" x="686.080078"/>
      </g>
     </g>
    </g>
    <g id="ytick_5">
     <g id="text_12">
      <!-- temperate desert -->
      <g style="fill: #262626" transform="translate(153.748859 168.557883) scale(0.143 -0.143)">
       <use xlink:href="#DejaVuSans-74"/>
       <use xlink:href="#DejaVuSans-65" x="39.208984"/>
       <use xlink:href="#DejaVuSans-6d" x="100.732422"/>
       <use xlink:href="#DejaVuSans-70" x="198.144531"/>
       <use xlink:href="#DejaVuSans-65" x="261.621094"/>
       <use xlink:href="#DejaVuSans-72" x="323.144531"/>
       <use xlink:href="#DejaVuSans-61" x="364.257812"/>
       <use xlink:href="#DejaVuSans-74" x="425.537109"/>
       <use xlink:href="#DejaVuSans-65" x="464.746094"/>
       <use xlink:href="#DejaVuSans-20" x="526.269531"/>
       <use xlink:href="#DejaVuSans-64" x="558.056641"/>
       <use xlink:href="#DejaVuSans-65" x="621.533203"/>
       <use xlink:href="#DejaVuSans-73" x="683.056641"/>
       <use xlink:href="#DejaVuSans-65" x="735.15625"/>
       <use xlink:href="#DejaVuSans-72" x="796.679688"/>
       <use xlink:href="#DejaVuSans-74" x="837.792969"/>
      </g>
     </g>
    </g>
    <g id="ytick_6">
     <g id="text_13">
      <!-- temperate coniferous forest -->
      <g style="fill: #262626" transform="translate(79.319594 203.207883) scale(0.143 -0.143)">
       <use xlink:href="#DejaVuSans-74"/>
       <use xlink:href="#DejaVuSans-65" x="39.208984"/>
       <use xlink:href="#DejaVuSans-6d" x="100.732422"/>
       <use xlink:href="#DejaVuSans-70" x="198.144531"/>
       <use xlink:href="#DejaVuSans-65" x="261.621094"/>
       <use xlink:href="#DejaVuSans-72" x="323.144531"/>
       <use xlink:href="#DejaVuSans-61" x="364.257812"/>
       <use xlink:href="#DejaVuSans-74" x="425.537109"/>
       <use xlink:href="#DejaVuSans-65" x="464.746094"/>
       <use xlink:href="#DejaVuSans-20" x="526.269531"/>
       <use xlink:href="#DejaVuSans-63" x="558.056641"/>
       <use xlink:href="#DejaVuSans-6f" x="613.037109"/>
       <use xlink:href="#DejaVuSans-6e" x="674.21875"/>
       <use xlink:href="#DejaVuSans-69" x="737.597656"/>
       <use xlink:href="#DejaVuSans-66" x="765.380859"/>
       <use xlink:href="#DejaVuSans-65" x="800.585938"/>
       <use xlink:href="#DejaVuSans-72" x="862.109375"/>
       <use xlink:href="#DejaVuSans-6f" x="900.972656"/>
       <use xlink:href="#DejaVuSans-75" x="962.154297"/>
       <use xlink:href="#DejaVuSans-73" x="1025.533203"/>
       <use xlink:href="#DejaVuSans-20" x="1077.632812"/>
       <use xlink:href="#DejaVuSans-66" x="1109.419922"/>
       <use xlink:href="#DejaVuSans-6f" x="1144.625"/>
       <use xlink:href="#DejaVuSans-72" x="1205.806641"/>
       <use xlink:href="#DejaVuSans-65" x="1244.669922"/>
       <use xlink:href="#DejaVuSans-73" x="1306.193359"/>
       <use xlink:href="#DejaVuSans-74" x="1358.292969"/>
      </g>
     </g>
    </g>
    <g id="ytick_7">
     <g id="text_14">
      <!-- temperate grassland -->
      <g style="fill: #262626" transform="translate(129.863391 237.857883) scale(0.143 -0.143)">
       <use xlink:href="#DejaVuSans-74"/>
       <use xlink:href="#DejaVuSans-65" x="39.208984"/>
       <use xlink:href="#DejaVuSans-6d" x="100.732422"/>
       <use xlink:href="#DejaVuSans-70" x="198.144531"/>
       <use xlink:href="#DejaVuSans-65" x="261.621094"/>
       <use xlink:href="#DejaVuSans-72" x="323.144531"/>
       <use xlink:href="#DejaVuSans-61" x="364.257812"/>
       <use xlink:href="#DejaVuSans-74" x="425.537109"/>
       <use xlink:href="#DejaVuSans-65" x="464.746094"/>
       <use xlink:href="#DejaVuSans-20" x="526.269531"/>
       <use xlink:href="#DejaVuSans-67" x="558.056641"/>
       <use xlink:href="#DejaVuSans-72" x="621.533203"/>
       <use xlink:href="#DejaVuSans-61" x="662.646484"/>
       <use xlink:href="#DejaVuSans-73" x="723.925781"/>
       <use xlink:href="#DejaVuSans-73" x="776.025391"/>
       <use xlink:href="#DejaVuSans-6c" x="828.125"/>
       <use xlink:href="#DejaVuSans-61" x="855.908203"/>
       <use xlink:href="#DejaVuSans-6e" x="917.1875"/>
       <use xlink:href="#DejaVuSans-64" x="980.566406"/>
      </g>
     </g>
    </g>
    <g id="ytick_8">
     <g id="text_15">
      <!-- cropland -->
      <g style="fill: #262626" transform="translate(217.037531 272.507883) scale(0.143 -0.143)">
       <use xlink:href="#DejaVuSans-63"/>
       <use xlink:href="#DejaVuSans-72" x="54.980469"/>
       <use xlink:href="#DejaVuSans-6f" x="93.84375"/>
       <use xlink:href="#DejaVuSans-70" x="155.025391"/>
       <use xlink:href="#DejaVuSans-6c" x="218.501953"/>
       <use xlink:href="#DejaVuSans-61" x="246.285156"/>
       <use xlink:href="#DejaVuSans-6e" x="307.564453"/>
       <use xlink:href="#DejaVuSans-64" x="370.943359"/>
      </g>
     </g>
    </g>
    <g id="ytick_9">
     <g id="text_16">
      <!-- rangeland -->
      <g style="fill: #262626" transform="translate(206.703547 307.157883) scale(0.143 -0.143)">
       <use xlink:href="#DejaVuSans-72"/>
       <use xlink:href="#DejaVuSans-61" x="41.113281"/>
       <use xlink:href="#DejaVuSans-6e" x="102.392578"/>
       <use xlink:href="#DejaVuSans-67" x="165.771484"/>
       <use xlink:href="#DejaVuSans-65" x="229.248047"/>
       <use xlink:href="#DejaVuSans-6c" x="290.771484"/>
       <use xlink:href="#DejaVuSans-61" x="318.554688"/>
       <use xlink:href="#DejaVuSans-6e" x="379.833984"/>
       <use xlink:href="#DejaVuSans-64" x="443.212891"/>
      </g>
     </g>
    </g>
    <g id="ytick_10">
     <g id="text_17">
      <!-- temperate woodland -->
      <g style="fill: #262626" transform="translate(130.209719 341.807883) scale(0.143 -0.143)">
       <defs>
        <path id="DejaVuSans-77" d="M 269 3500 
L 844 3500 
L 1563 769 
L 2278 3500 
L 2956 3500 
L 3675 769 
L 4391 3500 
L 4966 3500 
L 4050 0 
L 3372 0 
L 2619 2869 
L 1863 0 
L 1184 0 
L 269 3500 
z
" transform="scale(0.015625)"/>
       </defs>
       <use xlink:href="#DejaVuSans-74"/>
       <use xlink:href="#DejaVuSans-65" x="39.208984"/>
       <use xlink:href="#DejaVuSans-6d" x="100.732422"/>
       <use xlink:href="#DejaVuSans-70" x="198.144531"/>
       <use xlink:href="#DejaVuSans-65" x="261.621094"/>
       <use xlink:href="#DejaVuSans-72" x="323.144531"/>
       <use xlink:href="#DejaVuSans-61" x="364.257812"/>
       <use xlink:href="#DejaVuSans-74" x="425.537109"/>
       <use xlink:href="#DejaVuSans-65" x="464.746094"/>
       <use xlink:href="#DejaVuSans-20" x="526.269531"/>
       <use xlink:href="#DejaVuSans-77" x="558.056641"/>
       <use xlink:href="#DejaVuSans-6f" x="639.84375"/>
       <use xlink:href="#DejaVuSans-6f" x="701.025391"/>
       <use xlink:href="#DejaVuSans-64" x="762.207031"/>
       <use xlink:href="#DejaVuSans-6c" x="825.683594"/>
       <use xlink:href="#DejaVuSans-61" x="853.466797"/>
       <use xlink:href="#DejaVuSans-6e" x="914.746094"/>
       <use xlink:href="#DejaVuSans-64" x="978.125"/>
      </g>
     </g>
    </g>
    <g id="ytick_11">
     <g id="text_18">
      <!-- temperate shrubland -->
      <g style="fill: #262626" transform="translate(127.950766 376.457883) scale(0.143 -0.143)">
       <use xlink:href="#DejaVuSans-74"/>
       <use xlink:href="#DejaVuSans-65" x="39.208984"/>
       <use xlink:href="#DejaVuSans-6d" x="100.732422"/>
       <use xlink:href="#DejaVuSans-70" x="198.144531"/>
       <use xlink:href="#DejaVuSans-65" x="261.621094"/>
       <use xlink:href="#DejaVuSans-72" x="323.144531"/>
       <use xlink:href="#DejaVuSans-61" x="364.257812"/>
       <use xlink:href="#DejaVuSans-74" x="425.537109"/>
       <use xlink:href="#DejaVuSans-65" x="464.746094"/>
       <use xlink:href="#DejaVuSans-20" x="526.269531"/>
       <use xlink:href="#DejaVuSans-73" x="558.056641"/>
       <use xlink:href="#DejaVuSans-68" x="610.15625"/>
       <use xlink:href="#DejaVuSans-72" x="673.535156"/>
       <use xlink:href="#DejaVuSans-75" x="714.648438"/>
       <use xlink:href="#DejaVuSans-62" x="778.027344"/>
       <use xlink:href="#DejaVuSans-6c" x="841.503906"/>
       <use xlink:href="#DejaVuSans-61" x="869.287109"/>
       <use xlink:href="#DejaVuSans-6e" x="930.566406"/>
       <use xlink:href="#DejaVuSans-64" x="993.945312"/>
      </g>
     </g>
    </g>
    <g id="ytick_12">
     <g id="text_19">
      <!-- tundra -->
      <g style="fill: #262626" transform="translate(231.710672 411.107883) scale(0.143 -0.143)">
       <use xlink:href="#DejaVuSans-74"/>
       <use xlink:href="#DejaVuSans-75" x="39.208984"/>
       <use xlink:href="#DejaVuSans-6e" x="102.587891"/>
       <use xlink:href="#DejaVuSans-64" x="165.966797"/>
       <use xlink:href="#DejaVuSans-72" x="229.443359"/>
       <use xlink:href="#DejaVuSans-61" x="270.556641"/>
      </g>
     </g>
    </g>
    <g id="ytick_13">
     <g id="text_20">
      <!-- marine salt marsh -->
      <g style="fill: #262626" transform="translate(148.793016 445.757883) scale(0.143 -0.143)">
       <use xlink:href="#DejaVuSans-6d"/>
       <use xlink:href="#DejaVuSans-61" x="97.412109"/>
       <use xlink:href="#DejaVuSans-72" x="158.691406"/>
       <use xlink:href="#DejaVuSans-69" x="199.804688"/>
       <use xlink:href="#DejaVuSans-6e" x="227.587891"/>
       <use xlink:href="#DejaVuSans-65" x="290.966797"/>
       <use xlink:href="#DejaVuSans-20" x="352.490234"/>
       <use xlink:href="#DejaVuSans-73" x="384.277344"/>
       <use xlink:href="#DejaVuSans-61" x="436.376953"/>
       <use xlink:href="#DejaVuSans-6c" x="497.65625"/>
       <use xlink:href="#DejaVuSans-74" x="525.439453"/>
       <use xlink:href="#DejaVuSans-20" x="564.648438"/>
       <use xlink:href="#DejaVuSans-6d" x="596.435547"/>
       <use xlink:href="#DejaVuSans-61" x="693.847656"/>
       <use xlink:href="#DejaVuSans-72" x="755.126953"/>
       <use xlink:href="#DejaVuSans-73" x="796.240234"/>
       <use xlink:href="#DejaVuSans-68" x="848.339844"/>
      </g>
     </g>
    </g>
    <g id="ytick_14">
     <g id="text_21">
      <!-- desert -->
      <g style="fill: #262626" transform="translate(233.551797 480.407883) scale(0.143 -0.143)">
       <use xlink:href="#DejaVuSans-64"/>
       <use xlink:href="#DejaVuSans-65" x="63.476562"/>
       <use xlink:href="#DejaVuSans-73" x="125"/>
       <use xlink:href="#DejaVuSans-65" x="177.099609"/>
       <use xlink:href="#DejaVuSans-72" x="238.623047"/>
       <use xlink:href="#DejaVuSans-74" x="279.736328"/>
      </g>
     </g>
    </g>
    <g id="ytick_15">
     <g id="text_22">
      <!-- anthropogenic terrestrial -->
      <g style="fill: #262626" transform="translate(101.180719 515.057883) scale(0.143 -0.143)">
       <use xlink:href="#DejaVuSans-61"/>
       <use xlink:href="#DejaVuSans-6e" x="61.279297"/>
       <use xlink:href="#DejaVuSans-74" x="124.658203"/>
       <use xlink:href="#DejaVuSans-68" x="163.867188"/>
       <use xlink:href="#DejaVuSans-72" x="227.246094"/>
       <use xlink:href="#DejaVuSans-6f" x="266.109375"/>
       <use xlink:href="#DejaVuSans-70" x="327.291016"/>
       <use xlink:href="#DejaVuSans-6f" x="390.767578"/>
       <use xlink:href="#DejaVuSans-67" x="451.949219"/>
       <use xlink:href="#DejaVuSans-65" x="515.425781"/>
       <use xlink:href="#DejaVuSans-6e" x="576.949219"/>
       <use xlink:href="#DejaVuSans-69" x="640.328125"/>
       <use xlink:href="#DejaVuSans-63" x="668.111328"/>
       <use xlink:href="#DejaVuSans-20" x="723.091797"/>
       <use xlink:href="#DejaVuSans-74" x="754.878906"/>
       <use xlink:href="#DejaVuSans-65" x="794.087891"/>
       <use xlink:href="#DejaVuSans-72" x="855.611328"/>
       <use xlink:href="#DejaVuSans-72" x="894.974609"/>
       <use xlink:href="#DejaVuSans-65" x="933.837891"/>
       <use xlink:href="#DejaVuSans-73" x="995.361328"/>
       <use xlink:href="#DejaVuSans-74" x="1047.460938"/>
       <use xlink:href="#DejaVuSans-72" x="1086.669922"/>
       <use xlink:href="#DejaVuSans-69" x="1127.783203"/>
       <use xlink:href="#DejaVuSans-61" x="1155.566406"/>
       <use xlink:href="#DejaVuSans-6c" x="1216.845703"/>
      </g>
     </g>
    </g>
    <g id="ytick_16">
     <g id="text_23">
      <!-- subpolar coniferous forest -->
      <g style="fill: #262626" transform="translate(92.544859 549.707883) scale(0.143 -0.143)">
       <use xlink:href="#DejaVuSans-73"/>
       <use xlink:href="#DejaVuSans-75" x="52.099609"/>
       <use xlink:href="#DejaVuSans-62" x="115.478516"/>
       <use xlink:href="#DejaVuSans-70" x="178.955078"/>
       <use xlink:href="#DejaVuSans-6f" x="242.431641"/>
       <use xlink:href="#DejaVuSans-6c" x="303.613281"/>
       <use xlink:href="#DejaVuSans-61" x="331.396484"/>
       <use xlink:href="#DejaVuSans-72" x="392.675781"/>
       <use xlink:href="#DejaVuSans-20" x="433.789062"/>
       <use xlink:href="#DejaVuSans-63" x="465.576172"/>
       <use xlink:href="#DejaVuSans-6f" x="520.556641"/>
       <use xlink:href="#DejaVuSans-6e" x="581.738281"/>
       <use xlink:href="#DejaVuSans-69" x="645.117188"/>
       <use xlink:href="#DejaVuSans-66" x="672.900391"/>
       <use xlink:href="#DejaVuSans-65" x="708.105469"/>
       <use xlink:href="#DejaVuSans-72" x="769.628906"/>
       <use xlink:href="#DejaVuSans-6f" x="808.492188"/>
       <use xlink:href="#DejaVuSans-75" x="869.673828"/>
       <use xlink:href="#DejaVuSans-73" x="933.052734"/>
       <use xlink:href="#DejaVuSans-20" x="985.152344"/>
       <use xlink:href="#DejaVuSans-66" x="1016.939453"/>
       <use xlink:href="#DejaVuSans-6f" x="1052.144531"/>
       <use xlink:href="#DejaVuSans-72" x="1113.326172"/>
       <use xlink:href="#DejaVuSans-65" x="1152.189453"/>
       <use xlink:href="#DejaVuSans-73" x="1213.712891"/>
       <use xlink:href="#DejaVuSans-74" x="1265.8125"/>
      </g>
     </g>
    </g>
    <g id="text_24">
     <!-- Biome -->
     <g style="fill: #262626" transform="translate(19.053563 309.088219) rotate(-90) scale(0.156 -0.156)">
      <defs>
       <path id="DejaVuSans-42" d="M 1259 2228 
L 1259 519 
L 2272 519 
Q 2781 519 3026 730 
Q 3272 941 3272 1375 
Q 3272 1813 3026 2020 
Q 2781 2228 2272 2228 
L 1259 2228 
z
M 1259 4147 
L 1259 2741 
L 2194 2741 
Q 2656 2741 2882 2914 
Q 3109 3088 3109 3444 
Q 3109 3797 2882 3972 
Q 2656 4147 2194 4147 
L 1259 4147 
z
M 628 4666 
L 2241 4666 
Q 2963 4666 3353 4366 
Q 3744 4066 3744 3513 
Q 3744 3084 3544 2831 
Q 3344 2578 2956 2516 
Q 3422 2416 3680 2098 
Q 3938 1781 3938 1306 
Q 3938 681 3513 340 
Q 3088 0 2303 0 
L 628 0 
L 628 4666 
z
" transform="scale(0.015625)"/>
      </defs>
      <use xlink:href="#DejaVuSans-42"/>
      <use xlink:href="#DejaVuSans-69" x="68.603516"/>
      <use xlink:href="#DejaVuSans-6f" x="96.386719"/>
      <use xlink:href="#DejaVuSans-6d" x="157.568359"/>
      <use xlink:href="#DejaVuSans-65" x="254.980469"/>
     </g>
    </g>
   </g>
   <g id="patch_3">
    <path d="M 288.662094 10.665 
L 529.77483 10.665 
L 529.77483 38.385 
L 288.662094 38.385 
z
" clip-path="url(#p4f605352bf)" style="fill: #759adc; stroke: #ffffff; stroke-linejoin: miter"/>
   </g>
   <g id="patch_4">
    <path d="M 288.662094 45.315 
L 455.011807 45.315 
L 455.011807 73.035 
L 288.662094 73.035 
z
" clip-path="url(#p4f605352bf)" style="fill: #759adc; stroke: #ffffff; stroke-linejoin: miter"/>
   </g>
   <g id="patch_5">
    <path d="M 288.662094 79.965 
L 543.939452 79.965 
L 543.939452 107.685 
L 288.662094 107.685 
z
" clip-path="url(#p4f605352bf)" style="fill: #759adc; stroke: #ffffff; stroke-linejoin: miter"/>
   </g>
   <g id="patch_6">
    <path d="M 288.662094 114.615 
L 514.960126 114.615 
L 514.960126 142.335 
L 288.662094 142.335 
z
" clip-path="url(#p4f605352bf)" style="fill: #759adc; stroke: #ffffff; stroke-linejoin: miter"/>
   </g>
   <g id="patch_7">
    <path d="M 288.662094 149.265 
L 478.611408 149.265 
L 478.611408 176.985 
L 288.662094 176.985 
z
" clip-path="url(#p4f605352bf)" style="fill: #759adc; stroke: #ffffff; stroke-linejoin: miter"/>
   </g>
   <g id="patch_8">
    <path d="M 288.662094 183.915 
L 501.588123 183.915 
L 501.588123 211.635 
L 288.662094 211.635 
z
" clip-path="url(#p4f605352bf)" style="fill: #759adc; stroke: #ffffff; stroke-linejoin: miter"/>
   </g>
   <g id="patch_9">
    <path d="M 288.662094 218.565 
L 520.669306 218.565 
L 520.669306 246.285 
L 288.662094 246.285 
z
" clip-path="url(#p4f605352bf)" style="fill: #759adc; stroke: #ffffff; stroke-linejoin: miter"/>
   </g>
   <g id="patch_10">
    <path d="M 288.662094 253.215 
L 522.715073 253.215 
L 522.715073 280.935 
L 288.662094 280.935 
z
" clip-path="url(#p4f605352bf)" style="fill: #759adc; stroke: #ffffff; stroke-linejoin: miter"/>
   </g>
   <g id="patch_11">
    <path d="M 288.662094 287.865 
L 525.433155 287.865 
L 525.433155 315.585 
L 288.662094 315.585 
z
" clip-path="url(#p4f605352bf)" style="fill: #759adc; stroke: #ffffff; stroke-linejoin: miter"/>
   </g>
   <g id="patch_12">
    <path d="M 288.662094 322.515 
L 519.464485 322.515 
L 519.464485 350.235 
L 288.662094 350.235 
z
" clip-path="url(#p4f605352bf)" style="fill: #759adc; stroke: #ffffff; stroke-linejoin: miter"/>
   </g>
   <g id="patch_13">
    <path d="M 288.662094 357.165 
L 522.905089 357.165 
L 522.905089 384.885 
L 288.662094 384.885 
z
" clip-path="url(#p4f605352bf)" style="fill: #759adc; stroke: #ffffff; stroke-linejoin: miter"/>
   </g>
   <g id="patch_14">
    <path d="M 288.662094 391.815 
L 507.335649 391.815 
L 507.335649 419.535 
L 288.662094 419.535 
z
" clip-path="url(#p4f605352bf)" style="fill: #759adc; stroke: #ffffff; stroke-linejoin: miter"/>
   </g>
   <g id="patch_15">
    <path d="M 288.662094 426.465 
L 473.760422 426.465 
L 473.760422 454.185 
L 288.662094 454.185 
z
" clip-path="url(#p4f605352bf)" style="fill: #759adc; stroke: #ffffff; stroke-linejoin: miter"/>
   </g>
   <g id="patch_16">
    <path d="M 288.662094 461.115 
L 512.26239 461.115 
L 512.26239 488.835 
L 288.662094 488.835 
z
" clip-path="url(#p4f605352bf)" style="fill: #759adc; stroke: #ffffff; stroke-linejoin: miter"/>
   </g>
   <g id="patch_17">
    <path d="M 288.662094 495.765 
L 487.942393 495.765 
L 487.942393 523.485 
L 288.662094 523.485 
z
" clip-path="url(#p4f605352bf)" style="fill: #759adc; stroke: #ffffff; stroke-linejoin: miter"/>
   </g>
   <g id="patch_18">
    <path d="M 288.662094 530.415 
L 515.404013 530.415 
L 515.404013 558.135 
L 288.662094 558.135 
z
" clip-path="url(#p4f605352bf)" style="fill: #759adc; stroke: #ffffff; stroke-linejoin: miter"/>
   </g>
   <g id="line2d_1">
    <path d="M 518.563976 24.525 
L 546.415719 24.525 
" clip-path="url(#p4f605352bf)" style="fill: none; stroke: #424242; stroke-width: 2.7; stroke-linecap: round"/>
   </g>
   <g id="line2d_2">
    <path d="M 442.667903 59.175 
L 465.132138 59.175 
" clip-path="url(#p4f605352bf)" style="fill: none; stroke: #424242; stroke-width: 2.7; stroke-linecap: round"/>
   </g>
   <g id="line2d_3">
    <path d="M 538.910745 93.825 
L 549.849358 93.825 
" clip-path="url(#p4f605352bf)" style="fill: none; stroke: #424242; stroke-width: 2.7; stroke-linecap: round"/>
   </g>
   <g id="line2d_4">
    <path d="M 486.858904 128.475 
L 539.758983 128.475 
" clip-path="url(#p4f605352bf)" style="fill: none; stroke: #424242; stroke-width: 2.7; stroke-linecap: round"/>
   </g>
   <g id="line2d_5">
    <path d="M 395.723566 163.125 
L 554.376379 163.125 
" clip-path="url(#p4f605352bf)" style="fill: none; stroke: #424242; stroke-width: 2.7; stroke-linecap: round"/>
   </g>
   <g id="line2d_6">
    <path d="M 467.342955 197.775 
L 529.340702 197.775 
" clip-path="url(#p4f605352bf)" style="fill: none; stroke: #424242; stroke-width: 2.7; stroke-linecap: round"/>
   </g>
   <g id="line2d_7">
    <path d="M 499.525088 232.425 
L 541.710986 232.425 
" clip-path="url(#p4f605352bf)" style="fill: none; stroke: #424242; stroke-width: 2.7; stroke-linecap: round"/>
   </g>
   <g id="line2d_8">
    <path d="M 501.498318 267.075 
L 538.338413 267.075 
" clip-path="url(#p4f605352bf)" style="fill: none; stroke: #424242; stroke-width: 2.7; stroke-linecap: round"/>
   </g>
   <g id="line2d_9">
    <path d="M 504.186173 301.725 
L 539.318727 301.725 
" clip-path="url(#p4f605352bf)" style="fill: none; stroke: #424242; stroke-width: 2.7; stroke-linecap: round"/>
   </g>
   <g id="line2d_10">
    <path d="M 512.492521 336.375 
L 526.436448 336.375 
" clip-path="url(#p4f605352bf)" style="fill: none; stroke: #424242; stroke-width: 2.7; stroke-linecap: round"/>
   </g>
   <g id="line2d_11">
    <path clip-path="url(#p4f605352bf)" style="fill: none; stroke: #424242; stroke-width: 2.7; stroke-linecap: round"/>
   </g>
   <g id="line2d_12">
    <path d="M 492.403537 405.675 
L 521.350594 405.675 
" clip-path="url(#p4f605352bf)" style="fill: none; stroke: #424242; stroke-width: 2.7; stroke-linecap: round"/>
   </g>
   <g id="line2d_13">
    <path d="M 460.425125 440.325 
L 486.118347 440.325 
" clip-path="url(#p4f605352bf)" style="fill: none; stroke: #424242; stroke-width: 2.7; stroke-linecap: round"/>
   </g>
   <g id="line2d_14">
    <path d="M 503.132922 474.975 
L 522.380706 474.975 
" clip-path="url(#p4f605352bf)" style="fill: none; stroke: #424242; stroke-width: 2.7; stroke-linecap: round"/>
   </g>
   <g id="line2d_15">
    <path d="M 464.455345 509.625 
L 511.781066 509.625 
" clip-path="url(#p4f605352bf)" style="fill: none; stroke: #424242; stroke-width: 2.7; stroke-linecap: round"/>
   </g>
   <g id="line2d_16">
    <path d="M 502.701342 544.275 
L 525.924193 544.275 
" clip-path="url(#p4f605352bf)" style="fill: none; stroke: #424242; stroke-width: 2.7; stroke-linecap: round"/>
   </g>
   <g id="patch_19">
    <path d="M 288.662094 561.6 
L 288.662094 7.2 
" style="fill: none; stroke: #262626; stroke-width: 1.25; stroke-linejoin: miter; stroke-linecap: square"/>
   </g>
   <g id="patch_20">
    <path d="M 567.662094 561.6 
L 567.662094 7.2 
" style="fill: none; stroke: #262626; stroke-width: 1.25; stroke-linejoin: miter; stroke-linecap: square"/>
   </g>
   <g id="patch_21">
    <path d="M 288.662094 561.6 
L 567.662094 561.6 
" style="fill: none; stroke: #262626; stroke-width: 1.25; stroke-linejoin: miter; stroke-linecap: square"/>
   </g>
   <g id="patch_22">
    <path d="M 288.662094 7.2 
L 567.662094 7.2 
" style="fill: none; stroke: #262626; stroke-width: 1.25; stroke-linejoin: miter; stroke-linecap: square"/>
   </g>
  </g>
 </g>
 <defs>
  <clipPath id="p4f605352bf">
   <rect x="288.662094" y="7.2" width="279" height="554.4"/>
  </clipPath>
 </defs>
</svg>
