<?xml version="1.0" encoding="utf-8" standalone="no"?>
<!DOCTYPE svg PUBLIC "-//W3C//DTD SVG 1.1//EN"
  "http://www.w3.org/Graphics/SVG/1.1/DTD/svg11.dtd">
<svg height="389.635728pt" version="1.1" viewBox="0 0 529.930781 389.635728" width="529.930781pt" xmlns="http://www.w3.org/2000/svg" xmlns:xlink="http://www.w3.org/1999/xlink">
 <metadata>
  <rdf:RDF xmlns:cc="http://creativecommons.org/ns#" xmlns:dc="http://purl.org/dc/elements/1.1/" xmlns:rdf="http://www.w3.org/1999/02/22-rdf-syntax-ns#">
   <cc:Work>
    <dc:type rdf:resource="http://purl.org/dc/dcmitype/StillImage"/>
    <dc:date>2023-05-04T09:38:23.467757</dc:date>
    <dc:format>image/svg+xml</dc:format>
    <dc:creator>
     <cc:Agent>
      <dc:title>Matplotlib v3.4.3, https://matplotlib.org/</dc:title>
     </cc:Agent>
    </dc:creator>
   </cc:Work>
  </rdf:RDF>
 </metadata>
 <defs>
  <style type="text/css">*{stroke-linecap:butt;stroke-linejoin:round;}</style>
 </defs>
 <g id="figure_1">
  <g id="patch_1">
   <path d="M 0 389.635728 
L 529.930781 389.635728 
L 529.930781 0 
L 0 0 
z
" style="fill:#ffffff;"/>
  </g>
  <g id="axes_1">
   <g id="patch_2">
    <path d="M 58.539344 339.998134 
L 393.339344 339.998134 
L 393.339344 7.358134 
L 58.539344 7.358134 
z
" style="fill:#ffffff;"/>
   </g>
   <g id="matplotlib.axis_1">
    <g id="xtick_1">
     <g id="text_1">
      <!-- 3 -->
      <g style="fill:#262626;" transform="translate(58.732744 360.363899)scale(0.143 -0.143)">
       <defs>
        <path d="M 2597 2516 
Q 3050 2419 3304 2112 
Q 3559 1806 3559 1356 
Q 3559 666 3084 287 
Q 2609 -91 1734 -91 
Q 1441 -91 1130 -33 
Q 819 25 488 141 
L 488 750 
Q 750 597 1062 519 
Q 1375 441 1716 441 
Q 2309 441 2620 675 
Q 2931 909 2931 1356 
Q 2931 1769 2642 2001 
Q 2353 2234 1838 2234 
L 1294 2234 
L 1294 2753 
L 1863 2753 
Q 2328 2753 2575 2939 
Q 2822 3125 2822 3475 
Q 2822 3834 2567 4026 
Q 2313 4219 1838 4219 
Q 1578 4219 1281 4162 
Q 984 4106 628 3988 
L 628 4550 
Q 988 4650 1302 4700 
Q 1616 4750 1894 4750 
Q 2613 4750 3031 4423 
Q 3450 4097 3450 3541 
Q 3450 3153 3228 2886 
Q 3006 2619 2597 2516 
z
" id="DejaVuSans-33" transform="scale(0.015625)"/>
       </defs>
       <use xlink:href="#DejaVuSans-33"/>
      </g>
     </g>
    </g>
    <g id="xtick_2">
     <g id="text_2">
      <!-- 4 -->
      <g style="fill:#262626;" transform="translate(115.87235 360.363899)scale(0.143 -0.143)">
       <defs>
        <path d="M 2419 4116 
L 825 1625 
L 2419 1625 
L 2419 4116 
z
M 2253 4666 
L 3047 4666 
L 3047 1625 
L 3713 1625 
L 3713 1100 
L 3047 1100 
L 3047 0 
L 2419 0 
L 2419 1100 
L 313 1100 
L 313 1709 
L 2253 4666 
z
" id="DejaVuSans-34" transform="scale(0.015625)"/>
       </defs>
       <use xlink:href="#DejaVuSans-34"/>
      </g>
     </g>
    </g>
    <g id="xtick_3">
     <g id="text_3">
      <!-- 5 -->
      <g style="fill:#262626;" transform="translate(173.011956 360.363899)scale(0.143 -0.143)">
       <defs>
        <path d="M 691 4666 
L 3169 4666 
L 3169 4134 
L 1269 4134 
L 1269 2991 
Q 1406 3038 1543 3061 
Q 1681 3084 1819 3084 
Q 2600 3084 3056 2656 
Q 3513 2228 3513 1497 
Q 3513 744 3044 326 
Q 2575 -91 1722 -91 
Q 1428 -91 1123 -41 
Q 819 9 494 109 
L 494 744 
Q 775 591 1075 516 
Q 1375 441 1709 441 
Q 2250 441 2565 725 
Q 2881 1009 2881 1497 
Q 2881 1984 2565 2268 
Q 2250 2553 1709 2553 
Q 1456 2553 1204 2497 
Q 953 2441 691 2322 
L 691 4666 
z
" id="DejaVuSans-35" transform="scale(0.015625)"/>
       </defs>
       <use xlink:href="#DejaVuSans-35"/>
      </g>
     </g>
    </g>
    <g id="xtick_4">
     <g id="text_4">
      <!-- 6 -->
      <g style="fill:#262626;" transform="translate(230.151563 360.363899)scale(0.143 -0.143)">
       <defs>
        <path d="M 2113 2584 
Q 1688 2584 1439 2293 
Q 1191 2003 1191 1497 
Q 1191 994 1439 701 
Q 1688 409 2113 409 
Q 2538 409 2786 701 
Q 3034 994 3034 1497 
Q 3034 2003 2786 2293 
Q 2538 2584 2113 2584 
z
M 3366 4563 
L 3366 3988 
Q 3128 4100 2886 4159 
Q 2644 4219 2406 4219 
Q 1781 4219 1451 3797 
Q 1122 3375 1075 2522 
Q 1259 2794 1537 2939 
Q 1816 3084 2150 3084 
Q 2853 3084 3261 2657 
Q 3669 2231 3669 1497 
Q 3669 778 3244 343 
Q 2819 -91 2113 -91 
Q 1303 -91 875 529 
Q 447 1150 447 2328 
Q 447 3434 972 4092 
Q 1497 4750 2381 4750 
Q 2619 4750 2861 4703 
Q 3103 4656 3366 4563 
z
" id="DejaVuSans-36" transform="scale(0.015625)"/>
       </defs>
       <use xlink:href="#DejaVuSans-36"/>
      </g>
     </g>
    </g>
    <g id="xtick_5">
     <g id="text_5">
      <!-- 7 -->
      <g style="fill:#262626;" transform="translate(287.291169 360.363899)scale(0.143 -0.143)">
       <defs>
        <path d="M 525 4666 
L 3525 4666 
L 3525 4397 
L 1831 0 
L 1172 0 
L 2766 4134 
L 525 4134 
L 525 4666 
z
" id="DejaVuSans-37" transform="scale(0.015625)"/>
       </defs>
       <use xlink:href="#DejaVuSans-37"/>
      </g>
     </g>
    </g>
    <g id="xtick_6">
     <g id="text_6">
      <!-- 8 -->
      <g style="fill:#262626;" transform="translate(344.430775 360.363899)scale(0.143 -0.143)">
       <defs>
        <path d="M 2034 2216 
Q 1584 2216 1326 1975 
Q 1069 1734 1069 1313 
Q 1069 891 1326 650 
Q 1584 409 2034 409 
Q 2484 409 2743 651 
Q 3003 894 3003 1313 
Q 3003 1734 2745 1975 
Q 2488 2216 2034 2216 
z
M 1403 2484 
Q 997 2584 770 2862 
Q 544 3141 544 3541 
Q 544 4100 942 4425 
Q 1341 4750 2034 4750 
Q 2731 4750 3128 4425 
Q 3525 4100 3525 3541 
Q 3525 3141 3298 2862 
Q 3072 2584 2669 2484 
Q 3125 2378 3379 2068 
Q 3634 1759 3634 1313 
Q 3634 634 3220 271 
Q 2806 -91 2034 -91 
Q 1263 -91 848 271 
Q 434 634 434 1313 
Q 434 1759 690 2068 
Q 947 2378 1403 2484 
z
M 1172 3481 
Q 1172 3119 1398 2916 
Q 1625 2713 2034 2713 
Q 2441 2713 2670 2916 
Q 2900 3119 2900 3481 
Q 2900 3844 2670 4047 
Q 2441 4250 2034 4250 
Q 1625 4250 1398 4047 
Q 1172 3844 1172 3481 
z
" id="DejaVuSans-38" transform="scale(0.015625)"/>
       </defs>
       <use xlink:href="#DejaVuSans-38"/>
      </g>
     </g>
    </g>
    <g id="text_7">
     <!-- pH -->
     <g style="fill:#262626;" transform="translate(215.121719 379.191415)scale(0.156 -0.156)">
      <defs>
       <path d="M 1159 525 
L 1159 -1331 
L 581 -1331 
L 581 3500 
L 1159 3500 
L 1159 2969 
Q 1341 3281 1617 3432 
Q 1894 3584 2278 3584 
Q 2916 3584 3314 3078 
Q 3713 2572 3713 1747 
Q 3713 922 3314 415 
Q 2916 -91 2278 -91 
Q 1894 -91 1617 61 
Q 1341 213 1159 525 
z
M 3116 1747 
Q 3116 2381 2855 2742 
Q 2594 3103 2138 3103 
Q 1681 3103 1420 2742 
Q 1159 2381 1159 1747 
Q 1159 1113 1420 752 
Q 1681 391 2138 391 
Q 2594 391 2855 752 
Q 3116 1113 3116 1747 
z
" id="DejaVuSans-70" transform="scale(0.015625)"/>
       <path d="M 628 4666 
L 1259 4666 
L 1259 2753 
L 3553 2753 
L 3553 4666 
L 4184 4666 
L 4184 0 
L 3553 0 
L 3553 2222 
L 1259 2222 
L 1259 0 
L 628 0 
L 628 4666 
z
" id="DejaVuSans-48" transform="scale(0.015625)"/>
      </defs>
      <use xlink:href="#DejaVuSans-70"/>
      <use x="63.476562" xlink:href="#DejaVuSans-48"/>
     </g>
    </g>
   </g>
   <g id="matplotlib.axis_2">
    <g id="ytick_1">
     <g id="text_8">
      <!-- 5.5 -->
      <g style="fill:#262626;" transform="translate(26.297875 325.3356)scale(0.143 -0.143)">
       <defs>
        <path d="M 684 794 
L 1344 794 
L 1344 0 
L 684 0 
L 684 794 
z
" id="DejaVuSans-2e" transform="scale(0.015625)"/>
       </defs>
       <use xlink:href="#DejaVuSans-35"/>
       <use x="63.623047" xlink:href="#DejaVuSans-2e"/>
       <use x="95.410156" xlink:href="#DejaVuSans-35"/>
      </g>
     </g>
    </g>
    <g id="ytick_2">
     <g id="text_9">
      <!-- 6.0 -->
      <g style="fill:#262626;" transform="translate(26.297875 286.926871)scale(0.143 -0.143)">
       <defs>
        <path d="M 2034 4250 
Q 1547 4250 1301 3770 
Q 1056 3291 1056 2328 
Q 1056 1369 1301 889 
Q 1547 409 2034 409 
Q 2525 409 2770 889 
Q 3016 1369 3016 2328 
Q 3016 3291 2770 3770 
Q 2525 4250 2034 4250 
z
M 2034 4750 
Q 2819 4750 3233 4129 
Q 3647 3509 3647 2328 
Q 3647 1150 3233 529 
Q 2819 -91 2034 -91 
Q 1250 -91 836 529 
Q 422 1150 422 2328 
Q 422 3509 836 4129 
Q 1250 4750 2034 4750 
z
" id="DejaVuSans-30" transform="scale(0.015625)"/>
       </defs>
       <use xlink:href="#DejaVuSans-36"/>
       <use x="63.623047" xlink:href="#DejaVuSans-2e"/>
       <use x="95.410156" xlink:href="#DejaVuSans-30"/>
      </g>
     </g>
    </g>
    <g id="ytick_3">
     <g id="text_10">
      <!-- 6.5 -->
      <g style="fill:#262626;" transform="translate(26.297875 248.518142)scale(0.143 -0.143)">
       <use xlink:href="#DejaVuSans-36"/>
       <use x="63.623047" xlink:href="#DejaVuSans-2e"/>
       <use x="95.410156" xlink:href="#DejaVuSans-35"/>
      </g>
     </g>
    </g>
    <g id="ytick_4">
     <g id="text_11">
      <!-- 7.0 -->
      <g style="fill:#262626;" transform="translate(26.297875 210.109412)scale(0.143 -0.143)">
       <use xlink:href="#DejaVuSans-37"/>
       <use x="63.623047" xlink:href="#DejaVuSans-2e"/>
       <use x="95.410156" xlink:href="#DejaVuSans-30"/>
      </g>
     </g>
    </g>
    <g id="ytick_5">
     <g id="text_12">
      <!-- 7.5 -->
      <g style="fill:#262626;" transform="translate(26.297875 171.700683)scale(0.143 -0.143)">
       <use xlink:href="#DejaVuSans-37"/>
       <use x="63.623047" xlink:href="#DejaVuSans-2e"/>
       <use x="95.410156" xlink:href="#DejaVuSans-35"/>
      </g>
     </g>
    </g>
    <g id="ytick_6">
     <g id="text_13">
      <!-- 8.0 -->
      <g style="fill:#262626;" transform="translate(26.297875 133.291954)scale(0.143 -0.143)">
       <use xlink:href="#DejaVuSans-38"/>
       <use x="63.623047" xlink:href="#DejaVuSans-2e"/>
       <use x="95.410156" xlink:href="#DejaVuSans-30"/>
      </g>
     </g>
    </g>
    <g id="ytick_7">
     <g id="text_14">
      <!-- 8.5 -->
      <g style="fill:#262626;" transform="translate(26.297875 94.883224)scale(0.143 -0.143)">
       <use xlink:href="#DejaVuSans-38"/>
       <use x="63.623047" xlink:href="#DejaVuSans-2e"/>
       <use x="95.410156" xlink:href="#DejaVuSans-35"/>
      </g>
     </g>
    </g>
    <g id="ytick_8">
     <g id="text_15">
      <!-- 9.0 -->
      <g style="fill:#262626;" transform="translate(26.297875 56.474495)scale(0.143 -0.143)">
       <defs>
        <path d="M 703 97 
L 703 672 
Q 941 559 1184 500 
Q 1428 441 1663 441 
Q 2288 441 2617 861 
Q 2947 1281 2994 2138 
Q 2813 1869 2534 1725 
Q 2256 1581 1919 1581 
Q 1219 1581 811 2004 
Q 403 2428 403 3163 
Q 403 3881 828 4315 
Q 1253 4750 1959 4750 
Q 2769 4750 3195 4129 
Q 3622 3509 3622 2328 
Q 3622 1225 3098 567 
Q 2575 -91 1691 -91 
Q 1453 -91 1209 -44 
Q 966 3 703 97 
z
M 1959 2075 
Q 2384 2075 2632 2365 
Q 2881 2656 2881 3163 
Q 2881 3666 2632 3958 
Q 2384 4250 1959 4250 
Q 1534 4250 1286 3958 
Q 1038 3666 1038 3163 
Q 1038 2656 1286 2365 
Q 1534 2075 1959 2075 
z
" id="DejaVuSans-39" transform="scale(0.015625)"/>
       </defs>
       <use xlink:href="#DejaVuSans-39"/>
       <use x="63.623047" xlink:href="#DejaVuSans-2e"/>
       <use x="95.410156" xlink:href="#DejaVuSans-30"/>
      </g>
     </g>
    </g>
    <g id="ytick_9">
     <g id="text_16">
      <!-- 9.5 -->
      <g style="fill:#262626;" transform="translate(26.297875 18.065766)scale(0.143 -0.143)">
       <use xlink:href="#DejaVuSans-39"/>
       <use x="63.623047" xlink:href="#DejaVuSans-2e"/>
       <use x="95.410156" xlink:href="#DejaVuSans-35"/>
      </g>
     </g>
    </g>
    <g id="text_17">
     <!-- Shannon diversity -->
     <g style="fill:#262626;" transform="translate(19.053563 244.080446)rotate(-90)scale(0.156 -0.156)">
      <defs>
       <path d="M 3425 4513 
L 3425 3897 
Q 3066 4069 2747 4153 
Q 2428 4238 2131 4238 
Q 1616 4238 1336 4038 
Q 1056 3838 1056 3469 
Q 1056 3159 1242 3001 
Q 1428 2844 1947 2747 
L 2328 2669 
Q 3034 2534 3370 2195 
Q 3706 1856 3706 1288 
Q 3706 609 3251 259 
Q 2797 -91 1919 -91 
Q 1588 -91 1214 -16 
Q 841 59 441 206 
L 441 856 
Q 825 641 1194 531 
Q 1563 422 1919 422 
Q 2459 422 2753 634 
Q 3047 847 3047 1241 
Q 3047 1584 2836 1778 
Q 2625 1972 2144 2069 
L 1759 2144 
Q 1053 2284 737 2584 
Q 422 2884 422 3419 
Q 422 4038 858 4394 
Q 1294 4750 2059 4750 
Q 2388 4750 2728 4690 
Q 3069 4631 3425 4513 
z
" id="DejaVuSans-53" transform="scale(0.015625)"/>
       <path d="M 3513 2113 
L 3513 0 
L 2938 0 
L 2938 2094 
Q 2938 2591 2744 2837 
Q 2550 3084 2163 3084 
Q 1697 3084 1428 2787 
Q 1159 2491 1159 1978 
L 1159 0 
L 581 0 
L 581 4863 
L 1159 4863 
L 1159 2956 
Q 1366 3272 1645 3428 
Q 1925 3584 2291 3584 
Q 2894 3584 3203 3211 
Q 3513 2838 3513 2113 
z
" id="DejaVuSans-68" transform="scale(0.015625)"/>
       <path d="M 2194 1759 
Q 1497 1759 1228 1600 
Q 959 1441 959 1056 
Q 959 750 1161 570 
Q 1363 391 1709 391 
Q 2188 391 2477 730 
Q 2766 1069 2766 1631 
L 2766 1759 
L 2194 1759 
z
M 3341 1997 
L 3341 0 
L 2766 0 
L 2766 531 
Q 2569 213 2275 61 
Q 1981 -91 1556 -91 
Q 1019 -91 701 211 
Q 384 513 384 1019 
Q 384 1609 779 1909 
Q 1175 2209 1959 2209 
L 2766 2209 
L 2766 2266 
Q 2766 2663 2505 2880 
Q 2244 3097 1772 3097 
Q 1472 3097 1187 3025 
Q 903 2953 641 2809 
L 641 3341 
Q 956 3463 1253 3523 
Q 1550 3584 1831 3584 
Q 2591 3584 2966 3190 
Q 3341 2797 3341 1997 
z
" id="DejaVuSans-61" transform="scale(0.015625)"/>
       <path d="M 3513 2113 
L 3513 0 
L 2938 0 
L 2938 2094 
Q 2938 2591 2744 2837 
Q 2550 3084 2163 3084 
Q 1697 3084 1428 2787 
Q 1159 2491 1159 1978 
L 1159 0 
L 581 0 
L 581 3500 
L 1159 3500 
L 1159 2956 
Q 1366 3272 1645 3428 
Q 1925 3584 2291 3584 
Q 2894 3584 3203 3211 
Q 3513 2838 3513 2113 
z
" id="DejaVuSans-6e" transform="scale(0.015625)"/>
       <path d="M 1959 3097 
Q 1497 3097 1228 2736 
Q 959 2375 959 1747 
Q 959 1119 1226 758 
Q 1494 397 1959 397 
Q 2419 397 2687 759 
Q 2956 1122 2956 1747 
Q 2956 2369 2687 2733 
Q 2419 3097 1959 3097 
z
M 1959 3584 
Q 2709 3584 3137 3096 
Q 3566 2609 3566 1747 
Q 3566 888 3137 398 
Q 2709 -91 1959 -91 
Q 1206 -91 779 398 
Q 353 888 353 1747 
Q 353 2609 779 3096 
Q 1206 3584 1959 3584 
z
" id="DejaVuSans-6f" transform="scale(0.015625)"/>
       <path id="DejaVuSans-20" transform="scale(0.015625)"/>
       <path d="M 2906 2969 
L 2906 4863 
L 3481 4863 
L 3481 0 
L 2906 0 
L 2906 525 
Q 2725 213 2448 61 
Q 2172 -91 1784 -91 
Q 1150 -91 751 415 
Q 353 922 353 1747 
Q 353 2572 751 3078 
Q 1150 3584 1784 3584 
Q 2172 3584 2448 3432 
Q 2725 3281 2906 2969 
z
M 947 1747 
Q 947 1113 1208 752 
Q 1469 391 1925 391 
Q 2381 391 2643 752 
Q 2906 1113 2906 1747 
Q 2906 2381 2643 2742 
Q 2381 3103 1925 3103 
Q 1469 3103 1208 2742 
Q 947 2381 947 1747 
z
" id="DejaVuSans-64" transform="scale(0.015625)"/>
       <path d="M 603 3500 
L 1178 3500 
L 1178 0 
L 603 0 
L 603 3500 
z
M 603 4863 
L 1178 4863 
L 1178 4134 
L 603 4134 
L 603 4863 
z
" id="DejaVuSans-69" transform="scale(0.015625)"/>
       <path d="M 191 3500 
L 800 3500 
L 1894 563 
L 2988 3500 
L 3597 3500 
L 2284 0 
L 1503 0 
L 191 3500 
z
" id="DejaVuSans-76" transform="scale(0.015625)"/>
       <path d="M 3597 1894 
L 3597 1613 
L 953 1613 
Q 991 1019 1311 708 
Q 1631 397 2203 397 
Q 2534 397 2845 478 
Q 3156 559 3463 722 
L 3463 178 
Q 3153 47 2828 -22 
Q 2503 -91 2169 -91 
Q 1331 -91 842 396 
Q 353 884 353 1716 
Q 353 2575 817 3079 
Q 1281 3584 2069 3584 
Q 2775 3584 3186 3129 
Q 3597 2675 3597 1894 
z
M 3022 2063 
Q 3016 2534 2758 2815 
Q 2500 3097 2075 3097 
Q 1594 3097 1305 2825 
Q 1016 2553 972 2059 
L 3022 2063 
z
" id="DejaVuSans-65" transform="scale(0.015625)"/>
       <path d="M 2631 2963 
Q 2534 3019 2420 3045 
Q 2306 3072 2169 3072 
Q 1681 3072 1420 2755 
Q 1159 2438 1159 1844 
L 1159 0 
L 581 0 
L 581 3500 
L 1159 3500 
L 1159 2956 
Q 1341 3275 1631 3429 
Q 1922 3584 2338 3584 
Q 2397 3584 2469 3576 
Q 2541 3569 2628 3553 
L 2631 2963 
z
" id="DejaVuSans-72" transform="scale(0.015625)"/>
       <path d="M 2834 3397 
L 2834 2853 
Q 2591 2978 2328 3040 
Q 2066 3103 1784 3103 
Q 1356 3103 1142 2972 
Q 928 2841 928 2578 
Q 928 2378 1081 2264 
Q 1234 2150 1697 2047 
L 1894 2003 
Q 2506 1872 2764 1633 
Q 3022 1394 3022 966 
Q 3022 478 2636 193 
Q 2250 -91 1575 -91 
Q 1294 -91 989 -36 
Q 684 19 347 128 
L 347 722 
Q 666 556 975 473 
Q 1284 391 1588 391 
Q 1994 391 2212 530 
Q 2431 669 2431 922 
Q 2431 1156 2273 1281 
Q 2116 1406 1581 1522 
L 1381 1569 
Q 847 1681 609 1914 
Q 372 2147 372 2553 
Q 372 3047 722 3315 
Q 1072 3584 1716 3584 
Q 2034 3584 2315 3537 
Q 2597 3491 2834 3397 
z
" id="DejaVuSans-73" transform="scale(0.015625)"/>
       <path d="M 1172 4494 
L 1172 3500 
L 2356 3500 
L 2356 3053 
L 1172 3053 
L 1172 1153 
Q 1172 725 1289 603 
Q 1406 481 1766 481 
L 2356 481 
L 2356 0 
L 1766 0 
Q 1100 0 847 248 
Q 594 497 594 1153 
L 594 3053 
L 172 3053 
L 172 3500 
L 594 3500 
L 594 4494 
L 1172 4494 
z
" id="DejaVuSans-74" transform="scale(0.015625)"/>
       <path d="M 2059 -325 
Q 1816 -950 1584 -1140 
Q 1353 -1331 966 -1331 
L 506 -1331 
L 506 -850 
L 844 -850 
Q 1081 -850 1212 -737 
Q 1344 -625 1503 -206 
L 1606 56 
L 191 3500 
L 800 3500 
L 1894 763 
L 2988 3500 
L 3597 3500 
L 2059 -325 
z
" id="DejaVuSans-79" transform="scale(0.015625)"/>
      </defs>
      <use xlink:href="#DejaVuSans-53"/>
      <use x="63.476562" xlink:href="#DejaVuSans-68"/>
      <use x="126.855469" xlink:href="#DejaVuSans-61"/>
      <use x="188.134766" xlink:href="#DejaVuSans-6e"/>
      <use x="251.513672" xlink:href="#DejaVuSans-6e"/>
      <use x="314.892578" xlink:href="#DejaVuSans-6f"/>
      <use x="376.074219" xlink:href="#DejaVuSans-6e"/>
      <use x="439.453125" xlink:href="#DejaVuSans-20"/>
      <use x="471.240234" xlink:href="#DejaVuSans-64"/>
      <use x="534.716797" xlink:href="#DejaVuSans-69"/>
      <use x="562.5" xlink:href="#DejaVuSans-76"/>
      <use x="621.679688" xlink:href="#DejaVuSans-65"/>
      <use x="683.203125" xlink:href="#DejaVuSans-72"/>
      <use x="724.316406" xlink:href="#DejaVuSans-73"/>
      <use x="776.416016" xlink:href="#DejaVuSans-69"/>
      <use x="804.199219" xlink:href="#DejaVuSans-74"/>
      <use x="843.408203" xlink:href="#DejaVuSans-79"/>
     </g>
    </g>
   </g>
   <g id="PathCollection_1">
    <path clip-path="url(#p99d1845df7)" d="M 308.982238 159.723568 
C 309.827267 159.723568 310.637799 159.387835 311.235325 158.790309 
C 311.83285 158.192784 312.168584 157.382252 312.168584 156.537223 
C 312.168584 155.692194 311.83285 154.881662 311.235325 154.284137 
C 310.637799 153.686611 309.827267 153.350878 308.982238 153.350878 
C 308.13721 153.350878 307.326677 153.686611 306.729152 154.284137 
C 306.131626 154.881662 305.795893 155.692194 305.795893 156.537223 
C 305.795893 157.382252 306.131626 158.192784 306.729152 158.790309 
C 307.326677 159.387835 308.13721 159.723568 308.982238 159.723568 
z
" style="fill:#4c72b0;fill-opacity:0.9;stroke:#ffffff;stroke-opacity:0.9;stroke-width:0.509291;"/>
    <path clip-path="url(#p99d1845df7)" d="M 319.838763 149.62692 
C 320.684722 149.62692 321.496146 149.290817 322.09433 148.692634 
C 322.692513 148.09445 323.028616 147.283026 323.028616 146.437067 
C 323.028616 145.591109 322.692513 144.779685 322.09433 144.181501 
C 321.496146 143.583318 320.684722 143.247215 319.838763 143.247215 
C 318.992805 143.247215 318.18138 143.583318 317.583197 144.181501 
C 316.985014 144.779685 316.648911 145.591109 316.648911 146.437067 
C 316.648911 147.283026 316.985014 148.09445 317.583197 148.692634 
C 318.18138 149.290817 318.992805 149.62692 319.838763 149.62692 
z
" style="fill:#4c72b0;fill-opacity:0.9;stroke:#ffffff;stroke-opacity:0.9;stroke-width:0.509291;"/>
    <path clip-path="url(#p99d1845df7)" d="M 355.836715 217.614963 
C 356.711314 217.614963 357.55021 217.267482 358.168644 216.649047 
C 358.787079 216.030612 359.134561 215.191717 359.134561 214.317118 
C 359.134561 213.442519 358.787079 212.603624 358.168644 211.985189 
C 357.55021 211.366754 356.711314 211.019273 355.836715 211.019273 
C 354.962117 211.019273 354.123221 211.366754 353.504787 211.985189 
C 352.886352 212.603624 352.53887 213.442519 352.53887 214.317118 
C 352.53887 215.191717 352.886352 216.030612 353.504787 216.649047 
C 354.123221 217.267482 354.962117 217.614963 355.836715 217.614963 
z
" style="fill:#4c72b0;fill-opacity:0.9;stroke:#ffffff;stroke-opacity:0.9;stroke-width:0.509291;"/>
    <path clip-path="url(#p99d1845df7)" d="M 362.693468 328.143043 
C 363.559332 328.143043 364.389849 327.799032 365.002108 327.186773 
C 365.614366 326.574515 365.958378 325.743998 365.958378 324.878134 
C 365.958378 324.01227 365.614366 323.181753 365.002108 322.569494 
C 364.389849 321.957236 363.559332 321.613224 362.693468 321.613224 
C 361.827604 321.613224 360.997087 321.957236 360.384829 322.569494 
C 359.77257 323.181753 359.428559 324.01227 359.428559 324.878134 
C 359.428559 325.743998 359.77257 326.574515 360.384829 327.186773 
C 360.997087 327.799032 361.827604 328.143043 362.693468 328.143043 
z
" style="fill:#4c72b0;fill-opacity:0.9;stroke:#ffffff;stroke-opacity:0.9;stroke-width:0.509291;"/>
    <path clip-path="url(#p99d1845df7)" d="M 267.841722 167.246855 
C 268.692007 167.246855 269.507581 166.909033 270.108824 166.307791 
C 270.710067 165.706548 271.047889 164.890974 271.047889 164.040688 
C 271.047889 163.190403 270.710067 162.374828 270.108824 161.773586 
C 269.507581 161.172343 268.692007 160.834521 267.841722 160.834521 
C 266.991436 160.834521 266.175862 161.172343 265.574619 161.773586 
C 264.973377 162.374828 264.635555 163.190403 264.635555 164.040688 
C 264.635555 164.890974 264.973377 165.706548 265.574619 166.307791 
C 266.175862 166.909033 266.991436 167.246855 267.841722 167.246855 
z
" style="fill:#4c72b0;fill-opacity:0.9;stroke:#ffffff;stroke-opacity:0.9;stroke-width:0.509291;"/>
    <path clip-path="url(#p99d1845df7)" d="M 311.839219 156.449534 
C 312.691659 156.449534 313.509301 156.110855 314.112067 155.508089 
C 314.714834 154.905323 315.053512 154.087681 315.053512 153.235241 
C 315.053512 152.3828 314.714834 151.565159 314.112067 150.962392 
C 313.509301 150.359626 312.691659 150.020947 311.839219 150.020947 
C 310.986778 150.020947 310.169137 150.359626 309.56637 150.962392 
C 308.963604 151.565159 308.624925 152.3828 308.624925 153.235241 
C 308.624925 154.087681 308.963604 154.905323 309.56637 155.508089 
C 310.169137 156.110855 310.986778 156.449534 311.839219 156.449534 
z
" style="fill:#4c72b0;fill-opacity:0.9;stroke:#ffffff;stroke-opacity:0.9;stroke-width:0.509291;"/>
    <path clip-path="url(#p99d1845df7)" d="M 331.838081 311.017993 
C 332.702733 311.017993 333.532088 310.674463 334.14349 310.063062 
C 334.754891 309.45166 335.098421 308.622305 335.098421 307.757653 
C 335.098421 306.893001 334.754891 306.063646 334.14349 305.452244 
C 333.532088 304.840843 332.702733 304.497313 331.838081 304.497313 
C 330.973428 304.497313 330.144074 304.840843 329.532672 305.452244 
C 328.92127 306.063646 328.57774 306.893001 328.57774 307.757653 
C 328.57774 308.622305 328.92127 309.45166 329.532672 310.063062 
C 330.144074 310.674463 330.973428 311.017993 331.838081 311.017993 
z
" style="fill:#4c72b0;fill-opacity:0.9;stroke:#ffffff;stroke-opacity:0.9;stroke-width:0.509291;"/>
    <path clip-path="url(#p99d1845df7)" d="M 287.840584 301.557517 
C 288.684371 301.557517 289.493712 301.222277 290.09036 300.62563 
C 290.687007 300.028982 291.022247 299.219641 291.022247 298.375854 
C 291.022247 297.532067 290.687007 296.722725 290.09036 296.126078 
C 289.493712 295.52943 288.684371 295.19419 287.840584 295.19419 
C 286.996797 295.19419 286.187456 295.52943 285.590808 296.126078 
C 284.994161 296.722725 284.65892 297.532067 284.65892 298.375854 
C 284.65892 299.219641 284.994161 300.028982 285.590808 300.62563 
C 286.187456 301.222277 286.996797 301.557517 287.840584 301.557517 
z
" style="fill:#4c72b0;fill-opacity:0.9;stroke:#ffffff;stroke-opacity:0.9;stroke-width:0.509291;"/>
    <path clip-path="url(#p99d1845df7)" d="M 277.555455 298.743279 
C 278.397838 298.743279 279.205834 298.408596 279.801489 297.812941 
C 280.397144 297.217286 280.731827 296.40929 280.731827 295.566907 
C 280.731827 294.724523 280.397144 293.916528 279.801489 293.320872 
C 279.205834 292.725217 278.397838 292.390535 277.555455 292.390535 
C 276.713071 292.390535 275.905076 292.725217 275.309421 293.320872 
C 274.713765 293.916528 274.379083 294.724523 274.379083 295.566907 
C 274.379083 296.40929 274.713765 297.217286 275.309421 297.812941 
C 275.905076 298.408596 276.713071 298.743279 277.555455 298.743279 
z
" style="fill:#4c72b0;fill-opacity:0.9;stroke:#ffffff;stroke-opacity:0.9;stroke-width:0.509291;"/>
    <path clip-path="url(#p99d1845df7)" d="M 269.55591 232.303137 
C 270.394556 232.303137 271.198966 231.969939 271.791978 231.376927 
C 272.38499 230.783915 272.718188 229.979505 272.718188 229.140859 
C 272.718188 228.302213 272.38499 227.497803 271.791978 226.904791 
C 271.198966 226.311779 270.394556 225.978581 269.55591 225.978581 
C 268.717264 225.978581 267.912854 226.311779 267.319842 226.904791 
C 266.72683 227.497803 266.393632 228.302213 266.393632 229.140859 
C 266.393632 229.979505 266.72683 230.783915 267.319842 231.376927 
C 267.912854 231.969939 268.717264 232.303137 269.55591 232.303137 
z
" style="fill:#4c72b0;fill-opacity:0.9;stroke:#ffffff;stroke-opacity:0.9;stroke-width:0.509291;"/>
    <path clip-path="url(#p99d1845df7)" d="M 264.413345 194.480259 
C 265.266861 194.480259 266.085534 194.141153 266.689061 193.537626 
C 267.292588 192.9341 267.631694 192.115426 267.631694 191.26191 
C 267.631694 190.408394 267.292588 189.589721 266.689061 188.986194 
C 266.085534 188.382667 265.266861 188.043562 264.413345 188.043562 
C 263.559829 188.043562 262.741156 188.382667 262.137629 188.986194 
C 261.534102 189.589721 261.194997 190.408394 261.194997 191.26191 
C 261.194997 192.115426 261.534102 192.9341 262.137629 193.537626 
C 262.741156 194.141153 263.559829 194.480259 264.413345 194.480259 
z
" style="fill:#4c72b0;fill-opacity:0.9;stroke:#ffffff;stroke-opacity:0.9;stroke-width:0.509291;"/>
    <path clip-path="url(#p99d1845df7)" d="M 288.983376 241.057338 
C 289.825764 241.057338 290.633763 240.722654 291.229422 240.126996 
C 291.82508 239.531337 292.159764 238.723338 292.159764 237.88095 
C 292.159764 237.038562 291.82508 236.230563 291.229422 235.634904 
C 290.633763 235.039246 289.825764 234.704562 288.983376 234.704562 
C 288.140988 234.704562 287.332989 235.039246 286.73733 235.634904 
C 286.141672 236.230563 285.806988 237.038562 285.806988 237.88095 
C 285.806988 238.723338 286.141672 239.531337 286.73733 240.126996 
C 287.332989 240.722654 288.140988 241.057338 288.983376 241.057338 
z
" style="fill:#4c72b0;fill-opacity:0.9;stroke:#ffffff;stroke-opacity:0.9;stroke-width:0.509291;"/>
    <path clip-path="url(#p99d1845df7)" d="M 348.408567 142.262285 
C 349.408792 142.262285 350.368185 141.864891 351.075451 141.157625 
C 351.782717 140.450359 352.180111 139.490966 352.180111 138.490741 
C 352.180111 137.490516 351.782717 136.531122 351.075451 135.823856 
C 350.368185 135.116591 349.408792 134.719197 348.408567 134.719197 
C 347.408342 134.719197 346.448948 135.116591 345.741682 135.823856 
C 345.034416 136.531122 344.637023 137.490516 344.637023 138.490741 
C 344.637023 139.490966 345.034416 140.450359 345.741682 141.157625 
C 346.448948 141.864891 347.408342 142.262285 348.408567 142.262285 
z
" style="fill:#4c72b0;fill-opacity:0.9;stroke:#ffffff;stroke-opacity:0.9;stroke-width:0.509291;"/>
    <path clip-path="url(#p99d1845df7)" d="M 354.693923 179.707081 
C 356.027639 179.707081 357.306909 179.17719 358.249989 178.23411 
C 359.193068 177.29103 359.722959 176.011761 359.722959 174.678045 
C 359.722959 173.344329 359.193068 172.065059 358.249989 171.121979 
C 357.306909 170.178899 356.027639 169.649009 354.693923 169.649009 
C 353.360207 169.649009 352.080937 170.178899 351.137858 171.121979 
C 350.194778 172.065059 349.664887 173.344329 349.664887 174.678045 
C 349.664887 176.011761 350.194778 177.29103 351.137858 178.23411 
C 352.080937 179.17719 353.360207 179.707081 354.693923 179.707081 
z
" style="fill:#4c72b0;fill-opacity:0.9;stroke:#ffffff;stroke-opacity:0.9;stroke-width:0.509291;"/>
    <path clip-path="url(#p99d1845df7)" d="M 350.694151 186.548551 
C 351.892963 186.548551 353.042836 186.072258 353.890525 185.22457 
C 354.738213 184.376881 355.214506 183.227008 355.214506 182.028196 
C 355.214506 180.829384 354.738213 179.679511 353.890525 178.831822 
C 353.042836 177.984134 351.892963 177.507841 350.694151 177.507841 
C 349.495339 177.507841 348.345465 177.984134 347.497777 178.831822 
C 346.650089 179.679511 346.173796 180.829384 346.173796 182.028196 
C 346.173796 183.227008 346.650089 184.376881 347.497777 185.22457 
C 348.345465 186.072258 349.495339 186.548551 350.694151 186.548551 
z
" style="fill:#4c72b0;fill-opacity:0.9;stroke:#ffffff;stroke-opacity:0.9;stroke-width:0.509291;"/>
    <path clip-path="url(#p99d1845df7)" d="M 356.979508 165.361077 
C 358.102476 165.361077 359.179601 164.914917 359.97366 164.120858 
C 360.767718 163.3268 361.213878 162.249674 361.213878 161.126706 
C 361.213878 160.003738 360.767718 158.926612 359.97366 158.132553 
C 359.179601 157.338495 358.102476 156.892335 356.979508 156.892335 
C 355.856539 156.892335 354.779414 157.338495 353.985355 158.132553 
C 353.191297 158.926612 352.745137 160.003738 352.745137 161.126706 
C 352.745137 162.249674 353.191297 163.3268 353.985355 164.120858 
C 354.779414 164.914917 355.856539 165.361077 356.979508 165.361077 
z
" style="fill:#4c72b0;fill-opacity:0.9;stroke:#ffffff;stroke-opacity:0.9;stroke-width:0.509291;"/>
    <path clip-path="url(#p99d1845df7)" d="M 327.838308 31.351843 
C 330.191644 31.351843 332.448909 30.416853 334.112968 28.752794 
C 335.777028 27.088734 336.712018 24.831469 336.712018 22.478134 
C 336.712018 20.124799 335.777028 17.867533 334.112968 16.203474 
C 332.448909 14.539415 330.191644 13.604425 327.838308 13.604425 
C 325.484973 13.604425 323.227708 14.539415 321.563648 16.203474 
C 319.899589 17.867533 318.964599 20.124799 318.964599 22.478134 
C 318.964599 24.831469 319.899589 27.088734 321.563648 28.752794 
C 323.227708 30.416853 325.484973 31.351843 327.838308 31.351843 
z
" style="fill:#4c72b0;fill-opacity:0.9;stroke:#ffffff;stroke-opacity:0.9;stroke-width:0.509291;"/>
    <path clip-path="url(#p99d1845df7)" d="M 378.121162 131.58048 
C 379.262961 131.58048 380.358149 131.126838 381.165522 130.319464 
C 381.972896 129.512091 382.426538 128.416903 382.426538 127.275104 
C 382.426538 126.133305 381.972896 125.038117 381.165522 124.230744 
C 380.358149 123.42337 379.262961 122.969728 378.121162 122.969728 
C 376.979363 122.969728 375.884175 123.42337 375.076801 124.230744 
C 374.269428 125.038117 373.815786 126.133305 373.815786 127.275104 
C 373.815786 128.416903 374.269428 129.512091 375.076801 130.319464 
C 375.884175 131.126838 376.979363 131.58048 378.121162 131.58048 
z
" style="fill:#4c72b0;fill-opacity:0.9;stroke:#ffffff;stroke-opacity:0.9;stroke-width:0.509291;"/>
    <path clip-path="url(#p99d1845df7)" d="M 370.693013 165.086858 
C 371.922775 165.086858 373.102335 164.598268 373.971908 163.728695 
C 374.841481 162.859122 375.33007 161.679563 375.33007 160.449801 
C 375.33007 159.220039 374.841481 158.040479 373.971908 157.170906 
C 373.102335 156.301333 371.922775 155.812744 370.693013 155.812744 
C 369.463251 155.812744 368.283692 156.301333 367.414119 157.170906 
C 366.544546 158.040479 366.055956 159.220039 366.055956 160.449801 
C 366.055956 161.679563 366.544546 162.859122 367.414119 163.728695 
C 368.283692 164.598268 369.463251 165.086858 370.693013 165.086858 
z
" style="fill:#4c72b0;fill-opacity:0.9;stroke:#ffffff;stroke-opacity:0.9;stroke-width:0.509291;"/>
    <path clip-path="url(#p99d1845df7)" d="M 351.265547 131.405086 
C 352.35136 131.405086 353.392847 130.973688 354.160633 130.205902 
C 354.928419 129.438116 355.359817 128.396629 355.359817 127.310816 
C 355.359817 126.225002 354.928419 125.183515 354.160633 124.415729 
C 353.392847 123.647943 352.35136 123.216545 351.265547 123.216545 
C 350.179734 123.216545 349.138246 123.647943 348.370461 124.415729 
C 347.602675 125.183515 347.171276 126.225002 347.171276 127.310816 
C 347.171276 128.396629 347.602675 129.438116 348.370461 130.205902 
C 349.138246 130.973688 350.179734 131.405086 351.265547 131.405086 
z
" style="fill:#4c72b0;fill-opacity:0.9;stroke:#ffffff;stroke-opacity:0.9;stroke-width:0.509291;"/>
    <path clip-path="url(#p99d1845df7)" d="M 352.408339 115.246934 
C 353.80357 115.246934 355.141845 114.692602 356.128422 113.706025 
C 357.115 112.719447 357.669331 111.381173 357.669331 109.985942 
C 357.669331 108.59071 357.115 107.252436 356.128422 106.265858 
C 355.141845 105.279281 353.80357 104.724949 352.408339 104.724949 
C 351.013108 104.724949 349.674834 105.279281 348.688256 106.265858 
C 347.701678 107.252436 347.147347 108.59071 347.147347 109.985942 
C 347.147347 111.381173 347.701678 112.719447 348.688256 113.706025 
C 349.674834 114.692602 351.013108 115.246934 352.408339 115.246934 
z
" style="fill:#4c72b0;fill-opacity:0.9;stroke:#ffffff;stroke-opacity:0.9;stroke-width:0.509291;"/>
    <path clip-path="url(#p99d1845df7)" d="M 332.409477 91.163741 
C 334.811111 91.163741 337.114705 90.209561 338.812917 88.511349 
C 340.511129 86.813137 341.465308 84.509544 341.465308 82.107909 
C 341.465308 79.706275 340.511129 77.402682 338.812917 75.704469 
C 337.114705 74.006257 334.811111 73.052078 332.409477 73.052078 
C 330.007842 73.052078 327.704249 74.006257 326.006037 75.704469 
C 324.307825 77.402682 323.353645 79.706275 323.353645 82.107909 
C 323.353645 84.509544 324.307825 86.813137 326.006037 88.511349 
C 327.704249 90.209561 330.007842 91.163741 332.409477 91.163741 
z
" style="fill:#4c72b0;fill-opacity:0.9;stroke:#ffffff;stroke-opacity:0.9;stroke-width:0.509291;"/>
    <path clip-path="url(#p99d1845df7)" d="M 322.124348 94.173897 
C 324.69354 94.173897 327.157852 93.153146 328.974545 91.336452 
C 330.791239 89.519759 331.81199 87.055448 331.81199 84.486255 
C 331.81199 81.917062 330.791239 79.452751 328.974545 77.636058 
C 327.157852 75.819364 324.69354 74.798613 322.124348 74.798613 
C 319.555155 74.798613 317.090844 75.819364 315.27415 77.636058 
C 313.457457 79.452751 312.436706 81.917062 312.436706 84.486255 
C 312.436706 87.055448 313.457457 89.519759 315.27415 91.336452 
C 317.090844 93.153146 319.555155 94.173897 322.124348 94.173897 
z
" style="fill:#4c72b0;fill-opacity:0.9;stroke:#ffffff;stroke-opacity:0.9;stroke-width:0.509291;"/>
    <path clip-path="url(#p99d1845df7)" d="M 338.694834 71.575386 
C 341.346865 71.575386 343.890632 70.521723 345.765901 68.646454 
C 347.64117 66.771185 348.694834 64.227417 348.694834 61.575386 
C 348.694834 58.923355 347.64117 56.379588 345.765901 54.504319 
C 343.890632 52.62905 341.346865 51.575386 338.694834 51.575386 
C 336.042803 51.575386 333.499035 52.62905 331.623766 54.504319 
C 329.748497 56.379588 328.694834 58.923355 328.694834 61.575386 
C 328.694834 64.227417 329.748497 66.771185 331.623766 68.646454 
C 333.499035 70.521723 336.042803 71.575386 338.694834 71.575386 
z
" style="fill:#4c72b0;fill-opacity:0.9;stroke:#ffffff;stroke-opacity:0.9;stroke-width:0.509291;"/>
    <path clip-path="url(#p99d1845df7)" d="M 73.757526 279.370772 
C 74.677566 279.370772 75.560048 279.005236 76.210614 278.354669 
C 76.861181 277.704103 77.226717 276.821621 77.226717 275.90158 
C 77.226717 274.98154 76.861181 274.099058 76.210614 273.448492 
C 75.560048 272.797925 74.677566 272.432389 73.757526 272.432389 
C 72.837485 272.432389 71.955003 272.797925 71.304437 273.448492 
C 70.65387 274.099058 70.288334 274.98154 70.288334 275.90158 
C 70.288334 276.821621 70.65387 277.704103 71.304437 278.354669 
C 71.955003 279.005236 72.837485 279.370772 73.757526 279.370772 
z
" style="fill:#4c72b0;fill-opacity:0.9;stroke:#ffffff;stroke-opacity:0.9;stroke-width:0.509291;"/>
    <path clip-path="url(#p99d1845df7)" d="M 77.185902 267.922776 
C 78.110718 267.922776 78.997781 267.555343 79.651725 266.901399 
C 80.305669 266.247455 80.673103 265.360392 80.673103 264.435576 
C 80.673103 263.510759 80.305669 262.623696 79.651725 261.969752 
C 78.997781 261.315808 78.110718 260.948375 77.185902 260.948375 
C 76.261086 260.948375 75.374023 261.315808 74.720079 261.969752 
C 74.066135 262.623696 73.698701 263.510759 73.698701 264.435576 
C 73.698701 265.360392 74.066135 266.247455 74.720079 266.901399 
C 75.374023 267.555343 76.261086 267.922776 77.185902 267.922776 
z
" style="fill:#4c72b0;fill-opacity:0.9;stroke:#ffffff;stroke-opacity:0.9;stroke-width:0.509291;"/>
    <path clip-path="url(#p99d1845df7)" d="M 127.087825 74.333677 
C 128.022956 74.333677 128.919913 73.962145 129.581151 73.300907 
C 130.242389 72.639669 130.613921 71.742712 130.613921 70.807581 
C 130.613921 69.872449 130.242389 68.975492 129.581151 68.314254 
C 128.919913 67.653017 128.022956 67.281485 127.087825 67.281485 
C 126.152693 67.281485 125.255736 67.653017 124.594499 68.314254 
C 123.933261 68.975492 123.561729 69.872449 123.561729 70.807581 
C 123.561729 71.742712 123.933261 72.639669 124.594499 73.300907 
C 125.255736 73.962145 126.152693 74.333677 127.087825 74.333677 
z
" style="fill:#4c72b0;fill-opacity:0.9;stroke:#ffffff;stroke-opacity:0.9;stroke-width:0.509291;"/>
    <path clip-path="url(#p99d1845df7)" d="M 142.134588 48.713783 
C 143.094983 48.713783 144.016172 48.332214 144.695274 47.653112 
C 145.374376 46.974011 145.755945 46.052822 145.755945 45.092427 
C 145.755945 44.132032 145.374376 43.210842 144.695274 42.531741 
C 144.016172 41.852639 143.094983 41.47107 142.134588 41.47107 
C 141.174193 41.47107 140.253004 41.852639 139.573902 42.531741 
C 138.8948 43.210842 138.513231 44.132032 138.513231 45.092427 
C 138.513231 46.052822 138.8948 46.974011 139.573902 47.653112 
C 140.253004 48.332214 141.174193 48.713783 142.134588 48.713783 
z
" style="fill:#4c72b0;fill-opacity:0.9;stroke:#ffffff;stroke-opacity:0.9;stroke-width:0.509291;"/>
    <path clip-path="url(#p99d1845df7)" d="M 84.994981 75.676655 
C 85.956794 75.676655 86.879342 75.294523 87.559446 74.614419 
C 88.23955 73.934315 88.621682 73.011766 88.621682 72.049954 
C 88.621682 71.088142 88.23955 70.165593 87.559446 69.485489 
C 86.879342 68.805385 85.956794 68.423253 84.994981 68.423253 
C 84.033169 68.423253 83.110621 68.805385 82.430517 69.485489 
C 81.750413 70.165593 81.368281 71.088142 81.368281 72.049954 
C 81.368281 73.011766 81.750413 73.934315 82.430517 74.614419 
C 83.110621 75.294523 84.033169 75.676655 84.994981 75.676655 
z
" style="fill:#4c72b0;fill-opacity:0.9;stroke:#ffffff;stroke-opacity:0.9;stroke-width:0.509291;"/>
    <path clip-path="url(#p99d1845df7)" d="M 156.990885 133.367997 
C 157.926234 133.367997 158.8234 132.996379 159.484792 132.334987 
C 160.146183 131.673596 160.517801 130.77643 160.517801 129.841081 
C 160.517801 128.905732 160.146183 128.008567 159.484792 127.347175 
C 158.8234 126.685783 157.926234 126.314165 156.990885 126.314165 
C 156.055536 126.314165 155.158371 126.685783 154.496979 127.347175 
C 153.835588 128.008567 153.46397 128.905732 153.46397 129.841081 
C 153.46397 130.77643 153.835588 131.673596 154.496979 132.334987 
C 155.158371 132.996379 156.055536 133.367997 156.990885 133.367997 
z
" style="fill:#4c72b0;fill-opacity:0.9;stroke:#ffffff;stroke-opacity:0.9;stroke-width:0.509291;"/>
    <path clip-path="url(#p99d1845df7)" d="M 144.420172 57.019771 
C 145.358269 57.019771 146.258071 56.647061 146.921406 55.983726 
C 147.584741 55.320391 147.957451 54.42059 147.957451 53.482492 
C 147.957451 52.544395 147.584741 51.644593 146.921406 50.981258 
C 146.258071 50.317923 145.358269 49.945213 144.420172 49.945213 
C 143.482075 49.945213 142.582273 50.317923 141.918938 50.981258 
C 141.255603 51.644593 140.882893 52.544395 140.882893 53.482492 
C 140.882893 54.42059 141.255603 55.320391 141.918938 55.983726 
C 142.582273 56.647061 143.482075 57.019771 144.420172 57.019771 
z
" style="fill:#4c72b0;fill-opacity:0.9;stroke:#ffffff;stroke-opacity:0.9;stroke-width:0.509291;"/>
    <path clip-path="url(#p99d1845df7)" d="M 118.516884 51.339749 
C 119.471027 51.339749 120.386219 50.960664 121.0609 50.285983 
C 121.735581 49.611302 122.114666 48.69611 122.114666 47.741967 
C 122.114666 46.787824 121.735581 45.872631 121.0609 45.19795 
C 120.386219 44.523269 119.471027 44.144184 118.516884 44.144184 
C 117.562741 44.144184 116.647549 44.523269 115.972868 45.19795 
C 115.298187 45.872631 114.919102 46.787824 114.919102 47.741967 
C 114.919102 48.69611 115.298187 49.611302 115.972868 50.285983 
C 116.647549 50.960664 117.562741 51.339749 118.516884 51.339749 
z
" style="fill:#4c72b0;fill-opacity:0.9;stroke:#ffffff;stroke-opacity:0.9;stroke-width:0.509291;"/>
    <path clip-path="url(#p99d1845df7)" d="M 94.89918 90.772394 
C 95.84264 90.772394 96.747586 90.397553 97.414713 89.730426 
C 98.08184 89.063299 98.456681 88.158353 98.456681 87.214893 
C 98.456681 86.271433 98.08184 85.366487 97.414713 84.69936 
C 96.747586 84.032233 95.84264 83.657392 94.89918 83.657392 
C 93.95572 83.657392 93.050774 84.032233 92.383647 84.69936 
C 91.71652 85.366487 91.341679 86.271433 91.341679 87.214893 
C 91.341679 88.158353 91.71652 89.063299 92.383647 89.730426 
C 93.050774 90.397553 93.95572 90.772394 94.89918 90.772394 
z
" style="fill:#4c72b0;fill-opacity:0.9;stroke:#ffffff;stroke-opacity:0.9;stroke-width:0.509291;"/>
    <path clip-path="url(#p99d1845df7)" d="M 123.468983 94.487888 
C 124.405605 94.487888 125.303992 94.115764 125.966284 93.453472 
C 126.628576 92.79118 127.0007 91.892794 127.0007 90.956171 
C 127.0007 90.019549 126.628576 89.121162 125.966284 88.45887 
C 125.303992 87.796578 124.405605 87.424455 123.468983 87.424455 
C 122.532361 87.424455 121.633974 87.796578 120.971682 88.45887 
C 120.30939 89.121162 119.937266 90.019549 119.937266 90.956171 
C 119.937266 91.892794 120.30939 92.79118 120.971682 93.453472 
C 121.633974 94.115764 122.532361 94.487888 123.468983 94.487888 
z
" style="fill:#4c72b0;fill-opacity:0.9;stroke:#ffffff;stroke-opacity:0.9;stroke-width:0.509291;"/>
   </g>
   <g id="PathCollection_2"/>
   <g id="PathCollection_3"/>
   <g id="PathCollection_4"/>
   <g id="PathCollection_5"/>
   <g id="patch_3">
    <path d="M 58.539344 339.998134 
L 58.539344 7.358134 
" style="fill:none;stroke:#262626;stroke-linecap:square;stroke-linejoin:miter;stroke-width:1.25;"/>
   </g>
   <g id="patch_4">
    <path d="M 393.339344 339.998134 
L 393.339344 7.358134 
" style="fill:none;stroke:#262626;stroke-linecap:square;stroke-linejoin:miter;stroke-width:1.25;"/>
   </g>
   <g id="patch_5">
    <path d="M 58.539344 339.998134 
L 393.339344 339.998134 
" style="fill:none;stroke:#262626;stroke-linecap:square;stroke-linejoin:miter;stroke-width:1.25;"/>
   </g>
   <g id="patch_6">
    <path d="M 58.539344 7.358134 
L 393.339344 7.358134 
" style="fill:none;stroke:#262626;stroke-linecap:square;stroke-linejoin:miter;stroke-width:1.25;"/>
   </g>
   <g id="legend_1">
    <g id="patch_7">
     <path d="M 403.349344 228.926509 
L 519.870781 228.926509 
Q 522.730781 228.926509 522.730781 226.066509 
L 522.730781 121.289759 
Q 522.730781 118.429759 519.870781 118.429759 
L 403.349344 118.429759 
Q 400.489344 118.429759 400.489344 121.289759 
L 400.489344 226.066509 
Q 400.489344 228.926509 403.349344 228.926509 
z
" style="fill:#ffffff;opacity:0.8;stroke:#cccccc;stroke-linejoin:miter;"/>
    </g>
    <g id="text_18">
     <!-- Water content -->
     <g style="fill:#262626;" transform="translate(406.209344 136.003321)scale(0.156 -0.156)">
      <defs>
       <path d="M 213 4666 
L 850 4666 
L 1831 722 
L 2809 4666 
L 3519 4666 
L 4500 722 
L 5478 4666 
L 6119 4666 
L 4947 0 
L 4153 0 
L 3169 4050 
L 2175 0 
L 1381 0 
L 213 4666 
z
" id="DejaVuSans-57" transform="scale(0.015625)"/>
       <path d="M 3122 3366 
L 3122 2828 
Q 2878 2963 2633 3030 
Q 2388 3097 2138 3097 
Q 1578 3097 1268 2742 
Q 959 2388 959 1747 
Q 959 1106 1268 751 
Q 1578 397 2138 397 
Q 2388 397 2633 464 
Q 2878 531 3122 666 
L 3122 134 
Q 2881 22 2623 -34 
Q 2366 -91 2075 -91 
Q 1284 -91 818 406 
Q 353 903 353 1747 
Q 353 2603 823 3093 
Q 1294 3584 2113 3584 
Q 2378 3584 2631 3529 
Q 2884 3475 3122 3366 
z
" id="DejaVuSans-63" transform="scale(0.015625)"/>
      </defs>
      <use xlink:href="#DejaVuSans-57"/>
      <use x="92.501953" xlink:href="#DejaVuSans-61"/>
      <use x="153.78125" xlink:href="#DejaVuSans-74"/>
      <use x="192.990234" xlink:href="#DejaVuSans-65"/>
      <use x="254.513672" xlink:href="#DejaVuSans-72"/>
      <use x="295.626953" xlink:href="#DejaVuSans-20"/>
      <use x="327.414062" xlink:href="#DejaVuSans-63"/>
      <use x="382.394531" xlink:href="#DejaVuSans-6f"/>
      <use x="443.576172" xlink:href="#DejaVuSans-6e"/>
      <use x="506.955078" xlink:href="#DejaVuSans-74"/>
      <use x="546.164062" xlink:href="#DejaVuSans-65"/>
      <use x="607.6875" xlink:href="#DejaVuSans-6e"/>
      <use x="671.066406" xlink:href="#DejaVuSans-74"/>
     </g>
    </g>
    <g id="PathCollection_6">
     <defs>
      <path d="M 0 5.322767 
C 1.411614 5.322767 2.765603 4.761927 3.763765 3.763765 
C 4.761927 2.765603 5.322767 1.411614 5.322767 0 
C 5.322767 -1.411614 4.761927 -2.765603 3.763765 -3.763765 
C 2.765603 -4.761927 1.411614 -5.322767 0 -5.322767 
C -1.411614 -5.322767 -2.765603 -4.761927 -3.763765 -3.763765 
C -4.761927 -2.765603 -5.322767 -1.411614 -5.322767 0 
C -5.322767 1.411614 -4.761927 2.765603 -3.763765 3.763765 
C -2.765603 4.761927 -1.411614 5.322767 0 5.322767 
z
" id="med839c6152" style="stroke:#333333;"/>
     </defs>
     <g>
      <use style="fill:#333333;stroke:#333333;" x="446.791688" xlink:href="#med839c6152" y="153.509649"/>
     </g>
    </g>
    <g id="text_19">
     <!-- 5 -->
     <g style="fill:#262626;" transform="translate(472.531688 157.263399)scale(0.143 -0.143)">
      <use xlink:href="#DejaVuSans-35"/>
     </g>
    </g>
    <g id="PathCollection_7">
     <defs>
      <path d="M 0 6.853143 
C 1.817475 6.853143 3.560755 6.131053 4.845904 4.845904 
C 6.131053 3.560755 6.853143 1.817475 6.853143 0 
C 6.853143 -1.817475 6.131053 -3.560755 4.845904 -4.845904 
C 3.560755 -6.131053 1.817475 -6.853143 0 -6.853143 
C -1.817475 -6.853143 -3.560755 -6.131053 -4.845904 -4.845904 
C -6.131053 -3.560755 -6.853143 -1.817475 -6.853143 0 
C -6.853143 1.817475 -6.131053 3.560755 -4.845904 4.845904 
C -3.560755 6.131053 -1.817475 6.853143 0 6.853143 
z
" id="m276c6a19ff" style="stroke:#333333;"/>
     </defs>
     <g>
      <use style="fill:#333333;stroke:#333333;" x="446.791688" xlink:href="#m276c6a19ff" y="174.499368"/>
     </g>
    </g>
    <g id="text_20">
     <!-- 10 -->
     <g style="fill:#262626;" transform="translate(472.531688 178.253118)scale(0.143 -0.143)">
      <defs>
       <path d="M 794 531 
L 1825 531 
L 1825 4091 
L 703 3866 
L 703 4441 
L 1819 4666 
L 2450 4666 
L 2450 531 
L 3481 531 
L 3481 0 
L 794 0 
L 794 531 
z
" id="DejaVuSans-31" transform="scale(0.015625)"/>
      </defs>
      <use xlink:href="#DejaVuSans-31"/>
      <use x="63.623047" xlink:href="#DejaVuSans-30"/>
     </g>
    </g>
    <g id="PathCollection_8">
     <defs>
      <path d="M 0 8.099339 
C 2.14797 8.099339 4.208253 7.245941 5.727097 5.727097 
C 7.245941 4.208253 8.099339 2.14797 8.099339 0 
C 8.099339 -2.14797 7.245941 -4.208253 5.727097 -5.727097 
C 4.208253 -7.245941 2.14797 -8.099339 0 -8.099339 
C -2.14797 -8.099339 -4.208253 -7.245941 -5.727097 -5.727097 
C -7.245941 -4.208253 -8.099339 -2.14797 -8.099339 0 
C -8.099339 2.14797 -7.245941 4.208253 -5.727097 5.727097 
C -4.208253 7.245941 -2.14797 8.099339 0 8.099339 
z
" id="m2253f8aa2f" style="stroke:#333333;"/>
     </defs>
     <g>
      <use style="fill:#333333;stroke:#333333;" x="446.791688" xlink:href="#m2253f8aa2f" y="195.489087"/>
     </g>
    </g>
    <g id="text_21">
     <!-- 15 -->
     <g style="fill:#262626;" transform="translate(472.531688 199.242837)scale(0.143 -0.143)">
      <use xlink:href="#DejaVuSans-31"/>
      <use x="63.623047" xlink:href="#DejaVuSans-35"/>
     </g>
    </g>
    <g id="PathCollection_9">
     <defs>
      <path d="M 0 9.177854 
C 2.433995 9.177854 4.768628 8.210818 6.489723 6.489723 
C 8.210818 4.768628 9.177854 2.433995 9.177854 0 
C 9.177854 -2.433995 8.210818 -4.768628 6.489723 -6.489723 
C 4.768628 -8.210818 2.433995 -9.177854 0 -9.177854 
C -2.433995 -9.177854 -4.768628 -8.210818 -6.489723 -6.489723 
C -8.210818 -4.768628 -9.177854 -2.433995 -9.177854 0 
C -9.177854 2.433995 -8.210818 4.768628 -6.489723 6.489723 
C -4.768628 8.210818 -2.433995 9.177854 0 9.177854 
z
" id="m7fa509aee7" style="stroke:#333333;"/>
     </defs>
     <g>
      <use style="fill:#333333;stroke:#333333;" x="446.791688" xlink:href="#m7fa509aee7" y="216.478806"/>
     </g>
    </g>
    <g id="text_22">
     <!-- 20 -->
     <g style="fill:#262626;" transform="translate(472.531688 220.232556)scale(0.143 -0.143)">
      <defs>
       <path d="M 1228 531 
L 3431 531 
L 3431 0 
L 469 0 
L 469 531 
Q 828 903 1448 1529 
Q 2069 2156 2228 2338 
Q 2531 2678 2651 2914 
Q 2772 3150 2772 3378 
Q 2772 3750 2511 3984 
Q 2250 4219 1831 4219 
Q 1534 4219 1204 4116 
Q 875 4013 500 3803 
L 500 4441 
Q 881 4594 1212 4672 
Q 1544 4750 1819 4750 
Q 2544 4750 2975 4387 
Q 3406 4025 3406 3419 
Q 3406 3131 3298 2873 
Q 3191 2616 2906 2266 
Q 2828 2175 2409 1742 
Q 1991 1309 1228 531 
z
" id="DejaVuSans-32" transform="scale(0.015625)"/>
      </defs>
      <use xlink:href="#DejaVuSans-32"/>
      <use x="63.623047" xlink:href="#DejaVuSans-30"/>
     </g>
    </g>
   </g>
  </g>
 </g>
 <defs>
  <clipPath id="p99d1845df7">
   <rect height="332.64" width="334.8" x="58.539344" y="7.358134"/>
  </clipPath>
 </defs>
</svg>
