<?xml version="1.0" encoding="utf-8" standalone="no"?>
<!DOCTYPE svg PUBLIC "-//W3C//DTD SVG 1.1//EN"
  "http://www.w3.org/Graphics/SVG/1.1/DTD/svg11.dtd">
<svg xmlns:xlink="http://www.w3.org/1999/xlink" width="432.9pt" height="190.985656pt" viewBox="0 0 432.9 190.985656" xmlns="http://www.w3.org/2000/svg" version="1.1">
 <metadata>
  <rdf:RDF xmlns:dc="http://purl.org/dc/elements/1.1/" xmlns:cc="http://creativecommons.org/ns#" xmlns:rdf="http://www.w3.org/1999/02/22-rdf-syntax-ns#">
   <cc:Work>
    <dc:type rdf:resource="http://purl.org/dc/dcmitype/StillImage"/>
    <dc:date>2023-08-17T08:20:22.255942</dc:date>
    <dc:format>image/svg+xml</dc:format>
    <dc:creator>
     <cc:Agent>
      <dc:title>Matplotlib v3.7.1, https://matplotlib.org/</dc:title>
     </cc:Agent>
    </dc:creator>
   </cc:Work>
  </rdf:RDF>
 </metadata>
 <defs>
  <style type="text/css">*{stroke-linejoin: round; stroke-linecap: butt}</style>
 </defs>
 <g id="figure_1">
  <g id="patch_1">
   <path d="M 0 190.985656 
L 432.9 190.985656 
L 432.9 0 
L 0 0 
z
" style="fill: #ffffff"/>
  </g>
  <g id="axes_1">
   <g id="patch_2">
    <path d="M 7.2 41.85 
L 425.7 41.85 
L 425.7 7.2 
L 7.2 7.2 
L 7.2 41.85 
z
" style="fill: none"/>
   </g>
   <g id="matplotlib.axis_1">
    <g id="xtick_1"/>
    <g id="xtick_2"/>
    <g id="xtick_3"/>
    <g id="xtick_4"/>
    <g id="xtick_5"/>
    <g id="xtick_6"/>
   </g>
   <g id="matplotlib.axis_2"/>
   <g id="PolyCollection_1">
    <defs>
     <path id="mc1937baea7" d="M 26.222727 -149.15497 
L 26.222727 -149.135656 
L 28.134559 -149.135656 
L 30.046391 -149.135656 
L 31.958223 -149.135656 
L 33.870055 -149.135656 
L 35.781887 -149.135656 
L 37.693719 -149.135656 
L 39.60555 -149.135656 
L 41.517382 -149.135656 
L 43.429214 -149.135656 
L 45.341046 -149.135656 
L 47.252878 -149.135656 
L 49.16471 -149.135656 
L 51.076542 -149.135656 
L 52.988374 -149.135656 
L 54.900206 -149.135656 
L 56.812037 -149.135656 
L 58.723869 -149.135656 
L 60.635701 -149.135656 
L 62.547533 -149.135656 
L 64.459365 -149.135656 
L 66.371197 -149.135656 
L 68.283029 -149.135656 
L 70.194861 -149.135656 
L 72.106693 -149.135656 
L 74.018524 -149.135656 
L 75.930356 -149.135656 
L 77.842188 -149.135656 
L 79.75402 -149.135656 
L 81.665852 -149.135656 
L 83.577684 -149.135656 
L 85.489516 -149.135656 
L 87.401348 -149.135656 
L 89.31318 -149.135656 
L 91.225011 -149.135656 
L 93.136843 -149.135656 
L 95.048675 -149.135656 
L 96.960507 -149.135656 
L 98.872339 -149.135656 
L 100.784171 -149.135656 
L 102.696003 -149.135656 
L 104.607835 -149.135656 
L 106.519667 -149.135656 
L 108.431498 -149.135656 
L 110.34333 -149.135656 
L 112.255162 -149.135656 
L 114.166994 -149.135656 
L 116.078826 -149.135656 
L 117.990658 -149.135656 
L 119.90249 -149.135656 
L 121.814322 -149.135656 
L 123.726153 -149.135656 
L 125.637985 -149.135656 
L 127.549817 -149.135656 
L 129.461649 -149.135656 
L 131.373481 -149.135656 
L 133.285313 -149.135656 
L 135.197145 -149.135656 
L 137.108977 -149.135656 
L 139.020809 -149.135656 
L 140.93264 -149.135656 
L 142.844472 -149.135656 
L 144.756304 -149.135656 
L 146.668136 -149.135656 
L 148.579968 -149.135656 
L 150.4918 -149.135656 
L 152.403632 -149.135656 
L 154.315464 -149.135656 
L 156.227296 -149.135656 
L 158.139127 -149.135656 
L 160.050959 -149.135656 
L 161.962791 -149.135656 
L 163.874623 -149.135656 
L 165.786455 -149.135656 
L 167.698287 -149.135656 
L 169.610119 -149.135656 
L 171.521951 -149.135656 
L 173.433783 -149.135656 
L 175.345614 -149.135656 
L 177.257446 -149.135656 
L 179.169278 -149.135656 
L 181.08111 -149.135656 
L 182.992942 -149.135656 
L 184.904774 -149.135656 
L 186.816606 -149.135656 
L 188.728438 -149.135656 
L 190.64027 -149.135656 
L 192.552101 -149.135656 
L 194.463933 -149.135656 
L 196.375765 -149.135656 
L 198.287597 -149.135656 
L 200.199429 -149.135656 
L 202.111261 -149.135656 
L 204.023093 -149.135656 
L 205.934925 -149.135656 
L 207.846757 -149.135656 
L 209.758588 -149.135656 
L 211.67042 -149.135656 
L 213.582252 -149.135656 
L 215.494084 -149.135656 
L 217.405916 -149.135656 
L 219.317748 -149.135656 
L 221.22958 -149.135656 
L 223.141412 -149.135656 
L 225.053243 -149.135656 
L 226.965075 -149.135656 
L 228.876907 -149.135656 
L 230.788739 -149.135656 
L 232.700571 -149.135656 
L 234.612403 -149.135656 
L 236.524235 -149.135656 
L 238.436067 -149.135656 
L 240.347899 -149.135656 
L 242.25973 -149.135656 
L 244.171562 -149.135656 
L 246.083394 -149.135656 
L 247.995226 -149.135656 
L 249.907058 -149.135656 
L 251.81889 -149.135656 
L 253.730722 -149.135656 
L 255.642554 -149.135656 
L 257.554386 -149.135656 
L 259.466217 -149.135656 
L 261.378049 -149.135656 
L 263.289881 -149.135656 
L 265.201713 -149.135656 
L 267.113545 -149.135656 
L 269.025377 -149.135656 
L 270.937209 -149.135656 
L 272.849041 -149.135656 
L 274.760873 -149.135656 
L 276.672704 -149.135656 
L 278.584536 -149.135656 
L 280.496368 -149.135656 
L 282.4082 -149.135656 
L 284.320032 -149.135656 
L 286.231864 -149.135656 
L 288.143696 -149.135656 
L 290.055528 -149.135656 
L 291.96736 -149.135656 
L 293.879191 -149.135656 
L 295.791023 -149.135656 
L 297.702855 -149.135656 
L 299.614687 -149.135656 
L 301.526519 -149.135656 
L 303.438351 -149.135656 
L 305.350183 -149.135656 
L 307.262015 -149.135656 
L 309.173847 -149.135656 
L 311.085678 -149.135656 
L 312.99751 -149.135656 
L 314.909342 -149.135656 
L 316.821174 -149.135656 
L 318.733006 -149.135656 
L 320.644838 -149.135656 
L 322.55667 -149.135656 
L 324.468502 -149.135656 
L 326.380333 -149.135656 
L 328.292165 -149.135656 
L 330.203997 -149.135656 
L 332.115829 -149.135656 
L 334.027661 -149.135656 
L 335.939493 -149.135656 
L 337.851325 -149.135656 
L 339.763157 -149.135656 
L 341.674989 -149.135656 
L 343.58682 -149.135656 
L 345.498652 -149.135656 
L 347.410484 -149.135656 
L 349.322316 -149.135656 
L 351.234148 -149.135656 
L 353.14598 -149.135656 
L 355.057812 -149.135656 
L 356.969644 -149.135656 
L 358.881476 -149.135656 
L 360.793307 -149.135656 
L 362.705139 -149.135656 
L 364.616971 -149.135656 
L 366.528803 -149.135656 
L 368.440635 -149.135656 
L 370.352467 -149.135656 
L 372.264299 -149.135656 
L 374.176131 -149.135656 
L 376.087963 -149.135656 
L 377.999794 -149.135656 
L 379.911626 -149.135656 
L 381.823458 -149.135656 
L 383.73529 -149.135656 
L 385.647122 -149.135656 
L 387.558954 -149.135656 
L 389.470786 -149.135656 
L 391.382618 -149.135656 
L 393.29445 -149.135656 
L 395.206281 -149.135656 
L 397.118113 -149.135656 
L 399.029945 -149.135656 
L 400.941777 -149.135656 
L 402.853609 -149.135656 
L 404.765441 -149.135656 
L 406.677273 -149.135656 
L 406.677273 -149.141086 
L 406.677273 -149.141086 
L 404.765441 -149.144473 
L 402.853609 -149.149584 
L 400.941777 -149.157058 
L 399.029945 -149.167646 
L 397.118113 -149.182169 
L 395.206281 -149.201444 
L 393.29445 -149.226172 
L 391.382618 -149.256803 
L 389.470786 -149.293387 
L 387.558954 -149.335433 
L 385.647122 -149.381812 
L 383.73529 -149.430735 
L 381.823458 -149.479821 
L 379.911626 -149.526283 
L 377.999794 -149.567211 
L 376.087963 -149.599927 
L 374.176131 -149.622368 
L 372.264299 -149.633438 
L 370.352467 -149.633272 
L 368.440635 -149.623362 
L 366.528803 -149.60653 
L 364.616971 -149.586732 
L 362.705139 -149.568722 
L 360.793307 -149.557611 
L 358.881476 -149.558365 
L 356.969644 -149.575279 
L 355.057812 -149.611496 
L 353.14598 -149.668588 
L 351.234148 -149.746254 
L 349.322316 -149.842174 
L 347.410484 -149.952035 
L 345.498652 -150.069777 
L 343.58682 -150.188036 
L 341.674989 -150.298766 
L 339.763157 -150.394002 
L 337.851325 -150.466649 
L 335.939493 -150.511233 
L 334.027661 -150.524499 
L 332.115829 -150.505774 
L 330.203997 -150.45706 
L 328.292165 -150.382849 
L 326.380333 -150.289689 
L 324.468502 -150.185576 
L 322.55667 -150.079256 
L 320.644838 -149.979515 
L 318.733006 -149.894535 
L 316.821174 -149.831365 
L 314.909342 -149.795533 
L 312.99751 -149.790796 
L 311.085678 -149.819049 
L 309.173847 -149.880348 
L 307.262015 -149.973068 
L 305.350183 -150.094157 
L 303.438351 -150.239497 
L 301.526519 -150.404331 
L 299.614687 -150.583733 
L 297.702855 -150.773081 
L 295.791023 -150.968486 
L 293.879191 -151.167109 
L 291.96736 -151.367349 
L 290.055528 -151.568834 
L 288.143696 -151.772234 
L 286.231864 -151.97887 
L 284.320032 -152.190192 
L 282.4082 -152.407165 
L 280.496368 -152.629673 
L 278.584536 -152.856041 
L 276.672704 -153.082789 
L 274.760873 -153.304713 
L 272.849041 -153.515312 
L 270.937209 -153.70757 
L 269.025377 -153.874975 
L 267.113545 -154.012654 
L 265.201713 -154.118426 
L 263.289881 -154.193629 
L 261.378049 -154.243562 
L 259.466217 -154.2775 
L 257.554386 -154.308257 
L 255.642554 -154.351377 
L 253.730722 -154.424029 
L 251.81889 -154.543744 
L 249.907058 -154.727087 
L 247.995226 -154.98838 
L 246.083394 -155.33857 
L 244.171562 -155.784287 
L 242.25973 -156.327179 
L 240.347899 -156.963534 
L 238.436067 -157.684203 
L 236.524235 -158.474815 
L 234.612403 -159.316258 
L 232.700571 -160.185369 
L 230.788739 -161.055826 
L 228.876907 -161.899193 
L 226.965075 -162.686124 
L 225.053243 -163.387716 
L 223.141412 -163.97699 
L 221.22958 -164.430461 
L 219.317748 -164.729732 
L 217.405916 -164.862976 
L 215.494084 -164.826172 
L 213.582252 -164.623914 
L 211.67042 -164.269631 
L 209.758588 -163.785076 
L 207.846757 -163.199018 
L 205.934925 -162.545147 
L 204.023093 -161.859329 
L 202.111261 -161.176465 
L 200.199429 -160.527313 
L 198.287597 -159.93569 
L 196.375765 -159.416454 
L 194.463933 -158.974619 
L 192.552101 -158.605731 
L 190.64027 -158.297506 
L 188.728438 -158.032445 
L 186.816606 -157.791007 
L 184.904774 -157.554807 
L 182.992942 -157.309318 
L 181.08111 -157.045669 
L 179.169278 -156.761311 
L 177.257446 -156.45957 
L 175.345614 -156.148279 
L 173.433783 -155.837857 
L 171.521951 -155.539238 
L 169.610119 -155.262035 
L 167.698287 -155.013219 
L 165.786455 -154.796449 
L 163.874623 -154.612081 
L 161.962791 -154.457734 
L 160.050959 -154.329259 
L 158.139127 -154.221908 
L 156.227296 -154.1315 
L 154.315464 -154.055401 
L 152.403632 -153.993188 
L 150.4918 -153.946863 
L 148.579968 -153.920595 
L 146.668136 -153.919975 
L 144.756304 -153.950882 
L 142.844472 -154.018102 
L 140.93264 -154.123906 
L 139.020809 -154.266816 
L 137.108977 -154.440773 
L 135.197145 -154.634889 
L 133.285313 -154.83385 
L 131.373481 -155.01899 
L 129.461649 -155.169907 
L 127.549817 -155.266453 
L 125.637985 -155.290824 
L 123.726153 -155.22951 
L 121.814322 -155.07482 
L 119.90249 -154.825806 
L 117.990658 -154.488439 
L 116.078826 -154.075035 
L 114.166994 -153.602997 
L 112.255162 -153.093068 
L 110.34333 -152.567313 
L 108.431498 -152.047117 
L 106.519667 -151.55144 
L 104.607835 -151.095535 
L 102.696003 -150.690228 
L 100.784171 -150.341801 
L 98.872339 -150.052395 
L 96.960507 -149.820813 
L 95.048675 -149.643542 
L 93.136843 -149.515839 
L 91.225011 -149.432703 
L 89.31318 -149.389635 
L 87.401348 -149.383089 
L 85.489516 -149.410589 
L 83.577684 -149.470528 
L 81.665852 -149.561682 
L 79.75402 -149.682539 
L 77.842188 -149.830555 
L 75.930356 -150.001467 
L 74.018524 -150.188827 
L 72.106693 -150.383869 
L 70.194861 -150.575805 
L 68.283029 -150.752557 
L 66.371197 -150.901857 
L 64.459365 -151.012564 
L 62.547533 -151.075991 
L 60.635701 -151.087005 
L 58.723869 -151.044693 
L 56.812037 -150.952483 
L 54.900206 -150.817679 
L 52.988374 -150.650505 
L 51.076542 -150.462823 
L 49.16471 -150.266754 
L 47.252878 -150.073421 
L 45.341046 -149.891978 
L 43.429214 -149.729042 
L 41.517382 -149.58854 
L 39.60555 -149.471901 
L 37.693719 -149.378509 
L 35.781887 -149.306283 
L 33.870055 -149.252276 
L 31.958223 -149.213194 
L 30.046391 -149.185807 
L 28.134559 -149.16721 
L 26.222727 -149.15497 
z
" style="stroke: #90c1c6; stroke-width: 1.5"/>
    </defs>
    <g>
     <use xlink:href="#mc1937baea7" x="0" y="190.985656" style="fill: #90c1c6; stroke: #90c1c6; stroke-width: 1.5"/>
    </g>
   </g>
   <g id="line2d_1">
    <path d="M 26.222727 41.830687 
L 35.781887 41.679373 
L 41.517382 41.397116 
L 47.252878 40.912235 
L 56.812037 40.033174 
L 60.635701 39.898651 
L 64.459365 39.973093 
L 70.194861 40.409851 
L 79.75402 41.303117 
L 85.489516 41.575067 
L 91.225011 41.552953 
L 95.048675 41.342114 
L 98.872339 40.933261 
L 102.696003 40.295429 
L 106.519667 39.434216 
L 117.990658 36.497217 
L 121.814322 35.910836 
L 125.637985 35.694832 
L 129.461649 35.815749 
L 135.197145 36.350767 
L 140.93264 36.86175 
L 144.756304 37.034774 
L 150.4918 37.038793 
L 158.139127 36.763748 
L 163.874623 36.373575 
L 169.610119 35.723621 
L 177.257446 34.526086 
L 184.904774 33.430849 
L 192.552101 32.379926 
L 196.375765 31.569202 
L 200.199429 30.458343 
L 209.758588 27.20058 
L 211.67042 26.716025 
L 213.582252 26.361742 
L 215.494084 26.159484 
L 217.405916 26.12268 
L 219.317748 26.255925 
L 221.22958 26.555196 
L 223.141412 27.008667 
L 226.965075 28.299532 
L 230.788739 29.92983 
L 238.436067 33.301453 
L 242.25973 34.658477 
L 246.083394 35.647087 
L 249.907058 36.25857 
L 253.730722 36.561627 
L 261.378049 36.742094 
L 267.113545 36.973003 
L 272.849041 37.470344 
L 303.438351 40.746159 
L 309.173847 41.105308 
L 314.909342 41.190124 
L 320.644838 41.006141 
L 332.115829 40.479882 
L 337.851325 40.519008 
L 345.498652 40.915879 
L 353.14598 41.317069 
L 358.881476 41.427291 
L 381.823458 41.505836 
L 397.118113 41.803487 
L 406.677273 41.84457 
L 406.677273 41.84457 
" style="fill: none; stroke: #ffffff; stroke-width: 2; stroke-linecap: round"/>
   </g>
   <g id="line2d_2">
    <path d="M 7.2 41.85 
L 425.7 41.85 
" style="fill: none; stroke: #90c1c6; stroke-width: 2; stroke-linecap: round"/>
   </g>
   <g id="text_1">
    <!-- urban biome -->
    <g style="fill: #90c1c6" transform="translate(7.2 38.562375) scale(0.132 -0.132)">
     <defs>
      <path id="DejaVuSans-Bold-75" d="M 500 1363 
L 500 3500 
L 1625 3500 
L 1625 3150 
Q 1625 2866 1622 2436 
Q 1619 2006 1619 1863 
Q 1619 1441 1641 1255 
Q 1663 1069 1716 984 
Q 1784 875 1895 815 
Q 2006 756 2150 756 
Q 2500 756 2700 1025 
Q 2900 1294 2900 1772 
L 2900 3500 
L 4019 3500 
L 4019 0 
L 2900 0 
L 2900 506 
Q 2647 200 2364 54 
Q 2081 -91 1741 -91 
Q 1134 -91 817 281 
Q 500 653 500 1363 
z
" transform="scale(0.015625)"/>
      <path id="DejaVuSans-Bold-72" d="M 3138 2547 
Q 2991 2616 2845 2648 
Q 2700 2681 2553 2681 
Q 2122 2681 1889 2404 
Q 1656 2128 1656 1613 
L 1656 0 
L 538 0 
L 538 3500 
L 1656 3500 
L 1656 2925 
Q 1872 3269 2151 3426 
Q 2431 3584 2822 3584 
Q 2878 3584 2943 3579 
Q 3009 3575 3134 3559 
L 3138 2547 
z
" transform="scale(0.015625)"/>
      <path id="DejaVuSans-Bold-62" d="M 2400 722 
Q 2759 722 2948 984 
Q 3138 1247 3138 1747 
Q 3138 2247 2948 2509 
Q 2759 2772 2400 2772 
Q 2041 2772 1848 2508 
Q 1656 2244 1656 1747 
Q 1656 1250 1848 986 
Q 2041 722 2400 722 
z
M 1656 2988 
Q 1888 3294 2169 3439 
Q 2450 3584 2816 3584 
Q 3463 3584 3878 3070 
Q 4294 2556 4294 1747 
Q 4294 938 3878 423 
Q 3463 -91 2816 -91 
Q 2450 -91 2169 54 
Q 1888 200 1656 506 
L 1656 0 
L 538 0 
L 538 4863 
L 1656 4863 
L 1656 2988 
z
" transform="scale(0.015625)"/>
      <path id="DejaVuSans-Bold-61" d="M 2106 1575 
Q 1756 1575 1579 1456 
Q 1403 1338 1403 1106 
Q 1403 894 1545 773 
Q 1688 653 1941 653 
Q 2256 653 2472 879 
Q 2688 1106 2688 1447 
L 2688 1575 
L 2106 1575 
z
M 3816 1997 
L 3816 0 
L 2688 0 
L 2688 519 
Q 2463 200 2181 54 
Q 1900 -91 1497 -91 
Q 953 -91 614 226 
Q 275 544 275 1050 
Q 275 1666 698 1953 
Q 1122 2241 2028 2241 
L 2688 2241 
L 2688 2328 
Q 2688 2594 2478 2717 
Q 2269 2841 1825 2841 
Q 1466 2841 1156 2769 
Q 847 2697 581 2553 
L 581 3406 
Q 941 3494 1303 3539 
Q 1666 3584 2028 3584 
Q 2975 3584 3395 3211 
Q 3816 2838 3816 1997 
z
" transform="scale(0.015625)"/>
      <path id="DejaVuSans-Bold-6e" d="M 4056 2131 
L 4056 0 
L 2931 0 
L 2931 347 
L 2931 1631 
Q 2931 2084 2911 2256 
Q 2891 2428 2841 2509 
Q 2775 2619 2662 2680 
Q 2550 2741 2406 2741 
Q 2056 2741 1856 2470 
Q 1656 2200 1656 1722 
L 1656 0 
L 538 0 
L 538 3500 
L 1656 3500 
L 1656 2988 
Q 1909 3294 2193 3439 
Q 2478 3584 2822 3584 
Q 3428 3584 3742 3212 
Q 4056 2841 4056 2131 
z
" transform="scale(0.015625)"/>
      <path id="DejaVuSans-Bold-20" transform="scale(0.015625)"/>
      <path id="DejaVuSans-Bold-69" d="M 538 3500 
L 1656 3500 
L 1656 0 
L 538 0 
L 538 3500 
z
M 538 4863 
L 1656 4863 
L 1656 3950 
L 538 3950 
L 538 4863 
z
" transform="scale(0.015625)"/>
      <path id="DejaVuSans-Bold-6f" d="M 2203 2784 
Q 1831 2784 1636 2517 
Q 1441 2250 1441 1747 
Q 1441 1244 1636 976 
Q 1831 709 2203 709 
Q 2569 709 2762 976 
Q 2956 1244 2956 1747 
Q 2956 2250 2762 2517 
Q 2569 2784 2203 2784 
z
M 2203 3584 
Q 3106 3584 3614 3096 
Q 4122 2609 4122 1747 
Q 4122 884 3614 396 
Q 3106 -91 2203 -91 
Q 1297 -91 786 396 
Q 275 884 275 1747 
Q 275 2609 786 3096 
Q 1297 3584 2203 3584 
z
" transform="scale(0.015625)"/>
      <path id="DejaVuSans-Bold-6d" d="M 3781 2919 
Q 3994 3244 4286 3414 
Q 4578 3584 4928 3584 
Q 5531 3584 5847 3212 
Q 6163 2841 6163 2131 
L 6163 0 
L 5038 0 
L 5038 1825 
Q 5041 1866 5042 1909 
Q 5044 1953 5044 2034 
Q 5044 2406 4934 2573 
Q 4825 2741 4581 2741 
Q 4263 2741 4089 2478 
Q 3916 2216 3909 1719 
L 3909 0 
L 2784 0 
L 2784 1825 
Q 2784 2406 2684 2573 
Q 2584 2741 2328 2741 
Q 2006 2741 1831 2477 
Q 1656 2213 1656 1722 
L 1656 0 
L 531 0 
L 531 3500 
L 1656 3500 
L 1656 2988 
Q 1863 3284 2130 3434 
Q 2397 3584 2719 3584 
Q 3081 3584 3359 3409 
Q 3638 3234 3781 2919 
z
" transform="scale(0.015625)"/>
      <path id="DejaVuSans-Bold-65" d="M 4031 1759 
L 4031 1441 
L 1416 1441 
Q 1456 1047 1700 850 
Q 1944 653 2381 653 
Q 2734 653 3104 758 
Q 3475 863 3866 1075 
L 3866 213 
Q 3469 63 3072 -14 
Q 2675 -91 2278 -91 
Q 1328 -91 801 392 
Q 275 875 275 1747 
Q 275 2603 792 3093 
Q 1309 3584 2216 3584 
Q 3041 3584 3536 3087 
Q 4031 2591 4031 1759 
z
M 2881 2131 
Q 2881 2450 2695 2645 
Q 2509 2841 2209 2841 
Q 1884 2841 1681 2658 
Q 1478 2475 1428 2131 
L 2881 2131 
z
" transform="scale(0.015625)"/>
     </defs>
     <use xlink:href="#DejaVuSans-Bold-75"/>
     <use xlink:href="#DejaVuSans-Bold-72" x="71.191406"/>
     <use xlink:href="#DejaVuSans-Bold-62" x="120.507812"/>
     <use xlink:href="#DejaVuSans-Bold-61" x="192.089844"/>
     <use xlink:href="#DejaVuSans-Bold-6e" x="259.570312"/>
     <use xlink:href="#DejaVuSans-Bold-20" x="330.761719"/>
     <use xlink:href="#DejaVuSans-Bold-62" x="365.576172"/>
     <use xlink:href="#DejaVuSans-Bold-69" x="437.158203"/>
     <use xlink:href="#DejaVuSans-Bold-6f" x="471.435547"/>
     <use xlink:href="#DejaVuSans-Bold-6d" x="540.136719"/>
     <use xlink:href="#DejaVuSans-Bold-65" x="644.335938"/>
    </g>
   </g>
  </g>
  <g id="axes_2">
   <g id="patch_3">
    <path d="M 7.2 67.8375 
L 425.7 67.8375 
L 425.7 33.1875 
L 7.2 33.1875 
L 7.2 67.8375 
z
" style="fill: none"/>
   </g>
   <g id="matplotlib.axis_3">
    <g id="xtick_7"/>
    <g id="xtick_8"/>
    <g id="xtick_9"/>
    <g id="xtick_10"/>
    <g id="xtick_11"/>
    <g id="xtick_12"/>
   </g>
   <g id="matplotlib.axis_4"/>
   <g id="PolyCollection_2">
    <defs>
     <path id="m356a5fcef9" d="M 40.780235 -123.170241 
L 40.780235 -123.148156 
L 42.258283 -123.148156 
L 43.736331 -123.148156 
L 45.214379 -123.148156 
L 46.692427 -123.148156 
L 48.170475 -123.148156 
L 49.648523 -123.148156 
L 51.126571 -123.148156 
L 52.604619 -123.148156 
L 54.082667 -123.148156 
L 55.560715 -123.148156 
L 57.038763 -123.148156 
L 58.516811 -123.148156 
L 59.994859 -123.148156 
L 61.472907 -123.148156 
L 62.950955 -123.148156 
L 64.429003 -123.148156 
L 65.907051 -123.148156 
L 67.385099 -123.148156 
L 68.863147 -123.148156 
L 70.341195 -123.148156 
L 71.819243 -123.148156 
L 73.297291 -123.148156 
L 74.775339 -123.148156 
L 76.253387 -123.148156 
L 77.731435 -123.148156 
L 79.209483 -123.148156 
L 80.687531 -123.148156 
L 82.165579 -123.148156 
L 83.643627 -123.148156 
L 85.121675 -123.148156 
L 86.599723 -123.148156 
L 88.077771 -123.148156 
L 89.555819 -123.148156 
L 91.033867 -123.148156 
L 92.511915 -123.148156 
L 93.989963 -123.148156 
L 95.468011 -123.148156 
L 96.946059 -123.148156 
L 98.424107 -123.148156 
L 99.902155 -123.148156 
L 101.380203 -123.148156 
L 102.858251 -123.148156 
L 104.336299 -123.148156 
L 105.814347 -123.148156 
L 107.292395 -123.148156 
L 108.770443 -123.148156 
L 110.248491 -123.148156 
L 111.726539 -123.148156 
L 113.204587 -123.148156 
L 114.682635 -123.148156 
L 116.160683 -123.148156 
L 117.638731 -123.148156 
L 119.116779 -123.148156 
L 120.594827 -123.148156 
L 122.072875 -123.148156 
L 123.550923 -123.148156 
L 125.028971 -123.148156 
L 126.507019 -123.148156 
L 127.985067 -123.148156 
L 129.463115 -123.148156 
L 130.941163 -123.148156 
L 132.419211 -123.148156 
L 133.897259 -123.148156 
L 135.375307 -123.148156 
L 136.853355 -123.148156 
L 138.331403 -123.148156 
L 139.809451 -123.148156 
L 141.287499 -123.148156 
L 142.765547 -123.148156 
L 144.243595 -123.148156 
L 145.721643 -123.148156 
L 147.199691 -123.148156 
L 148.677739 -123.148156 
L 150.155787 -123.148156 
L 151.633835 -123.148156 
L 153.111883 -123.148156 
L 154.589931 -123.148156 
L 156.067979 -123.148156 
L 157.546027 -123.148156 
L 159.024075 -123.148156 
L 160.502123 -123.148156 
L 161.980171 -123.148156 
L 163.458219 -123.148156 
L 164.936267 -123.148156 
L 166.414315 -123.148156 
L 167.892363 -123.148156 
L 169.370411 -123.148156 
L 170.848459 -123.148156 
L 172.326507 -123.148156 
L 173.804555 -123.148156 
L 175.282603 -123.148156 
L 176.760651 -123.148156 
L 178.238699 -123.148156 
L 179.716747 -123.148156 
L 181.194795 -123.148156 
L 182.672843 -123.148156 
L 184.150891 -123.148156 
L 185.628939 -123.148156 
L 187.106987 -123.148156 
L 188.585035 -123.148156 
L 190.063083 -123.148156 
L 191.541131 -123.148156 
L 193.019179 -123.148156 
L 194.497227 -123.148156 
L 195.975275 -123.148156 
L 197.453323 -123.148156 
L 198.931371 -123.148156 
L 200.409419 -123.148156 
L 201.887467 -123.148156 
L 203.365515 -123.148156 
L 204.843563 -123.148156 
L 206.321611 -123.148156 
L 207.799659 -123.148156 
L 209.277707 -123.148156 
L 210.755755 -123.148156 
L 212.233803 -123.148156 
L 213.711851 -123.148156 
L 215.189899 -123.148156 
L 216.667947 -123.148156 
L 218.145995 -123.148156 
L 219.624043 -123.148156 
L 221.102091 -123.148156 
L 222.580139 -123.148156 
L 224.058187 -123.148156 
L 225.536235 -123.148156 
L 227.014283 -123.148156 
L 228.492331 -123.148156 
L 229.970379 -123.148156 
L 231.448427 -123.148156 
L 232.926475 -123.148156 
L 234.404523 -123.148156 
L 235.882571 -123.148156 
L 237.360619 -123.148156 
L 238.838667 -123.148156 
L 240.316715 -123.148156 
L 241.794763 -123.148156 
L 243.272811 -123.148156 
L 244.750859 -123.148156 
L 246.228907 -123.148156 
L 247.706955 -123.148156 
L 249.185003 -123.148156 
L 250.663051 -123.148156 
L 252.141099 -123.148156 
L 253.619147 -123.148156 
L 255.097195 -123.148156 
L 256.575243 -123.148156 
L 258.053291 -123.148156 
L 259.531339 -123.148156 
L 261.009387 -123.148156 
L 262.487435 -123.148156 
L 263.965483 -123.148156 
L 265.443531 -123.148156 
L 266.921579 -123.148156 
L 268.399627 -123.148156 
L 269.877675 -123.148156 
L 271.355723 -123.148156 
L 272.833771 -123.148156 
L 274.311819 -123.148156 
L 275.789867 -123.148156 
L 277.267915 -123.148156 
L 278.745963 -123.148156 
L 280.224011 -123.148156 
L 281.702059 -123.148156 
L 283.180107 -123.148156 
L 284.658155 -123.148156 
L 286.136203 -123.148156 
L 287.614251 -123.148156 
L 289.092299 -123.148156 
L 290.570347 -123.148156 
L 292.048395 -123.148156 
L 293.526443 -123.148156 
L 295.004491 -123.148156 
L 296.482539 -123.148156 
L 297.960587 -123.148156 
L 299.438635 -123.148156 
L 300.916683 -123.148156 
L 302.394731 -123.148156 
L 303.872779 -123.148156 
L 305.350827 -123.148156 
L 306.828875 -123.148156 
L 308.306923 -123.148156 
L 309.784971 -123.148156 
L 311.263019 -123.148156 
L 312.741067 -123.148156 
L 314.219115 -123.148156 
L 315.697163 -123.148156 
L 317.175211 -123.148156 
L 318.653259 -123.148156 
L 320.131307 -123.148156 
L 321.609355 -123.148156 
L 323.087403 -123.148156 
L 324.565451 -123.148156 
L 326.043499 -123.148156 
L 327.521547 -123.148156 
L 328.999595 -123.148156 
L 330.477643 -123.148156 
L 331.955691 -123.148156 
L 333.433739 -123.148156 
L 334.911787 -123.148156 
L 334.911787 -123.19787 
L 334.911787 -123.19787 
L 333.433739 -123.216077 
L 331.955691 -123.24004 
L 330.477643 -123.271237 
L 328.999595 -123.311412 
L 327.521547 -123.362583 
L 326.043499 -123.427047 
L 324.565451 -123.50736 
L 323.087403 -123.60631 
L 321.609355 -123.726861 
L 320.131307 -123.872076 
L 318.653259 -124.045017 
L 317.175211 -124.248623 
L 315.697163 -124.485559 
L 314.219115 -124.758059 
L 312.741067 -125.06775 
L 311.263019 -125.415481 
L 309.784971 -125.801159 
L 308.306923 -126.223607 
L 306.828875 -126.680454 
L 305.350827 -127.168078 
L 303.872779 -127.681592 
L 302.394731 -128.214904 
L 300.916683 -128.76084 
L 299.438635 -129.31133 
L 297.960587 -129.857661 
L 296.482539 -130.390779 
L 295.004491 -130.901622 
L 293.526443 -131.381483 
L 292.048395 -131.822359 
L 290.570347 -132.217287 
L 289.092299 -132.560635 
L 287.614251 -132.848328 
L 286.136203 -133.078004 
L 284.658155 -133.249087 
L 283.180107 -133.362767 
L 281.702059 -133.421901 
L 280.224011 -133.430834 
L 278.745963 -133.395156 
L 277.267915 -133.321415 
L 275.789867 -133.216791 
L 274.311819 -133.088776 
L 272.833771 -132.944847 
L 271.355723 -132.792179 
L 269.877675 -132.637392 
L 268.399627 -132.486348 
L 266.921579 -132.344011 
L 265.443531 -132.214362 
L 263.965483 -132.100374 
L 262.487435 -132.004038 
L 261.009387 -131.926438 
L 259.531339 -131.867859 
L 258.053291 -131.82792 
L 256.575243 -131.805723 
L 255.097195 -131.800004 
L 253.619147 -131.809272 
L 252.141099 -131.831945 
L 250.663051 -131.866449 
L 249.185003 -131.911301 
L 247.706955 -131.965157 
L 246.228907 -132.026835 
L 244.750859 -132.095311 
L 243.272811 -132.16969 
L 241.794763 -132.249162 
L 240.316715 -132.332951 
L 238.838667 -132.42026 
L 237.360619 -132.510212 
L 235.882571 -132.601818 
L 234.404523 -132.693936 
L 232.926475 -132.785267 
L 231.448427 -132.874354 
L 229.970379 -132.9596 
L 228.492331 -133.039299 
L 227.014283 -133.11167 
L 225.536235 -133.174895 
L 224.058187 -133.227163 
L 222.580139 -133.266696 
L 221.102091 -133.291774 
L 219.624043 -133.300756 
L 218.145995 -133.292086 
L 216.667947 -133.264304 
L 215.189899 -133.216047 
L 213.711851 -133.146066 
L 212.233803 -133.053239 
L 210.755755 -132.936602 
L 209.277707 -132.795394 
L 207.799659 -132.629106 
L 206.321611 -132.437551 
L 204.843563 -132.220923 
L 203.365515 -131.979875 
L 201.887467 -131.715575 
L 200.409419 -131.429756 
L 198.931371 -131.124741 
L 197.453323 -130.803458 
L 195.975275 -130.469407 
L 194.497227 -130.126624 
L 193.019179 -129.779599 
L 191.541131 -129.433187 
L 190.063083 -129.092488 
L 188.585035 -128.762723 
L 187.106987 -128.449098 
L 185.628939 -128.156668 
L 184.150891 -127.890196 
L 182.672843 -127.654021 
L 181.194795 -127.451938 
L 179.716747 -127.287079 
L 178.238699 -127.16181 
L 176.760651 -127.077646 
L 175.282603 -127.03517 
L 173.804555 -127.033985 
L 172.326507 -127.07268 
L 170.848459 -127.14882 
L 169.370411 -127.258977 
L 167.892363 -127.398776 
L 166.414315 -127.562997 
L 164.936267 -127.745693 
L 163.458219 -127.940352 
L 161.980171 -128.140086 
L 160.502123 -128.337841 
L 159.024075 -128.526618 
L 157.546027 -128.699704 
L 156.067979 -128.85089 
L 154.589931 -128.974668 
L 153.111883 -129.066406 
L 151.633835 -129.122481 
L 150.155787 -129.140368 
L 148.677739 -129.118688 
L 147.199691 -129.057206 
L 145.721643 -128.956787 
L 144.243595 -128.819317 
L 142.765547 -128.647588 
L 141.287499 -128.445171 
L 139.809451 -128.216258 
L 138.331403 -127.965519 
L 136.853355 -127.697943 
L 135.375307 -127.418701 
L 133.897259 -127.133004 
L 132.419211 -126.845997 
L 130.941163 -126.562647 
L 129.463115 -126.287661 
L 127.985067 -126.025418 
L 126.507019 -125.779902 
L 125.028971 -125.554665 
L 123.550923 -125.352779 
L 122.072875 -125.176813 
L 120.594827 -125.028802 
L 119.116779 -124.910227 
L 117.638731 -124.822001 
L 116.160683 -124.764454 
L 114.682635 -124.737323 
L 113.204587 -124.739751 
L 111.726539 -124.770291 
L 110.248491 -124.826917 
L 108.770443 -124.90705 
L 107.292395 -125.007588 
L 105.814347 -125.124962 
L 104.336299 -125.255195 
L 102.858251 -125.393987 
L 101.380203 -125.536809 
L 99.902155 -125.679013 
L 98.424107 -125.815954 
L 96.946059 -125.943121 
L 95.468011 -126.056272 
L 93.989963 -126.151562 
L 92.511915 -126.225668 
L 91.033867 -126.275898 
L 89.555819 -126.300277 
L 88.077771 -126.297613 
L 86.599723 -126.267526 
L 85.121675 -126.210451 
L 83.643627 -126.127603 
L 82.165579 -126.020915 
L 80.687531 -125.892942 
L 79.209483 -125.746747 
L 77.731435 -125.585769 
L 76.253387 -125.413675 
L 74.775339 -125.234217 
L 73.297291 -125.05109 
L 71.819243 -124.867807 
L 70.341195 -124.687585 
L 68.863147 -124.513259 
L 67.385099 -124.347218 
L 65.907051 -124.191369 
L 64.429003 -124.047126 
L 62.950955 -123.915418 
L 61.472907 -123.796723 
L 59.994859 -123.691113 
L 58.516811 -123.598313 
L 57.038763 -123.51776 
L 55.560715 -123.448676 
L 54.082667 -123.390127 
L 52.604619 -123.341084 
L 51.126571 -123.300477 
L 49.648523 -123.267238 
L 48.170475 -123.240339 
L 46.692427 -123.218813 
L 45.214379 -123.20178 
L 43.736331 -123.188451 
L 42.258283 -123.178136 
L 40.780235 -123.170241 
z
" style="stroke: #7eb1bc; stroke-width: 1.5"/>
    </defs>
    <g>
     <use xlink:href="#m356a5fcef9" x="0" y="190.985656" style="fill: #7eb1bc; stroke: #7eb1bc; stroke-width: 1.5"/>
    </g>
   </g>
   <g id="line2d_3">
    <path d="M 40.780235 67.815416 
L 52.604619 67.644572 
L 59.994859 67.294543 
L 65.907051 66.794287 
L 74.775339 65.75144 
L 82.165579 64.964742 
L 86.599723 64.71813 
L 91.033867 64.709759 
L 95.468011 64.929384 
L 102.858251 65.591669 
L 108.770443 66.078606 
L 113.204587 66.245905 
L 117.638731 66.163655 
L 122.072875 65.808843 
L 126.507019 65.205754 
L 132.419211 64.139659 
L 139.809451 62.769398 
L 144.243595 62.16634 
L 147.199691 61.92845 
L 150.155787 61.845288 
L 153.111883 61.91925 
L 157.546027 62.285952 
L 172.326507 63.912977 
L 175.282603 63.950486 
L 178.238699 63.823846 
L 181.194795 63.533718 
L 185.628939 62.828988 
L 191.541131 61.552469 
L 200.409419 59.555901 
L 204.843563 58.764733 
L 209.277707 58.190263 
L 213.711851 57.83959 
L 218.145995 57.69357 
L 224.058187 57.758493 
L 231.448427 58.111302 
L 249.185003 59.074355 
L 255.097195 59.185653 
L 261.009387 59.059218 
L 266.921579 58.641645 
L 278.745963 57.5905 
L 281.702059 57.563755 
L 284.658155 57.736569 
L 287.614251 58.137329 
L 290.570347 58.768369 
L 293.526443 59.604173 
L 297.960587 61.127995 
L 306.828875 64.305202 
L 311.263019 65.570175 
L 315.697163 66.500097 
L 320.131307 67.113581 
L 324.565451 67.478296 
L 330.477643 67.714419 
L 334.911787 67.787786 
L 334.911787 67.787786 
" style="fill: none; stroke: #ffffff; stroke-width: 2; stroke-linecap: round"/>
   </g>
   <g id="line2d_4">
    <path d="M 7.2 67.8375 
L 425.7 67.8375 
" style="fill: none; stroke: #7eb1bc; stroke-width: 2; stroke-linecap: round"/>
   </g>
   <g id="text_2">
    <!-- marine biome -->
    <g style="fill: #7eb1bc" transform="translate(7.2 64.549875) scale(0.132 -0.132)">
     <use xlink:href="#DejaVuSans-Bold-6d"/>
     <use xlink:href="#DejaVuSans-Bold-61" x="104.199219"/>
     <use xlink:href="#DejaVuSans-Bold-72" x="171.679688"/>
     <use xlink:href="#DejaVuSans-Bold-69" x="220.996094"/>
     <use xlink:href="#DejaVuSans-Bold-6e" x="255.273438"/>
     <use xlink:href="#DejaVuSans-Bold-65" x="326.464844"/>
     <use xlink:href="#DejaVuSans-Bold-20" x="394.287109"/>
     <use xlink:href="#DejaVuSans-Bold-62" x="429.101562"/>
     <use xlink:href="#DejaVuSans-Bold-69" x="500.683594"/>
     <use xlink:href="#DejaVuSans-Bold-6f" x="534.960938"/>
     <use xlink:href="#DejaVuSans-Bold-6d" x="603.662109"/>
     <use xlink:href="#DejaVuSans-Bold-65" x="707.861328"/>
    </g>
   </g>
  </g>
  <g id="axes_3">
   <g id="patch_4">
    <path d="M 7.2 93.825 
L 425.7 93.825 
L 425.7 59.175 
L 7.2 59.175 
L 7.2 93.825 
z
" style="fill: none"/>
   </g>
   <g id="matplotlib.axis_5">
    <g id="xtick_13"/>
    <g id="xtick_14"/>
    <g id="xtick_15"/>
    <g id="xtick_16"/>
    <g id="xtick_17"/>
    <g id="xtick_18"/>
   </g>
   <g id="matplotlib.axis_6"/>
   <g id="PolyCollection_3">
    <defs>
     <path id="m1a72938a5b" d="M 162.962218 -97.200361 
L 162.962218 -97.160656 
L 163.777007 -97.160656 
L 164.591795 -97.160656 
L 165.406583 -97.160656 
L 166.221372 -97.160656 
L 167.03616 -97.160656 
L 167.850948 -97.160656 
L 168.665736 -97.160656 
L 169.480525 -97.160656 
L 170.295313 -97.160656 
L 171.110101 -97.160656 
L 171.92489 -97.160656 
L 172.739678 -97.160656 
L 173.554466 -97.160656 
L 174.369254 -97.160656 
L 175.184043 -97.160656 
L 175.998831 -97.160656 
L 176.813619 -97.160656 
L 177.628408 -97.160656 
L 178.443196 -97.160656 
L 179.257984 -97.160656 
L 180.072772 -97.160656 
L 180.887561 -97.160656 
L 181.702349 -97.160656 
L 182.517137 -97.160656 
L 183.331926 -97.160656 
L 184.146714 -97.160656 
L 184.961502 -97.160656 
L 185.77629 -97.160656 
L 186.591079 -97.160656 
L 187.405867 -97.160656 
L 188.220655 -97.160656 
L 189.035443 -97.160656 
L 189.850232 -97.160656 
L 190.66502 -97.160656 
L 191.479808 -97.160656 
L 192.294597 -97.160656 
L 193.109385 -97.160656 
L 193.924173 -97.160656 
L 194.738961 -97.160656 
L 195.55375 -97.160656 
L 196.368538 -97.160656 
L 197.183326 -97.160656 
L 197.998115 -97.160656 
L 198.812903 -97.160656 
L 199.627691 -97.160656 
L 200.442479 -97.160656 
L 201.257268 -97.160656 
L 202.072056 -97.160656 
L 202.886844 -97.160656 
L 203.701633 -97.160656 
L 204.516421 -97.160656 
L 205.331209 -97.160656 
L 206.145997 -97.160656 
L 206.960786 -97.160656 
L 207.775574 -97.160656 
L 208.590362 -97.160656 
L 209.405151 -97.160656 
L 210.219939 -97.160656 
L 211.034727 -97.160656 
L 211.849515 -97.160656 
L 212.664304 -97.160656 
L 213.479092 -97.160656 
L 214.29388 -97.160656 
L 215.108669 -97.160656 
L 215.923457 -97.160656 
L 216.738245 -97.160656 
L 217.553033 -97.160656 
L 218.367822 -97.160656 
L 219.18261 -97.160656 
L 219.997398 -97.160656 
L 220.812186 -97.160656 
L 221.626975 -97.160656 
L 222.441763 -97.160656 
L 223.256551 -97.160656 
L 224.07134 -97.160656 
L 224.886128 -97.160656 
L 225.700916 -97.160656 
L 226.515704 -97.160656 
L 227.330493 -97.160656 
L 228.145281 -97.160656 
L 228.960069 -97.160656 
L 229.774858 -97.160656 
L 230.589646 -97.160656 
L 231.404434 -97.160656 
L 232.219222 -97.160656 
L 233.034011 -97.160656 
L 233.848799 -97.160656 
L 234.663587 -97.160656 
L 235.478376 -97.160656 
L 236.293164 -97.160656 
L 237.107952 -97.160656 
L 237.92274 -97.160656 
L 238.737529 -97.160656 
L 239.552317 -97.160656 
L 240.367105 -97.160656 
L 241.181894 -97.160656 
L 241.996682 -97.160656 
L 242.81147 -97.160656 
L 243.626258 -97.160656 
L 244.441047 -97.160656 
L 245.255835 -97.160656 
L 246.070623 -97.160656 
L 246.885412 -97.160656 
L 247.7002 -97.160656 
L 248.514988 -97.160656 
L 249.329776 -97.160656 
L 250.144565 -97.160656 
L 250.959353 -97.160656 
L 251.774141 -97.160656 
L 252.588929 -97.160656 
L 253.403718 -97.160656 
L 254.218506 -97.160656 
L 255.033294 -97.160656 
L 255.848083 -97.160656 
L 256.662871 -97.160656 
L 257.477659 -97.160656 
L 258.292447 -97.160656 
L 259.107236 -97.160656 
L 259.922024 -97.160656 
L 260.736812 -97.160656 
L 261.551601 -97.160656 
L 262.366389 -97.160656 
L 263.181177 -97.160656 
L 263.995965 -97.160656 
L 264.810754 -97.160656 
L 265.625542 -97.160656 
L 266.44033 -97.160656 
L 267.255119 -97.160656 
L 268.069907 -97.160656 
L 268.884695 -97.160656 
L 269.699483 -97.160656 
L 270.514272 -97.160656 
L 271.32906 -97.160656 
L 272.143848 -97.160656 
L 272.958637 -97.160656 
L 273.773425 -97.160656 
L 274.588213 -97.160656 
L 275.403001 -97.160656 
L 276.21779 -97.160656 
L 277.032578 -97.160656 
L 277.847366 -97.160656 
L 278.662154 -97.160656 
L 279.476943 -97.160656 
L 280.291731 -97.160656 
L 281.106519 -97.160656 
L 281.921308 -97.160656 
L 282.736096 -97.160656 
L 283.550884 -97.160656 
L 284.365672 -97.160656 
L 285.180461 -97.160656 
L 285.995249 -97.160656 
L 286.810037 -97.160656 
L 287.624826 -97.160656 
L 288.439614 -97.160656 
L 289.254402 -97.160656 
L 290.06919 -97.160656 
L 290.883979 -97.160656 
L 291.698767 -97.160656 
L 292.513555 -97.160656 
L 293.328344 -97.160656 
L 294.143132 -97.160656 
L 294.95792 -97.160656 
L 295.772708 -97.160656 
L 296.587497 -97.160656 
L 297.402285 -97.160656 
L 298.217073 -97.160656 
L 299.031862 -97.160656 
L 299.84665 -97.160656 
L 300.661438 -97.160656 
L 301.476226 -97.160656 
L 302.291015 -97.160656 
L 303.105803 -97.160656 
L 303.920591 -97.160656 
L 304.73538 -97.160656 
L 305.550168 -97.160656 
L 306.364956 -97.160656 
L 307.179744 -97.160656 
L 307.994533 -97.160656 
L 308.809321 -97.160656 
L 309.624109 -97.160656 
L 310.438897 -97.160656 
L 311.253686 -97.160656 
L 312.068474 -97.160656 
L 312.883262 -97.160656 
L 313.698051 -97.160656 
L 314.512839 -97.160656 
L 315.327627 -97.160656 
L 316.142415 -97.160656 
L 316.957204 -97.160656 
L 317.771992 -97.160656 
L 318.58678 -97.160656 
L 319.401569 -97.160656 
L 320.216357 -97.160656 
L 321.031145 -97.160656 
L 321.845933 -97.160656 
L 322.660722 -97.160656 
L 323.47551 -97.160656 
L 324.290298 -97.160656 
L 325.105087 -97.160656 
L 325.105087 -97.204468 
L 325.105087 -97.204468 
L 324.290298 -97.219437 
L 323.47551 -97.238839 
L 322.660722 -97.26375 
L 321.845933 -97.295436 
L 321.031145 -97.335365 
L 320.216357 -97.385211 
L 319.401569 -97.44686 
L 318.58678 -97.522404 
L 317.771992 -97.614116 
L 316.957204 -97.724432 
L 316.142415 -97.855906 
L 315.327627 -98.011155 
L 314.512839 -98.192797 
L 313.698051 -98.403371 
L 312.883262 -98.645246 
L 312.068474 -98.920524 
L 311.253686 -99.230936 
L 310.438897 -99.577732 
L 309.624109 -99.961579 
L 308.809321 -100.38246 
L 307.994533 -100.839588 
L 307.179744 -101.331334 
L 306.364956 -101.855177 
L 305.550168 -102.407686 
L 304.73538 -102.984519 
L 303.920591 -103.580475 
L 303.105803 -104.189559 
L 302.291015 -104.80511 
L 301.476226 -105.419942 
L 300.661438 -106.026542 
L 299.84665 -106.617282 
L 299.031862 -107.184671 
L 298.217073 -107.721625 
L 297.402285 -108.221743 
L 296.587497 -108.679589 
L 295.772708 -109.090963 
L 294.95792 -109.453143 
L 294.143132 -109.765102 
L 293.328344 -110.027652 
L 292.513555 -110.243549 
L 291.698767 -110.417499 
L 290.883979 -110.556096 
L 290.06919 -110.667661 
L 289.254402 -110.761992 
L 288.439614 -110.850034 
L 287.624826 -110.943455 
L 286.810037 -111.054181 
L 285.995249 -111.193871 
L 285.180461 -111.373383 
L 284.365672 -111.602246 
L 283.550884 -111.888179 
L 282.736096 -112.236667 
L 281.921308 -112.650647 
L 281.106519 -113.130304 
L 280.291731 -113.673004 
L 279.476943 -114.273373 
L 278.662154 -114.92352 
L 277.847366 -115.61338 
L 277.032578 -116.331179 
L 276.21779 -117.06397 
L 275.403001 -117.798223 
L 274.588213 -118.520407 
L 273.773425 -119.217553 
L 272.958637 -119.877729 
L 272.143848 -120.490425 
L 271.32906 -121.046804 
L 270.514272 -121.539818 
L 269.699483 -121.964193 
L 268.884695 -122.31628 
L 268.069907 -122.593817 
L 267.255119 -122.795617 
L 266.44033 -122.921224 
L 265.625542 -122.97058 
L 264.810754 -122.943741 
L 263.995965 -122.84066 
L 263.181177 -122.661083 
L 262.366389 -122.404544 
L 261.551601 -122.070483 
L 260.736812 -121.658455 
L 259.922024 -121.168424 
L 259.107236 -120.601099 
L 258.292447 -119.958291 
L 257.477659 -119.243233 
L 256.662871 -118.460854 
L 255.848083 -117.617955 
L 255.033294 -116.723277 
L 254.218506 -115.787444 
L 253.403718 -114.822782 
L 252.588929 -113.843016 
L 251.774141 -112.862867 
L 250.959353 -111.897574 
L 250.144565 -110.962364 
L 249.329776 -110.071905 
L 248.514988 -109.239781 
L 247.7002 -108.478003 
L 246.885412 -107.796594 
L 246.070623 -107.203258 
L 245.255835 -106.703153 
L 244.441047 -106.298771 
L 243.626258 -105.989916 
L 242.81147 -105.773794 
L 241.996682 -105.645182 
L 241.181894 -105.596685 
L 240.367105 -105.619044 
L 239.552317 -105.701498 
L 238.737529 -105.832179 
L 237.92274 -105.998516 
L 237.107952 -106.187657 
L 236.293164 -106.386865 
L 235.478376 -106.583919 
L 234.663587 -106.767465 
L 233.848799 -106.927351 
L 233.034011 -107.054906 
L 232.219222 -107.143173 
L 231.404434 -107.187087 
L 230.589646 -107.183581 
L 229.774858 -107.131629 
L 228.960069 -107.03222 
L 228.145281 -106.888247 
L 227.330493 -106.704341 
L 226.515704 -106.486622 
L 225.700916 -106.242407 
L 224.886128 -105.979859 
L 224.07134 -105.707617 
L 223.256551 -105.434396 
L 222.441763 -105.168605 
L 221.626975 -104.917978 
L 220.812186 -104.689248 
L 219.997398 -104.48787 
L 219.18261 -104.317825 
L 218.367822 -104.181485 
L 217.553033 -104.07957 
L 216.738245 -104.011182 
L 215.923457 -103.97392 
L 215.108669 -103.964056 
L 214.29388 -103.97678 
L 213.479092 -104.006472 
L 212.664304 -104.047017 
L 211.849515 -104.09212 
L 211.034727 -104.135618 
L 210.219939 -104.171772 
L 209.405151 -104.195524 
L 208.590362 -104.202707 
L 207.775574 -104.190203 
L 206.960786 -104.15604 
L 206.145997 -104.099427 
L 205.331209 -104.020729 
L 204.516421 -103.92138 
L 203.701633 -103.803743 
L 202.886844 -103.670932 
L 202.072056 -103.52659 
L 201.257268 -103.374654 
L 200.442479 -103.219107 
L 199.627691 -103.063734 
L 198.812903 -102.911899 
L 197.998115 -102.766354 
L 197.183326 -102.629085 
L 196.368538 -102.501215 
L 195.55375 -102.382959 
L 194.738961 -102.273637 
L 193.924173 -102.171743 
L 193.109385 -102.075072 
L 192.294597 -101.980876 
L 191.479808 -101.886065 
L 190.66502 -101.787418 
L 189.850232 -101.681796 
L 189.035443 -101.566354 
L 188.220655 -101.438717 
L 187.405867 -101.297129 
L 186.591079 -101.140557 
L 185.77629 -100.968745 
L 184.961502 -100.782222 
L 184.146714 -100.582259 
L 183.331926 -100.370787 
L 182.517137 -100.150281 
L 181.702349 -99.923617 
L 180.887561 -99.693918 
L 180.072772 -99.464398 
L 179.257984 -99.23821 
L 178.443196 -99.01831 
L 177.628408 -98.807346 
L 176.813619 -98.607574 
L 175.998831 -98.420798 
L 175.184043 -98.248342 
L 174.369254 -98.09105 
L 173.554466 -97.949308 
L 172.739678 -97.823085 
L 171.92489 -97.711985 
L 171.110101 -97.615316 
L 170.295313 -97.532153 
L 169.480525 -97.461406 
L 168.665736 -97.401886 
L 167.850948 -97.352357 
L 167.03616 -97.311588 
L 166.221372 -97.278388 
L 165.406583 -97.251639 
L 164.591795 -97.230315 
L 163.777007 -97.213493 
L 162.962218 -97.200361 
z
" style="stroke: #6ea0b1; stroke-width: 1.5"/>
    </defs>
    <g>
     <use xlink:href="#m1a72938a5b" x="0" y="190.985656" style="fill: #6ea0b1; stroke: #6ea0b1; stroke-width: 1.5"/>
    </g>
   </g>
   <g id="line2d_5">
    <path d="M 162.962218 93.785295 
L 168.665736 93.58377 
L 171.92489 93.273671 
L 175.184043 92.737314 
L 178.443196 91.967347 
L 186.591079 89.845099 
L 189.850232 89.30386 
L 198.812903 88.073757 
L 205.331209 86.964927 
L 207.775574 86.795453 
L 211.034727 86.850039 
L 215.923457 87.011737 
L 218.367822 86.804171 
L 220.812186 86.296409 
L 224.07134 85.278039 
L 227.330493 84.281316 
L 228.960069 83.953436 
L 230.589646 83.802075 
L 232.219222 83.842483 
L 234.663587 84.218191 
L 239.552317 85.284158 
L 241.181894 85.388971 
L 242.81147 85.211863 
L 244.441047 84.686885 
L 246.070623 83.782398 
L 247.7002 82.507653 
L 249.329776 80.913752 
L 251.774141 78.122789 
L 255.848083 73.367701 
L 257.477659 71.742423 
L 259.107236 70.384557 
L 260.736812 69.327201 
L 262.366389 68.581112 
L 263.995965 68.144996 
L 265.625542 68.015076 
L 267.255119 68.190039 
L 268.884695 68.669377 
L 270.514272 69.445838 
L 272.143848 70.495231 
L 274.588213 72.465249 
L 279.476943 76.712283 
L 281.106519 77.855352 
L 282.736096 78.748989 
L 284.365672 79.38341 
L 285.995249 79.791785 
L 288.439614 80.135623 
L 291.698767 80.568157 
L 293.328344 80.958004 
L 294.95792 81.532513 
L 296.587497 82.306067 
L 299.031862 83.800985 
L 302.291015 86.180546 
L 306.364956 89.130479 
L 308.809321 90.603196 
L 311.253686 91.75472 
L 313.698051 92.582286 
L 316.142415 93.129751 
L 318.58678 93.463253 
L 321.845933 93.69022 
L 325.105087 93.781189 
L 325.105087 93.781189 
" style="fill: none; stroke: #ffffff; stroke-width: 2; stroke-linecap: round"/>
   </g>
   <g id="line2d_6">
    <path d="M 7.2 93.825 
L 425.7 93.825 
" style="fill: none; stroke: #6ea0b1; stroke-width: 2; stroke-linecap: round"/>
   </g>
   <g id="text_3">
    <!-- forest biome -->
    <g style="fill: #6ea0b1" transform="translate(7.2 90.537375) scale(0.132 -0.132)">
     <defs>
      <path id="DejaVuSans-Bold-66" d="M 2841 4863 
L 2841 4128 
L 2222 4128 
Q 1984 4128 1890 4042 
Q 1797 3956 1797 3744 
L 1797 3500 
L 2753 3500 
L 2753 2700 
L 1797 2700 
L 1797 0 
L 678 0 
L 678 2700 
L 122 2700 
L 122 3500 
L 678 3500 
L 678 3744 
Q 678 4316 997 4589 
Q 1316 4863 1984 4863 
L 2841 4863 
z
" transform="scale(0.015625)"/>
      <path id="DejaVuSans-Bold-73" d="M 3272 3391 
L 3272 2541 
Q 2913 2691 2578 2766 
Q 2244 2841 1947 2841 
Q 1628 2841 1473 2761 
Q 1319 2681 1319 2516 
Q 1319 2381 1436 2309 
Q 1553 2238 1856 2203 
L 2053 2175 
Q 2913 2066 3209 1816 
Q 3506 1566 3506 1031 
Q 3506 472 3093 190 
Q 2681 -91 1863 -91 
Q 1516 -91 1145 -36 
Q 775 19 384 128 
L 384 978 
Q 719 816 1070 734 
Q 1422 653 1784 653 
Q 2113 653 2278 743 
Q 2444 834 2444 1013 
Q 2444 1163 2330 1236 
Q 2216 1309 1875 1350 
L 1678 1375 
Q 931 1469 631 1722 
Q 331 1975 331 2491 
Q 331 3047 712 3315 
Q 1094 3584 1881 3584 
Q 2191 3584 2531 3537 
Q 2872 3491 3272 3391 
z
" transform="scale(0.015625)"/>
      <path id="DejaVuSans-Bold-74" d="M 1759 4494 
L 1759 3500 
L 2913 3500 
L 2913 2700 
L 1759 2700 
L 1759 1216 
Q 1759 972 1856 886 
Q 1953 800 2241 800 
L 2816 800 
L 2816 0 
L 1856 0 
Q 1194 0 917 276 
Q 641 553 641 1216 
L 641 2700 
L 84 2700 
L 84 3500 
L 641 3500 
L 641 4494 
L 1759 4494 
z
" transform="scale(0.015625)"/>
     </defs>
     <use xlink:href="#DejaVuSans-Bold-66"/>
     <use xlink:href="#DejaVuSans-Bold-6f" x="43.505859"/>
     <use xlink:href="#DejaVuSans-Bold-72" x="112.207031"/>
     <use xlink:href="#DejaVuSans-Bold-65" x="161.523438"/>
     <use xlink:href="#DejaVuSans-Bold-73" x="229.345703"/>
     <use xlink:href="#DejaVuSans-Bold-74" x="288.867188"/>
     <use xlink:href="#DejaVuSans-Bold-20" x="336.669922"/>
     <use xlink:href="#DejaVuSans-Bold-62" x="371.484375"/>
     <use xlink:href="#DejaVuSans-Bold-69" x="443.066406"/>
     <use xlink:href="#DejaVuSans-Bold-6f" x="477.34375"/>
     <use xlink:href="#DejaVuSans-Bold-6d" x="546.044922"/>
     <use xlink:href="#DejaVuSans-Bold-65" x="650.244141"/>
    </g>
   </g>
  </g>
  <g id="axes_4">
   <g id="patch_5">
    <path d="M 7.2 119.8125 
L 425.7 119.8125 
L 425.7 85.1625 
L 7.2 85.1625 
L 7.2 119.8125 
z
" style="fill: none"/>
   </g>
   <g id="matplotlib.axis_7">
    <g id="xtick_19"/>
    <g id="xtick_20"/>
    <g id="xtick_21"/>
    <g id="xtick_22"/>
    <g id="xtick_23"/>
    <g id="xtick_24"/>
   </g>
   <g id="matplotlib.axis_8"/>
   <g id="PolyCollection_4">
    <defs>
     <path id="m381d201ec0" d="M 266.349496 -71.320129 
L 266.349496 -71.173156 
L 266.886548 -71.173156 
L 267.423601 -71.173156 
L 267.960654 -71.173156 
L 268.497707 -71.173156 
L 269.03476 -71.173156 
L 269.571813 -71.173156 
L 270.108865 -71.173156 
L 270.645918 -71.173156 
L 271.182971 -71.173156 
L 271.720024 -71.173156 
L 272.257077 -71.173156 
L 272.794129 -71.173156 
L 273.331182 -71.173156 
L 273.868235 -71.173156 
L 274.405288 -71.173156 
L 274.942341 -71.173156 
L 275.479394 -71.173156 
L 276.016446 -71.173156 
L 276.553499 -71.173156 
L 277.090552 -71.173156 
L 277.627605 -71.173156 
L 278.164658 -71.173156 
L 278.701711 -71.173156 
L 279.238763 -71.173156 
L 279.775816 -71.173156 
L 280.312869 -71.173156 
L 280.849922 -71.173156 
L 281.386975 -71.173156 
L 281.924027 -71.173156 
L 282.46108 -71.173156 
L 282.998133 -71.173156 
L 283.535186 -71.173156 
L 284.072239 -71.173156 
L 284.609292 -71.173156 
L 285.146344 -71.173156 
L 285.683397 -71.173156 
L 286.22045 -71.173156 
L 286.757503 -71.173156 
L 287.294556 -71.173156 
L 287.831608 -71.173156 
L 288.368661 -71.173156 
L 288.905714 -71.173156 
L 289.442767 -71.173156 
L 289.97982 -71.173156 
L 290.516873 -71.173156 
L 291.053925 -71.173156 
L 291.590978 -71.173156 
L 292.128031 -71.173156 
L 292.665084 -71.173156 
L 293.202137 -71.173156 
L 293.73919 -71.173156 
L 294.276242 -71.173156 
L 294.813295 -71.173156 
L 295.350348 -71.173156 
L 295.887401 -71.173156 
L 296.424454 -71.173156 
L 296.961506 -71.173156 
L 297.498559 -71.173156 
L 298.035612 -71.173156 
L 298.572665 -71.173156 
L 299.109718 -71.173156 
L 299.646771 -71.173156 
L 300.183823 -71.173156 
L 300.720876 -71.173156 
L 301.257929 -71.173156 
L 301.794982 -71.173156 
L 302.332035 -71.173156 
L 302.869087 -71.173156 
L 303.40614 -71.173156 
L 303.943193 -71.173156 
L 304.480246 -71.173156 
L 305.017299 -71.173156 
L 305.554352 -71.173156 
L 306.091404 -71.173156 
L 306.628457 -71.173156 
L 307.16551 -71.173156 
L 307.702563 -71.173156 
L 308.239616 -71.173156 
L 308.776669 -71.173156 
L 309.313721 -71.173156 
L 309.850774 -71.173156 
L 310.387827 -71.173156 
L 310.92488 -71.173156 
L 311.461933 -71.173156 
L 311.998985 -71.173156 
L 312.536038 -71.173156 
L 313.073091 -71.173156 
L 313.610144 -71.173156 
L 314.147197 -71.173156 
L 314.68425 -71.173156 
L 315.221302 -71.173156 
L 315.758355 -71.173156 
L 316.295408 -71.173156 
L 316.832461 -71.173156 
L 317.369514 -71.173156 
L 317.906566 -71.173156 
L 318.443619 -71.173156 
L 318.980672 -71.173156 
L 319.517725 -71.173156 
L 320.054778 -71.173156 
L 320.591831 -71.173156 
L 321.128883 -71.173156 
L 321.665936 -71.173156 
L 322.202989 -71.173156 
L 322.740042 -71.173156 
L 323.277095 -71.173156 
L 323.814148 -71.173156 
L 324.3512 -71.173156 
L 324.888253 -71.173156 
L 325.425306 -71.173156 
L 325.962359 -71.173156 
L 326.499412 -71.173156 
L 327.036464 -71.173156 
L 327.573517 -71.173156 
L 328.11057 -71.173156 
L 328.647623 -71.173156 
L 329.184676 -71.173156 
L 329.721729 -71.173156 
L 330.258781 -71.173156 
L 330.795834 -71.173156 
L 331.332887 -71.173156 
L 331.86994 -71.173156 
L 332.406993 -71.173156 
L 332.944045 -71.173156 
L 333.481098 -71.173156 
L 334.018151 -71.173156 
L 334.555204 -71.173156 
L 335.092257 -71.173156 
L 335.62931 -71.173156 
L 336.166362 -71.173156 
L 336.703415 -71.173156 
L 337.240468 -71.173156 
L 337.777521 -71.173156 
L 338.314574 -71.173156 
L 338.851627 -71.173156 
L 339.388679 -71.173156 
L 339.925732 -71.173156 
L 340.462785 -71.173156 
L 340.999838 -71.173156 
L 341.536891 -71.173156 
L 342.073943 -71.173156 
L 342.610996 -71.173156 
L 343.148049 -71.173156 
L 343.685102 -71.173156 
L 344.222155 -71.173156 
L 344.759208 -71.173156 
L 345.29626 -71.173156 
L 345.833313 -71.173156 
L 346.370366 -71.173156 
L 346.907419 -71.173156 
L 347.444472 -71.173156 
L 347.981525 -71.173156 
L 348.518577 -71.173156 
L 349.05563 -71.173156 
L 349.592683 -71.173156 
L 350.129736 -71.173156 
L 350.666789 -71.173156 
L 351.203841 -71.173156 
L 351.740894 -71.173156 
L 352.277947 -71.173156 
L 352.815 -71.173156 
L 353.352053 -71.173156 
L 353.889106 -71.173156 
L 354.426158 -71.173156 
L 354.963211 -71.173156 
L 355.500264 -71.173156 
L 356.037317 -71.173156 
L 356.57437 -71.173156 
L 357.111422 -71.173156 
L 357.648475 -71.173156 
L 358.185528 -71.173156 
L 358.722581 -71.173156 
L 359.259634 -71.173156 
L 359.796687 -71.173156 
L 360.333739 -71.173156 
L 360.870792 -71.173156 
L 361.407845 -71.173156 
L 361.944898 -71.173156 
L 362.481951 -71.173156 
L 363.019004 -71.173156 
L 363.556056 -71.173156 
L 364.093109 -71.173156 
L 364.630162 -71.173156 
L 365.167215 -71.173156 
L 365.704268 -71.173156 
L 366.24132 -71.173156 
L 366.778373 -71.173156 
L 367.315426 -71.173156 
L 367.852479 -71.173156 
L 368.389532 -71.173156 
L 368.926585 -71.173156 
L 369.463637 -71.173156 
L 370.00069 -71.173156 
L 370.537743 -71.173156 
L 371.074796 -71.173156 
L 371.611849 -71.173156 
L 372.148901 -71.173156 
L 372.685954 -71.173156 
L 373.223007 -71.173156 
L 373.223007 -71.307398 
L 373.223007 -71.307398 
L 372.685954 -71.335812 
L 372.148901 -71.369423 
L 371.611849 -71.409 
L 371.074796 -71.455385 
L 370.537743 -71.509498 
L 370.00069 -71.572331 
L 369.463637 -71.644949 
L 368.926585 -71.728483 
L 368.389532 -71.824119 
L 367.852479 -71.933095 
L 367.315426 -72.05668 
L 366.778373 -72.196166 
L 366.24132 -72.352843 
L 365.704268 -72.527985 
L 365.167215 -72.722823 
L 364.630162 -72.938522 
L 364.093109 -73.176151 
L 363.556056 -73.436663 
L 363.019004 -73.720861 
L 362.481951 -74.029374 
L 361.944898 -74.36263 
L 361.407845 -74.720834 
L 360.870792 -75.103948 
L 360.333739 -75.511674 
L 359.796687 -75.943445 
L 359.259634 -76.398419 
L 358.722581 -76.875482 
L 358.185528 -77.373257 
L 357.648475 -77.89012 
L 357.111422 -78.424227 
L 356.57437 -78.973542 
L 356.037317 -79.535878 
L 355.500264 -80.108944 
L 354.963211 -80.69039 
L 354.426158 -81.277865 
L 353.889106 -81.869071 
L 353.352053 -82.461816 
L 352.815 -83.054072 
L 352.277947 -83.644021 
L 351.740894 -84.230098 
L 351.203841 -84.81103 
L 350.666789 -85.385852 
L 350.129736 -85.95393 
L 349.592683 -86.51495 
L 349.05563 -87.068913 
L 348.518577 -87.616101 
L 347.981525 -88.157033 
L 347.444472 -88.692413 
L 346.907419 -89.223063 
L 346.370366 -89.74984 
L 345.833313 -90.273554 
L 345.29626 -90.794879 
L 344.759208 -91.314263 
L 344.222155 -91.831836 
L 343.685102 -92.34733 
L 343.148049 -92.860002 
L 342.610996 -93.368579 
L 342.073943 -93.871209 
L 341.536891 -94.365433 
L 340.999838 -94.848185 
L 340.462785 -95.315801 
L 339.925732 -95.76406 
L 339.388679 -96.188245 
L 338.851627 -96.583222 
L 338.314574 -96.943541 
L 337.777521 -97.263553 
L 337.240468 -97.53754 
L 336.703415 -97.759852 
L 336.166362 -97.925056 
L 335.62931 -98.028078 
L 335.092257 -98.064345 
L 334.555204 -98.02992 
L 334.018151 -97.921622 
L 333.481098 -97.73713 
L 332.944045 -97.475067 
L 332.406993 -97.135066 
L 331.86994 -96.717806 
L 331.332887 -96.225029 
L 330.795834 -95.659524 
L 330.258781 -95.0251 
L 329.721729 -94.326518 
L 329.184676 -93.569423 
L 328.647623 -92.760237 
L 328.11057 -91.906055 
L 327.573517 -91.014524 
L 327.036464 -90.093707 
L 326.499412 -89.151958 
L 325.962359 -88.19779 
L 325.425306 -87.239746 
L 324.888253 -86.28628 
L 324.3512 -85.345651 
L 323.814148 -84.425826 
L 323.277095 -83.534398 
L 322.740042 -82.67852 
L 322.202989 -81.864852 
L 321.665936 -81.099531 
L 321.128883 -80.388145 
L 320.591831 -79.735732 
L 320.054778 -79.146776 
L 319.517725 -78.625229 
L 318.980672 -78.17453 
L 318.443619 -77.797627 
L 317.906566 -77.497011 
L 317.369514 -77.274741 
L 316.832461 -77.132474 
L 316.295408 -77.071482 
L 315.758355 -77.092672 
L 315.221302 -77.196596 
L 314.68425 -77.383451 
L 314.147197 -77.653073 
L 313.610144 -78.004926 
L 313.073091 -78.438075 
L 312.536038 -78.951166 
L 311.998985 -79.542385 
L 311.461933 -80.209432 
L 310.92488 -80.949475 
L 310.387827 -81.759122 
L 309.850774 -82.634385 
L 309.313721 -83.570653 
L 308.776669 -84.562676 
L 308.239616 -85.604553 
L 307.702563 -86.689737 
L 307.16551 -87.811049 
L 306.628457 -88.96071 
L 306.091404 -90.130383 
L 305.554352 -91.311236 
L 305.017299 -92.494013 
L 304.480246 -93.669125 
L 303.943193 -94.826749 
L 303.40614 -95.956939 
L 302.869087 -97.04975 
L 302.332035 -98.095359 
L 301.794982 -99.0842 
L 301.257929 -100.00709 
L 300.720876 -100.855364 
L 300.183823 -101.620991 
L 299.646771 -102.296693 
L 299.109718 -102.876049 
L 298.572665 -103.353589 
L 298.035612 -103.724865 
L 297.498559 -103.986516 
L 296.961506 -104.136307 
L 296.424454 -104.173156 
L 295.887401 -104.097133 
L 295.350348 -103.909451 
L 294.813295 -103.612429 
L 294.276242 -103.209446 
L 293.73919 -102.704875 
L 293.202137 -102.104003 
L 292.665084 -101.412937 
L 292.128031 -100.638507 
L 291.590978 -99.788155 
L 291.053925 -98.869817 
L 290.516873 -97.891809 
L 289.97982 -96.862708 
L 289.442767 -95.791229 
L 288.905714 -94.686117 
L 288.368661 -93.556033 
L 287.831608 -92.409456 
L 287.294556 -91.254582 
L 286.757503 -90.099244 
L 286.22045 -88.950836 
L 285.683397 -87.816247 
L 285.146344 -86.701808 
L 284.609292 -85.613254 
L 284.072239 -84.555691 
L 283.535186 -83.533579 
L 282.998133 -82.550721 
L 282.46108 -81.610268 
L 281.924027 -80.714731 
L 281.386975 -79.865998 
L 280.849922 -79.065365 
L 280.312869 -78.313566 
L 279.775816 -77.610818 
L 279.238763 -76.956858 
L 278.701711 -76.350996 
L 278.164658 -75.792162 
L 277.627605 -75.278953 
L 277.090552 -74.809689 
L 276.553499 -74.382459 
L 276.016446 -73.995168 
L 275.479394 -73.645585 
L 274.942341 -73.331387 
L 274.405288 -73.050194 
L 273.868235 -72.799608 
L 273.331182 -72.577247 
L 272.794129 -72.380766 
L 272.257077 -72.207891 
L 271.720024 -72.056428 
L 271.182971 -71.924287 
L 270.645918 -71.809491 
L 270.108865 -71.710186 
L 269.571813 -71.624645 
L 269.03476 -71.551271 
L 268.497707 -71.488602 
L 267.960654 -71.435301 
L 267.423601 -71.390161 
L 266.886548 -71.352095 
L 266.349496 -71.320129 
z
" style="stroke: #6090a7; stroke-width: 1.5"/>
    </defs>
    <g>
     <use xlink:href="#m381d201ec0" x="0" y="190.985656" style="fill: #6090a7; stroke: #6090a7; stroke-width: 1.5"/>
    </g>
   </g>
   <g id="line2d_7">
    <path d="M 266.349496 119.665527 
L 269.03476 119.434385 
L 271.182971 119.061369 
L 272.794129 118.60489 
L 274.405288 117.935462 
L 276.016446 116.990488 
L 277.627605 115.706703 
L 279.238763 114.028798 
L 280.849922 111.920292 
L 282.46108 109.375388 
L 284.072239 106.429965 
L 286.22045 102.03482 
L 290.516873 93.093847 
L 292.128031 90.347149 
L 293.202137 88.881653 
L 294.276242 87.77621 
L 295.350348 87.076205 
L 296.424454 86.8125 
L 296.961506 86.849349 
L 298.035612 87.260792 
L 299.109718 88.109607 
L 300.183823 89.364666 
L 301.257929 90.978566 
L 302.869087 93.935906 
L 305.017299 98.491643 
L 308.239616 105.381104 
L 309.850774 108.351271 
L 311.461933 110.776224 
L 312.536038 112.034491 
L 313.610144 112.980731 
L 314.68425 113.602206 
L 315.758355 113.892984 
L 316.832461 113.853182 
L 317.906566 113.488646 
L 318.980672 112.811126 
L 320.054778 111.83888 
L 321.128883 110.597511 
L 322.740042 108.307137 
L 324.888253 104.699377 
L 328.647623 98.22542 
L 330.258781 95.960557 
L 331.332887 94.760628 
L 332.406993 93.85059 
L 333.481098 93.248526 
L 334.555204 92.955736 
L 335.62931 92.957579 
L 336.703415 93.225804 
L 337.777521 93.722103 
L 339.388679 94.797412 
L 341.536891 96.620223 
L 345.833313 100.712103 
L 350.129736 105.031727 
L 354.963211 110.295266 
L 357.648475 113.095536 
L 359.796687 115.042212 
L 361.407845 116.264822 
L 363.019004 117.264795 
L 364.630162 118.047135 
L 366.24132 118.632813 
L 368.389532 119.161537 
L 371.074796 119.530271 
L 373.223007 119.678258 
L 373.223007 119.678258 
" style="fill: none; stroke: #ffffff; stroke-width: 2; stroke-linecap: round"/>
   </g>
   <g id="line2d_8">
    <path d="M 7.2 119.8125 
L 425.7 119.8125 
" style="fill: none; stroke: #6090a7; stroke-width: 2; stroke-linecap: round"/>
   </g>
   <g id="text_4">
    <!-- tundra biome -->
    <g style="fill: #6090a7" transform="translate(7.2 116.524875) scale(0.132 -0.132)">
     <defs>
      <path id="DejaVuSans-Bold-64" d="M 2919 2988 
L 2919 4863 
L 4044 4863 
L 4044 0 
L 2919 0 
L 2919 506 
Q 2688 197 2409 53 
Q 2131 -91 1766 -91 
Q 1119 -91 703 423 
Q 288 938 288 1747 
Q 288 2556 703 3070 
Q 1119 3584 1766 3584 
Q 2128 3584 2408 3439 
Q 2688 3294 2919 2988 
z
M 2181 722 
Q 2541 722 2730 984 
Q 2919 1247 2919 1747 
Q 2919 2247 2730 2509 
Q 2541 2772 2181 2772 
Q 1825 2772 1636 2509 
Q 1447 2247 1447 1747 
Q 1447 1247 1636 984 
Q 1825 722 2181 722 
z
" transform="scale(0.015625)"/>
     </defs>
     <use xlink:href="#DejaVuSans-Bold-74"/>
     <use xlink:href="#DejaVuSans-Bold-75" x="47.802734"/>
     <use xlink:href="#DejaVuSans-Bold-6e" x="118.994141"/>
     <use xlink:href="#DejaVuSans-Bold-64" x="190.185547"/>
     <use xlink:href="#DejaVuSans-Bold-72" x="261.767578"/>
     <use xlink:href="#DejaVuSans-Bold-61" x="311.083984"/>
     <use xlink:href="#DejaVuSans-Bold-20" x="378.564453"/>
     <use xlink:href="#DejaVuSans-Bold-62" x="413.378906"/>
     <use xlink:href="#DejaVuSans-Bold-69" x="484.960938"/>
     <use xlink:href="#DejaVuSans-Bold-6f" x="519.238281"/>
     <use xlink:href="#DejaVuSans-Bold-6d" x="587.939453"/>
     <use xlink:href="#DejaVuSans-Bold-65" x="692.138672"/>
    </g>
   </g>
  </g>
  <g id="axes_5">
   <g id="patch_6">
    <path d="M 7.2 145.8 
L 425.7 145.8 
L 425.7 111.15 
L 7.2 111.15 
L 7.2 145.8 
z
" style="fill: none"/>
   </g>
   <g id="matplotlib.axis_9">
    <g id="xtick_25">
     <g id="text_5">
      <!-- 0 -->
      <g style="fill: #262626" transform="translate(56.550939 164.494109) scale(0.121 -0.121)">
       <defs>
        <path id="DejaVuSans-30" d="M 2034 4250 
Q 1547 4250 1301 3770 
Q 1056 3291 1056 2328 
Q 1056 1369 1301 889 
Q 1547 409 2034 409 
Q 2525 409 2770 889 
Q 3016 1369 3016 2328 
Q 3016 3291 2770 3770 
Q 2525 4250 2034 4250 
z
M 2034 4750 
Q 2819 4750 3233 4129 
Q 3647 3509 3647 2328 
Q 3647 1150 3233 529 
Q 2819 -91 2034 -91 
Q 1250 -91 836 529 
Q 422 1150 422 2328 
Q 422 3509 836 4129 
Q 1250 4750 2034 4750 
z
" transform="scale(0.015625)"/>
       </defs>
       <use xlink:href="#DejaVuSans-30"/>
      </g>
     </g>
    </g>
    <g id="xtick_26">
     <g id="text_6">
      <!-- 2 -->
      <g style="fill: #262626" transform="translate(121.310368 164.494109) scale(0.121 -0.121)">
       <defs>
        <path id="DejaVuSans-32" d="M 1228 531 
L 3431 531 
L 3431 0 
L 469 0 
L 469 531 
Q 828 903 1448 1529 
Q 2069 2156 2228 2338 
Q 2531 2678 2651 2914 
Q 2772 3150 2772 3378 
Q 2772 3750 2511 3984 
Q 2250 4219 1831 4219 
Q 1534 4219 1204 4116 
Q 875 4013 500 3803 
L 500 4441 
Q 881 4594 1212 4672 
Q 1544 4750 1819 4750 
Q 2544 4750 2975 4387 
Q 3406 4025 3406 3419 
Q 3406 3131 3298 2873 
Q 3191 2616 2906 2266 
Q 2828 2175 2409 1742 
Q 1991 1309 1228 531 
z
" transform="scale(0.015625)"/>
       </defs>
       <use xlink:href="#DejaVuSans-32"/>
      </g>
     </g>
    </g>
    <g id="xtick_27">
     <g id="text_7">
      <!-- 4 -->
      <g style="fill: #262626" transform="translate(186.069798 164.494109) scale(0.121 -0.121)">
       <defs>
        <path id="DejaVuSans-34" d="M 2419 4116 
L 825 1625 
L 2419 1625 
L 2419 4116 
z
M 2253 4666 
L 3047 4666 
L 3047 1625 
L 3713 1625 
L 3713 1100 
L 3047 1100 
L 3047 0 
L 2419 0 
L 2419 1100 
L 313 1100 
L 313 1709 
L 2253 4666 
z
" transform="scale(0.015625)"/>
       </defs>
       <use xlink:href="#DejaVuSans-34"/>
      </g>
     </g>
    </g>
    <g id="xtick_28">
     <g id="text_8">
      <!-- 6 -->
      <g style="fill: #262626" transform="translate(250.829227 164.494109) scale(0.121 -0.121)">
       <defs>
        <path id="DejaVuSans-36" d="M 2113 2584 
Q 1688 2584 1439 2293 
Q 1191 2003 1191 1497 
Q 1191 994 1439 701 
Q 1688 409 2113 409 
Q 2538 409 2786 701 
Q 3034 994 3034 1497 
Q 3034 2003 2786 2293 
Q 2538 2584 2113 2584 
z
M 3366 4563 
L 3366 3988 
Q 3128 4100 2886 4159 
Q 2644 4219 2406 4219 
Q 1781 4219 1451 3797 
Q 1122 3375 1075 2522 
Q 1259 2794 1537 2939 
Q 1816 3084 2150 3084 
Q 2853 3084 3261 2657 
Q 3669 2231 3669 1497 
Q 3669 778 3244 343 
Q 2819 -91 2113 -91 
Q 1303 -91 875 529 
Q 447 1150 447 2328 
Q 447 3434 972 4092 
Q 1497 4750 2381 4750 
Q 2619 4750 2861 4703 
Q 3103 4656 3366 4563 
z
" transform="scale(0.015625)"/>
       </defs>
       <use xlink:href="#DejaVuSans-36"/>
      </g>
     </g>
    </g>
    <g id="xtick_29">
     <g id="text_9">
      <!-- 8 -->
      <g style="fill: #262626" transform="translate(315.588657 164.494109) scale(0.121 -0.121)">
       <defs>
        <path id="DejaVuSans-38" d="M 2034 2216 
Q 1584 2216 1326 1975 
Q 1069 1734 1069 1313 
Q 1069 891 1326 650 
Q 1584 409 2034 409 
Q 2484 409 2743 651 
Q 3003 894 3003 1313 
Q 3003 1734 2745 1975 
Q 2488 2216 2034 2216 
z
M 1403 2484 
Q 997 2584 770 2862 
Q 544 3141 544 3541 
Q 544 4100 942 4425 
Q 1341 4750 2034 4750 
Q 2731 4750 3128 4425 
Q 3525 4100 3525 3541 
Q 3525 3141 3298 2862 
Q 3072 2584 2669 2484 
Q 3125 2378 3379 2068 
Q 3634 1759 3634 1313 
Q 3634 634 3220 271 
Q 2806 -91 2034 -91 
Q 1263 -91 848 271 
Q 434 634 434 1313 
Q 434 1759 690 2068 
Q 947 2378 1403 2484 
z
M 1172 3481 
Q 1172 3119 1398 2916 
Q 1625 2713 2034 2713 
Q 2441 2713 2670 2916 
Q 2900 3119 2900 3481 
Q 2900 3844 2670 4047 
Q 2441 4250 2034 4250 
Q 1625 4250 1398 4047 
Q 1172 3844 1172 3481 
z
" transform="scale(0.015625)"/>
       </defs>
       <use xlink:href="#DejaVuSans-38"/>
      </g>
     </g>
    </g>
    <g id="xtick_30">
     <g id="text_10">
      <!-- 10 -->
      <g style="fill: #262626" transform="translate(376.498774 164.494109) scale(0.121 -0.121)">
       <defs>
        <path id="DejaVuSans-31" d="M 794 531 
L 1825 531 
L 1825 4091 
L 703 3866 
L 703 4441 
L 1819 4666 
L 2450 4666 
L 2450 531 
L 3481 531 
L 3481 0 
L 794 0 
L 794 531 
z
" transform="scale(0.015625)"/>
       </defs>
       <use xlink:href="#DejaVuSans-31"/>
       <use xlink:href="#DejaVuSans-30" x="63.623047"/>
      </g>
     </g>
    </g>
    <g id="text_11">
     <!-- Shannon diversity -->
     <g style="fill: #262626" transform="translate(156.878812 181.040469) scale(0.132 -0.132)">
      <defs>
       <path id="DejaVuSans-53" d="M 3425 4513 
L 3425 3897 
Q 3066 4069 2747 4153 
Q 2428 4238 2131 4238 
Q 1616 4238 1336 4038 
Q 1056 3838 1056 3469 
Q 1056 3159 1242 3001 
Q 1428 2844 1947 2747 
L 2328 2669 
Q 3034 2534 3370 2195 
Q 3706 1856 3706 1288 
Q 3706 609 3251 259 
Q 2797 -91 1919 -91 
Q 1588 -91 1214 -16 
Q 841 59 441 206 
L 441 856 
Q 825 641 1194 531 
Q 1563 422 1919 422 
Q 2459 422 2753 634 
Q 3047 847 3047 1241 
Q 3047 1584 2836 1778 
Q 2625 1972 2144 2069 
L 1759 2144 
Q 1053 2284 737 2584 
Q 422 2884 422 3419 
Q 422 4038 858 4394 
Q 1294 4750 2059 4750 
Q 2388 4750 2728 4690 
Q 3069 4631 3425 4513 
z
" transform="scale(0.015625)"/>
       <path id="DejaVuSans-68" d="M 3513 2113 
L 3513 0 
L 2938 0 
L 2938 2094 
Q 2938 2591 2744 2837 
Q 2550 3084 2163 3084 
Q 1697 3084 1428 2787 
Q 1159 2491 1159 1978 
L 1159 0 
L 581 0 
L 581 4863 
L 1159 4863 
L 1159 2956 
Q 1366 3272 1645 3428 
Q 1925 3584 2291 3584 
Q 2894 3584 3203 3211 
Q 3513 2838 3513 2113 
z
" transform="scale(0.015625)"/>
       <path id="DejaVuSans-61" d="M 2194 1759 
Q 1497 1759 1228 1600 
Q 959 1441 959 1056 
Q 959 750 1161 570 
Q 1363 391 1709 391 
Q 2188 391 2477 730 
Q 2766 1069 2766 1631 
L 2766 1759 
L 2194 1759 
z
M 3341 1997 
L 3341 0 
L 2766 0 
L 2766 531 
Q 2569 213 2275 61 
Q 1981 -91 1556 -91 
Q 1019 -91 701 211 
Q 384 513 384 1019 
Q 384 1609 779 1909 
Q 1175 2209 1959 2209 
L 2766 2209 
L 2766 2266 
Q 2766 2663 2505 2880 
Q 2244 3097 1772 3097 
Q 1472 3097 1187 3025 
Q 903 2953 641 2809 
L 641 3341 
Q 956 3463 1253 3523 
Q 1550 3584 1831 3584 
Q 2591 3584 2966 3190 
Q 3341 2797 3341 1997 
z
" transform="scale(0.015625)"/>
       <path id="DejaVuSans-6e" d="M 3513 2113 
L 3513 0 
L 2938 0 
L 2938 2094 
Q 2938 2591 2744 2837 
Q 2550 3084 2163 3084 
Q 1697 3084 1428 2787 
Q 1159 2491 1159 1978 
L 1159 0 
L 581 0 
L 581 3500 
L 1159 3500 
L 1159 2956 
Q 1366 3272 1645 3428 
Q 1925 3584 2291 3584 
Q 2894 3584 3203 3211 
Q 3513 2838 3513 2113 
z
" transform="scale(0.015625)"/>
       <path id="DejaVuSans-6f" d="M 1959 3097 
Q 1497 3097 1228 2736 
Q 959 2375 959 1747 
Q 959 1119 1226 758 
Q 1494 397 1959 397 
Q 2419 397 2687 759 
Q 2956 1122 2956 1747 
Q 2956 2369 2687 2733 
Q 2419 3097 1959 3097 
z
M 1959 3584 
Q 2709 3584 3137 3096 
Q 3566 2609 3566 1747 
Q 3566 888 3137 398 
Q 2709 -91 1959 -91 
Q 1206 -91 779 398 
Q 353 888 353 1747 
Q 353 2609 779 3096 
Q 1206 3584 1959 3584 
z
" transform="scale(0.015625)"/>
       <path id="DejaVuSans-20" transform="scale(0.015625)"/>
       <path id="DejaVuSans-64" d="M 2906 2969 
L 2906 4863 
L 3481 4863 
L 3481 0 
L 2906 0 
L 2906 525 
Q 2725 213 2448 61 
Q 2172 -91 1784 -91 
Q 1150 -91 751 415 
Q 353 922 353 1747 
Q 353 2572 751 3078 
Q 1150 3584 1784 3584 
Q 2172 3584 2448 3432 
Q 2725 3281 2906 2969 
z
M 947 1747 
Q 947 1113 1208 752 
Q 1469 391 1925 391 
Q 2381 391 2643 752 
Q 2906 1113 2906 1747 
Q 2906 2381 2643 2742 
Q 2381 3103 1925 3103 
Q 1469 3103 1208 2742 
Q 947 2381 947 1747 
z
" transform="scale(0.015625)"/>
       <path id="DejaVuSans-69" d="M 603 3500 
L 1178 3500 
L 1178 0 
L 603 0 
L 603 3500 
z
M 603 4863 
L 1178 4863 
L 1178 4134 
L 603 4134 
L 603 4863 
z
" transform="scale(0.015625)"/>
       <path id="DejaVuSans-76" d="M 191 3500 
L 800 3500 
L 1894 563 
L 2988 3500 
L 3597 3500 
L 2284 0 
L 1503 0 
L 191 3500 
z
" transform="scale(0.015625)"/>
       <path id="DejaVuSans-65" d="M 3597 1894 
L 3597 1613 
L 953 1613 
Q 991 1019 1311 708 
Q 1631 397 2203 397 
Q 2534 397 2845 478 
Q 3156 559 3463 722 
L 3463 178 
Q 3153 47 2828 -22 
Q 2503 -91 2169 -91 
Q 1331 -91 842 396 
Q 353 884 353 1716 
Q 353 2575 817 3079 
Q 1281 3584 2069 3584 
Q 2775 3584 3186 3129 
Q 3597 2675 3597 1894 
z
M 3022 2063 
Q 3016 2534 2758 2815 
Q 2500 3097 2075 3097 
Q 1594 3097 1305 2825 
Q 1016 2553 972 2059 
L 3022 2063 
z
" transform="scale(0.015625)"/>
       <path id="DejaVuSans-72" d="M 2631 2963 
Q 2534 3019 2420 3045 
Q 2306 3072 2169 3072 
Q 1681 3072 1420 2755 
Q 1159 2438 1159 1844 
L 1159 0 
L 581 0 
L 581 3500 
L 1159 3500 
L 1159 2956 
Q 1341 3275 1631 3429 
Q 1922 3584 2338 3584 
Q 2397 3584 2469 3576 
Q 2541 3569 2628 3553 
L 2631 2963 
z
" transform="scale(0.015625)"/>
       <path id="DejaVuSans-73" d="M 2834 3397 
L 2834 2853 
Q 2591 2978 2328 3040 
Q 2066 3103 1784 3103 
Q 1356 3103 1142 2972 
Q 928 2841 928 2578 
Q 928 2378 1081 2264 
Q 1234 2150 1697 2047 
L 1894 2003 
Q 2506 1872 2764 1633 
Q 3022 1394 3022 966 
Q 3022 478 2636 193 
Q 2250 -91 1575 -91 
Q 1294 -91 989 -36 
Q 684 19 347 128 
L 347 722 
Q 666 556 975 473 
Q 1284 391 1588 391 
Q 1994 391 2212 530 
Q 2431 669 2431 922 
Q 2431 1156 2273 1281 
Q 2116 1406 1581 1522 
L 1381 1569 
Q 847 1681 609 1914 
Q 372 2147 372 2553 
Q 372 3047 722 3315 
Q 1072 3584 1716 3584 
Q 2034 3584 2315 3537 
Q 2597 3491 2834 3397 
z
" transform="scale(0.015625)"/>
       <path id="DejaVuSans-74" d="M 1172 4494 
L 1172 3500 
L 2356 3500 
L 2356 3053 
L 1172 3053 
L 1172 1153 
Q 1172 725 1289 603 
Q 1406 481 1766 481 
L 2356 481 
L 2356 0 
L 1766 0 
Q 1100 0 847 248 
Q 594 497 594 1153 
L 594 3053 
L 172 3053 
L 172 3500 
L 594 3500 
L 594 4494 
L 1172 4494 
z
" transform="scale(0.015625)"/>
       <path id="DejaVuSans-79" d="M 2059 -325 
Q 1816 -950 1584 -1140 
Q 1353 -1331 966 -1331 
L 506 -1331 
L 506 -850 
L 844 -850 
Q 1081 -850 1212 -737 
Q 1344 -625 1503 -206 
L 1606 56 
L 191 3500 
L 800 3500 
L 1894 763 
L 2988 3500 
L 3597 3500 
L 2059 -325 
z
" transform="scale(0.015625)"/>
      </defs>
      <use xlink:href="#DejaVuSans-53"/>
      <use xlink:href="#DejaVuSans-68" x="63.476562"/>
      <use xlink:href="#DejaVuSans-61" x="126.855469"/>
      <use xlink:href="#DejaVuSans-6e" x="188.134766"/>
      <use xlink:href="#DejaVuSans-6e" x="251.513672"/>
      <use xlink:href="#DejaVuSans-6f" x="314.892578"/>
      <use xlink:href="#DejaVuSans-6e" x="376.074219"/>
      <use xlink:href="#DejaVuSans-20" x="439.453125"/>
      <use xlink:href="#DejaVuSans-64" x="471.240234"/>
      <use xlink:href="#DejaVuSans-69" x="534.716797"/>
      <use xlink:href="#DejaVuSans-76" x="562.5"/>
      <use xlink:href="#DejaVuSans-65" x="621.679688"/>
      <use xlink:href="#DejaVuSans-72" x="683.203125"/>
      <use xlink:href="#DejaVuSans-73" x="724.316406"/>
      <use xlink:href="#DejaVuSans-69" x="776.416016"/>
      <use xlink:href="#DejaVuSans-74" x="804.199219"/>
      <use xlink:href="#DejaVuSans-79" x="843.408203"/>
     </g>
    </g>
   </g>
   <g id="matplotlib.axis_10"/>
   <g id="PolyCollection_5">
    <defs>
     <path id="mbb5156766b" d="M 277.786203 -45.293179 
L 277.786203 -45.185656 
L 278.313289 -45.185656 
L 278.840374 -45.185656 
L 279.36746 -45.185656 
L 279.894546 -45.185656 
L 280.421632 -45.185656 
L 280.948718 -45.185656 
L 281.475804 -45.185656 
L 282.002889 -45.185656 
L 282.529975 -45.185656 
L 283.057061 -45.185656 
L 283.584147 -45.185656 
L 284.111233 -45.185656 
L 284.638319 -45.185656 
L 285.165405 -45.185656 
L 285.69249 -45.185656 
L 286.219576 -45.185656 
L 286.746662 -45.185656 
L 287.273748 -45.185656 
L 287.800834 -45.185656 
L 288.32792 -45.185656 
L 288.855005 -45.185656 
L 289.382091 -45.185656 
L 289.909177 -45.185656 
L 290.436263 -45.185656 
L 290.963349 -45.185656 
L 291.490435 -45.185656 
L 292.01752 -45.185656 
L 292.544606 -45.185656 
L 293.071692 -45.185656 
L 293.598778 -45.185656 
L 294.125864 -45.185656 
L 294.65295 -45.185656 
L 295.180036 -45.185656 
L 295.707121 -45.185656 
L 296.234207 -45.185656 
L 296.761293 -45.185656 
L 297.288379 -45.185656 
L 297.815465 -45.185656 
L 298.342551 -45.185656 
L 298.869636 -45.185656 
L 299.396722 -45.185656 
L 299.923808 -45.185656 
L 300.450894 -45.185656 
L 300.97798 -45.185656 
L 301.505066 -45.185656 
L 302.032151 -45.185656 
L 302.559237 -45.185656 
L 303.086323 -45.185656 
L 303.613409 -45.185656 
L 304.140495 -45.185656 
L 304.667581 -45.185656 
L 305.194667 -45.185656 
L 305.721752 -45.185656 
L 306.248838 -45.185656 
L 306.775924 -45.185656 
L 307.30301 -45.185656 
L 307.830096 -45.185656 
L 308.357182 -45.185656 
L 308.884267 -45.185656 
L 309.411353 -45.185656 
L 309.938439 -45.185656 
L 310.465525 -45.185656 
L 310.992611 -45.185656 
L 311.519697 -45.185656 
L 312.046782 -45.185656 
L 312.573868 -45.185656 
L 313.100954 -45.185656 
L 313.62804 -45.185656 
L 314.155126 -45.185656 
L 314.682212 -45.185656 
L 315.209298 -45.185656 
L 315.736383 -45.185656 
L 316.263469 -45.185656 
L 316.790555 -45.185656 
L 317.317641 -45.185656 
L 317.844727 -45.185656 
L 318.371813 -45.185656 
L 318.898898 -45.185656 
L 319.425984 -45.185656 
L 319.95307 -45.185656 
L 320.480156 -45.185656 
L 321.007242 -45.185656 
L 321.534328 -45.185656 
L 322.061413 -45.185656 
L 322.588499 -45.185656 
L 323.115585 -45.185656 
L 323.642671 -45.185656 
L 324.169757 -45.185656 
L 324.696843 -45.185656 
L 325.223929 -45.185656 
L 325.751014 -45.185656 
L 326.2781 -45.185656 
L 326.805186 -45.185656 
L 327.332272 -45.185656 
L 327.859358 -45.185656 
L 328.386444 -45.185656 
L 328.913529 -45.185656 
L 329.440615 -45.185656 
L 329.967701 -45.185656 
L 330.494787 -45.185656 
L 331.021873 -45.185656 
L 331.548959 -45.185656 
L 332.076044 -45.185656 
L 332.60313 -45.185656 
L 333.130216 -45.185656 
L 333.657302 -45.185656 
L 334.184388 -45.185656 
L 334.711474 -45.185656 
L 335.238559 -45.185656 
L 335.765645 -45.185656 
L 336.292731 -45.185656 
L 336.819817 -45.185656 
L 337.346903 -45.185656 
L 337.873989 -45.185656 
L 338.401075 -45.185656 
L 338.92816 -45.185656 
L 339.455246 -45.185656 
L 339.982332 -45.185656 
L 340.509418 -45.185656 
L 341.036504 -45.185656 
L 341.56359 -45.185656 
L 342.090675 -45.185656 
L 342.617761 -45.185656 
L 343.144847 -45.185656 
L 343.671933 -45.185656 
L 344.199019 -45.185656 
L 344.726105 -45.185656 
L 345.25319 -45.185656 
L 345.780276 -45.185656 
L 346.307362 -45.185656 
L 346.834448 -45.185656 
L 347.361534 -45.185656 
L 347.88862 -45.185656 
L 348.415706 -45.185656 
L 348.942791 -45.185656 
L 349.469877 -45.185656 
L 349.996963 -45.185656 
L 350.524049 -45.185656 
L 351.051135 -45.185656 
L 351.578221 -45.185656 
L 352.105306 -45.185656 
L 352.632392 -45.185656 
L 353.159478 -45.185656 
L 353.686564 -45.185656 
L 354.21365 -45.185656 
L 354.740736 -45.185656 
L 355.267821 -45.185656 
L 355.794907 -45.185656 
L 356.321993 -45.185656 
L 356.849079 -45.185656 
L 357.376165 -45.185656 
L 357.903251 -45.185656 
L 358.430337 -45.185656 
L 358.957422 -45.185656 
L 359.484508 -45.185656 
L 360.011594 -45.185656 
L 360.53868 -45.185656 
L 361.065766 -45.185656 
L 361.592852 -45.185656 
L 362.119937 -45.185656 
L 362.647023 -45.185656 
L 363.174109 -45.185656 
L 363.701195 -45.185656 
L 364.228281 -45.185656 
L 364.755367 -45.185656 
L 365.282452 -45.185656 
L 365.809538 -45.185656 
L 366.336624 -45.185656 
L 366.86371 -45.185656 
L 367.390796 -45.185656 
L 367.917882 -45.185656 
L 368.444968 -45.185656 
L 368.972053 -45.185656 
L 369.499139 -45.185656 
L 370.026225 -45.185656 
L 370.553311 -45.185656 
L 371.080397 -45.185656 
L 371.607483 -45.185656 
L 372.134568 -45.185656 
L 372.661654 -45.185656 
L 373.18874 -45.185656 
L 373.715826 -45.185656 
L 374.242912 -45.185656 
L 374.769998 -45.185656 
L 375.297083 -45.185656 
L 375.824169 -45.185656 
L 376.351255 -45.185656 
L 376.878341 -45.185656 
L 377.405427 -45.185656 
L 377.932513 -45.185656 
L 378.459599 -45.185656 
L 378.986684 -45.185656 
L 379.51377 -45.185656 
L 380.040856 -45.185656 
L 380.567942 -45.185656 
L 381.095028 -45.185656 
L 381.622114 -45.185656 
L 382.149199 -45.185656 
L 382.676285 -45.185656 
L 382.676285 -45.274432 
L 382.676285 -45.274432 
L 382.149199 -45.299482 
L 381.622114 -45.330573 
L 381.095028 -45.368858 
L 380.567942 -45.41563 
L 380.040856 -45.47231 
L 379.51377 -45.540448 
L 378.986684 -45.621694 
L 378.459599 -45.717775 
L 377.932513 -45.830462 
L 377.405427 -45.961519 
L 376.878341 -46.11265 
L 376.351255 -46.285435 
L 375.824169 -46.481257 
L 375.297083 -46.701223 
L 374.769998 -46.946085 
L 374.242912 -47.216154 
L 373.715826 -47.511224 
L 373.18874 -47.8305 
L 372.661654 -48.172541 
L 372.134568 -48.535214 
L 371.607483 -48.915678 
L 371.080397 -49.310385 
L 370.553311 -49.71511 
L 370.026225 -50.125021 
L 369.499139 -50.534761 
L 368.972053 -50.938579 
L 368.444968 -51.330477 
L 367.917882 -51.70438 
L 367.390796 -52.054334 
L 366.86371 -52.374699 
L 366.336624 -52.660364 
L 365.809538 -52.906936 
L 365.282452 -53.110929 
L 364.755367 -53.269925 
L 364.228281 -53.3827 
L 363.701195 -53.449319 
L 363.174109 -53.471177 
L 362.647023 -53.451004 
L 362.119937 -53.392817 
L 361.592852 -53.301821 
L 361.065766 -53.184271 
L 360.53868 -53.047297 
L 360.011594 -52.89869 
L 359.484508 -52.74667 
L 358.957422 -52.599641 
L 358.430337 -52.465935 
L 357.903251 -52.353574 
L 357.376165 -52.27004 
L 356.849079 -52.222068 
L 356.321993 -52.215479 
L 355.794907 -52.255047 
L 355.267821 -52.344404 
L 354.740736 -52.485998 
L 354.21365 -52.681082 
L 353.686564 -52.929758 
L 353.159478 -53.231042 
L 352.632392 -53.58297 
L 352.105306 -53.982723 
L 351.578221 -54.426764 
L 351.051135 -54.910986 
L 350.524049 -55.430847 
L 349.996963 -55.98151 
L 349.469877 -56.557948 
L 348.942791 -57.155038 
L 348.415706 -57.767627 
L 347.88862 -58.390573 
L 347.361534 -59.01876 
L 346.834448 -59.647095 
L 346.307362 -60.270489 
L 345.780276 -60.883838 
L 345.25319 -61.481994 
L 344.726105 -62.059764 
L 344.199019 -62.611907 
L 343.671933 -63.133174 
L 343.144847 -63.618369 
L 342.617761 -64.062441 
L 342.090675 -64.460615 
L 341.56359 -64.80854 
L 341.036504 -65.10247 
L 340.509418 -65.339444 
L 339.982332 -65.517474 
L 339.455246 -65.635724 
L 338.92816 -65.694654 
L 338.401075 -65.696137 
L 337.873989 -65.643524 
L 337.346903 -65.541658 
L 336.819817 -65.396825 
L 336.292731 -65.216643 
L 335.765645 -65.009899 
L 335.238559 -64.786324 
L 334.711474 -64.556327 
L 334.184388 -64.330696 
L 333.657302 -64.120276 
L 333.130216 -63.935644 
L 332.60313 -63.786781 
L 332.076044 -63.682774 
L 331.548959 -63.631544 
L 331.021873 -63.639609 
L 330.494787 -63.7119 
L 329.967701 -63.851626 
L 329.440615 -64.060189 
L 328.913529 -64.337155 
L 328.386444 -64.680276 
L 327.859358 -65.085554 
L 327.332272 -65.547354 
L 326.805186 -66.05856 
L 326.2781 -66.61075 
L 325.751014 -67.19442 
L 325.223929 -67.799219 
L 324.696843 -68.414212 
L 324.169757 -69.028157 
L 323.642671 -69.629797 
L 323.115585 -70.208153 
L 322.588499 -70.752823 
L 322.061413 -71.254272 
L 321.534328 -71.704106 
L 321.007242 -72.095331 
L 320.480156 -72.422571 
L 319.95307 -72.682247 
L 319.425984 -72.872713 
L 318.898898 -72.994326 
L 318.371813 -73.04945 
L 317.844727 -73.042404 
L 317.317641 -72.979325 
L 316.790555 -72.867972 
L 316.263469 -72.717459 
L 315.736383 -72.537941 
L 315.209298 -72.340247 
L 314.682212 -72.135483 
L 314.155126 -71.934626 
L 313.62804 -71.748111 
L 313.100954 -71.585444 
L 312.573868 -71.454841 
L 312.046782 -71.362928 
L 311.519697 -71.314498 
L 310.992611 -71.312337 
L 310.465525 -71.357136 
L 309.938439 -71.447479 
L 309.411353 -71.579906 
L 308.884267 -71.74906 
L 308.357182 -71.947887 
L 307.830096 -72.167891 
L 307.30301 -72.399436 
L 306.775924 -72.632067 
L 306.248838 -72.854842 
L 305.721752 -73.056663 
L 305.194667 -73.226599 
L 304.667581 -73.354173 
L 304.140495 -73.429626 
L 303.613409 -73.444139 
L 303.086323 -73.390015 
L 302.559237 -73.260823 
L 302.032151 -73.051499 
L 301.505066 -72.758409 
L 300.97798 -72.37938 
L 300.450894 -71.913702 
L 299.923808 -71.362099 
L 299.396722 -70.726684 
L 298.869636 -70.010888 
L 298.342551 -69.219374 
L 297.815465 -68.357937 
L 297.288379 -67.433384 
L 296.761293 -66.453403 
L 296.234207 -65.426421 
L 295.707121 -64.361449 
L 295.180036 -63.267909 
L 294.65295 -62.155469 
L 294.125864 -61.033858 
L 293.598778 -59.91269 
L 293.071692 -58.801286 
L 292.544606 -57.708507 
L 292.01752 -56.642597 
L 291.490435 -55.611051 
L 290.963349 -54.620494 
L 290.436263 -53.676597 
L 289.909177 -52.784009 
L 289.382091 -51.946329 
L 288.855005 -51.166101 
L 288.32792 -50.444837 
L 287.800834 -49.783068 
L 287.273748 -49.180416 
L 286.746662 -48.635688 
L 286.219576 -48.146975 
L 285.69249 -47.711771 
L 285.165405 -47.32709 
L 284.638319 -46.989584 
L 284.111233 -46.695655 
L 283.584147 -46.441568 
L 283.057061 -46.223543 
L 282.529975 -46.03784 
L 282.002889 -45.88083 
L 281.475804 -45.749058 
L 280.948718 -45.639277 
L 280.421632 -45.54849 
L 279.894546 -45.47396 
L 279.36746 -45.413223 
L 278.840374 -45.36409 
L 278.313289 -45.324634 
L 277.786203 -45.293179 
z
" style="stroke: #547d9a; stroke-width: 1.5"/>
    </defs>
    <g>
     <use xlink:href="#mbb5156766b" x="0" y="190.985656" style="fill: #547d9a; stroke: #547d9a; stroke-width: 1.5"/>
    </g>
   </g>
   <g id="line2d_9">
    <path d="M 277.786203 145.692477 
L 280.421632 145.437166 
L 282.002889 145.104826 
L 283.584147 144.544088 
L 285.165405 143.658566 
L 286.219576 142.838681 
L 287.273748 141.80524 
L 288.32792 140.540819 
L 289.909177 138.201647 
L 291.490435 135.374606 
L 293.598778 131.072966 
L 296.761293 124.532253 
L 298.342551 121.766282 
L 299.396722 120.258972 
L 300.450894 119.071954 
L 301.505066 118.227247 
L 302.559237 117.724833 
L 303.613409 117.541518 
L 304.667581 117.631483 
L 305.721752 117.928993 
L 310.465525 119.62852 
L 311.519697 119.671158 
L 312.573868 119.530816 
L 314.155126 119.051031 
L 316.790555 118.117684 
L 317.844727 117.943252 
L 318.898898 117.991331 
L 319.95307 118.303409 
L 321.007242 118.890325 
L 322.061413 119.731385 
L 323.642671 121.355859 
L 327.332272 125.438302 
L 328.386444 126.30538 
L 329.440615 126.925467 
L 330.494787 127.273756 
L 331.548959 127.354112 
L 332.60313 127.198876 
L 334.184388 126.654961 
L 336.819817 125.588832 
L 337.873989 125.342132 
L 338.92816 125.291002 
L 339.982332 125.468182 
L 341.036504 125.883186 
L 342.090675 126.525042 
L 343.671933 127.852482 
L 345.25319 129.503662 
L 351.578221 136.558892 
L 353.159478 137.754614 
L 354.21365 138.304574 
L 355.267821 138.641252 
L 356.321993 138.770177 
L 357.376165 138.715616 
L 358.957422 138.386016 
L 362.119937 137.592839 
L 363.174109 137.51448 
L 364.228281 137.602956 
L 365.282452 137.874727 
L 366.336624 138.325292 
L 367.917882 139.281276 
L 370.553311 141.270546 
L 373.18874 143.155156 
L 374.769998 144.039571 
L 376.351255 144.700221 
L 377.932513 145.155194 
L 380.040856 145.513346 
L 382.676285 145.711224 
L 382.676285 145.711224 
" style="fill: none; stroke: #ffffff; stroke-width: 2; stroke-linecap: round"/>
   </g>
   <g id="line2d_10">
    <path d="M 7.2 145.8 
L 425.7 145.8 
" style="fill: none; stroke: #547d9a; stroke-width: 2; stroke-linecap: round"/>
   </g>
   <g id="text_12">
    <!-- desert biome -->
    <g style="fill: #547d9a" transform="translate(7.2 142.512375) scale(0.132 -0.132)">
     <use xlink:href="#DejaVuSans-Bold-64"/>
     <use xlink:href="#DejaVuSans-Bold-65" x="71.582031"/>
     <use xlink:href="#DejaVuSans-Bold-73" x="139.404297"/>
     <use xlink:href="#DejaVuSans-Bold-65" x="198.925781"/>
     <use xlink:href="#DejaVuSans-Bold-72" x="266.748047"/>
     <use xlink:href="#DejaVuSans-Bold-74" x="316.064453"/>
     <use xlink:href="#DejaVuSans-Bold-20" x="363.867188"/>
     <use xlink:href="#DejaVuSans-Bold-62" x="398.681641"/>
     <use xlink:href="#DejaVuSans-Bold-69" x="470.263672"/>
     <use xlink:href="#DejaVuSans-Bold-6f" x="504.541016"/>
     <use xlink:href="#DejaVuSans-Bold-6d" x="573.242188"/>
     <use xlink:href="#DejaVuSans-Bold-65" x="677.441406"/>
    </g>
   </g>
  </g>
 </g>
</svg>
