<?xml version="1.0" encoding="utf-8" standalone="no"?>
<!DOCTYPE svg PUBLIC "-//W3C//DTD SVG 1.1//EN"
  "http://www.w3.org/Graphics/SVG/1.1/DTD/svg11.dtd">
<svg height="567.99625pt" version="1.1" viewBox="0 0 568.46125 567.99625" width="568.46125pt" xmlns="http://www.w3.org/2000/svg" xmlns:xlink="http://www.w3.org/1999/xlink">
 <metadata>
  <rdf:RDF xmlns:cc="http://creativecommons.org/ns#" xmlns:dc="http://purl.org/dc/elements/1.1/" xmlns:rdf="http://www.w3.org/1999/02/22-rdf-syntax-ns#">
   <cc:Work>
    <dc:type rdf:resource="http://purl.org/dc/dcmitype/StillImage"/>
    <dc:date>2023-05-04T10:06:26.592808</dc:date>
    <dc:format>image/svg+xml</dc:format>
    <dc:creator>
     <cc:Agent>
      <dc:title>Matplotlib v3.4.3, https://matplotlib.org/</dc:title>
     </cc:Agent>
    </dc:creator>
   </cc:Work>
  </rdf:RDF>
 </metadata>
 <defs>
  <style type="text/css">*{stroke-linecap:butt;stroke-linejoin:round;}</style>
 </defs>
 <g id="figure_1">
  <g id="patch_1">
   <path d="M 0 567.99625 
L 568.46125 567.99625 
L 568.46125 0 
L 0 0 
z
" style="fill:#ffffff;"/>
  </g>
  <g id="axes_1">
   <g id="patch_2">
    <path d="M 43.78125 247.84 
L 278.66125 247.84 
L 278.66125 7.2 
L 43.78125 7.2 
z
" style="fill:#eaeaf2;"/>
   </g>
   <g id="matplotlib.axis_1">
    <g id="xtick_1">
     <g id="line2d_1">
      <path clip-path="url(#pa4307e3e47)" d="M 48.838475 247.84 
L 48.838475 7.2 
" style="fill:none;stroke:#ffffff;stroke-linecap:round;stroke-width:0.8;"/>
     </g>
     <g id="text_1">
      <!-- 0 -->
      <g style="fill:#262626;" transform="translate(45.657225 262.438437)scale(0.1 -0.1)">
       <defs>
        <path d="M 2034 4250 
Q 1547 4250 1301 3770 
Q 1056 3291 1056 2328 
Q 1056 1369 1301 889 
Q 1547 409 2034 409 
Q 2525 409 2770 889 
Q 3016 1369 3016 2328 
Q 3016 3291 2770 3770 
Q 2525 4250 2034 4250 
z
M 2034 4750 
Q 2819 4750 3233 4129 
Q 3647 3509 3647 2328 
Q 3647 1150 3233 529 
Q 2819 -91 2034 -91 
Q 1250 -91 836 529 
Q 422 1150 422 2328 
Q 422 3509 836 4129 
Q 1250 4750 2034 4750 
z
" id="DejaVuSans-30" transform="scale(0.015625)"/>
       </defs>
       <use xlink:href="#DejaVuSans-30"/>
      </g>
     </g>
    </g>
    <g id="xtick_2">
     <g id="line2d_2">
      <path clip-path="url(#pa4307e3e47)" d="M 105.029862 247.84 
L 105.029862 7.2 
" style="fill:none;stroke:#ffffff;stroke-linecap:round;stroke-width:0.8;"/>
     </g>
     <g id="text_2">
      <!-- 1 -->
      <g style="fill:#262626;" transform="translate(101.848612 262.438437)scale(0.1 -0.1)">
       <defs>
        <path d="M 794 531 
L 1825 531 
L 1825 4091 
L 703 3866 
L 703 4441 
L 1819 4666 
L 2450 4666 
L 2450 531 
L 3481 531 
L 3481 0 
L 794 0 
L 794 531 
z
" id="DejaVuSans-31" transform="scale(0.015625)"/>
       </defs>
       <use xlink:href="#DejaVuSans-31"/>
      </g>
     </g>
    </g>
    <g id="xtick_3">
     <g id="line2d_3">
      <path clip-path="url(#pa4307e3e47)" d="M 161.22125 247.84 
L 161.22125 7.2 
" style="fill:none;stroke:#ffffff;stroke-linecap:round;stroke-width:0.8;"/>
     </g>
     <g id="text_3">
      <!-- 2 -->
      <g style="fill:#262626;" transform="translate(158.04 262.438437)scale(0.1 -0.1)">
       <defs>
        <path d="M 1228 531 
L 3431 531 
L 3431 0 
L 469 0 
L 469 531 
Q 828 903 1448 1529 
Q 2069 2156 2228 2338 
Q 2531 2678 2651 2914 
Q 2772 3150 2772 3378 
Q 2772 3750 2511 3984 
Q 2250 4219 1831 4219 
Q 1534 4219 1204 4116 
Q 875 4013 500 3803 
L 500 4441 
Q 881 4594 1212 4672 
Q 1544 4750 1819 4750 
Q 2544 4750 2975 4387 
Q 3406 4025 3406 3419 
Q 3406 3131 3298 2873 
Q 3191 2616 2906 2266 
Q 2828 2175 2409 1742 
Q 1991 1309 1228 531 
z
" id="DejaVuSans-32" transform="scale(0.015625)"/>
       </defs>
       <use xlink:href="#DejaVuSans-32"/>
      </g>
     </g>
    </g>
    <g id="xtick_4">
     <g id="line2d_4">
      <path clip-path="url(#pa4307e3e47)" d="M 217.412638 247.84 
L 217.412638 7.2 
" style="fill:none;stroke:#ffffff;stroke-linecap:round;stroke-width:0.8;"/>
     </g>
     <g id="text_4">
      <!-- 3 -->
      <g style="fill:#262626;" transform="translate(214.231388 262.438437)scale(0.1 -0.1)">
       <defs>
        <path d="M 2597 2516 
Q 3050 2419 3304 2112 
Q 3559 1806 3559 1356 
Q 3559 666 3084 287 
Q 2609 -91 1734 -91 
Q 1441 -91 1130 -33 
Q 819 25 488 141 
L 488 750 
Q 750 597 1062 519 
Q 1375 441 1716 441 
Q 2309 441 2620 675 
Q 2931 909 2931 1356 
Q 2931 1769 2642 2001 
Q 2353 2234 1838 2234 
L 1294 2234 
L 1294 2753 
L 1863 2753 
Q 2328 2753 2575 2939 
Q 2822 3125 2822 3475 
Q 2822 3834 2567 4026 
Q 2313 4219 1838 4219 
Q 1578 4219 1281 4162 
Q 984 4106 628 3988 
L 628 4550 
Q 988 4650 1302 4700 
Q 1616 4750 1894 4750 
Q 2613 4750 3031 4423 
Q 3450 4097 3450 3541 
Q 3450 3153 3228 2886 
Q 3006 2619 2597 2516 
z
" id="DejaVuSans-33" transform="scale(0.015625)"/>
       </defs>
       <use xlink:href="#DejaVuSans-33"/>
      </g>
     </g>
    </g>
    <g id="xtick_5">
     <g id="line2d_5">
      <path clip-path="url(#pa4307e3e47)" d="M 273.604025 247.84 
L 273.604025 7.2 
" style="fill:none;stroke:#ffffff;stroke-linecap:round;stroke-width:0.8;"/>
     </g>
     <g id="text_5">
      <!-- 4 -->
      <g style="fill:#262626;" transform="translate(270.422775 262.438437)scale(0.1 -0.1)">
       <defs>
        <path d="M 2419 4116 
L 825 1625 
L 2419 1625 
L 2419 4116 
z
M 2253 4666 
L 3047 4666 
L 3047 1625 
L 3713 1625 
L 3713 1100 
L 3047 1100 
L 3047 0 
L 2419 0 
L 2419 1100 
L 313 1100 
L 313 1709 
L 2253 4666 
z
" id="DejaVuSans-34" transform="scale(0.015625)"/>
       </defs>
       <use xlink:href="#DejaVuSans-34"/>
      </g>
     </g>
    </g>
    <g id="text_6">
     <!-- x -->
     <g style="fill:#262626;" transform="translate(158.261875 276.116562)scale(0.1 -0.1)">
      <defs>
       <path d="M 3513 3500 
L 2247 1797 
L 3578 0 
L 2900 0 
L 1881 1375 
L 863 0 
L 184 0 
L 1544 1831 
L 300 3500 
L 978 3500 
L 1906 2253 
L 2834 3500 
L 3513 3500 
z
" id="DejaVuSans-78" transform="scale(0.015625)"/>
      </defs>
      <use xlink:href="#DejaVuSans-78"/>
     </g>
    </g>
   </g>
   <g id="matplotlib.axis_2">
    <g id="ytick_1">
     <g id="line2d_6">
      <path clip-path="url(#pa4307e3e47)" d="M 43.78125 241.907715 
L 278.66125 241.907715 
" style="fill:none;stroke:#ffffff;stroke-linecap:round;stroke-width:0.8;"/>
     </g>
     <g id="text_7">
      <!-- 0.0 -->
      <g style="fill:#262626;" transform="translate(20.878125 245.706934)scale(0.1 -0.1)">
       <defs>
        <path d="M 684 794 
L 1344 794 
L 1344 0 
L 684 0 
L 684 794 
z
" id="DejaVuSans-2e" transform="scale(0.015625)"/>
       </defs>
       <use xlink:href="#DejaVuSans-30"/>
       <use x="63.623047" xlink:href="#DejaVuSans-2e"/>
       <use x="95.410156" xlink:href="#DejaVuSans-30"/>
      </g>
     </g>
    </g>
    <g id="ytick_2">
     <g id="line2d_7">
      <path clip-path="url(#pa4307e3e47)" d="M 43.78125 192.446999 
L 278.66125 192.446999 
" style="fill:none;stroke:#ffffff;stroke-linecap:round;stroke-width:0.8;"/>
     </g>
     <g id="text_8">
      <!-- 0.2 -->
      <g style="fill:#262626;" transform="translate(20.878125 196.246218)scale(0.1 -0.1)">
       <use xlink:href="#DejaVuSans-30"/>
       <use x="63.623047" xlink:href="#DejaVuSans-2e"/>
       <use x="95.410156" xlink:href="#DejaVuSans-32"/>
      </g>
     </g>
    </g>
    <g id="ytick_3">
     <g id="line2d_8">
      <path clip-path="url(#pa4307e3e47)" d="M 43.78125 142.986283 
L 278.66125 142.986283 
" style="fill:none;stroke:#ffffff;stroke-linecap:round;stroke-width:0.8;"/>
     </g>
     <g id="text_9">
      <!-- 0.4 -->
      <g style="fill:#262626;" transform="translate(20.878125 146.785502)scale(0.1 -0.1)">
       <use xlink:href="#DejaVuSans-30"/>
       <use x="63.623047" xlink:href="#DejaVuSans-2e"/>
       <use x="95.410156" xlink:href="#DejaVuSans-34"/>
      </g>
     </g>
    </g>
    <g id="ytick_4">
     <g id="line2d_9">
      <path clip-path="url(#pa4307e3e47)" d="M 43.78125 93.525567 
L 278.66125 93.525567 
" style="fill:none;stroke:#ffffff;stroke-linecap:round;stroke-width:0.8;"/>
     </g>
     <g id="text_10">
      <!-- 0.6 -->
      <g style="fill:#262626;" transform="translate(20.878125 97.324786)scale(0.1 -0.1)">
       <defs>
        <path d="M 2113 2584 
Q 1688 2584 1439 2293 
Q 1191 2003 1191 1497 
Q 1191 994 1439 701 
Q 1688 409 2113 409 
Q 2538 409 2786 701 
Q 3034 994 3034 1497 
Q 3034 2003 2786 2293 
Q 2538 2584 2113 2584 
z
M 3366 4563 
L 3366 3988 
Q 3128 4100 2886 4159 
Q 2644 4219 2406 4219 
Q 1781 4219 1451 3797 
Q 1122 3375 1075 2522 
Q 1259 2794 1537 2939 
Q 1816 3084 2150 3084 
Q 2853 3084 3261 2657 
Q 3669 2231 3669 1497 
Q 3669 778 3244 343 
Q 2819 -91 2113 -91 
Q 1303 -91 875 529 
Q 447 1150 447 2328 
Q 447 3434 972 4092 
Q 1497 4750 2381 4750 
Q 2619 4750 2861 4703 
Q 3103 4656 3366 4563 
z
" id="DejaVuSans-36" transform="scale(0.015625)"/>
       </defs>
       <use xlink:href="#DejaVuSans-30"/>
       <use x="63.623047" xlink:href="#DejaVuSans-2e"/>
       <use x="95.410156" xlink:href="#DejaVuSans-36"/>
      </g>
     </g>
    </g>
    <g id="ytick_5">
     <g id="line2d_10">
      <path clip-path="url(#pa4307e3e47)" d="M 43.78125 44.064851 
L 278.66125 44.064851 
" style="fill:none;stroke:#ffffff;stroke-linecap:round;stroke-width:0.8;"/>
     </g>
     <g id="text_11">
      <!-- 0.8 -->
      <g style="fill:#262626;" transform="translate(20.878125 47.864069)scale(0.1 -0.1)">
       <defs>
        <path d="M 2034 2216 
Q 1584 2216 1326 1975 
Q 1069 1734 1069 1313 
Q 1069 891 1326 650 
Q 1584 409 2034 409 
Q 2484 409 2743 651 
Q 3003 894 3003 1313 
Q 3003 1734 2745 1975 
Q 2488 2216 2034 2216 
z
M 1403 2484 
Q 997 2584 770 2862 
Q 544 3141 544 3541 
Q 544 4100 942 4425 
Q 1341 4750 2034 4750 
Q 2731 4750 3128 4425 
Q 3525 4100 3525 3541 
Q 3525 3141 3298 2862 
Q 3072 2584 2669 2484 
Q 3125 2378 3379 2068 
Q 3634 1759 3634 1313 
Q 3634 634 3220 271 
Q 2806 -91 2034 -91 
Q 1263 -91 848 271 
Q 434 634 434 1313 
Q 434 1759 690 2068 
Q 947 2378 1403 2484 
z
M 1172 3481 
Q 1172 3119 1398 2916 
Q 1625 2713 2034 2713 
Q 2441 2713 2670 2916 
Q 2900 3119 2900 3481 
Q 2900 3844 2670 4047 
Q 2441 4250 2034 4250 
Q 1625 4250 1398 4047 
Q 1172 3844 1172 3481 
z
" id="DejaVuSans-38" transform="scale(0.015625)"/>
       </defs>
       <use xlink:href="#DejaVuSans-30"/>
       <use x="63.623047" xlink:href="#DejaVuSans-2e"/>
       <use x="95.410156" xlink:href="#DejaVuSans-38"/>
      </g>
     </g>
    </g>
    <g id="text_12">
     <!-- y1 -->
     <g style="fill:#262626;" transform="translate(14.798438 133.660625)rotate(-90)scale(0.1 -0.1)">
      <defs>
       <path d="M 2059 -325 
Q 1816 -950 1584 -1140 
Q 1353 -1331 966 -1331 
L 506 -1331 
L 506 -850 
L 844 -850 
Q 1081 -850 1212 -737 
Q 1344 -625 1503 -206 
L 1606 56 
L 191 3500 
L 800 3500 
L 1894 763 
L 2988 3500 
L 3597 3500 
L 2059 -325 
z
" id="DejaVuSans-79" transform="scale(0.015625)"/>
      </defs>
      <use xlink:href="#DejaVuSans-79"/>
      <use x="59.179688" xlink:href="#DejaVuSans-31"/>
     </g>
    </g>
   </g>
   <g id="PathCollection_1">
    <defs>
     <path d="M 0 3 
C 0.795609 3 1.55874 2.683901 2.12132 2.12132 
C 2.683901 1.55874 3 0.795609 3 0 
C 3 -0.795609 2.683901 -1.55874 2.12132 -2.12132 
C 1.55874 -2.683901 0.795609 -3 0 -3 
C -0.795609 -3 -1.55874 -2.683901 -2.12132 -2.12132 
C -2.683901 -1.55874 -3 -0.795609 -3 0 
C -3 0.795609 -2.683901 1.55874 -2.12132 2.12132 
C -1.55874 2.683901 -0.795609 3 0 3 
z
" id="m729ceab559" style="stroke:#ffffff;stroke-width:0.48;"/>
    </defs>
    <g clip-path="url(#pa4307e3e47)">
     <use style="fill:#1f77b4;stroke:#ffffff;stroke-width:0.48;" x="54.457614" xlink:href="#m729ceab559" y="18.138182"/>
     <use style="fill:#1f77b4;stroke:#ffffff;stroke-width:0.48;" x="60.076752" xlink:href="#m729ceab559" y="39.432668"/>
     <use style="fill:#1f77b4;stroke:#ffffff;stroke-width:0.48;" x="65.695891" xlink:href="#m729ceab559" y="58.700717"/>
     <use style="fill:#1f77b4;stroke:#ffffff;stroke-width:0.48;" x="71.31503" xlink:href="#m729ceab559" y="76.135168"/>
     <use style="fill:#1f77b4;stroke:#ffffff;stroke-width:0.48;" x="76.934169" xlink:href="#m729ceab559" y="91.910511"/>
     <use style="fill:#1f77b4;stroke:#ffffff;stroke-width:0.48;" x="82.553307" xlink:href="#m729ceab559" y="106.184633"/>
     <use style="fill:#1f77b4;stroke:#ffffff;stroke-width:0.48;" x="88.172446" xlink:href="#m729ceab559" y="119.100392"/>
     <use style="fill:#1f77b4;stroke:#ffffff;stroke-width:0.48;" x="93.791585" xlink:href="#m729ceab559" y="130.787054"/>
     <use style="fill:#1f77b4;stroke:#ffffff;stroke-width:0.48;" x="99.410724" xlink:href="#m729ceab559" y="141.361583"/>
     <use style="fill:#1f77b4;stroke:#ffffff;stroke-width:0.48;" x="105.029862" xlink:href="#m729ceab559" y="150.929812"/>
     <use style="fill:#1f77b4;stroke:#ffffff;stroke-width:0.48;" x="110.649001" xlink:href="#m729ceab559" y="159.587504"/>
     <use style="fill:#1f77b4;stroke:#ffffff;stroke-width:0.48;" x="116.26814" xlink:href="#m729ceab559" y="167.421308"/>
     <use style="fill:#1f77b4;stroke:#ffffff;stroke-width:0.48;" x="121.887279" xlink:href="#m729ceab559" y="174.509627"/>
     <use style="fill:#1f77b4;stroke:#ffffff;stroke-width:0.48;" x="127.506417" xlink:href="#m729ceab559" y="180.923403"/>
     <use style="fill:#1f77b4;stroke:#ffffff;stroke-width:0.48;" x="133.125556" xlink:href="#m729ceab559" y="186.726828"/>
     <use style="fill:#1f77b4;stroke:#ffffff;stroke-width:0.48;" x="138.744695" xlink:href="#m729ceab559" y="191.977984"/>
     <use style="fill:#1f77b4;stroke:#ffffff;stroke-width:0.48;" x="144.363834" xlink:href="#m729ceab559" y="196.729426"/>
     <use style="fill:#1f77b4;stroke:#ffffff;stroke-width:0.48;" x="149.982972" xlink:href="#m729ceab559" y="201.028708"/>
     <use style="fill:#1f77b4;stroke:#ffffff;stroke-width:0.48;" x="155.602111" xlink:href="#m729ceab559" y="204.91886"/>
     <use style="fill:#1f77b4;stroke:#ffffff;stroke-width:0.48;" x="161.22125" xlink:href="#m729ceab559" y="208.438815"/>
     <use style="fill:#1f77b4;stroke:#ffffff;stroke-width:0.48;" x="166.840389" xlink:href="#m729ceab559" y="211.623802"/>
     <use style="fill:#1f77b4;stroke:#ffffff;stroke-width:0.48;" x="172.459528" xlink:href="#m729ceab559" y="214.505698"/>
     <use style="fill:#1f77b4;stroke:#ffffff;stroke-width:0.48;" x="178.078666" xlink:href="#m729ceab559" y="217.113344"/>
     <use style="fill:#1f77b4;stroke:#ffffff;stroke-width:0.48;" x="183.697805" xlink:href="#m729ceab559" y="219.472841"/>
     <use style="fill:#1f77b4;stroke:#ffffff;stroke-width:0.48;" x="189.316944" xlink:href="#m729ceab559" y="221.607801"/>
     <use style="fill:#1f77b4;stroke:#ffffff;stroke-width:0.48;" x="194.936083" xlink:href="#m729ceab559" y="223.539594"/>
     <use style="fill:#1f77b4;stroke:#ffffff;stroke-width:0.48;" x="200.555221" xlink:href="#m729ceab559" y="225.287551"/>
     <use style="fill:#1f77b4;stroke:#ffffff;stroke-width:0.48;" x="206.17436" xlink:href="#m729ceab559" y="226.869169"/>
     <use style="fill:#1f77b4;stroke:#ffffff;stroke-width:0.48;" x="211.793499" xlink:href="#m729ceab559" y="228.300276"/>
     <use style="fill:#1f77b4;stroke:#ffffff;stroke-width:0.48;" x="217.412638" xlink:href="#m729ceab559" y="229.595195"/>
     <use style="fill:#1f77b4;stroke:#ffffff;stroke-width:0.48;" x="223.031776" xlink:href="#m729ceab559" y="230.766886"/>
     <use style="fill:#1f77b4;stroke:#ffffff;stroke-width:0.48;" x="228.650915" xlink:href="#m729ceab559" y="231.827076"/>
     <use style="fill:#1f77b4;stroke:#ffffff;stroke-width:0.48;" x="234.270054" xlink:href="#m729ceab559" y="232.786376"/>
     <use style="fill:#1f77b4;stroke:#ffffff;stroke-width:0.48;" x="239.889193" xlink:href="#m729ceab559" y="233.654386"/>
     <use style="fill:#1f77b4;stroke:#ffffff;stroke-width:0.48;" x="245.508331" xlink:href="#m729ceab559" y="234.439794"/>
     <use style="fill:#1f77b4;stroke:#ffffff;stroke-width:0.48;" x="251.12747" xlink:href="#m729ceab559" y="235.150461"/>
     <use style="fill:#1f77b4;stroke:#ffffff;stroke-width:0.48;" x="256.746609" xlink:href="#m729ceab559" y="235.793499"/>
     <use style="fill:#1f77b4;stroke:#ffffff;stroke-width:0.48;" x="262.365748" xlink:href="#m729ceab559" y="236.375343"/>
     <use style="fill:#1f77b4;stroke:#ffffff;stroke-width:0.48;" x="267.984886" xlink:href="#m729ceab559" y="236.901818"/>
    </g>
   </g>
   <g id="patch_3">
    <path d="M 43.78125 247.84 
L 43.78125 7.2 
" style="fill:none;stroke:#ffffff;stroke-linecap:square;stroke-linejoin:miter;stroke-width:0.8;"/>
   </g>
   <g id="patch_4">
    <path d="M 278.66125 247.84 
L 278.66125 7.2 
" style="fill:none;stroke:#ffffff;stroke-linecap:square;stroke-linejoin:miter;stroke-width:0.8;"/>
   </g>
   <g id="patch_5">
    <path d="M 43.78125 247.84 
L 278.66125 247.84 
" style="fill:none;stroke:#ffffff;stroke-linecap:square;stroke-linejoin:miter;stroke-width:0.8;"/>
   </g>
   <g id="patch_6">
    <path d="M 43.78125 7.2 
L 278.66125 7.2 
" style="fill:none;stroke:#ffffff;stroke-linecap:square;stroke-linejoin:miter;stroke-width:0.8;"/>
   </g>
  </g>
  <g id="axes_2">
   <g id="patch_7">
    <path d="M 326.38125 247.84 
L 561.26125 247.84 
L 561.26125 7.2 
L 326.38125 7.2 
z
" style="fill:#eaeaf2;"/>
   </g>
   <g id="matplotlib.axis_3">
    <g id="xtick_6">
     <g id="line2d_11">
      <path clip-path="url(#pe206c2783f)" d="M 331.438475 247.84 
L 331.438475 7.2 
" style="fill:none;stroke:#ffffff;stroke-linecap:round;stroke-width:0.8;"/>
     </g>
     <g id="text_13">
      <!-- 0 -->
      <g style="fill:#262626;" transform="translate(328.257225 262.438437)scale(0.1 -0.1)">
       <use xlink:href="#DejaVuSans-30"/>
      </g>
     </g>
    </g>
    <g id="xtick_7">
     <g id="line2d_12">
      <path clip-path="url(#pe206c2783f)" d="M 387.629862 247.84 
L 387.629862 7.2 
" style="fill:none;stroke:#ffffff;stroke-linecap:round;stroke-width:0.8;"/>
     </g>
     <g id="text_14">
      <!-- 1 -->
      <g style="fill:#262626;" transform="translate(384.448612 262.438437)scale(0.1 -0.1)">
       <use xlink:href="#DejaVuSans-31"/>
      </g>
     </g>
    </g>
    <g id="xtick_8">
     <g id="line2d_13">
      <path clip-path="url(#pe206c2783f)" d="M 443.82125 247.84 
L 443.82125 7.2 
" style="fill:none;stroke:#ffffff;stroke-linecap:round;stroke-width:0.8;"/>
     </g>
     <g id="text_15">
      <!-- 2 -->
      <g style="fill:#262626;" transform="translate(440.64 262.438437)scale(0.1 -0.1)">
       <use xlink:href="#DejaVuSans-32"/>
      </g>
     </g>
    </g>
    <g id="xtick_9">
     <g id="line2d_14">
      <path clip-path="url(#pe206c2783f)" d="M 500.012638 247.84 
L 500.012638 7.2 
" style="fill:none;stroke:#ffffff;stroke-linecap:round;stroke-width:0.8;"/>
     </g>
     <g id="text_16">
      <!-- 3 -->
      <g style="fill:#262626;" transform="translate(496.831388 262.438437)scale(0.1 -0.1)">
       <use xlink:href="#DejaVuSans-33"/>
      </g>
     </g>
    </g>
    <g id="xtick_10">
     <g id="line2d_15">
      <path clip-path="url(#pe206c2783f)" d="M 556.204025 247.84 
L 556.204025 7.2 
" style="fill:none;stroke:#ffffff;stroke-linecap:round;stroke-width:0.8;"/>
     </g>
     <g id="text_17">
      <!-- 4 -->
      <g style="fill:#262626;" transform="translate(553.022775 262.438437)scale(0.1 -0.1)">
       <use xlink:href="#DejaVuSans-34"/>
      </g>
     </g>
    </g>
    <g id="text_18">
     <!-- x -->
     <g style="fill:#262626;" transform="translate(440.861875 276.116562)scale(0.1 -0.1)">
      <use xlink:href="#DejaVuSans-78"/>
     </g>
    </g>
   </g>
   <g id="matplotlib.axis_4">
    <g id="ytick_6">
     <g id="line2d_16">
      <path clip-path="url(#pe206c2783f)" d="M 326.38125 221.291149 
L 561.26125 221.291149 
" style="fill:none;stroke:#ffffff;stroke-linecap:round;stroke-width:0.8;"/>
     </g>
     <g id="text_19">
      <!-- 0.2 -->
      <g style="fill:#262626;" transform="translate(303.478125 225.090368)scale(0.1 -0.1)">
       <use xlink:href="#DejaVuSans-30"/>
       <use x="63.623047" xlink:href="#DejaVuSans-2e"/>
       <use x="95.410156" xlink:href="#DejaVuSans-32"/>
      </g>
     </g>
    </g>
    <g id="ytick_7">
     <g id="line2d_17">
      <path clip-path="url(#pe206c2783f)" d="M 326.38125 194.248416 
L 561.26125 194.248416 
" style="fill:none;stroke:#ffffff;stroke-linecap:round;stroke-width:0.8;"/>
     </g>
     <g id="text_20">
      <!-- 0.3 -->
      <g style="fill:#262626;" transform="translate(303.478125 198.047635)scale(0.1 -0.1)">
       <use xlink:href="#DejaVuSans-30"/>
       <use x="63.623047" xlink:href="#DejaVuSans-2e"/>
       <use x="95.410156" xlink:href="#DejaVuSans-33"/>
      </g>
     </g>
    </g>
    <g id="ytick_8">
     <g id="line2d_18">
      <path clip-path="url(#pe206c2783f)" d="M 326.38125 167.205683 
L 561.26125 167.205683 
" style="fill:none;stroke:#ffffff;stroke-linecap:round;stroke-width:0.8;"/>
     </g>
     <g id="text_21">
      <!-- 0.4 -->
      <g style="fill:#262626;" transform="translate(303.478125 171.004902)scale(0.1 -0.1)">
       <use xlink:href="#DejaVuSans-30"/>
       <use x="63.623047" xlink:href="#DejaVuSans-2e"/>
       <use x="95.410156" xlink:href="#DejaVuSans-34"/>
      </g>
     </g>
    </g>
    <g id="ytick_9">
     <g id="line2d_19">
      <path clip-path="url(#pe206c2783f)" d="M 326.38125 140.16295 
L 561.26125 140.16295 
" style="fill:none;stroke:#ffffff;stroke-linecap:round;stroke-width:0.8;"/>
     </g>
     <g id="text_22">
      <!-- 0.5 -->
      <g style="fill:#262626;" transform="translate(303.478125 143.962169)scale(0.1 -0.1)">
       <defs>
        <path d="M 691 4666 
L 3169 4666 
L 3169 4134 
L 1269 4134 
L 1269 2991 
Q 1406 3038 1543 3061 
Q 1681 3084 1819 3084 
Q 2600 3084 3056 2656 
Q 3513 2228 3513 1497 
Q 3513 744 3044 326 
Q 2575 -91 1722 -91 
Q 1428 -91 1123 -41 
Q 819 9 494 109 
L 494 744 
Q 775 591 1075 516 
Q 1375 441 1709 441 
Q 2250 441 2565 725 
Q 2881 1009 2881 1497 
Q 2881 1984 2565 2268 
Q 2250 2553 1709 2553 
Q 1456 2553 1204 2497 
Q 953 2441 691 2322 
L 691 4666 
z
" id="DejaVuSans-35" transform="scale(0.015625)"/>
       </defs>
       <use xlink:href="#DejaVuSans-30"/>
       <use x="63.623047" xlink:href="#DejaVuSans-2e"/>
       <use x="95.410156" xlink:href="#DejaVuSans-35"/>
      </g>
     </g>
    </g>
    <g id="ytick_10">
     <g id="line2d_20">
      <path clip-path="url(#pe206c2783f)" d="M 326.38125 113.120217 
L 561.26125 113.120217 
" style="fill:none;stroke:#ffffff;stroke-linecap:round;stroke-width:0.8;"/>
     </g>
     <g id="text_23">
      <!-- 0.6 -->
      <g style="fill:#262626;" transform="translate(303.478125 116.919436)scale(0.1 -0.1)">
       <use xlink:href="#DejaVuSans-30"/>
       <use x="63.623047" xlink:href="#DejaVuSans-2e"/>
       <use x="95.410156" xlink:href="#DejaVuSans-36"/>
      </g>
     </g>
    </g>
    <g id="ytick_11">
     <g id="line2d_21">
      <path clip-path="url(#pe206c2783f)" d="M 326.38125 86.077484 
L 561.26125 86.077484 
" style="fill:none;stroke:#ffffff;stroke-linecap:round;stroke-width:0.8;"/>
     </g>
     <g id="text_24">
      <!-- 0.7 -->
      <g style="fill:#262626;" transform="translate(303.478125 89.876703)scale(0.1 -0.1)">
       <defs>
        <path d="M 525 4666 
L 3525 4666 
L 3525 4397 
L 1831 0 
L 1172 0 
L 2766 4134 
L 525 4134 
L 525 4666 
z
" id="DejaVuSans-37" transform="scale(0.015625)"/>
       </defs>
       <use xlink:href="#DejaVuSans-30"/>
       <use x="63.623047" xlink:href="#DejaVuSans-2e"/>
       <use x="95.410156" xlink:href="#DejaVuSans-37"/>
      </g>
     </g>
    </g>
    <g id="ytick_12">
     <g id="line2d_22">
      <path clip-path="url(#pe206c2783f)" d="M 326.38125 59.034751 
L 561.26125 59.034751 
" style="fill:none;stroke:#ffffff;stroke-linecap:round;stroke-width:0.8;"/>
     </g>
     <g id="text_25">
      <!-- 0.8 -->
      <g style="fill:#262626;" transform="translate(303.478125 62.83397)scale(0.1 -0.1)">
       <use xlink:href="#DejaVuSans-30"/>
       <use x="63.623047" xlink:href="#DejaVuSans-2e"/>
       <use x="95.410156" xlink:href="#DejaVuSans-38"/>
      </g>
     </g>
    </g>
    <g id="ytick_13">
     <g id="line2d_23">
      <path clip-path="url(#pe206c2783f)" d="M 326.38125 31.992018 
L 561.26125 31.992018 
" style="fill:none;stroke:#ffffff;stroke-linecap:round;stroke-width:0.8;"/>
     </g>
     <g id="text_26">
      <!-- 0.9 -->
      <g style="fill:#262626;" transform="translate(303.478125 35.791237)scale(0.1 -0.1)">
       <defs>
        <path d="M 703 97 
L 703 672 
Q 941 559 1184 500 
Q 1428 441 1663 441 
Q 2288 441 2617 861 
Q 2947 1281 2994 2138 
Q 2813 1869 2534 1725 
Q 2256 1581 1919 1581 
Q 1219 1581 811 2004 
Q 403 2428 403 3163 
Q 403 3881 828 4315 
Q 1253 4750 1959 4750 
Q 2769 4750 3195 4129 
Q 3622 3509 3622 2328 
Q 3622 1225 3098 567 
Q 2575 -91 1691 -91 
Q 1453 -91 1209 -44 
Q 966 3 703 97 
z
M 1959 2075 
Q 2384 2075 2632 2365 
Q 2881 2656 2881 3163 
Q 2881 3666 2632 3958 
Q 2384 4250 1959 4250 
Q 1534 4250 1286 3958 
Q 1038 3666 1038 3163 
Q 1038 2656 1286 2365 
Q 1534 2075 1959 2075 
z
" id="DejaVuSans-39" transform="scale(0.015625)"/>
       </defs>
       <use xlink:href="#DejaVuSans-30"/>
       <use x="63.623047" xlink:href="#DejaVuSans-2e"/>
       <use x="95.410156" xlink:href="#DejaVuSans-39"/>
      </g>
     </g>
    </g>
    <g id="text_27">
     <!-- y2 -->
     <g style="fill:#262626;" transform="translate(297.398438 133.660625)rotate(-90)scale(0.1 -0.1)">
      <use xlink:href="#DejaVuSans-79"/>
      <use x="59.179688" xlink:href="#DejaVuSans-32"/>
     </g>
    </g>
   </g>
   <g id="PolyCollection_1"/>
   <g id="line2d_24">
    <path clip-path="url(#pe206c2783f)" d="M 337.057614 18.138182 
L 342.676752 30.683848 
L 348.295891 42.617655 
L 353.91503 53.969444 
L 359.534169 64.767599 
L 365.153307 75.039122 
L 370.772446 84.809697 
L 376.391585 94.103755 
L 382.010724 102.944537 
L 387.629862 111.354149 
L 393.249001 119.353619 
L 398.86814 126.96295 
L 404.487279 134.20117 
L 410.106417 141.086378 
L 415.725556 147.63579 
L 421.344695 153.865783 
L 426.963834 159.791937 
L 432.582972 165.429068 
L 438.202111 170.791273 
L 443.82125 175.89196 
L 449.440389 180.743884 
L 455.059528 185.359177 
L 460.678666 189.749379 
L 466.297805 193.925469 
L 471.916944 197.897888 
L 477.536083 201.67657 
L 483.155221 205.270964 
L 488.77436 208.690057 
L 494.393499 211.942399 
L 500.012638 215.036122 
L 505.631776 217.978963 
L 511.250915 220.778279 
L 516.870054 223.441071 
L 522.489193 225.973998 
L 528.108331 228.383392 
L 533.72747 230.675278 
L 539.346609 232.855388 
L 544.965748 234.929173 
L 550.584886 236.901818 
" style="fill:none;stroke:#1f77b4;stroke-linecap:round;stroke-width:1.5;"/>
   </g>
   <g id="patch_8">
    <path d="M 326.38125 247.84 
L 326.38125 7.2 
" style="fill:none;stroke:#ffffff;stroke-linecap:square;stroke-linejoin:miter;stroke-width:0.8;"/>
   </g>
   <g id="patch_9">
    <path d="M 561.26125 247.84 
L 561.26125 7.2 
" style="fill:none;stroke:#ffffff;stroke-linecap:square;stroke-linejoin:miter;stroke-width:0.8;"/>
   </g>
   <g id="patch_10">
    <path d="M 326.38125 247.84 
L 561.26125 247.84 
" style="fill:none;stroke:#ffffff;stroke-linecap:square;stroke-linejoin:miter;stroke-width:0.8;"/>
   </g>
   <g id="patch_11">
    <path d="M 326.38125 7.2 
L 561.26125 7.2 
" style="fill:none;stroke:#ffffff;stroke-linecap:square;stroke-linejoin:miter;stroke-width:0.8;"/>
   </g>
  </g>
  <g id="axes_3">
   <g id="patch_12">
    <path d="M 43.78125 530.44 
L 278.66125 530.44 
L 278.66125 289.8 
L 43.78125 289.8 
z
" style="fill:#eaeaf2;"/>
   </g>
   <g id="matplotlib.axis_5">
    <g id="xtick_11">
     <g id="line2d_25">
      <path clip-path="url(#p45711481ec)" d="M 48.838475 530.44 
L 48.838475 289.8 
" style="fill:none;stroke:#ffffff;stroke-linecap:round;stroke-width:0.8;"/>
     </g>
     <g id="text_28">
      <!-- 0 -->
      <g style="fill:#262626;" transform="translate(45.657225 545.038437)scale(0.1 -0.1)">
       <use xlink:href="#DejaVuSans-30"/>
      </g>
     </g>
    </g>
    <g id="xtick_12">
     <g id="line2d_26">
      <path clip-path="url(#p45711481ec)" d="M 105.029862 530.44 
L 105.029862 289.8 
" style="fill:none;stroke:#ffffff;stroke-linecap:round;stroke-width:0.8;"/>
     </g>
     <g id="text_29">
      <!-- 1 -->
      <g style="fill:#262626;" transform="translate(101.848612 545.038437)scale(0.1 -0.1)">
       <use xlink:href="#DejaVuSans-31"/>
      </g>
     </g>
    </g>
    <g id="xtick_13">
     <g id="line2d_27">
      <path clip-path="url(#p45711481ec)" d="M 161.22125 530.44 
L 161.22125 289.8 
" style="fill:none;stroke:#ffffff;stroke-linecap:round;stroke-width:0.8;"/>
     </g>
     <g id="text_30">
      <!-- 2 -->
      <g style="fill:#262626;" transform="translate(158.04 545.038437)scale(0.1 -0.1)">
       <use xlink:href="#DejaVuSans-32"/>
      </g>
     </g>
    </g>
    <g id="xtick_14">
     <g id="line2d_28">
      <path clip-path="url(#p45711481ec)" d="M 217.412638 530.44 
L 217.412638 289.8 
" style="fill:none;stroke:#ffffff;stroke-linecap:round;stroke-width:0.8;"/>
     </g>
     <g id="text_31">
      <!-- 3 -->
      <g style="fill:#262626;" transform="translate(214.231388 545.038437)scale(0.1 -0.1)">
       <use xlink:href="#DejaVuSans-33"/>
      </g>
     </g>
    </g>
    <g id="xtick_15">
     <g id="line2d_29">
      <path clip-path="url(#p45711481ec)" d="M 273.604025 530.44 
L 273.604025 289.8 
" style="fill:none;stroke:#ffffff;stroke-linecap:round;stroke-width:0.8;"/>
     </g>
     <g id="text_32">
      <!-- 4 -->
      <g style="fill:#262626;" transform="translate(270.422775 545.038437)scale(0.1 -0.1)">
       <use xlink:href="#DejaVuSans-34"/>
      </g>
     </g>
    </g>
    <g id="text_33">
     <!-- x -->
     <g style="fill:#262626;" transform="translate(158.261875 558.716562)scale(0.1 -0.1)">
      <use xlink:href="#DejaVuSans-78"/>
     </g>
    </g>
   </g>
   <g id="matplotlib.axis_6">
    <g id="ytick_14">
     <g id="line2d_30">
      <path clip-path="url(#p45711481ec)" d="M 43.78125 519.611354 
L 278.66125 519.611354 
" style="fill:none;stroke:#ffffff;stroke-linecap:round;stroke-width:0.8;"/>
     </g>
     <g id="text_34">
      <!-- 0.0 -->
      <g style="fill:#262626;" transform="translate(20.878125 523.410572)scale(0.1 -0.1)">
       <use xlink:href="#DejaVuSans-30"/>
       <use x="63.623047" xlink:href="#DejaVuSans-2e"/>
       <use x="95.410156" xlink:href="#DejaVuSans-30"/>
      </g>
     </g>
    </g>
    <g id="ytick_15">
     <g id="line2d_31">
      <path clip-path="url(#p45711481ec)" d="M 43.78125 466.144894 
L 278.66125 466.144894 
" style="fill:none;stroke:#ffffff;stroke-linecap:round;stroke-width:0.8;"/>
     </g>
     <g id="text_35">
      <!-- 0.2 -->
      <g style="fill:#262626;" transform="translate(20.878125 469.944113)scale(0.1 -0.1)">
       <use xlink:href="#DejaVuSans-30"/>
       <use x="63.623047" xlink:href="#DejaVuSans-2e"/>
       <use x="95.410156" xlink:href="#DejaVuSans-32"/>
      </g>
     </g>
    </g>
    <g id="ytick_16">
     <g id="line2d_32">
      <path clip-path="url(#p45711481ec)" d="M 43.78125 412.678435 
L 278.66125 412.678435 
" style="fill:none;stroke:#ffffff;stroke-linecap:round;stroke-width:0.8;"/>
     </g>
     <g id="text_36">
      <!-- 0.4 -->
      <g style="fill:#262626;" transform="translate(20.878125 416.477654)scale(0.1 -0.1)">
       <use xlink:href="#DejaVuSans-30"/>
       <use x="63.623047" xlink:href="#DejaVuSans-2e"/>
       <use x="95.410156" xlink:href="#DejaVuSans-34"/>
      </g>
     </g>
    </g>
    <g id="ytick_17">
     <g id="line2d_33">
      <path clip-path="url(#p45711481ec)" d="M 43.78125 359.211976 
L 278.66125 359.211976 
" style="fill:none;stroke:#ffffff;stroke-linecap:round;stroke-width:0.8;"/>
     </g>
     <g id="text_37">
      <!-- 0.6 -->
      <g style="fill:#262626;" transform="translate(20.878125 363.011195)scale(0.1 -0.1)">
       <use xlink:href="#DejaVuSans-30"/>
       <use x="63.623047" xlink:href="#DejaVuSans-2e"/>
       <use x="95.410156" xlink:href="#DejaVuSans-36"/>
      </g>
     </g>
    </g>
    <g id="ytick_18">
     <g id="line2d_34">
      <path clip-path="url(#p45711481ec)" d="M 43.78125 305.745517 
L 278.66125 305.745517 
" style="fill:none;stroke:#ffffff;stroke-linecap:round;stroke-width:0.8;"/>
     </g>
     <g id="text_38">
      <!-- 0.8 -->
      <g style="fill:#262626;" transform="translate(20.878125 309.544736)scale(0.1 -0.1)">
       <use xlink:href="#DejaVuSans-30"/>
       <use x="63.623047" xlink:href="#DejaVuSans-2e"/>
       <use x="95.410156" xlink:href="#DejaVuSans-38"/>
      </g>
     </g>
    </g>
    <g id="text_39">
     <!-- y1 -->
     <g style="fill:#262626;" transform="translate(14.798438 416.260625)rotate(-90)scale(0.1 -0.1)">
      <use xlink:href="#DejaVuSans-79"/>
      <use x="59.179688" xlink:href="#DejaVuSans-31"/>
     </g>
    </g>
   </g>
   <g id="PolyCollection_2"/>
   <g id="line2d_35">
    <path clip-path="url(#p45711481ec)" d="M 54.457614 300.738182 
L 60.076752 340.413157 
L 65.695891 372.896279 
L 71.31503 399.49121 
L 76.934169 421.265298 
L 82.553307 439.092413 
L 88.172446 453.688021 
L 93.791585 465.637894 
L 99.410724 475.421622 
L 105.029862 483.431862 
L 110.649001 489.990091 
L 116.26814 495.359515 
L 121.887279 499.755627 
L 127.506417 503.35486 
L 133.125556 506.301662 
L 138.744695 508.7143 
L 144.363834 510.689601 
L 149.982972 512.30684 
L 155.602111 513.630924 
L 161.22125 514.714992 
L 166.840389 515.602552 
L 172.459528 516.329224 
L 178.078666 516.924173 
L 183.697805 517.411276 
L 189.316944 517.810083 
L 194.936083 518.136598 
L 200.555221 518.403926 
L 206.17436 518.622795 
L 211.793499 518.80199 
L 217.412638 518.948703 
L 223.031776 519.068821 
L 228.650915 519.167166 
L 234.270054 519.247683 
L 239.889193 519.313606 
L 245.508331 519.367578 
L 251.12747 519.411767 
L 256.746609 519.447946 
L 262.365748 519.477567 
L 267.984886 519.501818 
" style="fill:none;stroke:#1f77b4;stroke-linecap:round;stroke-width:1.5;"/>
   </g>
   <g id="patch_13">
    <path d="M 43.78125 530.44 
L 43.78125 289.8 
" style="fill:none;stroke:#ffffff;stroke-linecap:square;stroke-linejoin:miter;stroke-width:0.8;"/>
   </g>
   <g id="patch_14">
    <path d="M 278.66125 530.44 
L 278.66125 289.8 
" style="fill:none;stroke:#ffffff;stroke-linecap:square;stroke-linejoin:miter;stroke-width:0.8;"/>
   </g>
   <g id="patch_15">
    <path d="M 43.78125 530.44 
L 278.66125 530.44 
" style="fill:none;stroke:#ffffff;stroke-linecap:square;stroke-linejoin:miter;stroke-width:0.8;"/>
   </g>
   <g id="patch_16">
    <path d="M 43.78125 289.8 
L 278.66125 289.8 
" style="fill:none;stroke:#ffffff;stroke-linecap:square;stroke-linejoin:miter;stroke-width:0.8;"/>
   </g>
  </g>
  <g id="axes_4">
   <g id="patch_17">
    <path d="M 326.38125 530.44 
L 561.26125 530.44 
L 561.26125 289.8 
L 326.38125 289.8 
z
" style="fill:#eaeaf2;"/>
   </g>
   <g id="matplotlib.axis_7">
    <g id="xtick_16">
     <g id="line2d_36">
      <path clip-path="url(#p1a4869cc8d)" d="M 331.438475 530.44 
L 331.438475 289.8 
" style="fill:none;stroke:#ffffff;stroke-linecap:round;stroke-width:0.8;"/>
     </g>
     <g id="text_40">
      <!-- 0 -->
      <g style="fill:#262626;" transform="translate(328.257225 545.038437)scale(0.1 -0.1)">
       <use xlink:href="#DejaVuSans-30"/>
      </g>
     </g>
    </g>
    <g id="xtick_17">
     <g id="line2d_37">
      <path clip-path="url(#p1a4869cc8d)" d="M 387.629862 530.44 
L 387.629862 289.8 
" style="fill:none;stroke:#ffffff;stroke-linecap:round;stroke-width:0.8;"/>
     </g>
     <g id="text_41">
      <!-- 1 -->
      <g style="fill:#262626;" transform="translate(384.448612 545.038437)scale(0.1 -0.1)">
       <use xlink:href="#DejaVuSans-31"/>
      </g>
     </g>
    </g>
    <g id="xtick_18">
     <g id="line2d_38">
      <path clip-path="url(#p1a4869cc8d)" d="M 443.82125 530.44 
L 443.82125 289.8 
" style="fill:none;stroke:#ffffff;stroke-linecap:round;stroke-width:0.8;"/>
     </g>
     <g id="text_42">
      <!-- 2 -->
      <g style="fill:#262626;" transform="translate(440.64 545.038437)scale(0.1 -0.1)">
       <use xlink:href="#DejaVuSans-32"/>
      </g>
     </g>
    </g>
    <g id="xtick_19">
     <g id="line2d_39">
      <path clip-path="url(#p1a4869cc8d)" d="M 500.012638 530.44 
L 500.012638 289.8 
" style="fill:none;stroke:#ffffff;stroke-linecap:round;stroke-width:0.8;"/>
     </g>
     <g id="text_43">
      <!-- 3 -->
      <g style="fill:#262626;" transform="translate(496.831388 545.038437)scale(0.1 -0.1)">
       <use xlink:href="#DejaVuSans-33"/>
      </g>
     </g>
    </g>
    <g id="xtick_20">
     <g id="line2d_40">
      <path clip-path="url(#p1a4869cc8d)" d="M 556.204025 530.44 
L 556.204025 289.8 
" style="fill:none;stroke:#ffffff;stroke-linecap:round;stroke-width:0.8;"/>
     </g>
     <g id="text_44">
      <!-- 4 -->
      <g style="fill:#262626;" transform="translate(553.022775 545.038437)scale(0.1 -0.1)">
       <use xlink:href="#DejaVuSans-34"/>
      </g>
     </g>
    </g>
    <g id="text_45">
     <!-- x -->
     <g style="fill:#262626;" transform="translate(440.861875 558.716562)scale(0.1 -0.1)">
      <use xlink:href="#DejaVuSans-78"/>
     </g>
    </g>
   </g>
   <g id="matplotlib.axis_8">
    <g id="ytick_19">
     <g id="line2d_41">
      <path clip-path="url(#p1a4869cc8d)" d="M 326.38125 524.507715 
L 561.26125 524.507715 
" style="fill:none;stroke:#ffffff;stroke-linecap:round;stroke-width:0.8;"/>
     </g>
     <g id="text_46">
      <!-- 0.0 -->
      <g style="fill:#262626;" transform="translate(303.478125 528.306934)scale(0.1 -0.1)">
       <use xlink:href="#DejaVuSans-30"/>
       <use x="63.623047" xlink:href="#DejaVuSans-2e"/>
       <use x="95.410156" xlink:href="#DejaVuSans-30"/>
      </g>
     </g>
    </g>
    <g id="ytick_20">
     <g id="line2d_42">
      <path clip-path="url(#p1a4869cc8d)" d="M 326.38125 475.046999 
L 561.26125 475.046999 
" style="fill:none;stroke:#ffffff;stroke-linecap:round;stroke-width:0.8;"/>
     </g>
     <g id="text_47">
      <!-- 0.2 -->
      <g style="fill:#262626;" transform="translate(303.478125 478.846218)scale(0.1 -0.1)">
       <use xlink:href="#DejaVuSans-30"/>
       <use x="63.623047" xlink:href="#DejaVuSans-2e"/>
       <use x="95.410156" xlink:href="#DejaVuSans-32"/>
      </g>
     </g>
    </g>
    <g id="ytick_21">
     <g id="line2d_43">
      <path clip-path="url(#p1a4869cc8d)" d="M 326.38125 425.586283 
L 561.26125 425.586283 
" style="fill:none;stroke:#ffffff;stroke-linecap:round;stroke-width:0.8;"/>
     </g>
     <g id="text_48">
      <!-- 0.4 -->
      <g style="fill:#262626;" transform="translate(303.478125 429.385502)scale(0.1 -0.1)">
       <use xlink:href="#DejaVuSans-30"/>
       <use x="63.623047" xlink:href="#DejaVuSans-2e"/>
       <use x="95.410156" xlink:href="#DejaVuSans-34"/>
      </g>
     </g>
    </g>
    <g id="ytick_22">
     <g id="line2d_44">
      <path clip-path="url(#p1a4869cc8d)" d="M 326.38125 376.125567 
L 561.26125 376.125567 
" style="fill:none;stroke:#ffffff;stroke-linecap:round;stroke-width:0.8;"/>
     </g>
     <g id="text_49">
      <!-- 0.6 -->
      <g style="fill:#262626;" transform="translate(303.478125 379.924786)scale(0.1 -0.1)">
       <use xlink:href="#DejaVuSans-30"/>
       <use x="63.623047" xlink:href="#DejaVuSans-2e"/>
       <use x="95.410156" xlink:href="#DejaVuSans-36"/>
      </g>
     </g>
    </g>
    <g id="ytick_23">
     <g id="line2d_45">
      <path clip-path="url(#p1a4869cc8d)" d="M 326.38125 326.664851 
L 561.26125 326.664851 
" style="fill:none;stroke:#ffffff;stroke-linecap:round;stroke-width:0.8;"/>
     </g>
     <g id="text_50">
      <!-- 0.8 -->
      <g style="fill:#262626;" transform="translate(303.478125 330.464069)scale(0.1 -0.1)">
       <use xlink:href="#DejaVuSans-30"/>
       <use x="63.623047" xlink:href="#DejaVuSans-2e"/>
       <use x="95.410156" xlink:href="#DejaVuSans-38"/>
      </g>
     </g>
    </g>
    <g id="text_51">
     <!-- y2 -->
     <g style="fill:#262626;" transform="translate(297.398438 416.260625)rotate(-90)scale(0.1 -0.1)">
      <use xlink:href="#DejaVuSans-79"/>
      <use x="59.179688" xlink:href="#DejaVuSans-32"/>
     </g>
    </g>
   </g>
   <g id="PathCollection_2">
    <g clip-path="url(#p1a4869cc8d)">
     <use style="fill:#1f77b4;stroke:#ffffff;stroke-width:0.48;" x="337.057614" xlink:href="#m729ceab559" y="300.738182"/>
     <use style="fill:#1f77b4;stroke:#ffffff;stroke-width:0.48;" x="342.676752" xlink:href="#m729ceab559" y="322.032668"/>
     <use style="fill:#1f77b4;stroke:#ffffff;stroke-width:0.48;" x="348.295891" xlink:href="#m729ceab559" y="341.300717"/>
     <use style="fill:#1f77b4;stroke:#ffffff;stroke-width:0.48;" x="353.91503" xlink:href="#m729ceab559" y="358.735168"/>
     <use style="fill:#1f77b4;stroke:#ffffff;stroke-width:0.48;" x="359.534169" xlink:href="#m729ceab559" y="374.510511"/>
     <use style="fill:#1f77b4;stroke:#ffffff;stroke-width:0.48;" x="365.153307" xlink:href="#m729ceab559" y="388.784633"/>
     <use style="fill:#1f77b4;stroke:#ffffff;stroke-width:0.48;" x="370.772446" xlink:href="#m729ceab559" y="401.700392"/>
     <use style="fill:#1f77b4;stroke:#ffffff;stroke-width:0.48;" x="376.391585" xlink:href="#m729ceab559" y="413.387054"/>
     <use style="fill:#1f77b4;stroke:#ffffff;stroke-width:0.48;" x="382.010724" xlink:href="#m729ceab559" y="423.961583"/>
     <use style="fill:#1f77b4;stroke:#ffffff;stroke-width:0.48;" x="387.629862" xlink:href="#m729ceab559" y="433.529812"/>
     <use style="fill:#1f77b4;stroke:#ffffff;stroke-width:0.48;" x="393.249001" xlink:href="#m729ceab559" y="442.187504"/>
     <use style="fill:#1f77b4;stroke:#ffffff;stroke-width:0.48;" x="398.86814" xlink:href="#m729ceab559" y="450.021308"/>
     <use style="fill:#1f77b4;stroke:#ffffff;stroke-width:0.48;" x="404.487279" xlink:href="#m729ceab559" y="457.109627"/>
     <use style="fill:#1f77b4;stroke:#ffffff;stroke-width:0.48;" x="410.106417" xlink:href="#m729ceab559" y="463.523403"/>
     <use style="fill:#1f77b4;stroke:#ffffff;stroke-width:0.48;" x="415.725556" xlink:href="#m729ceab559" y="469.326828"/>
     <use style="fill:#1f77b4;stroke:#ffffff;stroke-width:0.48;" x="421.344695" xlink:href="#m729ceab559" y="474.577984"/>
     <use style="fill:#1f77b4;stroke:#ffffff;stroke-width:0.48;" x="426.963834" xlink:href="#m729ceab559" y="479.329426"/>
     <use style="fill:#1f77b4;stroke:#ffffff;stroke-width:0.48;" x="432.582972" xlink:href="#m729ceab559" y="483.628708"/>
     <use style="fill:#1f77b4;stroke:#ffffff;stroke-width:0.48;" x="438.202111" xlink:href="#m729ceab559" y="487.51886"/>
     <use style="fill:#1f77b4;stroke:#ffffff;stroke-width:0.48;" x="443.82125" xlink:href="#m729ceab559" y="491.038815"/>
     <use style="fill:#1f77b4;stroke:#ffffff;stroke-width:0.48;" x="449.440389" xlink:href="#m729ceab559" y="494.223802"/>
     <use style="fill:#1f77b4;stroke:#ffffff;stroke-width:0.48;" x="455.059528" xlink:href="#m729ceab559" y="497.105698"/>
     <use style="fill:#1f77b4;stroke:#ffffff;stroke-width:0.48;" x="460.678666" xlink:href="#m729ceab559" y="499.713344"/>
     <use style="fill:#1f77b4;stroke:#ffffff;stroke-width:0.48;" x="466.297805" xlink:href="#m729ceab559" y="502.072841"/>
     <use style="fill:#1f77b4;stroke:#ffffff;stroke-width:0.48;" x="471.916944" xlink:href="#m729ceab559" y="504.207801"/>
     <use style="fill:#1f77b4;stroke:#ffffff;stroke-width:0.48;" x="477.536083" xlink:href="#m729ceab559" y="506.139594"/>
     <use style="fill:#1f77b4;stroke:#ffffff;stroke-width:0.48;" x="483.155221" xlink:href="#m729ceab559" y="507.887551"/>
     <use style="fill:#1f77b4;stroke:#ffffff;stroke-width:0.48;" x="488.77436" xlink:href="#m729ceab559" y="509.469169"/>
     <use style="fill:#1f77b4;stroke:#ffffff;stroke-width:0.48;" x="494.393499" xlink:href="#m729ceab559" y="510.900276"/>
     <use style="fill:#1f77b4;stroke:#ffffff;stroke-width:0.48;" x="500.012638" xlink:href="#m729ceab559" y="512.195195"/>
     <use style="fill:#1f77b4;stroke:#ffffff;stroke-width:0.48;" x="505.631776" xlink:href="#m729ceab559" y="513.366886"/>
     <use style="fill:#1f77b4;stroke:#ffffff;stroke-width:0.48;" x="511.250915" xlink:href="#m729ceab559" y="514.427076"/>
     <use style="fill:#1f77b4;stroke:#ffffff;stroke-width:0.48;" x="516.870054" xlink:href="#m729ceab559" y="515.386376"/>
     <use style="fill:#1f77b4;stroke:#ffffff;stroke-width:0.48;" x="522.489193" xlink:href="#m729ceab559" y="516.254386"/>
     <use style="fill:#1f77b4;stroke:#ffffff;stroke-width:0.48;" x="528.108331" xlink:href="#m729ceab559" y="517.039794"/>
     <use style="fill:#1f77b4;stroke:#ffffff;stroke-width:0.48;" x="533.72747" xlink:href="#m729ceab559" y="517.750461"/>
     <use style="fill:#1f77b4;stroke:#ffffff;stroke-width:0.48;" x="539.346609" xlink:href="#m729ceab559" y="518.393499"/>
     <use style="fill:#1f77b4;stroke:#ffffff;stroke-width:0.48;" x="544.965748" xlink:href="#m729ceab559" y="518.975343"/>
     <use style="fill:#1f77b4;stroke:#ffffff;stroke-width:0.48;" x="550.584886" xlink:href="#m729ceab559" y="519.501818"/>
    </g>
   </g>
   <g id="patch_18">
    <path d="M 326.38125 530.44 
L 326.38125 289.8 
" style="fill:none;stroke:#ffffff;stroke-linecap:square;stroke-linejoin:miter;stroke-width:0.8;"/>
   </g>
   <g id="patch_19">
    <path d="M 561.26125 530.44 
L 561.26125 289.8 
" style="fill:none;stroke:#ffffff;stroke-linecap:square;stroke-linejoin:miter;stroke-width:0.8;"/>
   </g>
   <g id="patch_20">
    <path d="M 326.38125 530.44 
L 561.26125 530.44 
" style="fill:none;stroke:#ffffff;stroke-linecap:square;stroke-linejoin:miter;stroke-width:0.8;"/>
   </g>
   <g id="patch_21">
    <path d="M 326.38125 289.8 
L 561.26125 289.8 
" style="fill:none;stroke:#ffffff;stroke-linecap:square;stroke-linejoin:miter;stroke-width:0.8;"/>
   </g>
  </g>
 </g>
 <defs>
  <clipPath id="pa4307e3e47">
   <rect height="240.64" width="234.88" x="43.78125" y="7.2"/>
  </clipPath>
  <clipPath id="pe206c2783f">
   <rect height="240.64" width="234.88" x="326.38125" y="7.2"/>
  </clipPath>
  <clipPath id="p45711481ec">
   <rect height="240.64" width="234.88" x="43.78125" y="289.8"/>
  </clipPath>
  <clipPath id="p1a4869cc8d">
   <rect height="240.64" width="234.88" x="326.38125" y="289.8"/>
  </clipPath>
 </defs>
</svg>
