<?xml version="1.0" encoding="utf-8" standalone="no"?>
<!DOCTYPE svg PUBLIC "-//W3C//DTD SVG 1.1//EN"
  "http://www.w3.org/Graphics/SVG/1.1/DTD/svg11.dtd">
<svg height="270.995287pt" version="1.1" viewBox="0 0 683.368268 270.995287" width="683.368268pt" xmlns="http://www.w3.org/2000/svg" xmlns:xlink="http://www.w3.org/1999/xlink">
 <metadata>
  <rdf:RDF xmlns:cc="http://creativecommons.org/ns#" xmlns:dc="http://purl.org/dc/elements/1.1/" xmlns:rdf="http://www.w3.org/1999/02/22-rdf-syntax-ns#">
   <cc:Work>
    <dc:type rdf:resource="http://purl.org/dc/dcmitype/StillImage"/>
    <dc:date>2023-05-03T17:09:28.392832</dc:date>
    <dc:format>image/svg+xml</dc:format>
    <dc:creator>
     <cc:Agent>
      <dc:title>Matplotlib v3.4.3, https://matplotlib.org/</dc:title>
     </cc:Agent>
    </dc:creator>
   </cc:Work>
  </rdf:RDF>
 </metadata>
 <defs>
  <style type="text/css">*{stroke-linecap:butt;stroke-linejoin:round;}</style>
 </defs>
 <g id="figure_1">
  <g id="patch_1">
   <path d="M 0 270.995287 
L 683.368268 270.995287 
L 683.368268 0 
L 0 0 
z
" style="fill:#ffffff;"/>
  </g>
  <g id="axes_1">
   <g id="patch_2">
    <path d="M 50.14375 209.278125 
L 319.24875 209.278125 
L 319.24875 22.318125 
L 50.14375 22.318125 
z
" style="fill:#ffffff;"/>
   </g>
   <g id="PathCollection_1">
    <defs>
     <path d="M 0 3 
C 0.795609 3 1.55874 2.683901 2.12132 2.12132 
C 2.683901 1.55874 3 0.795609 3 0 
C 3 -0.795609 2.683901 -1.55874 2.12132 -2.12132 
C 1.55874 -2.683901 0.795609 -3 0 -3 
C -0.795609 -3 -1.55874 -2.683901 -2.12132 -2.12132 
C -2.683901 -1.55874 -3 -0.795609 -3 0 
C -3 0.795609 -2.683901 1.55874 -2.12132 2.12132 
C -1.55874 2.683901 -0.795609 3 0 3 
z
" id="m5f22d45b9a" style="stroke:#ffffff;stroke-width:0.48;"/>
    </defs>
    <g clip-path="url(#p3c06e0704a)">
     <use style="fill:#1f77b4;stroke:#ffffff;stroke-width:0.48;" x="37.949506" xlink:href="#m5f22d45b9a" y="-1"/>
     <use style="fill:#1f77b4;stroke:#ffffff;stroke-width:0.48;" x="50.14375" xlink:href="#m5f22d45b9a" y="19.265695"/>
     <use style="fill:#1f77b4;stroke:#ffffff;stroke-width:0.48;" x="68.084083" xlink:href="#m5f22d45b9a" y="46.243566"/>
     <use style="fill:#1f77b4;stroke:#ffffff;stroke-width:0.48;" x="86.024417" xlink:href="#m5f22d45b9a" y="70.654154"/>
     <use style="fill:#1f77b4;stroke:#ffffff;stroke-width:0.48;" x="103.96475" xlink:href="#m5f22d45b9a" y="92.741767"/>
     <use style="fill:#1f77b4;stroke:#ffffff;stroke-width:0.48;" x="121.905083" xlink:href="#m5f22d45b9a" y="112.727466"/>
     <use style="fill:#1f77b4;stroke:#ffffff;stroke-width:0.48;" x="139.845417" xlink:href="#m5f22d45b9a" y="130.811274"/>
     <use style="fill:#1f77b4;stroke:#ffffff;stroke-width:0.48;" x="157.78575" xlink:href="#m5f22d45b9a" y="147.17418"/>
     <use style="fill:#1f77b4;stroke:#ffffff;stroke-width:0.48;" x="175.726083" xlink:href="#m5f22d45b9a" y="161.97995"/>
     <use style="fill:#1f77b4;stroke:#ffffff;stroke-width:0.48;" x="193.666417" xlink:href="#m5f22d45b9a" y="175.376765"/>
     <use style="fill:#1f77b4;stroke:#ffffff;stroke-width:0.48;" x="211.60675" xlink:href="#m5f22d45b9a" y="187.498704"/>
     <use style="fill:#1f77b4;stroke:#ffffff;stroke-width:0.48;" x="229.547083" xlink:href="#m5f22d45b9a" y="198.467088"/>
     <use style="fill:#1f77b4;stroke:#ffffff;stroke-width:0.48;" x="247.487417" xlink:href="#m5f22d45b9a" y="208.391692"/>
     <use style="fill:#1f77b4;stroke:#ffffff;stroke-width:0.48;" x="265.42775" xlink:href="#m5f22d45b9a" y="217.371846"/>
     <use style="fill:#1f77b4;stroke:#ffffff;stroke-width:0.48;" x="283.368083" xlink:href="#m5f22d45b9a" y="225.497425"/>
     <use style="fill:#1f77b4;stroke:#ffffff;stroke-width:0.48;" x="301.308417" xlink:href="#m5f22d45b9a" y="232.849752"/>
     <use style="fill:#1f77b4;stroke:#ffffff;stroke-width:0.48;" x="319.24875" xlink:href="#m5f22d45b9a" y="239.502414"/>
     <use style="fill:#1f77b4;stroke:#ffffff;stroke-width:0.48;" x="337.189083" xlink:href="#m5f22d45b9a" y="245.52199"/>
     <use style="fill:#1f77b4;stroke:#ffffff;stroke-width:0.48;" x="355.129417" xlink:href="#m5f22d45b9a" y="250.968729"/>
     <use style="fill:#1f77b4;stroke:#ffffff;stroke-width:0.48;" x="373.06975" xlink:href="#m5f22d45b9a" y="255.897141"/>
     <use style="fill:#1f77b4;stroke:#ffffff;stroke-width:0.48;" x="391.010083" xlink:href="#m5f22d45b9a" y="260.356554"/>
     <use style="fill:#1f77b4;stroke:#ffffff;stroke-width:0.48;" x="408.950417" xlink:href="#m5f22d45b9a" y="264.391597"/>
     <use style="fill:#1f77b4;stroke:#ffffff;stroke-width:0.48;" x="426.89075" xlink:href="#m5f22d45b9a" y="268.042655"/>
     <use style="fill:#1f77b4;stroke:#ffffff;stroke-width:0.48;" x="444.831083" xlink:href="#m5f22d45b9a" y="271.346268"/>
     <use style="fill:#1f77b4;stroke:#ffffff;stroke-width:0.48;" x="462.771417" xlink:href="#m5f22d45b9a" y="274.335502"/>
     <use style="fill:#1f77b4;stroke:#ffffff;stroke-width:0.48;" x="480.71175" xlink:href="#m5f22d45b9a" y="277.040272"/>
     <use style="fill:#1f77b4;stroke:#ffffff;stroke-width:0.48;" x="498.652083" xlink:href="#m5f22d45b9a" y="279.487649"/>
     <use style="fill:#1f77b4;stroke:#ffffff;stroke-width:0.48;" x="516.592417" xlink:href="#m5f22d45b9a" y="281.702128"/>
     <use style="fill:#1f77b4;stroke:#ffffff;stroke-width:0.48;" x="534.53275" xlink:href="#m5f22d45b9a" y="283.705871"/>
     <use style="fill:#1f77b4;stroke:#ffffff;stroke-width:0.48;" x="552.473083" xlink:href="#m5f22d45b9a" y="285.518933"/>
     <use style="fill:#1f77b4;stroke:#ffffff;stroke-width:0.48;" x="570.413417" xlink:href="#m5f22d45b9a" y="287.159459"/>
     <use style="fill:#1f77b4;stroke:#ffffff;stroke-width:0.48;" x="588.35375" xlink:href="#m5f22d45b9a" y="288.643868"/>
     <use style="fill:#1f77b4;stroke:#ffffff;stroke-width:0.48;" x="606.294083" xlink:href="#m5f22d45b9a" y="289.987017"/>
     <use style="fill:#1f77b4;stroke:#ffffff;stroke-width:0.48;" x="624.234417" xlink:href="#m5f22d45b9a" y="291.202349"/>
     <use style="fill:#1f77b4;stroke:#ffffff;stroke-width:0.48;" x="642.17475" xlink:href="#m5f22d45b9a" y="292.302026"/>
     <use style="fill:#1f77b4;stroke:#ffffff;stroke-width:0.48;" x="660.115083" xlink:href="#m5f22d45b9a" y="293.297056"/>
    </g>
   </g>
   <g id="matplotlib.axis_1">
    <g id="xtick_1">
     <g id="line2d_1">
      <defs>
       <path d="M 0 0 
L 0 3.5 
" id="m66b3970622" style="stroke:#000000;stroke-width:0.8;"/>
      </defs>
      <g>
       <use style="stroke:#000000;stroke-width:0.8;" x="50.14375" xlink:href="#m66b3970622" y="209.278125"/>
      </g>
     </g>
     <g id="text_1">
      <!-- x=0.5 -->
      <g transform="translate(32.022813 225.39625)scale(0.12 -0.12)">
       <defs>
        <path d="M 3513 3500 
L 2247 1797 
L 3578 0 
L 2900 0 
L 1881 1375 
L 863 0 
L 184 0 
L 1544 1831 
L 300 3500 
L 978 3500 
L 1906 2253 
L 2834 3500 
L 3513 3500 
z
" id="DejaVuSans-78" transform="scale(0.015625)"/>
        <path d="M 678 2906 
L 4684 2906 
L 4684 2381 
L 678 2381 
L 678 2906 
z
M 678 1631 
L 4684 1631 
L 4684 1100 
L 678 1100 
L 678 1631 
z
" id="DejaVuSans-3d" transform="scale(0.015625)"/>
        <path d="M 2034 4250 
Q 1547 4250 1301 3770 
Q 1056 3291 1056 2328 
Q 1056 1369 1301 889 
Q 1547 409 2034 409 
Q 2525 409 2770 889 
Q 3016 1369 3016 2328 
Q 3016 3291 2770 3770 
Q 2525 4250 2034 4250 
z
M 2034 4750 
Q 2819 4750 3233 4129 
Q 3647 3509 3647 2328 
Q 3647 1150 3233 529 
Q 2819 -91 2034 -91 
Q 1250 -91 836 529 
Q 422 1150 422 2328 
Q 422 3509 836 4129 
Q 1250 4750 2034 4750 
z
" id="DejaVuSans-30" transform="scale(0.015625)"/>
        <path d="M 684 794 
L 1344 794 
L 1344 0 
L 684 0 
L 684 794 
z
" id="DejaVuSans-2e" transform="scale(0.015625)"/>
        <path d="M 691 4666 
L 3169 4666 
L 3169 4134 
L 1269 4134 
L 1269 2991 
Q 1406 3038 1543 3061 
Q 1681 3084 1819 3084 
Q 2600 3084 3056 2656 
Q 3513 2228 3513 1497 
Q 3513 744 3044 326 
Q 2575 -91 1722 -91 
Q 1428 -91 1123 -41 
Q 819 9 494 109 
L 494 744 
Q 775 591 1075 516 
Q 1375 441 1709 441 
Q 2250 441 2565 725 
Q 2881 1009 2881 1497 
Q 2881 1984 2565 2268 
Q 2250 2553 1709 2553 
Q 1456 2553 1204 2497 
Q 953 2441 691 2322 
L 691 4666 
z
" id="DejaVuSans-35" transform="scale(0.015625)"/>
       </defs>
       <use xlink:href="#DejaVuSans-78"/>
       <use x="59.179688" xlink:href="#DejaVuSans-3d"/>
       <use x="142.96875" xlink:href="#DejaVuSans-30"/>
       <use x="206.591797" xlink:href="#DejaVuSans-2e"/>
       <use x="238.378906" xlink:href="#DejaVuSans-35"/>
      </g>
     </g>
    </g>
    <g id="xtick_2">
     <g id="line2d_2">
      <g>
       <use style="stroke:#000000;stroke-width:0.8;" x="139.845417" xlink:href="#m66b3970622" y="209.278125"/>
      </g>
     </g>
     <g id="text_2">
      <!-- x=1.0 -->
      <g transform="translate(121.724479 225.39625)scale(0.12 -0.12)">
       <defs>
        <path d="M 794 531 
L 1825 531 
L 1825 4091 
L 703 3866 
L 703 4441 
L 1819 4666 
L 2450 4666 
L 2450 531 
L 3481 531 
L 3481 0 
L 794 0 
L 794 531 
z
" id="DejaVuSans-31" transform="scale(0.015625)"/>
       </defs>
       <use xlink:href="#DejaVuSans-78"/>
       <use x="59.179688" xlink:href="#DejaVuSans-3d"/>
       <use x="142.96875" xlink:href="#DejaVuSans-31"/>
       <use x="206.591797" xlink:href="#DejaVuSans-2e"/>
       <use x="238.378906" xlink:href="#DejaVuSans-30"/>
      </g>
     </g>
    </g>
    <g id="xtick_3">
     <g id="line2d_3">
      <g>
       <use style="stroke:#000000;stroke-width:0.8;" x="229.547083" xlink:href="#m66b3970622" y="209.278125"/>
      </g>
     </g>
     <g id="text_3">
      <!-- x=1.5 -->
      <g transform="translate(211.426146 225.39625)scale(0.12 -0.12)">
       <use xlink:href="#DejaVuSans-78"/>
       <use x="59.179688" xlink:href="#DejaVuSans-3d"/>
       <use x="142.96875" xlink:href="#DejaVuSans-31"/>
       <use x="206.591797" xlink:href="#DejaVuSans-2e"/>
       <use x="238.378906" xlink:href="#DejaVuSans-35"/>
      </g>
     </g>
    </g>
    <g id="xtick_4">
     <g id="line2d_4">
      <g>
       <use style="stroke:#000000;stroke-width:0.8;" x="319.24875" xlink:href="#m66b3970622" y="209.278125"/>
      </g>
     </g>
     <g id="text_4">
      <!-- x=2.0 -->
      <g transform="translate(301.127812 225.39625)scale(0.12 -0.12)">
       <defs>
        <path d="M 1228 531 
L 3431 531 
L 3431 0 
L 469 0 
L 469 531 
Q 828 903 1448 1529 
Q 2069 2156 2228 2338 
Q 2531 2678 2651 2914 
Q 2772 3150 2772 3378 
Q 2772 3750 2511 3984 
Q 2250 4219 1831 4219 
Q 1534 4219 1204 4116 
Q 875 4013 500 3803 
L 500 4441 
Q 881 4594 1212 4672 
Q 1544 4750 1819 4750 
Q 2544 4750 2975 4387 
Q 3406 4025 3406 3419 
Q 3406 3131 3298 2873 
Q 3191 2616 2906 2266 
Q 2828 2175 2409 1742 
Q 1991 1309 1228 531 
z
" id="DejaVuSans-32" transform="scale(0.015625)"/>
       </defs>
       <use xlink:href="#DejaVuSans-78"/>
       <use x="59.179688" xlink:href="#DejaVuSans-3d"/>
       <use x="142.96875" xlink:href="#DejaVuSans-32"/>
       <use x="206.591797" xlink:href="#DejaVuSans-2e"/>
       <use x="238.378906" xlink:href="#DejaVuSans-30"/>
      </g>
     </g>
    </g>
    <g id="text_5">
     <!-- x -->
     <g transform="translate(181.736875 239.490312)scale(0.1 -0.1)">
      <use xlink:href="#DejaVuSans-78"/>
     </g>
    </g>
   </g>
   <g id="matplotlib.axis_2">
    <g id="ytick_1">
     <g id="line2d_5">
      <defs>
       <path d="M 0 0 
L -3.5 0 
" id="m44cc3e0956" style="stroke:#000000;stroke-width:0.8;"/>
      </defs>
      <g>
       <use style="stroke:#000000;stroke-width:0.8;" x="50.14375" xlink:href="#m44cc3e0956" y="209.278125"/>
      </g>
     </g>
     <g id="text_6">
      <!-- 0.20 -->
      <g transform="translate(20.878125 213.077344)scale(0.1 -0.1)">
       <use xlink:href="#DejaVuSans-30"/>
       <use x="63.623047" xlink:href="#DejaVuSans-2e"/>
       <use x="95.410156" xlink:href="#DejaVuSans-32"/>
       <use x="159.033203" xlink:href="#DejaVuSans-30"/>
      </g>
     </g>
    </g>
    <g id="ytick_2">
     <g id="line2d_6">
      <g>
       <use style="stroke:#000000;stroke-width:0.8;" x="50.14375" xlink:href="#m44cc3e0956" y="185.908125"/>
      </g>
     </g>
     <g id="text_7">
      <!-- 0.25 -->
      <g transform="translate(20.878125 189.707344)scale(0.1 -0.1)">
       <use xlink:href="#DejaVuSans-30"/>
       <use x="63.623047" xlink:href="#DejaVuSans-2e"/>
       <use x="95.410156" xlink:href="#DejaVuSans-32"/>
       <use x="159.033203" xlink:href="#DejaVuSans-35"/>
      </g>
     </g>
    </g>
    <g id="ytick_3">
     <g id="line2d_7">
      <g>
       <use style="stroke:#000000;stroke-width:0.8;" x="50.14375" xlink:href="#m44cc3e0956" y="162.538125"/>
      </g>
     </g>
     <g id="text_8">
      <!-- 0.30 -->
      <g transform="translate(20.878125 166.337344)scale(0.1 -0.1)">
       <defs>
        <path d="M 2597 2516 
Q 3050 2419 3304 2112 
Q 3559 1806 3559 1356 
Q 3559 666 3084 287 
Q 2609 -91 1734 -91 
Q 1441 -91 1130 -33 
Q 819 25 488 141 
L 488 750 
Q 750 597 1062 519 
Q 1375 441 1716 441 
Q 2309 441 2620 675 
Q 2931 909 2931 1356 
Q 2931 1769 2642 2001 
Q 2353 2234 1838 2234 
L 1294 2234 
L 1294 2753 
L 1863 2753 
Q 2328 2753 2575 2939 
Q 2822 3125 2822 3475 
Q 2822 3834 2567 4026 
Q 2313 4219 1838 4219 
Q 1578 4219 1281 4162 
Q 984 4106 628 3988 
L 628 4550 
Q 988 4650 1302 4700 
Q 1616 4750 1894 4750 
Q 2613 4750 3031 4423 
Q 3450 4097 3450 3541 
Q 3450 3153 3228 2886 
Q 3006 2619 2597 2516 
z
" id="DejaVuSans-33" transform="scale(0.015625)"/>
       </defs>
       <use xlink:href="#DejaVuSans-30"/>
       <use x="63.623047" xlink:href="#DejaVuSans-2e"/>
       <use x="95.410156" xlink:href="#DejaVuSans-33"/>
       <use x="159.033203" xlink:href="#DejaVuSans-30"/>
      </g>
     </g>
    </g>
    <g id="ytick_4">
     <g id="line2d_8">
      <g>
       <use style="stroke:#000000;stroke-width:0.8;" x="50.14375" xlink:href="#m44cc3e0956" y="139.168125"/>
      </g>
     </g>
     <g id="text_9">
      <!-- 0.35 -->
      <g transform="translate(20.878125 142.967344)scale(0.1 -0.1)">
       <use xlink:href="#DejaVuSans-30"/>
       <use x="63.623047" xlink:href="#DejaVuSans-2e"/>
       <use x="95.410156" xlink:href="#DejaVuSans-33"/>
       <use x="159.033203" xlink:href="#DejaVuSans-35"/>
      </g>
     </g>
    </g>
    <g id="ytick_5">
     <g id="line2d_9">
      <g>
       <use style="stroke:#000000;stroke-width:0.8;" x="50.14375" xlink:href="#m44cc3e0956" y="115.798125"/>
      </g>
     </g>
     <g id="text_10">
      <!-- 0.40 -->
      <g transform="translate(20.878125 119.597344)scale(0.1 -0.1)">
       <defs>
        <path d="M 2419 4116 
L 825 1625 
L 2419 1625 
L 2419 4116 
z
M 2253 4666 
L 3047 4666 
L 3047 1625 
L 3713 1625 
L 3713 1100 
L 3047 1100 
L 3047 0 
L 2419 0 
L 2419 1100 
L 313 1100 
L 313 1709 
L 2253 4666 
z
" id="DejaVuSans-34" transform="scale(0.015625)"/>
       </defs>
       <use xlink:href="#DejaVuSans-30"/>
       <use x="63.623047" xlink:href="#DejaVuSans-2e"/>
       <use x="95.410156" xlink:href="#DejaVuSans-34"/>
       <use x="159.033203" xlink:href="#DejaVuSans-30"/>
      </g>
     </g>
    </g>
    <g id="ytick_6">
     <g id="line2d_10">
      <g>
       <use style="stroke:#000000;stroke-width:0.8;" x="50.14375" xlink:href="#m44cc3e0956" y="92.428125"/>
      </g>
     </g>
     <g id="text_11">
      <!-- 0.45 -->
      <g transform="translate(20.878125 96.227344)scale(0.1 -0.1)">
       <use xlink:href="#DejaVuSans-30"/>
       <use x="63.623047" xlink:href="#DejaVuSans-2e"/>
       <use x="95.410156" xlink:href="#DejaVuSans-34"/>
       <use x="159.033203" xlink:href="#DejaVuSans-35"/>
      </g>
     </g>
    </g>
    <g id="ytick_7">
     <g id="line2d_11">
      <g>
       <use style="stroke:#000000;stroke-width:0.8;" x="50.14375" xlink:href="#m44cc3e0956" y="69.058125"/>
      </g>
     </g>
     <g id="text_12">
      <!-- 0.50 -->
      <g transform="translate(20.878125 72.857344)scale(0.1 -0.1)">
       <use xlink:href="#DejaVuSans-30"/>
       <use x="63.623047" xlink:href="#DejaVuSans-2e"/>
       <use x="95.410156" xlink:href="#DejaVuSans-35"/>
       <use x="159.033203" xlink:href="#DejaVuSans-30"/>
      </g>
     </g>
    </g>
    <g id="ytick_8">
     <g id="line2d_12">
      <g>
       <use style="stroke:#000000;stroke-width:0.8;" x="50.14375" xlink:href="#m44cc3e0956" y="45.688125"/>
      </g>
     </g>
     <g id="text_13">
      <!-- 0.55 -->
      <g transform="translate(20.878125 49.487344)scale(0.1 -0.1)">
       <use xlink:href="#DejaVuSans-30"/>
       <use x="63.623047" xlink:href="#DejaVuSans-2e"/>
       <use x="95.410156" xlink:href="#DejaVuSans-35"/>
       <use x="159.033203" xlink:href="#DejaVuSans-35"/>
      </g>
     </g>
    </g>
    <g id="ytick_9">
     <g id="line2d_13">
      <g>
       <use style="stroke:#000000;stroke-width:0.8;" x="50.14375" xlink:href="#m44cc3e0956" y="22.318125"/>
      </g>
     </g>
     <g id="text_14">
      <!-- 0.60 -->
      <g transform="translate(20.878125 26.117344)scale(0.1 -0.1)">
       <defs>
        <path d="M 2113 2584 
Q 1688 2584 1439 2293 
Q 1191 2003 1191 1497 
Q 1191 994 1439 701 
Q 1688 409 2113 409 
Q 2538 409 2786 701 
Q 3034 994 3034 1497 
Q 3034 2003 2786 2293 
Q 2538 2584 2113 2584 
z
M 3366 4563 
L 3366 3988 
Q 3128 4100 2886 4159 
Q 2644 4219 2406 4219 
Q 1781 4219 1451 3797 
Q 1122 3375 1075 2522 
Q 1259 2794 1537 2939 
Q 1816 3084 2150 3084 
Q 2853 3084 3261 2657 
Q 3669 2231 3669 1497 
Q 3669 778 3244 343 
Q 2819 -91 2113 -91 
Q 1303 -91 875 529 
Q 447 1150 447 2328 
Q 447 3434 972 4092 
Q 1497 4750 2381 4750 
Q 2619 4750 2861 4703 
Q 3103 4656 3366 4563 
z
" id="DejaVuSans-36" transform="scale(0.015625)"/>
       </defs>
       <use xlink:href="#DejaVuSans-30"/>
       <use x="63.623047" xlink:href="#DejaVuSans-2e"/>
       <use x="95.410156" xlink:href="#DejaVuSans-36"/>
       <use x="159.033203" xlink:href="#DejaVuSans-30"/>
      </g>
     </g>
    </g>
    <g id="text_15">
     <!-- y1 -->
     <g transform="translate(14.798437 121.93875)rotate(-90)scale(0.1 -0.1)">
      <defs>
       <path d="M 2059 -325 
Q 1816 -950 1584 -1140 
Q 1353 -1331 966 -1331 
L 506 -1331 
L 506 -850 
L 844 -850 
Q 1081 -850 1212 -737 
Q 1344 -625 1503 -206 
L 1606 56 
L 191 3500 
L 800 3500 
L 1894 763 
L 2988 3500 
L 3597 3500 
L 2059 -325 
z
" id="DejaVuSans-79" transform="scale(0.015625)"/>
      </defs>
      <use xlink:href="#DejaVuSans-79"/>
      <use x="59.179688" xlink:href="#DejaVuSans-31"/>
     </g>
    </g>
   </g>
   <g id="patch_3">
    <path d="M 50.14375 209.278125 
L 50.14375 22.318125 
" style="fill:none;stroke:#000000;stroke-linecap:square;stroke-linejoin:miter;stroke-width:0.8;"/>
   </g>
   <g id="patch_4">
    <path d="M 319.24875 209.278125 
L 319.24875 22.318125 
" style="fill:none;stroke:#000000;stroke-linecap:square;stroke-linejoin:miter;stroke-width:0.8;"/>
   </g>
   <g id="patch_5">
    <path d="M 50.14375 209.278125 
L 319.24875 209.278125 
" style="fill:none;stroke:#000000;stroke-linecap:square;stroke-linejoin:miter;stroke-width:0.8;"/>
   </g>
   <g id="patch_6">
    <path d="M 50.14375 22.318125 
L 319.24875 22.318125 
" style="fill:none;stroke:#000000;stroke-linecap:square;stroke-linejoin:miter;stroke-width:0.8;"/>
   </g>
   <g id="text_16">
    <!-- Horizontal Labels -->
    <g transform="translate(132.840313 16.318125)scale(0.12 -0.12)">
     <defs>
      <path d="M 628 4666 
L 1259 4666 
L 1259 2753 
L 3553 2753 
L 3553 4666 
L 4184 4666 
L 4184 0 
L 3553 0 
L 3553 2222 
L 1259 2222 
L 1259 0 
L 628 0 
L 628 4666 
z
" id="DejaVuSans-48" transform="scale(0.015625)"/>
      <path d="M 1959 3097 
Q 1497 3097 1228 2736 
Q 959 2375 959 1747 
Q 959 1119 1226 758 
Q 1494 397 1959 397 
Q 2419 397 2687 759 
Q 2956 1122 2956 1747 
Q 2956 2369 2687 2733 
Q 2419 3097 1959 3097 
z
M 1959 3584 
Q 2709 3584 3137 3096 
Q 3566 2609 3566 1747 
Q 3566 888 3137 398 
Q 2709 -91 1959 -91 
Q 1206 -91 779 398 
Q 353 888 353 1747 
Q 353 2609 779 3096 
Q 1206 3584 1959 3584 
z
" id="DejaVuSans-6f" transform="scale(0.015625)"/>
      <path d="M 2631 2963 
Q 2534 3019 2420 3045 
Q 2306 3072 2169 3072 
Q 1681 3072 1420 2755 
Q 1159 2438 1159 1844 
L 1159 0 
L 581 0 
L 581 3500 
L 1159 3500 
L 1159 2956 
Q 1341 3275 1631 3429 
Q 1922 3584 2338 3584 
Q 2397 3584 2469 3576 
Q 2541 3569 2628 3553 
L 2631 2963 
z
" id="DejaVuSans-72" transform="scale(0.015625)"/>
      <path d="M 603 3500 
L 1178 3500 
L 1178 0 
L 603 0 
L 603 3500 
z
M 603 4863 
L 1178 4863 
L 1178 4134 
L 603 4134 
L 603 4863 
z
" id="DejaVuSans-69" transform="scale(0.015625)"/>
      <path d="M 353 3500 
L 3084 3500 
L 3084 2975 
L 922 459 
L 3084 459 
L 3084 0 
L 275 0 
L 275 525 
L 2438 3041 
L 353 3041 
L 353 3500 
z
" id="DejaVuSans-7a" transform="scale(0.015625)"/>
      <path d="M 3513 2113 
L 3513 0 
L 2938 0 
L 2938 2094 
Q 2938 2591 2744 2837 
Q 2550 3084 2163 3084 
Q 1697 3084 1428 2787 
Q 1159 2491 1159 1978 
L 1159 0 
L 581 0 
L 581 3500 
L 1159 3500 
L 1159 2956 
Q 1366 3272 1645 3428 
Q 1925 3584 2291 3584 
Q 2894 3584 3203 3211 
Q 3513 2838 3513 2113 
z
" id="DejaVuSans-6e" transform="scale(0.015625)"/>
      <path d="M 1172 4494 
L 1172 3500 
L 2356 3500 
L 2356 3053 
L 1172 3053 
L 1172 1153 
Q 1172 725 1289 603 
Q 1406 481 1766 481 
L 2356 481 
L 2356 0 
L 1766 0 
Q 1100 0 847 248 
Q 594 497 594 1153 
L 594 3053 
L 172 3053 
L 172 3500 
L 594 3500 
L 594 4494 
L 1172 4494 
z
" id="DejaVuSans-74" transform="scale(0.015625)"/>
      <path d="M 2194 1759 
Q 1497 1759 1228 1600 
Q 959 1441 959 1056 
Q 959 750 1161 570 
Q 1363 391 1709 391 
Q 2188 391 2477 730 
Q 2766 1069 2766 1631 
L 2766 1759 
L 2194 1759 
z
M 3341 1997 
L 3341 0 
L 2766 0 
L 2766 531 
Q 2569 213 2275 61 
Q 1981 -91 1556 -91 
Q 1019 -91 701 211 
Q 384 513 384 1019 
Q 384 1609 779 1909 
Q 1175 2209 1959 2209 
L 2766 2209 
L 2766 2266 
Q 2766 2663 2505 2880 
Q 2244 3097 1772 3097 
Q 1472 3097 1187 3025 
Q 903 2953 641 2809 
L 641 3341 
Q 956 3463 1253 3523 
Q 1550 3584 1831 3584 
Q 2591 3584 2966 3190 
Q 3341 2797 3341 1997 
z
" id="DejaVuSans-61" transform="scale(0.015625)"/>
      <path d="M 603 4863 
L 1178 4863 
L 1178 0 
L 603 0 
L 603 4863 
z
" id="DejaVuSans-6c" transform="scale(0.015625)"/>
      <path id="DejaVuSans-20" transform="scale(0.015625)"/>
      <path d="M 628 4666 
L 1259 4666 
L 1259 531 
L 3531 531 
L 3531 0 
L 628 0 
L 628 4666 
z
" id="DejaVuSans-4c" transform="scale(0.015625)"/>
      <path d="M 3116 1747 
Q 3116 2381 2855 2742 
Q 2594 3103 2138 3103 
Q 1681 3103 1420 2742 
Q 1159 2381 1159 1747 
Q 1159 1113 1420 752 
Q 1681 391 2138 391 
Q 2594 391 2855 752 
Q 3116 1113 3116 1747 
z
M 1159 2969 
Q 1341 3281 1617 3432 
Q 1894 3584 2278 3584 
Q 2916 3584 3314 3078 
Q 3713 2572 3713 1747 
Q 3713 922 3314 415 
Q 2916 -91 2278 -91 
Q 1894 -91 1617 61 
Q 1341 213 1159 525 
L 1159 0 
L 581 0 
L 581 4863 
L 1159 4863 
L 1159 2969 
z
" id="DejaVuSans-62" transform="scale(0.015625)"/>
      <path d="M 3597 1894 
L 3597 1613 
L 953 1613 
Q 991 1019 1311 708 
Q 1631 397 2203 397 
Q 2534 397 2845 478 
Q 3156 559 3463 722 
L 3463 178 
Q 3153 47 2828 -22 
Q 2503 -91 2169 -91 
Q 1331 -91 842 396 
Q 353 884 353 1716 
Q 353 2575 817 3079 
Q 1281 3584 2069 3584 
Q 2775 3584 3186 3129 
Q 3597 2675 3597 1894 
z
M 3022 2063 
Q 3016 2534 2758 2815 
Q 2500 3097 2075 3097 
Q 1594 3097 1305 2825 
Q 1016 2553 972 2059 
L 3022 2063 
z
" id="DejaVuSans-65" transform="scale(0.015625)"/>
      <path d="M 2834 3397 
L 2834 2853 
Q 2591 2978 2328 3040 
Q 2066 3103 1784 3103 
Q 1356 3103 1142 2972 
Q 928 2841 928 2578 
Q 928 2378 1081 2264 
Q 1234 2150 1697 2047 
L 1894 2003 
Q 2506 1872 2764 1633 
Q 3022 1394 3022 966 
Q 3022 478 2636 193 
Q 2250 -91 1575 -91 
Q 1294 -91 989 -36 
Q 684 19 347 128 
L 347 722 
Q 666 556 975 473 
Q 1284 391 1588 391 
Q 1994 391 2212 530 
Q 2431 669 2431 922 
Q 2431 1156 2273 1281 
Q 2116 1406 1581 1522 
L 1381 1569 
Q 847 1681 609 1914 
Q 372 2147 372 2553 
Q 372 3047 722 3315 
Q 1072 3584 1716 3584 
Q 2034 3584 2315 3537 
Q 2597 3491 2834 3397 
z
" id="DejaVuSans-73" transform="scale(0.015625)"/>
     </defs>
     <use xlink:href="#DejaVuSans-48"/>
     <use x="75.195312" xlink:href="#DejaVuSans-6f"/>
     <use x="136.376953" xlink:href="#DejaVuSans-72"/>
     <use x="177.490234" xlink:href="#DejaVuSans-69"/>
     <use x="205.273438" xlink:href="#DejaVuSans-7a"/>
     <use x="257.763672" xlink:href="#DejaVuSans-6f"/>
     <use x="318.945312" xlink:href="#DejaVuSans-6e"/>
     <use x="382.324219" xlink:href="#DejaVuSans-74"/>
     <use x="421.533203" xlink:href="#DejaVuSans-61"/>
     <use x="482.8125" xlink:href="#DejaVuSans-6c"/>
     <use x="510.595703" xlink:href="#DejaVuSans-20"/>
     <use x="542.382812" xlink:href="#DejaVuSans-4c"/>
     <use x="598.095703" xlink:href="#DejaVuSans-61"/>
     <use x="659.375" xlink:href="#DejaVuSans-62"/>
     <use x="722.851562" xlink:href="#DejaVuSans-65"/>
     <use x="784.375" xlink:href="#DejaVuSans-6c"/>
     <use x="812.158203" xlink:href="#DejaVuSans-73"/>
    </g>
   </g>
  </g>
  <g id="axes_2">
   <g id="patch_7">
    <path d="M 390.14375 209.278125 
L 659.24875 209.278125 
L 659.24875 22.318125 
L 390.14375 22.318125 
z
" style="fill:#ffffff;"/>
   </g>
   <g id="PathCollection_2">
    <g clip-path="url(#p36723a083b)">
     <use style="fill:#1f77b4;stroke:#ffffff;stroke-width:0.48;" x="377.949506" xlink:href="#m5f22d45b9a" y="-1"/>
     <use style="fill:#1f77b4;stroke:#ffffff;stroke-width:0.48;" x="390.14375" xlink:href="#m5f22d45b9a" y="19.265695"/>
     <use style="fill:#1f77b4;stroke:#ffffff;stroke-width:0.48;" x="408.084083" xlink:href="#m5f22d45b9a" y="46.243566"/>
     <use style="fill:#1f77b4;stroke:#ffffff;stroke-width:0.48;" x="426.024417" xlink:href="#m5f22d45b9a" y="70.654154"/>
     <use style="fill:#1f77b4;stroke:#ffffff;stroke-width:0.48;" x="443.96475" xlink:href="#m5f22d45b9a" y="92.741767"/>
     <use style="fill:#1f77b4;stroke:#ffffff;stroke-width:0.48;" x="461.905083" xlink:href="#m5f22d45b9a" y="112.727466"/>
     <use style="fill:#1f77b4;stroke:#ffffff;stroke-width:0.48;" x="479.845417" xlink:href="#m5f22d45b9a" y="130.811274"/>
     <use style="fill:#1f77b4;stroke:#ffffff;stroke-width:0.48;" x="497.78575" xlink:href="#m5f22d45b9a" y="147.17418"/>
     <use style="fill:#1f77b4;stroke:#ffffff;stroke-width:0.48;" x="515.726083" xlink:href="#m5f22d45b9a" y="161.97995"/>
     <use style="fill:#1f77b4;stroke:#ffffff;stroke-width:0.48;" x="533.666417" xlink:href="#m5f22d45b9a" y="175.376765"/>
     <use style="fill:#1f77b4;stroke:#ffffff;stroke-width:0.48;" x="551.60675" xlink:href="#m5f22d45b9a" y="187.498704"/>
     <use style="fill:#1f77b4;stroke:#ffffff;stroke-width:0.48;" x="569.547083" xlink:href="#m5f22d45b9a" y="198.467088"/>
     <use style="fill:#1f77b4;stroke:#ffffff;stroke-width:0.48;" x="587.487417" xlink:href="#m5f22d45b9a" y="208.391692"/>
     <use style="fill:#1f77b4;stroke:#ffffff;stroke-width:0.48;" x="605.42775" xlink:href="#m5f22d45b9a" y="217.371846"/>
     <use style="fill:#1f77b4;stroke:#ffffff;stroke-width:0.48;" x="623.368083" xlink:href="#m5f22d45b9a" y="225.497425"/>
     <use style="fill:#1f77b4;stroke:#ffffff;stroke-width:0.48;" x="641.308417" xlink:href="#m5f22d45b9a" y="232.849752"/>
     <use style="fill:#1f77b4;stroke:#ffffff;stroke-width:0.48;" x="659.24875" xlink:href="#m5f22d45b9a" y="239.502414"/>
     <use style="fill:#1f77b4;stroke:#ffffff;stroke-width:0.48;" x="677.189083" xlink:href="#m5f22d45b9a" y="245.52199"/>
     <use style="fill:#1f77b4;stroke:#ffffff;stroke-width:0.48;" x="695.129417" xlink:href="#m5f22d45b9a" y="250.968729"/>
     <use style="fill:#1f77b4;stroke:#ffffff;stroke-width:0.48;" x="713.06975" xlink:href="#m5f22d45b9a" y="255.897141"/>
     <use style="fill:#1f77b4;stroke:#ffffff;stroke-width:0.48;" x="731.010083" xlink:href="#m5f22d45b9a" y="260.356554"/>
     <use style="fill:#1f77b4;stroke:#ffffff;stroke-width:0.48;" x="748.950417" xlink:href="#m5f22d45b9a" y="264.391597"/>
     <use style="fill:#1f77b4;stroke:#ffffff;stroke-width:0.48;" x="766.89075" xlink:href="#m5f22d45b9a" y="268.042655"/>
     <use style="fill:#1f77b4;stroke:#ffffff;stroke-width:0.48;" x="784.831083" xlink:href="#m5f22d45b9a" y="271.346268"/>
     <use style="fill:#1f77b4;stroke:#ffffff;stroke-width:0.48;" x="802.771417" xlink:href="#m5f22d45b9a" y="274.335502"/>
     <use style="fill:#1f77b4;stroke:#ffffff;stroke-width:0.48;" x="820.71175" xlink:href="#m5f22d45b9a" y="277.040272"/>
     <use style="fill:#1f77b4;stroke:#ffffff;stroke-width:0.48;" x="838.652083" xlink:href="#m5f22d45b9a" y="279.487649"/>
     <use style="fill:#1f77b4;stroke:#ffffff;stroke-width:0.48;" x="856.592417" xlink:href="#m5f22d45b9a" y="281.702128"/>
     <use style="fill:#1f77b4;stroke:#ffffff;stroke-width:0.48;" x="874.53275" xlink:href="#m5f22d45b9a" y="283.705871"/>
     <use style="fill:#1f77b4;stroke:#ffffff;stroke-width:0.48;" x="892.473083" xlink:href="#m5f22d45b9a" y="285.518933"/>
     <use style="fill:#1f77b4;stroke:#ffffff;stroke-width:0.48;" x="910.413417" xlink:href="#m5f22d45b9a" y="287.159459"/>
     <use style="fill:#1f77b4;stroke:#ffffff;stroke-width:0.48;" x="928.35375" xlink:href="#m5f22d45b9a" y="288.643868"/>
     <use style="fill:#1f77b4;stroke:#ffffff;stroke-width:0.48;" x="946.294083" xlink:href="#m5f22d45b9a" y="289.987017"/>
     <use style="fill:#1f77b4;stroke:#ffffff;stroke-width:0.48;" x="964.234417" xlink:href="#m5f22d45b9a" y="291.202349"/>
     <use style="fill:#1f77b4;stroke:#ffffff;stroke-width:0.48;" x="982.17475" xlink:href="#m5f22d45b9a" y="292.302026"/>
     <use style="fill:#1f77b4;stroke:#ffffff;stroke-width:0.48;" x="1000.115083" xlink:href="#m5f22d45b9a" y="293.297056"/>
    </g>
   </g>
   <g id="matplotlib.axis_3">
    <g id="xtick_5">
     <g id="line2d_14">
      <g>
       <use style="stroke:#000000;stroke-width:0.8;" x="390.14375" xlink:href="#m66b3970622" y="209.278125"/>
      </g>
     </g>
     <g id="text_17">
      <!-- x=0.5 -->
      <g transform="translate(379.67172 248.352489)rotate(-45)scale(0.12 -0.12)">
       <use xlink:href="#DejaVuSans-78"/>
       <use x="59.179688" xlink:href="#DejaVuSans-3d"/>
       <use x="142.96875" xlink:href="#DejaVuSans-30"/>
       <use x="206.591797" xlink:href="#DejaVuSans-2e"/>
       <use x="238.378906" xlink:href="#DejaVuSans-35"/>
      </g>
     </g>
    </g>
    <g id="xtick_6">
     <g id="line2d_15">
      <g>
       <use style="stroke:#000000;stroke-width:0.8;" x="479.845417" xlink:href="#m66b3970622" y="209.278125"/>
      </g>
     </g>
     <g id="text_18">
      <!-- x=1.0 -->
      <g transform="translate(469.373386 248.352489)rotate(-45)scale(0.12 -0.12)">
       <use xlink:href="#DejaVuSans-78"/>
       <use x="59.179688" xlink:href="#DejaVuSans-3d"/>
       <use x="142.96875" xlink:href="#DejaVuSans-31"/>
       <use x="206.591797" xlink:href="#DejaVuSans-2e"/>
       <use x="238.378906" xlink:href="#DejaVuSans-30"/>
      </g>
     </g>
    </g>
    <g id="xtick_7">
     <g id="line2d_16">
      <g>
       <use style="stroke:#000000;stroke-width:0.8;" x="569.547083" xlink:href="#m66b3970622" y="209.278125"/>
      </g>
     </g>
     <g id="text_19">
      <!-- x=1.5 -->
      <g transform="translate(559.075053 248.352489)rotate(-45)scale(0.12 -0.12)">
       <use xlink:href="#DejaVuSans-78"/>
       <use x="59.179688" xlink:href="#DejaVuSans-3d"/>
       <use x="142.96875" xlink:href="#DejaVuSans-31"/>
       <use x="206.591797" xlink:href="#DejaVuSans-2e"/>
       <use x="238.378906" xlink:href="#DejaVuSans-35"/>
      </g>
     </g>
    </g>
    <g id="xtick_8">
     <g id="line2d_17">
      <g>
       <use style="stroke:#000000;stroke-width:0.8;" x="659.24875" xlink:href="#m66b3970622" y="209.278125"/>
      </g>
     </g>
     <g id="text_20">
      <!-- x=2.0 -->
      <g transform="translate(648.77672 248.352489)rotate(-45)scale(0.12 -0.12)">
       <use xlink:href="#DejaVuSans-78"/>
       <use x="59.179688" xlink:href="#DejaVuSans-3d"/>
       <use x="142.96875" xlink:href="#DejaVuSans-32"/>
       <use x="206.591797" xlink:href="#DejaVuSans-2e"/>
       <use x="238.378906" xlink:href="#DejaVuSans-30"/>
      </g>
     </g>
    </g>
    <g id="text_21">
     <!-- x -->
     <g transform="translate(521.736875 261.715599)scale(0.1 -0.1)">
      <use xlink:href="#DejaVuSans-78"/>
     </g>
    </g>
   </g>
   <g id="matplotlib.axis_4">
    <g id="ytick_10">
     <g id="line2d_18">
      <g>
       <use style="stroke:#000000;stroke-width:0.8;" x="390.14375" xlink:href="#m44cc3e0956" y="209.278125"/>
      </g>
     </g>
     <g id="text_22">
      <!-- 0.20 -->
      <g transform="translate(360.878125 213.077344)scale(0.1 -0.1)">
       <use xlink:href="#DejaVuSans-30"/>
       <use x="63.623047" xlink:href="#DejaVuSans-2e"/>
       <use x="95.410156" xlink:href="#DejaVuSans-32"/>
       <use x="159.033203" xlink:href="#DejaVuSans-30"/>
      </g>
     </g>
    </g>
    <g id="ytick_11">
     <g id="line2d_19">
      <g>
       <use style="stroke:#000000;stroke-width:0.8;" x="390.14375" xlink:href="#m44cc3e0956" y="185.908125"/>
      </g>
     </g>
     <g id="text_23">
      <!-- 0.25 -->
      <g transform="translate(360.878125 189.707344)scale(0.1 -0.1)">
       <use xlink:href="#DejaVuSans-30"/>
       <use x="63.623047" xlink:href="#DejaVuSans-2e"/>
       <use x="95.410156" xlink:href="#DejaVuSans-32"/>
       <use x="159.033203" xlink:href="#DejaVuSans-35"/>
      </g>
     </g>
    </g>
    <g id="ytick_12">
     <g id="line2d_20">
      <g>
       <use style="stroke:#000000;stroke-width:0.8;" x="390.14375" xlink:href="#m44cc3e0956" y="162.538125"/>
      </g>
     </g>
     <g id="text_24">
      <!-- 0.30 -->
      <g transform="translate(360.878125 166.337344)scale(0.1 -0.1)">
       <use xlink:href="#DejaVuSans-30"/>
       <use x="63.623047" xlink:href="#DejaVuSans-2e"/>
       <use x="95.410156" xlink:href="#DejaVuSans-33"/>
       <use x="159.033203" xlink:href="#DejaVuSans-30"/>
      </g>
     </g>
    </g>
    <g id="ytick_13">
     <g id="line2d_21">
      <g>
       <use style="stroke:#000000;stroke-width:0.8;" x="390.14375" xlink:href="#m44cc3e0956" y="139.168125"/>
      </g>
     </g>
     <g id="text_25">
      <!-- 0.35 -->
      <g transform="translate(360.878125 142.967344)scale(0.1 -0.1)">
       <use xlink:href="#DejaVuSans-30"/>
       <use x="63.623047" xlink:href="#DejaVuSans-2e"/>
       <use x="95.410156" xlink:href="#DejaVuSans-33"/>
       <use x="159.033203" xlink:href="#DejaVuSans-35"/>
      </g>
     </g>
    </g>
    <g id="ytick_14">
     <g id="line2d_22">
      <g>
       <use style="stroke:#000000;stroke-width:0.8;" x="390.14375" xlink:href="#m44cc3e0956" y="115.798125"/>
      </g>
     </g>
     <g id="text_26">
      <!-- 0.40 -->
      <g transform="translate(360.878125 119.597344)scale(0.1 -0.1)">
       <use xlink:href="#DejaVuSans-30"/>
       <use x="63.623047" xlink:href="#DejaVuSans-2e"/>
       <use x="95.410156" xlink:href="#DejaVuSans-34"/>
       <use x="159.033203" xlink:href="#DejaVuSans-30"/>
      </g>
     </g>
    </g>
    <g id="ytick_15">
     <g id="line2d_23">
      <g>
       <use style="stroke:#000000;stroke-width:0.8;" x="390.14375" xlink:href="#m44cc3e0956" y="92.428125"/>
      </g>
     </g>
     <g id="text_27">
      <!-- 0.45 -->
      <g transform="translate(360.878125 96.227344)scale(0.1 -0.1)">
       <use xlink:href="#DejaVuSans-30"/>
       <use x="63.623047" xlink:href="#DejaVuSans-2e"/>
       <use x="95.410156" xlink:href="#DejaVuSans-34"/>
       <use x="159.033203" xlink:href="#DejaVuSans-35"/>
      </g>
     </g>
    </g>
    <g id="ytick_16">
     <g id="line2d_24">
      <g>
       <use style="stroke:#000000;stroke-width:0.8;" x="390.14375" xlink:href="#m44cc3e0956" y="69.058125"/>
      </g>
     </g>
     <g id="text_28">
      <!-- 0.50 -->
      <g transform="translate(360.878125 72.857344)scale(0.1 -0.1)">
       <use xlink:href="#DejaVuSans-30"/>
       <use x="63.623047" xlink:href="#DejaVuSans-2e"/>
       <use x="95.410156" xlink:href="#DejaVuSans-35"/>
       <use x="159.033203" xlink:href="#DejaVuSans-30"/>
      </g>
     </g>
    </g>
    <g id="ytick_17">
     <g id="line2d_25">
      <g>
       <use style="stroke:#000000;stroke-width:0.8;" x="390.14375" xlink:href="#m44cc3e0956" y="45.688125"/>
      </g>
     </g>
     <g id="text_29">
      <!-- 0.55 -->
      <g transform="translate(360.878125 49.487344)scale(0.1 -0.1)">
       <use xlink:href="#DejaVuSans-30"/>
       <use x="63.623047" xlink:href="#DejaVuSans-2e"/>
       <use x="95.410156" xlink:href="#DejaVuSans-35"/>
       <use x="159.033203" xlink:href="#DejaVuSans-35"/>
      </g>
     </g>
    </g>
    <g id="ytick_18">
     <g id="line2d_26">
      <g>
       <use style="stroke:#000000;stroke-width:0.8;" x="390.14375" xlink:href="#m44cc3e0956" y="22.318125"/>
      </g>
     </g>
     <g id="text_30">
      <!-- 0.60 -->
      <g transform="translate(360.878125 26.117344)scale(0.1 -0.1)">
       <use xlink:href="#DejaVuSans-30"/>
       <use x="63.623047" xlink:href="#DejaVuSans-2e"/>
       <use x="95.410156" xlink:href="#DejaVuSans-36"/>
       <use x="159.033203" xlink:href="#DejaVuSans-30"/>
      </g>
     </g>
    </g>
    <g id="text_31">
     <!-- y1 -->
     <g transform="translate(354.798437 121.93875)rotate(-90)scale(0.1 -0.1)">
      <use xlink:href="#DejaVuSans-79"/>
      <use x="59.179688" xlink:href="#DejaVuSans-31"/>
     </g>
    </g>
   </g>
   <g id="patch_8">
    <path d="M 390.14375 209.278125 
L 390.14375 22.318125 
" style="fill:none;stroke:#000000;stroke-linecap:square;stroke-linejoin:miter;stroke-width:0.8;"/>
   </g>
   <g id="patch_9">
    <path d="M 659.24875 209.278125 
L 659.24875 22.318125 
" style="fill:none;stroke:#000000;stroke-linecap:square;stroke-linejoin:miter;stroke-width:0.8;"/>
   </g>
   <g id="patch_10">
    <path d="M 390.14375 209.278125 
L 659.24875 209.278125 
" style="fill:none;stroke:#000000;stroke-linecap:square;stroke-linejoin:miter;stroke-width:0.8;"/>
   </g>
   <g id="patch_11">
    <path d="M 390.14375 22.318125 
L 659.24875 22.318125 
" style="fill:none;stroke:#000000;stroke-linecap:square;stroke-linejoin:miter;stroke-width:0.8;"/>
   </g>
   <g id="text_32">
    <!-- Rotated Labels -->
    <g transform="translate(480.023437 16.318125)scale(0.12 -0.12)">
     <defs>
      <path d="M 2841 2188 
Q 3044 2119 3236 1894 
Q 3428 1669 3622 1275 
L 4263 0 
L 3584 0 
L 2988 1197 
Q 2756 1666 2539 1819 
Q 2322 1972 1947 1972 
L 1259 1972 
L 1259 0 
L 628 0 
L 628 4666 
L 2053 4666 
Q 2853 4666 3247 4331 
Q 3641 3997 3641 3322 
Q 3641 2881 3436 2590 
Q 3231 2300 2841 2188 
z
M 1259 4147 
L 1259 2491 
L 2053 2491 
Q 2509 2491 2742 2702 
Q 2975 2913 2975 3322 
Q 2975 3731 2742 3939 
Q 2509 4147 2053 4147 
L 1259 4147 
z
" id="DejaVuSans-52" transform="scale(0.015625)"/>
      <path d="M 2906 2969 
L 2906 4863 
L 3481 4863 
L 3481 0 
L 2906 0 
L 2906 525 
Q 2725 213 2448 61 
Q 2172 -91 1784 -91 
Q 1150 -91 751 415 
Q 353 922 353 1747 
Q 353 2572 751 3078 
Q 1150 3584 1784 3584 
Q 2172 3584 2448 3432 
Q 2725 3281 2906 2969 
z
M 947 1747 
Q 947 1113 1208 752 
Q 1469 391 1925 391 
Q 2381 391 2643 752 
Q 2906 1113 2906 1747 
Q 2906 2381 2643 2742 
Q 2381 3103 1925 3103 
Q 1469 3103 1208 2742 
Q 947 2381 947 1747 
z
" id="DejaVuSans-64" transform="scale(0.015625)"/>
     </defs>
     <use xlink:href="#DejaVuSans-52"/>
     <use x="64.982422" xlink:href="#DejaVuSans-6f"/>
     <use x="126.164062" xlink:href="#DejaVuSans-74"/>
     <use x="165.373047" xlink:href="#DejaVuSans-61"/>
     <use x="226.652344" xlink:href="#DejaVuSans-74"/>
     <use x="265.861328" xlink:href="#DejaVuSans-65"/>
     <use x="327.384766" xlink:href="#DejaVuSans-64"/>
     <use x="390.861328" xlink:href="#DejaVuSans-20"/>
     <use x="422.648438" xlink:href="#DejaVuSans-4c"/>
     <use x="478.361328" xlink:href="#DejaVuSans-61"/>
     <use x="539.640625" xlink:href="#DejaVuSans-62"/>
     <use x="603.117188" xlink:href="#DejaVuSans-65"/>
     <use x="664.640625" xlink:href="#DejaVuSans-6c"/>
     <use x="692.423828" xlink:href="#DejaVuSans-73"/>
    </g>
   </g>
  </g>
 </g>
 <defs>
  <clipPath id="p3c06e0704a">
   <rect height="186.96" width="269.105" x="50.14375" y="22.318125"/>
  </clipPath>
  <clipPath id="p36723a083b">
   <rect height="186.96" width="269.105" x="390.14375" y="22.318125"/>
  </clipPath>
 </defs>
</svg>
