<?xml version="1.0" encoding="utf-8" standalone="no"?>
<!DOCTYPE svg PUBLIC "-//W3C//DTD SVG 1.1//EN"
  "http://www.w3.org/Graphics/SVG/1.1/DTD/svg11.dtd">
<svg height="310.86825pt" version="1.1" viewBox="0 0 408.363626 310.86825" width="408.363626pt" xmlns="http://www.w3.org/2000/svg" xmlns:xlink="http://www.w3.org/1999/xlink">
 <metadata>
  <rdf:RDF xmlns:cc="http://creativecommons.org/ns#" xmlns:dc="http://purl.org/dc/elements/1.1/" xmlns:rdf="http://www.w3.org/1999/02/22-rdf-syntax-ns#">
   <cc:Work>
    <dc:type rdf:resource="http://purl.org/dc/dcmitype/StillImage"/>
    <dc:date>2023-05-03T17:09:30.027688</dc:date>
    <dc:format>image/svg+xml</dc:format>
    <dc:creator>
     <cc:Agent>
      <dc:title>Matplotlib v3.4.3, https://matplotlib.org/</dc:title>
     </cc:Agent>
    </dc:creator>
   </cc:Work>
  </rdf:RDF>
 </metadata>
 <defs>
  <style type="text/css">*{stroke-linecap:butt;stroke-linejoin:round;}</style>
 </defs>
 <g id="figure_1">
  <g id="patch_1">
   <path d="M 0 310.86825 
L 408.363626 310.86825 
L 408.363626 0 
L 0 0 
z
" style="fill:#ffffff;"/>
  </g>
  <g id="axes_1">
   <g id="patch_2">
    <path d="M 43.78125 273.312 
L 400.90125 273.312 
L 400.90125 7.2 
L 43.78125 7.2 
z
" style="fill:#eaeaf2;"/>
   </g>
   <g id="matplotlib.axis_1">
    <g id="xtick_1">
     <g id="line2d_1">
      <path clip-path="url(#p7c2b7d0588)" d="M 51.470437 273.312 
L 51.470437 7.2 
" style="fill:none;stroke:#ffffff;stroke-linecap:round;stroke-width:0.8;"/>
     </g>
     <g id="text_1">
      <!-- 0.0 -->
      <g style="fill:#262626;" transform="translate(43.518874 287.910437)scale(0.1 -0.1)">
       <defs>
        <path d="M 2034 4250 
Q 1547 4250 1301 3770 
Q 1056 3291 1056 2328 
Q 1056 1369 1301 889 
Q 1547 409 2034 409 
Q 2525 409 2770 889 
Q 3016 1369 3016 2328 
Q 3016 3291 2770 3770 
Q 2525 4250 2034 4250 
z
M 2034 4750 
Q 2819 4750 3233 4129 
Q 3647 3509 3647 2328 
Q 3647 1150 3233 529 
Q 2819 -91 2034 -91 
Q 1250 -91 836 529 
Q 422 1150 422 2328 
Q 422 3509 836 4129 
Q 1250 4750 2034 4750 
z
" id="DejaVuSans-30" transform="scale(0.015625)"/>
        <path d="M 684 794 
L 1344 794 
L 1344 0 
L 684 0 
L 684 794 
z
" id="DejaVuSans-2e" transform="scale(0.015625)"/>
       </defs>
       <use xlink:href="#DejaVuSans-30"/>
       <use x="63.623047" xlink:href="#DejaVuSans-2e"/>
       <use x="95.410156" xlink:href="#DejaVuSans-30"/>
      </g>
     </g>
    </g>
    <g id="xtick_2">
     <g id="line2d_2">
      <path clip-path="url(#p7c2b7d0588)" d="M 94.18814 273.312 
L 94.18814 7.2 
" style="fill:none;stroke:#ffffff;stroke-linecap:round;stroke-width:0.8;"/>
     </g>
     <g id="text_2">
      <!-- 0.5 -->
      <g style="fill:#262626;" transform="translate(86.236577 287.910437)scale(0.1 -0.1)">
       <defs>
        <path d="M 691 4666 
L 3169 4666 
L 3169 4134 
L 1269 4134 
L 1269 2991 
Q 1406 3038 1543 3061 
Q 1681 3084 1819 3084 
Q 2600 3084 3056 2656 
Q 3513 2228 3513 1497 
Q 3513 744 3044 326 
Q 2575 -91 1722 -91 
Q 1428 -91 1123 -41 
Q 819 9 494 109 
L 494 744 
Q 775 591 1075 516 
Q 1375 441 1709 441 
Q 2250 441 2565 725 
Q 2881 1009 2881 1497 
Q 2881 1984 2565 2268 
Q 2250 2553 1709 2553 
Q 1456 2553 1204 2497 
Q 953 2441 691 2322 
L 691 4666 
z
" id="DejaVuSans-35" transform="scale(0.015625)"/>
       </defs>
       <use xlink:href="#DejaVuSans-30"/>
       <use x="63.623047" xlink:href="#DejaVuSans-2e"/>
       <use x="95.410156" xlink:href="#DejaVuSans-35"/>
      </g>
     </g>
    </g>
    <g id="xtick_3">
     <g id="line2d_3">
      <path clip-path="url(#p7c2b7d0588)" d="M 136.905843 273.312 
L 136.905843 7.2 
" style="fill:none;stroke:#ffffff;stroke-linecap:round;stroke-width:0.8;"/>
     </g>
     <g id="text_3">
      <!-- 1.0 -->
      <g style="fill:#262626;" transform="translate(128.954281 287.910437)scale(0.1 -0.1)">
       <defs>
        <path d="M 794 531 
L 1825 531 
L 1825 4091 
L 703 3866 
L 703 4441 
L 1819 4666 
L 2450 4666 
L 2450 531 
L 3481 531 
L 3481 0 
L 794 0 
L 794 531 
z
" id="DejaVuSans-31" transform="scale(0.015625)"/>
       </defs>
       <use xlink:href="#DejaVuSans-31"/>
       <use x="63.623047" xlink:href="#DejaVuSans-2e"/>
       <use x="95.410156" xlink:href="#DejaVuSans-30"/>
      </g>
     </g>
    </g>
    <g id="xtick_4">
     <g id="line2d_4">
      <path clip-path="url(#p7c2b7d0588)" d="M 179.623547 273.312 
L 179.623547 7.2 
" style="fill:none;stroke:#ffffff;stroke-linecap:round;stroke-width:0.8;"/>
     </g>
     <g id="text_4">
      <!-- 1.5 -->
      <g style="fill:#262626;" transform="translate(171.671984 287.910437)scale(0.1 -0.1)">
       <use xlink:href="#DejaVuSans-31"/>
       <use x="63.623047" xlink:href="#DejaVuSans-2e"/>
       <use x="95.410156" xlink:href="#DejaVuSans-35"/>
      </g>
     </g>
    </g>
    <g id="xtick_5">
     <g id="line2d_5">
      <path clip-path="url(#p7c2b7d0588)" d="M 222.34125 273.312 
L 222.34125 7.2 
" style="fill:none;stroke:#ffffff;stroke-linecap:round;stroke-width:0.8;"/>
     </g>
     <g id="text_5">
      <!-- 2.0 -->
      <g style="fill:#262626;" transform="translate(214.389687 287.910437)scale(0.1 -0.1)">
       <defs>
        <path d="M 1228 531 
L 3431 531 
L 3431 0 
L 469 0 
L 469 531 
Q 828 903 1448 1529 
Q 2069 2156 2228 2338 
Q 2531 2678 2651 2914 
Q 2772 3150 2772 3378 
Q 2772 3750 2511 3984 
Q 2250 4219 1831 4219 
Q 1534 4219 1204 4116 
Q 875 4013 500 3803 
L 500 4441 
Q 881 4594 1212 4672 
Q 1544 4750 1819 4750 
Q 2544 4750 2975 4387 
Q 3406 4025 3406 3419 
Q 3406 3131 3298 2873 
Q 3191 2616 2906 2266 
Q 2828 2175 2409 1742 
Q 1991 1309 1228 531 
z
" id="DejaVuSans-32" transform="scale(0.015625)"/>
       </defs>
       <use xlink:href="#DejaVuSans-32"/>
       <use x="63.623047" xlink:href="#DejaVuSans-2e"/>
       <use x="95.410156" xlink:href="#DejaVuSans-30"/>
      </g>
     </g>
    </g>
    <g id="xtick_6">
     <g id="line2d_6">
      <path clip-path="url(#p7c2b7d0588)" d="M 265.058953 273.312 
L 265.058953 7.2 
" style="fill:none;stroke:#ffffff;stroke-linecap:round;stroke-width:0.8;"/>
     </g>
     <g id="text_6">
      <!-- 2.5 -->
      <g style="fill:#262626;" transform="translate(257.107391 287.910437)scale(0.1 -0.1)">
       <use xlink:href="#DejaVuSans-32"/>
       <use x="63.623047" xlink:href="#DejaVuSans-2e"/>
       <use x="95.410156" xlink:href="#DejaVuSans-35"/>
      </g>
     </g>
    </g>
    <g id="xtick_7">
     <g id="line2d_7">
      <path clip-path="url(#p7c2b7d0588)" d="M 307.776657 273.312 
L 307.776657 7.2 
" style="fill:none;stroke:#ffffff;stroke-linecap:round;stroke-width:0.8;"/>
     </g>
     <g id="text_7">
      <!-- 3.0 -->
      <g style="fill:#262626;" transform="translate(299.825094 287.910437)scale(0.1 -0.1)">
       <defs>
        <path d="M 2597 2516 
Q 3050 2419 3304 2112 
Q 3559 1806 3559 1356 
Q 3559 666 3084 287 
Q 2609 -91 1734 -91 
Q 1441 -91 1130 -33 
Q 819 25 488 141 
L 488 750 
Q 750 597 1062 519 
Q 1375 441 1716 441 
Q 2309 441 2620 675 
Q 2931 909 2931 1356 
Q 2931 1769 2642 2001 
Q 2353 2234 1838 2234 
L 1294 2234 
L 1294 2753 
L 1863 2753 
Q 2328 2753 2575 2939 
Q 2822 3125 2822 3475 
Q 2822 3834 2567 4026 
Q 2313 4219 1838 4219 
Q 1578 4219 1281 4162 
Q 984 4106 628 3988 
L 628 4550 
Q 988 4650 1302 4700 
Q 1616 4750 1894 4750 
Q 2613 4750 3031 4423 
Q 3450 4097 3450 3541 
Q 3450 3153 3228 2886 
Q 3006 2619 2597 2516 
z
" id="DejaVuSans-33" transform="scale(0.015625)"/>
       </defs>
       <use xlink:href="#DejaVuSans-33"/>
       <use x="63.623047" xlink:href="#DejaVuSans-2e"/>
       <use x="95.410156" xlink:href="#DejaVuSans-30"/>
      </g>
     </g>
    </g>
    <g id="xtick_8">
     <g id="line2d_8">
      <path clip-path="url(#p7c2b7d0588)" d="M 350.49436 273.312 
L 350.49436 7.2 
" style="fill:none;stroke:#ffffff;stroke-linecap:round;stroke-width:0.8;"/>
     </g>
     <g id="text_8">
      <!-- 3.5 -->
      <g style="fill:#262626;" transform="translate(342.542798 287.910437)scale(0.1 -0.1)">
       <use xlink:href="#DejaVuSans-33"/>
       <use x="63.623047" xlink:href="#DejaVuSans-2e"/>
       <use x="95.410156" xlink:href="#DejaVuSans-35"/>
      </g>
     </g>
    </g>
    <g id="xtick_9">
     <g id="line2d_9">
      <path clip-path="url(#p7c2b7d0588)" d="M 393.212063 273.312 
L 393.212063 7.2 
" style="fill:none;stroke:#ffffff;stroke-linecap:round;stroke-width:0.8;"/>
     </g>
     <g id="text_9">
      <!-- 4.0 -->
      <g style="fill:#262626;" transform="translate(385.260501 287.910437)scale(0.1 -0.1)">
       <defs>
        <path d="M 2419 4116 
L 825 1625 
L 2419 1625 
L 2419 4116 
z
M 2253 4666 
L 3047 4666 
L 3047 1625 
L 3713 1625 
L 3713 1100 
L 3047 1100 
L 3047 0 
L 2419 0 
L 2419 1100 
L 313 1100 
L 313 1709 
L 2253 4666 
z
" id="DejaVuSans-34" transform="scale(0.015625)"/>
       </defs>
       <use xlink:href="#DejaVuSans-34"/>
       <use x="63.623047" xlink:href="#DejaVuSans-2e"/>
       <use x="95.410156" xlink:href="#DejaVuSans-30"/>
      </g>
     </g>
    </g>
    <g id="text_10">
     <!-- x -->
     <g style="fill:#262626;" transform="translate(219.381875 301.588562)scale(0.1 -0.1)">
      <defs>
       <path d="M 3513 3500 
L 2247 1797 
L 3578 0 
L 2900 0 
L 1881 1375 
L 863 0 
L 184 0 
L 1544 1831 
L 300 3500 
L 978 3500 
L 1906 2253 
L 2834 3500 
L 3513 3500 
z
" id="DejaVuSans-78" transform="scale(0.015625)"/>
      </defs>
      <use xlink:href="#DejaVuSans-78"/>
     </g>
    </g>
   </g>
   <g id="matplotlib.axis_2">
    <g id="ytick_1">
     <g id="line2d_10">
      <path clip-path="url(#p7c2b7d0588)" d="M 43.78125 261.216045 
L 400.90125 261.216045 
" style="fill:none;stroke:#ffffff;stroke-linecap:round;stroke-width:0.8;"/>
     </g>
     <g id="text_11">
      <!-- 0.0 -->
      <g style="fill:#262626;" transform="translate(20.878125 265.015264)scale(0.1 -0.1)">
       <use xlink:href="#DejaVuSans-30"/>
       <use x="63.623047" xlink:href="#DejaVuSans-2e"/>
       <use x="95.410156" xlink:href="#DejaVuSans-30"/>
      </g>
     </g>
    </g>
    <g id="ytick_2">
     <g id="line2d_11">
      <path clip-path="url(#p7c2b7d0588)" d="M 43.78125 207.743445 
L 400.90125 207.743445 
" style="fill:none;stroke:#ffffff;stroke-linecap:round;stroke-width:0.8;"/>
     </g>
     <g id="text_12">
      <!-- 0.2 -->
      <g style="fill:#262626;" transform="translate(20.878125 211.542664)scale(0.1 -0.1)">
       <use xlink:href="#DejaVuSans-30"/>
       <use x="63.623047" xlink:href="#DejaVuSans-2e"/>
       <use x="95.410156" xlink:href="#DejaVuSans-32"/>
      </g>
     </g>
    </g>
    <g id="ytick_3">
     <g id="line2d_12">
      <path clip-path="url(#p7c2b7d0588)" d="M 43.78125 154.270846 
L 400.90125 154.270846 
" style="fill:none;stroke:#ffffff;stroke-linecap:round;stroke-width:0.8;"/>
     </g>
     <g id="text_13">
      <!-- 0.4 -->
      <g style="fill:#262626;" transform="translate(20.878125 158.070064)scale(0.1 -0.1)">
       <use xlink:href="#DejaVuSans-30"/>
       <use x="63.623047" xlink:href="#DejaVuSans-2e"/>
       <use x="95.410156" xlink:href="#DejaVuSans-34"/>
      </g>
     </g>
    </g>
    <g id="ytick_4">
     <g id="line2d_13">
      <path clip-path="url(#p7c2b7d0588)" d="M 43.78125 100.798246 
L 400.90125 100.798246 
" style="fill:none;stroke:#ffffff;stroke-linecap:round;stroke-width:0.8;"/>
     </g>
     <g id="text_14">
      <!-- 0.6 -->
      <g style="fill:#262626;" transform="translate(20.878125 104.597465)scale(0.1 -0.1)">
       <defs>
        <path d="M 2113 2584 
Q 1688 2584 1439 2293 
Q 1191 2003 1191 1497 
Q 1191 994 1439 701 
Q 1688 409 2113 409 
Q 2538 409 2786 701 
Q 3034 994 3034 1497 
Q 3034 2003 2786 2293 
Q 2538 2584 2113 2584 
z
M 3366 4563 
L 3366 3988 
Q 3128 4100 2886 4159 
Q 2644 4219 2406 4219 
Q 1781 4219 1451 3797 
Q 1122 3375 1075 2522 
Q 1259 2794 1537 2939 
Q 1816 3084 2150 3084 
Q 2853 3084 3261 2657 
Q 3669 2231 3669 1497 
Q 3669 778 3244 343 
Q 2819 -91 2113 -91 
Q 1303 -91 875 529 
Q 447 1150 447 2328 
Q 447 3434 972 4092 
Q 1497 4750 2381 4750 
Q 2619 4750 2861 4703 
Q 3103 4656 3366 4563 
z
" id="DejaVuSans-36" transform="scale(0.015625)"/>
       </defs>
       <use xlink:href="#DejaVuSans-30"/>
       <use x="63.623047" xlink:href="#DejaVuSans-2e"/>
       <use x="95.410156" xlink:href="#DejaVuSans-36"/>
      </g>
     </g>
    </g>
    <g id="ytick_5">
     <g id="line2d_14">
      <path clip-path="url(#p7c2b7d0588)" d="M 43.78125 47.325646 
L 400.90125 47.325646 
" style="fill:none;stroke:#ffffff;stroke-linecap:round;stroke-width:0.8;"/>
     </g>
     <g id="text_15">
      <!-- 0.8 -->
      <g style="fill:#262626;" transform="translate(20.878125 51.124865)scale(0.1 -0.1)">
       <defs>
        <path d="M 2034 2216 
Q 1584 2216 1326 1975 
Q 1069 1734 1069 1313 
Q 1069 891 1326 650 
Q 1584 409 2034 409 
Q 2484 409 2743 651 
Q 3003 894 3003 1313 
Q 3003 1734 2745 1975 
Q 2488 2216 2034 2216 
z
M 1403 2484 
Q 997 2584 770 2862 
Q 544 3141 544 3541 
Q 544 4100 942 4425 
Q 1341 4750 2034 4750 
Q 2731 4750 3128 4425 
Q 3525 4100 3525 3541 
Q 3525 3141 3298 2862 
Q 3072 2584 2669 2484 
Q 3125 2378 3379 2068 
Q 3634 1759 3634 1313 
Q 3634 634 3220 271 
Q 2806 -91 2034 -91 
Q 1263 -91 848 271 
Q 434 634 434 1313 
Q 434 1759 690 2068 
Q 947 2378 1403 2484 
z
M 1172 3481 
Q 1172 3119 1398 2916 
Q 1625 2713 2034 2713 
Q 2441 2713 2670 2916 
Q 2900 3119 2900 3481 
Q 2900 3844 2670 4047 
Q 2441 4250 2034 4250 
Q 1625 4250 1398 4047 
Q 1172 3844 1172 3481 
z
" id="DejaVuSans-38" transform="scale(0.015625)"/>
       </defs>
       <use xlink:href="#DejaVuSans-30"/>
       <use x="63.623047" xlink:href="#DejaVuSans-2e"/>
       <use x="95.410156" xlink:href="#DejaVuSans-38"/>
      </g>
     </g>
    </g>
    <g id="text_16">
     <!-- y1 -->
     <g style="fill:#262626;" transform="translate(14.798438 146.396625)rotate(-90)scale(0.1 -0.1)">
      <defs>
       <path d="M 2059 -325 
Q 1816 -950 1584 -1140 
Q 1353 -1331 966 -1331 
L 506 -1331 
L 506 -850 
L 844 -850 
Q 1081 -850 1212 -737 
Q 1344 -625 1503 -206 
L 1606 56 
L 191 3500 
L 800 3500 
L 1894 763 
L 2988 3500 
L 3597 3500 
L 2059 -325 
z
" id="DejaVuSans-79" transform="scale(0.015625)"/>
      </defs>
      <use xlink:href="#DejaVuSans-79"/>
      <use x="59.179688" xlink:href="#DejaVuSans-31"/>
     </g>
    </g>
   </g>
   <g id="PathCollection_1">
    <defs>
     <path d="M 0 3 
C 0.795609 3 1.55874 2.683901 2.12132 2.12132 
C 2.683901 1.55874 3 0.795609 3 0 
C 3 -0.795609 2.683901 -1.55874 2.12132 -2.12132 
C 1.55874 -2.683901 0.795609 -3 0 -3 
C -0.795609 -3 -1.55874 -2.683901 -2.12132 -2.12132 
C -2.683901 -1.55874 -3 -0.795609 -3 0 
C -3 0.795609 -2.683901 1.55874 -2.12132 2.12132 
C -1.55874 2.683901 -0.795609 3 0 3 
z
" id="m6156db230b" style="stroke:#ffffff;stroke-width:0.48;"/>
    </defs>
    <g clip-path="url(#p7c2b7d0588)">
     <use style="fill:#5302a3;stroke:#ffffff;stroke-width:0.48;" x="60.013977" xlink:href="#m6156db230b" y="19.296"/>
     <use style="fill:#5302a3;stroke:#ffffff;stroke-width:0.48;" x="68.557518" xlink:href="#m6156db230b" y="42.317736"/>
     <use style="fill:#5302a3;stroke:#ffffff;stroke-width:0.48;" x="77.101059" xlink:href="#m6156db230b" y="63.148664"/>
     <use style="fill:#5302a3;stroke:#ffffff;stroke-width:0.48;" x="85.644599" xlink:href="#m6156db230b" y="81.997268"/>
     <use style="fill:#5302a3;stroke:#ffffff;stroke-width:0.48;" x="94.18814" xlink:href="#m6156db230b" y="99.052189"/>
     <use style="fill:#5302a3;stroke:#ffffff;stroke-width:0.48;" x="102.731681" xlink:href="#m6156db230b" y="114.48412"/>
     <use style="fill:#5302a3;stroke:#ffffff;stroke-width:0.48;" x="111.275221" xlink:href="#m6156db230b" y="128.447509"/>
     <use style="fill:#5302a3;stroke:#ffffff;stroke-width:0.48;" x="119.818762" xlink:href="#m6156db230b" y="141.082106"/>
     <use style="fill:#5302a3;stroke:#ffffff;stroke-width:0.48;" x="128.362303" xlink:href="#m6156db230b" y="152.514362"/>
     <use style="fill:#5302a3;stroke:#ffffff;stroke-width:0.48;" x="136.905843" xlink:href="#m6156db230b" y="162.858695"/>
     <use style="fill:#5302a3;stroke:#ffffff;stroke-width:0.48;" x="145.449384" xlink:href="#m6156db230b" y="172.218634"/>
     <use style="fill:#5302a3;stroke:#ffffff;stroke-width:0.48;" x="153.992925" xlink:href="#m6156db230b" y="180.687857"/>
     <use style="fill:#5302a3;stroke:#ffffff;stroke-width:0.48;" x="162.536465" xlink:href="#m6156db230b" y="188.351128"/>
     <use style="fill:#5302a3;stroke:#ffffff;stroke-width:0.48;" x="171.080006" xlink:href="#m6156db230b" y="195.285141"/>
     <use style="fill:#5302a3;stroke:#ffffff;stroke-width:0.48;" x="179.623547" xlink:href="#m6156db230b" y="201.559296"/>
     <use style="fill:#5302a3;stroke:#ffffff;stroke-width:0.48;" x="188.167087" xlink:href="#m6156db230b" y="207.236387"/>
     <use style="fill:#5302a3;stroke:#ffffff;stroke-width:0.48;" x="196.710628" xlink:href="#m6156db230b" y="212.37323"/>
     <use style="fill:#5302a3;stroke:#ffffff;stroke-width:0.48;" x="205.254169" xlink:href="#m6156db230b" y="217.021239"/>
     <use style="fill:#5302a3;stroke:#ffffff;stroke-width:0.48;" x="213.797709" xlink:href="#m6156db230b" y="221.22693"/>
     <use style="fill:#5302a3;stroke:#ffffff;stroke-width:0.48;" x="222.34125" xlink:href="#m6156db230b" y="225.032398"/>
     <use style="fill:#5302a3;stroke:#ffffff;stroke-width:0.48;" x="230.884791" xlink:href="#m6156db230b" y="228.475727"/>
     <use style="fill:#5302a3;stroke:#ffffff;stroke-width:0.48;" x="239.428331" xlink:href="#m6156db230b" y="231.59138"/>
     <use style="fill:#5302a3;stroke:#ffffff;stroke-width:0.48;" x="247.971872" xlink:href="#m6156db230b" y="234.41054"/>
     <use style="fill:#5302a3;stroke:#ffffff;stroke-width:0.48;" x="256.515413" xlink:href="#m6156db230b" y="236.961421"/>
     <use style="fill:#5302a3;stroke:#ffffff;stroke-width:0.48;" x="265.058953" xlink:href="#m6156db230b" y="239.269554"/>
     <use style="fill:#5302a3;stroke:#ffffff;stroke-width:0.48;" x="273.602494" xlink:href="#m6156db230b" y="241.358038"/>
     <use style="fill:#5302a3;stroke:#ffffff;stroke-width:0.48;" x="282.146035" xlink:href="#m6156db230b" y="243.247778"/>
     <use style="fill:#5302a3;stroke:#ffffff;stroke-width:0.48;" x="290.689575" xlink:href="#m6156db230b" y="244.957684"/>
     <use style="fill:#5302a3;stroke:#ffffff;stroke-width:0.48;" x="299.233116" xlink:href="#m6156db230b" y="246.504872"/>
     <use style="fill:#5302a3;stroke:#ffffff;stroke-width:0.48;" x="307.776657" xlink:href="#m6156db230b" y="247.904825"/>
     <use style="fill:#5302a3;stroke:#ffffff;stroke-width:0.48;" x="316.320197" xlink:href="#m6156db230b" y="249.171555"/>
     <use style="fill:#5302a3;stroke:#ffffff;stroke-width:0.48;" x="324.863738" xlink:href="#m6156db230b" y="250.31774"/>
     <use style="fill:#5302a3;stroke:#ffffff;stroke-width:0.48;" x="333.407279" xlink:href="#m6156db230b" y="251.354851"/>
     <use style="fill:#5302a3;stroke:#ffffff;stroke-width:0.48;" x="341.950819" xlink:href="#m6156db230b" y="252.293267"/>
     <use style="fill:#5302a3;stroke:#ffffff;stroke-width:0.48;" x="350.49436" xlink:href="#m6156db230b" y="253.142382"/>
     <use style="fill:#5302a3;stroke:#ffffff;stroke-width:0.48;" x="359.037901" xlink:href="#m6156db230b" y="253.910693"/>
     <use style="fill:#5302a3;stroke:#ffffff;stroke-width:0.48;" x="367.581441" xlink:href="#m6156db230b" y="254.605889"/>
     <use style="fill:#5302a3;stroke:#ffffff;stroke-width:0.48;" x="376.124982" xlink:href="#m6156db230b" y="255.234928"/>
     <use style="fill:#5302a3;stroke:#ffffff;stroke-width:0.48;" x="384.668523" xlink:href="#m6156db230b" y="255.804107"/>
    </g>
   </g>
   <g id="PathCollection_2">
    <defs>
     <path d="M 0 3 
C 0.795609 3 1.55874 2.683901 2.12132 2.12132 
C 2.683901 1.55874 3 0.795609 3 0 
C 3 -0.795609 2.683901 -1.55874 2.12132 -2.12132 
C 1.55874 -2.683901 0.795609 -3 0 -3 
C -0.795609 -3 -1.55874 -2.683901 -2.12132 -2.12132 
C -2.683901 -1.55874 -3 -0.795609 -3 0 
C -3 0.795609 -2.683901 1.55874 -2.12132 2.12132 
C -1.55874 2.683901 -0.795609 3 0 3 
z
" id="mdcc1891898" style="stroke:#ffffff;stroke-width:0.48;"/>
    </defs>
    <g clip-path="url(#p7c2b7d0588)">
     <use style="fill:#8b0aa5;stroke:#ffffff;stroke-width:0.48;" x="60.013977" xlink:href="#mdcc1891898" y="42.317736"/>
     <use style="fill:#8b0aa5;stroke:#ffffff;stroke-width:0.48;" x="68.557518" xlink:href="#mdcc1891898" y="81.997268"/>
     <use style="fill:#8b0aa5;stroke:#ffffff;stroke-width:0.48;" x="77.101059" xlink:href="#mdcc1891898" y="114.48412"/>
     <use style="fill:#8b0aa5;stroke:#ffffff;stroke-width:0.48;" x="85.644599" xlink:href="#mdcc1891898" y="141.082106"/>
     <use style="fill:#8b0aa5;stroke:#ffffff;stroke-width:0.48;" x="94.18814" xlink:href="#mdcc1891898" y="162.858695"/>
     <use style="fill:#8b0aa5;stroke:#ffffff;stroke-width:0.48;" x="102.731681" xlink:href="#mdcc1891898" y="180.687857"/>
     <use style="fill:#8b0aa5;stroke:#ffffff;stroke-width:0.48;" x="111.275221" xlink:href="#mdcc1891898" y="195.285141"/>
     <use style="fill:#8b0aa5;stroke:#ffffff;stroke-width:0.48;" x="119.818762" xlink:href="#mdcc1891898" y="207.236387"/>
     <use style="fill:#8b0aa5;stroke:#ffffff;stroke-width:0.48;" x="128.362303" xlink:href="#mdcc1891898" y="217.021239"/>
     <use style="fill:#8b0aa5;stroke:#ffffff;stroke-width:0.48;" x="136.905843" xlink:href="#mdcc1891898" y="225.032398"/>
     <use style="fill:#8b0aa5;stroke:#ffffff;stroke-width:0.48;" x="145.449384" xlink:href="#mdcc1891898" y="231.59138"/>
     <use style="fill:#8b0aa5;stroke:#ffffff;stroke-width:0.48;" x="153.992925" xlink:href="#mdcc1891898" y="236.961421"/>
     <use style="fill:#8b0aa5;stroke:#ffffff;stroke-width:0.48;" x="162.536465" xlink:href="#mdcc1891898" y="241.358038"/>
     <use style="fill:#8b0aa5;stroke:#ffffff;stroke-width:0.48;" x="171.080006" xlink:href="#mdcc1891898" y="244.957684"/>
     <use style="fill:#8b0aa5;stroke:#ffffff;stroke-width:0.48;" x="179.623547" xlink:href="#mdcc1891898" y="247.904825"/>
     <use style="fill:#8b0aa5;stroke:#ffffff;stroke-width:0.48;" x="188.167087" xlink:href="#mdcc1891898" y="250.31774"/>
     <use style="fill:#8b0aa5;stroke:#ffffff;stroke-width:0.48;" x="196.710628" xlink:href="#mdcc1891898" y="252.293267"/>
     <use style="fill:#8b0aa5;stroke:#ffffff;stroke-width:0.48;" x="205.254169" xlink:href="#mdcc1891898" y="253.910693"/>
     <use style="fill:#8b0aa5;stroke:#ffffff;stroke-width:0.48;" x="213.797709" xlink:href="#mdcc1891898" y="255.234928"/>
     <use style="fill:#8b0aa5;stroke:#ffffff;stroke-width:0.48;" x="222.34125" xlink:href="#mdcc1891898" y="256.319121"/>
     <use style="fill:#8b0aa5;stroke:#ffffff;stroke-width:0.48;" x="230.884791" xlink:href="#mdcc1891898" y="257.206783"/>
     <use style="fill:#8b0aa5;stroke:#ffffff;stroke-width:0.48;" x="239.428331" xlink:href="#mdcc1891898" y="257.933538"/>
     <use style="fill:#8b0aa5;stroke:#ffffff;stroke-width:0.48;" x="247.971872" xlink:href="#mdcc1891898" y="258.528556"/>
     <use style="fill:#8b0aa5;stroke:#ffffff;stroke-width:0.48;" x="256.515413" xlink:href="#mdcc1891898" y="259.015715"/>
     <use style="fill:#8b0aa5;stroke:#ffffff;stroke-width:0.48;" x="265.058953" xlink:href="#mdcc1891898" y="259.414567"/>
     <use style="fill:#8b0aa5;stroke:#ffffff;stroke-width:0.48;" x="273.602494" xlink:href="#mdcc1891898" y="259.74112"/>
     <use style="fill:#8b0aa5;stroke:#ffffff;stroke-width:0.48;" x="282.146035" xlink:href="#mdcc1891898" y="260.008478"/>
     <use style="fill:#8b0aa5;stroke:#ffffff;stroke-width:0.48;" x="290.689575" xlink:href="#mdcc1891898" y="260.227373"/>
     <use style="fill:#8b0aa5;stroke:#ffffff;stroke-width:0.48;" x="299.233116" xlink:href="#mdcc1891898" y="260.406589"/>
     <use style="fill:#8b0aa5;stroke:#ffffff;stroke-width:0.48;" x="307.776657" xlink:href="#mdcc1891898" y="260.553318"/>
     <use style="fill:#8b0aa5;stroke:#ffffff;stroke-width:0.48;" x="316.320197" xlink:href="#mdcc1891898" y="260.67345"/>
     <use style="fill:#8b0aa5;stroke:#ffffff;stroke-width:0.48;" x="324.863738" xlink:href="#mdcc1891898" y="260.771806"/>
     <use style="fill:#8b0aa5;stroke:#ffffff;stroke-width:0.48;" x="333.407279" xlink:href="#mdcc1891898" y="260.852333"/>
     <use style="fill:#8b0aa5;stroke:#ffffff;stroke-width:0.48;" x="341.950819" xlink:href="#mdcc1891898" y="260.918263"/>
     <use style="fill:#8b0aa5;stroke:#ffffff;stroke-width:0.48;" x="350.49436" xlink:href="#mdcc1891898" y="260.972241"/>
     <use style="fill:#8b0aa5;stroke:#ffffff;stroke-width:0.48;" x="359.037901" xlink:href="#mdcc1891898" y="261.016435"/>
     <use style="fill:#8b0aa5;stroke:#ffffff;stroke-width:0.48;" x="367.581441" xlink:href="#mdcc1891898" y="261.052619"/>
     <use style="fill:#8b0aa5;stroke:#ffffff;stroke-width:0.48;" x="376.124982" xlink:href="#mdcc1891898" y="261.082243"/>
     <use style="fill:#8b0aa5;stroke:#ffffff;stroke-width:0.48;" x="384.668523" xlink:href="#mdcc1891898" y="261.106497"/>
    </g>
   </g>
   <g id="PathCollection_3">
    <defs>
     <path d="M 0 3 
C 0.795609 3 1.55874 2.683901 2.12132 2.12132 
C 2.683901 1.55874 3 0.795609 3 0 
C 3 -0.795609 2.683901 -1.55874 2.12132 -2.12132 
C 1.55874 -2.683901 0.795609 -3 0 -3 
C -0.795609 -3 -1.55874 -2.683901 -2.12132 -2.12132 
C -2.683901 -1.55874 -3 -0.795609 -3 0 
C -3 0.795609 -2.683901 1.55874 -2.12132 2.12132 
C -1.55874 2.683901 -0.795609 3 0 3 
z
" id="m36800d27c6" style="stroke:#ffffff;stroke-width:0.48;"/>
    </defs>
    <g clip-path="url(#p7c2b7d0588)">
     <use style="fill:#b83289;stroke:#ffffff;stroke-width:0.48;" x="60.013977" xlink:href="#m36800d27c6" y="63.148664"/>
     <use style="fill:#b83289;stroke:#ffffff;stroke-width:0.48;" x="68.557518" xlink:href="#m36800d27c6" y="114.48412"/>
     <use style="fill:#b83289;stroke:#ffffff;stroke-width:0.48;" x="77.101059" xlink:href="#m36800d27c6" y="152.514362"/>
     <use style="fill:#b83289;stroke:#ffffff;stroke-width:0.48;" x="85.644599" xlink:href="#m36800d27c6" y="180.687857"/>
     <use style="fill:#b83289;stroke:#ffffff;stroke-width:0.48;" x="94.18814" xlink:href="#m36800d27c6" y="201.559296"/>
     <use style="fill:#b83289;stroke:#ffffff;stroke-width:0.48;" x="102.731681" xlink:href="#m36800d27c6" y="217.021239"/>
     <use style="fill:#b83289;stroke:#ffffff;stroke-width:0.48;" x="111.275221" xlink:href="#m36800d27c6" y="228.475727"/>
     <use style="fill:#b83289;stroke:#ffffff;stroke-width:0.48;" x="119.818762" xlink:href="#m36800d27c6" y="236.961421"/>
     <use style="fill:#b83289;stroke:#ffffff;stroke-width:0.48;" x="128.362303" xlink:href="#m36800d27c6" y="243.247778"/>
     <use style="fill:#b83289;stroke:#ffffff;stroke-width:0.48;" x="136.905843" xlink:href="#m36800d27c6" y="247.904825"/>
     <use style="fill:#b83289;stroke:#ffffff;stroke-width:0.48;" x="145.449384" xlink:href="#m36800d27c6" y="251.354851"/>
     <use style="fill:#b83289;stroke:#ffffff;stroke-width:0.48;" x="153.992925" xlink:href="#m36800d27c6" y="253.910693"/>
     <use style="fill:#b83289;stroke:#ffffff;stroke-width:0.48;" x="162.536465" xlink:href="#m36800d27c6" y="255.804107"/>
     <use style="fill:#b83289;stroke:#ffffff;stroke-width:0.48;" x="171.080006" xlink:href="#m36800d27c6" y="257.206783"/>
     <use style="fill:#b83289;stroke:#ffffff;stroke-width:0.48;" x="179.623547" xlink:href="#m36800d27c6" y="258.24591"/>
     <use style="fill:#b83289;stroke:#ffffff;stroke-width:0.48;" x="188.167087" xlink:href="#m36800d27c6" y="259.015715"/>
     <use style="fill:#b83289;stroke:#ffffff;stroke-width:0.48;" x="196.710628" xlink:href="#m36800d27c6" y="259.586"/>
     <use style="fill:#b83289;stroke:#ffffff;stroke-width:0.48;" x="205.254169" xlink:href="#m36800d27c6" y="260.008478"/>
     <use style="fill:#b83289;stroke:#ffffff;stroke-width:0.48;" x="213.797709" xlink:href="#m36800d27c6" y="260.321458"/>
     <use style="fill:#b83289;stroke:#ffffff;stroke-width:0.48;" x="222.34125" xlink:href="#m36800d27c6" y="260.553318"/>
     <use style="fill:#b83289;stroke:#ffffff;stroke-width:0.48;" x="230.884791" xlink:href="#m36800d27c6" y="260.725085"/>
     <use style="fill:#b83289;stroke:#ffffff;stroke-width:0.48;" x="239.428331" xlink:href="#m36800d27c6" y="260.852333"/>
     <use style="fill:#b83289;stroke:#ffffff;stroke-width:0.48;" x="247.971872" xlink:href="#m36800d27c6" y="260.9466"/>
     <use style="fill:#b83289;stroke:#ffffff;stroke-width:0.48;" x="256.515413" xlink:href="#m36800d27c6" y="261.016435"/>
     <use style="fill:#b83289;stroke:#ffffff;stroke-width:0.48;" x="265.058953" xlink:href="#m36800d27c6" y="261.068171"/>
     <use style="fill:#b83289;stroke:#ffffff;stroke-width:0.48;" x="273.602494" xlink:href="#m36800d27c6" y="261.106497"/>
     <use style="fill:#b83289;stroke:#ffffff;stroke-width:0.48;" x="282.146035" xlink:href="#m36800d27c6" y="261.13489"/>
     <use style="fill:#b83289;stroke:#ffffff;stroke-width:0.48;" x="290.689575" xlink:href="#m36800d27c6" y="261.155924"/>
     <use style="fill:#b83289;stroke:#ffffff;stroke-width:0.48;" x="299.233116" xlink:href="#m36800d27c6" y="261.171506"/>
     <use style="fill:#b83289;stroke:#ffffff;stroke-width:0.48;" x="307.776657" xlink:href="#m36800d27c6" y="261.18305"/>
     <use style="fill:#b83289;stroke:#ffffff;stroke-width:0.48;" x="316.320197" xlink:href="#m36800d27c6" y="261.191601"/>
     <use style="fill:#b83289;stroke:#ffffff;stroke-width:0.48;" x="324.863738" xlink:href="#m36800d27c6" y="261.197937"/>
     <use style="fill:#b83289;stroke:#ffffff;stroke-width:0.48;" x="333.407279" xlink:href="#m36800d27c6" y="261.20263"/>
     <use style="fill:#b83289;stroke:#ffffff;stroke-width:0.48;" x="341.950819" xlink:href="#m36800d27c6" y="261.206107"/>
     <use style="fill:#b83289;stroke:#ffffff;stroke-width:0.48;" x="350.49436" xlink:href="#m36800d27c6" y="261.208683"/>
     <use style="fill:#b83289;stroke:#ffffff;stroke-width:0.48;" x="359.037901" xlink:href="#m36800d27c6" y="261.210591"/>
     <use style="fill:#b83289;stroke:#ffffff;stroke-width:0.48;" x="367.581441" xlink:href="#m36800d27c6" y="261.212004"/>
     <use style="fill:#b83289;stroke:#ffffff;stroke-width:0.48;" x="376.124982" xlink:href="#m36800d27c6" y="261.213052"/>
     <use style="fill:#b83289;stroke:#ffffff;stroke-width:0.48;" x="384.668523" xlink:href="#m36800d27c6" y="261.213827"/>
    </g>
   </g>
   <g id="PathCollection_4">
    <defs>
     <path d="M 0 3 
C 0.795609 3 1.55874 2.683901 2.12132 2.12132 
C 2.683901 1.55874 3 0.795609 3 0 
C 3 -0.795609 2.683901 -1.55874 2.12132 -2.12132 
C 1.55874 -2.683901 0.795609 -3 0 -3 
C -0.795609 -3 -1.55874 -2.683901 -2.12132 -2.12132 
C -2.683901 -1.55874 -3 -0.795609 -3 0 
C -3 0.795609 -2.683901 1.55874 -2.12132 2.12132 
C -1.55874 2.683901 -0.795609 3 0 3 
z
" id="m7741829856" style="stroke:#ffffff;stroke-width:0.48;"/>
    </defs>
    <g clip-path="url(#p7c2b7d0588)">
     <use style="fill:#db5c68;stroke:#ffffff;stroke-width:0.48;" x="60.013977" xlink:href="#m7741829856" y="81.997268"/>
     <use style="fill:#db5c68;stroke:#ffffff;stroke-width:0.48;" x="68.557518" xlink:href="#m7741829856" y="141.082106"/>
     <use style="fill:#db5c68;stroke:#ffffff;stroke-width:0.48;" x="77.101059" xlink:href="#m7741829856" y="180.687857"/>
     <use style="fill:#db5c68;stroke:#ffffff;stroke-width:0.48;" x="85.644599" xlink:href="#m7741829856" y="207.236387"/>
     <use style="fill:#db5c68;stroke:#ffffff;stroke-width:0.48;" x="94.18814" xlink:href="#m7741829856" y="225.032398"/>
     <use style="fill:#db5c68;stroke:#ffffff;stroke-width:0.48;" x="102.731681" xlink:href="#m7741829856" y="236.961421"/>
     <use style="fill:#db5c68;stroke:#ffffff;stroke-width:0.48;" x="111.275221" xlink:href="#m7741829856" y="244.957684"/>
     <use style="fill:#db5c68;stroke:#ffffff;stroke-width:0.48;" x="119.818762" xlink:href="#m7741829856" y="250.31774"/>
     <use style="fill:#db5c68;stroke:#ffffff;stroke-width:0.48;" x="128.362303" xlink:href="#m7741829856" y="253.910693"/>
     <use style="fill:#db5c68;stroke:#ffffff;stroke-width:0.48;" x="136.905843" xlink:href="#m7741829856" y="256.319121"/>
     <use style="fill:#db5c68;stroke:#ffffff;stroke-width:0.48;" x="145.449384" xlink:href="#m7741829856" y="257.933538"/>
     <use style="fill:#db5c68;stroke:#ffffff;stroke-width:0.48;" x="153.992925" xlink:href="#m7741829856" y="259.015715"/>
     <use style="fill:#db5c68;stroke:#ffffff;stroke-width:0.48;" x="162.536465" xlink:href="#m7741829856" y="259.74112"/>
     <use style="fill:#db5c68;stroke:#ffffff;stroke-width:0.48;" x="171.080006" xlink:href="#m7741829856" y="260.227373"/>
     <use style="fill:#db5c68;stroke:#ffffff;stroke-width:0.48;" x="179.623547" xlink:href="#m7741829856" y="260.553318"/>
     <use style="fill:#db5c68;stroke:#ffffff;stroke-width:0.48;" x="188.167087" xlink:href="#m7741829856" y="260.771806"/>
     <use style="fill:#db5c68;stroke:#ffffff;stroke-width:0.48;" x="196.710628" xlink:href="#m7741829856" y="260.918263"/>
     <use style="fill:#db5c68;stroke:#ffffff;stroke-width:0.48;" x="205.254169" xlink:href="#m7741829856" y="261.016435"/>
     <use style="fill:#db5c68;stroke:#ffffff;stroke-width:0.48;" x="213.797709" xlink:href="#m7741829856" y="261.082243"/>
     <use style="fill:#db5c68;stroke:#ffffff;stroke-width:0.48;" x="222.34125" xlink:href="#m7741829856" y="261.126355"/>
     <use style="fill:#db5c68;stroke:#ffffff;stroke-width:0.48;" x="230.884791" xlink:href="#m7741829856" y="261.155924"/>
     <use style="fill:#db5c68;stroke:#ffffff;stroke-width:0.48;" x="239.428331" xlink:href="#m7741829856" y="261.175744"/>
     <use style="fill:#db5c68;stroke:#ffffff;stroke-width:0.48;" x="247.971872" xlink:href="#m7741829856" y="261.189031"/>
     <use style="fill:#db5c68;stroke:#ffffff;stroke-width:0.48;" x="256.515413" xlink:href="#m7741829856" y="261.197937"/>
     <use style="fill:#db5c68;stroke:#ffffff;stroke-width:0.48;" x="265.058953" xlink:href="#m7741829856" y="261.203907"/>
     <use style="fill:#db5c68;stroke:#ffffff;stroke-width:0.48;" x="273.602494" xlink:href="#m7741829856" y="261.207908"/>
     <use style="fill:#db5c68;stroke:#ffffff;stroke-width:0.48;" x="282.146035" xlink:href="#m7741829856" y="261.210591"/>
     <use style="fill:#db5c68;stroke:#ffffff;stroke-width:0.48;" x="290.689575" xlink:href="#m7741829856" y="261.212389"/>
     <use style="fill:#db5c68;stroke:#ffffff;stroke-width:0.48;" x="299.233116" xlink:href="#m7741829856" y="261.213594"/>
     <use style="fill:#db5c68;stroke:#ffffff;stroke-width:0.48;" x="307.776657" xlink:href="#m7741829856" y="261.214402"/>
     <use style="fill:#db5c68;stroke:#ffffff;stroke-width:0.48;" x="316.320197" xlink:href="#m7741829856" y="261.214944"/>
     <use style="fill:#db5c68;stroke:#ffffff;stroke-width:0.48;" x="324.863738" xlink:href="#m7741829856" y="261.215307"/>
     <use style="fill:#db5c68;stroke:#ffffff;stroke-width:0.48;" x="333.407279" xlink:href="#m7741829856" y="261.21555"/>
     <use style="fill:#db5c68;stroke:#ffffff;stroke-width:0.48;" x="341.950819" xlink:href="#m7741829856" y="261.215713"/>
     <use style="fill:#db5c68;stroke:#ffffff;stroke-width:0.48;" x="350.49436" xlink:href="#m7741829856" y="261.215823"/>
     <use style="fill:#db5c68;stroke:#ffffff;stroke-width:0.48;" x="359.037901" xlink:href="#m7741829856" y="261.215896"/>
     <use style="fill:#db5c68;stroke:#ffffff;stroke-width:0.48;" x="367.581441" xlink:href="#m7741829856" y="261.215945"/>
     <use style="fill:#db5c68;stroke:#ffffff;stroke-width:0.48;" x="376.124982" xlink:href="#m7741829856" y="261.215978"/>
     <use style="fill:#db5c68;stroke:#ffffff;stroke-width:0.48;" x="384.668523" xlink:href="#m7741829856" y="261.216"/>
    </g>
   </g>
   <g id="patch_3">
    <path d="M 43.78125 273.312 
L 43.78125 7.2 
" style="fill:none;stroke:#ffffff;stroke-linecap:square;stroke-linejoin:miter;stroke-width:0.8;"/>
   </g>
   <g id="patch_4">
    <path d="M 400.90125 273.312 
L 400.90125 7.2 
" style="fill:none;stroke:#ffffff;stroke-linecap:square;stroke-linejoin:miter;stroke-width:0.8;"/>
   </g>
   <g id="patch_5">
    <path d="M 43.78125 273.312 
L 400.90125 273.312 
" style="fill:none;stroke:#ffffff;stroke-linecap:square;stroke-linejoin:miter;stroke-width:0.8;"/>
   </g>
   <g id="patch_6">
    <path d="M 43.78125 7.2 
L 400.90125 7.2 
" style="fill:none;stroke:#ffffff;stroke-linecap:square;stroke-linejoin:miter;stroke-width:0.8;"/>
   </g>
   <g id="legend_1">
    <g id="patch_7">
     <path d="M 344.380938 73.9125 
L 393.90125 73.9125 
Q 395.90125 73.9125 395.90125 71.9125 
L 395.90125 14.2 
Q 395.90125 12.2 393.90125 12.2 
L 344.380938 12.2 
Q 342.380938 12.2 342.380938 14.2 
L 342.380938 71.9125 
Q 342.380938 73.9125 344.380938 73.9125 
z
" style="fill:#eaeaf2;opacity:0.8;stroke:#cccccc;stroke-linejoin:miter;"/>
    </g>
    <g id="PathCollection_5">
     <g>
      <use style="fill:#5302a3;stroke:#ffffff;stroke-width:0.48;" x="356.380938" xlink:href="#m6156db230b" y="21.173437"/>
     </g>
    </g>
    <g id="text_17">
     <!-- i=1 -->
     <g style="fill:#262626;" transform="translate(374.380938 23.798437)scale(0.1 -0.1)">
      <defs>
       <path d="M 603 3500 
L 1178 3500 
L 1178 0 
L 603 0 
L 603 3500 
z
M 603 4863 
L 1178 4863 
L 1178 4134 
L 603 4134 
L 603 4863 
z
" id="DejaVuSans-69" transform="scale(0.015625)"/>
       <path d="M 678 2906 
L 4684 2906 
L 4684 2381 
L 678 2381 
L 678 2906 
z
M 678 1631 
L 4684 1631 
L 4684 1100 
L 678 1100 
L 678 1631 
z
" id="DejaVuSans-3d" transform="scale(0.015625)"/>
      </defs>
      <use xlink:href="#DejaVuSans-69"/>
      <use x="27.783203" xlink:href="#DejaVuSans-3d"/>
      <use x="111.572266" xlink:href="#DejaVuSans-31"/>
     </g>
    </g>
    <g id="PathCollection_6">
     <g>
      <use style="fill:#8b0aa5;stroke:#ffffff;stroke-width:0.48;" x="356.380938" xlink:href="#mdcc1891898" y="35.851562"/>
     </g>
    </g>
    <g id="text_18">
     <!-- i=2 -->
     <g style="fill:#262626;" transform="translate(374.380938 38.476562)scale(0.1 -0.1)">
      <use xlink:href="#DejaVuSans-69"/>
      <use x="27.783203" xlink:href="#DejaVuSans-3d"/>
      <use x="111.572266" xlink:href="#DejaVuSans-32"/>
     </g>
    </g>
    <g id="PathCollection_7">
     <g>
      <use style="fill:#b83289;stroke:#ffffff;stroke-width:0.48;" x="356.380938" xlink:href="#m36800d27c6" y="50.529687"/>
     </g>
    </g>
    <g id="text_19">
     <!-- i=3 -->
     <g style="fill:#262626;" transform="translate(374.380938 53.154687)scale(0.1 -0.1)">
      <use xlink:href="#DejaVuSans-69"/>
      <use x="27.783203" xlink:href="#DejaVuSans-3d"/>
      <use x="111.572266" xlink:href="#DejaVuSans-33"/>
     </g>
    </g>
    <g id="PathCollection_8">
     <g>
      <use style="fill:#db5c68;stroke:#ffffff;stroke-width:0.48;" x="356.380938" xlink:href="#m7741829856" y="65.207812"/>
     </g>
    </g>
    <g id="text_20">
     <!-- i=4 -->
     <g style="fill:#262626;" transform="translate(374.380938 67.832812)scale(0.1 -0.1)">
      <use xlink:href="#DejaVuSans-69"/>
      <use x="27.783203" xlink:href="#DejaVuSans-3d"/>
      <use x="111.572266" xlink:href="#DejaVuSans-34"/>
     </g>
    </g>
   </g>
  </g>
 </g>
 <defs>
  <clipPath id="p7c2b7d0588">
   <rect height="266.112" width="357.12" x="43.78125" y="7.2"/>
  </clipPath>
 </defs>
</svg>
