<?xml version="1.0" encoding="utf-8" standalone="no"?>
<!DOCTYPE svg PUBLIC "-//W3C//DTD SVG 1.1//EN"
  "http://www.w3.org/Graphics/SVG/1.1/DTD/svg11.dtd">
<svg height="279.99625pt" version="1.1" viewBox="0 0 712.46125 279.99625" width="712.46125pt" xmlns="http://www.w3.org/2000/svg" xmlns:xlink="http://www.w3.org/1999/xlink">
 <metadata>
  <rdf:RDF xmlns:cc="http://creativecommons.org/ns#" xmlns:dc="http://purl.org/dc/elements/1.1/" xmlns:rdf="http://www.w3.org/1999/02/22-rdf-syntax-ns#">
   <cc:Work>
    <dc:type rdf:resource="http://purl.org/dc/dcmitype/StillImage"/>
    <dc:date>2023-05-04T09:28:34.263633</dc:date>
    <dc:format>image/svg+xml</dc:format>
    <dc:creator>
     <cc:Agent>
      <dc:title>Matplotlib v3.4.3, https://matplotlib.org/</dc:title>
     </cc:Agent>
    </dc:creator>
   </cc:Work>
  </rdf:RDF>
 </metadata>
 <defs>
  <style type="text/css">*{stroke-linecap:butt;stroke-linejoin:round;}</style>
 </defs>
 <g id="figure_1">
  <g id="patch_1">
   <path d="M 0 279.99625 
L 712.46125 279.99625 
L 712.46125 0 
L 0 0 
z
" style="fill:#ffffff;"/>
  </g>
  <g id="axes_1">
   <g id="patch_2">
    <path d="M 43.78125 242.44 
L 306.06125 242.44 
L 306.06125 7.2 
L 43.78125 7.2 
z
" style="fill:#ffffff;"/>
   </g>
   <g id="PathCollection_1">
    <defs>
     <path d="M 0 3 
C 0.795609 3 1.55874 2.683901 2.12132 2.12132 
C 2.683901 1.55874 3 0.795609 3 0 
C 3 -0.795609 2.683901 -1.55874 2.12132 -2.12132 
C 1.55874 -2.683901 0.795609 -3 0 -3 
C -0.795609 -3 -1.55874 -2.683901 -2.12132 -2.12132 
C -2.683901 -1.55874 -3 -0.795609 -3 0 
C -3 0.795609 -2.683901 1.55874 -2.12132 2.12132 
C -1.55874 2.683901 -0.795609 3 0 3 
z
" id="m1d679e54d3" style="stroke:#ffffff;stroke-width:0.48;"/>
    </defs>
    <g clip-path="url(#p6c9c9bd204)">
     <use style="fill:#1f77b4;stroke:#ffffff;stroke-width:0.48;" x="55.703068" xlink:href="#m1d679e54d3" y="17.892727"/>
     <use style="fill:#1f77b4;stroke:#ffffff;stroke-width:0.48;" x="61.977709" xlink:href="#m1d679e54d3" y="38.709362"/>
     <use style="fill:#1f77b4;stroke:#ffffff;stroke-width:0.48;" x="68.25235" xlink:href="#m1d679e54d3" y="57.545032"/>
     <use style="fill:#1f77b4;stroke:#ffffff;stroke-width:0.48;" x="74.526992" xlink:href="#m1d679e54d3" y="74.588252"/>
     <use style="fill:#1f77b4;stroke:#ffffff;stroke-width:0.48;" x="80.801633" xlink:href="#m1d679e54d3" y="90.009594"/>
     <use style="fill:#1f77b4;stroke:#ffffff;stroke-width:0.48;" x="87.076274" xlink:href="#m1d679e54d3" y="103.963402"/>
     <use style="fill:#1f77b4;stroke:#ffffff;stroke-width:0.48;" x="93.350915" xlink:href="#m1d679e54d3" y="116.589329"/>
     <use style="fill:#1f77b4;stroke:#ffffff;stroke-width:0.48;" x="99.625556" xlink:href="#m1d679e54d3" y="128.01374"/>
     <use style="fill:#1f77b4;stroke:#ffffff;stroke-width:0.48;" x="105.900197" xlink:href="#m1d679e54d3" y="138.350975"/>
     <use style="fill:#1f77b4;stroke:#ffffff;stroke-width:0.48;" x="112.174839" xlink:href="#m1d679e54d3" y="147.704492"/>
     <use style="fill:#1f77b4;stroke:#ffffff;stroke-width:0.48;" x="118.44948" xlink:href="#m1d679e54d3" y="156.167904"/>
     <use style="fill:#1f77b4;stroke:#ffffff;stroke-width:0.48;" x="124.724121" xlink:href="#m1d679e54d3" y="163.825917"/>
     <use style="fill:#1f77b4;stroke:#ffffff;stroke-width:0.48;" x="130.998762" xlink:href="#m1d679e54d3" y="170.755172"/>
     <use style="fill:#1f77b4;stroke:#ffffff;stroke-width:0.48;" x="137.273403" xlink:href="#m1d679e54d3" y="177.025022"/>
     <use style="fill:#1f77b4;stroke:#ffffff;stroke-width:0.48;" x="143.548044" xlink:href="#m1d679e54d3" y="182.698217"/>
     <use style="fill:#1f77b4;stroke:#ffffff;stroke-width:0.48;" x="149.822685" xlink:href="#m1d679e54d3" y="187.831536"/>
     <use style="fill:#1f77b4;stroke:#ffffff;stroke-width:0.48;" x="156.097327" xlink:href="#m1d679e54d3" y="192.476355"/>
     <use style="fill:#1f77b4;stroke:#ffffff;stroke-width:0.48;" x="162.371968" xlink:href="#m1d679e54d3" y="196.679161"/>
     <use style="fill:#1f77b4;stroke:#ffffff;stroke-width:0.48;" x="168.646609" xlink:href="#m1d679e54d3" y="200.482017"/>
     <use style="fill:#1f77b4;stroke:#ffffff;stroke-width:0.48;" x="174.92125" xlink:href="#m1d679e54d3" y="203.922984"/>
     <use style="fill:#1f77b4;stroke:#ffffff;stroke-width:0.48;" x="181.195891" xlink:href="#m1d679e54d3" y="207.036499"/>
     <use style="fill:#1f77b4;stroke:#ffffff;stroke-width:0.48;" x="187.470532" xlink:href="#m1d679e54d3" y="209.853725"/>
     <use style="fill:#1f77b4;stroke:#ffffff;stroke-width:0.48;" x="193.745173" xlink:href="#m1d679e54d3" y="212.402855"/>
     <use style="fill:#1f77b4;stroke:#ffffff;stroke-width:0.48;" x="200.019815" xlink:href="#m1d679e54d3" y="214.709404"/>
     <use style="fill:#1f77b4;stroke:#ffffff;stroke-width:0.48;" x="206.294456" xlink:href="#m1d679e54d3" y="216.796456"/>
     <use style="fill:#1f77b4;stroke:#ffffff;stroke-width:0.48;" x="212.569097" xlink:href="#m1d679e54d3" y="218.684899"/>
     <use style="fill:#1f77b4;stroke:#ffffff;stroke-width:0.48;" x="218.843738" xlink:href="#m1d679e54d3" y="220.393632"/>
     <use style="fill:#1f77b4;stroke:#ffffff;stroke-width:0.48;" x="225.118379" xlink:href="#m1d679e54d3" y="221.939758"/>
     <use style="fill:#1f77b4;stroke:#ffffff;stroke-width:0.48;" x="231.39302" xlink:href="#m1d679e54d3" y="223.338751"/>
     <use style="fill:#1f77b4;stroke:#ffffff;stroke-width:0.48;" x="237.667661" xlink:href="#m1d679e54d3" y="224.604611"/>
     <use style="fill:#1f77b4;stroke:#ffffff;stroke-width:0.48;" x="243.942303" xlink:href="#m1d679e54d3" y="225.75001"/>
     <use style="fill:#1f77b4;stroke:#ffffff;stroke-width:0.48;" x="250.216944" xlink:href="#m1d679e54d3" y="226.786409"/>
     <use style="fill:#1f77b4;stroke:#ffffff;stroke-width:0.48;" x="256.491585" xlink:href="#m1d679e54d3" y="227.724182"/>
     <use style="fill:#1f77b4;stroke:#ffffff;stroke-width:0.48;" x="262.766226" xlink:href="#m1d679e54d3" y="228.572714"/>
     <use style="fill:#1f77b4;stroke:#ffffff;stroke-width:0.48;" x="269.040867" xlink:href="#m1d679e54d3" y="229.340497"/>
     <use style="fill:#1f77b4;stroke:#ffffff;stroke-width:0.48;" x="275.315508" xlink:href="#m1d679e54d3" y="230.035216"/>
     <use style="fill:#1f77b4;stroke:#ffffff;stroke-width:0.48;" x="281.59015" xlink:href="#m1d679e54d3" y="230.663824"/>
     <use style="fill:#1f77b4;stroke:#ffffff;stroke-width:0.48;" x="287.864791" xlink:href="#m1d679e54d3" y="231.232612"/>
     <use style="fill:#1f77b4;stroke:#ffffff;stroke-width:0.48;" x="294.139432" xlink:href="#m1d679e54d3" y="231.747273"/>
    </g>
   </g>
   <g id="matplotlib.axis_1">
    <g id="xtick_1">
     <g id="line2d_1">
      <defs>
       <path d="M 0 0 
L 0 3.5 
" id="m5142cff7cf" style="stroke:#000000;stroke-width:0.8;"/>
      </defs>
      <g>
       <use style="stroke:#000000;stroke-width:0.8;" x="49.428427" xlink:href="#m5142cff7cf" y="242.44"/>
      </g>
     </g>
     <g id="text_1">
      <!-- 0 -->
      <g transform="translate(46.247177 257.038437)scale(0.1 -0.1)">
       <defs>
        <path d="M 2034 4250 
Q 1547 4250 1301 3770 
Q 1056 3291 1056 2328 
Q 1056 1369 1301 889 
Q 1547 409 2034 409 
Q 2525 409 2770 889 
Q 3016 1369 3016 2328 
Q 3016 3291 2770 3770 
Q 2525 4250 2034 4250 
z
M 2034 4750 
Q 2819 4750 3233 4129 
Q 3647 3509 3647 2328 
Q 3647 1150 3233 529 
Q 2819 -91 2034 -91 
Q 1250 -91 836 529 
Q 422 1150 422 2328 
Q 422 3509 836 4129 
Q 1250 4750 2034 4750 
z
" id="DejaVuSans-30" transform="scale(0.015625)"/>
       </defs>
       <use xlink:href="#DejaVuSans-30"/>
      </g>
     </g>
    </g>
    <g id="xtick_2">
     <g id="line2d_2">
      <g>
       <use style="stroke:#000000;stroke-width:0.8;" x="112.174839" xlink:href="#m5142cff7cf" y="242.44"/>
      </g>
     </g>
     <g id="text_2">
      <!-- 1 -->
      <g transform="translate(108.993589 257.038437)scale(0.1 -0.1)">
       <defs>
        <path d="M 794 531 
L 1825 531 
L 1825 4091 
L 703 3866 
L 703 4441 
L 1819 4666 
L 2450 4666 
L 2450 531 
L 3481 531 
L 3481 0 
L 794 0 
L 794 531 
z
" id="DejaVuSans-31" transform="scale(0.015625)"/>
       </defs>
       <use xlink:href="#DejaVuSans-31"/>
      </g>
     </g>
    </g>
    <g id="xtick_3">
     <g id="line2d_3">
      <g>
       <use style="stroke:#000000;stroke-width:0.8;" x="174.92125" xlink:href="#m5142cff7cf" y="242.44"/>
      </g>
     </g>
     <g id="text_3">
      <!-- 2 -->
      <g transform="translate(171.74 257.038437)scale(0.1 -0.1)">
       <defs>
        <path d="M 1228 531 
L 3431 531 
L 3431 0 
L 469 0 
L 469 531 
Q 828 903 1448 1529 
Q 2069 2156 2228 2338 
Q 2531 2678 2651 2914 
Q 2772 3150 2772 3378 
Q 2772 3750 2511 3984 
Q 2250 4219 1831 4219 
Q 1534 4219 1204 4116 
Q 875 4013 500 3803 
L 500 4441 
Q 881 4594 1212 4672 
Q 1544 4750 1819 4750 
Q 2544 4750 2975 4387 
Q 3406 4025 3406 3419 
Q 3406 3131 3298 2873 
Q 3191 2616 2906 2266 
Q 2828 2175 2409 1742 
Q 1991 1309 1228 531 
z
" id="DejaVuSans-32" transform="scale(0.015625)"/>
       </defs>
       <use xlink:href="#DejaVuSans-32"/>
      </g>
     </g>
    </g>
    <g id="xtick_4">
     <g id="line2d_4">
      <g>
       <use style="stroke:#000000;stroke-width:0.8;" x="237.667661" xlink:href="#m5142cff7cf" y="242.44"/>
      </g>
     </g>
     <g id="text_4">
      <!-- 3 -->
      <g transform="translate(234.486411 257.038437)scale(0.1 -0.1)">
       <defs>
        <path d="M 2597 2516 
Q 3050 2419 3304 2112 
Q 3559 1806 3559 1356 
Q 3559 666 3084 287 
Q 2609 -91 1734 -91 
Q 1441 -91 1130 -33 
Q 819 25 488 141 
L 488 750 
Q 750 597 1062 519 
Q 1375 441 1716 441 
Q 2309 441 2620 675 
Q 2931 909 2931 1356 
Q 2931 1769 2642 2001 
Q 2353 2234 1838 2234 
L 1294 2234 
L 1294 2753 
L 1863 2753 
Q 2328 2753 2575 2939 
Q 2822 3125 2822 3475 
Q 2822 3834 2567 4026 
Q 2313 4219 1838 4219 
Q 1578 4219 1281 4162 
Q 984 4106 628 3988 
L 628 4550 
Q 988 4650 1302 4700 
Q 1616 4750 1894 4750 
Q 2613 4750 3031 4423 
Q 3450 4097 3450 3541 
Q 3450 3153 3228 2886 
Q 3006 2619 2597 2516 
z
" id="DejaVuSans-33" transform="scale(0.015625)"/>
       </defs>
       <use xlink:href="#DejaVuSans-33"/>
      </g>
     </g>
    </g>
    <g id="xtick_5">
     <g id="line2d_5">
      <g>
       <use style="stroke:#000000;stroke-width:0.8;" x="300.414073" xlink:href="#m5142cff7cf" y="242.44"/>
      </g>
     </g>
     <g id="text_5">
      <!-- 4 -->
      <g transform="translate(297.232823 257.038437)scale(0.1 -0.1)">
       <defs>
        <path d="M 2419 4116 
L 825 1625 
L 2419 1625 
L 2419 4116 
z
M 2253 4666 
L 3047 4666 
L 3047 1625 
L 3713 1625 
L 3713 1100 
L 3047 1100 
L 3047 0 
L 2419 0 
L 2419 1100 
L 313 1100 
L 313 1709 
L 2253 4666 
z
" id="DejaVuSans-34" transform="scale(0.015625)"/>
       </defs>
       <use xlink:href="#DejaVuSans-34"/>
      </g>
     </g>
    </g>
    <g id="text_6">
     <!-- x -->
     <g transform="translate(171.961875 270.716562)scale(0.1 -0.1)">
      <defs>
       <path d="M 3513 3500 
L 2247 1797 
L 3578 0 
L 2900 0 
L 1881 1375 
L 863 0 
L 184 0 
L 1544 1831 
L 300 3500 
L 978 3500 
L 1906 2253 
L 2834 3500 
L 3513 3500 
z
" id="DejaVuSans-78" transform="scale(0.015625)"/>
      </defs>
      <use xlink:href="#DejaVuSans-78"/>
     </g>
    </g>
   </g>
   <g id="matplotlib.axis_2">
    <g id="ytick_1">
     <g id="line2d_6">
      <defs>
       <path d="M 0 0 
L -3.5 0 
" id="m4dd9eaed70" style="stroke:#000000;stroke-width:0.8;"/>
      </defs>
      <g>
       <use style="stroke:#000000;stroke-width:0.8;" x="43.78125" xlink:href="#m4dd9eaed70" y="236.640837"/>
      </g>
     </g>
     <g id="text_7">
      <!-- 0.0 -->
      <g transform="translate(20.878125 240.440056)scale(0.1 -0.1)">
       <defs>
        <path d="M 684 794 
L 1344 794 
L 1344 0 
L 684 0 
L 684 794 
z
" id="DejaVuSans-2e" transform="scale(0.015625)"/>
       </defs>
       <use xlink:href="#DejaVuSans-30"/>
       <use x="63.623047" xlink:href="#DejaVuSans-2e"/>
       <use x="95.410156" xlink:href="#DejaVuSans-30"/>
      </g>
     </g>
    </g>
    <g id="ytick_2">
     <g id="line2d_7">
      <g>
       <use style="stroke:#000000;stroke-width:0.8;" x="43.78125" xlink:href="#m4dd9eaed70" y="188.290027"/>
      </g>
     </g>
     <g id="text_8">
      <!-- 0.2 -->
      <g transform="translate(20.878125 192.089246)scale(0.1 -0.1)">
       <use xlink:href="#DejaVuSans-30"/>
       <use x="63.623047" xlink:href="#DejaVuSans-2e"/>
       <use x="95.410156" xlink:href="#DejaVuSans-32"/>
      </g>
     </g>
    </g>
    <g id="ytick_3">
     <g id="line2d_8">
      <g>
       <use style="stroke:#000000;stroke-width:0.8;" x="43.78125" xlink:href="#m4dd9eaed70" y="139.939217"/>
      </g>
     </g>
     <g id="text_9">
      <!-- 0.4 -->
      <g transform="translate(20.878125 143.738436)scale(0.1 -0.1)">
       <use xlink:href="#DejaVuSans-30"/>
       <use x="63.623047" xlink:href="#DejaVuSans-2e"/>
       <use x="95.410156" xlink:href="#DejaVuSans-34"/>
      </g>
     </g>
    </g>
    <g id="ytick_4">
     <g id="line2d_9">
      <g>
       <use style="stroke:#000000;stroke-width:0.8;" x="43.78125" xlink:href="#m4dd9eaed70" y="91.588407"/>
      </g>
     </g>
     <g id="text_10">
      <!-- 0.6 -->
      <g transform="translate(20.878125 95.387626)scale(0.1 -0.1)">
       <defs>
        <path d="M 2113 2584 
Q 1688 2584 1439 2293 
Q 1191 2003 1191 1497 
Q 1191 994 1439 701 
Q 1688 409 2113 409 
Q 2538 409 2786 701 
Q 3034 994 3034 1497 
Q 3034 2003 2786 2293 
Q 2538 2584 2113 2584 
z
M 3366 4563 
L 3366 3988 
Q 3128 4100 2886 4159 
Q 2644 4219 2406 4219 
Q 1781 4219 1451 3797 
Q 1122 3375 1075 2522 
Q 1259 2794 1537 2939 
Q 1816 3084 2150 3084 
Q 2853 3084 3261 2657 
Q 3669 2231 3669 1497 
Q 3669 778 3244 343 
Q 2819 -91 2113 -91 
Q 1303 -91 875 529 
Q 447 1150 447 2328 
Q 447 3434 972 4092 
Q 1497 4750 2381 4750 
Q 2619 4750 2861 4703 
Q 3103 4656 3366 4563 
z
" id="DejaVuSans-36" transform="scale(0.015625)"/>
       </defs>
       <use xlink:href="#DejaVuSans-30"/>
       <use x="63.623047" xlink:href="#DejaVuSans-2e"/>
       <use x="95.410156" xlink:href="#DejaVuSans-36"/>
      </g>
     </g>
    </g>
    <g id="ytick_5">
     <g id="line2d_10">
      <g>
       <use style="stroke:#000000;stroke-width:0.8;" x="43.78125" xlink:href="#m4dd9eaed70" y="43.237598"/>
      </g>
     </g>
     <g id="text_11">
      <!-- 0.8 -->
      <g transform="translate(20.878125 47.036816)scale(0.1 -0.1)">
       <defs>
        <path d="M 2034 2216 
Q 1584 2216 1326 1975 
Q 1069 1734 1069 1313 
Q 1069 891 1326 650 
Q 1584 409 2034 409 
Q 2484 409 2743 651 
Q 3003 894 3003 1313 
Q 3003 1734 2745 1975 
Q 2488 2216 2034 2216 
z
M 1403 2484 
Q 997 2584 770 2862 
Q 544 3141 544 3541 
Q 544 4100 942 4425 
Q 1341 4750 2034 4750 
Q 2731 4750 3128 4425 
Q 3525 4100 3525 3541 
Q 3525 3141 3298 2862 
Q 3072 2584 2669 2484 
Q 3125 2378 3379 2068 
Q 3634 1759 3634 1313 
Q 3634 634 3220 271 
Q 2806 -91 2034 -91 
Q 1263 -91 848 271 
Q 434 634 434 1313 
Q 434 1759 690 2068 
Q 947 2378 1403 2484 
z
M 1172 3481 
Q 1172 3119 1398 2916 
Q 1625 2713 2034 2713 
Q 2441 2713 2670 2916 
Q 2900 3119 2900 3481 
Q 2900 3844 2670 4047 
Q 2441 4250 2034 4250 
Q 1625 4250 1398 4047 
Q 1172 3844 1172 3481 
z
" id="DejaVuSans-38" transform="scale(0.015625)"/>
       </defs>
       <use xlink:href="#DejaVuSans-30"/>
       <use x="63.623047" xlink:href="#DejaVuSans-2e"/>
       <use x="95.410156" xlink:href="#DejaVuSans-38"/>
      </g>
     </g>
    </g>
    <g id="text_12">
     <!-- y1 -->
     <g transform="translate(14.798438 130.960625)rotate(-90)scale(0.1 -0.1)">
      <defs>
       <path d="M 2059 -325 
Q 1816 -950 1584 -1140 
Q 1353 -1331 966 -1331 
L 506 -1331 
L 506 -850 
L 844 -850 
Q 1081 -850 1212 -737 
Q 1344 -625 1503 -206 
L 1606 56 
L 191 3500 
L 800 3500 
L 1894 763 
L 2988 3500 
L 3597 3500 
L 2059 -325 
z
" id="DejaVuSans-79" transform="scale(0.015625)"/>
      </defs>
      <use xlink:href="#DejaVuSans-79"/>
      <use x="59.179688" xlink:href="#DejaVuSans-31"/>
     </g>
    </g>
   </g>
   <g id="patch_3">
    <path d="M 43.78125 242.44 
L 43.78125 7.2 
" style="fill:none;stroke:#000000;stroke-linecap:square;stroke-linejoin:miter;stroke-width:0.8;"/>
   </g>
   <g id="patch_4">
    <path d="M 306.06125 242.44 
L 306.06125 7.2 
" style="fill:none;stroke:#000000;stroke-linecap:square;stroke-linejoin:miter;stroke-width:0.8;"/>
   </g>
   <g id="patch_5">
    <path d="M 43.78125 242.44 
L 306.06125 242.44 
" style="fill:none;stroke:#000000;stroke-linecap:square;stroke-linejoin:miter;stroke-width:0.8;"/>
   </g>
   <g id="patch_6">
    <path d="M 43.78125 7.2 
L 306.06125 7.2 
" style="fill:none;stroke:#000000;stroke-linecap:square;stroke-linejoin:miter;stroke-width:0.8;"/>
   </g>
  </g>
  <g id="axes_2">
   <g id="patch_7">
    <path d="M 442.98125 242.44 
L 705.26125 242.44 
L 705.26125 7.2 
L 442.98125 7.2 
z
" style="fill:#ffffff;"/>
   </g>
   <g id="PolyCollection_1"/>
   <g id="matplotlib.axis_3">
    <g id="xtick_6">
     <g id="line2d_11">
      <g>
       <use style="stroke:#000000;stroke-width:0.8;" x="448.628427" xlink:href="#m5142cff7cf" y="242.44"/>
      </g>
     </g>
     <g id="text_13">
      <!-- 0 -->
      <g transform="translate(445.447177 257.038437)scale(0.1 -0.1)">
       <use xlink:href="#DejaVuSans-30"/>
      </g>
     </g>
    </g>
    <g id="xtick_7">
     <g id="line2d_12">
      <g>
       <use style="stroke:#000000;stroke-width:0.8;" x="511.374839" xlink:href="#m5142cff7cf" y="242.44"/>
      </g>
     </g>
     <g id="text_14">
      <!-- 1 -->
      <g transform="translate(508.193589 257.038437)scale(0.1 -0.1)">
       <use xlink:href="#DejaVuSans-31"/>
      </g>
     </g>
    </g>
    <g id="xtick_8">
     <g id="line2d_13">
      <g>
       <use style="stroke:#000000;stroke-width:0.8;" x="574.12125" xlink:href="#m5142cff7cf" y="242.44"/>
      </g>
     </g>
     <g id="text_15">
      <!-- 2 -->
      <g transform="translate(570.94 257.038437)scale(0.1 -0.1)">
       <use xlink:href="#DejaVuSans-32"/>
      </g>
     </g>
    </g>
    <g id="xtick_9">
     <g id="line2d_14">
      <g>
       <use style="stroke:#000000;stroke-width:0.8;" x="636.867661" xlink:href="#m5142cff7cf" y="242.44"/>
      </g>
     </g>
     <g id="text_16">
      <!-- 3 -->
      <g transform="translate(633.686411 257.038437)scale(0.1 -0.1)">
       <use xlink:href="#DejaVuSans-33"/>
      </g>
     </g>
    </g>
    <g id="xtick_10">
     <g id="line2d_15">
      <g>
       <use style="stroke:#000000;stroke-width:0.8;" x="699.614073" xlink:href="#m5142cff7cf" y="242.44"/>
      </g>
     </g>
     <g id="text_17">
      <!-- 4 -->
      <g transform="translate(696.432823 257.038437)scale(0.1 -0.1)">
       <use xlink:href="#DejaVuSans-34"/>
      </g>
     </g>
    </g>
    <g id="text_18">
     <!-- x -->
     <g transform="translate(571.161875 270.716562)scale(0.1 -0.1)">
      <use xlink:href="#DejaVuSans-78"/>
     </g>
    </g>
   </g>
   <g id="matplotlib.axis_4">
    <g id="ytick_6">
     <g id="line2d_16">
      <g>
       <use style="stroke:#000000;stroke-width:0.8;" x="442.98125" xlink:href="#m4dd9eaed70" y="216.48691"/>
      </g>
     </g>
     <g id="text_19">
      <!-- 0.2 -->
      <g transform="translate(420.078125 220.286129)scale(0.1 -0.1)">
       <use xlink:href="#DejaVuSans-30"/>
       <use x="63.623047" xlink:href="#DejaVuSans-2e"/>
       <use x="95.410156" xlink:href="#DejaVuSans-32"/>
      </g>
     </g>
    </g>
    <g id="ytick_7">
     <g id="line2d_17">
      <g>
       <use style="stroke:#000000;stroke-width:0.8;" x="442.98125" xlink:href="#m4dd9eaed70" y="190.05102"/>
      </g>
     </g>
     <g id="text_20">
      <!-- 0.3 -->
      <g transform="translate(420.078125 193.850239)scale(0.1 -0.1)">
       <use xlink:href="#DejaVuSans-30"/>
       <use x="63.623047" xlink:href="#DejaVuSans-2e"/>
       <use x="95.410156" xlink:href="#DejaVuSans-33"/>
      </g>
     </g>
    </g>
    <g id="ytick_8">
     <g id="line2d_18">
      <g>
       <use style="stroke:#000000;stroke-width:0.8;" x="442.98125" xlink:href="#m4dd9eaed70" y="163.61513"/>
      </g>
     </g>
     <g id="text_21">
      <!-- 0.4 -->
      <g transform="translate(420.078125 167.414349)scale(0.1 -0.1)">
       <use xlink:href="#DejaVuSans-30"/>
       <use x="63.623047" xlink:href="#DejaVuSans-2e"/>
       <use x="95.410156" xlink:href="#DejaVuSans-34"/>
      </g>
     </g>
    </g>
    <g id="ytick_9">
     <g id="line2d_19">
      <g>
       <use style="stroke:#000000;stroke-width:0.8;" x="442.98125" xlink:href="#m4dd9eaed70" y="137.179241"/>
      </g>
     </g>
     <g id="text_22">
      <!-- 0.5 -->
      <g transform="translate(420.078125 140.978459)scale(0.1 -0.1)">
       <defs>
        <path d="M 691 4666 
L 3169 4666 
L 3169 4134 
L 1269 4134 
L 1269 2991 
Q 1406 3038 1543 3061 
Q 1681 3084 1819 3084 
Q 2600 3084 3056 2656 
Q 3513 2228 3513 1497 
Q 3513 744 3044 326 
Q 2575 -91 1722 -91 
Q 1428 -91 1123 -41 
Q 819 9 494 109 
L 494 744 
Q 775 591 1075 516 
Q 1375 441 1709 441 
Q 2250 441 2565 725 
Q 2881 1009 2881 1497 
Q 2881 1984 2565 2268 
Q 2250 2553 1709 2553 
Q 1456 2553 1204 2497 
Q 953 2441 691 2322 
L 691 4666 
z
" id="DejaVuSans-35" transform="scale(0.015625)"/>
       </defs>
       <use xlink:href="#DejaVuSans-30"/>
       <use x="63.623047" xlink:href="#DejaVuSans-2e"/>
       <use x="95.410156" xlink:href="#DejaVuSans-35"/>
      </g>
     </g>
    </g>
    <g id="ytick_10">
     <g id="line2d_20">
      <g>
       <use style="stroke:#000000;stroke-width:0.8;" x="442.98125" xlink:href="#m4dd9eaed70" y="110.743351"/>
      </g>
     </g>
     <g id="text_23">
      <!-- 0.6 -->
      <g transform="translate(420.078125 114.54257)scale(0.1 -0.1)">
       <use xlink:href="#DejaVuSans-30"/>
       <use x="63.623047" xlink:href="#DejaVuSans-2e"/>
       <use x="95.410156" xlink:href="#DejaVuSans-36"/>
      </g>
     </g>
    </g>
    <g id="ytick_11">
     <g id="line2d_21">
      <g>
       <use style="stroke:#000000;stroke-width:0.8;" x="442.98125" xlink:href="#m4dd9eaed70" y="84.307461"/>
      </g>
     </g>
     <g id="text_24">
      <!-- 0.7 -->
      <g transform="translate(420.078125 88.10668)scale(0.1 -0.1)">
       <defs>
        <path d="M 525 4666 
L 3525 4666 
L 3525 4397 
L 1831 0 
L 1172 0 
L 2766 4134 
L 525 4134 
L 525 4666 
z
" id="DejaVuSans-37" transform="scale(0.015625)"/>
       </defs>
       <use xlink:href="#DejaVuSans-30"/>
       <use x="63.623047" xlink:href="#DejaVuSans-2e"/>
       <use x="95.410156" xlink:href="#DejaVuSans-37"/>
      </g>
     </g>
    </g>
    <g id="ytick_12">
     <g id="line2d_22">
      <g>
       <use style="stroke:#000000;stroke-width:0.8;" x="442.98125" xlink:href="#m4dd9eaed70" y="57.871571"/>
      </g>
     </g>
     <g id="text_25">
      <!-- 0.8 -->
      <g transform="translate(420.078125 61.67079)scale(0.1 -0.1)">
       <use xlink:href="#DejaVuSans-30"/>
       <use x="63.623047" xlink:href="#DejaVuSans-2e"/>
       <use x="95.410156" xlink:href="#DejaVuSans-38"/>
      </g>
     </g>
    </g>
    <g id="ytick_13">
     <g id="line2d_23">
      <g>
       <use style="stroke:#000000;stroke-width:0.8;" x="442.98125" xlink:href="#m4dd9eaed70" y="31.435681"/>
      </g>
     </g>
     <g id="text_26">
      <!-- 0.9 -->
      <g transform="translate(420.078125 35.2349)scale(0.1 -0.1)">
       <defs>
        <path d="M 703 97 
L 703 672 
Q 941 559 1184 500 
Q 1428 441 1663 441 
Q 2288 441 2617 861 
Q 2947 1281 2994 2138 
Q 2813 1869 2534 1725 
Q 2256 1581 1919 1581 
Q 1219 1581 811 2004 
Q 403 2428 403 3163 
Q 403 3881 828 4315 
Q 1253 4750 1959 4750 
Q 2769 4750 3195 4129 
Q 3622 3509 3622 2328 
Q 3622 1225 3098 567 
Q 2575 -91 1691 -91 
Q 1453 -91 1209 -44 
Q 966 3 703 97 
z
M 1959 2075 
Q 2384 2075 2632 2365 
Q 2881 2656 2881 3163 
Q 2881 3666 2632 3958 
Q 2384 4250 1959 4250 
Q 1534 4250 1286 3958 
Q 1038 3666 1038 3163 
Q 1038 2656 1286 2365 
Q 1534 2075 1959 2075 
z
" id="DejaVuSans-39" transform="scale(0.015625)"/>
       </defs>
       <use xlink:href="#DejaVuSans-30"/>
       <use x="63.623047" xlink:href="#DejaVuSans-2e"/>
       <use x="95.410156" xlink:href="#DejaVuSans-39"/>
      </g>
     </g>
    </g>
    <g id="text_27">
     <!-- y2 -->
     <g transform="translate(413.998437 130.960625)rotate(-90)scale(0.1 -0.1)">
      <use xlink:href="#DejaVuSans-79"/>
      <use x="59.179688" xlink:href="#DejaVuSans-32"/>
     </g>
    </g>
   </g>
   <g id="line2d_24">
    <path clip-path="url(#p05a2ec283e)" d="M 454.903068 17.892727 
L 461.177709 30.156867 
L 467.45235 41.822878 
L 473.726992 52.91993 
L 480.001633 63.475773 
L 486.276274 73.516801 
L 492.550915 83.068123 
L 498.825556 92.153621 
L 505.100197 100.796014 
L 511.374839 109.016913 
L 517.64948 116.836874 
L 523.924121 124.27545 
L 530.198762 131.351243 
L 536.473403 138.081946 
L 542.748044 144.484388 
L 549.022685 150.57458 
L 555.297327 156.367749 
L 561.571968 161.878382 
L 567.846609 167.120259 
L 574.12125 172.106486 
L 580.395891 176.849532 
L 586.670532 181.361257 
L 592.945173 185.652942 
L 599.219815 189.73532 
L 605.494456 193.618597 
L 611.769097 197.312485 
L 618.043738 200.82622 
L 624.318379 204.168588 
L 630.59302 207.347947 
L 636.867661 210.372246 
L 643.142303 213.249049 
L 649.416944 215.985549 
L 655.691585 218.588587 
L 661.966226 221.064674 
L 668.240867 223.420001 
L 674.515508 225.660458 
L 680.79015 227.791645 
L 687.064791 229.818894 
L 693.339432 231.747273 
" style="fill:none;stroke:#1f77b4;stroke-linecap:square;stroke-width:1.5;"/>
   </g>
   <g id="patch_8">
    <path d="M 442.98125 242.44 
L 442.98125 7.2 
" style="fill:none;stroke:#000000;stroke-linecap:square;stroke-linejoin:miter;stroke-width:0.8;"/>
   </g>
   <g id="patch_9">
    <path d="M 705.26125 242.44 
L 705.26125 7.2 
" style="fill:none;stroke:#000000;stroke-linecap:square;stroke-linejoin:miter;stroke-width:0.8;"/>
   </g>
   <g id="patch_10">
    <path d="M 442.98125 242.44 
L 705.26125 242.44 
" style="fill:none;stroke:#000000;stroke-linecap:square;stroke-linejoin:miter;stroke-width:0.8;"/>
   </g>
   <g id="patch_11">
    <path d="M 442.98125 7.2 
L 705.26125 7.2 
" style="fill:none;stroke:#000000;stroke-linecap:square;stroke-linejoin:miter;stroke-width:0.8;"/>
   </g>
  </g>
 </g>
 <defs>
  <clipPath id="p6c9c9bd204">
   <rect height="235.24" width="262.28" x="43.78125" y="7.2"/>
  </clipPath>
  <clipPath id="p05a2ec283e">
   <rect height="235.24" width="262.28" x="442.98125" y="7.2"/>
  </clipPath>
 </defs>
</svg>
