<?xml version="1.0" encoding="utf-8" standalone="no"?>
<!DOCTYPE svg PUBLIC "-//W3C//DTD SVG 1.1//EN"
  "http://www.w3.org/Graphics/SVG/1.1/DTD/svg11.dtd">
<svg height="310.86825pt" version="1.1" viewBox="0 0 408.10125 310.86825" width="408.10125pt" xmlns="http://www.w3.org/2000/svg" xmlns:xlink="http://www.w3.org/1999/xlink">
 <metadata>
  <rdf:RDF xmlns:cc="http://creativecommons.org/ns#" xmlns:dc="http://purl.org/dc/elements/1.1/" xmlns:rdf="http://www.w3.org/1999/02/22-rdf-syntax-ns#">
   <cc:Work>
    <dc:type rdf:resource="http://purl.org/dc/dcmitype/StillImage"/>
    <dc:date>2023-05-08T09:45:43.854108</dc:date>
    <dc:format>image/svg+xml</dc:format>
    <dc:creator>
     <cc:Agent>
      <dc:title>Matplotlib v3.4.3, https://matplotlib.org/</dc:title>
     </cc:Agent>
    </dc:creator>
   </cc:Work>
  </rdf:RDF>
 </metadata>
 <defs>
  <style type="text/css">*{stroke-linecap:butt;stroke-linejoin:round;}</style>
 </defs>
 <g id="figure_1">
  <g id="patch_1">
   <path d="M 0 310.86825 
L 408.10125 310.86825 
L 408.10125 0 
L 0 0 
z
" style="fill:#ffffff;"/>
  </g>
  <g id="axes_1">
   <g id="patch_2">
    <path d="M 43.78125 273.312 
L 400.90125 273.312 
L 400.90125 7.2 
L 43.78125 7.2 
z
" style="fill:#ffffff;"/>
   </g>
   <g id="PathCollection_1">
    <defs>
     <path d="M 0 3 
C 0.795609 3 1.55874 2.683901 2.12132 2.12132 
C 2.683901 1.55874 3 0.795609 3 0 
C 3 -0.795609 2.683901 -1.55874 2.12132 -2.12132 
C 1.55874 -2.683901 0.795609 -3 0 -3 
C -0.795609 -3 -1.55874 -2.683901 -2.12132 -2.12132 
C -2.683901 -1.55874 -3 -0.795609 -3 0 
C -3 0.795609 -2.683901 1.55874 -2.12132 2.12132 
C -1.55874 2.683901 -0.795609 3 0 3 
z
" id="m907c40d533" style="stroke:#ffffff;stroke-width:0.48;"/>
    </defs>
    <g clip-path="url(#p6d840b2807)">
     <use style="fill:#1f77b4;stroke:#ffffff;stroke-width:0.48;" x="60.013977" xlink:href="#m907c40d533" y="19.296"/>
     <use style="fill:#1f77b4;stroke:#ffffff;stroke-width:0.48;" x="121.438734" xlink:href="#m907c40d533" y="42.844531"/>
     <use style="fill:#1f77b4;stroke:#ffffff;stroke-width:0.48;" x="157.369913" xlink:href="#m907c40d533" y="64.152122"/>
     <use style="fill:#1f77b4;stroke:#ffffff;stroke-width:0.48;" x="182.863491" xlink:href="#m907c40d533" y="83.432029"/>
     <use style="fill:#1f77b4;stroke:#ffffff;stroke-width:0.48;" x="202.637846" xlink:href="#m907c40d533" y="100.877209"/>
     <use style="fill:#1f77b4;stroke:#ffffff;stroke-width:0.48;" x="218.79467" xlink:href="#m907c40d533" y="116.662261"/>
     <use style="fill:#1f77b4;stroke:#ffffff;stroke-width:0.48;" x="232.45507" xlink:href="#m907c40d533" y="130.945167"/>
     <use style="fill:#1f77b4;stroke:#ffffff;stroke-width:0.48;" x="244.288247" xlink:href="#m907c40d533" y="143.868875"/>
     <use style="fill:#1f77b4;stroke:#ffffff;stroke-width:0.48;" x="254.725849" xlink:href="#m907c40d533" y="155.562729"/>
     <use style="fill:#1f77b4;stroke:#ffffff;stroke-width:0.48;" x="264.062602" xlink:href="#m907c40d533" y="166.143766"/>
     <use style="fill:#1f77b4;stroke:#ffffff;stroke-width:0.48;" x="272.508723" xlink:href="#m907c40d533" y="175.717884"/>
     <use style="fill:#1f77b4;stroke:#ffffff;stroke-width:0.48;" x="280.219427" xlink:href="#m907c40d533" y="184.380904"/>
     <use style="fill:#1f77b4;stroke:#ffffff;stroke-width:0.48;" x="287.312587" xlink:href="#m907c40d533" y="192.219529"/>
     <use style="fill:#1f77b4;stroke:#ffffff;stroke-width:0.48;" x="293.879827" xlink:href="#m907c40d533" y="199.31221"/>
     <use style="fill:#1f77b4;stroke:#ffffff;stroke-width:0.48;" x="299.993782" xlink:href="#m907c40d533" y="205.729933"/>
     <use style="fill:#1f77b4;stroke:#ffffff;stroke-width:0.48;" x="305.713004" xlink:href="#m907c40d533" y="211.53693"/>
     <use style="fill:#1f77b4;stroke:#ffffff;stroke-width:0.48;" x="311.085388" xlink:href="#m907c40d533" y="216.791317"/>
     <use style="fill:#1f77b4;stroke:#ffffff;stroke-width:0.48;" x="316.150606" xlink:href="#m907c40d533" y="221.545683"/>
     <use style="fill:#1f77b4;stroke:#ffffff;stroke-width:0.48;" x="320.941891" xlink:href="#m907c40d533" y="225.847612"/>
     <use style="fill:#1f77b4;stroke:#ffffff;stroke-width:0.48;" x="325.487359" xlink:href="#m907c40d533" y="229.740158"/>
     <use style="fill:#1f77b4;stroke:#ffffff;stroke-width:0.48;" x="329.811006" xlink:href="#m907c40d533" y="233.262279"/>
     <use style="fill:#1f77b4;stroke:#ffffff;stroke-width:0.48;" x="333.93348" xlink:href="#m907c40d533" y="236.449226"/>
     <use style="fill:#1f77b4;stroke:#ffffff;stroke-width:0.48;" x="337.87267" xlink:href="#m907c40d533" y="239.332895"/>
     <use style="fill:#1f77b4;stroke:#ffffff;stroke-width:0.48;" x="341.644183" xlink:href="#m907c40d533" y="241.942147"/>
     <use style="fill:#1f77b4;stroke:#ffffff;stroke-width:0.48;" x="345.261714" xlink:href="#m907c40d533" y="244.303095"/>
     <use style="fill:#1f77b4;stroke:#ffffff;stroke-width:0.48;" x="348.737343" xlink:href="#m907c40d533" y="246.43937"/>
     <use style="fill:#1f77b4;stroke:#ffffff;stroke-width:0.48;" x="352.081785" xlink:href="#m907c40d533" y="248.372351"/>
     <use style="fill:#1f77b4;stroke:#ffffff;stroke-width:0.48;" x="355.304584" xlink:href="#m907c40d533" y="250.121384"/>
     <use style="fill:#1f77b4;stroke:#ffffff;stroke-width:0.48;" x="358.414278" xlink:href="#m907c40d533" y="251.703975"/>
     <use style="fill:#1f77b4;stroke:#ffffff;stroke-width:0.48;" x="361.418538" xlink:href="#m907c40d533" y="253.135963"/>
     <use style="fill:#1f77b4;stroke:#ffffff;stroke-width:0.48;" x="364.32428" xlink:href="#m907c40d533" y="254.431679"/>
     <use style="fill:#1f77b4;stroke:#ffffff;stroke-width:0.48;" x="367.137761" xlink:href="#m907c40d533" y="255.604091"/>
     <use style="fill:#1f77b4;stroke:#ffffff;stroke-width:0.48;" x="369.864659" xlink:href="#m907c40d533" y="256.664934"/>
     <use style="fill:#1f77b4;stroke:#ffffff;stroke-width:0.48;" x="372.510145" xlink:href="#m907c40d533" y="257.624824"/>
     <use style="fill:#1f77b4;stroke:#ffffff;stroke-width:0.48;" x="375.078939" xlink:href="#m907c40d533" y="258.493368"/>
     <use style="fill:#1f77b4;stroke:#ffffff;stroke-width:0.48;" x="377.575363" xlink:href="#m907c40d533" y="259.27926"/>
     <use style="fill:#1f77b4;stroke:#ffffff;stroke-width:0.48;" x="380.003383" xlink:href="#m907c40d533" y="259.990364"/>
     <use style="fill:#1f77b4;stroke:#ffffff;stroke-width:0.48;" x="382.366648" xlink:href="#m907c40d533" y="260.633797"/>
     <use style="fill:#1f77b4;stroke:#ffffff;stroke-width:0.48;" x="384.668523" xlink:href="#m907c40d533" y="261.216"/>
    </g>
   </g>
   <g id="matplotlib.axis_1">
    <g id="xtick_1">
     <g id="line2d_1">
      <defs>
       <path d="M 0 0 
L 0 3.5 
" id="me5a275ed5c" style="stroke:#000000;stroke-width:0.8;"/>
      </defs>
      <g>
       <use style="stroke:#000000;stroke-width:0.8;" x="60.013977" xlink:href="#me5a275ed5c" y="273.312"/>
      </g>
     </g>
     <g id="text_1">
      <!-- $\mathdefault{10^{-1}}$ -->
      <g transform="translate(48.263977 287.910438)scale(0.1 -0.1)">
       <defs>
        <path d="M 794 531 
L 1825 531 
L 1825 4091 
L 703 3866 
L 703 4441 
L 1819 4666 
L 2450 4666 
L 2450 531 
L 3481 531 
L 3481 0 
L 794 0 
L 794 531 
z
" id="DejaVuSans-31" transform="scale(0.015625)"/>
        <path d="M 2034 4250 
Q 1547 4250 1301 3770 
Q 1056 3291 1056 2328 
Q 1056 1369 1301 889 
Q 1547 409 2034 409 
Q 2525 409 2770 889 
Q 3016 1369 3016 2328 
Q 3016 3291 2770 3770 
Q 2525 4250 2034 4250 
z
M 2034 4750 
Q 2819 4750 3233 4129 
Q 3647 3509 3647 2328 
Q 3647 1150 3233 529 
Q 2819 -91 2034 -91 
Q 1250 -91 836 529 
Q 422 1150 422 2328 
Q 422 3509 836 4129 
Q 1250 4750 2034 4750 
z
" id="DejaVuSans-30" transform="scale(0.015625)"/>
        <path d="M 678 2272 
L 4684 2272 
L 4684 1741 
L 678 1741 
L 678 2272 
z
" id="DejaVuSans-2212" transform="scale(0.015625)"/>
       </defs>
       <use transform="translate(0 0.684375)" xlink:href="#DejaVuSans-31"/>
       <use transform="translate(63.623047 0.684375)" xlink:href="#DejaVuSans-30"/>
       <use transform="translate(128.203125 38.965625)scale(0.7)" xlink:href="#DejaVuSans-2212"/>
       <use transform="translate(186.855469 38.965625)scale(0.7)" xlink:href="#DejaVuSans-31"/>
      </g>
     </g>
    </g>
    <g id="xtick_2">
     <g id="line2d_2">
      <g>
       <use style="stroke:#000000;stroke-width:0.8;" x="264.062602" xlink:href="#me5a275ed5c" y="273.312"/>
      </g>
     </g>
     <g id="text_2">
      <!-- $\mathdefault{10^{0}}$ -->
      <g transform="translate(255.262602 287.910438)scale(0.1 -0.1)">
       <use transform="translate(0 0.765625)" xlink:href="#DejaVuSans-31"/>
       <use transform="translate(63.623047 0.765625)" xlink:href="#DejaVuSans-30"/>
       <use transform="translate(128.203125 39.046875)scale(0.7)" xlink:href="#DejaVuSans-30"/>
      </g>
     </g>
    </g>
    <g id="xtick_3">
     <g id="line2d_3">
      <defs>
       <path d="M 0 0 
L 0 2 
" id="mf5539f3977" style="stroke:#000000;stroke-width:0.6;"/>
      </defs>
      <g>
       <use style="stroke:#000000;stroke-width:0.6;" x="50.677224" xlink:href="#mf5539f3977" y="273.312"/>
      </g>
     </g>
    </g>
    <g id="xtick_4">
     <g id="line2d_4">
      <g>
       <use style="stroke:#000000;stroke-width:0.6;" x="121.438734" xlink:href="#mf5539f3977" y="273.312"/>
      </g>
     </g>
    </g>
    <g id="xtick_5">
     <g id="line2d_5">
      <g>
       <use style="stroke:#000000;stroke-width:0.6;" x="157.369913" xlink:href="#mf5539f3977" y="273.312"/>
      </g>
     </g>
    </g>
    <g id="xtick_6">
     <g id="line2d_6">
      <g>
       <use style="stroke:#000000;stroke-width:0.6;" x="182.863491" xlink:href="#mf5539f3977" y="273.312"/>
      </g>
     </g>
    </g>
    <g id="xtick_7">
     <g id="line2d_7">
      <g>
       <use style="stroke:#000000;stroke-width:0.6;" x="202.637846" xlink:href="#mf5539f3977" y="273.312"/>
      </g>
     </g>
    </g>
    <g id="xtick_8">
     <g id="line2d_8">
      <g>
       <use style="stroke:#000000;stroke-width:0.6;" x="218.79467" xlink:href="#mf5539f3977" y="273.312"/>
      </g>
     </g>
    </g>
    <g id="xtick_9">
     <g id="line2d_9">
      <g>
       <use style="stroke:#000000;stroke-width:0.6;" x="232.45507" xlink:href="#mf5539f3977" y="273.312"/>
      </g>
     </g>
    </g>
    <g id="xtick_10">
     <g id="line2d_10">
      <g>
       <use style="stroke:#000000;stroke-width:0.6;" x="244.288247" xlink:href="#mf5539f3977" y="273.312"/>
      </g>
     </g>
    </g>
    <g id="xtick_11">
     <g id="line2d_11">
      <g>
       <use style="stroke:#000000;stroke-width:0.6;" x="254.725849" xlink:href="#mf5539f3977" y="273.312"/>
      </g>
     </g>
    </g>
    <g id="xtick_12">
     <g id="line2d_12">
      <g>
       <use style="stroke:#000000;stroke-width:0.6;" x="325.487359" xlink:href="#mf5539f3977" y="273.312"/>
      </g>
     </g>
    </g>
    <g id="xtick_13">
     <g id="line2d_13">
      <g>
       <use style="stroke:#000000;stroke-width:0.6;" x="361.418538" xlink:href="#mf5539f3977" y="273.312"/>
      </g>
     </g>
    </g>
    <g id="xtick_14">
     <g id="line2d_14">
      <g>
       <use style="stroke:#000000;stroke-width:0.6;" x="386.912116" xlink:href="#mf5539f3977" y="273.312"/>
      </g>
     </g>
    </g>
    <g id="text_3">
     <!-- x -->
     <g transform="translate(219.381875 301.588562)scale(0.1 -0.1)">
      <defs>
       <path d="M 3513 3500 
L 2247 1797 
L 3578 0 
L 2900 0 
L 1881 1375 
L 863 0 
L 184 0 
L 1544 1831 
L 300 3500 
L 978 3500 
L 1906 2253 
L 2834 3500 
L 3513 3500 
z
" id="DejaVuSans-78" transform="scale(0.015625)"/>
      </defs>
      <use xlink:href="#DejaVuSans-78"/>
     </g>
    </g>
   </g>
   <g id="matplotlib.axis_2">
    <g id="ytick_1">
     <g id="line2d_15">
      <defs>
       <path d="M 0 0 
L -3.5 0 
" id="md41aa23bae" style="stroke:#000000;stroke-width:0.8;"/>
      </defs>
      <g>
       <use style="stroke:#000000;stroke-width:0.8;" x="43.78125" xlink:href="#md41aa23bae" y="266.751777"/>
      </g>
     </g>
     <g id="text_4">
      <!-- 0.0 -->
      <g transform="translate(20.878125 270.550995)scale(0.1 -0.1)">
       <defs>
        <path d="M 684 794 
L 1344 794 
L 1344 0 
L 684 0 
L 684 794 
z
" id="DejaVuSans-2e" transform="scale(0.015625)"/>
       </defs>
       <use xlink:href="#DejaVuSans-30"/>
       <use x="63.623047" xlink:href="#DejaVuSans-2e"/>
       <use x="95.410156" xlink:href="#DejaVuSans-30"/>
      </g>
     </g>
    </g>
    <g id="ytick_2">
     <g id="line2d_16">
      <g>
       <use style="stroke:#000000;stroke-width:0.8;" x="43.78125" xlink:href="#md41aa23bae" y="212.055591"/>
      </g>
     </g>
     <g id="text_5">
      <!-- 0.2 -->
      <g transform="translate(20.878125 215.85481)scale(0.1 -0.1)">
       <defs>
        <path d="M 1228 531 
L 3431 531 
L 3431 0 
L 469 0 
L 469 531 
Q 828 903 1448 1529 
Q 2069 2156 2228 2338 
Q 2531 2678 2651 2914 
Q 2772 3150 2772 3378 
Q 2772 3750 2511 3984 
Q 2250 4219 1831 4219 
Q 1534 4219 1204 4116 
Q 875 4013 500 3803 
L 500 4441 
Q 881 4594 1212 4672 
Q 1544 4750 1819 4750 
Q 2544 4750 2975 4387 
Q 3406 4025 3406 3419 
Q 3406 3131 3298 2873 
Q 3191 2616 2906 2266 
Q 2828 2175 2409 1742 
Q 1991 1309 1228 531 
z
" id="DejaVuSans-32" transform="scale(0.015625)"/>
       </defs>
       <use xlink:href="#DejaVuSans-30"/>
       <use x="63.623047" xlink:href="#DejaVuSans-2e"/>
       <use x="95.410156" xlink:href="#DejaVuSans-32"/>
      </g>
     </g>
    </g>
    <g id="ytick_3">
     <g id="line2d_17">
      <g>
       <use style="stroke:#000000;stroke-width:0.8;" x="43.78125" xlink:href="#md41aa23bae" y="157.359406"/>
      </g>
     </g>
     <g id="text_6">
      <!-- 0.4 -->
      <g transform="translate(20.878125 161.158624)scale(0.1 -0.1)">
       <defs>
        <path d="M 2419 4116 
L 825 1625 
L 2419 1625 
L 2419 4116 
z
M 2253 4666 
L 3047 4666 
L 3047 1625 
L 3713 1625 
L 3713 1100 
L 3047 1100 
L 3047 0 
L 2419 0 
L 2419 1100 
L 313 1100 
L 313 1709 
L 2253 4666 
z
" id="DejaVuSans-34" transform="scale(0.015625)"/>
       </defs>
       <use xlink:href="#DejaVuSans-30"/>
       <use x="63.623047" xlink:href="#DejaVuSans-2e"/>
       <use x="95.410156" xlink:href="#DejaVuSans-34"/>
      </g>
     </g>
    </g>
    <g id="ytick_4">
     <g id="line2d_18">
      <g>
       <use style="stroke:#000000;stroke-width:0.8;" x="43.78125" xlink:href="#md41aa23bae" y="102.66322"/>
      </g>
     </g>
     <g id="text_7">
      <!-- 0.6 -->
      <g transform="translate(20.878125 106.462439)scale(0.1 -0.1)">
       <defs>
        <path d="M 2113 2584 
Q 1688 2584 1439 2293 
Q 1191 2003 1191 1497 
Q 1191 994 1439 701 
Q 1688 409 2113 409 
Q 2538 409 2786 701 
Q 3034 994 3034 1497 
Q 3034 2003 2786 2293 
Q 2538 2584 2113 2584 
z
M 3366 4563 
L 3366 3988 
Q 3128 4100 2886 4159 
Q 2644 4219 2406 4219 
Q 1781 4219 1451 3797 
Q 1122 3375 1075 2522 
Q 1259 2794 1537 2939 
Q 1816 3084 2150 3084 
Q 2853 3084 3261 2657 
Q 3669 2231 3669 1497 
Q 3669 778 3244 343 
Q 2819 -91 2113 -91 
Q 1303 -91 875 529 
Q 447 1150 447 2328 
Q 447 3434 972 4092 
Q 1497 4750 2381 4750 
Q 2619 4750 2861 4703 
Q 3103 4656 3366 4563 
z
" id="DejaVuSans-36" transform="scale(0.015625)"/>
       </defs>
       <use xlink:href="#DejaVuSans-30"/>
       <use x="63.623047" xlink:href="#DejaVuSans-2e"/>
       <use x="95.410156" xlink:href="#DejaVuSans-36"/>
      </g>
     </g>
    </g>
    <g id="ytick_5">
     <g id="line2d_19">
      <g>
       <use style="stroke:#000000;stroke-width:0.8;" x="43.78125" xlink:href="#md41aa23bae" y="47.967034"/>
      </g>
     </g>
     <g id="text_8">
      <!-- 0.8 -->
      <g transform="translate(20.878125 51.766253)scale(0.1 -0.1)">
       <defs>
        <path d="M 2034 2216 
Q 1584 2216 1326 1975 
Q 1069 1734 1069 1313 
Q 1069 891 1326 650 
Q 1584 409 2034 409 
Q 2484 409 2743 651 
Q 3003 894 3003 1313 
Q 3003 1734 2745 1975 
Q 2488 2216 2034 2216 
z
M 1403 2484 
Q 997 2584 770 2862 
Q 544 3141 544 3541 
Q 544 4100 942 4425 
Q 1341 4750 2034 4750 
Q 2731 4750 3128 4425 
Q 3525 4100 3525 3541 
Q 3525 3141 3298 2862 
Q 3072 2584 2669 2484 
Q 3125 2378 3379 2068 
Q 3634 1759 3634 1313 
Q 3634 634 3220 271 
Q 2806 -91 2034 -91 
Q 1263 -91 848 271 
Q 434 634 434 1313 
Q 434 1759 690 2068 
Q 947 2378 1403 2484 
z
M 1172 3481 
Q 1172 3119 1398 2916 
Q 1625 2713 2034 2713 
Q 2441 2713 2670 2916 
Q 2900 3119 2900 3481 
Q 2900 3844 2670 4047 
Q 2441 4250 2034 4250 
Q 1625 4250 1398 4047 
Q 1172 3844 1172 3481 
z
" id="DejaVuSans-38" transform="scale(0.015625)"/>
       </defs>
       <use xlink:href="#DejaVuSans-30"/>
       <use x="63.623047" xlink:href="#DejaVuSans-2e"/>
       <use x="95.410156" xlink:href="#DejaVuSans-38"/>
      </g>
     </g>
    </g>
    <g id="text_9">
     <!-- y1 -->
     <g transform="translate(14.798438 146.396625)rotate(-90)scale(0.1 -0.1)">
      <defs>
       <path d="M 2059 -325 
Q 1816 -950 1584 -1140 
Q 1353 -1331 966 -1331 
L 506 -1331 
L 506 -850 
L 844 -850 
Q 1081 -850 1212 -737 
Q 1344 -625 1503 -206 
L 1606 56 
L 191 3500 
L 800 3500 
L 1894 763 
L 2988 3500 
L 3597 3500 
L 2059 -325 
z
" id="DejaVuSans-79" transform="scale(0.015625)"/>
      </defs>
      <use xlink:href="#DejaVuSans-79"/>
      <use x="59.179688" xlink:href="#DejaVuSans-31"/>
     </g>
    </g>
   </g>
   <g id="patch_3">
    <path d="M 43.78125 273.312 
L 43.78125 7.2 
" style="fill:none;stroke:#000000;stroke-linecap:square;stroke-linejoin:miter;stroke-width:0.8;"/>
   </g>
   <g id="patch_4">
    <path d="M 400.90125 273.312 
L 400.90125 7.2 
" style="fill:none;stroke:#000000;stroke-linecap:square;stroke-linejoin:miter;stroke-width:0.8;"/>
   </g>
   <g id="patch_5">
    <path d="M 43.78125 273.312 
L 400.90125 273.312 
" style="fill:none;stroke:#000000;stroke-linecap:square;stroke-linejoin:miter;stroke-width:0.8;"/>
   </g>
   <g id="patch_6">
    <path d="M 43.78125 7.2 
L 400.90125 7.2 
" style="fill:none;stroke:#000000;stroke-linecap:square;stroke-linejoin:miter;stroke-width:0.8;"/>
   </g>
  </g>
 </g>
 <defs>
  <clipPath id="p6d840b2807">
   <rect height="266.112" width="357.12" x="43.78125" y="7.2"/>
  </clipPath>
 </defs>
</svg>
