<?xml version="1.0" encoding="utf-8" standalone="no"?>
<!DOCTYPE svg PUBLIC "-//W3C//DTD SVG 1.1//EN"
  "http://www.w3.org/Graphics/SVG/1.1/DTD/svg11.dtd">
<svg height="318.63625pt" version="1.1" viewBox="0 0 435.182187 318.63625" width="435.182187pt" xmlns="http://www.w3.org/2000/svg" xmlns:xlink="http://www.w3.org/1999/xlink">
 <metadata>
  <rdf:RDF xmlns:cc="http://creativecommons.org/ns#" xmlns:dc="http://purl.org/dc/elements/1.1/" xmlns:rdf="http://www.w3.org/1999/02/22-rdf-syntax-ns#">
   <cc:Work>
    <dc:type rdf:resource="http://purl.org/dc/dcmitype/StillImage"/>
    <dc:date>2023-05-04T09:55:02.108933</dc:date>
    <dc:format>image/svg+xml</dc:format>
    <dc:creator>
     <cc:Agent>
      <dc:title>Matplotlib v3.4.3, https://matplotlib.org/</dc:title>
     </cc:Agent>
    </dc:creator>
   </cc:Work>
  </rdf:RDF>
 </metadata>
 <defs>
  <style type="text/css">*{stroke-linecap:butt;stroke-linejoin:round;}</style>
 </defs>
 <g id="figure_1">
  <g id="patch_1">
   <path d="M 0 318.63625 
L 435.182187 318.63625 
L 435.182187 0 
L 0 0 
z
" style="fill:#ffffff;"/>
  </g>
  <g id="axes_1">
   <g id="patch_2">
    <path d="M 28.942188 294.758125 
L 427.982187 294.758125 
L 427.982187 185.118125 
L 28.942188 185.118125 
z
" style="fill:#ffffff;"/>
   </g>
   <g id="matplotlib.axis_1">
    <g id="xtick_1">
     <g id="line2d_1">
      <defs>
       <path d="M 0 0 
L 0 3.5 
" id="ma70a089aa2" style="stroke:#000000;stroke-width:0.8;"/>
      </defs>
      <g>
       <use style="stroke:#000000;stroke-width:0.8;" x="47.080369" xlink:href="#ma70a089aa2" y="294.758125"/>
      </g>
     </g>
     <g id="text_1">
      <!-- 0 -->
      <g transform="translate(43.899119 309.356562)scale(0.1 -0.1)">
       <defs>
        <path d="M 2034 4250 
Q 1547 4250 1301 3770 
Q 1056 3291 1056 2328 
Q 1056 1369 1301 889 
Q 1547 409 2034 409 
Q 2525 409 2770 889 
Q 3016 1369 3016 2328 
Q 3016 3291 2770 3770 
Q 2525 4250 2034 4250 
z
M 2034 4750 
Q 2819 4750 3233 4129 
Q 3647 3509 3647 2328 
Q 3647 1150 3233 529 
Q 2819 -91 2034 -91 
Q 1250 -91 836 529 
Q 422 1150 422 2328 
Q 422 3509 836 4129 
Q 1250 4750 2034 4750 
z
" id="DejaVuSans-30" transform="scale(0.015625)"/>
       </defs>
       <use xlink:href="#DejaVuSans-30"/>
      </g>
     </g>
    </g>
    <g id="xtick_2">
     <g id="line2d_2">
      <g>
       <use style="stroke:#000000;stroke-width:0.8;" x="119.778493" xlink:href="#ma70a089aa2" y="294.758125"/>
      </g>
     </g>
     <g id="text_2">
      <!-- 1 -->
      <g transform="translate(116.597243 309.356562)scale(0.1 -0.1)">
       <defs>
        <path d="M 794 531 
L 1825 531 
L 1825 4091 
L 703 3866 
L 703 4441 
L 1819 4666 
L 2450 4666 
L 2450 531 
L 3481 531 
L 3481 0 
L 794 0 
L 794 531 
z
" id="DejaVuSans-31" transform="scale(0.015625)"/>
       </defs>
       <use xlink:href="#DejaVuSans-31"/>
      </g>
     </g>
    </g>
    <g id="xtick_3">
     <g id="line2d_3">
      <g>
       <use style="stroke:#000000;stroke-width:0.8;" x="192.476616" xlink:href="#ma70a089aa2" y="294.758125"/>
      </g>
     </g>
     <g id="text_3">
      <!-- 2 -->
      <g transform="translate(189.295366 309.356562)scale(0.1 -0.1)">
       <defs>
        <path d="M 1228 531 
L 3431 531 
L 3431 0 
L 469 0 
L 469 531 
Q 828 903 1448 1529 
Q 2069 2156 2228 2338 
Q 2531 2678 2651 2914 
Q 2772 3150 2772 3378 
Q 2772 3750 2511 3984 
Q 2250 4219 1831 4219 
Q 1534 4219 1204 4116 
Q 875 4013 500 3803 
L 500 4441 
Q 881 4594 1212 4672 
Q 1544 4750 1819 4750 
Q 2544 4750 2975 4387 
Q 3406 4025 3406 3419 
Q 3406 3131 3298 2873 
Q 3191 2616 2906 2266 
Q 2828 2175 2409 1742 
Q 1991 1309 1228 531 
z
" id="DejaVuSans-32" transform="scale(0.015625)"/>
       </defs>
       <use xlink:href="#DejaVuSans-32"/>
      </g>
     </g>
    </g>
    <g id="xtick_4">
     <g id="line2d_4">
      <g>
       <use style="stroke:#000000;stroke-width:0.8;" x="265.17474" xlink:href="#ma70a089aa2" y="294.758125"/>
      </g>
     </g>
     <g id="text_4">
      <!-- 3 -->
      <g transform="translate(261.99349 309.356562)scale(0.1 -0.1)">
       <defs>
        <path d="M 2597 2516 
Q 3050 2419 3304 2112 
Q 3559 1806 3559 1356 
Q 3559 666 3084 287 
Q 2609 -91 1734 -91 
Q 1441 -91 1130 -33 
Q 819 25 488 141 
L 488 750 
Q 750 597 1062 519 
Q 1375 441 1716 441 
Q 2309 441 2620 675 
Q 2931 909 2931 1356 
Q 2931 1769 2642 2001 
Q 2353 2234 1838 2234 
L 1294 2234 
L 1294 2753 
L 1863 2753 
Q 2328 2753 2575 2939 
Q 2822 3125 2822 3475 
Q 2822 3834 2567 4026 
Q 2313 4219 1838 4219 
Q 1578 4219 1281 4162 
Q 984 4106 628 3988 
L 628 4550 
Q 988 4650 1302 4700 
Q 1616 4750 1894 4750 
Q 2613 4750 3031 4423 
Q 3450 4097 3450 3541 
Q 3450 3153 3228 2886 
Q 3006 2619 2597 2516 
z
" id="DejaVuSans-33" transform="scale(0.015625)"/>
       </defs>
       <use xlink:href="#DejaVuSans-33"/>
      </g>
     </g>
    </g>
    <g id="xtick_5">
     <g id="line2d_5">
      <g>
       <use style="stroke:#000000;stroke-width:0.8;" x="337.872863" xlink:href="#ma70a089aa2" y="294.758125"/>
      </g>
     </g>
     <g id="text_5">
      <!-- 4 -->
      <g transform="translate(334.691613 309.356562)scale(0.1 -0.1)">
       <defs>
        <path d="M 2419 4116 
L 825 1625 
L 2419 1625 
L 2419 4116 
z
M 2253 4666 
L 3047 4666 
L 3047 1625 
L 3713 1625 
L 3713 1100 
L 3047 1100 
L 3047 0 
L 2419 0 
L 2419 1100 
L 313 1100 
L 313 1709 
L 2253 4666 
z
" id="DejaVuSans-34" transform="scale(0.015625)"/>
       </defs>
       <use xlink:href="#DejaVuSans-34"/>
      </g>
     </g>
    </g>
    <g id="xtick_6">
     <g id="line2d_6">
      <g>
       <use style="stroke:#000000;stroke-width:0.8;" x="410.570987" xlink:href="#ma70a089aa2" y="294.758125"/>
      </g>
     </g>
     <g id="text_6">
      <!-- 5 -->
      <g transform="translate(407.389737 309.356562)scale(0.1 -0.1)">
       <defs>
        <path d="M 691 4666 
L 3169 4666 
L 3169 4134 
L 1269 4134 
L 1269 2991 
Q 1406 3038 1543 3061 
Q 1681 3084 1819 3084 
Q 2600 3084 3056 2656 
Q 3513 2228 3513 1497 
Q 3513 744 3044 326 
Q 2575 -91 1722 -91 
Q 1428 -91 1123 -41 
Q 819 9 494 109 
L 494 744 
Q 775 591 1075 516 
Q 1375 441 1709 441 
Q 2250 441 2565 725 
Q 2881 1009 2881 1497 
Q 2881 1984 2565 2268 
Q 2250 2553 1709 2553 
Q 1456 2553 1204 2497 
Q 953 2441 691 2322 
L 691 4666 
z
" id="DejaVuSans-35" transform="scale(0.015625)"/>
       </defs>
       <use xlink:href="#DejaVuSans-35"/>
      </g>
     </g>
    </g>
   </g>
   <g id="matplotlib.axis_2">
    <g id="ytick_1">
     <g id="line2d_7">
      <defs>
       <path d="M 0 0 
L -3.5 0 
" id="m3191d5fb06" style="stroke:#000000;stroke-width:0.8;"/>
      </defs>
      <g>
       <use style="stroke:#000000;stroke-width:0.8;" x="28.942188" xlink:href="#m3191d5fb06" y="292.240733"/>
      </g>
     </g>
     <g id="text_7">
      <!-- −2 -->
      <g transform="translate(7.2 296.039952)scale(0.1 -0.1)">
       <defs>
        <path d="M 678 2272 
L 4684 2272 
L 4684 1741 
L 678 1741 
L 678 2272 
z
" id="DejaVuSans-2212" transform="scale(0.015625)"/>
       </defs>
       <use xlink:href="#DejaVuSans-2212"/>
       <use x="83.789062" xlink:href="#DejaVuSans-32"/>
      </g>
     </g>
    </g>
    <g id="ytick_2">
     <g id="line2d_8">
      <g>
       <use style="stroke:#000000;stroke-width:0.8;" x="28.942188" xlink:href="#m3191d5fb06" y="266.089429"/>
      </g>
     </g>
     <g id="text_8">
      <!-- −1 -->
      <g transform="translate(7.2 269.888648)scale(0.1 -0.1)">
       <use xlink:href="#DejaVuSans-2212"/>
       <use x="83.789062" xlink:href="#DejaVuSans-31"/>
      </g>
     </g>
    </g>
    <g id="ytick_3">
     <g id="line2d_9">
      <g>
       <use style="stroke:#000000;stroke-width:0.8;" x="28.942188" xlink:href="#m3191d5fb06" y="239.938125"/>
      </g>
     </g>
     <g id="text_9">
      <!-- 0 -->
      <g transform="translate(15.579688 243.737344)scale(0.1 -0.1)">
       <use xlink:href="#DejaVuSans-30"/>
      </g>
     </g>
    </g>
    <g id="ytick_4">
     <g id="line2d_10">
      <g>
       <use style="stroke:#000000;stroke-width:0.8;" x="28.942188" xlink:href="#m3191d5fb06" y="213.786821"/>
      </g>
     </g>
     <g id="text_10">
      <!-- 1 -->
      <g transform="translate(15.579688 217.58604)scale(0.1 -0.1)">
       <use xlink:href="#DejaVuSans-31"/>
      </g>
     </g>
    </g>
    <g id="ytick_5">
     <g id="line2d_11">
      <g>
       <use style="stroke:#000000;stroke-width:0.8;" x="28.942188" xlink:href="#m3191d5fb06" y="187.635517"/>
      </g>
     </g>
     <g id="text_11">
      <!-- 2 -->
      <g transform="translate(15.579688 191.434736)scale(0.1 -0.1)">
       <use xlink:href="#DejaVuSans-32"/>
      </g>
     </g>
    </g>
   </g>
   <g id="line2d_12">
    <path clip-path="url(#pef95f54b86)" d="M 47.080369 213.786821 
L 48.534332 210.972405 
L 49.261313 209.924927 
L 49.988294 209.119693 
L 50.715275 208.555945 
L 51.442257 208.230912 
L 52.169238 208.139857 
L 52.896219 208.276158 
L 53.6232 208.631388 
L 54.350182 209.195423 
L 55.077163 209.95656 
L 56.531125 212.016206 
L 57.985088 214.69031 
L 59.43905 217.842995 
L 61.619994 223.147954 
L 65.981881 233.988351 
L 67.435844 237.166595 
L 68.889806 239.938125 
L 70.343769 242.220811 
L 71.797731 243.957549 
L 73.251694 245.117912 
L 73.978675 245.479904 
L 74.705656 245.698733 
L 75.432637 245.778183 
L 76.159619 245.723624 
L 76.8866 245.541938 
L 78.340562 244.83176 
L 79.794525 243.729371 
L 81.248487 242.333841 
L 87.064337 236.146879 
L 88.5183 235.04449 
L 89.972262 234.334312 
L 90.699243 234.152626 
L 91.426225 234.098067 
L 92.153206 234.177517 
L 92.880187 234.396346 
L 93.607168 234.758338 
L 94.33415 235.265636 
L 95.788112 236.716287 
L 97.242075 238.731497 
L 98.696037 241.267357 
L 100.149999 244.253983 
L 102.330943 249.368357 
L 108.146793 263.660455 
L 109.600756 266.591616 
L 111.054718 268.974608 
L 111.781699 269.91969 
L 112.50868 270.680827 
L 113.235662 271.244862 
L 113.962643 271.600092 
L 114.689624 271.736393 
L 115.416605 271.645338 
L 116.143587 271.320305 
L 116.870568 270.756557 
L 117.597549 269.951323 
L 118.32453 268.903845 
L 119.051512 267.615423 
L 120.505474 264.331315 
L 121.959437 260.150791 
L 123.413399 255.15791 
L 124.867361 249.467025 
L 127.048305 239.938125 
L 133.591136 209.918527 
L 135.045099 204.222477 
L 136.499061 199.293818 
L 137.953024 195.295056 
L 138.680005 193.688498 
L 139.406986 192.363796 
L 140.133967 191.33347 
L 140.860949 190.607932 
L 141.58793 190.195389 
L 142.314911 190.101761 
L 143.041892 190.330624 
L 143.768874 190.883163 
L 144.495855 191.758148 
L 145.222836 192.951937 
L 145.949817 194.458486 
L 147.40378 198.373918 
L 148.857742 203.409925 
L 150.311705 209.437839 
L 151.765667 216.298618 
L 153.946611 227.741878 
L 160.489442 263.577632 
L 161.943404 270.438411 
L 163.397367 276.466325 
L 164.851329 281.502332 
L 166.305292 285.417764 
L 167.032273 286.924313 
L 167.759254 288.118102 
L 168.486236 288.993087 
L 169.213217 289.545626 
L 169.940198 289.774489 
L 170.667179 289.680861 
L 171.394161 289.268318 
L 172.121142 288.54278 
L 172.848123 287.512454 
L 173.575104 286.187752 
L 175.029067 282.707294 
L 176.483029 278.224704 
L 177.936992 272.890691 
L 180.117935 263.67612 
L 183.752842 246.705241 
L 186.660766 233.473132 
L 188.84171 224.71834 
L 190.295673 219.725459 
L 191.749635 215.544935 
L 193.203598 212.260827 
L 193.930579 210.972405 
L 194.65756 209.924927 
L 195.384541 209.119693 
L 196.111523 208.555945 
L 196.838504 208.230912 
L 197.565485 208.139857 
L 198.292466 208.276158 
L 199.019447 208.631388 
L 199.746429 209.195423 
L 200.47341 209.95656 
L 201.927372 212.016206 
L 203.381335 214.69031 
L 204.835297 217.842995 
L 207.016241 223.147954 
L 211.378128 233.988351 
L 212.832091 237.166595 
L 214.286053 239.938125 
L 215.740016 242.220811 
L 217.193978 243.957549 
L 218.647941 245.117912 
L 219.374922 245.479904 
L 220.101903 245.698733 
L 220.828885 245.778183 
L 221.555866 245.723624 
L 222.282847 245.541938 
L 223.736809 244.83176 
L 225.190772 243.729371 
L 226.644734 242.333841 
L 232.460584 236.146879 
L 233.914547 235.04449 
L 235.368509 234.334312 
L 236.09549 234.152626 
L 236.822472 234.098067 
L 237.549453 234.177517 
L 238.276434 234.396346 
L 239.003415 234.758338 
L 239.730397 235.265636 
L 241.184359 236.716287 
L 242.638322 238.731497 
L 244.092284 241.267357 
L 245.546247 244.253983 
L 247.72719 249.368357 
L 253.54304 263.660455 
L 254.997003 266.591616 
L 256.450965 268.974608 
L 257.177946 269.91969 
L 257.904928 270.680827 
L 258.631909 271.244862 
L 259.35889 271.600092 
L 260.085871 271.736393 
L 260.812852 271.645338 
L 261.539834 271.320305 
L 262.266815 270.756557 
L 262.993796 269.951323 
L 263.720777 268.903845 
L 264.447759 267.615423 
L 265.901721 264.331315 
L 267.355684 260.150791 
L 268.809646 255.15791 
L 270.263609 249.467025 
L 272.444552 239.938125 
L 278.987383 209.918527 
L 280.441346 204.222477 
L 281.895308 199.293818 
L 283.349271 195.295056 
L 284.076252 193.688498 
L 284.803233 192.363796 
L 285.530214 191.33347 
L 286.257196 190.607932 
L 286.984177 190.195389 
L 287.711158 190.101761 
L 288.438139 190.330624 
L 289.165121 190.883163 
L 289.892102 191.758148 
L 290.619083 192.951937 
L 291.346064 194.458486 
L 292.800027 198.373918 
L 294.253989 203.409925 
L 295.707952 209.437839 
L 297.161914 216.298618 
L 299.342858 227.741878 
L 305.885689 263.577632 
L 307.339652 270.438411 
L 308.793614 276.466325 
L 310.247576 281.502332 
L 311.701539 285.417764 
L 312.42852 286.924313 
L 313.155501 288.118102 
L 313.882483 288.993087 
L 314.609464 289.545626 
L 315.336445 289.774489 
L 316.063426 289.680861 
L 316.790408 289.268318 
L 317.517389 288.54278 
L 318.24437 287.512454 
L 318.971351 286.187752 
L 320.425314 282.707294 
L 321.879276 278.224704 
L 323.333239 272.890691 
L 325.514182 263.67612 
L 329.149089 246.705241 
L 332.057014 233.473132 
L 334.237957 224.71834 
L 335.69192 219.725459 
L 337.145882 215.544935 
L 338.599845 212.260827 
L 339.326826 210.972405 
L 340.053807 209.924927 
L 340.780788 209.119693 
L 341.50777 208.555945 
L 342.234751 208.230912 
L 342.961732 208.139857 
L 343.688713 208.276158 
L 344.415695 208.631388 
L 345.142676 209.195423 
L 345.869657 209.95656 
L 347.323619 212.016206 
L 348.777582 214.69031 
L 350.231544 217.842995 
L 352.412488 223.147954 
L 356.774376 233.988351 
L 358.228338 237.166595 
L 359.6823 239.938125 
L 361.136263 242.220811 
L 362.590225 243.957549 
L 364.044188 245.117912 
L 364.771169 245.479904 
L 365.49815 245.698733 
L 366.225132 245.778183 
L 366.952113 245.723624 
L 367.679094 245.541938 
L 369.133057 244.83176 
L 370.587019 243.729371 
L 372.040981 242.333841 
L 377.856831 236.146879 
L 379.310794 235.04449 
L 380.764756 234.334312 
L 381.491738 234.152626 
L 382.218719 234.098067 
L 382.9457 234.177517 
L 383.672681 234.396346 
L 384.399662 234.758338 
L 385.126644 235.265636 
L 386.580606 236.716287 
L 388.034569 238.731497 
L 389.488531 241.267357 
L 390.942494 244.253983 
L 393.123437 249.368357 
L 398.939287 263.660455 
L 400.39325 266.591616 
L 401.847212 268.974608 
L 402.574193 269.91969 
L 403.301175 270.680827 
L 404.028156 271.244862 
L 404.755137 271.600092 
L 405.482118 271.736393 
L 406.2091 271.645338 
L 406.936081 271.320305 
L 407.663062 270.756557 
L 408.390043 269.951323 
L 409.117024 268.903845 
L 409.844006 267.615423 
L 409.844006 267.615423 
" style="fill:none;stroke:#1f77b4;stroke-linecap:square;stroke-width:1.5;"/>
   </g>
   <g id="patch_3">
    <path d="M 28.942188 294.758125 
L 28.942188 185.118125 
" style="fill:none;stroke:#000000;stroke-linecap:square;stroke-linejoin:miter;stroke-width:0.8;"/>
   </g>
   <g id="patch_4">
    <path d="M 427.982187 294.758125 
L 427.982187 185.118125 
" style="fill:none;stroke:#000000;stroke-linecap:square;stroke-linejoin:miter;stroke-width:0.8;"/>
   </g>
   <g id="patch_5">
    <path d="M 28.942188 294.758125 
L 427.982188 294.758125 
" style="fill:none;stroke:#000000;stroke-linecap:square;stroke-linejoin:miter;stroke-width:0.8;"/>
   </g>
   <g id="patch_6">
    <path d="M 28.942188 185.118125 
L 427.982188 185.118125 
" style="fill:none;stroke:#000000;stroke-linecap:square;stroke-linejoin:miter;stroke-width:0.8;"/>
   </g>
   <g id="text_12">
    <!-- Normal -->
    <g transform="translate(206.7525 179.118125)scale(0.12 -0.12)">
     <defs>
      <path d="M 628 4666 
L 1478 4666 
L 3547 763 
L 3547 4666 
L 4159 4666 
L 4159 0 
L 3309 0 
L 1241 3903 
L 1241 0 
L 628 0 
L 628 4666 
z
" id="DejaVuSans-4e" transform="scale(0.015625)"/>
      <path d="M 1959 3097 
Q 1497 3097 1228 2736 
Q 959 2375 959 1747 
Q 959 1119 1226 758 
Q 1494 397 1959 397 
Q 2419 397 2687 759 
Q 2956 1122 2956 1747 
Q 2956 2369 2687 2733 
Q 2419 3097 1959 3097 
z
M 1959 3584 
Q 2709 3584 3137 3096 
Q 3566 2609 3566 1747 
Q 3566 888 3137 398 
Q 2709 -91 1959 -91 
Q 1206 -91 779 398 
Q 353 888 353 1747 
Q 353 2609 779 3096 
Q 1206 3584 1959 3584 
z
" id="DejaVuSans-6f" transform="scale(0.015625)"/>
      <path d="M 2631 2963 
Q 2534 3019 2420 3045 
Q 2306 3072 2169 3072 
Q 1681 3072 1420 2755 
Q 1159 2438 1159 1844 
L 1159 0 
L 581 0 
L 581 3500 
L 1159 3500 
L 1159 2956 
Q 1341 3275 1631 3429 
Q 1922 3584 2338 3584 
Q 2397 3584 2469 3576 
Q 2541 3569 2628 3553 
L 2631 2963 
z
" id="DejaVuSans-72" transform="scale(0.015625)"/>
      <path d="M 3328 2828 
Q 3544 3216 3844 3400 
Q 4144 3584 4550 3584 
Q 5097 3584 5394 3201 
Q 5691 2819 5691 2113 
L 5691 0 
L 5113 0 
L 5113 2094 
Q 5113 2597 4934 2840 
Q 4756 3084 4391 3084 
Q 3944 3084 3684 2787 
Q 3425 2491 3425 1978 
L 3425 0 
L 2847 0 
L 2847 2094 
Q 2847 2600 2669 2842 
Q 2491 3084 2119 3084 
Q 1678 3084 1418 2786 
Q 1159 2488 1159 1978 
L 1159 0 
L 581 0 
L 581 3500 
L 1159 3500 
L 1159 2956 
Q 1356 3278 1631 3431 
Q 1906 3584 2284 3584 
Q 2666 3584 2933 3390 
Q 3200 3197 3328 2828 
z
" id="DejaVuSans-6d" transform="scale(0.015625)"/>
      <path d="M 2194 1759 
Q 1497 1759 1228 1600 
Q 959 1441 959 1056 
Q 959 750 1161 570 
Q 1363 391 1709 391 
Q 2188 391 2477 730 
Q 2766 1069 2766 1631 
L 2766 1759 
L 2194 1759 
z
M 3341 1997 
L 3341 0 
L 2766 0 
L 2766 531 
Q 2569 213 2275 61 
Q 1981 -91 1556 -91 
Q 1019 -91 701 211 
Q 384 513 384 1019 
Q 384 1609 779 1909 
Q 1175 2209 1959 2209 
L 2766 2209 
L 2766 2266 
Q 2766 2663 2505 2880 
Q 2244 3097 1772 3097 
Q 1472 3097 1187 3025 
Q 903 2953 641 2809 
L 641 3341 
Q 956 3463 1253 3523 
Q 1550 3584 1831 3584 
Q 2591 3584 2966 3190 
Q 3341 2797 3341 1997 
z
" id="DejaVuSans-61" transform="scale(0.015625)"/>
      <path d="M 603 4863 
L 1178 4863 
L 1178 0 
L 603 0 
L 603 4863 
z
" id="DejaVuSans-6c" transform="scale(0.015625)"/>
     </defs>
     <use xlink:href="#DejaVuSans-4e"/>
     <use x="74.804688" xlink:href="#DejaVuSans-6f"/>
     <use x="135.986328" xlink:href="#DejaVuSans-72"/>
     <use x="175.349609" xlink:href="#DejaVuSans-6d"/>
     <use x="272.761719" xlink:href="#DejaVuSans-61"/>
     <use x="334.041016" xlink:href="#DejaVuSans-6c"/>
    </g>
   </g>
  </g>
  <g id="axes_2">
   <g id="patch_7">
    <path d="M 28.942188 131.958125 
L 202.902187 131.958125 
L 202.902187 22.318125 
L 28.942188 22.318125 
z
" style="fill:#ffffff;"/>
   </g>
   <g id="matplotlib.axis_3">
    <g id="xtick_7">
     <g id="line2d_13">
      <g>
       <use style="stroke:#000000;stroke-width:0.8;" x="57.935521" xlink:href="#ma70a089aa2" y="131.958125"/>
      </g>
     </g>
     <g id="text_13">
      <!-- 0 -->
      <g transform="translate(54.754271 146.556562)scale(0.1 -0.1)">
       <use xlink:href="#DejaVuSans-30"/>
      </g>
     </g>
    </g>
    <g id="xtick_8">
     <g id="line2d_14">
      <g>
       <use style="stroke:#000000;stroke-width:0.8;" x="104.417819" xlink:href="#ma70a089aa2" y="131.958125"/>
      </g>
     </g>
     <g id="text_14">
      <!-- 2 -->
      <g transform="translate(101.236569 146.556562)scale(0.1 -0.1)">
       <use xlink:href="#DejaVuSans-32"/>
      </g>
     </g>
    </g>
    <g id="xtick_9">
     <g id="line2d_15">
      <g>
       <use style="stroke:#000000;stroke-width:0.8;" x="150.900117" xlink:href="#ma70a089aa2" y="131.958125"/>
      </g>
     </g>
     <g id="text_15">
      <!-- 4 -->
      <g transform="translate(147.718867 146.556562)scale(0.1 -0.1)">
       <use xlink:href="#DejaVuSans-34"/>
      </g>
     </g>
    </g>
    <g id="xtick_10">
     <g id="line2d_16">
      <g>
       <use style="stroke:#000000;stroke-width:0.8;" x="197.382415" xlink:href="#ma70a089aa2" y="131.958125"/>
      </g>
     </g>
     <g id="text_16">
      <!-- 6 -->
      <g transform="translate(194.201165 146.556562)scale(0.1 -0.1)">
       <defs>
        <path d="M 2113 2584 
Q 1688 2584 1439 2293 
Q 1191 2003 1191 1497 
Q 1191 994 1439 701 
Q 1688 409 2113 409 
Q 2538 409 2786 701 
Q 3034 994 3034 1497 
Q 3034 2003 2786 2293 
Q 2538 2584 2113 2584 
z
M 3366 4563 
L 3366 3988 
Q 3128 4100 2886 4159 
Q 2644 4219 2406 4219 
Q 1781 4219 1451 3797 
Q 1122 3375 1075 2522 
Q 1259 2794 1537 2939 
Q 1816 3084 2150 3084 
Q 2853 3084 3261 2657 
Q 3669 2231 3669 1497 
Q 3669 778 3244 343 
Q 2819 -91 2113 -91 
Q 1303 -91 875 529 
Q 447 1150 447 2328 
Q 447 3434 972 4092 
Q 1497 4750 2381 4750 
Q 2619 4750 2861 4703 
Q 3103 4656 3366 4563 
z
" id="DejaVuSans-36" transform="scale(0.015625)"/>
       </defs>
       <use xlink:href="#DejaVuSans-36"/>
      </g>
     </g>
    </g>
   </g>
   <g id="matplotlib.axis_4">
    <g id="ytick_6">
     <g id="line2d_17">
      <g>
       <use style="stroke:#000000;stroke-width:0.8;" x="28.942188" xlink:href="#m3191d5fb06" y="115.493371"/>
      </g>
     </g>
     <g id="text_17">
      <!-- −2 -->
      <g transform="translate(7.2 119.29259)scale(0.1 -0.1)">
       <use xlink:href="#DejaVuSans-2212"/>
       <use x="83.789062" xlink:href="#DejaVuSans-32"/>
      </g>
     </g>
    </g>
    <g id="ytick_7">
     <g id="line2d_18">
      <g>
       <use style="stroke:#000000;stroke-width:0.8;" x="28.942188" xlink:href="#m3191d5fb06" y="77.138125"/>
      </g>
     </g>
     <g id="text_18">
      <!-- 0 -->
      <g transform="translate(15.579688 80.937344)scale(0.1 -0.1)">
       <use xlink:href="#DejaVuSans-30"/>
      </g>
     </g>
    </g>
    <g id="ytick_8">
     <g id="line2d_19">
      <g>
       <use style="stroke:#000000;stroke-width:0.8;" x="28.942188" xlink:href="#m3191d5fb06" y="38.782879"/>
      </g>
     </g>
     <g id="text_19">
      <!-- 2 -->
      <g transform="translate(15.579688 42.582098)scale(0.1 -0.1)">
       <use xlink:href="#DejaVuSans-32"/>
      </g>
     </g>
    </g>
   </g>
   <g id="line2d_20">
    <path clip-path="url(#p85d61c27a5)" d="M 57.935521 57.960502 
L 58.632755 55.128447 
L 59.097578 54.124526 
L 59.32999 53.886168 
L 59.562401 53.819395 
L 59.794813 53.919349 
L 60.259636 54.593477 
L 60.724459 55.844704 
L 61.421693 58.623061 
L 62.351339 63.490691 
L 64.443043 75.10567 
L 65.140277 78.022986 
L 65.837511 80.085703 
L 66.302334 80.936635 
L 66.767157 81.362571 
L 67.23198 81.380824 
L 67.696803 81.027221 
L 68.161626 80.354255 
L 68.858861 78.894983 
L 70.950564 73.921995 
L 71.415387 73.249029 
L 71.88021 72.895426 
L 72.345033 72.913679 
L 72.809856 73.339615 
L 73.274679 74.190547 
L 73.739502 75.464155 
L 74.436737 78.112895 
L 75.366383 82.755121 
L 77.922909 96.684018 
L 78.620143 99.124606 
L 79.084966 100.096399 
L 79.549789 100.456855 
L 79.782201 100.390082 
L 80.014612 100.151724 
L 80.479435 99.147803 
L 80.944258 97.43481 
L 81.641493 93.572466 
L 82.338727 88.299301 
L 83.268373 79.54463 
L 86.289723 49.0613 
L 86.986957 44.399875 
L 87.45178 42.250284 
L 87.916603 40.96265 
L 88.149014 40.660118 
L 88.381426 40.591458 
L 88.613837 40.759291 
L 88.846249 41.164486 
L 89.311072 42.681587 
L 89.775895 45.114383 
L 90.473129 50.350778 
L 91.402775 59.802487 
L 92.797244 77.138125 
L 94.424125 97.05766 
L 95.353771 105.869388 
L 96.051005 110.48986 
L 96.515828 112.470108 
L 96.980651 113.516959 
L 97.213063 113.684792 
L 97.445474 113.616132 
L 97.677886 113.3136 
L 98.142709 112.025966 
L 98.607532 109.876375 
L 99.304766 105.21495 
L 100.234412 96.894151 
L 103.720584 62.315503 
L 104.417819 57.960502 
L 105.115053 55.128447 
L 105.579876 54.124526 
L 105.812288 53.886168 
L 106.044699 53.819395 
L 106.277111 53.919349 
L 106.741934 54.593477 
L 107.206757 55.844704 
L 107.903991 58.623061 
L 108.833637 63.490691 
L 110.92534 75.10567 
L 111.622575 78.022986 
L 112.319809 80.085703 
L 112.784632 80.936635 
L 113.249455 81.362571 
L 113.714278 81.380824 
L 114.179101 81.027221 
L 114.643924 80.354255 
L 115.341159 78.894983 
L 117.432862 73.921995 
L 117.897685 73.249029 
L 118.362508 72.895426 
L 118.827331 72.913679 
L 119.292154 73.339615 
L 119.756977 74.190547 
L 120.2218 75.464155 
L 120.919035 78.112895 
L 121.84868 82.755121 
L 124.405207 96.684018 
L 125.102441 99.124606 
L 125.567264 100.096399 
L 126.032087 100.456855 
L 126.264499 100.390082 
L 126.49691 100.151724 
L 126.961733 99.147803 
L 127.426556 97.43481 
L 128.123791 93.572466 
L 128.821025 88.299301 
L 129.750671 79.54463 
L 132.77202 49.0613 
L 133.469255 44.399875 
L 133.934078 42.250284 
L 134.398901 40.96265 
L 134.631312 40.660118 
L 134.863724 40.591458 
L 135.096135 40.759291 
L 135.328547 41.164486 
L 135.79337 42.681587 
L 136.258193 45.114383 
L 136.955427 50.350778 
L 137.885073 59.802487 
L 139.279542 77.138125 
L 140.906423 97.05766 
L 141.836069 105.869388 
L 142.533303 110.48986 
L 142.998126 112.470108 
L 143.462949 113.516959 
L 143.695361 113.684792 
L 143.927772 113.616132 
L 144.160183 113.3136 
L 144.625006 112.025966 
L 145.089829 109.876375 
L 145.787064 105.21495 
L 146.71671 96.894151 
L 150.202882 62.315503 
L 150.900117 57.960502 
L 151.597351 55.128447 
L 152.062174 54.124526 
L 152.294586 53.886168 
L 152.526997 53.819395 
L 152.759409 53.919349 
L 153.224232 54.593477 
L 153.689055 55.844704 
L 154.386289 58.623061 
L 155.315935 63.490691 
L 157.407638 75.10567 
L 158.104873 78.022986 
L 158.802107 80.085703 
L 159.26693 80.936635 
L 159.731753 81.362571 
L 160.196576 81.380824 
L 160.661399 81.027221 
L 161.126222 80.354255 
L 161.823457 78.894983 
L 163.91516 73.921995 
L 164.379983 73.249029 
L 164.844806 72.895426 
L 165.309629 72.913679 
L 165.774452 73.339615 
L 166.239275 74.190547 
L 166.704098 75.464155 
L 167.401332 78.112895 
L 168.330978 82.755121 
L 170.887505 96.684018 
L 171.584739 99.124606 
L 172.049562 100.096399 
L 172.514385 100.456855 
L 172.746797 100.390082 
L 172.979208 100.151724 
L 173.444031 99.147803 
L 173.908854 97.43481 
L 173.908854 97.43481 
" style="fill:none;stroke:#1f77b4;stroke-linecap:square;stroke-width:1.5;"/>
   </g>
   <g id="patch_8">
    <path d="M 28.942188 131.958125 
L 28.942188 22.318125 
" style="fill:none;stroke:#000000;stroke-linecap:square;stroke-linejoin:miter;stroke-width:0.8;"/>
   </g>
   <g id="patch_9">
    <path d="M 202.902187 131.958125 
L 202.902187 22.318125 
" style="fill:none;stroke:#000000;stroke-linecap:square;stroke-linejoin:miter;stroke-width:0.8;"/>
   </g>
   <g id="patch_10">
    <path d="M 28.942187 131.958125 
L 202.902187 131.958125 
" style="fill:none;stroke:#000000;stroke-linecap:square;stroke-linejoin:miter;stroke-width:0.8;"/>
   </g>
   <g id="patch_11">
    <path d="M 28.942187 22.318125 
L 202.902187 22.318125 
" style="fill:none;stroke:#000000;stroke-linecap:square;stroke-linejoin:miter;stroke-width:0.8;"/>
   </g>
   <g id="text_20">
    <!-- Zoomed out -->
    <g transform="translate(79.391562 16.318125)scale(0.12 -0.12)">
     <defs>
      <path d="M 359 4666 
L 4025 4666 
L 4025 4184 
L 1075 531 
L 4097 531 
L 4097 0 
L 288 0 
L 288 481 
L 3238 4134 
L 359 4134 
L 359 4666 
z
" id="DejaVuSans-5a" transform="scale(0.015625)"/>
      <path d="M 3597 1894 
L 3597 1613 
L 953 1613 
Q 991 1019 1311 708 
Q 1631 397 2203 397 
Q 2534 397 2845 478 
Q 3156 559 3463 722 
L 3463 178 
Q 3153 47 2828 -22 
Q 2503 -91 2169 -91 
Q 1331 -91 842 396 
Q 353 884 353 1716 
Q 353 2575 817 3079 
Q 1281 3584 2069 3584 
Q 2775 3584 3186 3129 
Q 3597 2675 3597 1894 
z
M 3022 2063 
Q 3016 2534 2758 2815 
Q 2500 3097 2075 3097 
Q 1594 3097 1305 2825 
Q 1016 2553 972 2059 
L 3022 2063 
z
" id="DejaVuSans-65" transform="scale(0.015625)"/>
      <path d="M 2906 2969 
L 2906 4863 
L 3481 4863 
L 3481 0 
L 2906 0 
L 2906 525 
Q 2725 213 2448 61 
Q 2172 -91 1784 -91 
Q 1150 -91 751 415 
Q 353 922 353 1747 
Q 353 2572 751 3078 
Q 1150 3584 1784 3584 
Q 2172 3584 2448 3432 
Q 2725 3281 2906 2969 
z
M 947 1747 
Q 947 1113 1208 752 
Q 1469 391 1925 391 
Q 2381 391 2643 752 
Q 2906 1113 2906 1747 
Q 2906 2381 2643 2742 
Q 2381 3103 1925 3103 
Q 1469 3103 1208 2742 
Q 947 2381 947 1747 
z
" id="DejaVuSans-64" transform="scale(0.015625)"/>
      <path id="DejaVuSans-20" transform="scale(0.015625)"/>
      <path d="M 544 1381 
L 544 3500 
L 1119 3500 
L 1119 1403 
Q 1119 906 1312 657 
Q 1506 409 1894 409 
Q 2359 409 2629 706 
Q 2900 1003 2900 1516 
L 2900 3500 
L 3475 3500 
L 3475 0 
L 2900 0 
L 2900 538 
Q 2691 219 2414 64 
Q 2138 -91 1772 -91 
Q 1169 -91 856 284 
Q 544 659 544 1381 
z
M 1991 3584 
L 1991 3584 
z
" id="DejaVuSans-75" transform="scale(0.015625)"/>
      <path d="M 1172 4494 
L 1172 3500 
L 2356 3500 
L 2356 3053 
L 1172 3053 
L 1172 1153 
Q 1172 725 1289 603 
Q 1406 481 1766 481 
L 2356 481 
L 2356 0 
L 1766 0 
Q 1100 0 847 248 
Q 594 497 594 1153 
L 594 3053 
L 172 3053 
L 172 3500 
L 594 3500 
L 594 4494 
L 1172 4494 
z
" id="DejaVuSans-74" transform="scale(0.015625)"/>
     </defs>
     <use xlink:href="#DejaVuSans-5a"/>
     <use x="68.505859" xlink:href="#DejaVuSans-6f"/>
     <use x="129.6875" xlink:href="#DejaVuSans-6f"/>
     <use x="190.869141" xlink:href="#DejaVuSans-6d"/>
     <use x="288.28125" xlink:href="#DejaVuSans-65"/>
     <use x="349.804688" xlink:href="#DejaVuSans-64"/>
     <use x="413.28125" xlink:href="#DejaVuSans-20"/>
     <use x="445.068359" xlink:href="#DejaVuSans-6f"/>
     <use x="506.25" xlink:href="#DejaVuSans-75"/>
     <use x="569.628906" xlink:href="#DejaVuSans-74"/>
    </g>
   </g>
  </g>
  <g id="axes_3">
   <g id="patch_12">
    <path d="M 254.022187 131.958125 
L 427.982188 131.958125 
L 427.982188 22.318125 
L 254.022187 22.318125 
z
" style="fill:#ffffff;"/>
   </g>
   <g id="matplotlib.axis_5">
    <g id="xtick_11">
     <g id="line2d_21">
      <g>
       <use style="stroke:#000000;stroke-width:0.8;" x="271.627358" xlink:href="#ma70a089aa2" y="131.958125"/>
      </g>
     </g>
     <g id="text_21">
      <!-- 1.5 -->
      <g transform="translate(263.675795 146.556562)scale(0.1 -0.1)">
       <defs>
        <path d="M 684 794 
L 1344 794 
L 1344 0 
L 684 0 
L 684 794 
z
" id="DejaVuSans-2e" transform="scale(0.015625)"/>
       </defs>
       <use xlink:href="#DejaVuSans-31"/>
       <use x="63.623047" xlink:href="#DejaVuSans-2e"/>
       <use x="95.410156" xlink:href="#DejaVuSans-35"/>
      </g>
     </g>
    </g>
    <g id="xtick_12">
     <g id="line2d_22">
      <g>
       <use style="stroke:#000000;stroke-width:0.8;" x="306.489081" xlink:href="#ma70a089aa2" y="131.958125"/>
      </g>
     </g>
     <g id="text_22">
      <!-- 2.0 -->
      <g transform="translate(298.537519 146.556562)scale(0.1 -0.1)">
       <use xlink:href="#DejaVuSans-32"/>
       <use x="63.623047" xlink:href="#DejaVuSans-2e"/>
       <use x="95.410156" xlink:href="#DejaVuSans-30"/>
      </g>
     </g>
    </g>
    <g id="xtick_13">
     <g id="line2d_23">
      <g>
       <use style="stroke:#000000;stroke-width:0.8;" x="341.350805" xlink:href="#ma70a089aa2" y="131.958125"/>
      </g>
     </g>
     <g id="text_23">
      <!-- 2.5 -->
      <g transform="translate(333.399242 146.556562)scale(0.1 -0.1)">
       <use xlink:href="#DejaVuSans-32"/>
       <use x="63.623047" xlink:href="#DejaVuSans-2e"/>
       <use x="95.410156" xlink:href="#DejaVuSans-35"/>
      </g>
     </g>
    </g>
    <g id="xtick_14">
     <g id="line2d_24">
      <g>
       <use style="stroke:#000000;stroke-width:0.8;" x="376.212528" xlink:href="#ma70a089aa2" y="131.958125"/>
      </g>
     </g>
     <g id="text_24">
      <!-- 3.0 -->
      <g transform="translate(368.260966 146.556562)scale(0.1 -0.1)">
       <use xlink:href="#DejaVuSans-33"/>
       <use x="63.623047" xlink:href="#DejaVuSans-2e"/>
       <use x="95.410156" xlink:href="#DejaVuSans-30"/>
      </g>
     </g>
    </g>
    <g id="xtick_15">
     <g id="line2d_25">
      <g>
       <use style="stroke:#000000;stroke-width:0.8;" x="411.074252" xlink:href="#ma70a089aa2" y="131.958125"/>
      </g>
     </g>
     <g id="text_25">
      <!-- 3.5 -->
      <g transform="translate(403.122689 146.556562)scale(0.1 -0.1)">
       <use xlink:href="#DejaVuSans-33"/>
       <use x="63.623047" xlink:href="#DejaVuSans-2e"/>
       <use x="95.410156" xlink:href="#DejaVuSans-35"/>
      </g>
     </g>
    </g>
   </g>
   <g id="matplotlib.axis_6">
    <g id="ytick_9">
     <g id="line2d_26">
      <g>
       <use style="stroke:#000000;stroke-width:0.8;" x="254.022187" xlink:href="#m3191d5fb06" y="105.90456"/>
      </g>
     </g>
     <g id="text_26">
      <!-- −0.5 -->
      <g transform="translate(222.739375 109.703778)scale(0.1 -0.1)">
       <use xlink:href="#DejaVuSans-2212"/>
       <use x="83.789062" xlink:href="#DejaVuSans-30"/>
       <use x="147.412109" xlink:href="#DejaVuSans-2e"/>
       <use x="179.199219" xlink:href="#DejaVuSans-35"/>
      </g>
     </g>
    </g>
    <g id="ytick_10">
     <g id="line2d_27">
      <g>
       <use style="stroke:#000000;stroke-width:0.8;" x="254.022187" xlink:href="#m3191d5fb06" y="77.138125"/>
      </g>
     </g>
     <g id="text_27">
      <!-- 0.0 -->
      <g transform="translate(231.119062 80.937344)scale(0.1 -0.1)">
       <use xlink:href="#DejaVuSans-30"/>
       <use x="63.623047" xlink:href="#DejaVuSans-2e"/>
       <use x="95.410156" xlink:href="#DejaVuSans-30"/>
      </g>
     </g>
    </g>
    <g id="ytick_11">
     <g id="line2d_28">
      <g>
       <use style="stroke:#000000;stroke-width:0.8;" x="254.022187" xlink:href="#m3191d5fb06" y="48.37169"/>
      </g>
     </g>
     <g id="text_28">
      <!-- 0.5 -->
      <g transform="translate(231.119062 52.170909)scale(0.1 -0.1)">
       <use xlink:href="#DejaVuSans-30"/>
       <use x="63.623047" xlink:href="#DejaVuSans-2e"/>
       <use x="95.410156" xlink:href="#DejaVuSans-35"/>
      </g>
     </g>
    </g>
   </g>
   <g id="line2d_29">
    <path clip-path="url(#p8fe0d3317b)" d="M 167.042187 19.605256 
L 168.436656 13.413541 
L 169.133891 11.10909 
L 169.831125 9.337574 
L 170.52836 8.097329 
L 171.225594 7.382255 
L 171.922829 7.181936 
L 172.620063 7.481797 
L 173.317298 8.263303 
L 174.014532 9.504181 
L 174.711767 11.178681 
L 175.409001 13.257862 
L 176.80347 18.500445 
L 178.197939 24.948998 
L 180.289642 36.195823 
L 185.867518 67.643238 
L 187.261987 74.213814 
L 188.656456 79.792707 
L 190.050925 84.226168 
L 190.748159 85.980858 
L 191.445394 87.4176 
L 192.142628 88.533656 
L 192.839863 89.330038 
L 193.537097 89.811462 
L 194.234332 89.986252 
L 194.931566 89.866222 
L 195.628801 89.466514 
L 196.326035 88.805413 
L 197.02327 87.904122 
L 198.417739 85.478867 
L 199.812208 82.408699 
L 202.601145 75.336322 
L 204.692849 70.266706 
L 206.087318 67.489734 
L 206.784552 66.372128 
L 207.481787 65.470837 
L 208.179021 64.809736 
L 208.876256 64.410028 
L 209.57349 64.289998 
L 210.270725 64.464788 
L 210.967959 64.946212 
L 211.665194 65.742594 
L 212.362428 66.85865 
L 213.059662 68.295392 
L 213.756897 70.050082 
L 215.151366 74.483543 
L 216.545835 80.062436 
L 217.940304 86.633012 
L 220.032007 97.884635 
L 225.609883 129.327252 
L 227.004352 135.775805 
L 228.398821 141.018388 
L 229.096055 143.097569 
L 229.79329 144.772069 
L 230.490524 146.012947 
L 231.187759 146.794453 
L 231.884993 147.094314 
L 232.582228 146.893995 
L 233.279462 146.178921 
L 233.976697 144.938676 
L 234.673931 143.16716 
L 235.371165 140.862709 
L 236.0684 138.02818 
L 237.462869 130.803142 
L 238.857338 121.605991 
L 240.251807 110.621652 
L 241.646276 98.101706 
L 243.737979 77.138125 
L 250.013089 11.09501 
L 251.357515 -1 
M 264.898115 -1 
L 266.049482 10.037495 
L 267.443951 25.131211 
L 269.535654 50.306382 
L 275.810765 129.145039 
L 277.205234 144.238755 
L 278.599703 157.500166 
L 279.994171 168.57938 
L 281.38864 177.193331 
L 282.085875 180.507738 
L 282.783109 183.134074 
L 283.480344 185.059042 
L 284.177578 186.274626 
L 284.874813 186.778125 
L 285.572047 186.572145 
L 286.269282 185.66455 
L 286.966516 184.068366 
L 287.663751 181.801648 
L 288.360985 178.887304 
L 289.05822 175.352876 
L 290.452689 166.5556 
L 291.847157 155.712551 
L 293.241626 143.18124 
L 295.33333 122.102214 
L 301.60844 56.174544 
L 303.002909 43.654598 
L 304.397378 32.670259 
L 305.791847 23.473108 
L 307.186316 16.24807 
L 307.88355 13.413541 
L 308.580785 11.10909 
L 309.278019 9.337574 
L 309.975254 8.097329 
L 310.672488 7.382255 
L 311.369723 7.181936 
L 312.066957 7.481797 
L 312.764192 8.263303 
L 313.461426 9.504181 
L 314.15866 11.178681 
L 314.855895 13.257862 
L 316.250364 18.500445 
L 317.644833 24.948998 
L 319.736536 36.195823 
L 325.314412 67.643238 
L 326.708881 74.213814 
L 328.10335 79.792707 
L 329.497819 84.226168 
L 330.195053 85.980858 
L 330.892288 87.4176 
L 331.589522 88.533656 
L 332.286757 89.330038 
L 332.983991 89.811462 
L 333.681226 89.986252 
L 334.37846 89.866222 
L 335.075695 89.466514 
L 335.772929 88.805413 
L 336.470163 87.904122 
L 337.864632 85.478867 
L 339.259101 82.408699 
L 342.048039 75.336322 
L 344.139743 70.266706 
L 345.534212 67.489734 
L 346.231446 66.372128 
L 346.92868 65.470837 
L 347.625915 64.809736 
L 348.323149 64.410028 
L 349.020384 64.289998 
L 349.717618 64.464788 
L 350.414853 64.946212 
L 351.112087 65.742594 
L 351.809322 66.85865 
L 352.506556 68.295392 
L 353.203791 70.050082 
L 354.59826 74.483543 
L 355.992729 80.062436 
L 357.387198 86.633012 
L 359.478901 97.884635 
L 365.056777 129.327252 
L 366.451246 135.775805 
L 367.845715 141.018388 
L 368.542949 143.097569 
L 369.240183 144.772069 
L 369.937418 146.012947 
L 370.634652 146.794453 
L 371.331887 147.094314 
L 372.029121 146.893995 
L 372.726356 146.178921 
L 373.42359 144.938676 
L 374.120825 143.16716 
L 374.818059 140.862709 
L 375.515294 138.02818 
L 376.909763 130.803142 
L 378.304232 121.605991 
L 379.698701 110.621652 
L 381.093169 98.101706 
L 383.184873 77.138125 
L 389.459983 11.09501 
L 390.804408 -1 
M 404.345009 -1 
L 405.496376 10.037495 
L 406.890845 25.131211 
L 408.982548 50.306382 
L 415.257658 129.145039 
L 416.652127 144.238755 
L 418.046596 157.500166 
L 419.441065 168.57938 
L 420.835534 177.193331 
L 421.532769 180.507738 
L 422.230003 183.134074 
L 422.927238 185.059042 
L 423.624472 186.274626 
L 424.321707 186.778125 
L 425.018941 186.572145 
L 425.716175 185.66455 
L 426.41341 184.068366 
L 427.110644 181.801648 
L 427.807879 178.887304 
L 428.505113 175.352876 
L 429.899582 166.5556 
L 431.294051 155.712551 
L 432.68852 143.18124 
L 434.780224 122.102214 
L 436.182187 107.078736 
L 436.182187 107.078736 
" style="fill:none;stroke:#1f77b4;stroke-linecap:square;stroke-width:1.5;"/>
   </g>
   <g id="patch_13">
    <path d="M 254.022187 131.958125 
L 254.022187 22.318125 
" style="fill:none;stroke:#000000;stroke-linecap:square;stroke-linejoin:miter;stroke-width:0.8;"/>
   </g>
   <g id="patch_14">
    <path d="M 427.982188 131.958125 
L 427.982188 22.318125 
" style="fill:none;stroke:#000000;stroke-linecap:square;stroke-linejoin:miter;stroke-width:0.8;"/>
   </g>
   <g id="patch_15">
    <path d="M 254.022187 131.958125 
L 427.982188 131.958125 
" style="fill:none;stroke:#000000;stroke-linecap:square;stroke-linejoin:miter;stroke-width:0.8;"/>
   </g>
   <g id="patch_16">
    <path d="M 254.022187 22.318125 
L 427.982188 22.318125 
" style="fill:none;stroke:#000000;stroke-linecap:square;stroke-linejoin:miter;stroke-width:0.8;"/>
   </g>
   <g id="text_29">
    <!-- Zoomed in -->
    <g transform="translate(308.828125 16.318125)scale(0.12 -0.12)">
     <defs>
      <path d="M 603 3500 
L 1178 3500 
L 1178 0 
L 603 0 
L 603 3500 
z
M 603 4863 
L 1178 4863 
L 1178 4134 
L 603 4134 
L 603 4863 
z
" id="DejaVuSans-69" transform="scale(0.015625)"/>
      <path d="M 3513 2113 
L 3513 0 
L 2938 0 
L 2938 2094 
Q 2938 2591 2744 2837 
Q 2550 3084 2163 3084 
Q 1697 3084 1428 2787 
Q 1159 2491 1159 1978 
L 1159 0 
L 581 0 
L 581 3500 
L 1159 3500 
L 1159 2956 
Q 1366 3272 1645 3428 
Q 1925 3584 2291 3584 
Q 2894 3584 3203 3211 
Q 3513 2838 3513 2113 
z
" id="DejaVuSans-6e" transform="scale(0.015625)"/>
     </defs>
     <use xlink:href="#DejaVuSans-5a"/>
     <use x="68.505859" xlink:href="#DejaVuSans-6f"/>
     <use x="129.6875" xlink:href="#DejaVuSans-6f"/>
     <use x="190.869141" xlink:href="#DejaVuSans-6d"/>
     <use x="288.28125" xlink:href="#DejaVuSans-65"/>
     <use x="349.804688" xlink:href="#DejaVuSans-64"/>
     <use x="413.28125" xlink:href="#DejaVuSans-20"/>
     <use x="445.068359" xlink:href="#DejaVuSans-69"/>
     <use x="472.851562" xlink:href="#DejaVuSans-6e"/>
    </g>
   </g>
  </g>
 </g>
 <defs>
  <clipPath id="pef95f54b86">
   <rect height="109.64" width="399.04" x="28.942188" y="185.118125"/>
  </clipPath>
  <clipPath id="p85d61c27a5">
   <rect height="109.64" width="173.96" x="28.942188" y="22.318125"/>
  </clipPath>
  <clipPath id="p8fe0d3317b">
   <rect height="109.64" width="173.96" x="254.022187" y="22.318125"/>
  </clipPath>
 </defs>
</svg>
