<?xml version="1.0" encoding="utf-8" standalone="no"?>
<!DOCTYPE svg PUBLIC "-//W3C//DTD SVG 1.1//EN"
  "http://www.w3.org/Graphics/SVG/1.1/DTD/svg11.dtd">
<svg height="211.341176pt" version="1.1" viewBox="0 0 684 211.341176" width="684pt" xmlns="http://www.w3.org/2000/svg" xmlns:xlink="http://www.w3.org/1999/xlink">
 <metadata>
  <rdf:RDF xmlns:cc="http://creativecommons.org/ns#" xmlns:dc="http://purl.org/dc/elements/1.1/" xmlns:rdf="http://www.w3.org/1999/02/22-rdf-syntax-ns#">
   <cc:Work>
    <dc:type rdf:resource="http://purl.org/dc/dcmitype/StillImage"/>
    <dc:date>2023-05-10T14:46:57.463559</dc:date>
    <dc:format>image/svg+xml</dc:format>
    <dc:creator>
     <cc:Agent>
      <dc:title>Matplotlib v3.4.3, https://matplotlib.org/</dc:title>
     </cc:Agent>
    </dc:creator>
   </cc:Work>
  </rdf:RDF>
 </metadata>
 <defs>
  <style type="text/css">*{stroke-linecap:butt;stroke-linejoin:round;}</style>
 </defs>
 <g id="figure_1">
  <g id="patch_1">
   <path d="M 0 211.341176 
L 684 211.341176 
L 684 0 
L 0 0 
z
" style="fill:#ffffff;"/>
  </g>
  <g id="axes_1">
   <g id="patch_2">
    <path d="M 184.447059 105.670588 
C 184.447059 91.704999 180.733304 77.987403 173.687903 65.92921 
C 166.642503 53.871017 156.515674 43.900472 144.349371 37.04345 
L 105.670588 105.670588 
L 184.447059 105.670588 
z
" style="fill:#e3eef9;"/>
   </g>
   <g id="patch_3">
    <path d="M 144.349371 37.04345 
C 131.458491 29.778051 116.777646 26.289694 101.996424 26.979846 
C 87.215202 27.669999 72.923271 32.51113 60.765458 40.946083 
L 105.670588 105.670588 
L 144.349371 37.04345 
z
" style="fill:#b7d4ea;"/>
   </g>
   <g id="patch_4">
    <path d="M 60.765458 40.946083 
C 47.236554 50.332283 36.9851 63.728151 31.460454 79.239769 
C 25.935807 94.751386 25.411203 111.611587 29.960812 127.436664 
L 105.670588 105.670588 
L 60.765458 40.946083 
z
" style="fill:#6aaed6;"/>
   </g>
   <g id="patch_5">
    <path d="M 29.960812 127.436664 
C 34.973617 144.872897 45.859173 160.053282 60.765458 170.395094 
C 75.671743 180.736906 93.702569 185.618379 111.790246 184.209 
L 105.670588 105.670588 
L 29.960812 127.436664 
z
" style="fill:#2e7ebc;"/>
   </g>
   <g id="patch_6">
    <path d="M 111.790246 184.209 
C 131.557605 182.668741 150.032698 173.720985 163.497128 159.166604 
C 176.961558 144.612222 184.447059 125.497865 184.447059 105.670588 
L 105.670588 105.670588 
L 111.790246 184.209 
z
" style="fill:#084a91;"/>
   </g>
   <g id="matplotlib.axis_1"/>
   <g id="matplotlib.axis_2"/>
   <g id="text_1">
    <!-- a -->
    <g transform="translate(180.489635 64.714447)scale(0.1 -0.1)">
     <defs>
      <path d="M 2194 1759 
Q 1497 1759 1228 1600 
Q 959 1441 959 1056 
Q 959 750 1161 570 
Q 1363 391 1709 391 
Q 2188 391 2477 730 
Q 2766 1069 2766 1631 
L 2766 1759 
L 2194 1759 
z
M 3341 1997 
L 3341 0 
L 2766 0 
L 2766 531 
Q 2569 213 2275 61 
Q 1981 -91 1556 -91 
Q 1019 -91 701 211 
Q 384 513 384 1019 
Q 384 1609 779 1909 
Q 1175 2209 1959 2209 
L 2766 2209 
L 2766 2266 
Q 2766 2663 2505 2880 
Q 2244 3097 1772 3097 
Q 1472 3097 1187 3025 
Q 903 2953 641 2809 
L 641 3341 
Q 956 3463 1253 3523 
Q 1550 3584 1831 3584 
Q 2591 3584 2966 3190 
Q 3341 2797 3341 1997 
z
" id="DejaVuSans-61" transform="scale(0.015625)"/>
     </defs>
     <use xlink:href="#DejaVuSans-61"/>
    </g>
   </g>
   <g id="text_2">
    <!-- b -->
    <g transform="translate(95.28057 21.870147)scale(0.1 -0.1)">
     <defs>
      <path d="M 3116 1747 
Q 3116 2381 2855 2742 
Q 2594 3103 2138 3103 
Q 1681 3103 1420 2742 
Q 1159 2381 1159 1747 
Q 1159 1113 1420 752 
Q 1681 391 2138 391 
Q 2594 391 2855 752 
Q 3116 1113 3116 1747 
z
M 1159 2969 
Q 1341 3281 1617 3432 
Q 1894 3584 2278 3584 
Q 2916 3584 3314 3078 
Q 3713 2572 3713 1747 
Q 3713 922 3314 415 
Q 2916 -91 2278 -91 
Q 1894 -91 1617 61 
Q 1341 213 1159 525 
L 1159 0 
L 581 0 
L 581 4863 
L 1159 4863 
L 1159 2969 
z
" id="DejaVuSans-62" transform="scale(0.015625)"/>
     </defs>
     <use xlink:href="#DejaVuSans-62"/>
    </g>
   </g>
   <g id="text_3">
    <!-- c -->
    <g transform="translate(18.541003 79.356062)scale(0.1 -0.1)">
     <defs>
      <path d="M 3122 3366 
L 3122 2828 
Q 2878 2963 2633 3030 
Q 2388 3097 2138 3097 
Q 1578 3097 1268 2742 
Q 959 2388 959 1747 
Q 959 1106 1268 751 
Q 1578 397 2138 397 
Q 2388 397 2633 464 
Q 2878 531 3122 666 
L 3122 134 
Q 2881 22 2623 -34 
Q 2366 -91 2075 -91 
Q 1284 -91 818 406 
Q 353 903 353 1747 
Q 353 2603 823 3093 
Q 1294 3584 2113 3584 
Q 2378 3584 2631 3529 
Q 2884 3475 3122 3366 
z
" id="DejaVuSans-63" transform="scale(0.015625)"/>
     </defs>
     <use xlink:href="#DejaVuSans-63"/>
    </g>
   </g>
   <g id="text_4">
    <!-- d -->
    <g transform="translate(49.926508 179.626919)scale(0.1 -0.1)">
     <defs>
      <path d="M 2906 2969 
L 2906 4863 
L 3481 4863 
L 3481 0 
L 2906 0 
L 2906 525 
Q 2725 213 2448 61 
Q 2172 -91 1784 -91 
Q 1150 -91 751 415 
Q 353 922 353 1747 
Q 353 2572 751 3078 
Q 1150 3584 1784 3584 
Q 2172 3584 2448 3432 
Q 2725 3281 2906 2969 
z
M 947 1747 
Q 947 1113 1208 752 
Q 1469 391 1925 391 
Q 2381 391 2643 752 
Q 2906 1113 2906 1747 
Q 2906 2381 2643 2742 
Q 2381 3103 1925 3103 
Q 1469 3103 1208 2742 
Q 947 2381 947 1747 
z
" id="DejaVuSans-64" transform="scale(0.015625)"/>
     </defs>
     <use xlink:href="#DejaVuSans-64"/>
    </g>
   </g>
   <g id="text_5">
    <!-- e -->
    <g transform="translate(169.279782 167.27558)scale(0.1 -0.1)">
     <defs>
      <path d="M 3597 1894 
L 3597 1613 
L 953 1613 
Q 991 1019 1311 708 
Q 1631 397 2203 397 
Q 2534 397 2845 478 
Q 3156 559 3463 722 
L 3463 178 
Q 3153 47 2828 -22 
Q 2503 -91 2169 -91 
Q 1331 -91 842 396 
Q 353 884 353 1716 
Q 353 2575 817 3079 
Q 1281 3584 2069 3584 
Q 2775 3584 3186 3129 
Q 3597 2675 3597 1894 
z
M 3022 2063 
Q 3016 2534 2758 2815 
Q 2500 3097 2075 3097 
Q 1594 3097 1305 2825 
Q 1016 2553 972 2059 
L 3022 2063 
z
" id="DejaVuSans-65" transform="scale(0.015625)"/>
     </defs>
     <use xlink:href="#DejaVuSans-65"/>
    </g>
   </g>
  </g>
  <g id="axes_2">
   <g id="patch_7">
    <path d="M 420.776471 105.670588 
C 420.776471 89.841084 416.005251 74.373172 407.088174 61.294222 
C 398.171097 48.215271 385.515545 38.122806 370.780275 32.339639 
L 342 105.670588 
L 420.776471 105.670588 
z
" style="fill:#e3eef9;"/>
   </g>
   <g id="patch_8">
    <path d="M 370.780275 32.339639 
C 357.53691 27.142002 343.129616 25.627734 329.095 27.958341 
C 315.060385 30.288948 301.915794 36.378519 291.063162 45.57757 
L 342 105.670588 
L 370.780275 32.339639 
z
" style="fill:#b7d4ea;"/>
   </g>
   <g id="patch_9">
    <path d="M 291.063162 45.57757 
C 278.374735 56.332702 269.412888 70.835082 265.469442 86.994238 
C 261.525997 103.153393 262.799996 120.153706 269.107795 135.544637 
L 342 105.670588 
L 291.063162 45.57757 
z
" style="fill:#6aaed6;"/>
   </g>
   <g id="patch_10">
    <path d="M 269.107795 135.544637 
C 276.027352 152.428247 288.602474 166.394332 304.670305 175.040799 
C 320.738135 183.687266 339.321454 186.488249 357.224025 182.961994 
L 342 105.670588 
L 269.107795 135.544637 
z
" style="fill:#2e7ebc;"/>
   </g>
   <g id="patch_11">
    <path d="M 357.224025 182.961994 
C 375.126597 179.435739 391.259616 169.796707 402.848286 155.702762 
C 414.436956 141.608817 420.776472 123.91713 420.776471 105.670581 
L 342 105.670588 
L 357.224025 182.961994 
z
" style="fill:#084a91;"/>
   </g>
   <g id="matplotlib.axis_3"/>
   <g id="matplotlib.axis_4"/>
   <g id="text_6">
    <!-- a -->
    <g transform="translate(413.596991 59.61596)scale(0.1 -0.1)">
     <use xlink:href="#DejaVuSans-61"/>
    </g>
   </g>
   <g id="text_7">
    <!-- b -->
    <g transform="translate(321.456063 22.946492)scale(0.1 -0.1)">
     <use xlink:href="#DejaVuSans-62"/>
    </g>
   </g>
   <g id="text_8">
    <!-- c -->
    <g transform="translate(252.317949 87.885977)scale(0.1 -0.1)">
     <use xlink:href="#DejaVuSans-63"/>
    </g>
   </g>
   <g id="text_9">
    <!-- d -->
    <g transform="translate(294.588897 184.737195)scale(0.1 -0.1)">
     <use xlink:href="#DejaVuSans-64"/>
    </g>
   </g>
   <g id="text_10">
    <!-- e -->
    <g transform="translate(408.933115 163.465354)scale(0.1 -0.1)">
     <use xlink:href="#DejaVuSans-65"/>
    </g>
   </g>
  </g>
  <g id="axes_3">
   <g id="patch_12">
    <path d="M 657.105882 105.670588 
C 657.105882 86.041977 649.769636 67.104942 636.545926 52.599223 
C 623.322216 38.093504 605.142866 29.041264 585.597987 27.230164 
L 578.329412 105.670588 
L 657.105882 105.670588 
z
" style="fill:#e3eef9;"/>
   </g>
   <g id="patch_13">
    <path d="M 585.597987 27.230164 
C 567.476626 25.550973 549.321538 30.202191 534.239861 40.387789 
C 519.158183 50.573388 508.062348 65.677145 502.851342 83.114141 
L 578.329412 105.670588 
L 585.597987 27.230164 
z
" style="fill:#b7d4ea;"/>
   </g>
   <g id="patch_14">
    <path d="M 502.851342 83.114141 
C 498.251157 98.507217 498.468152 114.945283 503.473064 130.211564 
C 508.477976 145.477845 518.035235 158.853791 530.855984 168.535571 
L 578.329412 105.670588 
L 502.851342 83.114141 
z
" style="fill:#6aaed6;"/>
   </g>
   <g id="patch_15">
    <path d="M 530.855984 168.535571 
C 542.547276 177.364424 556.472911 182.759243 571.06084 184.111013 
C 585.648769 185.462783 600.328589 182.718648 613.443111 176.188391 
L 578.329412 105.670588 
L 530.855984 168.535571 
z
" style="fill:#2e7ebc;"/>
   </g>
   <g id="patch_16">
    <path d="M 613.443111 176.188391 
C 626.557633 169.658133 637.594066 159.597094 645.30652 147.141051 
C 653.018974 134.685008 657.105884 120.321006 657.105882 105.670581 
L 578.329412 105.670588 
L 613.443111 176.188391 
z
" style="fill:#084a91;"/>
   </g>
   <g id="matplotlib.axis_5"/>
   <g id="matplotlib.axis_6"/>
   <g id="text_11">
    <!-- a -->
    <g transform="translate(642.367577 50.051461)scale(0.1 -0.1)">
     <use xlink:href="#DejaVuSans-61"/>
    </g>
   </g>
   <g id="text_12">
    <!-- b -->
    <g transform="translate(523.482468 36.618884)scale(0.1 -0.1)">
     <use xlink:href="#DejaVuSans-62"/>
    </g>
   </g>
   <g id="text_13">
    <!-- c -->
    <g transform="translate(490.488992 135.425037)scale(0.1 -0.1)">
     <use xlink:href="#DejaVuSans-63"/>
    </g>
   </g>
   <g id="text_14">
    <!-- d -->
    <g transform="translate(563.985546 194.71443)scale(0.1 -0.1)">
     <use xlink:href="#DejaVuSans-64"/>
    </g>
   </g>
   <g id="text_15">
    <!-- e -->
    <g transform="translate(652.004231 154.047472)scale(0.1 -0.1)">
     <use xlink:href="#DejaVuSans-65"/>
    </g>
   </g>
  </g>
 </g>
</svg>
