<?xml version="1.0" encoding="utf-8" standalone="no"?>
<!DOCTYPE svg PUBLIC "-//W3C//DTD SVG 1.1//EN"
  "http://www.w3.org/Graphics/SVG/1.1/DTD/svg11.dtd">
<svg height="629.091156pt" version="1.1" viewBox="0 0 659.881984 629.091156" width="659.881984pt" xmlns="http://www.w3.org/2000/svg" xmlns:xlink="http://www.w3.org/1999/xlink">
 <metadata>
  <rdf:RDF xmlns:cc="http://creativecommons.org/ns#" xmlns:dc="http://purl.org/dc/elements/1.1/" xmlns:rdf="http://www.w3.org/1999/02/22-rdf-syntax-ns#">
   <cc:Work>
    <dc:type rdf:resource="http://purl.org/dc/dcmitype/StillImage"/>
    <dc:date>2023-05-10T15:46:26.156216</dc:date>
    <dc:format>image/svg+xml</dc:format>
    <dc:creator>
     <cc:Agent>
      <dc:title>Matplotlib v3.4.3, https://matplotlib.org/</dc:title>
     </cc:Agent>
    </dc:creator>
   </cc:Work>
  </rdf:RDF>
 </metadata>
 <defs>
  <style type="text/css">*{stroke-linecap:butt;stroke-linejoin:round;}</style>
 </defs>
 <g id="figure_1">
  <g id="patch_1">
   <path d="M 0 629.091156 
L 659.881984 629.091156 
L 659.881984 -0 
L 0 -0 
z
" style="fill:#ffffff;"/>
  </g>
  <g id="axes_1">
   <g id="patch_2">
    <path d="M 235.173391 579.453562 
L 625.773391 579.453562 
L 625.773391 25.053562 
L 235.173391 25.053562 
z
" style="fill:#ffffff;"/>
   </g>
   <g id="matplotlib.axis_1">
    <g id="xtick_1">
     <g id="text_1">
      <!-- 0 -->
      <g style="fill:#262626;" transform="translate(230.624203 599.819328)scale(0.143 -0.143)">
       <defs>
        <path d="M 2034 4250 
Q 1547 4250 1301 3770 
Q 1056 3291 1056 2328 
Q 1056 1369 1301 889 
Q 1547 409 2034 409 
Q 2525 409 2770 889 
Q 3016 1369 3016 2328 
Q 3016 3291 2770 3770 
Q 2525 4250 2034 4250 
z
M 2034 4750 
Q 2819 4750 3233 4129 
Q 3647 3509 3647 2328 
Q 3647 1150 3233 529 
Q 2819 -91 2034 -91 
Q 1250 -91 836 529 
Q 422 1150 422 2328 
Q 422 3509 836 4129 
Q 1250 4750 2034 4750 
z
" id="DejaVuSans-30" transform="scale(0.015625)"/>
       </defs>
       <use xlink:href="#DejaVuSans-30"/>
      </g>
     </g>
    </g>
    <g id="xtick_2">
     <g id="text_2">
      <!-- 10 -->
      <g style="fill:#262626;" transform="translate(292.503587 599.819328)scale(0.143 -0.143)">
       <defs>
        <path d="M 794 531 
L 1825 531 
L 1825 4091 
L 703 3866 
L 703 4441 
L 1819 4666 
L 2450 4666 
L 2450 531 
L 3481 531 
L 3481 0 
L 794 0 
L 794 531 
z
" id="DejaVuSans-31" transform="scale(0.015625)"/>
       </defs>
       <use xlink:href="#DejaVuSans-31"/>
       <use x="63.623047" xlink:href="#DejaVuSans-30"/>
      </g>
     </g>
    </g>
    <g id="xtick_3">
     <g id="text_3">
      <!-- 20 -->
      <g style="fill:#262626;" transform="translate(358.932158 599.819328)scale(0.143 -0.143)">
       <defs>
        <path d="M 1228 531 
L 3431 531 
L 3431 0 
L 469 0 
L 469 531 
Q 828 903 1448 1529 
Q 2069 2156 2228 2338 
Q 2531 2678 2651 2914 
Q 2772 3150 2772 3378 
Q 2772 3750 2511 3984 
Q 2250 4219 1831 4219 
Q 1534 4219 1204 4116 
Q 875 4013 500 3803 
L 500 4441 
Q 881 4594 1212 4672 
Q 1544 4750 1819 4750 
Q 2544 4750 2975 4387 
Q 3406 4025 3406 3419 
Q 3406 3131 3298 2873 
Q 3191 2616 2906 2266 
Q 2828 2175 2409 1742 
Q 1991 1309 1228 531 
z
" id="DejaVuSans-32" transform="scale(0.015625)"/>
       </defs>
       <use xlink:href="#DejaVuSans-32"/>
       <use x="63.623047" xlink:href="#DejaVuSans-30"/>
      </g>
     </g>
    </g>
    <g id="xtick_4">
     <g id="text_4">
      <!-- 30 -->
      <g style="fill:#262626;" transform="translate(425.36073 599.819328)scale(0.143 -0.143)">
       <defs>
        <path d="M 2597 2516 
Q 3050 2419 3304 2112 
Q 3559 1806 3559 1356 
Q 3559 666 3084 287 
Q 2609 -91 1734 -91 
Q 1441 -91 1130 -33 
Q 819 25 488 141 
L 488 750 
Q 750 597 1062 519 
Q 1375 441 1716 441 
Q 2309 441 2620 675 
Q 2931 909 2931 1356 
Q 2931 1769 2642 2001 
Q 2353 2234 1838 2234 
L 1294 2234 
L 1294 2753 
L 1863 2753 
Q 2328 2753 2575 2939 
Q 2822 3125 2822 3475 
Q 2822 3834 2567 4026 
Q 2313 4219 1838 4219 
Q 1578 4219 1281 4162 
Q 984 4106 628 3988 
L 628 4550 
Q 988 4650 1302 4700 
Q 1616 4750 1894 4750 
Q 2613 4750 3031 4423 
Q 3450 4097 3450 3541 
Q 3450 3153 3228 2886 
Q 3006 2619 2597 2516 
z
" id="DejaVuSans-33" transform="scale(0.015625)"/>
       </defs>
       <use xlink:href="#DejaVuSans-33"/>
       <use x="63.623047" xlink:href="#DejaVuSans-30"/>
      </g>
     </g>
    </g>
    <g id="xtick_5">
     <g id="text_5">
      <!-- 40 -->
      <g style="fill:#262626;" transform="translate(491.789301 599.819328)scale(0.143 -0.143)">
       <defs>
        <path d="M 2419 4116 
L 825 1625 
L 2419 1625 
L 2419 4116 
z
M 2253 4666 
L 3047 4666 
L 3047 1625 
L 3713 1625 
L 3713 1100 
L 3047 1100 
L 3047 0 
L 2419 0 
L 2419 1100 
L 313 1100 
L 313 1709 
L 2253 4666 
z
" id="DejaVuSans-34" transform="scale(0.015625)"/>
       </defs>
       <use xlink:href="#DejaVuSans-34"/>
       <use x="63.623047" xlink:href="#DejaVuSans-30"/>
      </g>
     </g>
    </g>
    <g id="xtick_6">
     <g id="text_6">
      <!-- 50 -->
      <g style="fill:#262626;" transform="translate(558.217873 599.819328)scale(0.143 -0.143)">
       <defs>
        <path d="M 691 4666 
L 3169 4666 
L 3169 4134 
L 1269 4134 
L 1269 2991 
Q 1406 3038 1543 3061 
Q 1681 3084 1819 3084 
Q 2600 3084 3056 2656 
Q 3513 2228 3513 1497 
Q 3513 744 3044 326 
Q 2575 -91 1722 -91 
Q 1428 -91 1123 -41 
Q 819 9 494 109 
L 494 744 
Q 775 591 1075 516 
Q 1375 441 1709 441 
Q 2250 441 2565 725 
Q 2881 1009 2881 1497 
Q 2881 1984 2565 2268 
Q 2250 2553 1709 2553 
Q 1456 2553 1204 2497 
Q 953 2441 691 2322 
L 691 4666 
z
" id="DejaVuSans-35" transform="scale(0.015625)"/>
       </defs>
       <use xlink:href="#DejaVuSans-35"/>
       <use x="63.623047" xlink:href="#DejaVuSans-30"/>
      </g>
     </g>
    </g>
    <g id="text_7">
     <!-- count -->
     <g style="fill:#262626;" transform="translate(408.467641 618.646844)scale(0.156 -0.156)">
      <defs>
       <path d="M 3122 3366 
L 3122 2828 
Q 2878 2963 2633 3030 
Q 2388 3097 2138 3097 
Q 1578 3097 1268 2742 
Q 959 2388 959 1747 
Q 959 1106 1268 751 
Q 1578 397 2138 397 
Q 2388 397 2633 464 
Q 2878 531 3122 666 
L 3122 134 
Q 2881 22 2623 -34 
Q 2366 -91 2075 -91 
Q 1284 -91 818 406 
Q 353 903 353 1747 
Q 353 2603 823 3093 
Q 1294 3584 2113 3584 
Q 2378 3584 2631 3529 
Q 2884 3475 3122 3366 
z
" id="DejaVuSans-63" transform="scale(0.015625)"/>
       <path d="M 1959 3097 
Q 1497 3097 1228 2736 
Q 959 2375 959 1747 
Q 959 1119 1226 758 
Q 1494 397 1959 397 
Q 2419 397 2687 759 
Q 2956 1122 2956 1747 
Q 2956 2369 2687 2733 
Q 2419 3097 1959 3097 
z
M 1959 3584 
Q 2709 3584 3137 3096 
Q 3566 2609 3566 1747 
Q 3566 888 3137 398 
Q 2709 -91 1959 -91 
Q 1206 -91 779 398 
Q 353 888 353 1747 
Q 353 2609 779 3096 
Q 1206 3584 1959 3584 
z
" id="DejaVuSans-6f" transform="scale(0.015625)"/>
       <path d="M 544 1381 
L 544 3500 
L 1119 3500 
L 1119 1403 
Q 1119 906 1312 657 
Q 1506 409 1894 409 
Q 2359 409 2629 706 
Q 2900 1003 2900 1516 
L 2900 3500 
L 3475 3500 
L 3475 0 
L 2900 0 
L 2900 538 
Q 2691 219 2414 64 
Q 2138 -91 1772 -91 
Q 1169 -91 856 284 
Q 544 659 544 1381 
z
M 1991 3584 
L 1991 3584 
z
" id="DejaVuSans-75" transform="scale(0.015625)"/>
       <path d="M 3513 2113 
L 3513 0 
L 2938 0 
L 2938 2094 
Q 2938 2591 2744 2837 
Q 2550 3084 2163 3084 
Q 1697 3084 1428 2787 
Q 1159 2491 1159 1978 
L 1159 0 
L 581 0 
L 581 3500 
L 1159 3500 
L 1159 2956 
Q 1366 3272 1645 3428 
Q 1925 3584 2291 3584 
Q 2894 3584 3203 3211 
Q 3513 2838 3513 2113 
z
" id="DejaVuSans-6e" transform="scale(0.015625)"/>
       <path d="M 1172 4494 
L 1172 3500 
L 2356 3500 
L 2356 3053 
L 1172 3053 
L 1172 1153 
Q 1172 725 1289 603 
Q 1406 481 1766 481 
L 2356 481 
L 2356 0 
L 1766 0 
Q 1100 0 847 248 
Q 594 497 594 1153 
L 594 3053 
L 172 3053 
L 172 3500 
L 594 3500 
L 594 4494 
L 1172 4494 
z
" id="DejaVuSans-74" transform="scale(0.015625)"/>
      </defs>
      <use xlink:href="#DejaVuSans-63"/>
      <use x="54.980469" xlink:href="#DejaVuSans-6f"/>
      <use x="116.162109" xlink:href="#DejaVuSans-75"/>
      <use x="179.541016" xlink:href="#DejaVuSans-6e"/>
      <use x="242.919922" xlink:href="#DejaVuSans-74"/>
     </g>
    </g>
   </g>
   <g id="matplotlib.axis_2">
    <g id="ytick_1">
     <g id="text_8">
      <!-- Soma -->
      <g style="fill:#262626;" transform="translate(185.153 39.726445)scale(0.143 -0.143)">
       <defs>
        <path d="M 3425 4513 
L 3425 3897 
Q 3066 4069 2747 4153 
Q 2428 4238 2131 4238 
Q 1616 4238 1336 4038 
Q 1056 3838 1056 3469 
Q 1056 3159 1242 3001 
Q 1428 2844 1947 2747 
L 2328 2669 
Q 3034 2534 3370 2195 
Q 3706 1856 3706 1288 
Q 3706 609 3251 259 
Q 2797 -91 1919 -91 
Q 1588 -91 1214 -16 
Q 841 59 441 206 
L 441 856 
Q 825 641 1194 531 
Q 1563 422 1919 422 
Q 2459 422 2753 634 
Q 3047 847 3047 1241 
Q 3047 1584 2836 1778 
Q 2625 1972 2144 2069 
L 1759 2144 
Q 1053 2284 737 2584 
Q 422 2884 422 3419 
Q 422 4038 858 4394 
Q 1294 4750 2059 4750 
Q 2388 4750 2728 4690 
Q 3069 4631 3425 4513 
z
" id="DejaVuSans-53" transform="scale(0.015625)"/>
        <path d="M 3328 2828 
Q 3544 3216 3844 3400 
Q 4144 3584 4550 3584 
Q 5097 3584 5394 3201 
Q 5691 2819 5691 2113 
L 5691 0 
L 5113 0 
L 5113 2094 
Q 5113 2597 4934 2840 
Q 4756 3084 4391 3084 
Q 3944 3084 3684 2787 
Q 3425 2491 3425 1978 
L 3425 0 
L 2847 0 
L 2847 2094 
Q 2847 2600 2669 2842 
Q 2491 3084 2119 3084 
Q 1678 3084 1418 2786 
Q 1159 2488 1159 1978 
L 1159 0 
L 581 0 
L 581 3500 
L 1159 3500 
L 1159 2956 
Q 1356 3278 1631 3431 
Q 1906 3584 2284 3584 
Q 2666 3584 2933 3390 
Q 3200 3197 3328 2828 
z
" id="DejaVuSans-6d" transform="scale(0.015625)"/>
        <path d="M 2194 1759 
Q 1497 1759 1228 1600 
Q 959 1441 959 1056 
Q 959 750 1161 570 
Q 1363 391 1709 391 
Q 2188 391 2477 730 
Q 2766 1069 2766 1631 
L 2766 1759 
L 2194 1759 
z
M 3341 1997 
L 3341 0 
L 2766 0 
L 2766 531 
Q 2569 213 2275 61 
Q 1981 -91 1556 -91 
Q 1019 -91 701 211 
Q 384 513 384 1019 
Q 384 1609 779 1909 
Q 1175 2209 1959 2209 
L 2766 2209 
L 2766 2266 
Q 2766 2663 2505 2880 
Q 2244 3097 1772 3097 
Q 1472 3097 1187 3025 
Q 903 2953 641 2809 
L 641 3341 
Q 956 3463 1253 3523 
Q 1550 3584 1831 3584 
Q 2591 3584 2966 3190 
Q 3341 2797 3341 1997 
z
" id="DejaVuSans-61" transform="scale(0.015625)"/>
       </defs>
       <use xlink:href="#DejaVuSans-53"/>
       <use x="63.476562" xlink:href="#DejaVuSans-6f"/>
       <use x="124.658203" xlink:href="#DejaVuSans-6d"/>
       <use x="222.070312" xlink:href="#DejaVuSans-61"/>
      </g>
     </g>
    </g>
    <g id="ytick_2">
     <g id="text_9">
      <!-- Fresco -->
      <g style="fill:#262626;" transform="translate(180.067563 58.206445)scale(0.143 -0.143)">
       <defs>
        <path d="M 628 4666 
L 3309 4666 
L 3309 4134 
L 1259 4134 
L 1259 2759 
L 3109 2759 
L 3109 2228 
L 1259 2228 
L 1259 0 
L 628 0 
L 628 4666 
z
" id="DejaVuSans-46" transform="scale(0.015625)"/>
        <path d="M 2631 2963 
Q 2534 3019 2420 3045 
Q 2306 3072 2169 3072 
Q 1681 3072 1420 2755 
Q 1159 2438 1159 1844 
L 1159 0 
L 581 0 
L 581 3500 
L 1159 3500 
L 1159 2956 
Q 1341 3275 1631 3429 
Q 1922 3584 2338 3584 
Q 2397 3584 2469 3576 
Q 2541 3569 2628 3553 
L 2631 2963 
z
" id="DejaVuSans-72" transform="scale(0.015625)"/>
        <path d="M 3597 1894 
L 3597 1613 
L 953 1613 
Q 991 1019 1311 708 
Q 1631 397 2203 397 
Q 2534 397 2845 478 
Q 3156 559 3463 722 
L 3463 178 
Q 3153 47 2828 -22 
Q 2503 -91 2169 -91 
Q 1331 -91 842 396 
Q 353 884 353 1716 
Q 353 2575 817 3079 
Q 1281 3584 2069 3584 
Q 2775 3584 3186 3129 
Q 3597 2675 3597 1894 
z
M 3022 2063 
Q 3016 2534 2758 2815 
Q 2500 3097 2075 3097 
Q 1594 3097 1305 2825 
Q 1016 2553 972 2059 
L 3022 2063 
z
" id="DejaVuSans-65" transform="scale(0.015625)"/>
        <path d="M 2834 3397 
L 2834 2853 
Q 2591 2978 2328 3040 
Q 2066 3103 1784 3103 
Q 1356 3103 1142 2972 
Q 928 2841 928 2578 
Q 928 2378 1081 2264 
Q 1234 2150 1697 2047 
L 1894 2003 
Q 2506 1872 2764 1633 
Q 3022 1394 3022 966 
Q 3022 478 2636 193 
Q 2250 -91 1575 -91 
Q 1294 -91 989 -36 
Q 684 19 347 128 
L 347 722 
Q 666 556 975 473 
Q 1284 391 1588 391 
Q 1994 391 2212 530 
Q 2431 669 2431 922 
Q 2431 1156 2273 1281 
Q 2116 1406 1581 1522 
L 1381 1569 
Q 847 1681 609 1914 
Q 372 2147 372 2553 
Q 372 3047 722 3315 
Q 1072 3584 1716 3584 
Q 2034 3584 2315 3537 
Q 2597 3491 2834 3397 
z
" id="DejaVuSans-73" transform="scale(0.015625)"/>
       </defs>
       <use xlink:href="#DejaVuSans-46"/>
       <use x="50.269531" xlink:href="#DejaVuSans-72"/>
       <use x="89.132812" xlink:href="#DejaVuSans-65"/>
       <use x="150.65625" xlink:href="#DejaVuSans-73"/>
       <use x="202.755859" xlink:href="#DejaVuSans-63"/>
       <use x="257.736328" xlink:href="#DejaVuSans-6f"/>
      </g>
     </g>
    </g>
    <g id="ytick_3">
     <g id="text_10">
      <!-- Arete -->
      <g style="fill:#262626;" transform="translate(187.130422 76.686445)scale(0.143 -0.143)">
       <defs>
        <path d="M 2188 4044 
L 1331 1722 
L 3047 1722 
L 2188 4044 
z
M 1831 4666 
L 2547 4666 
L 4325 0 
L 3669 0 
L 3244 1197 
L 1141 1197 
L 716 0 
L 50 0 
L 1831 4666 
z
" id="DejaVuSans-41" transform="scale(0.015625)"/>
       </defs>
       <use xlink:href="#DejaVuSans-41"/>
       <use x="68.408203" xlink:href="#DejaVuSans-72"/>
       <use x="107.271484" xlink:href="#DejaVuSans-65"/>
       <use x="168.794922" xlink:href="#DejaVuSans-74"/>
       <use x="208.003906" xlink:href="#DejaVuSans-65"/>
      </g>
     </g>
    </g>
    <g id="ytick_4">
     <g id="text_11">
      <!-- Bonnat -->
      <g style="fill:#262626;" transform="translate(174.617922 95.166445)scale(0.143 -0.143)">
       <defs>
        <path d="M 1259 2228 
L 1259 519 
L 2272 519 
Q 2781 519 3026 730 
Q 3272 941 3272 1375 
Q 3272 1813 3026 2020 
Q 2781 2228 2272 2228 
L 1259 2228 
z
M 1259 4147 
L 1259 2741 
L 2194 2741 
Q 2656 2741 2882 2914 
Q 3109 3088 3109 3444 
Q 3109 3797 2882 3972 
Q 2656 4147 2194 4147 
L 1259 4147 
z
M 628 4666 
L 2241 4666 
Q 2963 4666 3353 4366 
Q 3744 4066 3744 3513 
Q 3744 3084 3544 2831 
Q 3344 2578 2956 2516 
Q 3422 2416 3680 2098 
Q 3938 1781 3938 1306 
Q 3938 681 3513 340 
Q 3088 0 2303 0 
L 628 0 
L 628 4666 
z
" id="DejaVuSans-42" transform="scale(0.015625)"/>
       </defs>
       <use xlink:href="#DejaVuSans-42"/>
       <use x="68.603516" xlink:href="#DejaVuSans-6f"/>
       <use x="129.785156" xlink:href="#DejaVuSans-6e"/>
       <use x="193.164062" xlink:href="#DejaVuSans-6e"/>
       <use x="256.542969" xlink:href="#DejaVuSans-61"/>
       <use x="317.822266" xlink:href="#DejaVuSans-74"/>
      </g>
     </g>
    </g>
    <g id="ytick_5">
     <g id="text_12">
      <!-- A. Morin -->
      <g style="fill:#262626;" transform="translate(167.050094 113.646445)scale(0.143 -0.143)">
       <defs>
        <path d="M 684 794 
L 1344 794 
L 1344 0 
L 684 0 
L 684 794 
z
" id="DejaVuSans-2e" transform="scale(0.015625)"/>
        <path id="DejaVuSans-20" transform="scale(0.015625)"/>
        <path d="M 628 4666 
L 1569 4666 
L 2759 1491 
L 3956 4666 
L 4897 4666 
L 4897 0 
L 4281 0 
L 4281 4097 
L 3078 897 
L 2444 897 
L 1241 4097 
L 1241 0 
L 628 0 
L 628 4666 
z
" id="DejaVuSans-4d" transform="scale(0.015625)"/>
        <path d="M 603 3500 
L 1178 3500 
L 1178 0 
L 603 0 
L 603 3500 
z
M 603 4863 
L 1178 4863 
L 1178 4134 
L 603 4134 
L 603 4863 
z
" id="DejaVuSans-69" transform="scale(0.015625)"/>
       </defs>
       <use xlink:href="#DejaVuSans-41"/>
       <use x="66.658203" xlink:href="#DejaVuSans-2e"/>
       <use x="98.445312" xlink:href="#DejaVuSans-20"/>
       <use x="130.232422" xlink:href="#DejaVuSans-4d"/>
       <use x="216.511719" xlink:href="#DejaVuSans-6f"/>
       <use x="277.693359" xlink:href="#DejaVuSans-72"/>
       <use x="318.806641" xlink:href="#DejaVuSans-69"/>
       <use x="346.589844" xlink:href="#DejaVuSans-6e"/>
      </g>
     </g>
    </g>
    <g id="ytick_6">
     <g id="text_13">
      <!-- Dandelion -->
      <g style="fill:#262626;" transform="translate(153.201437 132.126445)scale(0.143 -0.143)">
       <defs>
        <path d="M 1259 4147 
L 1259 519 
L 2022 519 
Q 2988 519 3436 956 
Q 3884 1394 3884 2338 
Q 3884 3275 3436 3711 
Q 2988 4147 2022 4147 
L 1259 4147 
z
M 628 4666 
L 1925 4666 
Q 3281 4666 3915 4102 
Q 4550 3538 4550 2338 
Q 4550 1131 3912 565 
Q 3275 0 1925 0 
L 628 0 
L 628 4666 
z
" id="DejaVuSans-44" transform="scale(0.015625)"/>
        <path d="M 2906 2969 
L 2906 4863 
L 3481 4863 
L 3481 0 
L 2906 0 
L 2906 525 
Q 2725 213 2448 61 
Q 2172 -91 1784 -91 
Q 1150 -91 751 415 
Q 353 922 353 1747 
Q 353 2572 751 3078 
Q 1150 3584 1784 3584 
Q 2172 3584 2448 3432 
Q 2725 3281 2906 2969 
z
M 947 1747 
Q 947 1113 1208 752 
Q 1469 391 1925 391 
Q 2381 391 2643 752 
Q 2906 1113 2906 1747 
Q 2906 2381 2643 2742 
Q 2381 3103 1925 3103 
Q 1469 3103 1208 2742 
Q 947 2381 947 1747 
z
" id="DejaVuSans-64" transform="scale(0.015625)"/>
        <path d="M 603 4863 
L 1178 4863 
L 1178 0 
L 603 0 
L 603 4863 
z
" id="DejaVuSans-6c" transform="scale(0.015625)"/>
       </defs>
       <use xlink:href="#DejaVuSans-44"/>
       <use x="77.001953" xlink:href="#DejaVuSans-61"/>
       <use x="138.28125" xlink:href="#DejaVuSans-6e"/>
       <use x="201.660156" xlink:href="#DejaVuSans-64"/>
       <use x="265.136719" xlink:href="#DejaVuSans-65"/>
       <use x="326.660156" xlink:href="#DejaVuSans-6c"/>
       <use x="354.443359" xlink:href="#DejaVuSans-69"/>
       <use x="382.226562" xlink:href="#DejaVuSans-6f"/>
       <use x="443.408203" xlink:href="#DejaVuSans-6e"/>
      </g>
     </g>
    </g>
    <g id="ytick_7">
     <g id="text_14">
      <!-- Pralus -->
      <g style="fill:#262626;" transform="translate(182.174578 150.606445)scale(0.143 -0.143)">
       <defs>
        <path d="M 1259 4147 
L 1259 2394 
L 2053 2394 
Q 2494 2394 2734 2622 
Q 2975 2850 2975 3272 
Q 2975 3691 2734 3919 
Q 2494 4147 2053 4147 
L 1259 4147 
z
M 628 4666 
L 2053 4666 
Q 2838 4666 3239 4311 
Q 3641 3956 3641 3272 
Q 3641 2581 3239 2228 
Q 2838 1875 2053 1875 
L 1259 1875 
L 1259 0 
L 628 0 
L 628 4666 
z
" id="DejaVuSans-50" transform="scale(0.015625)"/>
       </defs>
       <use xlink:href="#DejaVuSans-50"/>
       <use x="58.552734" xlink:href="#DejaVuSans-72"/>
       <use x="99.666016" xlink:href="#DejaVuSans-61"/>
       <use x="160.945312" xlink:href="#DejaVuSans-6c"/>
       <use x="188.728516" xlink:href="#DejaVuSans-75"/>
       <use x="252.107422" xlink:href="#DejaVuSans-73"/>
      </g>
     </g>
    </g>
    <g id="ytick_8">
     <g id="text_15">
      <!-- Domori -->
      <g style="fill:#262626;" transform="translate(173.382313 169.086445)scale(0.143 -0.143)">
       <use xlink:href="#DejaVuSans-44"/>
       <use x="77.001953" xlink:href="#DejaVuSans-6f"/>
       <use x="138.183594" xlink:href="#DejaVuSans-6d"/>
       <use x="235.595703" xlink:href="#DejaVuSans-6f"/>
       <use x="296.777344" xlink:href="#DejaVuSans-72"/>
       <use x="337.890625" xlink:href="#DejaVuSans-69"/>
      </g>
     </g>
    </g>
    <g id="ytick_9">
     <g id="text_16">
      <!-- Valrhona -->
      <g style="fill:#262626;" transform="translate(162.996938 187.566445)scale(0.143 -0.143)">
       <defs>
        <path d="M 1831 0 
L 50 4666 
L 709 4666 
L 2188 738 
L 3669 4666 
L 4325 4666 
L 2547 0 
L 1831 0 
z
" id="DejaVuSans-56" transform="scale(0.015625)"/>
        <path d="M 3513 2113 
L 3513 0 
L 2938 0 
L 2938 2094 
Q 2938 2591 2744 2837 
Q 2550 3084 2163 3084 
Q 1697 3084 1428 2787 
Q 1159 2491 1159 1978 
L 1159 0 
L 581 0 
L 581 4863 
L 1159 4863 
L 1159 2956 
Q 1366 3272 1645 3428 
Q 1925 3584 2291 3584 
Q 2894 3584 3203 3211 
Q 3513 2838 3513 2113 
z
" id="DejaVuSans-68" transform="scale(0.015625)"/>
       </defs>
       <use xlink:href="#DejaVuSans-56"/>
       <use x="60.658203" xlink:href="#DejaVuSans-61"/>
       <use x="121.9375" xlink:href="#DejaVuSans-6c"/>
       <use x="149.720703" xlink:href="#DejaVuSans-72"/>
       <use x="189.083984" xlink:href="#DejaVuSans-68"/>
       <use x="252.462891" xlink:href="#DejaVuSans-6f"/>
       <use x="313.644531" xlink:href="#DejaVuSans-6e"/>
       <use x="377.023438" xlink:href="#DejaVuSans-61"/>
      </g>
     </g>
    </g>
    <g id="ytick_10">
     <g id="text_17">
      <!-- Guittard -->
      <g style="fill:#262626;" transform="translate(166.875813 206.046445)scale(0.143 -0.143)">
       <defs>
        <path d="M 3809 666 
L 3809 1919 
L 2778 1919 
L 2778 2438 
L 4434 2438 
L 4434 434 
Q 4069 175 3628 42 
Q 3188 -91 2688 -91 
Q 1594 -91 976 548 
Q 359 1188 359 2328 
Q 359 3472 976 4111 
Q 1594 4750 2688 4750 
Q 3144 4750 3555 4637 
Q 3966 4525 4313 4306 
L 4313 3634 
Q 3963 3931 3569 4081 
Q 3175 4231 2741 4231 
Q 1884 4231 1454 3753 
Q 1025 3275 1025 2328 
Q 1025 1384 1454 906 
Q 1884 428 2741 428 
Q 3075 428 3337 486 
Q 3600 544 3809 666 
z
" id="DejaVuSans-47" transform="scale(0.015625)"/>
       </defs>
       <use xlink:href="#DejaVuSans-47"/>
       <use x="77.490234" xlink:href="#DejaVuSans-75"/>
       <use x="140.869141" xlink:href="#DejaVuSans-69"/>
       <use x="168.652344" xlink:href="#DejaVuSans-74"/>
       <use x="207.861328" xlink:href="#DejaVuSans-74"/>
       <use x="247.070312" xlink:href="#DejaVuSans-61"/>
       <use x="308.349609" xlink:href="#DejaVuSans-72"/>
       <use x="347.712891" xlink:href="#DejaVuSans-64"/>
      </g>
     </g>
    </g>
    <g id="ytick_11">
     <g id="text_18">
      <!-- Zotter -->
      <g style="fill:#262626;" transform="translate(181.238375 224.526445)scale(0.143 -0.143)">
       <defs>
        <path d="M 359 4666 
L 4025 4666 
L 4025 4184 
L 1075 531 
L 4097 531 
L 4097 0 
L 288 0 
L 288 481 
L 3238 4134 
L 359 4134 
L 359 4666 
z
" id="DejaVuSans-5a" transform="scale(0.015625)"/>
       </defs>
       <use xlink:href="#DejaVuSans-5a"/>
       <use x="68.505859" xlink:href="#DejaVuSans-6f"/>
       <use x="129.6875" xlink:href="#DejaVuSans-74"/>
       <use x="168.896484" xlink:href="#DejaVuSans-74"/>
       <use x="208.105469" xlink:href="#DejaVuSans-65"/>
       <use x="269.628906" xlink:href="#DejaVuSans-72"/>
      </g>
     </g>
    </g>
    <g id="ytick_12">
     <g id="text_19">
      <!-- Castronovo -->
      <g style="fill:#262626;" transform="translate(144.536531 243.006445)scale(0.143 -0.143)">
       <defs>
        <path d="M 4122 4306 
L 4122 3641 
Q 3803 3938 3442 4084 
Q 3081 4231 2675 4231 
Q 1875 4231 1450 3742 
Q 1025 3253 1025 2328 
Q 1025 1406 1450 917 
Q 1875 428 2675 428 
Q 3081 428 3442 575 
Q 3803 722 4122 1019 
L 4122 359 
Q 3791 134 3420 21 
Q 3050 -91 2638 -91 
Q 1578 -91 968 557 
Q 359 1206 359 2328 
Q 359 3453 968 4101 
Q 1578 4750 2638 4750 
Q 3056 4750 3426 4639 
Q 3797 4528 4122 4306 
z
" id="DejaVuSans-43" transform="scale(0.015625)"/>
        <path d="M 191 3500 
L 800 3500 
L 1894 563 
L 2988 3500 
L 3597 3500 
L 2284 0 
L 1503 0 
L 191 3500 
z
" id="DejaVuSans-76" transform="scale(0.015625)"/>
       </defs>
       <use xlink:href="#DejaVuSans-43"/>
       <use x="69.824219" xlink:href="#DejaVuSans-61"/>
       <use x="131.103516" xlink:href="#DejaVuSans-73"/>
       <use x="183.203125" xlink:href="#DejaVuSans-74"/>
       <use x="222.412109" xlink:href="#DejaVuSans-72"/>
       <use x="261.275391" xlink:href="#DejaVuSans-6f"/>
       <use x="322.457031" xlink:href="#DejaVuSans-6e"/>
       <use x="385.835938" xlink:href="#DejaVuSans-6f"/>
       <use x="447.017578" xlink:href="#DejaVuSans-76"/>
       <use x="506.197266" xlink:href="#DejaVuSans-6f"/>
      </g>
     </g>
    </g>
    <g id="ytick_13">
     <g id="text_20">
      <!-- Hotel Chocolat (Coppeneur) -->
      <g style="fill:#262626;" transform="translate(26.297875 261.486445)scale(0.143 -0.143)">
       <defs>
        <path d="M 628 4666 
L 1259 4666 
L 1259 2753 
L 3553 2753 
L 3553 4666 
L 4184 4666 
L 4184 0 
L 3553 0 
L 3553 2222 
L 1259 2222 
L 1259 0 
L 628 0 
L 628 4666 
z
" id="DejaVuSans-48" transform="scale(0.015625)"/>
        <path d="M 1984 4856 
Q 1566 4138 1362 3434 
Q 1159 2731 1159 2009 
Q 1159 1288 1364 580 
Q 1569 -128 1984 -844 
L 1484 -844 
Q 1016 -109 783 600 
Q 550 1309 550 2009 
Q 550 2706 781 3412 
Q 1013 4119 1484 4856 
L 1984 4856 
z
" id="DejaVuSans-28" transform="scale(0.015625)"/>
        <path d="M 1159 525 
L 1159 -1331 
L 581 -1331 
L 581 3500 
L 1159 3500 
L 1159 2969 
Q 1341 3281 1617 3432 
Q 1894 3584 2278 3584 
Q 2916 3584 3314 3078 
Q 3713 2572 3713 1747 
Q 3713 922 3314 415 
Q 2916 -91 2278 -91 
Q 1894 -91 1617 61 
Q 1341 213 1159 525 
z
M 3116 1747 
Q 3116 2381 2855 2742 
Q 2594 3103 2138 3103 
Q 1681 3103 1420 2742 
Q 1159 2381 1159 1747 
Q 1159 1113 1420 752 
Q 1681 391 2138 391 
Q 2594 391 2855 752 
Q 3116 1113 3116 1747 
z
" id="DejaVuSans-70" transform="scale(0.015625)"/>
        <path d="M 513 4856 
L 1013 4856 
Q 1481 4119 1714 3412 
Q 1947 2706 1947 2009 
Q 1947 1309 1714 600 
Q 1481 -109 1013 -844 
L 513 -844 
Q 928 -128 1133 580 
Q 1338 1288 1338 2009 
Q 1338 2731 1133 3434 
Q 928 4138 513 4856 
z
" id="DejaVuSans-29" transform="scale(0.015625)"/>
       </defs>
       <use xlink:href="#DejaVuSans-48"/>
       <use x="75.195312" xlink:href="#DejaVuSans-6f"/>
       <use x="136.376953" xlink:href="#DejaVuSans-74"/>
       <use x="175.585938" xlink:href="#DejaVuSans-65"/>
       <use x="237.109375" xlink:href="#DejaVuSans-6c"/>
       <use x="264.892578" xlink:href="#DejaVuSans-20"/>
       <use x="296.679688" xlink:href="#DejaVuSans-43"/>
       <use x="366.503906" xlink:href="#DejaVuSans-68"/>
       <use x="429.882812" xlink:href="#DejaVuSans-6f"/>
       <use x="491.064453" xlink:href="#DejaVuSans-63"/>
       <use x="546.044922" xlink:href="#DejaVuSans-6f"/>
       <use x="607.226562" xlink:href="#DejaVuSans-6c"/>
       <use x="635.009766" xlink:href="#DejaVuSans-61"/>
       <use x="696.289062" xlink:href="#DejaVuSans-74"/>
       <use x="735.498047" xlink:href="#DejaVuSans-20"/>
       <use x="767.285156" xlink:href="#DejaVuSans-28"/>
       <use x="806.298828" xlink:href="#DejaVuSans-43"/>
       <use x="876.123047" xlink:href="#DejaVuSans-6f"/>
       <use x="937.304688" xlink:href="#DejaVuSans-70"/>
       <use x="1000.78125" xlink:href="#DejaVuSans-70"/>
       <use x="1064.257812" xlink:href="#DejaVuSans-65"/>
       <use x="1125.78125" xlink:href="#DejaVuSans-6e"/>
       <use x="1189.160156" xlink:href="#DejaVuSans-65"/>
       <use x="1250.683594" xlink:href="#DejaVuSans-75"/>
       <use x="1314.0625" xlink:href="#DejaVuSans-72"/>
       <use x="1355.175781" xlink:href="#DejaVuSans-29"/>
      </g>
     </g>
    </g>
    <g id="ytick_14">
     <g id="text_21">
      <!-- Coppeneur -->
      <g style="fill:#262626;" transform="translate(147.179797 279.966445)scale(0.143 -0.143)">
       <use xlink:href="#DejaVuSans-43"/>
       <use x="69.824219" xlink:href="#DejaVuSans-6f"/>
       <use x="131.005859" xlink:href="#DejaVuSans-70"/>
       <use x="194.482422" xlink:href="#DejaVuSans-70"/>
       <use x="257.958984" xlink:href="#DejaVuSans-65"/>
       <use x="319.482422" xlink:href="#DejaVuSans-6e"/>
       <use x="382.861328" xlink:href="#DejaVuSans-65"/>
       <use x="444.384766" xlink:href="#DejaVuSans-75"/>
       <use x="507.763672" xlink:href="#DejaVuSans-72"/>
      </g>
     </g>
    </g>
    <g id="ytick_15">
     <g id="text_22">
      <!-- Dick Taylor -->
      <g style="fill:#262626;" transform="translate(147.798719 298.446445)scale(0.143 -0.143)">
       <defs>
        <path d="M 581 4863 
L 1159 4863 
L 1159 1991 
L 2875 3500 
L 3609 3500 
L 1753 1863 
L 3688 0 
L 2938 0 
L 1159 1709 
L 1159 0 
L 581 0 
L 581 4863 
z
" id="DejaVuSans-6b" transform="scale(0.015625)"/>
        <path d="M -19 4666 
L 3928 4666 
L 3928 4134 
L 2272 4134 
L 2272 0 
L 1638 0 
L 1638 4134 
L -19 4134 
L -19 4666 
z
" id="DejaVuSans-54" transform="scale(0.015625)"/>
        <path d="M 2059 -325 
Q 1816 -950 1584 -1140 
Q 1353 -1331 966 -1331 
L 506 -1331 
L 506 -850 
L 844 -850 
Q 1081 -850 1212 -737 
Q 1344 -625 1503 -206 
L 1606 56 
L 191 3500 
L 800 3500 
L 1894 763 
L 2988 3500 
L 3597 3500 
L 2059 -325 
z
" id="DejaVuSans-79" transform="scale(0.015625)"/>
       </defs>
       <use xlink:href="#DejaVuSans-44"/>
       <use x="77.001953" xlink:href="#DejaVuSans-69"/>
       <use x="104.785156" xlink:href="#DejaVuSans-63"/>
       <use x="159.765625" xlink:href="#DejaVuSans-6b"/>
       <use x="217.675781" xlink:href="#DejaVuSans-20"/>
       <use x="249.462891" xlink:href="#DejaVuSans-54"/>
       <use x="294.046875" xlink:href="#DejaVuSans-61"/>
       <use x="355.326172" xlink:href="#DejaVuSans-79"/>
       <use x="414.505859" xlink:href="#DejaVuSans-6c"/>
       <use x="442.289062" xlink:href="#DejaVuSans-6f"/>
       <use x="503.470703" xlink:href="#DejaVuSans-72"/>
      </g>
     </g>
    </g>
    <g id="ytick_16">
     <g id="text_23">
      <!-- Mast Brothers -->
      <g style="fill:#262626;" transform="translate(126.05825 316.926445)scale(0.143 -0.143)">
       <use xlink:href="#DejaVuSans-4d"/>
       <use x="86.279297" xlink:href="#DejaVuSans-61"/>
       <use x="147.558594" xlink:href="#DejaVuSans-73"/>
       <use x="199.658203" xlink:href="#DejaVuSans-74"/>
       <use x="238.867188" xlink:href="#DejaVuSans-20"/>
       <use x="270.654297" xlink:href="#DejaVuSans-42"/>
       <use x="339.257812" xlink:href="#DejaVuSans-72"/>
       <use x="378.121094" xlink:href="#DejaVuSans-6f"/>
       <use x="439.302734" xlink:href="#DejaVuSans-74"/>
       <use x="478.511719" xlink:href="#DejaVuSans-68"/>
       <use x="541.890625" xlink:href="#DejaVuSans-65"/>
       <use x="603.414062" xlink:href="#DejaVuSans-72"/>
       <use x="644.527344" xlink:href="#DejaVuSans-73"/>
      </g>
     </g>
    </g>
    <g id="ytick_17">
     <g id="text_24">
      <!-- Smooth Chocolator, The -->
      <g style="fill:#262626;" transform="translate(52.886938 335.406445)scale(0.143 -0.143)">
       <defs>
        <path d="M 750 794 
L 1409 794 
L 1409 256 
L 897 -744 
L 494 -744 
L 750 256 
L 750 794 
z
" id="DejaVuSans-2c" transform="scale(0.015625)"/>
       </defs>
       <use xlink:href="#DejaVuSans-53"/>
       <use x="63.476562" xlink:href="#DejaVuSans-6d"/>
       <use x="160.888672" xlink:href="#DejaVuSans-6f"/>
       <use x="222.070312" xlink:href="#DejaVuSans-6f"/>
       <use x="283.251953" xlink:href="#DejaVuSans-74"/>
       <use x="322.460938" xlink:href="#DejaVuSans-68"/>
       <use x="385.839844" xlink:href="#DejaVuSans-20"/>
       <use x="417.626953" xlink:href="#DejaVuSans-43"/>
       <use x="487.451172" xlink:href="#DejaVuSans-68"/>
       <use x="550.830078" xlink:href="#DejaVuSans-6f"/>
       <use x="612.011719" xlink:href="#DejaVuSans-63"/>
       <use x="666.992188" xlink:href="#DejaVuSans-6f"/>
       <use x="728.173828" xlink:href="#DejaVuSans-6c"/>
       <use x="755.957031" xlink:href="#DejaVuSans-61"/>
       <use x="817.236328" xlink:href="#DejaVuSans-74"/>
       <use x="856.445312" xlink:href="#DejaVuSans-6f"/>
       <use x="917.626953" xlink:href="#DejaVuSans-72"/>
       <use x="958.740234" xlink:href="#DejaVuSans-2c"/>
       <use x="990.527344" xlink:href="#DejaVuSans-20"/>
       <use x="1022.314453" xlink:href="#DejaVuSans-54"/>
       <use x="1083.398438" xlink:href="#DejaVuSans-68"/>
       <use x="1146.777344" xlink:href="#DejaVuSans-65"/>
      </g>
     </g>
    </g>
    <g id="ytick_18">
     <g id="text_25">
      <!-- Duffy's -->
      <g style="fill:#262626;" transform="translate(175.938438 353.886445)scale(0.143 -0.143)">
       <defs>
        <path d="M 2375 4863 
L 2375 4384 
L 1825 4384 
Q 1516 4384 1395 4259 
Q 1275 4134 1275 3809 
L 1275 3500 
L 2222 3500 
L 2222 3053 
L 1275 3053 
L 1275 0 
L 697 0 
L 697 3053 
L 147 3053 
L 147 3500 
L 697 3500 
L 697 3744 
Q 697 4328 969 4595 
Q 1241 4863 1831 4863 
L 2375 4863 
z
" id="DejaVuSans-66" transform="scale(0.015625)"/>
        <path d="M 1147 4666 
L 1147 2931 
L 616 2931 
L 616 4666 
L 1147 4666 
z
" id="DejaVuSans-27" transform="scale(0.015625)"/>
       </defs>
       <use xlink:href="#DejaVuSans-44"/>
       <use x="77.001953" xlink:href="#DejaVuSans-75"/>
       <use x="140.380859" xlink:href="#DejaVuSans-66"/>
       <use x="175.585938" xlink:href="#DejaVuSans-66"/>
       <use x="209.041016" xlink:href="#DejaVuSans-79"/>
       <use x="268.220703" xlink:href="#DejaVuSans-27"/>
       <use x="295.710938" xlink:href="#DejaVuSans-73"/>
      </g>
     </g>
    </g>
    <g id="ytick_19">
     <g id="text_26">
      <!-- Scharffen Berger -->
      <g style="fill:#262626;" transform="translate(104.559094 372.366445)scale(0.143 -0.143)">
       <defs>
        <path d="M 2906 1791 
Q 2906 2416 2648 2759 
Q 2391 3103 1925 3103 
Q 1463 3103 1205 2759 
Q 947 2416 947 1791 
Q 947 1169 1205 825 
Q 1463 481 1925 481 
Q 2391 481 2648 825 
Q 2906 1169 2906 1791 
z
M 3481 434 
Q 3481 -459 3084 -895 
Q 2688 -1331 1869 -1331 
Q 1566 -1331 1297 -1286 
Q 1028 -1241 775 -1147 
L 775 -588 
Q 1028 -725 1275 -790 
Q 1522 -856 1778 -856 
Q 2344 -856 2625 -561 
Q 2906 -266 2906 331 
L 2906 616 
Q 2728 306 2450 153 
Q 2172 0 1784 0 
Q 1141 0 747 490 
Q 353 981 353 1791 
Q 353 2603 747 3093 
Q 1141 3584 1784 3584 
Q 2172 3584 2450 3431 
Q 2728 3278 2906 2969 
L 2906 3500 
L 3481 3500 
L 3481 434 
z
" id="DejaVuSans-67" transform="scale(0.015625)"/>
       </defs>
       <use xlink:href="#DejaVuSans-53"/>
       <use x="63.476562" xlink:href="#DejaVuSans-63"/>
       <use x="118.457031" xlink:href="#DejaVuSans-68"/>
       <use x="181.835938" xlink:href="#DejaVuSans-61"/>
       <use x="243.115234" xlink:href="#DejaVuSans-72"/>
       <use x="284.228516" xlink:href="#DejaVuSans-66"/>
       <use x="319.433594" xlink:href="#DejaVuSans-66"/>
       <use x="354.638672" xlink:href="#DejaVuSans-65"/>
       <use x="416.162109" xlink:href="#DejaVuSans-6e"/>
       <use x="479.541016" xlink:href="#DejaVuSans-20"/>
       <use x="511.328125" xlink:href="#DejaVuSans-42"/>
       <use x="579.931641" xlink:href="#DejaVuSans-65"/>
       <use x="641.455078" xlink:href="#DejaVuSans-72"/>
       <use x="680.818359" xlink:href="#DejaVuSans-67"/>
       <use x="744.294922" xlink:href="#DejaVuSans-65"/>
       <use x="805.818359" xlink:href="#DejaVuSans-72"/>
      </g>
     </g>
    </g>
    <g id="ytick_20">
     <g id="text_27">
      <!-- Pierre Marcolini -->
      <g style="fill:#262626;" transform="translate(115.820344 390.846445)scale(0.143 -0.143)">
       <use xlink:href="#DejaVuSans-50"/>
       <use x="58.052734" xlink:href="#DejaVuSans-69"/>
       <use x="85.835938" xlink:href="#DejaVuSans-65"/>
       <use x="147.359375" xlink:href="#DejaVuSans-72"/>
       <use x="186.722656" xlink:href="#DejaVuSans-72"/>
       <use x="225.585938" xlink:href="#DejaVuSans-65"/>
       <use x="287.109375" xlink:href="#DejaVuSans-20"/>
       <use x="318.896484" xlink:href="#DejaVuSans-4d"/>
       <use x="405.175781" xlink:href="#DejaVuSans-61"/>
       <use x="466.455078" xlink:href="#DejaVuSans-72"/>
       <use x="505.318359" xlink:href="#DejaVuSans-63"/>
       <use x="560.298828" xlink:href="#DejaVuSans-6f"/>
       <use x="621.480469" xlink:href="#DejaVuSans-6c"/>
       <use x="649.263672" xlink:href="#DejaVuSans-69"/>
       <use x="677.046875" xlink:href="#DejaVuSans-6e"/>
       <use x="740.425781" xlink:href="#DejaVuSans-69"/>
      </g>
     </g>
    </g>
    <g id="ytick_21">
     <g id="text_28">
      <!-- Rogue -->
      <g style="fill:#262626;" transform="translate(180.690953 409.326445)scale(0.143 -0.143)">
       <defs>
        <path d="M 2841 2188 
Q 3044 2119 3236 1894 
Q 3428 1669 3622 1275 
L 4263 0 
L 3584 0 
L 2988 1197 
Q 2756 1666 2539 1819 
Q 2322 1972 1947 1972 
L 1259 1972 
L 1259 0 
L 628 0 
L 628 4666 
L 2053 4666 
Q 2853 4666 3247 4331 
Q 3641 3997 3641 3322 
Q 3641 2881 3436 2590 
Q 3231 2300 2841 2188 
z
M 1259 4147 
L 1259 2491 
L 2053 2491 
Q 2509 2491 2742 2702 
Q 2975 2913 2975 3322 
Q 2975 3731 2742 3939 
Q 2509 4147 2053 4147 
L 1259 4147 
z
" id="DejaVuSans-52" transform="scale(0.015625)"/>
       </defs>
       <use xlink:href="#DejaVuSans-52"/>
       <use x="64.982422" xlink:href="#DejaVuSans-6f"/>
       <use x="126.164062" xlink:href="#DejaVuSans-67"/>
       <use x="189.640625" xlink:href="#DejaVuSans-75"/>
       <use x="253.019531" xlink:href="#DejaVuSans-65"/>
      </g>
     </g>
    </g>
    <g id="ytick_22">
     <g id="text_29">
      <!-- Artisan du Chocolat -->
      <g style="fill:#262626;" transform="translate(85.175891 427.806445)scale(0.143 -0.143)">
       <use xlink:href="#DejaVuSans-41"/>
       <use x="68.408203" xlink:href="#DejaVuSans-72"/>
       <use x="109.521484" xlink:href="#DejaVuSans-74"/>
       <use x="148.730469" xlink:href="#DejaVuSans-69"/>
       <use x="176.513672" xlink:href="#DejaVuSans-73"/>
       <use x="228.613281" xlink:href="#DejaVuSans-61"/>
       <use x="289.892578" xlink:href="#DejaVuSans-6e"/>
       <use x="353.271484" xlink:href="#DejaVuSans-20"/>
       <use x="385.058594" xlink:href="#DejaVuSans-64"/>
       <use x="448.535156" xlink:href="#DejaVuSans-75"/>
       <use x="511.914062" xlink:href="#DejaVuSans-20"/>
       <use x="543.701172" xlink:href="#DejaVuSans-43"/>
       <use x="613.525391" xlink:href="#DejaVuSans-68"/>
       <use x="676.904297" xlink:href="#DejaVuSans-6f"/>
       <use x="738.085938" xlink:href="#DejaVuSans-63"/>
       <use x="793.066406" xlink:href="#DejaVuSans-6f"/>
       <use x="854.248047" xlink:href="#DejaVuSans-6c"/>
       <use x="882.03125" xlink:href="#DejaVuSans-61"/>
       <use x="943.310547" xlink:href="#DejaVuSans-74"/>
      </g>
     </g>
    </g>
    <g id="ytick_23">
     <g id="text_30">
      <!-- Letterpress -->
      <g style="fill:#262626;" transform="translate(144.93425 446.286445)scale(0.143 -0.143)">
       <defs>
        <path d="M 628 4666 
L 1259 4666 
L 1259 531 
L 3531 531 
L 3531 0 
L 628 0 
L 628 4666 
z
" id="DejaVuSans-4c" transform="scale(0.015625)"/>
       </defs>
       <use xlink:href="#DejaVuSans-4c"/>
       <use x="53.962891" xlink:href="#DejaVuSans-65"/>
       <use x="115.486328" xlink:href="#DejaVuSans-74"/>
       <use x="154.695312" xlink:href="#DejaVuSans-74"/>
       <use x="193.904297" xlink:href="#DejaVuSans-65"/>
       <use x="255.427734" xlink:href="#DejaVuSans-72"/>
       <use x="296.541016" xlink:href="#DejaVuSans-70"/>
       <use x="360.017578" xlink:href="#DejaVuSans-72"/>
       <use x="398.880859" xlink:href="#DejaVuSans-65"/>
       <use x="460.404297" xlink:href="#DejaVuSans-73"/>
       <use x="512.503906" xlink:href="#DejaVuSans-73"/>
      </g>
     </g>
    </g>
    <g id="ytick_24">
     <g id="text_31">
      <!-- Palette de Bine -->
      <g style="fill:#262626;" transform="translate(117.536344 464.766445)scale(0.143 -0.143)">
       <use xlink:href="#DejaVuSans-50"/>
       <use x="55.802734" xlink:href="#DejaVuSans-61"/>
       <use x="117.082031" xlink:href="#DejaVuSans-6c"/>
       <use x="144.865234" xlink:href="#DejaVuSans-65"/>
       <use x="206.388672" xlink:href="#DejaVuSans-74"/>
       <use x="245.597656" xlink:href="#DejaVuSans-74"/>
       <use x="284.806641" xlink:href="#DejaVuSans-65"/>
       <use x="346.330078" xlink:href="#DejaVuSans-20"/>
       <use x="378.117188" xlink:href="#DejaVuSans-64"/>
       <use x="441.59375" xlink:href="#DejaVuSans-65"/>
       <use x="503.117188" xlink:href="#DejaVuSans-20"/>
       <use x="534.904297" xlink:href="#DejaVuSans-42"/>
       <use x="603.507812" xlink:href="#DejaVuSans-69"/>
       <use x="631.291016" xlink:href="#DejaVuSans-6e"/>
       <use x="694.669922" xlink:href="#DejaVuSans-65"/>
      </g>
     </g>
    </g>
    <g id="ytick_25">
     <g id="text_32">
      <!-- Szanto Tibor -->
      <g style="fill:#262626;" transform="translate(136.396703 483.246445)scale(0.143 -0.143)">
       <defs>
        <path d="M 353 3500 
L 3084 3500 
L 3084 2975 
L 922 459 
L 3084 459 
L 3084 0 
L 275 0 
L 275 525 
L 2438 3041 
L 353 3041 
L 353 3500 
z
" id="DejaVuSans-7a" transform="scale(0.015625)"/>
        <path d="M 3116 1747 
Q 3116 2381 2855 2742 
Q 2594 3103 2138 3103 
Q 1681 3103 1420 2742 
Q 1159 2381 1159 1747 
Q 1159 1113 1420 752 
Q 1681 391 2138 391 
Q 2594 391 2855 752 
Q 3116 1113 3116 1747 
z
M 1159 2969 
Q 1341 3281 1617 3432 
Q 1894 3584 2278 3584 
Q 2916 3584 3314 3078 
Q 3713 2572 3713 1747 
Q 3713 922 3314 415 
Q 2916 -91 2278 -91 
Q 1894 -91 1617 61 
Q 1341 213 1159 525 
L 1159 0 
L 581 0 
L 581 4863 
L 1159 4863 
L 1159 2969 
z
" id="DejaVuSans-62" transform="scale(0.015625)"/>
       </defs>
       <use xlink:href="#DejaVuSans-53"/>
       <use x="63.476562" xlink:href="#DejaVuSans-7a"/>
       <use x="115.966797" xlink:href="#DejaVuSans-61"/>
       <use x="177.246094" xlink:href="#DejaVuSans-6e"/>
       <use x="240.625" xlink:href="#DejaVuSans-74"/>
       <use x="279.833984" xlink:href="#DejaVuSans-6f"/>
       <use x="341.015625" xlink:href="#DejaVuSans-20"/>
       <use x="372.802734" xlink:href="#DejaVuSans-54"/>
       <use x="430.761719" xlink:href="#DejaVuSans-69"/>
       <use x="458.544922" xlink:href="#DejaVuSans-62"/>
       <use x="522.021484" xlink:href="#DejaVuSans-6f"/>
       <use x="583.203125" xlink:href="#DejaVuSans-72"/>
      </g>
     </g>
    </g>
    <g id="ytick_26">
     <g id="text_33">
      <!-- Map Chocolate -->
      <g style="fill:#262626;" transform="translate(119.397578 501.726445)scale(0.143 -0.143)">
       <use xlink:href="#DejaVuSans-4d"/>
       <use x="86.279297" xlink:href="#DejaVuSans-61"/>
       <use x="147.558594" xlink:href="#DejaVuSans-70"/>
       <use x="211.035156" xlink:href="#DejaVuSans-20"/>
       <use x="242.822266" xlink:href="#DejaVuSans-43"/>
       <use x="312.646484" xlink:href="#DejaVuSans-68"/>
       <use x="376.025391" xlink:href="#DejaVuSans-6f"/>
       <use x="437.207031" xlink:href="#DejaVuSans-63"/>
       <use x="492.1875" xlink:href="#DejaVuSans-6f"/>
       <use x="553.369141" xlink:href="#DejaVuSans-6c"/>
       <use x="581.152344" xlink:href="#DejaVuSans-61"/>
       <use x="642.431641" xlink:href="#DejaVuSans-74"/>
       <use x="681.640625" xlink:href="#DejaVuSans-65"/>
      </g>
     </g>
    </g>
    <g id="ytick_27">
     <g id="text_34">
      <!-- Tejas -->
      <g style="fill:#262626;" transform="translate(190.385906 520.206445)scale(0.143 -0.143)">
       <defs>
        <path d="M 603 3500 
L 1178 3500 
L 1178 -63 
Q 1178 -731 923 -1031 
Q 669 -1331 103 -1331 
L -116 -1331 
L -116 -844 
L 38 -844 
Q 366 -844 484 -692 
Q 603 -541 603 -63 
L 603 3500 
z
M 603 4863 
L 1178 4863 
L 1178 4134 
L 603 4134 
L 603 4863 
z
" id="DejaVuSans-6a" transform="scale(0.015625)"/>
       </defs>
       <use xlink:href="#DejaVuSans-54"/>
       <use x="44.083984" xlink:href="#DejaVuSans-65"/>
       <use x="105.607422" xlink:href="#DejaVuSans-6a"/>
       <use x="133.390625" xlink:href="#DejaVuSans-61"/>
       <use x="194.669922" xlink:href="#DejaVuSans-73"/>
      </g>
     </g>
    </g>
    <g id="ytick_28">
     <g id="text_35">
      <!-- Fruition -->
      <g style="fill:#262626;" transform="translate(172.180219 538.686445)scale(0.143 -0.143)">
       <use xlink:href="#DejaVuSans-46"/>
       <use x="50.269531" xlink:href="#DejaVuSans-72"/>
       <use x="91.382812" xlink:href="#DejaVuSans-75"/>
       <use x="154.761719" xlink:href="#DejaVuSans-69"/>
       <use x="182.544922" xlink:href="#DejaVuSans-74"/>
       <use x="221.753906" xlink:href="#DejaVuSans-69"/>
       <use x="249.537109" xlink:href="#DejaVuSans-6f"/>
       <use x="310.71875" xlink:href="#DejaVuSans-6e"/>
      </g>
     </g>
    </g>
    <g id="ytick_29">
     <g id="text_36">
      <!-- Sirene -->
      <g style="fill:#262626;" transform="translate(180.404953 557.166445)scale(0.143 -0.143)">
       <use xlink:href="#DejaVuSans-53"/>
       <use x="63.476562" xlink:href="#DejaVuSans-69"/>
       <use x="91.259766" xlink:href="#DejaVuSans-72"/>
       <use x="130.123047" xlink:href="#DejaVuSans-65"/>
       <use x="191.646484" xlink:href="#DejaVuSans-6e"/>
       <use x="255.025391" xlink:href="#DejaVuSans-65"/>
      </g>
     </g>
    </g>
    <g id="ytick_30">
     <g id="text_37">
      <!-- Bittersweet Origins -->
      <g style="fill:#262626;" transform="translate(88.435844 575.646445)scale(0.143 -0.143)">
       <defs>
        <path d="M 269 3500 
L 844 3500 
L 1563 769 
L 2278 3500 
L 2956 3500 
L 3675 769 
L 4391 3500 
L 4966 3500 
L 4050 0 
L 3372 0 
L 2619 2869 
L 1863 0 
L 1184 0 
L 269 3500 
z
" id="DejaVuSans-77" transform="scale(0.015625)"/>
        <path d="M 2522 4238 
Q 1834 4238 1429 3725 
Q 1025 3213 1025 2328 
Q 1025 1447 1429 934 
Q 1834 422 2522 422 
Q 3209 422 3611 934 
Q 4013 1447 4013 2328 
Q 4013 3213 3611 3725 
Q 3209 4238 2522 4238 
z
M 2522 4750 
Q 3503 4750 4090 4092 
Q 4678 3434 4678 2328 
Q 4678 1225 4090 567 
Q 3503 -91 2522 -91 
Q 1538 -91 948 565 
Q 359 1222 359 2328 
Q 359 3434 948 4092 
Q 1538 4750 2522 4750 
z
" id="DejaVuSans-4f" transform="scale(0.015625)"/>
       </defs>
       <use xlink:href="#DejaVuSans-42"/>
       <use x="68.603516" xlink:href="#DejaVuSans-69"/>
       <use x="96.386719" xlink:href="#DejaVuSans-74"/>
       <use x="135.595703" xlink:href="#DejaVuSans-74"/>
       <use x="174.804688" xlink:href="#DejaVuSans-65"/>
       <use x="236.328125" xlink:href="#DejaVuSans-72"/>
       <use x="277.441406" xlink:href="#DejaVuSans-73"/>
       <use x="329.541016" xlink:href="#DejaVuSans-77"/>
       <use x="411.328125" xlink:href="#DejaVuSans-65"/>
       <use x="472.851562" xlink:href="#DejaVuSans-65"/>
       <use x="534.375" xlink:href="#DejaVuSans-74"/>
       <use x="573.583984" xlink:href="#DejaVuSans-20"/>
       <use x="605.371094" xlink:href="#DejaVuSans-4f"/>
       <use x="684.082031" xlink:href="#DejaVuSans-72"/>
       <use x="725.195312" xlink:href="#DejaVuSans-69"/>
       <use x="752.978516" xlink:href="#DejaVuSans-67"/>
       <use x="816.455078" xlink:href="#DejaVuSans-69"/>
       <use x="844.238281" xlink:href="#DejaVuSans-6e"/>
       <use x="907.617188" xlink:href="#DejaVuSans-73"/>
      </g>
     </g>
    </g>
    <g id="text_38">
     <!-- manufacturer -->
     <g style="fill:#262626;" transform="translate(19.053563 355.370344)rotate(-90)scale(0.156 -0.156)">
      <use xlink:href="#DejaVuSans-6d"/>
      <use x="97.412109" xlink:href="#DejaVuSans-61"/>
      <use x="158.691406" xlink:href="#DejaVuSans-6e"/>
      <use x="222.070312" xlink:href="#DejaVuSans-75"/>
      <use x="285.449219" xlink:href="#DejaVuSans-66"/>
      <use x="320.654297" xlink:href="#DejaVuSans-61"/>
      <use x="381.933594" xlink:href="#DejaVuSans-63"/>
      <use x="436.914062" xlink:href="#DejaVuSans-74"/>
      <use x="476.123047" xlink:href="#DejaVuSans-75"/>
      <use x="539.501953" xlink:href="#DejaVuSans-72"/>
      <use x="578.365234" xlink:href="#DejaVuSans-65"/>
      <use x="639.888672" xlink:href="#DejaVuSans-72"/>
     </g>
    </g>
   </g>
   <g id="patch_3">
    <path clip-path="url(#p35141fab09)" d="M 235.173391 26.901562 
L 607.173391 26.901562 
L 607.173391 41.685562 
L 235.173391 41.685562 
z
" style="fill:#3a90e3;stroke:#ffffff;stroke-linejoin:miter;"/>
   </g>
   <g id="patch_4">
    <path clip-path="url(#p35141fab09)" d="M 235.173391 45.381562 
L 494.244819 45.381562 
L 494.244819 60.165562 
L 235.173391 60.165562 
z
" style="fill:#3a90e3;stroke:#ffffff;stroke-linejoin:miter;"/>
   </g>
   <g id="patch_5">
    <path clip-path="url(#p35141fab09)" d="M 235.173391 63.861562 
L 447.744819 63.861562 
L 447.744819 78.645562 
L 235.173391 78.645562 
z
" style="fill:#3a90e3;stroke:#ffffff;stroke-linejoin:miter;"/>
   </g>
   <g id="patch_6">
    <path clip-path="url(#p35141fab09)" d="M 235.173391 82.341562 
L 434.459105 82.341562 
L 434.459105 97.125562 
L 235.173391 97.125562 
z
" style="fill:#3a90e3;stroke:#ffffff;stroke-linejoin:miter;"/>
   </g>
   <g id="patch_7">
    <path clip-path="url(#p35141fab09)" d="M 235.173391 100.821562 
L 407.887676 100.821562 
L 407.887676 115.605562 
L 235.173391 115.605562 
z
" style="fill:#3a90e3;stroke:#ffffff;stroke-linejoin:miter;"/>
   </g>
   <g id="patch_8">
    <path clip-path="url(#p35141fab09)" d="M 235.173391 119.301562 
L 401.244819 119.301562 
L 401.244819 134.085562 
L 235.173391 134.085562 
z
" style="fill:#3a90e3;stroke:#ffffff;stroke-linejoin:miter;"/>
   </g>
   <g id="patch_9">
    <path clip-path="url(#p35141fab09)" d="M 235.173391 137.781562 
L 401.244819 137.781562 
L 401.244819 152.565562 
L 235.173391 152.565562 
z
" style="fill:#3a90e3;stroke:#ffffff;stroke-linejoin:miter;"/>
   </g>
   <g id="patch_10">
    <path clip-path="url(#p35141fab09)" d="M 235.173391 156.261562 
L 387.959105 156.261562 
L 387.959105 171.045562 
L 235.173391 171.045562 
z
" style="fill:#3a90e3;stroke:#ffffff;stroke-linejoin:miter;"/>
   </g>
   <g id="patch_11">
    <path clip-path="url(#p35141fab09)" d="M 235.173391 174.741562 
L 381.316248 174.741562 
L 381.316248 189.525562 
L 235.173391 189.525562 
z
" style="fill:#3a90e3;stroke:#ffffff;stroke-linejoin:miter;"/>
   </g>
   <g id="patch_12">
    <path clip-path="url(#p35141fab09)" d="M 235.173391 193.221562 
L 381.316248 193.221562 
L 381.316248 208.005562 
L 235.173391 208.005562 
z
" style="fill:#3a90e3;stroke:#ffffff;stroke-linejoin:miter;"/>
   </g>
   <g id="patch_13">
    <path clip-path="url(#p35141fab09)" d="M 235.173391 211.701562 
L 374.673391 211.701562 
L 374.673391 226.485562 
L 235.173391 226.485562 
z
" style="fill:#3a90e3;stroke:#ffffff;stroke-linejoin:miter;"/>
   </g>
   <g id="patch_14">
    <path clip-path="url(#p35141fab09)" d="M 235.173391 230.181562 
L 361.387676 230.181562 
L 361.387676 244.965562 
L 235.173391 244.965562 
z
" style="fill:#3a90e3;stroke:#ffffff;stroke-linejoin:miter;"/>
   </g>
   <g id="patch_15">
    <path clip-path="url(#p35141fab09)" d="M 235.173391 248.661562 
L 361.387676 248.661562 
L 361.387676 263.445562 
L 235.173391 263.445562 
z
" style="fill:#3a90e3;stroke:#ffffff;stroke-linejoin:miter;"/>
   </g>
   <g id="patch_16">
    <path clip-path="url(#p35141fab09)" d="M 235.173391 267.141562 
L 361.387676 267.141562 
L 361.387676 281.925562 
L 235.173391 281.925562 
z
" style="fill:#3a90e3;stroke:#ffffff;stroke-linejoin:miter;"/>
   </g>
   <g id="patch_17">
    <path clip-path="url(#p35141fab09)" d="M 235.173391 285.621562 
L 361.387676 285.621562 
L 361.387676 300.405562 
L 235.173391 300.405562 
z
" style="fill:#3a90e3;stroke:#ffffff;stroke-linejoin:miter;"/>
   </g>
   <g id="patch_18">
    <path clip-path="url(#p35141fab09)" d="M 235.173391 304.101562 
L 354.744819 304.101562 
L 354.744819 318.885562 
L 235.173391 318.885562 
z
" style="fill:#3a90e3;stroke:#ffffff;stroke-linejoin:miter;"/>
   </g>
   <g id="patch_19">
    <path clip-path="url(#p35141fab09)" d="M 235.173391 322.581562 
L 348.101962 322.581562 
L 348.101962 337.365562 
L 235.173391 337.365562 
z
" style="fill:#3a90e3;stroke:#ffffff;stroke-linejoin:miter;"/>
   </g>
   <g id="patch_20">
    <path clip-path="url(#p35141fab09)" d="M 235.173391 341.061562 
L 348.101962 341.061562 
L 348.101962 355.845562 
L 235.173391 355.845562 
z
" style="fill:#3a90e3;stroke:#ffffff;stroke-linejoin:miter;"/>
   </g>
   <g id="patch_21">
    <path clip-path="url(#p35141fab09)" d="M 235.173391 359.541562 
L 348.101962 359.541562 
L 348.101962 374.325562 
L 235.173391 374.325562 
z
" style="fill:#3a90e3;stroke:#ffffff;stroke-linejoin:miter;"/>
   </g>
   <g id="patch_22">
    <path clip-path="url(#p35141fab09)" d="M 235.173391 378.021563 
L 348.101962 378.021563 
L 348.101962 392.805563 
L 235.173391 392.805563 
z
" style="fill:#3a90e3;stroke:#ffffff;stroke-linejoin:miter;"/>
   </g>
   <g id="patch_23">
    <path clip-path="url(#p35141fab09)" d="M 235.173391 396.501562 
L 341.459105 396.501562 
L 341.459105 411.285562 
L 235.173391 411.285562 
z
" style="fill:#3a90e3;stroke:#ffffff;stroke-linejoin:miter;"/>
   </g>
   <g id="patch_24">
    <path clip-path="url(#p35141fab09)" d="M 235.173391 414.981562 
L 341.459105 414.981562 
L 341.459105 429.765562 
L 235.173391 429.765562 
z
" style="fill:#3a90e3;stroke:#ffffff;stroke-linejoin:miter;"/>
   </g>
   <g id="patch_25">
    <path clip-path="url(#p35141fab09)" d="M 235.173391 433.461563 
L 334.816248 433.461563 
L 334.816248 448.245563 
L 235.173391 448.245563 
z
" style="fill:#3a90e3;stroke:#ffffff;stroke-linejoin:miter;"/>
   </g>
   <g id="patch_26">
    <path clip-path="url(#p35141fab09)" d="M 235.173391 451.941563 
L 334.816248 451.941563 
L 334.816248 466.725563 
L 235.173391 466.725563 
z
" style="fill:#3a90e3;stroke:#ffffff;stroke-linejoin:miter;"/>
   </g>
   <g id="patch_27">
    <path clip-path="url(#p35141fab09)" d="M 235.173391 470.421562 
L 334.816248 470.421562 
L 334.816248 485.205562 
L 235.173391 485.205562 
z
" style="fill:#3a90e3;stroke:#ffffff;stroke-linejoin:miter;"/>
   </g>
   <g id="patch_28">
    <path clip-path="url(#p35141fab09)" d="M 235.173391 488.901563 
L 328.173391 488.901563 
L 328.173391 503.685563 
L 235.173391 503.685563 
z
" style="fill:#3a90e3;stroke:#ffffff;stroke-linejoin:miter;"/>
   </g>
   <g id="patch_29">
    <path clip-path="url(#p35141fab09)" d="M 235.173391 507.381563 
L 328.173391 507.381563 
L 328.173391 522.165563 
L 235.173391 522.165563 
z
" style="fill:#3a90e3;stroke:#ffffff;stroke-linejoin:miter;"/>
   </g>
   <g id="patch_30">
    <path clip-path="url(#p35141fab09)" d="M 235.173391 525.861562 
L 328.173391 525.861562 
L 328.173391 540.645562 
L 235.173391 540.645562 
z
" style="fill:#3a90e3;stroke:#ffffff;stroke-linejoin:miter;"/>
   </g>
   <g id="patch_31">
    <path clip-path="url(#p35141fab09)" d="M 235.173391 544.341563 
L 328.173391 544.341563 
L 328.173391 559.125563 
L 235.173391 559.125563 
z
" style="fill:#3a90e3;stroke:#ffffff;stroke-linejoin:miter;"/>
   </g>
   <g id="patch_32">
    <path clip-path="url(#p35141fab09)" d="M 235.173391 562.821563 
L 328.173391 562.821563 
L 328.173391 577.605563 
L 235.173391 577.605563 
z
" style="fill:#3a90e3;stroke:#ffffff;stroke-linejoin:miter;"/>
   </g>
   <g id="patch_33">
    <path d="M 235.173391 579.453562 
L 235.173391 25.053562 
" style="fill:none;stroke:#262626;stroke-linecap:square;stroke-linejoin:miter;stroke-width:1.25;"/>
   </g>
   <g id="patch_34">
    <path d="M 625.773391 579.453562 
L 625.773391 25.053562 
" style="fill:none;stroke:#262626;stroke-linecap:square;stroke-linejoin:miter;stroke-width:1.25;"/>
   </g>
   <g id="patch_35">
    <path d="M 235.173391 579.453562 
L 625.773391 579.453562 
" style="fill:none;stroke:#262626;stroke-linecap:square;stroke-linejoin:miter;stroke-width:1.25;"/>
   </g>
   <g id="patch_36">
    <path d="M 235.173391 25.053562 
L 625.773391 25.053562 
" style="fill:none;stroke:#262626;stroke-linecap:square;stroke-linejoin:miter;stroke-width:1.25;"/>
   </g>
   <g id="text_39">
    <!-- 56 -->
    <g style="fill:#262626;" transform="translate(607.173391 36.501062)scale(0.08 -0.08)">
     <defs>
      <path d="M 2113 2584 
Q 1688 2584 1439 2293 
Q 1191 2003 1191 1497 
Q 1191 994 1439 701 
Q 1688 409 2113 409 
Q 2538 409 2786 701 
Q 3034 994 3034 1497 
Q 3034 2003 2786 2293 
Q 2538 2584 2113 2584 
z
M 3366 4563 
L 3366 3988 
Q 3128 4100 2886 4159 
Q 2644 4219 2406 4219 
Q 1781 4219 1451 3797 
Q 1122 3375 1075 2522 
Q 1259 2794 1537 2939 
Q 1816 3084 2150 3084 
Q 2853 3084 3261 2657 
Q 3669 2231 3669 1497 
Q 3669 778 3244 343 
Q 2819 -91 2113 -91 
Q 1303 -91 875 529 
Q 447 1150 447 2328 
Q 447 3434 972 4092 
Q 1497 4750 2381 4750 
Q 2619 4750 2861 4703 
Q 3103 4656 3366 4563 
z
" id="DejaVuSans-36" transform="scale(0.015625)"/>
     </defs>
     <use xlink:href="#DejaVuSans-35"/>
     <use x="63.623047" xlink:href="#DejaVuSans-36"/>
    </g>
   </g>
   <g id="text_40">
    <!-- 39 -->
    <g style="fill:#262626;" transform="translate(494.244819 54.981062)scale(0.08 -0.08)">
     <defs>
      <path d="M 703 97 
L 703 672 
Q 941 559 1184 500 
Q 1428 441 1663 441 
Q 2288 441 2617 861 
Q 2947 1281 2994 2138 
Q 2813 1869 2534 1725 
Q 2256 1581 1919 1581 
Q 1219 1581 811 2004 
Q 403 2428 403 3163 
Q 403 3881 828 4315 
Q 1253 4750 1959 4750 
Q 2769 4750 3195 4129 
Q 3622 3509 3622 2328 
Q 3622 1225 3098 567 
Q 2575 -91 1691 -91 
Q 1453 -91 1209 -44 
Q 966 3 703 97 
z
M 1959 2075 
Q 2384 2075 2632 2365 
Q 2881 2656 2881 3163 
Q 2881 3666 2632 3958 
Q 2384 4250 1959 4250 
Q 1534 4250 1286 3958 
Q 1038 3666 1038 3163 
Q 1038 2656 1286 2365 
Q 1534 2075 1959 2075 
z
" id="DejaVuSans-39" transform="scale(0.015625)"/>
     </defs>
     <use xlink:href="#DejaVuSans-33"/>
     <use x="63.623047" xlink:href="#DejaVuSans-39"/>
    </g>
   </g>
   <g id="text_41">
    <!-- 32 -->
    <g style="fill:#262626;" transform="translate(447.744819 73.461062)scale(0.08 -0.08)">
     <use xlink:href="#DejaVuSans-33"/>
     <use x="63.623047" xlink:href="#DejaVuSans-32"/>
    </g>
   </g>
   <g id="text_42">
    <!-- 30 -->
    <g style="fill:#262626;" transform="translate(434.459105 91.941062)scale(0.08 -0.08)">
     <use xlink:href="#DejaVuSans-33"/>
     <use x="63.623047" xlink:href="#DejaVuSans-30"/>
    </g>
   </g>
   <g id="text_43">
    <!-- 26 -->
    <g style="fill:#262626;" transform="translate(407.887676 110.421062)scale(0.08 -0.08)">
     <use xlink:href="#DejaVuSans-32"/>
     <use x="63.623047" xlink:href="#DejaVuSans-36"/>
    </g>
   </g>
   <g id="text_44">
    <!-- 25 -->
    <g style="fill:#262626;" transform="translate(401.244819 128.901062)scale(0.08 -0.08)">
     <use xlink:href="#DejaVuSans-32"/>
     <use x="63.623047" xlink:href="#DejaVuSans-35"/>
    </g>
   </g>
   <g id="text_45">
    <!-- 25 -->
    <g style="fill:#262626;" transform="translate(401.244819 147.381062)scale(0.08 -0.08)">
     <use xlink:href="#DejaVuSans-32"/>
     <use x="63.623047" xlink:href="#DejaVuSans-35"/>
    </g>
   </g>
   <g id="text_46">
    <!-- 23 -->
    <g style="fill:#262626;" transform="translate(387.959105 165.861062)scale(0.08 -0.08)">
     <use xlink:href="#DejaVuSans-32"/>
     <use x="63.623047" xlink:href="#DejaVuSans-33"/>
    </g>
   </g>
   <g id="text_47">
    <!-- 22 -->
    <g style="fill:#262626;" transform="translate(381.316248 184.341062)scale(0.08 -0.08)">
     <use xlink:href="#DejaVuSans-32"/>
     <use x="63.623047" xlink:href="#DejaVuSans-32"/>
    </g>
   </g>
   <g id="text_48">
    <!-- 22 -->
    <g style="fill:#262626;" transform="translate(381.316248 202.821062)scale(0.08 -0.08)">
     <use xlink:href="#DejaVuSans-32"/>
     <use x="63.623047" xlink:href="#DejaVuSans-32"/>
    </g>
   </g>
   <g id="text_49">
    <!-- 21 -->
    <g style="fill:#262626;" transform="translate(374.673391 221.301062)scale(0.08 -0.08)">
     <use xlink:href="#DejaVuSans-32"/>
     <use x="63.623047" xlink:href="#DejaVuSans-31"/>
    </g>
   </g>
   <g id="text_50">
    <!-- 19 -->
    <g style="fill:#262626;" transform="translate(361.387676 239.781062)scale(0.08 -0.08)">
     <use xlink:href="#DejaVuSans-31"/>
     <use x="63.623047" xlink:href="#DejaVuSans-39"/>
    </g>
   </g>
   <g id="text_51">
    <!-- 19 -->
    <g style="fill:#262626;" transform="translate(361.387676 258.261062)scale(0.08 -0.08)">
     <use xlink:href="#DejaVuSans-31"/>
     <use x="63.623047" xlink:href="#DejaVuSans-39"/>
    </g>
   </g>
   <g id="text_52">
    <!-- 19 -->
    <g style="fill:#262626;" transform="translate(361.387676 276.741062)scale(0.08 -0.08)">
     <use xlink:href="#DejaVuSans-31"/>
     <use x="63.623047" xlink:href="#DejaVuSans-39"/>
    </g>
   </g>
   <g id="text_53">
    <!-- 19 -->
    <g style="fill:#262626;" transform="translate(361.387676 295.221062)scale(0.08 -0.08)">
     <use xlink:href="#DejaVuSans-31"/>
     <use x="63.623047" xlink:href="#DejaVuSans-39"/>
    </g>
   </g>
   <g id="text_54">
    <!-- 18 -->
    <g style="fill:#262626;" transform="translate(354.744819 313.701062)scale(0.08 -0.08)">
     <defs>
      <path d="M 2034 2216 
Q 1584 2216 1326 1975 
Q 1069 1734 1069 1313 
Q 1069 891 1326 650 
Q 1584 409 2034 409 
Q 2484 409 2743 651 
Q 3003 894 3003 1313 
Q 3003 1734 2745 1975 
Q 2488 2216 2034 2216 
z
M 1403 2484 
Q 997 2584 770 2862 
Q 544 3141 544 3541 
Q 544 4100 942 4425 
Q 1341 4750 2034 4750 
Q 2731 4750 3128 4425 
Q 3525 4100 3525 3541 
Q 3525 3141 3298 2862 
Q 3072 2584 2669 2484 
Q 3125 2378 3379 2068 
Q 3634 1759 3634 1313 
Q 3634 634 3220 271 
Q 2806 -91 2034 -91 
Q 1263 -91 848 271 
Q 434 634 434 1313 
Q 434 1759 690 2068 
Q 947 2378 1403 2484 
z
M 1172 3481 
Q 1172 3119 1398 2916 
Q 1625 2713 2034 2713 
Q 2441 2713 2670 2916 
Q 2900 3119 2900 3481 
Q 2900 3844 2670 4047 
Q 2441 4250 2034 4250 
Q 1625 4250 1398 4047 
Q 1172 3844 1172 3481 
z
" id="DejaVuSans-38" transform="scale(0.015625)"/>
     </defs>
     <use xlink:href="#DejaVuSans-31"/>
     <use x="63.623047" xlink:href="#DejaVuSans-38"/>
    </g>
   </g>
   <g id="text_55">
    <!-- 17 -->
    <g style="fill:#262626;" transform="translate(348.101962 332.181062)scale(0.08 -0.08)">
     <defs>
      <path d="M 525 4666 
L 3525 4666 
L 3525 4397 
L 1831 0 
L 1172 0 
L 2766 4134 
L 525 4134 
L 525 4666 
z
" id="DejaVuSans-37" transform="scale(0.015625)"/>
     </defs>
     <use xlink:href="#DejaVuSans-31"/>
     <use x="63.623047" xlink:href="#DejaVuSans-37"/>
    </g>
   </g>
   <g id="text_56">
    <!-- 17 -->
    <g style="fill:#262626;" transform="translate(348.101962 350.661062)scale(0.08 -0.08)">
     <use xlink:href="#DejaVuSans-31"/>
     <use x="63.623047" xlink:href="#DejaVuSans-37"/>
    </g>
   </g>
   <g id="text_57">
    <!-- 17 -->
    <g style="fill:#262626;" transform="translate(348.101962 369.141062)scale(0.08 -0.08)">
     <use xlink:href="#DejaVuSans-31"/>
     <use x="63.623047" xlink:href="#DejaVuSans-37"/>
    </g>
   </g>
   <g id="text_58">
    <!-- 17 -->
    <g style="fill:#262626;" transform="translate(348.101962 387.621062)scale(0.08 -0.08)">
     <use xlink:href="#DejaVuSans-31"/>
     <use x="63.623047" xlink:href="#DejaVuSans-37"/>
    </g>
   </g>
   <g id="text_59">
    <!-- 16 -->
    <g style="fill:#262626;" transform="translate(341.459105 406.101063)scale(0.08 -0.08)">
     <use xlink:href="#DejaVuSans-31"/>
     <use x="63.623047" xlink:href="#DejaVuSans-36"/>
    </g>
   </g>
   <g id="text_60">
    <!-- 16 -->
    <g style="fill:#262626;" transform="translate(341.459105 424.581063)scale(0.08 -0.08)">
     <use xlink:href="#DejaVuSans-31"/>
     <use x="63.623047" xlink:href="#DejaVuSans-36"/>
    </g>
   </g>
   <g id="text_61">
    <!-- 15 -->
    <g style="fill:#262626;" transform="translate(334.816248 443.061062)scale(0.08 -0.08)">
     <use xlink:href="#DejaVuSans-31"/>
     <use x="63.623047" xlink:href="#DejaVuSans-35"/>
    </g>
   </g>
   <g id="text_62">
    <!-- 15 -->
    <g style="fill:#262626;" transform="translate(334.816248 461.541062)scale(0.08 -0.08)">
     <use xlink:href="#DejaVuSans-31"/>
     <use x="63.623047" xlink:href="#DejaVuSans-35"/>
    </g>
   </g>
   <g id="text_63">
    <!-- 15 -->
    <g style="fill:#262626;" transform="translate(334.816248 480.021062)scale(0.08 -0.08)">
     <use xlink:href="#DejaVuSans-31"/>
     <use x="63.623047" xlink:href="#DejaVuSans-35"/>
    </g>
   </g>
   <g id="text_64">
    <!-- 14 -->
    <g style="fill:#262626;" transform="translate(328.173391 498.501062)scale(0.08 -0.08)">
     <use xlink:href="#DejaVuSans-31"/>
     <use x="63.623047" xlink:href="#DejaVuSans-34"/>
    </g>
   </g>
   <g id="text_65">
    <!-- 14 -->
    <g style="fill:#262626;" transform="translate(328.173391 516.981063)scale(0.08 -0.08)">
     <use xlink:href="#DejaVuSans-31"/>
     <use x="63.623047" xlink:href="#DejaVuSans-34"/>
    </g>
   </g>
   <g id="text_66">
    <!-- 14 -->
    <g style="fill:#262626;" transform="translate(328.173391 535.461063)scale(0.08 -0.08)">
     <use xlink:href="#DejaVuSans-31"/>
     <use x="63.623047" xlink:href="#DejaVuSans-34"/>
    </g>
   </g>
   <g id="text_67">
    <!-- 14 -->
    <g style="fill:#262626;" transform="translate(328.173391 553.941062)scale(0.08 -0.08)">
     <use xlink:href="#DejaVuSans-31"/>
     <use x="63.623047" xlink:href="#DejaVuSans-34"/>
    </g>
   </g>
   <g id="text_68">
    <!-- 14 -->
    <g style="fill:#262626;" transform="translate(328.173391 572.421062)scale(0.08 -0.08)">
     <use xlink:href="#DejaVuSans-31"/>
     <use x="63.623047" xlink:href="#DejaVuSans-34"/>
    </g>
   </g>
   <g id="text_69">
    <!-- Top 30 manufacturers for the number of ratings received -->
    <g style="fill:#262626;" transform="translate(208.264797 19.053562)scale(0.156 -0.156)">
     <use xlink:href="#DejaVuSans-54"/>
     <use x="44.083984" xlink:href="#DejaVuSans-6f"/>
     <use x="105.265625" xlink:href="#DejaVuSans-70"/>
     <use x="168.742188" xlink:href="#DejaVuSans-20"/>
     <use x="200.529297" xlink:href="#DejaVuSans-33"/>
     <use x="264.152344" xlink:href="#DejaVuSans-30"/>
     <use x="327.775391" xlink:href="#DejaVuSans-20"/>
     <use x="359.5625" xlink:href="#DejaVuSans-6d"/>
     <use x="456.974609" xlink:href="#DejaVuSans-61"/>
     <use x="518.253906" xlink:href="#DejaVuSans-6e"/>
     <use x="581.632812" xlink:href="#DejaVuSans-75"/>
     <use x="645.011719" xlink:href="#DejaVuSans-66"/>
     <use x="680.216797" xlink:href="#DejaVuSans-61"/>
     <use x="741.496094" xlink:href="#DejaVuSans-63"/>
     <use x="796.476562" xlink:href="#DejaVuSans-74"/>
     <use x="835.685547" xlink:href="#DejaVuSans-75"/>
     <use x="899.064453" xlink:href="#DejaVuSans-72"/>
     <use x="937.927734" xlink:href="#DejaVuSans-65"/>
     <use x="999.451172" xlink:href="#DejaVuSans-72"/>
     <use x="1040.564453" xlink:href="#DejaVuSans-73"/>
     <use x="1092.664062" xlink:href="#DejaVuSans-20"/>
     <use x="1124.451172" xlink:href="#DejaVuSans-66"/>
     <use x="1159.65625" xlink:href="#DejaVuSans-6f"/>
     <use x="1220.837891" xlink:href="#DejaVuSans-72"/>
     <use x="1261.951172" xlink:href="#DejaVuSans-20"/>
     <use x="1293.738281" xlink:href="#DejaVuSans-74"/>
     <use x="1332.947266" xlink:href="#DejaVuSans-68"/>
     <use x="1396.326172" xlink:href="#DejaVuSans-65"/>
     <use x="1457.849609" xlink:href="#DejaVuSans-20"/>
     <use x="1489.636719" xlink:href="#DejaVuSans-6e"/>
     <use x="1553.015625" xlink:href="#DejaVuSans-75"/>
     <use x="1616.394531" xlink:href="#DejaVuSans-6d"/>
     <use x="1713.806641" xlink:href="#DejaVuSans-62"/>
     <use x="1777.283203" xlink:href="#DejaVuSans-65"/>
     <use x="1838.806641" xlink:href="#DejaVuSans-72"/>
     <use x="1879.919922" xlink:href="#DejaVuSans-20"/>
     <use x="1911.707031" xlink:href="#DejaVuSans-6f"/>
     <use x="1972.888672" xlink:href="#DejaVuSans-66"/>
     <use x="2008.09375" xlink:href="#DejaVuSans-20"/>
     <use x="2039.880859" xlink:href="#DejaVuSans-72"/>
     <use x="2080.994141" xlink:href="#DejaVuSans-61"/>
     <use x="2142.273438" xlink:href="#DejaVuSans-74"/>
     <use x="2181.482422" xlink:href="#DejaVuSans-69"/>
     <use x="2209.265625" xlink:href="#DejaVuSans-6e"/>
     <use x="2272.644531" xlink:href="#DejaVuSans-67"/>
     <use x="2336.121094" xlink:href="#DejaVuSans-73"/>
     <use x="2388.220703" xlink:href="#DejaVuSans-20"/>
     <use x="2420.007812" xlink:href="#DejaVuSans-72"/>
     <use x="2458.871094" xlink:href="#DejaVuSans-65"/>
     <use x="2520.394531" xlink:href="#DejaVuSans-63"/>
     <use x="2575.375" xlink:href="#DejaVuSans-65"/>
     <use x="2636.898438" xlink:href="#DejaVuSans-69"/>
     <use x="2664.681641" xlink:href="#DejaVuSans-76"/>
     <use x="2723.861328" xlink:href="#DejaVuSans-65"/>
     <use x="2785.384766" xlink:href="#DejaVuSans-64"/>
    </g>
   </g>
  </g>
 </g>
 <defs>
  <clipPath id="p35141fab09">
   <rect height="554.4" width="390.6" x="235.173391" y="25.053562"/>
  </clipPath>
 </defs>
</svg>
