<?xml version="1.0" encoding="utf-8" standalone="no"?>
<!DOCTYPE svg PUBLIC "-//W3C//DTD SVG 1.1//EN"
  "http://www.w3.org/Graphics/SVG/1.1/DTD/svg11.dtd">
<svg height="320.07625pt" version="1.1" viewBox="0 0 435.182187 320.07625" width="435.182187pt" xmlns="http://www.w3.org/2000/svg" xmlns:xlink="http://www.w3.org/1999/xlink">
 <metadata>
  <rdf:RDF xmlns:cc="http://creativecommons.org/ns#" xmlns:dc="http://purl.org/dc/elements/1.1/" xmlns:rdf="http://www.w3.org/1999/02/22-rdf-syntax-ns#">
   <cc:Work>
    <dc:type rdf:resource="http://purl.org/dc/dcmitype/StillImage"/>
    <dc:date>2023-05-03T16:29:39.176619</dc:date>
    <dc:format>image/svg+xml</dc:format>
    <dc:creator>
     <cc:Agent>
      <dc:title>Matplotlib v3.4.3, https://matplotlib.org/</dc:title>
     </cc:Agent>
    </dc:creator>
   </cc:Work>
  </rdf:RDF>
 </metadata>
 <defs>
  <style type="text/css">*{stroke-linecap:butt;stroke-linejoin:round;}</style>
 </defs>
 <g id="figure_1">
  <g id="patch_1">
   <path d="M 0 320.07625 
L 435.182187 320.07625 
L 435.182187 0 
L 0 0 
z
" style="fill:#ffffff;"/>
  </g>
  <g id="axes_1">
   <g id="patch_2">
    <path d="M 28.942188 296.198125 
L 427.982187 296.198125 
L 427.982187 185.118125 
L 28.942188 185.118125 
z
" style="fill:#ffffff;"/>
   </g>
   <g id="matplotlib.axis_1">
    <g id="xtick_1">
     <g id="line2d_1">
      <defs>
       <path d="M 0 0 
L 0 3.5 
" id="m41b6ba9bf7" style="stroke:#000000;stroke-width:0.8;"/>
      </defs>
      <g>
       <use style="stroke:#000000;stroke-width:0.8;" x="47.080369" xlink:href="#m41b6ba9bf7" y="296.198125"/>
      </g>
     </g>
     <g id="text_1">
      <!-- 0 -->
      <g transform="translate(43.899119 310.796562)scale(0.1 -0.1)">
       <defs>
        <path d="M 2034 4250 
Q 1547 4250 1301 3770 
Q 1056 3291 1056 2328 
Q 1056 1369 1301 889 
Q 1547 409 2034 409 
Q 2525 409 2770 889 
Q 3016 1369 3016 2328 
Q 3016 3291 2770 3770 
Q 2525 4250 2034 4250 
z
M 2034 4750 
Q 2819 4750 3233 4129 
Q 3647 3509 3647 2328 
Q 3647 1150 3233 529 
Q 2819 -91 2034 -91 
Q 1250 -91 836 529 
Q 422 1150 422 2328 
Q 422 3509 836 4129 
Q 1250 4750 2034 4750 
z
" id="DejaVuSans-30" transform="scale(0.015625)"/>
       </defs>
       <use xlink:href="#DejaVuSans-30"/>
      </g>
     </g>
    </g>
    <g id="xtick_2">
     <g id="line2d_2">
      <g>
       <use style="stroke:#000000;stroke-width:0.8;" x="119.778493" xlink:href="#m41b6ba9bf7" y="296.198125"/>
      </g>
     </g>
     <g id="text_2">
      <!-- 1 -->
      <g transform="translate(116.597243 310.796562)scale(0.1 -0.1)">
       <defs>
        <path d="M 794 531 
L 1825 531 
L 1825 4091 
L 703 3866 
L 703 4441 
L 1819 4666 
L 2450 4666 
L 2450 531 
L 3481 531 
L 3481 0 
L 794 0 
L 794 531 
z
" id="DejaVuSans-31" transform="scale(0.015625)"/>
       </defs>
       <use xlink:href="#DejaVuSans-31"/>
      </g>
     </g>
    </g>
    <g id="xtick_3">
     <g id="line2d_3">
      <g>
       <use style="stroke:#000000;stroke-width:0.8;" x="192.476616" xlink:href="#m41b6ba9bf7" y="296.198125"/>
      </g>
     </g>
     <g id="text_3">
      <!-- 2 -->
      <g transform="translate(189.295366 310.796562)scale(0.1 -0.1)">
       <defs>
        <path d="M 1228 531 
L 3431 531 
L 3431 0 
L 469 0 
L 469 531 
Q 828 903 1448 1529 
Q 2069 2156 2228 2338 
Q 2531 2678 2651 2914 
Q 2772 3150 2772 3378 
Q 2772 3750 2511 3984 
Q 2250 4219 1831 4219 
Q 1534 4219 1204 4116 
Q 875 4013 500 3803 
L 500 4441 
Q 881 4594 1212 4672 
Q 1544 4750 1819 4750 
Q 2544 4750 2975 4387 
Q 3406 4025 3406 3419 
Q 3406 3131 3298 2873 
Q 3191 2616 2906 2266 
Q 2828 2175 2409 1742 
Q 1991 1309 1228 531 
z
" id="DejaVuSans-32" transform="scale(0.015625)"/>
       </defs>
       <use xlink:href="#DejaVuSans-32"/>
      </g>
     </g>
    </g>
    <g id="xtick_4">
     <g id="line2d_4">
      <g>
       <use style="stroke:#000000;stroke-width:0.8;" x="265.17474" xlink:href="#m41b6ba9bf7" y="296.198125"/>
      </g>
     </g>
     <g id="text_4">
      <!-- 3 -->
      <g transform="translate(261.99349 310.796562)scale(0.1 -0.1)">
       <defs>
        <path d="M 2597 2516 
Q 3050 2419 3304 2112 
Q 3559 1806 3559 1356 
Q 3559 666 3084 287 
Q 2609 -91 1734 -91 
Q 1441 -91 1130 -33 
Q 819 25 488 141 
L 488 750 
Q 750 597 1062 519 
Q 1375 441 1716 441 
Q 2309 441 2620 675 
Q 2931 909 2931 1356 
Q 2931 1769 2642 2001 
Q 2353 2234 1838 2234 
L 1294 2234 
L 1294 2753 
L 1863 2753 
Q 2328 2753 2575 2939 
Q 2822 3125 2822 3475 
Q 2822 3834 2567 4026 
Q 2313 4219 1838 4219 
Q 1578 4219 1281 4162 
Q 984 4106 628 3988 
L 628 4550 
Q 988 4650 1302 4700 
Q 1616 4750 1894 4750 
Q 2613 4750 3031 4423 
Q 3450 4097 3450 3541 
Q 3450 3153 3228 2886 
Q 3006 2619 2597 2516 
z
" id="DejaVuSans-33" transform="scale(0.015625)"/>
       </defs>
       <use xlink:href="#DejaVuSans-33"/>
      </g>
     </g>
    </g>
    <g id="xtick_5">
     <g id="line2d_5">
      <g>
       <use style="stroke:#000000;stroke-width:0.8;" x="337.872863" xlink:href="#m41b6ba9bf7" y="296.198125"/>
      </g>
     </g>
     <g id="text_5">
      <!-- 4 -->
      <g transform="translate(334.691613 310.796562)scale(0.1 -0.1)">
       <defs>
        <path d="M 2419 4116 
L 825 1625 
L 2419 1625 
L 2419 4116 
z
M 2253 4666 
L 3047 4666 
L 3047 1625 
L 3713 1625 
L 3713 1100 
L 3047 1100 
L 3047 0 
L 2419 0 
L 2419 1100 
L 313 1100 
L 313 1709 
L 2253 4666 
z
" id="DejaVuSans-34" transform="scale(0.015625)"/>
       </defs>
       <use xlink:href="#DejaVuSans-34"/>
      </g>
     </g>
    </g>
    <g id="xtick_6">
     <g id="line2d_6">
      <g>
       <use style="stroke:#000000;stroke-width:0.8;" x="410.570987" xlink:href="#m41b6ba9bf7" y="296.198125"/>
      </g>
     </g>
     <g id="text_6">
      <!-- 5 -->
      <g transform="translate(407.389737 310.796562)scale(0.1 -0.1)">
       <defs>
        <path d="M 691 4666 
L 3169 4666 
L 3169 4134 
L 1269 4134 
L 1269 2991 
Q 1406 3038 1543 3061 
Q 1681 3084 1819 3084 
Q 2600 3084 3056 2656 
Q 3513 2228 3513 1497 
Q 3513 744 3044 326 
Q 2575 -91 1722 -91 
Q 1428 -91 1123 -41 
Q 819 9 494 109 
L 494 744 
Q 775 591 1075 516 
Q 1375 441 1709 441 
Q 2250 441 2565 725 
Q 2881 1009 2881 1497 
Q 2881 1984 2565 2268 
Q 2250 2553 1709 2553 
Q 1456 2553 1204 2497 
Q 953 2441 691 2322 
L 691 4666 
z
" id="DejaVuSans-35" transform="scale(0.015625)"/>
       </defs>
       <use xlink:href="#DejaVuSans-35"/>
      </g>
     </g>
    </g>
   </g>
   <g id="matplotlib.axis_2">
    <g id="ytick_1">
     <g id="line2d_7">
      <defs>
       <path d="M 0 0 
L -3.5 0 
" id="m0fc4121989" style="stroke:#000000;stroke-width:0.8;"/>
      </defs>
      <g>
       <use style="stroke:#000000;stroke-width:0.8;" x="28.942188" xlink:href="#m0fc4121989" y="293.64767"/>
      </g>
     </g>
     <g id="text_7">
      <!-- −2 -->
      <g transform="translate(7.2 297.446889)scale(0.1 -0.1)">
       <defs>
        <path d="M 678 2272 
L 4684 2272 
L 4684 1741 
L 678 1741 
L 678 2272 
z
" id="DejaVuSans-2212" transform="scale(0.015625)"/>
       </defs>
       <use xlink:href="#DejaVuSans-2212"/>
       <use x="83.789062" xlink:href="#DejaVuSans-32"/>
      </g>
     </g>
    </g>
    <g id="ytick_2">
     <g id="line2d_8">
      <g>
       <use style="stroke:#000000;stroke-width:0.8;" x="28.942188" xlink:href="#m0fc4121989" y="267.152898"/>
      </g>
     </g>
     <g id="text_8">
      <!-- −1 -->
      <g transform="translate(7.2 270.952116)scale(0.1 -0.1)">
       <use xlink:href="#DejaVuSans-2212"/>
       <use x="83.789062" xlink:href="#DejaVuSans-31"/>
      </g>
     </g>
    </g>
    <g id="ytick_3">
     <g id="line2d_9">
      <g>
       <use style="stroke:#000000;stroke-width:0.8;" x="28.942188" xlink:href="#m0fc4121989" y="240.658125"/>
      </g>
     </g>
     <g id="text_9">
      <!-- 0 -->
      <g transform="translate(15.579688 244.457344)scale(0.1 -0.1)">
       <use xlink:href="#DejaVuSans-30"/>
      </g>
     </g>
    </g>
    <g id="ytick_4">
     <g id="line2d_10">
      <g>
       <use style="stroke:#000000;stroke-width:0.8;" x="28.942188" xlink:href="#m0fc4121989" y="214.163352"/>
      </g>
     </g>
     <g id="text_10">
      <!-- 1 -->
      <g transform="translate(15.579688 217.962571)scale(0.1 -0.1)">
       <use xlink:href="#DejaVuSans-31"/>
      </g>
     </g>
    </g>
    <g id="ytick_5">
     <g id="line2d_11">
      <g>
       <use style="stroke:#000000;stroke-width:0.8;" x="28.942188" xlink:href="#m0fc4121989" y="187.66858"/>
      </g>
     </g>
     <g id="text_11">
      <!-- 2 -->
      <g transform="translate(15.579688 191.467799)scale(0.1 -0.1)">
       <use xlink:href="#DejaVuSans-32"/>
      </g>
     </g>
    </g>
   </g>
   <g id="line2d_12">
    <path clip-path="url(#p58f488127b)" d="M 47.080369 214.163352 
L 48.534332 211.311972 
L 49.261313 210.250737 
L 49.988294 209.434927 
L 50.715275 208.863775 
L 51.442257 208.534472 
L 52.169238 208.442222 
L 52.896219 208.580313 
L 53.6232 208.940209 
L 54.350182 209.511652 
L 55.077163 210.282785 
L 56.531125 212.369483 
L 57.985088 215.078708 
L 59.43905 218.2728 
L 61.619994 223.647434 
L 65.981881 234.630207 
L 67.435844 237.850194 
L 68.889806 240.658125 
L 70.343769 242.970791 
L 71.797731 244.73034 
L 73.251694 245.905942 
L 73.978675 246.272689 
L 74.705656 246.494392 
L 75.432637 246.574886 
L 76.159619 246.51961 
L 76.8866 246.335538 
L 78.340562 245.616032 
L 79.794525 244.499165 
L 81.248487 243.085306 
L 87.064337 236.817085 
L 88.5183 235.700218 
L 89.972262 234.980712 
L 90.699243 234.79664 
L 91.426225 234.741364 
L 92.153206 234.821858 
L 92.880187 235.043561 
L 93.607168 235.410308 
L 94.33415 235.924268 
L 95.788112 237.393972 
L 97.242075 239.435649 
L 98.696037 242.004815 
L 100.149999 245.030667 
L 102.330943 250.212213 
L 108.146793 264.692022 
L 109.600756 267.66168 
L 111.054718 270.07597 
L 111.781699 271.033465 
L 112.50868 271.804598 
L 113.235662 272.376041 
L 113.962643 272.735937 
L 114.689624 272.874028 
L 115.416605 272.781778 
L 116.143587 272.452475 
L 116.870568 271.881323 
L 117.597549 271.065513 
L 118.32453 270.004278 
L 119.051512 268.698933 
L 120.505474 265.371692 
L 121.959437 261.136262 
L 123.413399 256.077805 
L 124.867361 250.312177 
L 127.048305 240.658125 
L 133.591136 210.244253 
L 135.045099 204.473391 
L 136.499061 199.48 
L 137.953024 195.428719 
L 138.680005 193.801061 
L 139.406986 192.45896 
L 140.133967 191.415102 
L 140.860949 190.680034 
L 141.58793 190.262073 
L 142.314911 190.167216 
L 143.041892 190.399085 
L 143.768874 190.95888 
L 144.495855 191.845358 
L 145.222836 193.054826 
L 145.949817 194.581161 
L 147.40378 198.548018 
L 148.857742 203.650167 
L 150.311705 209.757251 
L 151.765667 216.70814 
L 153.946611 228.301694 
L 160.489442 264.60811 
L 161.943404 271.558999 
L 163.397367 277.666083 
L 164.851329 282.768232 
L 166.305292 286.735089 
L 167.032273 288.261424 
L 167.759254 289.470892 
L 168.486236 290.35737 
L 169.213217 290.917165 
L 169.940198 291.149034 
L 170.667179 291.054177 
L 171.394161 290.636216 
L 172.121142 289.901148 
L 172.848123 288.85729 
L 173.575104 287.515189 
L 175.029067 283.98902 
L 176.483029 279.447556 
L 177.936992 274.043486 
L 180.117935 264.707892 
L 183.752842 247.514119 
L 186.660766 234.108221 
L 188.84171 225.238445 
L 190.295673 220.179988 
L 191.749635 215.944558 
L 193.203598 212.617317 
L 193.930579 211.311972 
L 194.65756 210.250737 
L 195.384541 209.434927 
L 196.111523 208.863775 
L 196.838504 208.534472 
L 197.565485 208.442222 
L 198.292466 208.580313 
L 199.019447 208.940209 
L 199.746429 209.511652 
L 200.47341 210.282785 
L 201.927372 212.369483 
L 203.381335 215.078708 
L 204.835297 218.2728 
L 207.016241 223.647434 
L 211.378128 234.630207 
L 212.832091 237.850194 
L 214.286053 240.658125 
L 215.740016 242.970791 
L 217.193978 244.73034 
L 218.647941 245.905942 
L 219.374922 246.272689 
L 220.101903 246.494392 
L 220.828885 246.574886 
L 221.555866 246.51961 
L 222.282847 246.335538 
L 223.736809 245.616032 
L 225.190772 244.499165 
L 226.644734 243.085306 
L 232.460584 236.817085 
L 233.914547 235.700218 
L 235.368509 234.980712 
L 236.09549 234.79664 
L 236.822472 234.741364 
L 237.549453 234.821858 
L 238.276434 235.043561 
L 239.003415 235.410308 
L 239.730397 235.924268 
L 241.184359 237.393972 
L 242.638322 239.435649 
L 244.092284 242.004815 
L 245.546247 245.030667 
L 247.72719 250.212213 
L 253.54304 264.692022 
L 254.997003 267.66168 
L 256.450965 270.07597 
L 257.177946 271.033465 
L 257.904928 271.804598 
L 258.631909 272.376041 
L 259.35889 272.735937 
L 260.085871 272.874028 
L 260.812852 272.781778 
L 261.539834 272.452475 
L 262.266815 271.881323 
L 262.993796 271.065513 
L 263.720777 270.004278 
L 264.447759 268.698933 
L 265.901721 265.371692 
L 267.355684 261.136262 
L 268.809646 256.077805 
L 270.263609 250.312177 
L 272.444552 240.658125 
L 278.987383 210.244253 
L 280.441346 204.473391 
L 281.895308 199.48 
L 283.349271 195.428719 
L 284.076252 193.801061 
L 284.803233 192.45896 
L 285.530214 191.415102 
L 286.257196 190.680034 
L 286.984177 190.262073 
L 287.711158 190.167216 
L 288.438139 190.399085 
L 289.165121 190.95888 
L 289.892102 191.845358 
L 290.619083 193.054826 
L 291.346064 194.581161 
L 292.800027 198.548018 
L 294.253989 203.650167 
L 295.707952 209.757251 
L 297.161914 216.70814 
L 299.342858 228.301694 
L 305.885689 264.60811 
L 307.339652 271.558999 
L 308.793614 277.666083 
L 310.247576 282.768232 
L 311.701539 286.735089 
L 312.42852 288.261424 
L 313.155501 289.470892 
L 313.882483 290.35737 
L 314.609464 290.917165 
L 315.336445 291.149034 
L 316.063426 291.054177 
L 316.790408 290.636216 
L 317.517389 289.901148 
L 318.24437 288.85729 
L 318.971351 287.515189 
L 320.425314 283.98902 
L 321.879276 279.447556 
L 323.333239 274.043486 
L 325.514182 264.707892 
L 329.149089 247.514119 
L 332.057014 234.108221 
L 334.237957 225.238445 
L 335.69192 220.179988 
L 337.145882 215.944558 
L 338.599845 212.617317 
L 339.326826 211.311972 
L 340.053807 210.250737 
L 340.780788 209.434927 
L 341.50777 208.863775 
L 342.234751 208.534472 
L 342.961732 208.442222 
L 343.688713 208.580313 
L 344.415695 208.940209 
L 345.142676 209.511652 
L 345.869657 210.282785 
L 347.323619 212.369483 
L 348.777582 215.078708 
L 350.231544 218.2728 
L 352.412488 223.647434 
L 356.774376 234.630207 
L 358.228338 237.850194 
L 359.6823 240.658125 
L 361.136263 242.970791 
L 362.590225 244.73034 
L 364.044188 245.905942 
L 364.771169 246.272689 
L 365.49815 246.494392 
L 366.225132 246.574886 
L 366.952113 246.51961 
L 367.679094 246.335538 
L 369.133057 245.616032 
L 370.587019 244.499165 
L 372.040981 243.085306 
L 377.856831 236.817085 
L 379.310794 235.700218 
L 380.764756 234.980712 
L 381.491738 234.79664 
L 382.218719 234.741364 
L 382.9457 234.821858 
L 383.672681 235.043561 
L 384.399662 235.410308 
L 385.126644 235.924268 
L 386.580606 237.393972 
L 388.034569 239.435649 
L 389.488531 242.004815 
L 390.942494 245.030667 
L 393.123437 250.212213 
L 398.939287 264.692022 
L 400.39325 267.66168 
L 401.847212 270.07597 
L 402.574193 271.033465 
L 403.301175 271.804598 
L 404.028156 272.376041 
L 404.755137 272.735937 
L 405.482118 272.874028 
L 406.2091 272.781778 
L 406.936081 272.452475 
L 407.663062 271.881323 
L 408.390043 271.065513 
L 409.117024 270.004278 
L 409.844006 268.698933 
L 409.844006 268.698933 
" style="fill:none;stroke:#1f77b4;stroke-linecap:square;stroke-width:1.5;"/>
   </g>
   <g id="patch_3">
    <path d="M 28.942188 296.198125 
L 28.942188 185.118125 
" style="fill:none;stroke:#000000;stroke-linecap:square;stroke-linejoin:miter;stroke-width:0.8;"/>
   </g>
   <g id="patch_4">
    <path d="M 427.982187 296.198125 
L 427.982187 185.118125 
" style="fill:none;stroke:#000000;stroke-linecap:square;stroke-linejoin:miter;stroke-width:0.8;"/>
   </g>
   <g id="patch_5">
    <path d="M 28.942188 296.198125 
L 427.982188 296.198125 
" style="fill:none;stroke:#000000;stroke-linecap:square;stroke-linejoin:miter;stroke-width:0.8;"/>
   </g>
   <g id="patch_6">
    <path d="M 28.942188 185.118125 
L 427.982188 185.118125 
" style="fill:none;stroke:#000000;stroke-linecap:square;stroke-linejoin:miter;stroke-width:0.8;"/>
   </g>
   <g id="text_12">
    <!-- Normal -->
    <g transform="translate(206.7525 179.118125)scale(0.12 -0.12)">
     <defs>
      <path d="M 628 4666 
L 1478 4666 
L 3547 763 
L 3547 4666 
L 4159 4666 
L 4159 0 
L 3309 0 
L 1241 3903 
L 1241 0 
L 628 0 
L 628 4666 
z
" id="DejaVuSans-4e" transform="scale(0.015625)"/>
      <path d="M 1959 3097 
Q 1497 3097 1228 2736 
Q 959 2375 959 1747 
Q 959 1119 1226 758 
Q 1494 397 1959 397 
Q 2419 397 2687 759 
Q 2956 1122 2956 1747 
Q 2956 2369 2687 2733 
Q 2419 3097 1959 3097 
z
M 1959 3584 
Q 2709 3584 3137 3096 
Q 3566 2609 3566 1747 
Q 3566 888 3137 398 
Q 2709 -91 1959 -91 
Q 1206 -91 779 398 
Q 353 888 353 1747 
Q 353 2609 779 3096 
Q 1206 3584 1959 3584 
z
" id="DejaVuSans-6f" transform="scale(0.015625)"/>
      <path d="M 2631 2963 
Q 2534 3019 2420 3045 
Q 2306 3072 2169 3072 
Q 1681 3072 1420 2755 
Q 1159 2438 1159 1844 
L 1159 0 
L 581 0 
L 581 3500 
L 1159 3500 
L 1159 2956 
Q 1341 3275 1631 3429 
Q 1922 3584 2338 3584 
Q 2397 3584 2469 3576 
Q 2541 3569 2628 3553 
L 2631 2963 
z
" id="DejaVuSans-72" transform="scale(0.015625)"/>
      <path d="M 3328 2828 
Q 3544 3216 3844 3400 
Q 4144 3584 4550 3584 
Q 5097 3584 5394 3201 
Q 5691 2819 5691 2113 
L 5691 0 
L 5113 0 
L 5113 2094 
Q 5113 2597 4934 2840 
Q 4756 3084 4391 3084 
Q 3944 3084 3684 2787 
Q 3425 2491 3425 1978 
L 3425 0 
L 2847 0 
L 2847 2094 
Q 2847 2600 2669 2842 
Q 2491 3084 2119 3084 
Q 1678 3084 1418 2786 
Q 1159 2488 1159 1978 
L 1159 0 
L 581 0 
L 581 3500 
L 1159 3500 
L 1159 2956 
Q 1356 3278 1631 3431 
Q 1906 3584 2284 3584 
Q 2666 3584 2933 3390 
Q 3200 3197 3328 2828 
z
" id="DejaVuSans-6d" transform="scale(0.015625)"/>
      <path d="M 2194 1759 
Q 1497 1759 1228 1600 
Q 959 1441 959 1056 
Q 959 750 1161 570 
Q 1363 391 1709 391 
Q 2188 391 2477 730 
Q 2766 1069 2766 1631 
L 2766 1759 
L 2194 1759 
z
M 3341 1997 
L 3341 0 
L 2766 0 
L 2766 531 
Q 2569 213 2275 61 
Q 1981 -91 1556 -91 
Q 1019 -91 701 211 
Q 384 513 384 1019 
Q 384 1609 779 1909 
Q 1175 2209 1959 2209 
L 2766 2209 
L 2766 2266 
Q 2766 2663 2505 2880 
Q 2244 3097 1772 3097 
Q 1472 3097 1187 3025 
Q 903 2953 641 2809 
L 641 3341 
Q 956 3463 1253 3523 
Q 1550 3584 1831 3584 
Q 2591 3584 2966 3190 
Q 3341 2797 3341 1997 
z
" id="DejaVuSans-61" transform="scale(0.015625)"/>
      <path d="M 603 4863 
L 1178 4863 
L 1178 0 
L 603 0 
L 603 4863 
z
" id="DejaVuSans-6c" transform="scale(0.015625)"/>
     </defs>
     <use xlink:href="#DejaVuSans-4e"/>
     <use x="74.804688" xlink:href="#DejaVuSans-6f"/>
     <use x="135.986328" xlink:href="#DejaVuSans-72"/>
     <use x="175.349609" xlink:href="#DejaVuSans-6d"/>
     <use x="272.761719" xlink:href="#DejaVuSans-61"/>
     <use x="334.041016" xlink:href="#DejaVuSans-6c"/>
    </g>
   </g>
  </g>
  <g id="axes_2">
   <g id="patch_7">
    <path d="M 28.942188 133.398125 
L 202.812187 133.398125 
L 202.812187 22.318125 
L 28.942188 22.318125 
z
" style="fill:#ffffff;"/>
   </g>
   <g id="matplotlib.axis_3">
    <g id="xtick_7">
     <g id="line2d_13">
      <g>
       <use style="stroke:#000000;stroke-width:0.8;" x="57.920521" xlink:href="#m41b6ba9bf7" y="133.398125"/>
      </g>
     </g>
     <g id="text_13">
      <!-- 0 -->
      <g transform="translate(54.739271 147.996562)scale(0.1 -0.1)">
       <use xlink:href="#DejaVuSans-30"/>
      </g>
     </g>
    </g>
    <g id="xtick_8">
     <g id="line2d_14">
      <g>
       <use style="stroke:#000000;stroke-width:0.8;" x="104.378771" xlink:href="#m41b6ba9bf7" y="133.398125"/>
      </g>
     </g>
     <g id="text_14">
      <!-- 2 -->
      <g transform="translate(101.197521 147.996562)scale(0.1 -0.1)">
       <use xlink:href="#DejaVuSans-32"/>
      </g>
     </g>
    </g>
    <g id="xtick_9">
     <g id="line2d_15">
      <g>
       <use style="stroke:#000000;stroke-width:0.8;" x="150.83702" xlink:href="#m41b6ba9bf7" y="133.398125"/>
      </g>
     </g>
     <g id="text_15">
      <!-- 4 -->
      <g transform="translate(147.65577 147.996562)scale(0.1 -0.1)">
       <use xlink:href="#DejaVuSans-34"/>
      </g>
     </g>
    </g>
    <g id="xtick_10">
     <g id="line2d_16">
      <g>
       <use style="stroke:#000000;stroke-width:0.8;" x="197.29527" xlink:href="#m41b6ba9bf7" y="133.398125"/>
      </g>
     </g>
     <g id="text_16">
      <!-- 6 -->
      <g transform="translate(194.11402 147.996562)scale(0.1 -0.1)">
       <defs>
        <path d="M 2113 2584 
Q 1688 2584 1439 2293 
Q 1191 2003 1191 1497 
Q 1191 994 1439 701 
Q 1688 409 2113 409 
Q 2538 409 2786 701 
Q 3034 994 3034 1497 
Q 3034 2003 2786 2293 
Q 2538 2584 2113 2584 
z
M 3366 4563 
L 3366 3988 
Q 3128 4100 2886 4159 
Q 2644 4219 2406 4219 
Q 1781 4219 1451 3797 
Q 1122 3375 1075 2522 
Q 1259 2794 1537 2939 
Q 1816 3084 2150 3084 
Q 2853 3084 3261 2657 
Q 3669 2231 3669 1497 
Q 3669 778 3244 343 
Q 2819 -91 2113 -91 
Q 1303 -91 875 529 
Q 447 1150 447 2328 
Q 447 3434 972 4092 
Q 1497 4750 2381 4750 
Q 2619 4750 2861 4703 
Q 3103 4656 3366 4563 
z
" id="DejaVuSans-36" transform="scale(0.015625)"/>
       </defs>
       <use xlink:href="#DejaVuSans-36"/>
      </g>
     </g>
    </g>
   </g>
   <g id="matplotlib.axis_4">
    <g id="ytick_6">
     <g id="line2d_17">
      <g>
       <use style="stroke:#000000;stroke-width:0.8;" x="28.942188" xlink:href="#m0fc4121989" y="116.717125"/>
      </g>
     </g>
     <g id="text_17">
      <!-- −2 -->
      <g transform="translate(7.2 120.516343)scale(0.1 -0.1)">
       <use xlink:href="#DejaVuSans-2212"/>
       <use x="83.789062" xlink:href="#DejaVuSans-32"/>
      </g>
     </g>
    </g>
    <g id="ytick_7">
     <g id="line2d_18">
      <g>
       <use style="stroke:#000000;stroke-width:0.8;" x="28.942188" xlink:href="#m0fc4121989" y="77.858125"/>
      </g>
     </g>
     <g id="text_18">
      <!-- 0 -->
      <g transform="translate(15.579688 81.657344)scale(0.1 -0.1)">
       <use xlink:href="#DejaVuSans-30"/>
      </g>
     </g>
    </g>
    <g id="ytick_8">
     <g id="line2d_19">
      <g>
       <use style="stroke:#000000;stroke-width:0.8;" x="28.942188" xlink:href="#m0fc4121989" y="38.999125"/>
      </g>
     </g>
     <g id="text_19">
      <!-- 2 -->
      <g transform="translate(15.579688 42.798344)scale(0.1 -0.1)">
       <use xlink:href="#DejaVuSans-32"/>
      </g>
     </g>
    </g>
   </g>
   <g id="line2d_20">
    <path clip-path="url(#pbe4d6ac303)" d="M 57.920521 58.428625 
L 58.617395 55.559374 
L 59.081977 54.542268 
L 59.314268 54.30078 
L 59.54656 54.23313 
L 59.778851 54.334396 
L 60.243433 55.017378 
L 60.708016 56.285038 
L 61.40489 59.099886 
L 62.334055 64.031447 
L 64.424676 75.798976 
L 65.12155 78.754607 
L 65.818423 80.844416 
L 66.283006 81.706524 
L 66.747588 82.138054 
L 67.212171 82.156547 
L 67.676753 81.7983 
L 68.141336 81.116496 
L 68.83821 79.638057 
L 70.928831 74.599754 
L 71.393413 73.91795 
L 71.857996 73.559703 
L 72.322578 73.578196 
L 72.787161 74.009726 
L 73.251743 74.871834 
L 73.716326 76.16217 
L 74.4132 78.845698 
L 75.342365 83.548894 
L 77.897568 97.660732 
L 78.594442 100.133374 
L 79.059025 101.11793 
L 79.523607 101.48312 
L 79.755898 101.41547 
L 79.98819 101.173982 
L 80.452772 100.156876 
L 80.917355 98.421384 
L 81.614228 94.508313 
L 82.311102 89.16589 
L 83.240267 80.296237 
L 86.260053 49.412542 
L 86.956927 44.689894 
L 87.421509 42.512071 
L 87.886092 41.207525 
L 88.118383 40.90102 
L 88.350674 40.831458 
L 88.582966 41.001495 
L 88.815257 41.412012 
L 89.279839 42.949039 
L 89.744422 45.413786 
L 90.441296 50.718956 
L 91.370461 60.294802 
L 92.764208 77.858125 
L 94.390247 98.039281 
L 95.319412 106.966741 
L 96.016286 111.647898 
L 96.480868 113.654154 
L 96.945451 114.714755 
L 97.177742 114.884792 
L 97.410033 114.81523 
L 97.642324 114.508725 
L 98.106907 113.204179 
L 98.571489 111.026356 
L 99.268363 106.303708 
L 100.197528 97.873624 
L 103.681897 62.840824 
L 104.378771 58.428625 
L 105.075644 55.559374 
L 105.540227 54.542268 
L 105.772518 54.30078 
L 106.004809 54.23313 
L 106.237101 54.334396 
L 106.701683 55.017378 
L 107.166266 56.285038 
L 107.863139 59.099886 
L 108.792304 64.031447 
L 110.882926 75.798976 
L 111.579799 78.754607 
L 112.276673 80.844416 
L 112.741256 81.706524 
L 113.205838 82.138054 
L 113.670421 82.156547 
L 114.135003 81.7983 
L 114.599586 81.116496 
L 115.296459 79.638057 
L 117.387081 74.599754 
L 117.851663 73.91795 
L 118.316246 73.559703 
L 118.780828 73.578196 
L 119.245411 74.009726 
L 119.709993 74.871834 
L 120.174576 76.16217 
L 120.871449 78.845698 
L 121.800614 83.548894 
L 124.355818 97.660732 
L 125.052692 100.133374 
L 125.517274 101.11793 
L 125.981857 101.48312 
L 126.214148 101.41547 
L 126.446439 101.173982 
L 126.911022 100.156876 
L 127.375604 98.421384 
L 128.072478 94.508313 
L 128.769352 89.16589 
L 129.698517 80.296237 
L 132.718303 49.412542 
L 133.415177 44.689894 
L 133.879759 42.512071 
L 134.344342 41.207525 
L 134.576633 40.90102 
L 134.808924 40.831458 
L 135.041216 41.001495 
L 135.273507 41.412012 
L 135.738089 42.949039 
L 136.202672 45.413786 
L 136.899546 50.718956 
L 137.828711 60.294802 
L 139.222458 77.858125 
L 140.848497 98.039281 
L 141.777662 106.966741 
L 142.474536 111.647898 
L 142.939118 113.654154 
L 143.403701 114.714755 
L 143.635992 114.884792 
L 143.868283 114.81523 
L 144.100574 114.508725 
L 144.565157 113.204179 
L 145.029739 111.026356 
L 145.726613 106.303708 
L 146.655778 97.873624 
L 150.140147 62.840824 
L 150.83702 58.428625 
L 151.533894 55.559374 
L 151.998477 54.542268 
L 152.230768 54.30078 
L 152.463059 54.23313 
L 152.69535 54.334396 
L 153.159933 55.017378 
L 153.624515 56.285038 
L 154.321389 59.099886 
L 155.250554 64.031447 
L 157.341175 75.798976 
L 158.038049 78.754607 
L 158.734923 80.844416 
L 159.199505 81.706524 
L 159.664088 82.138054 
L 160.12867 82.156547 
L 160.593253 81.7983 
L 161.057835 81.116496 
L 161.754709 79.638057 
L 163.84533 74.599754 
L 164.309913 73.91795 
L 164.774495 73.559703 
L 165.239078 73.578196 
L 165.70366 74.009726 
L 166.168243 74.871834 
L 166.632825 76.16217 
L 167.329699 78.845698 
L 168.258864 83.548894 
L 170.814068 97.660732 
L 171.510942 100.133374 
L 171.975524 101.11793 
L 172.440107 101.48312 
L 172.672398 101.41547 
L 172.904689 101.173982 
L 173.369272 100.156876 
L 173.833854 98.421384 
L 173.833854 98.421384 
" style="fill:none;stroke:#1f77b4;stroke-linecap:square;stroke-width:1.5;"/>
   </g>
   <g id="patch_8">
    <path d="M 28.942188 133.398125 
L 28.942188 22.318125 
" style="fill:none;stroke:#000000;stroke-linecap:square;stroke-linejoin:miter;stroke-width:0.8;"/>
   </g>
   <g id="patch_9">
    <path d="M 202.812187 133.398125 
L 202.812187 22.318125 
" style="fill:none;stroke:#000000;stroke-linecap:square;stroke-linejoin:miter;stroke-width:0.8;"/>
   </g>
   <g id="patch_10">
    <path d="M 28.942188 133.398125 
L 202.812188 133.398125 
" style="fill:none;stroke:#000000;stroke-linecap:square;stroke-linejoin:miter;stroke-width:0.8;"/>
   </g>
   <g id="patch_11">
    <path d="M 28.942188 22.318125 
L 202.812188 22.318125 
" style="fill:none;stroke:#000000;stroke-linecap:square;stroke-linejoin:miter;stroke-width:0.8;"/>
   </g>
   <g id="text_20">
    <!-- Zoomed out -->
    <g transform="translate(79.346563 16.318125)scale(0.12 -0.12)">
     <defs>
      <path d="M 359 4666 
L 4025 4666 
L 4025 4184 
L 1075 531 
L 4097 531 
L 4097 0 
L 288 0 
L 288 481 
L 3238 4134 
L 359 4134 
L 359 4666 
z
" id="DejaVuSans-5a" transform="scale(0.015625)"/>
      <path d="M 3597 1894 
L 3597 1613 
L 953 1613 
Q 991 1019 1311 708 
Q 1631 397 2203 397 
Q 2534 397 2845 478 
Q 3156 559 3463 722 
L 3463 178 
Q 3153 47 2828 -22 
Q 2503 -91 2169 -91 
Q 1331 -91 842 396 
Q 353 884 353 1716 
Q 353 2575 817 3079 
Q 1281 3584 2069 3584 
Q 2775 3584 3186 3129 
Q 3597 2675 3597 1894 
z
M 3022 2063 
Q 3016 2534 2758 2815 
Q 2500 3097 2075 3097 
Q 1594 3097 1305 2825 
Q 1016 2553 972 2059 
L 3022 2063 
z
" id="DejaVuSans-65" transform="scale(0.015625)"/>
      <path d="M 2906 2969 
L 2906 4863 
L 3481 4863 
L 3481 0 
L 2906 0 
L 2906 525 
Q 2725 213 2448 61 
Q 2172 -91 1784 -91 
Q 1150 -91 751 415 
Q 353 922 353 1747 
Q 353 2572 751 3078 
Q 1150 3584 1784 3584 
Q 2172 3584 2448 3432 
Q 2725 3281 2906 2969 
z
M 947 1747 
Q 947 1113 1208 752 
Q 1469 391 1925 391 
Q 2381 391 2643 752 
Q 2906 1113 2906 1747 
Q 2906 2381 2643 2742 
Q 2381 3103 1925 3103 
Q 1469 3103 1208 2742 
Q 947 2381 947 1747 
z
" id="DejaVuSans-64" transform="scale(0.015625)"/>
      <path id="DejaVuSans-20" transform="scale(0.015625)"/>
      <path d="M 544 1381 
L 544 3500 
L 1119 3500 
L 1119 1403 
Q 1119 906 1312 657 
Q 1506 409 1894 409 
Q 2359 409 2629 706 
Q 2900 1003 2900 1516 
L 2900 3500 
L 3475 3500 
L 3475 0 
L 2900 0 
L 2900 538 
Q 2691 219 2414 64 
Q 2138 -91 1772 -91 
Q 1169 -91 856 284 
Q 544 659 544 1381 
z
M 1991 3584 
L 1991 3584 
z
" id="DejaVuSans-75" transform="scale(0.015625)"/>
      <path d="M 1172 4494 
L 1172 3500 
L 2356 3500 
L 2356 3053 
L 1172 3053 
L 1172 1153 
Q 1172 725 1289 603 
Q 1406 481 1766 481 
L 2356 481 
L 2356 0 
L 1766 0 
Q 1100 0 847 248 
Q 594 497 594 1153 
L 594 3053 
L 172 3053 
L 172 3500 
L 594 3500 
L 594 4494 
L 1172 4494 
z
" id="DejaVuSans-74" transform="scale(0.015625)"/>
     </defs>
     <use xlink:href="#DejaVuSans-5a"/>
     <use x="68.505859" xlink:href="#DejaVuSans-6f"/>
     <use x="129.6875" xlink:href="#DejaVuSans-6f"/>
     <use x="190.869141" xlink:href="#DejaVuSans-6d"/>
     <use x="288.28125" xlink:href="#DejaVuSans-65"/>
     <use x="349.804688" xlink:href="#DejaVuSans-64"/>
     <use x="413.28125" xlink:href="#DejaVuSans-20"/>
     <use x="445.068359" xlink:href="#DejaVuSans-6f"/>
     <use x="506.25" xlink:href="#DejaVuSans-75"/>
     <use x="569.628906" xlink:href="#DejaVuSans-74"/>
    </g>
   </g>
  </g>
  <g id="axes_3">
   <g id="patch_12">
    <path d="M 254.112188 133.398125 
L 427.982188 133.398125 
L 427.982188 22.318125 
L 254.112188 22.318125 
z
" style="fill:#ffffff;"/>
   </g>
   <g id="matplotlib.axis_5">
    <g id="xtick_11">
     <g id="line2d_21">
      <g>
       <use style="stroke:#000000;stroke-width:0.8;" x="271.70825" xlink:href="#m41b6ba9bf7" y="133.398125"/>
      </g>
     </g>
     <g id="text_21">
      <!-- 1.5 -->
      <g transform="translate(263.756687 147.996562)scale(0.1 -0.1)">
       <defs>
        <path d="M 684 794 
L 1344 794 
L 1344 0 
L 684 0 
L 684 794 
z
" id="DejaVuSans-2e" transform="scale(0.015625)"/>
       </defs>
       <use xlink:href="#DejaVuSans-31"/>
       <use x="63.623047" xlink:href="#DejaVuSans-2e"/>
       <use x="95.410156" xlink:href="#DejaVuSans-35"/>
      </g>
     </g>
    </g>
    <g id="xtick_12">
     <g id="line2d_22">
      <g>
       <use style="stroke:#000000;stroke-width:0.8;" x="306.551937" xlink:href="#m41b6ba9bf7" y="133.398125"/>
      </g>
     </g>
     <g id="text_22">
      <!-- 2.0 -->
      <g transform="translate(298.600374 147.996562)scale(0.1 -0.1)">
       <use xlink:href="#DejaVuSans-32"/>
       <use x="63.623047" xlink:href="#DejaVuSans-2e"/>
       <use x="95.410156" xlink:href="#DejaVuSans-30"/>
      </g>
     </g>
    </g>
    <g id="xtick_13">
     <g id="line2d_23">
      <g>
       <use style="stroke:#000000;stroke-width:0.8;" x="341.395624" xlink:href="#m41b6ba9bf7" y="133.398125"/>
      </g>
     </g>
     <g id="text_23">
      <!-- 2.5 -->
      <g transform="translate(333.444062 147.996562)scale(0.1 -0.1)">
       <use xlink:href="#DejaVuSans-32"/>
       <use x="63.623047" xlink:href="#DejaVuSans-2e"/>
       <use x="95.410156" xlink:href="#DejaVuSans-35"/>
      </g>
     </g>
    </g>
    <g id="xtick_14">
     <g id="line2d_24">
      <g>
       <use style="stroke:#000000;stroke-width:0.8;" x="376.239312" xlink:href="#m41b6ba9bf7" y="133.398125"/>
      </g>
     </g>
     <g id="text_24">
      <!-- 3.0 -->
      <g transform="translate(368.287749 147.996562)scale(0.1 -0.1)">
       <use xlink:href="#DejaVuSans-33"/>
       <use x="63.623047" xlink:href="#DejaVuSans-2e"/>
       <use x="95.410156" xlink:href="#DejaVuSans-30"/>
      </g>
     </g>
    </g>
    <g id="xtick_15">
     <g id="line2d_25">
      <g>
       <use style="stroke:#000000;stroke-width:0.8;" x="411.082999" xlink:href="#m41b6ba9bf7" y="133.398125"/>
      </g>
     </g>
     <g id="text_25">
      <!-- 3.5 -->
      <g transform="translate(403.131437 147.996562)scale(0.1 -0.1)">
       <use xlink:href="#DejaVuSans-33"/>
       <use x="63.623047" xlink:href="#DejaVuSans-2e"/>
       <use x="95.410156" xlink:href="#DejaVuSans-35"/>
      </g>
     </g>
    </g>
   </g>
   <g id="matplotlib.axis_6">
    <g id="ytick_9">
     <g id="line2d_26">
      <g>
       <use style="stroke:#000000;stroke-width:0.8;" x="254.112188" xlink:href="#m0fc4121989" y="107.002375"/>
      </g>
     </g>
     <g id="text_26">
      <!-- −0.5 -->
      <g transform="translate(222.829375 110.801594)scale(0.1 -0.1)">
       <use xlink:href="#DejaVuSans-2212"/>
       <use x="83.789062" xlink:href="#DejaVuSans-30"/>
       <use x="147.412109" xlink:href="#DejaVuSans-2e"/>
       <use x="179.199219" xlink:href="#DejaVuSans-35"/>
      </g>
     </g>
    </g>
    <g id="ytick_10">
     <g id="line2d_27">
      <g>
       <use style="stroke:#000000;stroke-width:0.8;" x="254.112188" xlink:href="#m0fc4121989" y="77.858125"/>
      </g>
     </g>
     <g id="text_27">
      <!-- 0.0 -->
      <g transform="translate(231.209063 81.657344)scale(0.1 -0.1)">
       <use xlink:href="#DejaVuSans-30"/>
       <use x="63.623047" xlink:href="#DejaVuSans-2e"/>
       <use x="95.410156" xlink:href="#DejaVuSans-30"/>
      </g>
     </g>
    </g>
    <g id="ytick_11">
     <g id="line2d_28">
      <g>
       <use style="stroke:#000000;stroke-width:0.8;" x="254.112188" xlink:href="#m0fc4121989" y="48.713875"/>
      </g>
     </g>
     <g id="text_28">
      <!-- 0.5 -->
      <g transform="translate(231.209063 52.513094)scale(0.1 -0.1)">
       <use xlink:href="#DejaVuSans-30"/>
       <use x="63.623047" xlink:href="#DejaVuSans-2e"/>
       <use x="95.410156" xlink:href="#DejaVuSans-35"/>
      </g>
     </g>
    </g>
   </g>
   <g id="line2d_29">
    <path clip-path="url(#p4a8bb35731)" d="M 167.177188 19.569625 
L 168.570935 13.296589 
L 169.267809 10.961871 
L 169.964682 9.167088 
L 170.661556 7.910555 
L 171.35843 7.186089 
L 172.055304 6.983139 
L 172.752177 7.286939 
L 173.449051 8.078709 
L 174.145925 9.335884 
L 174.842799 11.032377 
L 175.539672 13.138865 
L 176.93342 18.450304 
L 178.327167 24.983552 
L 180.417789 36.378091 
L 185.992779 68.238533 
L 187.386526 74.895406 
L 188.780274 80.547572 
L 190.174021 85.039261 
L 190.870895 86.816998 
L 191.567769 88.27261 
L 192.264642 89.403323 
L 192.961516 90.210166 
L 193.65839 90.697913 
L 194.355264 90.874998 
L 195.052137 90.753391 
L 195.749011 90.348434 
L 196.445885 89.67865 
L 197.142759 88.765521 
L 198.536506 86.308413 
L 199.930254 83.197922 
L 202.717749 76.032658 
L 204.80837 70.896458 
L 206.202117 68.083013 
L 206.898991 66.950729 
L 207.595865 66.0376 
L 208.292739 65.367816 
L 208.989612 64.962859 
L 209.686486 64.841252 
L 210.38336 65.018337 
L 211.080234 65.506084 
L 211.777107 66.312927 
L 212.473981 67.44364 
L 213.170855 68.899252 
L 213.867729 70.676989 
L 215.261476 75.168678 
L 216.655224 80.820844 
L 218.048971 87.477717 
L 220.139592 98.877118 
L 225.714582 130.732698 
L 227.10833 137.265946 
L 228.502077 142.577385 
L 229.198951 144.683873 
L 229.895825 146.380366 
L 230.592699 147.637541 
L 231.289572 148.429311 
L 231.986446 148.733111 
L 232.68332 148.530161 
L 233.380194 147.805695 
L 234.077067 146.549162 
L 234.773941 144.754379 
L 235.470815 142.419661 
L 236.167689 139.547903 
L 237.561436 132.227973 
L 238.955183 122.910027 
L 240.348931 111.781421 
L 241.742678 99.097039 
L 243.8333 77.858125 
L 250.105163 10.947607 
L 251.414239 -1 
M 265.015515 -1 
L 266.13326 9.876203 
L 267.527007 25.168157 
L 269.617628 50.673976 
L 275.889492 130.548093 
L 277.28324 145.840047 
L 278.676987 159.275632 
L 280.070735 170.50036 
L 281.464482 179.227445 
L 282.161356 182.585383 
L 282.85823 185.246213 
L 283.555103 187.196464 
L 284.251977 188.428014 
L 284.948851 188.938125 
L 285.645725 188.72944 
L 286.342598 187.809924 
L 287.039472 186.192776 
L 287.736346 183.896288 
L 288.43322 180.943666 
L 289.130093 177.362818 
L 290.523841 168.449999 
L 291.917588 157.464539 
L 293.311336 144.768643 
L 295.401957 123.412768 
L 301.673821 56.619211 
L 303.067568 43.934829 
L 304.461316 32.806223 
L 305.855063 23.488277 
L 307.248811 16.168347 
L 307.945684 13.296589 
L 308.642558 10.961871 
L 309.339432 9.167088 
L 310.036306 7.910555 
L 310.733179 7.186089 
L 311.430053 6.983139 
L 312.126927 7.286939 
L 312.823801 8.078709 
L 313.520674 9.335884 
L 314.217548 11.032377 
L 314.914422 13.138865 
L 316.308169 18.450304 
L 317.701917 24.983552 
L 319.792538 36.378091 
L 325.367528 68.238533 
L 326.761276 74.895406 
L 328.155023 80.547572 
L 329.548771 85.039261 
L 330.245644 86.816998 
L 330.942518 88.27261 
L 331.639392 89.403323 
L 332.336266 90.210166 
L 333.033139 90.697913 
L 333.730013 90.874998 
L 334.426887 90.753391 
L 335.123761 90.348434 
L 335.820634 89.67865 
L 336.517508 88.765521 
L 337.911256 86.308413 
L 339.305003 83.197922 
L 342.092498 76.032658 
L 344.183119 70.896458 
L 345.576867 68.083013 
L 346.273741 66.950729 
L 346.970614 66.0376 
L 347.667488 65.367816 
L 348.364362 64.962859 
L 349.061236 64.841252 
L 349.758109 65.018337 
L 350.454983 65.506084 
L 351.151857 66.312927 
L 351.848731 67.44364 
L 352.545604 68.899252 
L 353.242478 70.676989 
L 354.636226 75.168678 
L 356.029973 80.820844 
L 357.423721 87.477717 
L 359.514342 98.877118 
L 365.089332 130.732698 
L 366.483079 137.265946 
L 367.876827 142.577385 
L 368.573701 144.683873 
L 369.270574 146.380366 
L 369.967448 147.637541 
L 370.664322 148.429311 
L 371.361196 148.733111 
L 372.058069 148.530161 
L 372.754943 147.805695 
L 373.451817 146.549162 
L 374.148691 144.754379 
L 374.845564 142.419661 
L 375.542438 139.547903 
L 376.936185 132.227973 
L 378.329933 122.910027 
L 379.72368 111.781421 
L 381.117428 99.097039 
L 383.208049 77.858125 
L 389.479913 10.947607 
L 390.788988 -1 
M 404.390265 -1 
L 405.508009 9.876203 
L 406.901757 25.168157 
L 408.992378 50.673976 
L 415.264242 130.548093 
L 416.657989 145.840047 
L 418.051737 159.275632 
L 419.445484 170.50036 
L 420.839232 179.227445 
L 421.536105 182.585383 
L 422.232979 185.246213 
L 422.929853 187.196464 
L 423.626727 188.428014 
L 424.3236 188.938125 
L 425.020474 188.72944 
L 425.717348 187.809924 
L 426.414222 186.192776 
L 427.111095 183.896288 
L 427.807969 180.943666 
L 428.504843 177.362818 
L 429.89859 168.449999 
L 431.292338 157.464539 
L 432.686085 144.768643 
L 434.776707 123.412768 
L 436.182187 108.145278 
L 436.182187 108.145278 
" style="fill:none;stroke:#1f77b4;stroke-linecap:square;stroke-width:1.5;"/>
   </g>
   <g id="patch_13">
    <path d="M 254.112188 133.398125 
L 254.112188 22.318125 
" style="fill:none;stroke:#000000;stroke-linecap:square;stroke-linejoin:miter;stroke-width:0.8;"/>
   </g>
   <g id="patch_14">
    <path d="M 427.982188 133.398125 
L 427.982188 22.318125 
" style="fill:none;stroke:#000000;stroke-linecap:square;stroke-linejoin:miter;stroke-width:0.8;"/>
   </g>
   <g id="patch_15">
    <path d="M 254.112188 133.398125 
L 427.982187 133.398125 
" style="fill:none;stroke:#000000;stroke-linecap:square;stroke-linejoin:miter;stroke-width:0.8;"/>
   </g>
   <g id="patch_16">
    <path d="M 254.112188 22.318125 
L 427.982187 22.318125 
" style="fill:none;stroke:#000000;stroke-linecap:square;stroke-linejoin:miter;stroke-width:0.8;"/>
   </g>
   <g id="text_29">
    <!-- Zoomed in -->
    <g transform="translate(308.873125 16.318125)scale(0.12 -0.12)">
     <defs>
      <path d="M 603 3500 
L 1178 3500 
L 1178 0 
L 603 0 
L 603 3500 
z
M 603 4863 
L 1178 4863 
L 1178 4134 
L 603 4134 
L 603 4863 
z
" id="DejaVuSans-69" transform="scale(0.015625)"/>
      <path d="M 3513 2113 
L 3513 0 
L 2938 0 
L 2938 2094 
Q 2938 2591 2744 2837 
Q 2550 3084 2163 3084 
Q 1697 3084 1428 2787 
Q 1159 2491 1159 1978 
L 1159 0 
L 581 0 
L 581 3500 
L 1159 3500 
L 1159 2956 
Q 1366 3272 1645 3428 
Q 1925 3584 2291 3584 
Q 2894 3584 3203 3211 
Q 3513 2838 3513 2113 
z
" id="DejaVuSans-6e" transform="scale(0.015625)"/>
     </defs>
     <use xlink:href="#DejaVuSans-5a"/>
     <use x="68.505859" xlink:href="#DejaVuSans-6f"/>
     <use x="129.6875" xlink:href="#DejaVuSans-6f"/>
     <use x="190.869141" xlink:href="#DejaVuSans-6d"/>
     <use x="288.28125" xlink:href="#DejaVuSans-65"/>
     <use x="349.804688" xlink:href="#DejaVuSans-64"/>
     <use x="413.28125" xlink:href="#DejaVuSans-20"/>
     <use x="445.068359" xlink:href="#DejaVuSans-69"/>
     <use x="472.851562" xlink:href="#DejaVuSans-6e"/>
    </g>
   </g>
  </g>
 </g>
 <defs>
  <clipPath id="p58f488127b">
   <rect height="111.08" width="399.04" x="28.942188" y="185.118125"/>
  </clipPath>
  <clipPath id="pbe4d6ac303">
   <rect height="111.08" width="173.87" x="28.942188" y="22.318125"/>
  </clipPath>
  <clipPath id="p4a8bb35731">
   <rect height="111.08" width="173.87" x="254.112188" y="22.318125"/>
  </clipPath>
 </defs>
</svg>
